<svg xmlns="http://www.w3.org/2000/svg" viewBox="0 0 24 24" width="24" height="24" aria-hidden="true" class="hidden"><symbol id="icon_archive" viewBox="0 0 24 24"><path d="M17.22 19.88c1.5 0 2.65-1.3 2.65-2.81V8.63H4.12v8.44c0 1.51 1.15 2.81 2.65 2.81h10.45Zm-8.03-9h5.62a.56.56 0 1 1 0 1.12H9.19a.56.56 0 1 1 0-1.12ZM3.9 4.13c-.5 0-.9.4-.9.9v1.35c0 .5.4.9.9.9h16.2c.5 0 .9-.4.9-.9V5.03c0-.5-.4-.9-.9-.9H3.9Z"/></symbol><symbol id="icon_arrow_left" viewBox="0 0 24 24"><path d="M20 12a.57.57 0 0 0-.57-.57H5.95l3.6-3.6a.58.58 0 0 0 0-.81.58.58 0 0 0-.81 0l-4.57 4.57a.58.58 0 0 0 0 .81l4.57 4.57c.22.22.59.22.81 0s.22-.59 0-.81l-3.6-3.6h13.48c.32 0 .57-.26.57-.57Z"/></symbol><symbol id="icon_arrow_right" viewBox="0 0 24 24"><path d="M4 12c0 .32.26.57.57.57h13.48l-3.6 3.6a.58.58 0 0 0 0 .81c.22.22.59.22.81 0l4.57-4.57a.58.58 0 0 0 0-.81l-4.57-4.57c-.22-.22-.59-.22-.81 0s-.22.59 0 .81l3.6 3.6H4.57a.57.57 0 0 0-.57.57Z"/></symbol><symbol id="icon_arrow_top" viewBox="0 0 24 24"><path d="M12 20c.32 0 .57-.26.57-.57V5.95l3.6 3.6c.22.22.59.22.81 0a.58.58 0 0 0 0-.81l-4.57-4.57a.58.58 0 0 0-.81 0L7.03 8.74c-.22.22-.22.59 0 .81s.59.22.81 0l3.6-3.6v13.48c0 .32.26.57.57.57Z"/></symbol><symbol id="icon_bookmark" viewBox="0 0 24 24"><path d="M5.25 20.44V5.25C5.25 4.01 6.26 3 7.5 3h9c1.24 0 2.25 1.01 2.25 2.25v15.19a.56.56 0 0 1-.83.49L12 17.7l-5.92 3.23a.56.56 0 0 1-.83-.49Zm6.93-12.83a.2.2 0 0 0-.36 0l-.71 1.45a.21.21 0 0 1-.15.11l-1.6.23a.21.21 0 0 0-.17.23c0 .04.03.08.06.11l1.15 1.13s.07.11.06.18l-.27 1.59c-.02.11.06.21.16.23.04 0 .09 0 .13-.02l1.43-.75c.06-.03.13-.03.19 0l1.43.75c.1.05.22.01.27-.09.02-.04.03-.08.02-.12l-.27-1.59c-.01-.06 0-.13.06-.18l1.16-1.13c.08-.08.08-.2 0-.28a.238.238 0 0 0-.11-.06l-1.6-.23c-.07 0-.12-.05-.15-.11l-.71-1.44Z"/></symbol><symbol id="icon_bookmark_add" viewBox="0 0 24 24"><path d="M11.82 7.61a.2.2 0 0 1 .36 0l.71 1.45c.03.06.09.1.15.11l1.6.23c.16.02.23.23.11.34l-1.15 1.13s-.07.11-.06.18l.27 1.59c.02.11-.06.21-.16.23-.04 0-.09 0-.13-.02l-1.43-.75a.212.212 0 0 0-.19 0l-1.43.75a.2.2 0 0 1-.27-.09c-.02-.04-.03-.08-.02-.12l.27-1.59c.01-.06 0-.13-.06-.18L9.23 9.74a.193.193 0 0 1 0-.28c.03-.03.07-.05.11-.06l1.6-.23c.07 0 .12-.05.15-.11l.71-1.45ZM5.25 5.25C5.25 4.01 6.26 3 7.5 3h9c1.24 0 2.25 1.01 2.25 2.25v15.19c0 .31-.25.56-.56.56-.11 0-.22-.03-.31-.09L12 17.74l-5.88 3.17c-.26.17-.61.1-.78-.16a.561.561 0 0 1-.09-.31V5.25ZM7.5 4.12c-.62 0-1.13.5-1.13 1.13v14.14l5.31-2.79c.19-.13.43-.13.62 0l5.31 2.79V5.25c0-.62-.5-1.13-1.13-1.13H7.5Z"/></symbol><symbol id="icon_check" viewBox="0 0 24 24"><path d="M18.16 6.14c.41-.42 1.09-.43 1.51-.02l.02.02c.42.42.42 1.1.01 1.53l-8.6 10.17c-.4.44-1.07.47-1.51.07l-.04-.04-5.23-5.3c-.42-.43-.42-1.11 0-1.54.41-.42 1.09-.43 1.51-.02l.02.02 4.44 4.5 7.85-9.35.03-.03Z"/></symbol><symbol id="icon_clear" viewBox="0 0 24 24"><path d="M21 6.26a2.3 2.3 0 0 0-2.3-2.3h-8.12c-.67 0-1.31.29-1.74.8l-5.56 6.49c-.37.43-.37 1.06 0 1.49l5.56 6.48c.44.51 1.07.8 1.74.8h8.13a2.3 2.3 0 0 0 2.3-2.3V6.24ZM9.69 9.54a.58.58 0 0 1 0-.81.58.58 0 0 1 .81 0l2.46 2.46 2.46-2.46a.58.58 0 0 1 .81 0c.22.22.22.59 0 .81L13.77 12l2.46 2.46c.22.22.22.59 0 .81a.58.58 0 0 1-.81 0l-2.46-2.46-2.46 2.46a.58.58 0 0 1-.81 0 .58.58 0 0 1 0-.81L12.15 12 9.69 9.54Z"/></symbol><symbol id="icon_clear_rtl" viewBox="0 0 24 24"><path d="M3 17.74a2.3 2.3 0 0 0 2.3 2.3h8.12c.67 0 1.31-.29 1.74-.8l5.56-6.49c.37-.43.37-1.06 0-1.49l-5.56-6.48a2.29 2.29 0 0 0-1.74-.8H5.3A2.3 2.3 0 0 0 3 6.28v11.48Zm11.31-3.28c.22.22.22.59 0 .81a.58.58 0 0 1-.81 0l-2.46-2.46-2.46 2.46a.58.58 0 0 1-.81 0 .58.58 0 0 1 0-.81L10.23 12 7.77 9.54a.58.58 0 0 1 0-.81.58.58 0 0 1 .81 0l2.46 2.46 2.46-2.46a.58.58 0 0 1 .81 0c.22.22.22.59 0 .81L11.85 12l2.46 2.46Z"/></symbol><symbol id="icon_close" viewBox="0 0 24 24"><path d="M5.29 5.29a.996.996 0 0 1 1.41 0l5.29 5.29 5.29-5.29c.39-.39 1.02-.39 1.42 0s.39 1.02 0 1.42L13.41 12l5.29 5.29c.39.39.39 1.02 0 1.42s-1.02.39-1.42 0l-5.29-5.29-5.29 5.29c-.39.39-1.02.39-1.42 0s-.39-1.02 0-1.42L10.57 12 5.29 6.71a.996.996 0 0 1 0-1.41Z"/></symbol><symbol id="icon_comment" viewBox="0 0 24 24"><path d="M2 4.92a2.5 2.5 0 0 1 2.5-2.5h15a2.5 2.5 0 0 1 2.5 2.5v10a2.5 2.5 0 0 1-2.5 2.5h-3.12c-.39 0-.76.19-1 .5l-2.37 3.17c-.41.55-1.2.66-1.75.25-.09-.07-.18-.16-.25-.25l-2.38-3.17c-.24-.31-.61-.5-1-.5H4.51a2.5 2.5 0 0 1-2.5-2.5v-10Zm6.25 5a1.25 1.25 0 1 0-2.5 0 1.25 1.25 0 0 0 2.5 0Zm5 0a1.25 1.25 0 1 0-2.5 0 1.25 1.25 0 0 0 2.5 0ZM17 11.17a1.25 1.25 0 1 0 0-2.5 1.25 1.25 0 0 0 0 2.5Z"/></symbol><symbol id="icon_comment_text" viewBox="0 0 24 24"><path d="M2 4.92a2.5 2.5 0 0 1 2.5-2.5h15a2.5 2.5 0 0 1 2.5 2.5v10a2.5 2.5 0 0 1-2.5 2.5h-3.12c-.39 0-.76.19-1 .5l-2.37 3.17c-.41.55-1.2.66-1.75.25-.09-.07-.18-.16-.25-.25l-2.38-3.17c-.24-.31-.61-.5-1-.5H4.51a2.5 2.5 0 0 1-2.5-2.5v-10Zm4.38 1.25c-.35 0-.62.28-.62.62s.28.62.62.62h11.25c.35 0 .62-.28.62-.62s-.28-.62-.62-.62H6.38Zm0 3.12c-.35 0-.62.28-.62.62s.28.62.62.62h11.25c.35 0 .62-.28.62-.62s-.28-.62-.62-.62H6.38Zm0 3.12c-.35 0-.62.28-.62.62s.28.62.62.62h6.25c.35 0 .62-.28.62-.62s-.28-.62-.62-.62H6.38Z"/></symbol><symbol id="icon_copy" viewBox="0 0 24 24"><path d="M2 4.5A2.5 2.5 0 0 1 4.5 2h10A2.5 2.5 0 0 1 17 4.5V7h2.5A2.5 2.5 0 0 1 22 9.5v10a2.5 2.5 0 0 1-2.5 2.5h-10A2.5 2.5 0 0 1 7 19.5V17H4.5A2.5 2.5 0 0 1 2 14.5v-10Zm2.5-1.25c-.69 0-1.25.56-1.25 1.25v10c0 .69.56 1.25 1.25 1.25h10c.69 0 1.25-.56 1.25-1.25v-10c0-.69-.56-1.25-1.25-1.25h-10Z"/></symbol><symbol id="icon_dark" viewBox="0 0 24 24"><path d="M9.5 2.35c.25.3.29.73.1 1.07a9.074 9.074 0 0 0-1.1 4.33c0 5.03 4.1 9.1 9.15 9.1.66 0 1.3-.07 1.92-.2a.97.97 0 0 1 1.01.4c.24.34.23.8-.04 1.12a10.465 10.465 0 0 1-8.11 3.85C6.67 22.02 2 17.38 2 11.66c0-4.31 2.64-8 6.41-9.56.39-.16.83-.05 1.1.27Zm5.99 3.59c.05-.14.2-.22.34-.17.08.03.15.09.17.17l.48 1.45c.22.65.72 1.16 1.37 1.37l1.45.48c.14.05.22.2.17.34-.03.08-.09.15-.17.17l-1.45.48c-.65.22-1.16.72-1.37 1.37L16 13.05c-.05.14-.2.22-.34.17-.08-.03-.15-.09-.17-.17l-.48-1.45a2.15 2.15 0 0 0-1.37-1.37l-1.45-.48a.269.269 0 0 1-.17-.34c.03-.08.09-.15.17-.17l1.45-.48a2.15 2.15 0 0 0 1.37-1.37l.48-1.45Zm3.84-3.81c.03-.09.14-.14.23-.11.05.02.09.06.11.11l.32.97c.14.43.48.77.92.92l.97.32c.09.03.14.14.11.23-.02.05-.06.09-.11.11l-.97.32c-.43.14-.77.48-.92.92l-.32.97c-.03.09-.14.14-.23.11a.198.198 0 0 1-.11-.11l-.32-.97c-.14-.43-.48-.77-.92-.92l-.97-.32c-.09-.03-.14-.14-.11-.23.02-.05.06-.09.11-.11l.97-.32c.43-.14.77-.48.92-.92l.32-.97Z"/></symbol><symbol id="icon_download" viewBox="0 0 24 24"><path d="M2.62 14.44c.35 0 .62.28.62.62v3.12c0 .69.56 1.25 1.25 1.25h15c.69 0 1.25-.56 1.25-1.25v-3.12c0-.35.28-.62.62-.62s.62.28.62.62v3.12a2.5 2.5 0 0 1-2.5 2.5H4.5a2.5 2.5 0 0 1-2.5-2.5v-3.12c0-.35.28-.62.62-.62Zm8.93 2.44c.24.24.64.24.88 0l3.75-3.75c.24-.24.24-.64 0-.89s-.64-.24-.89 0l-2.68 2.68V3.94c0-.35-.28-.62-.62-.62s-.62.28-.62.62v10.99l-2.68-2.68c-.24-.24-.64-.24-.89 0s-.24.64 0 .89l3.75 3.75Z"/></symbol><symbol id="icon_home" viewBox="0 0 24 24"><path d="M10.29 19.43v-4.01c0-.28.29-.57.57-.57h2.29c.29 0 .57.29.57.57v4c0 .32.26.57.57.57h4.57c.32 0 .57-.26.57-.57v-8c0-.15-.06-.3-.17-.4l-1.55-1.55V5.71a.57.57 0 0 0-.57-.57H16a.57.57 0 0 0-.57.57v1.48l-3.02-3.02a.58.58 0 0 0-.81 0l-6.86 6.86a.56.56 0 0 0-.17.4v8c0 .32.26.57.57.57h4.57c.32 0 .57-.26.57-.57Z"/></symbol><symbol id="icon_label" viewBox="0 0 24 24"><path d="M12.15 19.86c-.02.1-.02.2-.02.3 0 .51.35.84.83.84.44 0 .82-.29.92-.79l.92-4.49h2c.7 0 1.02-.39 1.02-.91s-.31-.88-1.02-.88h-1.64l.86-4.19h2.1c.71 0 1.03-.38 1.03-.91s-.31-.87-1.03-.87h-1.74l.79-3.83c.02-.09.02-.18.03-.27 0-.47-.37-.85-.84-.86h-.02c-.43 0-.81.29-.9.71l-.87 4.24h-3.71l.79-3.83c.01-.07.02-.2.02-.27 0-.47-.37-.85-.84-.86h-.03c-.43 0-.8.3-.88.71l-.87 4.24H7.2c-.71 0-1.02.37-1.02.88s.31.9 1.02.9h1.5l-.86 4.19H5.85c-.7 0-1.01.36-1.01.88s.31.91 1.01.91h1.62l-.86 4.14c-.01.07-.02.21-.02.3 0 .51.35.84.83.84.44 0 .82-.29.92-.79l.92-4.49h3.72l-.86 4.14ZM10.49 9.71h3.76l-.86 4.26H9.6l.88-4.26Z"/></symbol><symbol id="icon_light" viewBox="0 0 24 24"><path d="M12 17c2.76 0 5-2.24 5-5s-2.24-5-5-5-5 2.24-5 5 2.24 5 5 5Zm0-15c.35 0 .62.28.62.62v2.5c0 .35-.28.62-.62.62s-.62-.28-.62-.62v-2.5c0-.35.28-.62.62-.62Zm0 16.25c.35 0 .62.28.62.62v2.5c0 .35-.28.62-.62.62s-.62-.28-.62-.62v-2.5c0-.35.28-.62.62-.62ZM22 12c0 .35-.28.62-.62.62h-2.5c-.35 0-.62-.28-.62-.62s.28-.62.62-.62h2.5c.35 0 .62.28.62.62ZM5.75 12c0 .35-.28.62-.62.62H2.62c-.35 0-.62-.28-.62-.62s.28-.62.62-.62h2.5c.35 0 .62.28.62.62Zm13.32-7.07c.24.24.24.64 0 .88L17.3 7.58c-.24.24-.64.24-.88 0a.628.628 0 0 1 0-.88l1.77-1.77c.24-.24.64-.24.88 0ZM7.58 16.42c.24.24.24.64 0 .88l-1.77 1.77c-.25.24-.64.23-.88-.02a.635.635 0 0 1 0-.87l1.77-1.77c.24-.24.64-.24.88 0Zm11.49 2.65c-.24.24-.64.24-.88 0l-1.77-1.77a.619.619 0 0 1 .02-.88c.24-.23.63-.23.87 0l1.77 1.77c.24.24.24.64 0 .88ZM7.58 7.58c-.24.24-.64.24-.88 0L4.93 5.81a.619.619 0 0 1-.02-.88c.24-.25.64-.26.88-.02l.02.02L7.58 6.7c.24.24.24.64 0 .88Z"/></symbol><symbol id="icon_link" viewBox="0 0 24 24"><path d="m6.66 10.44-2.23 2.23c-1.9 1.9-1.9 4.99 0 6.9s4.99 1.9 6.9 0l2.97-2.97c1.9-1.9 1.9-4.99 0-6.9-.39-.39-.85-.71-1.35-.95L12 9.7c-.1.1-.18.21-.25.32 1.73.5 2.72 2.3 2.23 4.02a3.23 3.23 0 0 1-.83 1.4l-2.97 2.97a3.253 3.253 0 0 1-4.6-4.6l1.29-1.29a6.7 6.7 0 0 1-.21-2.09ZM9.7 7.4c-1.9 1.9-1.9 4.99 0 6.9.39.39.85.71 1.35.95l1.26-1.26a3.261 3.261 0 0 1-2.3-3.98c.15-.55.44-1.05.84-1.46l2.97-2.97a3.253 3.253 0 0 1 4.6 4.6l-1.29 1.29c.18.68.25 1.39.21 2.09l2.23-2.23c1.9-1.9 1.9-4.99 0-6.9-1.9-1.9-4.99-1.9-6.9 0L9.7 7.4Z"/></symbol><symbol id="icon_link_open" viewBox="0 0 24 24"><path d="M12.72 6.94a.56.56 0 0 0-.56-.56H4.69C3.76 6.38 3 7.14 3 8.07v11.25c0 .93.76 1.69 1.69 1.69h11.25c.93 0 1.69-.76 1.69-1.69v-7.47a.56.56 0 1 0-1.12 0v7.47c0 .31-.25.56-.56.56H4.69a.56.56 0 0 1-.56-.56V8.06c0-.31.25-.56.56-.56h7.47c.31 0 .56-.25.56-.56ZM21 3.56a.56.56 0 0 0-.56-.56h-5.62a.56.56 0 1 0 0 1.12h4.27l-9.18 9.17c-.22.22-.22.58 0 .8s.58.22.8 0l9.17-9.17v4.27a.56.56 0 1 0 1.12 0V3.56Z"/></symbol><symbol id="icon_list" viewBox="0 0 24 24"><path d="M8.14 16.9c0-.36.29-.64.64-.64h11.57c.36 0 .64.29.64.64s-.29.64-.64.64H8.79c-.36 0-.64-.29-.64-.64Zm0-5.14c0-.36.29-.64.64-.64h11.57c.36 0 .64.29.64.64s-.29.64-.64.64H8.79c-.36 0-.64-.29-.64-.64Zm0-5.14c0-.36.29-.64.64-.64h11.57c.36 0 .64.29.64.64s-.29.64-.64.64H8.79c-.36 0-.64-.29-.64-.64ZM3.92 17.37v-.61h.37c.28 0 .47-.18.47-.41s-.2-.4-.46-.4c-.29 0-.47.2-.48.4h-.76c.02-.6.48-1.01 1.27-1.01.76 0 1.23.37 1.23.9 0 .38-.26.7-.63.76v.04c.42.03.74.39.73.81 0 .69-.65 1.03-1.35 1.03-.84 0-1.29-.48-1.3-1.02h.75c.01.23.24.39.54.4.33 0 .55-.19.54-.45 0-.25-.2-.45-.53-.45h-.38Zm0-6.04h-.78v-.04c0-.52.38-1.09 1.23-1.09.75 0 1.23.42 1.23.97 0 .5-.33.79-.61 1.09L4.3 13v.04h1.36v.65H3.18v-.51l1.23-1.27c.18-.18.38-.39.38-.65 0-.23-.19-.41-.44-.41-.23 0-.43.17-.44.41v.08Zm1.1-2.78H4.2V5.88h-.04l-.77.54v-.73l.81-.57h.82v3.43Z"/></symbol><symbol id="icon_lock" viewBox="0 0 24 24"><path d="M12 3.25a2.5 2.5 0 0 1 2.5 2.5v5h-5v-5a2.5 2.5 0 0 1 2.5-2.5Zm3.75 7.5v-5C15.75 3.68 14.07 2 12 2S8.25 3.68 8.25 5.75v5a2.5 2.5 0 0 0-2.5 2.5v6.25a2.5 2.5 0 0 0 2.5 2.5h7.5a2.5 2.5 0 0 0 2.5-2.5v-6.25a2.5 2.5 0 0 0-2.5-2.5Z"/></symbol><symbol id="icon_menu" viewBox="0 0 24 24"><path d="M3 18.55c0-.45.37-.82.82-.82h16.36c.45 0 .82.37.82.82s-.37.82-.82.82H3.82c-.45 0-.82-.37-.82-.82ZM3 12c0-.45.37-.82.82-.82h16.36c.45 0 .82.37.82.82s-.37.82-.82.82H3.82c-.45 0-.82-.37-.82-.82Zm0-6.55c0-.45.37-.82.82-.82h16.36c.45 0 .82.37.82.82s-.37.82-.82.82H3.82c-.45 0-.82-.37-.82-.82Z"/></symbol><symbol id="icon_menu_more" viewBox="0 0 24 24"><path d="M5.85 7.85C4.83 7.85 4 7.02 4 6s.83-1.85 1.85-1.85S7.7 4.98 7.7 6s-.83 1.85-1.85 1.85Zm6.15 0c-1.02 0-1.85-.83-1.85-1.85s.83-1.85 1.85-1.85 1.85.83 1.85 1.85-.83 1.85-1.85 1.85Zm6.15 0c-1.02 0-1.85-.83-1.85-1.85s.83-1.85 1.85-1.85S20 4.98 20 6s-.83 1.85-1.85 1.85Zm-12.3 12C4.83 19.85 4 19.02 4 18s.83-1.85 1.85-1.85S7.7 16.98 7.7 18s-.83 1.85-1.85 1.85Zm6.15 0c-1.02 0-1.85-.83-1.85-1.85s.83-1.85 1.85-1.85 1.85.83 1.85 1.85-.83 1.85-1.85 1.85Zm6.15 0c-1.02 0-1.85-.83-1.85-1.85s.83-1.85 1.85-1.85S20 16.98 20 18s-.83 1.85-1.85 1.85Zm-12.3-6C4.83 13.85 4 13.02 4 12s.83-1.85 1.85-1.85S7.7 10.98 7.7 12s-.83 1.85-1.85 1.85Zm6.15 0c-1.02 0-1.85-.83-1.85-1.85s.83-1.85 1.85-1.85 1.85.83 1.85 1.85-.83 1.85-1.85 1.85Zm6.15 0c-1.02 0-1.85-.83-1.85-1.85s.83-1.85 1.85-1.85S20 10.98 20 12s-.83 1.85-1.85 1.85Z"/></symbol><symbol id="icon_more" viewBox="0 0 24 24"><path d="M5.85 13.85C4.83 13.85 4 13.02 4 12s.83-1.85 1.85-1.85S7.7 10.98 7.7 12s-.83 1.85-1.85 1.85Zm6.15 0c-1.02 0-1.85-.83-1.85-1.85s.83-1.85 1.85-1.85 1.85.83 1.85 1.85-.83 1.85-1.85 1.85Zm6.15 0c-1.02 0-1.85-.83-1.85-1.85s.83-1.85 1.85-1.85S20 10.98 20 12s-.83 1.85-1.85 1.85Z"/></symbol><symbol id="icon_more_vertical" viewBox="0 0 24 24"><path d="M10.15 5.85C10.15 4.83 10.98 4 12 4s1.85.83 1.85 1.85S13.02 7.7 12 7.7s-1.85-.83-1.85-1.85Zm0 6.15c0-1.02.83-1.85 1.85-1.85s1.85.83 1.85 1.85-.83 1.85-1.85 1.85-1.85-.83-1.85-1.85Zm0 6.15c0-1.02.83-1.85 1.85-1.85s1.85.83 1.85 1.85S13.02 20 12 20s-1.85-.83-1.85-1.85Z"/></symbol><symbol id="icon_page" viewBox="0 0 24 24"><path d="M13.62 2H7a2.5 2.5 0 0 0-2.5 2.5v15A2.5 2.5 0 0 0 7 22h10a2.5 2.5 0 0 0 2.5-2.5V7.88c0-.33-.13-.65-.37-.88L14.5 2.37c-.23-.23-.55-.37-.88-.37Zm.26 4.38v-2.5l3.75 3.75h-2.5c-.69 0-1.25-.56-1.25-1.25Zm-6.25 6.88c-.35 0-.62-.28-.62-.63s.28-.62.62-.62h8.75c.35 0 .62.28.62.62s-.28.63-.62.63H7.62Zm-.62 1.88c0-.35.28-.62.62-.62h8.75c.35 0 .62.28.62.62s-.28.62-.62.62H7.62c-.35 0-.62-.28-.62-.62Zm.62 3.12c-.35 0-.62-.28-.62-.62s.28-.62.62-.62h5c.35 0 .62.28.62.62s-.28.62-.62.62H7.62Z"/></symbol><symbol id="icon_pin" viewBox="0 0 24 24"><path d="M14.2 2c.19 0 .37.07.51.21L21.8 9.3c.28.28.28.73 0 1.01-.69.69-1.53.84-2.15.84-.25 0-.48-.03-.66-.06l-4.49 4.49c.12.48.19.96.23 1.45.07 1.01-.05 2.42-1.03 3.4-.28.28-.73.28-1.01 0l-4.05-4.05-4.56 4.56c-.28.28-1.75 1.29-2.02 1.01-.28-.28.73-1.75 1.01-2.02l4.56-4.56-4.06-4.05a.712.712 0 0 1 0-1.01c.99-.99 2.4-1.1 3.4-1.03.49.03.97.11 1.45.23l4.49-4.49c-.04-.22-.06-.44-.06-.66 0-.62.15-1.46.84-2.15.13-.13.32-.21.51-.21Z"/></symbol><symbol id="icon_read_more" viewBox="0 0 24 24"><path d="M20.12 4.5H3.88C2.84 4.5 2 5.34 2 6.38v11.25c0 1.04.84 1.88 1.88 1.88h16.24c1.04 0 1.88-.84 1.88-1.88V6.38c0-1.04-.84-1.88-1.88-1.88Zm-6.25 11.25H6.38c-.35 0-.62-.28-.62-.62s.28-.62.62-.62h7.5c.35 0 .62.28.62.62s-.28.62-.62.62Zm3.75-3.12H6.38c-.35 0-.62-.28-.62-.62s.28-.62.62-.62h11.25c.35 0 .62.28.62.62s-.28.62-.62.62Zm0-3.12H6.38c-.35 0-.62-.28-.62-.62s.28-.62.62-.62h11.25c.35 0 .62.28.62.62s-.28.62-.62.62Z"/></symbol><symbol id="icon_reload" viewBox="0 0 24 24"><path d="M12 5.96c-4.03 0-7.29 3.27-7.29 7.29 0 4.03 3.27 7.29 7.29 7.29 4.03 0 7.29-3.27 7.29-7.29 0-1.05-.23-2.09-.66-3.04-.15-.37.02-.8.4-.95.35-.14.75 0 .93.34 2.02 4.39.09 9.58-4.3 11.6-4.39 2.02-9.58.09-11.6-4.3s-.09-9.58 4.3-11.6c1.14-.53 2.39-.8 3.65-.8v1.46Zm0 2.14V2.36c0-.2.16-.36.36-.36.09 0 .17.03.23.08l3.44 2.87c.17.15.17.41 0 .56l-3.44 2.87c-.15.13-.38.11-.51-.05A.4.4 0 0 1 12 8.1Z"/></symbol><symbol id="icon_search" viewBox="0 0 24 24"><path d="M15.74 14.34a6.513 6.513 0 0 0-1.4-9.09 6.513 6.513 0 0 0-9.09 1.4 6.513 6.513 0 0 0 1.4 9.09 6.497 6.497 0 0 0 7.69 0s.06.08.1.11l3.85 3.85a.996.996 0 1 0 1.41-1.41l-3.85-3.85s-.07-.07-.11-.1ZM16 10.5c0 3.04-2.46 5.5-5.5 5.5S5 13.54 5 10.5 7.46 5 10.5 5 16 7.46 16 10.5Z"/></symbol><symbol id="icon_settings" viewBox="0 0 24 24"><path d="M13.76 3.31c-.52-1.75-3-1.75-3.51 0l-.12.43c-.29.97-1.3 1.52-2.27 1.24a2.75 2.75 0 0 1-.36-.15l-.39-.21c-1.6-.87-3.36.88-2.48 2.48l.21.39c.56 1.03.03 2.3-1.09 2.63l-.43.12c-1.75.52-1.75 3 0 3.51l.43.13c.97.29 1.52 1.3 1.24 2.27-.04.12-.09.24-.15.36l-.21.39c-.87 1.6.88 3.36 2.48 2.48l.39-.21a1.826 1.826 0 0 1 2.63 1.09l.12.43c.52 1.75 3 1.75 3.51 0l.13-.43c.29-.97 1.3-1.52 2.27-1.24.12.04.24.09.36.15l.39.21c1.6.87 3.36-.88 2.48-2.48l-.21-.39a1.826 1.826 0 0 1 1.09-2.63l.43-.13c1.75-.52 1.75-3 0-3.51l-.43-.12c-.97-.29-1.52-1.3-1.24-2.27.04-.12.09-.24.15-.36l.21-.39c.87-1.6-.88-3.36-2.48-2.48l-.39.21a1.826 1.826 0 0 1-2.63-1.09s-.13-.43-.12-.43ZM12 15.66c-2.02 0-3.66-1.64-3.66-3.66S9.98 8.34 12 8.34c2.02 0 3.66 1.64 3.66 3.66 0 2.02-1.64 3.66-3.66 3.66Z"/></symbol><symbol id="icon_share" viewBox="0 0 24 24"><path d="M15 6.5a2.5 2.5 0 0 1 5 0 2.5 2.5 0 0 1-4.4 1.63l-6.72 3.12c.15.49.15 1.01 0 1.5l6.72 3.12a2.503 2.503 0 1 1 .27 3.53c-.76-.65-1.06-1.7-.75-2.65L8.4 13.63a2.503 2.503 0 1 1-.27-3.53c.1.08.19.17.27.27l6.72-3.12c-.08-.24-.12-.5-.11-.75Z"/></symbol><symbol id="icon_sort_ascending" viewBox="0 0 24 24"><path d="M6.72 5.79c0-.34-.28-.62-.62-.62s-.62.28-.62.62V16.7l-1.42-1.42a.628.628 0 0 0-.88 0c-.24.24-.24.64 0 .88l2.48 2.48c.24.25.63.24.87 0l2.48-2.48c.24-.24.24-.64 0-.88a.628.628 0 0 0-.88 0L6.71 16.7V5.79Zm4.34 1.24c0-.34.28-.62.62-.62h8.69c.34 0 .62.28.62.62s-.28.62-.62.62h-8.68c-.34 0-.62-.28-.62-.62Zm.62 3.1c-.34 0-.62.28-.62.62s.28.62.62.62h6.21c.34 0 .62-.28.62-.62s-.28-.62-.62-.62h-6.21Zm0 3.72c-.34 0-.62.28-.62.62s.28.62.62.62h3.72c.34 0 .62-.28.62-.62s-.28-.62-.62-.62h-3.72Zm0 3.72c-.34 0-.62.28-.62.62s.28.62.62.62h1.24c.34 0 .62-.28.62-.62s-.28-.62-.62-.62h-1.24Z"/></symbol><symbol id="icon_sort_descending" viewBox="0 0 24 24"><path d="M6.72 18.21c0 .34-.28.62-.62.62s-.62-.28-.62-.62V7.29L4.06 8.71c-.24.24-.64.24-.88 0a.628.628 0 0 1 0-.88l2.48-2.48c.24-.24.63-.24.87 0l2.48 2.48c.24.24.24.64 0 .88s-.64.24-.88 0L6.71 7.29V18.2Zm4.35-11.17c0-.34.28-.62.62-.62h8.69c.34 0 .62.28.62.62s-.28.62-.62.62h-8.69c-.34 0-.62-.28-.62-.62Zm.62 3.1c-.34 0-.62.28-.62.62s.28.62.62.62h6.21c.34 0 .62-.28.62-.62s-.28-.62-.62-.62h-6.21Zm0 3.72c-.34 0-.62.28-.62.62s.28.62.62.62h3.72c.34 0 .62-.28.62-.62s-.28-.62-.62-.62h-3.72Zm0 3.72c-.34 0-.62.28-.62.62s.28.62.62.62h1.24c.34 0 .62-.28.62-.62s-.28-.62-.62-.62h-1.24Z"/></symbol><symbol id="icon_star" viewBox="0 0 24 24"><path d="M6.51 21.3c-.48.25-1.03-.19-.93-.74l1.04-5.91-4.41-4.19c-.41-.39-.2-1.11.35-1.19l6.12-.87 2.73-5.41c.25-.49.91-.49 1.16 0L15.3 8.4l6.12.87c.55.08.76.79.35 1.19l-4.4 4.19 1.04 5.91c.1.55-.45.99-.93.74l-5.49-2.82L6.5 21.3Z"/></symbol><symbol id="icon_translate" viewBox="0 0 24 24"><path d="M7.68 10.39 7.14 12H5.75l2.33-6.25h1.6L12 12h-1.46L10 10.39H7.68Zm2.04-.92-.85-2.53h-.06l-.85 2.53h1.76ZM2 4.5A2.5 2.5 0 0 1 4.5 2h8.75a2.5 2.5 0 0 1 2.5 2.5v3.75h3.75a2.5 2.5 0 0 1 2.5 2.5v8.75a2.5 2.5 0 0 1-2.5 2.5h-8.75a2.5 2.5 0 0 1-2.5-2.5v-3.75H4.5a2.5 2.5 0 0 1-2.5-2.5V4.5Zm2.5-1.25c-.69 0-1.25.56-1.25 1.25v8.75c0 .69.56 1.25 1.25 1.25h8.75c.69 0 1.25-.56 1.25-1.25V4.5c0-.69-.56-1.25-1.25-1.25H4.5Zm8.92 12.49c.24.38.5.73.79 1.06-.94.72-2.09 1.25-3.46 1.61.22.27.56.79.69 1.08 1.41-.45 2.6-1.05 3.61-1.87.97.83 2.17 1.46 3.66 1.84.17-.32.52-.84.79-1.11-1.41-.32-2.57-.87-3.52-1.61.85-.93 1.53-2.06 2.03-3.45h1.5v-1.31h-3.75v1.31h.96c-.4 1.05-.92 1.93-1.59 2.66-.18-.2-.36-.4-.52-.61-.35.23-.76.36-1.17.39Z"/></symbol><symbol id="icon_verified" viewBox="0 0 24 24"><path d="M14.58 3.09c-1.39-1.43-3.68-1.45-5.11-.06l-.06.06-.78.8H7.52c-2-.04-3.63 1.56-3.66 3.56V8.65l-.78.78c-1.43 1.39-1.45 3.68-.06 5.11l.06.06.8.78v1.11c-.04 2 1.56 3.63 3.56 3.66H8.64l.78.78c1.39 1.43 3.68 1.45 5.11.06l.06-.06.78-.8h1.11c2 .04 3.63-1.56 3.66-3.56V15.37l.78-.78c1.43-1.39 1.45-3.68.06-5.11l-.06-.06-.8-.78V7.53c.04-2-1.56-3.63-3.56-3.66H15.36l-.78-.78Zm.36 7.48-3.75 3.75c-.24.24-.64.24-.88 0l-1.88-1.88c-.24-.24-.24-.64 0-.89s.64-.24.89 0l1.43 1.43 3.31-3.31c.24-.24.64-.24.89 0s.24.64 0 .89Z"/></symbol><symbol id="icon_zip" viewBox="0 0 24 24"><path d="M8.88 13.8v-1.17h1.25v1.17c0 .1.01.2.04.3l.5 2-1.16.77-1.16-.77.5-2c.02-.1.04-.2.04-.3ZM13.62 2H7a2.5 2.5 0 0 0-2.5 2.5v15A2.5 2.5 0 0 0 7 22h10a2.5 2.5 0 0 0 2.5-2.5V7.88c0-.33-.13-.65-.37-.88L14.5 2.37c-.23-.23-.55-.37-.88-.37Zm.26 4.38v-2.5l3.75 3.75h-2.5c-.69 0-1.25-.56-1.25-1.25Zm-5-.62V4.51H7.63V3.26h1.88v1.25h1.25v1.25H9.51v1.25h1.25v1.25H9.51v1.25h1.25v1.25H8.88V9.51H7.63V8.26h1.25V7.01H7.63V5.76h1.25Zm0 5.63h1.25c.69 0 1.25.56 1.25 1.25v1.17l.5 2c.13.51-.08 1.05-.52 1.34l-1.16.77c-.42.28-.97.28-1.39 0l-1.16-.77c-.44-.29-.65-.83-.52-1.34l.5-2v-1.17c0-.69.56-1.25 1.25-1.25Z"/></symbol></svg>