<svg xmlns="http://www.w3.org/2000/svg" viewBox="0 0 24 24" width="24" height="24" aria-hidden="true" class="hidden"><symbol id="icon_android" viewBox="0 0 24 24"><path d="M3.51 18.32c-.52 0-.86.41-.86.93s.35.93.86.93.86-.41.86-.93-.35-.93-.86-.93m-.12-.57c.42 0 .76.21.93.44v-.39h.64v2.89h-.49c-.08 0-.14-.06-.14-.14v-.24c-.16.23-.51.44-.93.44-.79 0-1.4-.68-1.4-1.5s.6-1.51 1.4-1.51m2.29.06h.64v.39c.17-.29.5-.45.88-.45.67 0 1.11.47 1.11 1.21v1.74h-.49c-.08 0-.14-.06-.14-.14v-1.49c0-.46-.23-.73-.6-.73-.42 0-.75.33-.75.95v1.42h-.49c-.08 0-.14-.06-.14-.14v-2.75Zm4.63.52c-.52 0-.86.41-.86.93s.35.93.86.93.86-.41.86-.93-.35-.93-.86-.93m-.12-.57c.42 0 .76.21.93.44v-1.83h.64v4.34h-.49c-.08 0-.14-.06-.14-.14v-.24c-.16.23-.51.44-.93.44-.79 0-1.4-.68-1.4-1.5s.6-1.51 1.39-1.51m2.29.06h.64v.52c.11-.32.42-.54.76-.55.08 0 .17 0 .25.02v.65c-.1-.03-.21-.05-.32-.05-.36 0-.7.31-.7.88v1.41h-.49c-.08 0-.14-.06-.14-.14v-2.74Zm3.36 2.36c.51 0 .87-.4.87-.91s-.36-.91-.87-.91-.87.4-.87.91c0 .52.36.91.87.91m0 .59c-.83 0-1.5-.69-1.49-1.52s.69-1.5 1.52-1.49c.83 0 1.49.68 1.49 1.51s-.66 1.5-1.49 1.5h-.03m2.03-2.95h.64v2.89h-.49c-.08 0-.14-.06-.14-.14v-2.75Zm.31-.63c-.24 0-.43-.19-.43-.43 0-.23.2-.42.43-.42.23 0 .42.19.42.42s-.19.42-.42.42m2.35 1.15c-.52 0-.86.41-.86.93s.35.93.86.93.86-.41.86-.93-.35-.93-.86-.93m-.12-.57c.42 0 .76.21.93.44v-1.83h.64v4.34h-.49c-.08 0-.14-.06-.14-.14v-.24c-.16.23-.51.44-.93.44-.79 0-1.4-.68-1.4-1.5s.6-1.51 1.39-1.51m-3.53-11.1 1.67-2.88c.09-.17.03-.38-.13-.47a.353.353 0 0 0-.47.12l-1.69 2.92a10.468 10.468 0 0 0-8.56 0L6.02 3.42a.344.344 0 0 0-.47-.12c-.16.1-.22.3-.12.47L7.1 6.65C4.23 8.2 2.28 11.1 1.99 14.51h20c-.28-3.41-2.24-6.31-5.09-7.86ZM7.4 11.66c-.46 0-.83-.37-.83-.83s.37-.83.83-.83c.46 0 .83.37.83.83 0 .46-.37.83-.83.83Zm9.2 0c-.46 0-.83-.37-.83-.83s.37-.83.83-.83c.46 0 .83.37.83.83s-.37.83-.83.83Z"/></symbol><symbol id="icon_youtube" viewBox="0 0 24 24"><path d="M5.46 14.89c-.19-.13-.33-.33-.41-.61-.08-.28-.12-.64-.12-1.1v-.62c0-.46.05-.84.14-1.12.09-.28.24-.49.44-.61.2-.13.46-.19.78-.19s.57.07.77.2c.19.13.33.34.42.61.09.28.13.65.13 1.11v.62c0 .46-.04.83-.13 1.11-.09.28-.23.48-.42.61-.19.13-.46.19-.79.19-.34 0-.61-.06-.8-.2Zm1.09-.67c.05-.14.08-.37.08-.69v-1.34c0-.31-.03-.53-.08-.68-.05-.14-.15-.21-.28-.21s-.22.07-.28.21c-.05.14-.08.37-.08.68v1.34c0 .32.02.55.08.69.05.14.15.21.28.21s.23-.07.29-.21Zm13.83-1.03v.22c0 .28 0 .48.03.62.02.14.05.24.1.3s.13.1.24.1c.15 0 .25-.06.3-.17.05-.11.08-.3.09-.56l.84.05v.15c0 .4-.11.7-.33.89s-.52.3-.92.3c-.48 0-.81-.15-1-.45s-.29-.76-.29-1.39v-.75c0-.65.1-1.12.3-1.42.2-.3.54-.45 1.02-.45.33 0 .59.06.77.18.18.12.3.31.38.57.07.26.11.61.11 1.07v.74H20.4Zm.12-1.81c-.05.06-.08.16-.1.3-.02.14-.02.35-.02.63v.31h.71v-.31c0-.28 0-.49-.03-.63-.02-.14-.05-.24-.1-.3s-.12-.09-.23-.09c-.1 0-.18.03-.23.09ZM3.1 13.11 2 9.13h.96l.39 1.8c.1.45.17.82.22 1.14h.03c.03-.22.1-.6.22-1.13l.4-1.81h.96l-1.12 3.98v1.91h-.95v-1.91Zm7.63-2.39v4.3h-.76l-.08-.53h-.02c-.21.4-.52.6-.93.6-.29 0-.5-.09-.63-.28-.14-.19-.2-.48-.2-.88v-3.22h.97v3.16c0 .19.02.33.06.41s.11.12.21.12c.08 0 .17-.03.24-.08a.47.47 0 0 0 .17-.2V10.7h.97Zm4.97 0v4.3h-.76l-.08-.53h-.02c-.21.4-.52.6-.93.6-.29 0-.5-.09-.63-.28-.14-.19-.2-.48-.2-.88v-3.22h.97v3.16c0 .19.02.33.06.41.04.08.11.12.21.12.08 0 .17-.03.24-.08a.47.47 0 0 0 .17-.2V10.7h.97Zm-2.34-.81h-.96v5.11h-.95V9.91h-.96v-.78h2.87v.78Zm5.54 1.5c-.06-.27-.15-.47-.28-.59-.13-.12-.31-.18-.54-.18-.18 0-.34.05-.5.15-.15.1-.27.23-.36.4V8.92h-.93v6.11h.8l.1-.41h.02c.07.15.19.26.34.34.15.08.32.13.5.13.33 0 .57-.15.72-.45.15-.3.23-.77.23-1.42v-.68c0-.48-.03-.86-.09-1.13Zm-.89 1.76c0 .31-.01.56-.04.74-.03.18-.07.3-.13.38a.31.31 0 0 1-.25.11.461.461 0 0 1-.39-.23v-2.44c.03-.12.09-.21.17-.29.08-.08.17-.11.26-.11.1 0 .17.04.23.12.05.08.09.21.11.39.02.18.03.44.03.78v.56Z"/></symbol></svg>