<svg xmlns="http://www.w3.org/2000/svg" viewBox="0 0 24 24" width="24" height="24" aria-hidden="true" class="hidden"><symbol id="icon_zip" viewBox="0 0 24 24"><path d="M20 6h-8l-2-2H4c-1.1 0-2 .9-2 2v12c0 1.1.9 2 2 2h16c1.1 0 2-.9 2-2V8c0-1.1-.9-2-2-2m-2 6h-2v2h2v2h-2v2h-2v-2h2v-2h-2v-2h2v-2h-2V8h2v2h2v2Z"/></symbol><symbol id="icon_verified" viewBox="0 0 24 24"><path d="m23 12-2.44-2.78.34-3.68-3.61-.82-1.89-3.18L12 3 8.6 1.54 6.71 4.72l-3.61.81.34 3.68L1 12l2.44 2.78-.34 3.69 3.61.82 1.89 3.18L12 21l3.4 1.46 1.89-3.18 3.61-.82-.34-3.68L23 12m-13 5-4-4 1.41-1.41L10 14.17l6.59-6.59L18 9l-8 8Z"/></symbol><symbol id="icon_translate" viewBox="0 0 24 24"><path d="m12.87 15.07-2.54-2.51.03-.03A17.52 17.52 0 0 0 14.07 6H17V4h-7V2H8v2H1v2h11.17C11.5 7.92 10.44 9.75 9 11.35 8.07 10.32 7.3 9.19 6.69 8h-2c.73 1.63 1.73 3.17 2.98 4.56l-5.09 5.02L4 19l5-5 3.11 3.11.76-2.04M18.5 10h-2L12 22h2l1.12-3h4.75L21 22h2l-4.5-12m-2.62 7 1.62-4.33L19.12 17h-3.24Z"/></symbol><symbol id="icon_star" viewBox="0 0 24 24"><path d="m12 17.77 6.18 3.73-1.64-7.03L22 9.74l-7.19-.62L12 2.5 9.19 9.12 2 9.74l5.45 4.73-1.63 7.03L12 17.77Z"/></symbol><symbol id="icon_sort_descending" viewBox="0 0 24 24"><path d="M18.5 7h3l-4-4-4 4h3v14h2M4.5 7c0 1.1.9 2 2 2s2-.9 2-2-.9-2-2-2-2 .9-2 2m2-4c2.21 0 4 1.79 4 4s-1.79 4-4 4-4-1.79-4-4 1.79-4 4-4m0 10c-2.21 0-4 1.79-4 4s1.79 4 4 4 4-1.79 4-4-1.79-4-4-4Z"/></symbol><symbol id="icon_sort_ascending" viewBox="0 0 24 24"><path d="M18.5 17h3l-4 4-4-4h3V3h2v14M6.5 3c-2.21 0-4 1.79-4 4s1.79 4 4 4 4-1.79 4-4-1.79-4-4-4m0 6c-1.1 0-2-.9-2-2s.9-2 2-2 2 .9 2 2-.9 2-2 2m0 4c-2.21 0-4 1.79-4 4s1.79 4 4 4 4-1.79 4-4-1.79-4-4-4Z"/></symbol><symbol id="icon_share" viewBox="0 0 24 24"><path d="M17.33 15.67c-.68 0-1.28.27-1.74.68l-6.34-3.69c.04-.2.08-.41.08-.62s-.04-.42-.08-.62l6.27-3.65c.48.44 1.11.72 1.81.72C18.8 8.49 20 7.3 20 5.82s-1.19-2.67-2.67-2.67-2.67 1.19-2.67 2.67c0 .21.04.42.08.62l-6.27 3.65c-.48-.44-1.11-.72-1.81-.72-1.47 0-2.67 1.19-2.67 2.67s1.19 2.67 2.67 2.67c.7 0 1.33-.28 1.81-.72l6.33 3.69c-.04.19-.07.38-.07.59 0 1.43 1.16 2.59 2.6 2.59s2.6-1.16 2.6-2.59-1.16-2.6-2.6-2.6Z"/></symbol><symbol id="icon_settings" viewBox="0 0 24 24"><path d="M12 8c2.21 0 4 1.79 4 4s-1.79 4-4 4-4-1.79-4-4 1.79-4 4-4m0 2c-1.1 0-2 .9-2 2s.9 2 2 2 2-.9 2-2-.9-2-2-2m-2 12c-.25 0-.46-.18-.5-.42l-.37-2.65c-.63-.25-1.17-.59-1.69-.99l-2.49 1.01c-.22.08-.49 0-.61-.22l-2-3.46a.493.493 0 0 1 .12-.64l2.11-1.66L4.5 12l.07-1-2.11-1.63a.493.493 0 0 1-.12-.64l2-3.46c.12-.22.39-.31.61-.22l2.49 1c.52-.39 1.06-.73 1.69-.98l.37-2.65c.04-.24.25-.42.5-.42h4c.25 0 .46.18.5.42l.37 2.65c.63.25 1.17.59 1.69.98l2.49-1c.22-.09.49 0 .61.22l2 3.46c.13.22.07.49-.12.64L19.43 11l.07 1-.07 1 2.11 1.63c.19.15.25.42.12.64l-2 3.46c-.12.22-.39.31-.61.22l-2.49-1c-.52.39-1.06.73-1.69.98l-.37 2.65c-.04.24-.25.42-.5.42h-4m1.25-18-.37 2.61c-1.2.25-2.26.89-3.03 1.78L5.44 7.35l-.75 1.3L6.8 10.2a5.55 5.55 0 0 0 0 3.6l-2.12 1.56.75 1.3 2.43-1.04c.77.88 1.82 1.52 3.01 1.76l.37 2.62h1.52l.37-2.61c1.19-.25 2.24-.89 3.01-1.77l2.43 1.04.75-1.3-2.12-1.55c.4-1.17.4-2.44 0-3.61l2.11-1.55-.75-1.3-2.41 1.04a5.42 5.42 0 0 0-3.03-1.77L12.75 4h-1.5Z"/></symbol><symbol id="icon_search" viewBox="0 0 24 24"><path d="M9.75 3.25a6.5 6.5 0 0 1 6.5 6.5c0 1.61-.59 3.09-1.56 4.23l.27.27h.79l5 5-1.5 1.5-5-5v-.79l-.27-.27a6.516 6.516 0 0 1-4.23 1.56 6.5 6.5 0 1 1 0-13m0 2c-2.5 0-4.5 2-4.5 4.5s2 4.5 4.5 4.5 4.5-2 4.5-4.5-2-4.5-4.5-4.5Z"/></symbol><symbol id="icon_reload" viewBox="0 0 24 24"><path d="M1.5 12a9 9 0 0 0 9 9c2.39 0 4.68-.94 6.4-2.6l-1.5-1.5a6.706 6.706 0 0 1-4.9 2.1c-6.24 0-9.36-7.54-4.95-11.95C9.96 2.64 17.5 5.77 17.5 12h-3l4 4h.1l3.9-4h-3a9 9 0 0 0-18 0Z"/></symbol><symbol id="icon_read_more" viewBox="0 0 24 24"><path d="M20 5v14H4V5h16m0-2H4c-1.11 0-2 .89-2 2v14c0 1.11.89 2 2 2h16c1.11 0 2-.89 2-2V5c0-1.11-.89-2-2-2m-2 12H6v2h12v-2m-8-8H6v6h4V7m2 2h6V7h-6v2m6 2h-6v2h6v-2Z"/></symbol><symbol id="icon_pin" viewBox="0 0 24 24"><path d="M16 12V4h1V2H7v2h1v8l-2 2v2h5.2v6h1.6v-6H18v-2l-2-2Z"/></symbol><symbol id="icon_page" viewBox="0 0 24 24"><path d="M6 2c-1.1 0-2 .9-2 2v16c0 1.1.9 2 2 2h12c1.1 0 2-.9 2-2V8l-6-6H6m0 2h7v5h5v11H6V4m2 8v2h8v-2H8m0 4v2h5v-2H8Z"/></symbol><symbol id="icon_more_vertical" viewBox="0 0 24 24"><path d="M12 16c1.1 0 2 .9 2 2s-.9 2-2 2-2-.9-2-2 .9-2 2-2m0-6c1.1 0 2 .9 2 2s-.9 2-2 2-2-.9-2-2 .9-2 2-2m0-6c1.1 0 2 .9 2 2s-.9 2-2 2-2-.9-2-2 .9-2 2-2Z"/></symbol><symbol id="icon_more" viewBox="0 0 24 24"><path d="M16 12c0-1.1.9-2 2-2s2 .9 2 2-.9 2-2 2-2-.9-2-2m-6 0c0-1.1.9-2 2-2s2 .9 2 2-.9 2-2 2-2-.9-2-2m-6 0c0-1.1.9-2 2-2s2 .9 2 2-.9 2-2 2-2-.9-2-2Z"/></symbol><symbol id="icon_menu_more" viewBox="0 0 24 24"><path d="M12 16c1.1 0 2 .9 2 2s-.9 2-2 2-2-.9-2-2 .9-2 2-2m0-6c1.1 0 2 .9 2 2s-.9 2-2 2-2-.9-2-2 .9-2 2-2m0-6c1.1 0 2 .9 2 2s-.9 2-2 2-2-.9-2-2 .9-2 2-2M6 16c1.1 0 2 .9 2 2s-.9 2-2 2-2-.9-2-2 .9-2 2-2m0-6c1.1 0 2 .9 2 2s-.9 2-2 2-2-.9-2-2 .9-2 2-2m0-6c1.1 0 2 .9 2 2s-.9 2-2 2-2-.9-2-2 .9-2 2-2m12 12c1.1 0 2 .9 2 2s-.9 2-2 2-2-.9-2-2 .9-2 2-2m0-6c1.1 0 2 .9 2 2s-.9 2-2 2-2-.9-2-2 .9-2 2-2m0-6c1.1 0 2 .9 2 2s-.9 2-2 2-2-.9-2-2 .9-2 2-2Z"/></symbol><symbol id="icon_menu" viewBox="0 0 24 24"><path d="M3 6h18v2H3V6m0 5h18v2H3v-2m0 5h18v2H3v-2Z"/></symbol><symbol id="icon_lock" viewBox="0 0 24 24"><path d="M12 17.5c1.1 0 2-.9 2-2s-.9-2-2-2-2 .9-2 2 .9 2 2 2m6-9c1.1 0 2 .9 2 2v10c0 1.1-.9 2-2 2H6c-1.1 0-2-.9-2-2v-10a2 2 0 0 1 2-2h1v-2c0-2.76 2.24-5 5-5s5 2.24 5 5v2h1m-6-5c-1.66 0-3 1.34-3 3v2h6v-2c0-1.66-1.34-3-3-3Z"/></symbol><symbol id="icon_list" viewBox="0 0 24 24"><path d="M7.5 13v-2h14v2h-14m0 6v-2h14v2h-14m0-12V5h14v2h-14m-4 1V5h-1V4h2v4h-1m-1 9v-1h3v4h-3v-1h2v-.5h-1v-1h1V17h-2m2.25-7c.41 0 .75.34.75.75 0 .2-.08.39-.21.52L3.62 13H5.5v1h-3v-.92l2-2.08h-2v-1h2.25Z"/></symbol><symbol id="icon_link_open" viewBox="0 0 24 24"><path d="M14 3v2h3.59l-9.83 9.83 1.41 1.41L19 6.41V10h2V3m-2 16H5V5h7V3H5a2 2 0 0 0-2 2v14c0 1.1.9 2 2 2h14c1.1 0 2-.9 2-2v-7h-2v7Z"/></symbol><symbol id="icon_link" viewBox="0 0 24 24"><path d="M10.59 13.41c.41.39.41 1.03 0 1.42-.39.39-1.03.39-1.42 0a5.003 5.003 0 0 1 0-7.07l3.54-3.54a5.003 5.003 0 0 1 7.07 0 5.003 5.003 0 0 1 0 7.07l-1.49 1.49c0-.82-.12-1.64-.4-2.42l.47-.48a2.982 2.982 0 0 0 0-4.24 2.982 2.982 0 0 0-4.24 0l-3.53 3.53a2.982 2.982 0 0 0 0 4.24m2.82-4.24c.39-.39 1.03-.39 1.42 0a5.003 5.003 0 0 1 0 7.07l-3.54 3.54a5.003 5.003 0 0 1-7.07 0 5.003 5.003 0 0 1 0-7.07l1.49-1.49c-.01.82.12 1.64.4 2.43l-.47.47a2.982 2.982 0 0 0 0 4.24 2.982 2.982 0 0 0 4.24 0l3.53-3.53a2.982 2.982 0 0 0 0-4.24.973.973 0 0 1 0-1.42Z"/></symbol><symbol id="icon_light" viewBox="0 0 24 24"><path d="M12 8c-2.21 0-4 1.79-4 4s1.79 4 4 4 4-1.79 4-4-1.79-4-4-4m0 10c-3.31 0-6-2.69-6-6s2.69-6 6-6 6 2.69 6 6-2.69 6-6 6m8-9.31V4h-4.69L12 .69 8.69 4H4v4.69L.69 12 4 15.31V20h4.69L12 23.31 15.31 20H20v-4.69L23.31 12 20 8.69Z"/></symbol><symbol id="icon_label" viewBox="0 0 24 24"><path d="m5.41 21 .71-4h-4l.35-2h4l1.06-6h-4l.35-2h4l.71-4h2l-.71 4h6l.71-4h2l-.71 4h4l-.35 2h-4l-1.06 6h4l-.35 2h-4l-.71 4h-2l.71-4h-6l-.71 4h-2M9.53 9l-1.06 6h6l1.06-6h-6Z"/></symbol><symbol id="icon_home" viewBox="0 0 24 24"><path d="M9 13h6v6h3v-9l-6-4.5L6 10v9h3v-6m-5 8V9l8-6 8 6v12H4Z"/></symbol><symbol id="icon_download" viewBox="0 0 24 24"><path d="M2 13.5h2v5h16v-5h2v5c0 1.11-.89 2-2 2H4a2 2 0 0 1-2-2v-5m10 3 5.55-5.46-1.42-1.41L13 12.75V3.5h-2v9.25L7.88 9.63l-1.42 1.42L12 16.5Z"/></symbol><symbol id="icon_dark" viewBox="0 0 24 24"><path d="M12 18c-.89 0-1.74-.2-2.5-.55C11.56 16.5 13 14.42 13 12s-1.44-4.5-3.5-5.45C10.26 6.2 11.11 6 12 6c3.31 0 6 2.69 6 6s-2.69 6-6 6m8-9.31V4h-4.69L12 .69 8.69 4H4v4.69L.69 12 4 15.31V20h4.69L12 23.31 15.31 20H20v-4.69L23.31 12 20 8.69Z"/></symbol><symbol id="icon_copy" viewBox="0 0 24 24"><path d="M19.5 21h-11V7h11m0-2h-11c-1.1 0-2 .9-2 2v14c0 1.1.9 2 2 2h11c1.1 0 2-.9 2-2V7c0-1.1-.9-2-2-2m-3-4h-12c-1.1 0-2 .9-2 2v14h2V3h12V1Z"/></symbol><symbol id="icon_comment_text" viewBox="0 0 24 24"><path d="M9 22c-.55 0-1-.45-1-1v-3H4c-1.1 0-2-.9-2-2V4a2 2 0 0 1 2-2h16c1.1 0 2 .9 2 2v12c0 1.1-.9 2-2 2h-6.1l-3.7 3.71c-.2.19-.45.29-.7.29H9m1-6v3.08L13.08 16H20V4H4v12h6M6 7h12v2H6V7m0 4h9v2H6v-2Z"/></symbol><symbol id="icon_comment" viewBox="0 0 24 24"><path d="M16 11H8V9h8v2m6-7v12c0 1.11-.89 2-2 2h-6.1l-3.7 3.71c-.2.19-.45.29-.7.29H9c-.55 0-1-.45-1-1v-3H4a2 2 0 0 1-2-2V4a2 2 0 0 1 2-2h16a2 2 0 0 1 2 2m-2 0H4v12h6v3.08L13.08 16H20V4"/></symbol><symbol id="icon_clear" viewBox="0 0 24 24"><path d="M21 11H6.83l3.58-3.59L9 6l-6 6 6 6 1.41-1.42L6.83 13H21v-2Z"/></symbol><symbol id="icon_close" viewBox="0 0 24 24"><path d="M19 6.41 17.59 5 12 10.59 6.41 5 5 6.41 10.59 12 5 17.59 6.41 19 12 13.41 17.59 19 19 17.59 13.41 12 19 6.41Z"/></symbol><symbol id="icon_check" viewBox="0 0 24 24"><path d="m20.75 6.7-12 12-5.5-5.5 1.41-1.41 4.09 4.08L19.34 5.3l1.41 1.41Z"/></symbol><symbol id="icon_bookmark_add" viewBox="0 0 24 24"><path d="M17 18V5H7v13l5-2.18L17 18m0-15c1.1 0 2 .9 2 2v16l-7-3-7 3V5a2 2 0 0 1 2-2h10m-6 4h2v2h2v2h-2v2h-2v-2H9V9h2V7Z"/></symbol><symbol id="icon_bookmark" viewBox="0 0 24 24"><path d="M17 3H7c-1.1 0-2 .9-2 2v16l7-3 7 3V5a2 2 0 0 0-2-2Z"/></symbol><symbol id="icon_arrow_top" viewBox="0 0 24 24"><path d="M13 19.92h-2v-12l-5.5 5.5L4.08 12 12 4.08 19.92 12l-1.42 1.42-5.5-5.5v12Z"/></symbol><symbol id="icon_arrow_right" viewBox="0 0 24 24"><path d="M4.08 13v-2h12l-5.5-5.5L12 4.08 19.92 12 12 19.92l-1.42-1.42 5.5-5.5h-12Z"/></symbol><symbol id="icon_arrow_left" viewBox="0 0 24 24"><path d="M19.92 11v2h-12l5.5 5.5L12 19.92 4.08 12 12 4.08l1.42 1.42-5.5 5.5h12Z"/></symbol><symbol id="icon_archive" viewBox="0 0 24 24"><path d="M20 21H4V10h2v9h12v-9h2v11M3 3h18v6H3V3m6.5 8h5c.28 0 .5.22.5.5V13H9v-1.5c0-.28.22-.5.5-.5M5 5v2h14V5H5Z"/></symbol></svg>