<svg xmlns="http://www.w3.org/2000/svg" viewBox="0 0 24 24" width="24" height="24" aria-hidden="true" class="hidden"><symbol id="icon_archive" viewBox="0 0 24 24"><path d="M19.71 5.57H4.29C3.58 5.57 3 6.15 3 6.86v1.93c0 .71.58 1.29 1.29 1.29v7.07c0 .71.58 1.29 1.29 1.29h12.86c.71 0 1.29-.58 1.29-1.29v-7.07c.71 0 1.29-.58 1.29-1.29V6.86c0-.71-.58-1.29-1.29-1.29Zm-5.79 7.71h-3.86c-.36 0-.64-.29-.64-.64s.29-.64.64-.64h3.86c.36 0 .64.29.64.64s-.29.64-.64.64Zm5.79-4.5H4.29V6.85h15.43v1.93Z"/></symbol><symbol id="icon_arrow_left" viewBox="0 0 24 24"><path d="M10.92 5.4c.25.1.41.35.41.62v5.33h8a.67.67 0 0 1 0 1.34h-8v5.33c0 .37-.3.67-.67.67-.18 0-.35-.07-.47-.2l-6-6a.664.664 0 0 1 0-.94l6-6a.66.66 0 0 1 .73-.14Z"/></symbol><symbol id="icon_arrow_right" viewBox="0 0 24 24"><path d="M13.07 18.63a.666.666 0 0 1-.41-.62v-5.33h-8a.67.67 0 0 1 0-1.34h8V6.02c0-.37.3-.67.67-.67.18 0 .35.07.47.2l6 6c.26.26.26.68 0 .94l-6 6a.66.66 0 0 1-.73.14Z"/></symbol><symbol id="icon_arrow_top" viewBox="0 0 24 24"><path d="M18.61 10.94c-.1.25-.35.41-.62.41h-5.33v8a.67.67 0 0 1-1.34 0v-8H6a.67.67 0 0 1-.67-.67c0-.18.07-.35.2-.47l6-6c.26-.26.68-.26.94 0l6 6c.19.19.25.48.14.73Z"/></symbol><symbol id="icon_bookmark" viewBox="0 0 24 24"><path d="M17.04 2.95H6.96c-.8 0-1.44.64-1.44 1.44v15.84a.717.717 0 0 0 1.1.61L12 17.48l5.38 3.36c.34.21.78.11.99-.23a.73.73 0 0 0 .11-.38V4.39c0-.8-.64-1.44-1.44-1.44Z"/></symbol><symbol id="icon_bookmark_add" viewBox="0 0 24 24"><path d="M16.85 2.98h-9.7c-.96 0-1.73.77-1.73 1.73v15.23a1.04 1.04 0 0 0 1.59.88L12 17.7l4.99 3.12c.49.3 1.13.16 1.43-.33.1-.17.16-.36.16-.55V4.71c0-.96-.77-1.73-1.73-1.73Zm-.35 15.09-3.95-2.47a1.04 1.04 0 0 0-1.1 0L7.5 18.07V5.05h9v13.01Z"/></symbol><symbol id="icon_check" viewBox="0 0 24 24"><path d="m19.68 9.17-8.85 8.85c-.43.43-1.13.43-1.56 0l-4.94-4.96c-.43-.43-.43-1.13 0-1.56l1.65-1.65c.43-.43 1.12-.43 1.56 0l2.53 2.43 6.39-6.29c.43-.43 1.13-.43 1.56 0l1.65 1.62c.43.43.44 1.13 0 1.56Z"/></symbol><symbol id="icon_clear" viewBox="0 0 24 24"><path d="M19.72 4.93H7.87c-.45 0-.87.24-1.1.62L3.1 11.67a.65.65 0 0 0 0 .66l3.67 6.12c.23.39.65.62 1.1.62h11.85c.71 0 1.29-.58 1.29-1.29V6.21c0-.71-.58-1.29-1.29-1.29Zm-4.05 8.55c.25.25.25.66 0 .91s-.66.25-.91 0l-1.47-1.47-1.47 1.47c-.25.25-.66.25-.91 0s-.25-.66 0-.91l1.47-1.47-1.47-1.47a.646.646 0 0 1 0-.91c.25-.25.66-.25.91 0l1.47 1.47 1.47-1.47c.25-.25.66-.25.91 0s.25.66 0 .91l-1.47 1.47 1.47 1.47Z"/></symbol><symbol id="icon_clear_rtl" viewBox="0 0 24 24"><path d="M4.29 19.07h11.85c.45 0 .87-.24 1.1-.62l3.67-6.12a.65.65 0 0 0 0-.66l-3.67-6.12a1.27 1.27 0 0 0-1.1-.62H4.29C3.58 4.93 3 5.51 3 6.22v11.57c0 .71.58 1.29 1.29 1.29Zm4.05-8.55c-.25-.25-.25-.66 0-.91s.66-.25.91 0l1.47 1.47 1.47-1.47c.25-.25.66-.25.91 0s.25.66 0 .91l-1.47 1.47 1.47 1.47c.25.25.25.66 0 .91s-.66.25-.91 0l-1.47-1.47-1.47 1.47c-.25.25-.66.25-.91 0a.646.646 0 0 1 0-.91l1.47-1.47-1.47-1.47Z"/></symbol><symbol id="icon_close" viewBox="0 0 24 24"><path d="M17.83 5H6.17C5.53 5 5 5.52 5 6.17v11.67c0 .64.52 1.17 1.17 1.17h11.67c.64 0 1.17-.52 1.17-1.17V6.17c0-.64-.52-1.17-1.17-1.17Zm-1.92 10.09c.23.23.23.6 0 .83s-.6.23-.83 0l-3.09-3.09-3.09 3.09c-.23.23-.6.23-.83 0a.585.585 0 0 1 0-.83L11.16 12 8.07 8.91c-.23-.23-.23-.6 0-.83s.6-.23.83 0l3.09 3.09 3.09-3.09c.23-.23.6-.23.83 0 .23.23.23.6 0 .83L12.82 12l3.09 3.09Z"/></symbol><symbol id="icon_comment" viewBox="0 0 24 24"><path d="M20.46 2.72H3.54C2.69 2.72 2 3.41 2 4.26v12.31c0 .85.69 1.54 1.54 1.54h5.72l1.42 2.33c.44.73 1.38.97 2.11.53.21-.13.4-.31.53-.52l1.43-2.34h5.72c.85 0 1.54-.69 1.54-1.54V4.26c0-.85-.69-1.54-1.54-1.54ZM7.77 11.56c-.64 0-1.15-.52-1.15-1.15s.52-1.15 1.15-1.15 1.15.52 1.15 1.15-.52 1.15-1.15 1.15Zm4.23 0c-.64 0-1.15-.52-1.15-1.15s.52-1.15 1.15-1.15 1.15.52 1.15 1.15-.52 1.15-1.15 1.15Zm4.23 0c-.64 0-1.15-.52-1.15-1.15s.52-1.15 1.15-1.15 1.15.52 1.15 1.15-.52 1.15-1.15 1.15Z"/></symbol><symbol id="icon_comment_text" viewBox="0 0 24 24"><path d="M20.46 2.72H3.54C2.69 2.72 2 3.41 2 4.26v12.31c0 .85.69 1.54 1.54 1.54h5.72l1.42 2.33c.44.73 1.38.97 2.11.53.21-.13.4-.31.53-.52l1.43-2.34h5.72c.85 0 1.54-.69 1.54-1.54V4.26c0-.85-.69-1.54-1.54-1.54Zm-5.38 10H8.93a.77.77 0 0 1 0-1.54h6.15a.77.77 0 0 1 0 1.54Zm0-3.08H8.93a.77.77 0 0 1 0-1.54h6.15a.77.77 0 0 1 0 1.54Z"/></symbol><symbol id="icon_copy" viewBox="0 0 24 24"><path d="M21.17 2H7.83c-.46 0-.83.37-.83.83V7H2.83c-.46 0-.83.37-.83.83v13.33c0 .46.37.83.83.83h13.33c.46 0 .83-.37.83-.83v-4.17h4.17c.46 0 .83-.37.83-.83V2.83c0-.46-.37-.83-.83-.83Zm-.83 13.33h-3.33v-7.5c0-.46-.37-.83-.83-.83h-7.5V3.67h11.67v11.66Z"/></symbol><symbol id="icon_dark" viewBox="0 0 24 24"><path d="M22.21 9.1c0 .42-.34.77-.77.77H19.9v1.54a.77.77 0 0 1-1.54 0V9.87h-1.54a.77.77 0 0 1 0-1.54h1.54V6.79a.77.77 0 0 1 1.54 0v1.54h1.54c.42 0 .77.34.77.77Zm-9.23-3.85h.77v.77a.77.77 0 0 0 1.54 0v-.77h.77a.77.77 0 0 0 0-1.54h-.77v-.77a.77.77 0 0 0-1.54 0v.77h-.77a.77.77 0 0 0 0 1.54Zm6.26 9.07c-4.59.91-9.04-2.08-9.95-6.67-.21-1.08-.21-2.2 0-3.28a.765.765 0 0 0-.61-.9.715.715 0 0 0-.41.03c-4.78 1.75-7.24 7.05-5.49 11.84s7.05 7.25 11.84 5.5a9.232 9.232 0 0 0 5.5-5.5.77.77 0 0 0-.87-1.02Z"/></symbol><symbol id="icon_download" viewBox="0 0 24 24"><path d="M8.19 11.14a.664.664 0 0 1 0-.94c.13-.13.3-.2.47-.2h2.67V4.67a.67.67 0 0 1 1.34 0V10h2.67c.37 0 .67.3.67.67 0 .18-.07.35-.2.47l-3.33 3.33c-.26.26-.68.26-.94 0l-3.33-3.33Zm11.14 2.19c-.37 0-.67.3-.67.67v4.67H5.33V14a.67.67 0 0 0-1.34 0v4.67c0 .74.6 1.33 1.33 1.33h13.33c.74 0 1.33-.6 1.33-1.33V14c0-.37-.3-.67-.67-.67Z"/></symbol><symbol id="icon_home" viewBox="0 0 24 24"><path d="M20.64 11.27v8.32c0 .8-.64 1.44-1.44 1.44h-3.6c-.8 0-1.44-.64-1.44-1.44v-3.6c0-.4-.32-.72-.72-.72h-2.88c-.4 0-.72.32-.72.72v3.6c0 .8-.64 1.44-1.44 1.44H4.8c-.8 0-1.44-.64-1.44-1.44v-8.32c0-.4.17-.79.47-1.06l7.2-6.79c.55-.51 1.39-.51 1.94 0l7.2 6.79c.29.27.46.66.46 1.06Z"/></symbol><symbol id="icon_label" viewBox="0 0 24 24"><path d="M10.78 10.34h3.28l-.83 3.33H9.95l.83-3.33ZM22 3.68v16.66c0 .92-.75 1.67-1.67 1.67H3.67c-.92 0-1.67-.75-1.67-1.67V3.68c0-.92.75-1.67 1.67-1.67h16.66c.92 0 1.67.75 1.67 1.67Zm-1.67 5.83c0-.46-.37-.83-.83-.83h-3.31l.78-3.13c.1-.45-.18-.9-.62-1-.44-.1-.88.16-.99.6l-.88 3.54H11.2l.78-3.13c.1-.45-.18-.9-.62-1-.44-.1-.88.16-.99.6L9.49 8.7H5.33c-.46 0-.83.37-.83.83s.37.83.83.83h3.72l-.83 3.33H4.5c-.46 0-.83.37-.83.83s.37.83.83.83h3.31l-.78 3.13c-.11.45.16.9.61 1.01.07.02.14.03.21.03.38 0 .71-.26.81-.63l.88-3.54h3.28l-.78 3.13c-.11.45.16.9.61 1.01.07.02.13.02.2.03.38 0 .71-.26.81-.63l.89-3.54h4.14c.46 0 .83-.37.83-.83s-.37-.83-.83-.83h-3.72l.83-3.33h3.72c.46 0 .83-.37.83-.83Z"/></symbol><symbol id="icon_light" viewBox="0 0 24 24"><path d="M11.33 4.67v-2a.67.67 0 0 1 1.34 0v2a.67.67 0 0 1-1.34 0Zm.67 2c-2.95 0-5.33 2.39-5.33 5.33s2.39 5.33 5.33 5.33 5.33-2.39 5.33-5.33S14.94 6.67 12 6.67Zm-5.81.47a.664.664 0 1 0 .94-.94L5.8 4.87a.664.664 0 1 0-.94.94l1.33 1.33Zm0 9.72-1.33 1.33a.664.664 0 1 0 .94.94l1.33-1.33a.664.664 0 1 0-.94-.94Zm11.14-9.53c.18 0 .35-.07.47-.19l1.33-1.33a.664.664 0 1 0-.94-.94L16.86 6.2c-.26.26-.26.68 0 .94.13.13.3.2.47.2Zm.47 9.53a.664.664 0 1 0-.94.94l1.33 1.33a.664.664 0 1 0 .94-.94l-1.33-1.33ZM5.33 12c0-.37-.3-.67-.67-.67H2.67a.67.67 0 0 0 0 1.34h2c.37 0 .67-.3.67-.67ZM12 18.67c-.37 0-.67.3-.67.67v2a.67.67 0 0 0 1.34 0v-2c0-.37-.3-.67-.67-.67Zm9.33-7.33h-2a.67.67 0 0 0 0 1.34h2a.67.67 0 0 0 0-1.34Z"/></symbol><symbol id="icon_link" viewBox="0 0 24 24"><path d="M19.5 3h-15C3.67 3 3 3.67 3 4.5v15c0 .83.67 1.5 1.5 1.5h15c.83 0 1.5-.67 1.5-1.5v-15c0-.83-.67-1.5-1.5-1.5Zm-7.45 14.78-.51.51a4.114 4.114 0 0 1-5.83-.08 4.13 4.13 0 0 1 0-5.76l2.25-2.25a4.132 4.132 0 0 1 5.21-.51c.34.23.44.7.21 1.04-.23.34-.7.44-1.04.21-1.04-.7-2.43-.56-3.31.33l-2.25 2.25a2.613 2.613 0 0 0 0 3.71 2.613 2.613 0 0 0 3.71 0l.51-.51c.29-.29.77-.29 1.06 0s.29.77 0 1.06Zm6.24-6.24-2.25 2.25a4.132 4.132 0 0 1-5.21.51.755.755 0 0 1-.21-1.04c.23-.34.7-.44 1.04-.21 1.04.69 2.43.56 3.31-.33l2.25-2.25a2.613 2.613 0 0 0 0-3.71 2.613 2.613 0 0 0-3.71 0l-.51.51c-.29.29-.77.29-1.06 0a.754.754 0 0 1 0-1.06l.51-.51a4.114 4.114 0 0 1 5.83.08 4.13 4.13 0 0 1 0 5.76Z"/></symbol><symbol id="icon_link_open" viewBox="0 0 24 24"><path d="M19.5 3h-15C3.67 3 3 3.67 3 4.5v15c0 .83.67 1.5 1.5 1.5h15c.83 0 1.5-.67 1.5-1.5v-15c0-.83-.67-1.5-1.5-1.5Zm-3.75 10.5c0 .41-.34.75-.75.75s-.75-.34-.75-.75v-2.69l-4.72 4.72c-.29.29-.77.29-1.06 0a.754.754 0 0 1 0-1.06l4.72-4.72H10.5c-.41 0-.75-.34-.75-.75s.34-.75.75-.75H15c.41 0 .75.34.75.75v4.5Z"/></symbol><symbol id="icon_list" viewBox="0 0 24 24"><path d="M21.02 11.63v1.5c0 .41-.34.75-.75.75H9.79c-.41 0-.75-.34-.75-.75v-1.5c0-.41.34-.75.75-.75h10.49c.41 0 .75.34.75.75Zm-.75-6.74H9.79c-.41 0-.75.34-.75.75v1.5c0 .41.34.75.75.75h10.49c.41 0 .75-.34.75-.75v-1.5c0-.41-.34-.75-.75-.75Zm0 11.99H9.79c-.41 0-.75.34-.75.75v1.5c0 .41.34.75.75.75h10.49c.41 0 .75-.34.75-.75v-1.5c0-.41-.34-.75-.75-.75ZM4.13 5.55l.41-.21v4.78c0 .41.34.75.75.75s.75-.34.75-.75V4.13a.749.749 0 0 0-1.09-.67l-1.5.75c-.37.19-.52.64-.34 1.01.19.37.64.52 1.01.34Zm3.39 9.51c-.08-.6-.41-1.14-.9-1.49a2.326 2.326 0 0 0-3.19.44c-.14.18-.26.39-.33.61-.17.38 0 .82.38.99.38.17.82 0 .99-.38l.03-.09c.03-.07.06-.14.11-.2.27-.34.77-.41 1.12-.15.17.12.28.3.31.5.03.19-.03.39-.15.54v.01L3.2 19.43a.75.75 0 0 0 .6 1.2h3c.41 0 .75-.34.75-.75s-.34-.75-.75-.75H5.3l1.79-2.39c.37-.47.52-1.07.44-1.66Z"/></symbol><symbol id="icon_lock" viewBox="0 0 24 24"><path d="M19.41 8.67h-2.96V6.45c0-2.45-1.99-4.44-4.44-4.44S7.57 4 7.57 6.45v2.22H4.61c-.82 0-1.48.66-1.48 1.48v10.37c0 .82.66 1.48 1.48 1.48h14.81c.82 0 1.48-.66 1.48-1.48V10.15c0-.82-.66-1.48-1.48-1.48ZM12 16.45c-.61 0-1.11-.5-1.11-1.11s.5-1.11 1.11-1.11 1.11.5 1.11 1.11-.5 1.11-1.11 1.11Zm2.96-7.78H9.03V6.45a2.96 2.96 0 1 1 5.92 0v2.22Z"/></symbol><symbol id="icon_menu" viewBox="0 0 24 24"><path d="M21 11.25v1.5c0 .41-.34.75-.75.75H3.75c-.41 0-.75-.34-.75-.75v-1.5c0-.41.34-.75.75-.75h16.5c.41 0 .75.34.75.75Zm-.75 5.25H3.75c-.41 0-.75.34-.75.75v1.5c0 .41.34.75.75.75h16.5c.41 0 .75-.34.75-.75v-1.5c0-.41-.34-.75-.75-.75Zm0-12H3.75c-.41 0-.75.34-.75.75v1.5c0 .41.34.75.75.75h16.5c.41 0 .75-.34.75-.75v-1.5c0-.41-.34-.75-.75-.75Z"/></symbol><symbol id="icon_menu_more" viewBox="0 0 24 24"><path d="M18.67 4H5.33C4.59 4 4 4.6 4 5.33v13.33c0 .74.6 1.33 1.33 1.33h13.33c.74 0 1.33-.6 1.33-1.33V5.33c0-.74-.6-1.33-1.33-1.33Zm-11 13.33c-.55 0-1-.45-1-1s.45-1 1-1 1 .45 1 1-.45 1-1 1Zm0-4.33c-.55 0-1-.45-1-1s.45-1 1-1 1 .45 1 1-.45 1-1 1Zm0-4.33c-.55 0-1-.45-1-1s.45-1 1-1 1 .45 1 1-.45 1-1 1ZM12 17.34c-.55 0-1-.45-1-1s.45-1 1-1 1 .45 1 1-.45 1-1 1Zm0-4.33c-.55 0-1-.45-1-1s.45-1 1-1 1 .45 1 1-.45 1-1 1Zm0-4.33c-.55 0-1-.45-1-1s.45-1 1-1 1 .45 1 1-.45 1-1 1Zm4.33 8.67c-.55 0-1-.45-1-1s.45-1 1-1 1 .45 1 1-.45 1-1 1Zm0-4.33c-.55 0-1-.45-1-1s.45-1 1-1 1 .45 1 1-.45 1-1 1Zm0-4.33c-.55 0-1-.45-1-1s.45-1 1-1 1 .45 1 1-.45 1-1 1Z"/></symbol><symbol id="icon_more" viewBox="0 0 24 24"><path d="M18.86 6.29H5.14C4.51 6.29 4 6.8 4 7.43v9.14c0 .63.51 1.14 1.14 1.14h13.71c.63 0 1.14-.51 1.14-1.14V7.43c0-.63-.51-1.14-1.14-1.14ZM7.14 12.86c-.47 0-.86-.38-.86-.86s.38-.86.86-.86.86.38.86.86-.38.86-.86.86Zm4.86 0c-.47 0-.86-.38-.86-.86s.38-.86.86-.86.86.38.86.86-.38.86-.86.86Zm4.86 0c-.47 0-.86-.38-.86-.86s.38-.86.86-.86.86.38.86.86-.38.86-.86.86Z"/></symbol><symbol id="icon_more_vertical" viewBox="0 0 24 24"><path d="M17.71 18.86V5.14c0-.63-.51-1.14-1.14-1.14H7.43c-.63 0-1.14.51-1.14 1.14v13.71c0 .63.51 1.14 1.14 1.14h9.14c.63 0 1.14-.51 1.14-1.14ZM11.14 7.14c0-.47.38-.86.86-.86s.86.38.86.86S12.48 8 12 8s-.86-.38-.86-.86Zm0 4.86c0-.47.38-.86.86-.86s.86.38.86.86-.38.86-.86.86-.86-.38-.86-.86Zm0 4.86c0-.47.38-.86.86-.86s.86.38.86.86-.38.86-.86.86-.86-.38-.86-.86Z"/></symbol><symbol id="icon_page" viewBox="0 0 24 24"><path d="m19.93 7.77-5.18-5.18a.744.744 0 0 0-.52-.22h-8.9c-.82 0-1.48.66-1.48 1.48v16.3c0 .82.66 1.48 1.48 1.48h13.33c.82 0 1.48-.66 1.48-1.48V8.3c0-.2-.08-.39-.22-.52Zm-4.97 8.67H9.03c-.41 0-.74-.33-.74-.74s.33-.74.74-.74h5.93c.41 0 .74.33.74.74s-.33.74-.74.74Zm0-2.96H9.03c-.41 0-.74-.33-.74-.74s.33-.74.74-.74h5.93c.41 0 .74.33.74.74s-.33.74-.74.74Zm-.74-5.19V4.22l4.07 4.07h-4.07Z"/></symbol><symbol id="icon_pin" viewBox="0 0 24 24"><path d="M20.57 15.21c0 .39-.32.71-.71.71h-7.14v5c0 .39-.32.71-.71.71s-.71-.32-.71-.71v-5H4.14c-.39 0-.71-.32-.71-.71s.32-.71.71-.71h.83L6.86 3.79h-.58c-.39 0-.71-.32-.71-.71s.32-.71.71-.71h11.43c.39 0 .71.32.71.71s-.32.71-.71.71h-.58l1.89 10.71h.83c.39 0 .71.32.71.71Z"/></symbol><symbol id="icon_read_more" viewBox="0 0 24 24"><path d="M20.57 4.86H6.29c-.79 0-1.43.64-1.43 1.43V17c0 .39-.32.71-.71.71s-.71-.32-.71-.71V8.43c0-.39-.32-.71-.71-.71s-.71.32-.71.71v8.58c0 1.18.96 2.13 2.14 2.13h15.71c1.18 0 2.14-.96 2.14-2.14V6.29c0-.79-.64-1.43-1.43-1.43ZM17 14.15H9.86c-.39 0-.71-.32-.71-.71s.32-.71.71-.71H17c.39 0 .71.32.71.71s-.32.71-.71.71Zm0-2.86H9.86c-.39 0-.71-.32-.71-.71s.32-.71.71-.71H17c.39 0 .71.32.71.71s-.32.71-.71.71Z"/></symbol><symbol id="icon_reload" viewBox="0 0 24 24"><path d="M2 11.98c0-3.82 3.1-6.92 6.92-6.92h9.23V3.52c0-.42.34-.77.77-.77.2 0 .4.08.54.23l2.31 2.31c.3.3.3.79 0 1.09l-2.31 2.31a.773.773 0 0 1-1.32-.54V6.61H8.92c-2.97 0-5.38 2.41-5.38 5.38a.77.77 0 0 1-1.54 0Zm19.23-.77a.77.77 0 0 0-.77.77c0 2.97-2.41 5.38-5.38 5.38H5.85v-1.54a.77.77 0 0 0-.77-.77c-.2 0-.4.08-.54.23l-2.31 2.31c-.3.3-.3.79 0 1.09l2.31 2.31a.773.773 0 0 0 1.32-.54v-1.54h9.22c3.82 0 6.92-3.1 6.92-6.92a.77.77 0 0 0-.77-.77Z"/></symbol><symbol id="icon_search" viewBox="0 0 24 24"><path d="M15.29 10.88c0 2.57-2.09 4.66-4.66 4.66s-4.66-2.09-4.66-4.66 2.09-4.66 4.66-4.66 4.66 2.09 4.66 4.66Zm5.13 9.79c-.26.26-.68.26-.94 0l-4.17-4.17c-3.11 2.59-7.73 2.16-10.32-.95-2.59-3.11-2.16-7.73.95-10.32 3.11-2.59 7.73-2.16 10.32.95a7.322 7.322 0 0 1 0 9.37l4.17 4.17c.26.26.26.68 0 .94Zm-9.79-3.8c3.31 0 5.99-2.68 5.99-5.99s-2.68-5.99-5.99-5.99-5.99 2.68-5.99 5.99 2.68 5.99 5.99 5.99Z"/></symbol><symbol id="icon_settings" viewBox="0 0 24 24"><path d="M20.1 12.2v-.4l1.37-1.72c.15-.18.2-.42.14-.65-.23-.85-.56-1.66-1-2.42a.723.723 0 0 0-.55-.36l-2.18-.24c-.09-.1-.18-.19-.28-.28l-.26-2.19a.732.732 0 0 0-.36-.55 9.66 9.66 0 0 0-2.42-1c-.23-.06-.47 0-.65.14L12.2 3.9h-.4l-1.72-1.37a.723.723 0 0 0-.65-.14c-.85.23-1.66.56-2.42 1-.2.12-.34.32-.36.55l-.24 2.19c-.1.09-.19.18-.28.28l-2.19.25c-.23.03-.44.16-.55.36a9.66 9.66 0 0 0-1 2.42c-.06.23 0 .47.14.65L3.9 11.8v.4l-1.37 1.72c-.15.18-.2.42-.14.65.23.85.56 1.66 1 2.42.12.2.32.34.55.36l2.18.24c.09.1.18.19.28.28l.25 2.19c.03.23.16.44.36.55.76.44 1.57.78 2.42 1 .23.06.47 0 .65-.14l1.71-1.37h.4l1.72 1.37c.18.15.42.2.65.14.85-.23 1.66-.56 2.42-1 .2-.12.34-.32.36-.55l.24-2.18c.1-.09.19-.18.28-.28l2.19-.26c.23-.03.44-.16.55-.36.44-.76.78-1.57 1-2.42.06-.23 0-.47-.14-.65l-1.37-1.71ZM12 15.68c-2.03 0-3.68-1.65-3.68-3.68S9.97 8.32 12 8.32s3.68 1.65 3.68 3.68-1.65 3.68-3.68 3.68Z"/></symbol><symbol id="icon_share" viewBox="0 0 24 24"><path d="m20.8 9.72-4.15 4.15c-.27.27-.71.27-.98 0a.697.697 0 0 1-.2-.49V9.92h-.26c-3.47 0-6.51 2.35-7.38 5.71-.1.37-.47.59-.84.5s-.59-.47-.5-.84a8.99 8.99 0 0 1 8.72-6.75h.26V5.08a.691.691 0 0 1 1.18-.49l4.15 4.15c.27.27.27.71 0 .98Zm-3.26 8.51H4.38V7.85c0-.38-.31-.69-.69-.69S3 7.47 3 7.85v10.38c0 .76.62 1.38 1.38 1.38h13.15c.38 0 .69-.31.69-.69s-.31-.69-.69-.69Z"/></symbol><symbol id="icon_sort_ascending" viewBox="0 0 24 24"><path d="M11.25 11.25c0 .41-.34.75-.75.75H3.75c-.41 0-.75-.34-.75-.75s.34-.75.75-.75h6.75c.41 0 .75.34.75.75ZM3.75 6H16.5c.41 0 .75-.34.75-.75s-.34-.75-.75-.75H3.75c-.41 0-.75.34-.75.75s.34.75.75.75ZM9 16.5H3.75c-.41 0-.75.34-.75.75s.34.75.75.75H9c.41 0 .75-.34.75-.75s-.34-.75-.75-.75Zm11.94-1.79a.751.751 0 0 0-.69-.46h-3v-4.5c0-.41-.34-.75-.75-.75s-.75.34-.75.75v4.5h-3a.75.75 0 0 0-.53 1.28l3.75 3.75c.29.29.77.29 1.06 0l3.75-3.75c.21-.21.28-.54.16-.82Z"/></symbol><symbol id="icon_sort_descending" viewBox="0 0 24 24"><path d="M11.25 11.25c0 .41-.34.75-.75.75H3.75c-.41 0-.75-.34-.75-.75s.34-.75.75-.75h6.75c.41 0 .75.34.75.75ZM3.75 6H16.5c.41 0 .75-.34.75-.75s-.34-.75-.75-.75H3.75c-.41 0-.75.34-.75.75s.34.75.75.75ZM9 16.5H3.75c-.41 0-.75.34-.75.75s.34.75.75.75H9c.41 0 .75-.34.75-.75s-.34-.75-.75-.75Zm3.06-2.71c.12.28.39.46.69.46h3v4.5c0 .41.34.75.75.75s.75-.34.75-.75v-4.5h3a.75.75 0 0 0 .53-1.28l-3.75-3.75a.754.754 0 0 0-1.06 0s-3.75 3.75-3.75 3.75c-.21.21-.28.54-.16.82Z"/></symbol><symbol id="icon_star" viewBox="0 0 24 24"><path d="m21.5 11.14-4.02 3.51 1.21 5.23c.18.77-.3 1.54-1.07 1.71-.36.08-.74.02-1.06-.17L12 18.65l-4.55 2.77c-.68.41-1.55.19-1.96-.49-.19-.32-.25-.7-.17-1.06l1.2-5.22-4.02-3.52a1.426 1.426 0 0 1 .81-2.5l5.31-.46 2.07-4.94a1.423 1.423 0 0 1 2.63 0l2.08 4.94 5.3.46a1.423 1.423 0 0 1 .81 2.5Z"/></symbol><symbol id="icon_translate" viewBox="0 0 24 24"><path d="m15.33 12.2 1.57 3.14h-3.14l.66-1.32.91-1.81ZM22 3.67v16.66c0 .92-.75 1.67-1.67 1.67H3.67C2.75 22 2 21.25 2 20.33V3.67C2 2.75 2.75 2 3.67 2h16.66c.92 0 1.67.75 1.67 1.67ZM20.25 18.3l-4.17-8.33a.834.834 0 0 0-1.49 0l-1.37 2.75c-.88-.17-1.72-.53-2.46-1.04a8.358 8.358 0 0 0 2.04-4.67h1.71c.46 0 .83-.37.83-.83s-.37-.83-.83-.83h-4.17v-.83c0-.46-.37-.83-.83-.83s-.83.37-.83.83v.83H4.5c-.46 0-.83.37-.83.83s.37.83.83.83h6.61a6.732 6.732 0 0 1-1.59 3.55 7.14 7.14 0 0 1-.94-1.42.829.829 0 0 0-1.13-.34c-.39.21-.55.68-.36 1.08.32.64.72 1.24 1.19 1.79a6.632 6.632 0 0 1-3.78 1.18c-.46 0-.83.37-.83.83s.37.83.83.83c1.81 0 3.57-.59 5.01-1.68a8.03 8.03 0 0 0 2.94 1.42l-2.03 4.05a.834.834 0 1 0 1.49.75l1.02-2.04h4.8l1.02 2.04a.834.834 0 1 0 1.49-.75Z"/></symbol><symbol id="icon_verified" viewBox="0 0 24 24"><path d="M20.74 9.75c-.34-.35-.68-.71-.82-1.03-.12-.29-.13-.78-.14-1.24-.01-.87-.03-1.86-.71-2.55s-1.67-.7-2.55-.71c-.47 0-.95-.01-1.24-.14-.32-.13-.68-.48-1.03-.82C13.63 2.67 12.93 2 12 2s-1.63.67-2.25 1.26c-.35.34-.71.68-1.03.82-.29.12-.78.13-1.24.14-.87.01-1.86.03-2.55.71s-.7 1.67-.71 2.55c0 .47-.01.95-.14 1.24-.13.32-.48.68-.82 1.03C2.67 10.37 2 11.07 2 12s.67 1.63 1.26 2.25c.34.35.68.71.82 1.03.12.29.13.78.14 1.24.01.87.03 1.86.71 2.55s1.67.7 2.55.71c.47 0 .95.01 1.24.14.32.13.68.48 1.03.82.62.59 1.32 1.26 2.25 1.26s1.63-.67 2.25-1.26c.35-.34.71-.68 1.03-.82.29-.12.78-.13 1.24-.14.87-.01 1.86-.03 2.55-.71s.7-1.67.71-2.55c0-.47.01-.95.14-1.24.13-.32.48-.68.82-1.03.59-.62 1.26-1.32 1.26-2.25s-.67-1.63-1.26-2.25Zm-4.66.61-5 5c-.28.28-.73.28-1.01 0l-2.14-2.14a.712.712 0 0 1 0-1.01c.28-.28.73-.28 1.01 0l1.64 1.64 4.49-4.5c.28-.28.73-.28 1.01 0s.28.73 0 1.01Z"/></symbol><symbol id="icon_zip" viewBox="0 0 24 24"><path d="M17.83 14.5h-1.67c-.46 0-.83.37-.83.83v5.83c0 .46.37.83.83.83s.83-.37.83-.83v-.83h.83c1.61 0 2.92-1.31 2.92-2.92s-1.31-2.92-2.92-2.92Zm0 4.17H17v-2.5h.83a1.25 1.25 0 0 1 0 2.5Zm-5-3.33v5.83c0 .46-.37.83-.83.83s-.83-.37-.83-.83v-5.83c0-.46.37-.83.83-.83s.83.37.83.83Zm-4.17 5.83c0 .46-.37.83-.83.83H4.5a.837.837 0 0 1-.73-1.25l2.62-4.58H4.5c-.46 0-.83-.37-.83-.83s.37-.83.83-.83h3.33a.837.837 0 0 1 .73 1.25l-2.63 4.58h1.9c.46 0 .83.37.83.83ZM20.92 8.08l-5.83-5.84A.824.824 0 0 0 14.5 2h-10c-.92 0-1.67.75-1.67 1.67v7.5c0 .46.37.83.83.83h16.67c.46 0 .83-.37.83-.83v-2.5c0-.22-.09-.43-.24-.59Zm-6.42.59V4.08l4.58 4.58H14.5Z"/></symbol></svg>