<svg xmlns="http://www.w3.org/2000/svg" viewBox="0 0 24 24" width="24" height="24" aria-hidden="true" class="hidden"><symbol id="icon_archive" viewBox="0 0 24 24"><path d="M3.9 10.2H3V4.8c0-.5.41-.9.89-.9h16.22c.49 0 .89.4.89.89v5.41h-.9v9c0 .5-.4.9-.89.9H4.79c-.5 0-.9-.4-.89-.9v-9Zm14.4 0H5.7v8.1h12.6v-8.1ZM4.8 5.7v2.7h14.4V5.7H4.8ZM9.3 12h5.4v1.8H9.3V12Z"/></symbol><symbol id="icon_arrow_left" viewBox="0 0 24 24"><path d="M7.83 11H20v2H7.83l5.36 5.36-1.41 1.41L4 12l7.78-7.78 1.41 1.41-5.36 5.36Z"/></symbol><symbol id="icon_arrow_right" viewBox="0 0 24 24"><path d="M16.17 13H4v-2h12.17l-5.36-5.36 1.41-1.41L20 12.01l-7.78 7.78-1.41-1.41 5.36-5.36Z"/></symbol><symbol id="icon_arrow_top" viewBox="0 0 24 24"><path d="M13 7.83V20h-2V7.83l-5.36 5.36-1.41-1.41L12.01 4l7.78 7.78-1.41 1.41-5.36-5.36Z"/></symbol><symbol id="icon_bookmark" viewBox="0 0 24 24"><path d="M5.9 3h12.21c.48 0 .87.39.87.87v16.69c0 .24-.19.44-.44.44a.39.39 0 0 1-.23-.07L12 16.97l-6.31 3.96a.43.43 0 0 1-.6-.14.476.476 0 0 1-.07-.23V3.87c0-.48.39-.87.87-.87Z"/></symbol><symbol id="icon_bookmark_add" viewBox="0 0 24 24"><path d="M5.9 3h12.21c.48 0 .87.39.87.87v16.69c0 .24-.19.44-.44.44a.39.39 0 0 1-.23-.07L12 16.97l-6.31 3.96a.43.43 0 0 1-.6-.14.476.476 0 0 1-.07-.23V3.87c0-.48.39-.87.87-.87Zm11.34 1.74H6.77V18.2L12 14.92l5.23 3.28V4.74Z"/></symbol><symbol id="icon_check" viewBox="0 0 24 24"><path d="m10 15 8.67-8.67L20 7.66l-10 10-6-6 1.33-1.33L10 15Z"/></symbol><symbol id="icon_clear" viewBox="0 0 24 24"><path d="M8.44 4.98h11.28c.43 0 .78.35.78.78v12.48c0 .43-.35.78-.78.78H8.44c-.26 0-.5-.13-.65-.35l-4.16-6.24a.806.806 0 0 1 0-.87l4.16-6.23c.14-.22.39-.35.65-.35Zm.42 1.56L5.22 12l3.64 5.46h10.08V6.54H8.86Zm4.62 4.36 2.21-2.21 1.1 1.1L14.58 12l2.21 2.21-1.1 1.1-2.21-2.21-2.21 2.21-1.1-1.1L12.38 12l-2.21-2.21 1.1-1.1 2.21 2.21Z"/></symbol><symbol id="icon_clear_rtl" viewBox="0 0 24 24"><path d="M15.56 19.02H4.28c-.43 0-.78-.35-.78-.78V5.76c0-.43.35-.78.78-.78h11.28c.26 0 .5.13.65.35l4.16 6.24c.17.26.17.6 0 .87l-4.16 6.24c-.14.22-.39.35-.65.35Zm-.42-1.56L18.78 12l-3.64-5.46H5.06v10.92h10.08Zm-4.62-4.36-2.21 2.21-1.1-1.1L9.42 12 7.21 9.79l1.1-1.1 2.21 2.21 2.21-2.21 1.1 1.1L11.62 12l2.21 2.21-1.1 1.1-2.21-2.21Z"/></symbol><symbol id="icon_close" viewBox="0 0 24 24"><path d="M12 10.44 17.44 5 19 6.56 13.56 12 19 17.44 17.44 19 12 13.56 6.56 19 5 17.44 10.44 12 5 6.56 6.56 5 12 10.44Z"/></symbol><symbol id="icon_comment" viewBox="0 0 24 24"><path d="M6.45 18.25 2 21.75V3.25c0-.55.45-1 1-1h18c.55 0 1 .45 1 1v14c0 .55-.45 1-1 1H6.45Zm-.69-2H20v-12H4v13.39l1.76-1.39Zm2.24-7h8v2H8v-2Z"/></symbol><symbol id="icon_comment_text" viewBox="0 0 24 24"><path d="M6.45 18.25 2 21.75V3.25c0-.55.45-1 1-1h18c.55 0 1 .45 1 1v14c0 .55-.45 1-1 1H6.45Zm-.69-2H20v-12H4v13.39l1.76-1.39Zm5.24-7h2v2h-2v-2Zm-4 0h2v2H7v-2Zm8 0h2v2h-2v-2Z"/></symbol><symbol id="icon_copy" viewBox="0 0 24 24"><path d="M7 6V3c0-.55.45-1 1-1h12c.55 0 1 .45 1 1v14c0 .55-.45 1-1 1h-3v3c0 .55-.45 1-1.01 1H4.01c-.55 0-1-.44-1.01-.99V7c0-.55.45-1 1.01-1H7ZM5 8v12h10V8H5Zm4-2h8v10h2V4H9v2Z"/></symbol><symbol id="icon_dark" viewBox="0 0 24 24"><path d="M9.27 7.45c0 4.02 3.25 7.27 7.27 7.27 1.26 0 2.5-.33 3.6-.95a9.09 9.09 0 1 1-9.92-9.92c-.62 1.1-.95 2.33-.95 3.6Zm-5.45 5.46a7.27 7.27 0 0 0 13.59 3.59 9.09 9.09 0 0 1-9.92-9.92 7.282 7.282 0 0 0-3.68 6.32Zm12.87-8.83.76.19v.91l-.76.19c-.65.16-1.16.67-1.32 1.32l-.19.76h-.91l-.19-.76c-.16-.65-.67-1.16-1.32-1.32L12 5.18v-.91l.76-.19c.65-.16 1.16-.67 1.32-1.32l.19-.76h.91l.19.76c.16.65.67 1.16 1.32 1.32Zm4.55 4.55.76.19v.91l-.76.19c-.65.16-1.16.67-1.32 1.32l-.19.76h-.91l-.19-.76c-.16-.65-.67-1.16-1.32-1.32l-.76-.19v-.91l.76-.19c.65-.16 1.16-.67 1.32-1.32l.19-.76h.91l.19.76c.16.65.67 1.16 1.32 1.32Z"/></symbol><symbol id="icon_download" viewBox="0 0 24 24"><path d="M13 10h5l-6 6-6-6h5V3h2v7Zm-9 9h16v-7h2v8c0 .55-.45 1-1 1H3c-.55 0-1-.45-1-1v-8h2v7Z"/></symbol><symbol id="icon_home" viewBox="0 0 24 24"><path d="M12.96 19.08h5.77v-8.67L12 5.18l-6.73 5.23v8.67h5.77v-5.77h1.92v5.77Zm7.69.96c0 .53-.43.96-.96.96H4.31a.96.96 0 0 1-.96-.96V9.94c0-.3.14-.58.37-.76l7.69-5.98a.96.96 0 0 1 1.18 0l7.69 5.98c.23.18.37.46.37.76v10.1Z"/></symbol><symbol id="icon_label" viewBox="0 0 24 24"><path d="m5.41 21 .71-4h-4l.35-2h4l1.06-6h-4l.35-2h4l.71-4h2l-.71 4h6l.71-4h2l-.71 4h4l-.35 2h-4l-1.06 6h4l-.35 2h-4l-.71 4h-2l.71-4h-6l-.71 4h-2M9.53 9l-1.06 6h6l1.06-6h-6Z"/></symbol><symbol id="icon_light" viewBox="0 0 24 24"><path d="M12 17.45a5.45 5.45 0 1 1 0-10.9 5.45 5.45 0 0 1 0 10.9Zm0-1.82a3.64 3.64 0 1 0 0-7.28 3.64 3.64 0 0 0 0 7.28Zm-.91-13.64h1.82v2.73h-1.82V2Zm0 17.27h1.82v2.73h-1.82v-2.73ZM4.29 5.57l1.29-1.29 1.93 1.93L6.22 7.5 4.29 5.57ZM16.5 17.78l1.29-1.29 1.93 1.93-1.29 1.29-1.93-1.93Zm1.93-13.5 1.29 1.29-1.93 1.93-1.29-1.29 1.93-1.93ZM6.21 16.5l1.29 1.29-1.93 1.93-1.29-1.29 1.93-1.93ZM22 11.09v1.82h-2.73v-1.82H22Zm-17.27 0v1.82H2v-1.82h2.73Z"/></symbol><symbol id="icon_link" viewBox="0 0 24 24"><path d="m12.97 8.44 1.3 1.3c2.5 2.5 2.5 6.56 0 9.07l-.32.32c-2.5 2.5-6.56 2.5-9.07 0-2.5-2.5-2.5-6.56 0-9.07l1.3 1.3a4.581 4.581 0 0 0-.03 6.48 4.581 4.581 0 0 0 6.48.03l.03-.03.32-.32a4.569 4.569 0 0 0 0-6.47l-1.3-1.3 1.3-1.29Zm6.15 5.5-1.29-1.29c1.8-1.78 1.81-4.68.03-6.48a4.581 4.581 0 0 0-6.48-.03l-.03.03-.32.32a4.569 4.569 0 0 0 0 6.47l1.3 1.3-1.3 1.29-1.29-1.29c-2.5-2.5-2.5-6.56 0-9.07l.32-.32c2.5-2.5 6.56-2.5 9.07 0 2.5 2.5 2.5 6.56 0 9.07Z"/></symbol><symbol id="icon_link_open" viewBox="0 0 24 24"><path d="M10 6v2H5v11h11v-5h2v6c0 .55-.45 1-1 1H4c-.55 0-1-.45-1-1V7c0-.55.45-1 1-1h6Zm11-3v8h-2V6.41l-7.79 7.79-1.41-1.41L17.59 5h-4.58V3h8Z"/></symbol><symbol id="icon_list" viewBox="0 0 24 24"><path d="M7.5 13v-2h14v2h-14m0 6v-2h14v2h-14m0-12V5h14v2h-14m-4 1V5h-1V4h2v4h-1m-1 9v-1h3v4h-3v-1h2v-.5h-1v-1h1V17h-2m2.25-7c.41 0 .75.34.75.75 0 .2-.08.39-.21.52L3.62 13H5.5v1h-3v-.92l2-2.08h-2v-1h2.25Z"/></symbol><symbol id="icon_lock" viewBox="0 0 24 24"><path d="M6.29 8.67v-.95c0-3.16 2.56-5.71 5.71-5.71s5.71 2.56 5.71 5.71v.95h1.9c.53 0 .95.43.95.95v11.43c0 .53-.43.95-.95.95H4.38a.95.95 0 0 1-.95-.95V9.62c0-.53.43-.95.95-.95h1.9Zm12.38 1.9H5.33v9.52h13.33v-9.52Zm-7.62 5.46a1.91 1.91 0 0 1-.7-2.6 1.91 1.91 0 0 1 2.6-.7c.91.53 1.22 1.69.7 2.6-.17.29-.41.53-.7.7v2.16h-1.9v-2.16ZM8.19 8.67h7.62v-.95c0-2.1-1.71-3.81-3.81-3.81S8.19 5.62 8.19 7.72v.95Z"/></symbol><symbol id="icon_menu" viewBox="0 0 24 24"><path d="M3 4h18v2H3V4Zm0 7h18v2H3v-2Zm0 7h18v2H3v-2Z"/></symbol><symbol id="icon_menu_more" viewBox="0 0 24 24"><path d="M5.33 10.67C4.6 10.67 4 11.27 4 12s.6 1.33 1.33 1.33 1.33-.6 1.33-1.33-.6-1.33-1.33-1.33Zm13.33 0c-.73 0-1.33.6-1.33 1.33s.6 1.33 1.33 1.33 1.33-.6 1.33-1.33-.6-1.33-1.33-1.33Zm-6.67 0c-.73 0-1.33.6-1.33 1.33s.6 1.33 1.33 1.33 1.33-.6 1.33-1.33-.6-1.33-1.33-1.33Zm-6.66-6C4.6 4.67 4 5.27 4 6s.6 1.33 1.33 1.33S6.66 6.73 6.66 6s-.6-1.33-1.33-1.33Zm13.33 0c-.73 0-1.33.6-1.33 1.33s.6 1.33 1.33 1.33 1.33-.6 1.33-1.33-.6-1.33-1.33-1.33Zm-6.67 0c-.73 0-1.33.6-1.33 1.33s.6 1.33 1.33 1.33 1.33-.6 1.33-1.33-.6-1.33-1.33-1.33Zm-6.67 12c-.73 0-1.33.6-1.33 1.33s.6 1.33 1.33 1.33 1.33-.6 1.33-1.33-.6-1.33-1.33-1.33Zm13.33 0c-.73 0-1.33.6-1.33 1.33s.6 1.33 1.33 1.33 1.33-.6 1.33-1.33-.6-1.33-1.33-1.33Zm-6.67 0c-.73 0-1.33.6-1.33 1.33s.6 1.33 1.33 1.33 1.33-.6 1.33-1.33-.6-1.33-1.33-1.33Z"/></symbol><symbol id="icon_more" viewBox="0 0 24 24"><path d="M5.33 10.67C4.6 10.67 4 11.27 4 12s.6 1.33 1.33 1.33 1.33-.6 1.33-1.33-.6-1.33-1.33-1.33Zm13.33 0c-.73 0-1.33.6-1.33 1.33s.6 1.33 1.33 1.33 1.33-.6 1.33-1.33-.6-1.33-1.33-1.33Zm-6.67 0c-.73 0-1.33.6-1.33 1.33s.6 1.33 1.33 1.33 1.33-.6 1.33-1.33-.6-1.33-1.33-1.33Z"/></symbol><symbol id="icon_more_vertical" viewBox="0 0 24 24"><path d="M12 4c-.73 0-1.33.6-1.33 1.33s.6 1.33 1.33 1.33 1.33-.6 1.33-1.33S12.73 4 12 4Zm0 13.33c-.73 0-1.33.6-1.33 1.33s.6 1.33 1.33 1.33 1.33-.6 1.33-1.33-.6-1.33-1.33-1.33Zm0-6.67c-.73 0-1.33.6-1.33 1.33s.6 1.33 1.33 1.33 1.33-.6 1.33-1.33-.6-1.33-1.33-1.33Z"/></symbol><symbol id="icon_page" viewBox="0 0 24 24"><path d="M21 8v12.99c0 .55-.44 1-.99 1.01H3.99c-.55 0-.99-.44-.99-.99V2.99A1 1 0 0 1 4 2h11l6 6Zm-2 1h-5V4H5v16h14V9ZM8 7h3v2H8V7Zm0 4h8v2H8v-2Zm0 4h8v2H8v-2Z"/></symbol><symbol id="icon_pin" viewBox="0 0 24 24"><path d="M18 2v2h-1v6l2 3v2h-6v7h-2v-7H5v-2l2-3V4H6V2h12ZM9 4v6.61L7.4 13h9.19l-1.6-2.39V4h-6Z"/></symbol><symbol id="icon_read_more" viewBox="0 0 24 24"><path d="M2 3.99c0-.55.45-.99.99-.99h18.02c.55 0 .99.44.99.99v16.02c0 .55-.45.99-.99.99H2.99c-.55 0-.99-.44-.99-.99V3.99ZM11 5H4v14h7V5Zm2 0v14h7V5h-7Zm1 2h5v2h-5V7Zm0 3h5v2h-5v-2Z"/></symbol><symbol id="icon_reload" viewBox="0 0 24 24"><path d="M17.88 18.81A8.943 8.943 0 0 1 12 21a9 9 0 1 1 7.37-3.83L16.5 12h2.7c0-3.98-3.22-7.2-7.2-7.2S4.8 8.02 4.8 12s3.22 7.2 7.2 7.2c1.86 0 3.64-.72 4.99-2.01l.9 1.62Z"/></symbol><symbol id="icon_search" viewBox="0 0 24 24"><path d="M11.09 4c3.91 0 7.09 3.18 7.09 7.09s-3.18 7.09-7.09 7.09S4 15 4 11.09 7.18 4 11.09 4Zm0 12.6c3.05 0 5.51-2.47 5.51-5.51s-2.47-5.51-5.51-5.51-5.51 2.47-5.51 5.51 2.47 5.51 5.51 5.51Zm6.68.06L20 18.89 18.89 20l-2.23-2.23 1.11-1.11Z"/></symbol><symbol id="icon_settings" viewBox="0 0 24 24"><path d="M3.34 17c-.42-.73-.75-1.51-.98-2.33a2.994 2.994 0 0 0 0-5.34 9.987 9.987 0 0 1 2.5-4.34 3 3 0 0 0 4.63-2.67c1.64-.42 3.36-.42 5.01 0a2.991 2.991 0 0 0 2.84 3.15c.63.03 1.26-.14 1.79-.48.59.6 1.1 1.28 1.52 2.01.43.75.76 1.53.98 2.33a2.994 2.994 0 0 0 0 5.34 9.987 9.987 0 0 1-2.5 4.34 3 3 0 0 0-4.63 2.67c-1.64.42-3.36.42-5.01 0a2.991 2.991 0 0 0-2.84-3.15c-.63-.03-1.26.14-1.79.48-.59-.6-1.1-1.28-1.52-2.01Zm5.66.2c1.07.61 1.87 1.6 2.25 2.77.5.05 1 .05 1.5 0A4.944 4.944 0 0 1 15 17.2c1.07-.62 2.32-.82 3.52-.56.29-.41.54-.84.75-1.3-.82-.92-1.27-2.1-1.27-3.33 0-1.26.47-2.44 1.27-3.33-.21-.45-.46-.89-.75-1.3-1.2.25-2.46.05-3.52-.56a4.944 4.944 0 0 1-2.25-2.77c-.5-.05-1-.05-1.5 0A4.944 4.944 0 0 1 9 6.82c-1.07.62-2.32.82-3.52.56-.29.41-.54.84-.75 1.3.82.92 1.27 2.1 1.27 3.33s-.45 2.42-1.27 3.33c.21.45.46.89.75 1.3 1.2-.25 2.46-.05 3.52.56Zm3-2.2c-1.66 0-3-1.34-3-3s1.34-3 3-3 3 1.34 3 3-1.34 3-3 3Zm0-2c.55 0 1-.45 1-1s-.45-1-1-1-1 .45-1 1 .45 1 1 1Z"/></symbol><symbol id="icon_share" viewBox="0 0 24 24"><path d="M13.36 16.23 9.82 14.3A3.367 3.367 0 1 1 4.9 9.7a3.367 3.367 0 0 1 4.76-.16c.05.05.11.1.16.16l3.54-1.93c-.46-1.8.64-3.64 2.44-4.09 1.8-.46 3.64.64 4.09 2.44s-.64 3.64-2.44 4.09c-1.19.3-2.45-.07-3.28-.96l-3.54 1.93c.14.54.14 1.11 0 1.65l3.54 1.93a3.367 3.367 0 1 1 4.92 4.6 3.367 3.367 0 0 1-4.76.16c-.89-.84-1.26-2.1-.96-3.28Zm-6-2.54c.93 0 1.68-.75 1.68-1.68s-.75-1.68-1.68-1.68-1.68.75-1.68 1.68.75 1.68 1.68 1.68Zm9.26-5.05c.93 0 1.68-.75 1.68-1.68s-.75-1.68-1.68-1.68-1.68.75-1.68 1.68.75 1.68 1.68 1.68Zm0 10.11c.93 0 1.68-.75 1.68-1.68s-.75-1.68-1.68-1.68-1.68.75-1.68 1.68.75 1.68 1.68 1.68Z"/></symbol><symbol id="icon_sort_ascending" viewBox="0 0 24 24"><path d="M18.5 17h3l-4 4-4-4h3V3h2v14M6.5 3c-2.21 0-4 1.79-4 4s1.79 4 4 4 4-1.79 4-4-1.79-4-4-4m0 6c-1.1 0-2-.9-2-2s.9-2 2-2 2 .9 2 2-.9 2-2 2m0 4c-2.21 0-4 1.79-4 4s1.79 4 4 4 4-1.79 4-4-1.79-4-4-4Z"/></symbol><symbol id="icon_sort_descending" viewBox="0 0 24 24"><path d="M18.5 7h3l-4-4-4 4h3v14h2M4.5 7c0 1.1.9 2 2 2s2-.9 2-2-.9-2-2-2-2 .9-2 2m2-4c2.21 0 4 1.79 4 4s-1.79 4-4 4-4-1.79-4-4 1.79-4 4-4m0 10c-2.21 0-4 1.79-4 4s1.79 4 4 4 4-1.79 4-4-1.79-4-4-4Z"/></symbol><symbol id="icon_star" viewBox="0 0 24 24"><path d="M12 17.73 6.15 21l1.31-6.57-4.92-4.55 6.66-.79L12.01 3l2.81 6.09 6.66.79-4.92 4.55L17.87 21l-5.85-3.27Zm0-1.9 3.52 1.97-.79-3.96 2.96-2.74-4.01-.48-1.69-3.66-1.69 3.67-4.01.47 2.96 2.74-.79 3.96 3.52-1.97Z"/></symbol><symbol id="icon_translate" viewBox="0 0 24 24"><path d="m12.87 15.07-2.54-2.51.03-.03A17.52 17.52 0 0 0 14.07 6H17V4h-7V2H8v2H1v2h11.17C11.5 7.92 10.44 9.75 9 11.35 8.07 10.32 7.3 9.19 6.69 8h-2c.73 1.63 1.73 3.17 2.98 4.56l-5.09 5.02L4 19l5-5 3.11 3.11.76-2.04M18.5 10h-2L12 22h2l1.12-3h4.75L21 22h2l-4.5-12m-2.62 7 1.62-4.33L19.12 17h-3.24Z"/></symbol><symbol id="icon_verified" viewBox="0 0 24 24"><path d="M12 22C6.48 22 2 17.52 2 12S6.48 2 12 2s10 4.48 10 10-4.48 10-10 10Zm0-2c4.42 0 8-3.58 8-8s-3.58-8-8-8-8 3.58-8 8 3.58 8 8 8Zm-1-4-4.24-4.24 1.41-1.41L11 13.18l5.66-5.66 1.42 1.41L11.01 16Z"/></symbol><symbol id="icon_zip" viewBox="0 0 24 24"><path d="M18.4 20H5.6c-.44 0-.8-.36-.8-.8V4.8c0-.44.36-.8.8-.8h12.8c.44 0 .8.36.8.8v14.4c0 .44-.36.8-.8.8Zm-.8-1.6V5.6H6.4v12.8h11.2Zm-4-6.4v4h-3.2v-2.4H12V12h1.6ZM12 5.6h1.6v1.6H12V5.6Zm-1.6 1.6H12v1.6h-1.6V7.2ZM12 8.8h1.6v1.6H12V8.8Zm-1.6 1.6H12V12h-1.6v-1.6Z"/></symbol></svg>