<svg xmlns="http://www.w3.org/2000/svg" viewBox="0 0 24 24" width="24" height="24" aria-hidden="true" class="hidden"><symbol id="icon_archive" viewBox="0 0 24 24"><path d="M3 5.7c0-.85 0-1.27.26-1.54s.69-.26 1.54-.26h14.4c.85 0 1.27 0 1.54.26.26.26.26.69.26 1.54s0 1.27-.26 1.54c-.26.26-.69.26-1.54.26H4.8c-.85 0-1.27 0-1.54-.26C3 6.98 3 6.55 3 5.7Zm16.26 3.15H4.35v4.05c0 3.39 0 5.09 1.05 6.15 1.05 1.05 2.75 1.05 6.15 1.05h.9c3.39 0 5.09 0 6.15-1.05 1.05-1.05 1.05-2.75 1.05-6.15V8.85h-.39Zm-4.63 3.94c-.09.22-.27.39-.49.49-.17.07-.38.07-.79.07h-2.7c-.42 0-.63 0-.79-.07a.939.939 0 0 1-.49-.49c-.07-.17-.07-.38-.07-.79s0-.63.07-.79c.09-.22.27-.4.49-.49.17-.07.38-.07.79-.07h2.7c.42 0 .63 0 .79.07.22.09.39.27.49.49.07.17.07.38.07.79s0 .63-.07.79Z"/></symbol><symbol id="icon_arrow_left" viewBox="0 0 24 24"><path d="M19.31 11.31c.38 0 .69.31.69.69s-.31.69-.69.69h-8.45v4.8c0 .38-.31.69-.69.69-.18 0-.36-.07-.48-.2L4.2 12.49a.682.682 0 0 1 0-.97l5.49-5.49c.27-.27.7-.27.97 0 .13.13.2.3.2.48v4.8h8.46Z"/></symbol><symbol id="icon_arrow_right" viewBox="0 0 24 24"><path d="M4.69 12.69c-.38 0-.69-.31-.69-.69s.31-.69.69-.69h8.45v-4.8c0-.38.31-.69.69-.69.18 0 .36.07.48.2l5.49 5.49c.27.27.27.7 0 .97l-5.49 5.49c-.27.27-.7.27-.97 0-.13-.13-.2-.3-.2-.48v-4.8H4.69Z"/></symbol><symbol id="icon_arrow_top" viewBox="0 0 24 24"><path d="M12.69 19.31c0 .38-.31.69-.69.69s-.69-.31-.69-.69v-8.45h-4.8c-.38 0-.69-.31-.69-.69 0-.18.07-.36.2-.48l5.49-5.49c.27-.27.7-.27.97 0l5.49 5.49c.27.27.27.7 0 .97-.13.13-.3.2-.48.2h-4.8v8.46Z"/></symbol><symbol id="icon_bookmark" viewBox="0 0 24 24"><path d="M18.91 4.2C17.72 3 15.81 3 12 3S6.27 3 5.09 4.2C3.9 5.4 3.9 7.33 3.9 11.19v4.49c0 2.79 0 4.18.66 4.79.31.29.71.47 1.14.52.89.1 1.93-.82 4-2.65.92-.81 1.38-1.22 1.91-1.32.26-.05.53-.05.79 0 .53.11.99.51 1.91 1.32 2.07 1.84 3.11 2.75 4 2.65.42-.05.82-.23 1.14-.52.66-.61.66-2 .66-4.79v-4.49c0-3.86 0-5.79-1.19-6.99ZM14.7 7.28H9.3a.67.67 0 0 1 0-1.34h5.4a.67.67 0 0 1 0 1.34Z"/></symbol><symbol id="icon_bookmark_add" viewBox="0 0 24 24"><path d="M9.49 6.35c-.35 0-.63.28-.63.63s.28.63.63.63h5.02c.35 0 .63-.28.63-.63s-.28-.63-.63-.63H9.49ZM11.95 3c-1.74 0-3.1 0-4.17.14-1.1.15-1.97.46-2.66 1.16-.69.69-.99 1.58-1.14 2.68-.14 1.08-.14 2.46-.14 4.21v4.27c0 1.26 0 2.26.08 3.01.08.74.25 1.41.74 1.86.39.36.88.59 1.41.65.66.08 1.27-.24 1.88-.67.61-.43 1.36-1.09 2.3-1.92l.03-.03c.44-.39.73-.64.98-.83.24-.17.38-.24.5-.26.16-.03.33-.03.49 0 .12.03.27.09.5.26.25.18.54.44.98.83l.03.03c.94.83 1.68 1.49 2.3 1.92.61.43 1.22.74 1.88.67a2.49 2.49 0 0 0 1.41-.65c.49-.45.66-1.12.74-1.86.08-.75.08-1.75.08-3.01v-4.27c0-1.75 0-3.14-.14-4.21-.15-1.11-.46-1.99-1.14-2.68-.69-.69-1.56-1.01-2.66-1.16C15.16 3 13.79 3 12.06 3h-.1ZM6.01 5.19c.42-.42.98-.67 1.94-.8.97-.13 2.26-.13 4.05-.13s3.08 0 4.05.13c.95.13 1.52.38 1.94.8.42.42.66.99.79 1.96.13.99.13 2.28.13 4.1v4.18c0 1.31 0 2.24-.07 2.92-.08.69-.21.96-.34 1.07-.2.18-.44.29-.7.32-.17.02-.45-.05-1.01-.45-.55-.39-1.24-1-2.22-1.87l-.02-.02c-.41-.36-.75-.66-1.05-.88-.31-.23-.63-.4-1-.48-.32-.07-.66-.07-.98 0-.37.08-.69.25-1 .48-.3.22-.64.52-1.05.88l-.02.02c-.98.86-1.67 1.48-2.22 1.87-.57.4-.85.46-1.01.45-.26-.03-.51-.14-.7-.32-.13-.12-.26-.38-.34-1.07-.07-.68-.07-1.61-.07-2.92v-4.18c0-1.81 0-3.11.13-4.1.13-.97.37-1.54.79-1.96Z"/></symbol><symbol id="icon_check" viewBox="0 0 24 24"><path d="M20.53 3.46C19.07 2 16.71 2 12 2S4.93 2 3.46 3.46C2 4.92 2 7.28 2 12s0 7.07 1.46 8.53C4.93 22 7.28 22 12 22s7.07 0 8.53-1.47C22 19.07 22 16.71 22 12s0-7.07-1.47-8.54Zm-4.5 6.57-5 5c-.29.29-.77.29-1.06 0l-2-2a.755.755 0 0 1-.04-1.06c.28-.3.76-.32 1.06-.04.01.01.03.02.04.04l1.47 1.47 4.47-4.47c.29-.29.77-.29 1.06 0 .29.29.29.77 0 1.06Z"/></symbol><symbol id="icon_clear" viewBox="0 0 24 24"><path d="M20.8 5.17C19.6 4 17.66 4 13.78 4h-2.64c-2.23 0-3.34 0-4.27.5-.93.5-1.52 1.42-2.7 3.26l-.68 1.06C2.5 10.37 2 11.14 2 12s.5 1.63 1.49 3.18l.68 1.06c1.18 1.84 1.77 2.76 2.7 3.26.93.5 2.04.5 4.27.5h2.64c3.88 0 5.81 0 7.02-1.17C22 17.66 22 15.77 22 12s0-5.66-1.2-6.83Zm-4.77 9.82c-.28.3-.76.32-1.06.04L13 13.06l-1.97 1.97s-.02.03-.04.04c-.3.28-.78.27-1.06-.04-.28-.3-.27-.78.04-1.06L11.94 12l-1.97-1.97a.754.754 0 0 1 0-1.06c.29-.29.77-.29 1.06 0L13 10.94l1.97-1.97c.29-.27.73-.27 1.02 0 .3.28.32.76.04 1.06L14.06 12l1.97 1.97c.27.29.27.73 0 1.02Z"/></symbol><symbol id="icon_clear_rtl" viewBox="0 0 24 24"><path d="m20.51 8.82-.68-1.06C18.65 5.92 18.06 5 17.13 4.5 16.2 4 15.09 4 12.86 4h-2.64C6.34 4 4.41 4 3.2 5.17 2 6.34 2 8.23 2 12s0 5.66 1.2 6.83S6.34 20 10.22 20h2.64c2.23 0 3.34 0 4.27-.5.93-.5 1.52-1.42 2.7-3.26l.68-1.06C21.5 13.63 22 12.86 22 12s-.5-1.63-1.49-3.18Zm-6.48 5.15c.29.29.29.77 0 1.06s-.77.29-1.06 0L11 13.06l-1.97 1.97c-.29.27-.73.27-1.02 0a.755.755 0 0 1-.04-1.06L9.94 12l-1.97-1.97a.743.743 0 0 1 0-1.02c.28-.3.76-.32 1.06-.04L11 10.94l1.97-1.97s.02-.03.04-.04c.3-.28.78-.27 1.06.04.28.3.27.78-.04 1.06L12.06 12l1.97 1.97Z"/></symbol><symbol id="icon_close" viewBox="0 0 24 24"><path d="M12 2C6.48 2 2 6.48 2 12s4.48 10 10 10 10-4.48 10-10S17.52 2 12 2Zm3.03 11.97c.28.3.27.78-.04 1.06-.29.27-.73.27-1.02 0L12 13.06l-1.97 1.97c-.3.28-.78.27-1.06-.04a.743.743 0 0 1 0-1.02L10.94 12l-1.97-1.97a.754.754 0 0 1 0-1.06c.29-.29.77-.29 1.06 0L12 10.94l1.97-1.97c.3-.28.78-.27 1.06.04.27.29.27.73 0 1.02L13.06 12l1.97 1.97Z"/></symbol><symbol id="icon_comment" viewBox="0 0 24 24"><path d="M12 2C6.48 2 2 6.48 2 12c0 1.55.35 3.07 1.04 4.45.18.35.23.76.13 1.15l-.59 2.23a1.301 1.301 0 0 0 1.59 1.59l2.23-.6c.39-.1.8-.05 1.15.13 1.34.67 2.85 1.04 4.45 1.04 5.52 0 10-4.48 10-10S17.52 2 12 2ZM8 13c-.55 0-1-.45-1-1s.45-1 1-1 1 .45 1 1-.45 1-1 1Zm4 0c-.55 0-1-.45-1-1s.45-1 1-1 1 .45 1 1-.45 1-1 1Zm4 0c-.55 0-1-.45-1-1s.45-1 1-1 1 .45 1 1-.45 1-1 1Z"/></symbol><symbol id="icon_comment_text" viewBox="0 0 24 24"><path d="M12 2C6.48 2 2 6.48 2 12c0 1.6.38 3.11 1.04 4.45.18.36.24.76.13 1.15l-.6 2.23c-.18.69.23 1.41.92 1.59.22.06.45.06.67 0l2.23-.59c.39-.1.8-.05 1.15.13A9.83 9.83 0 0 0 11.99 22c5.52 0 10-4.48 10-10S17.52 2 12 2Zm1.5 12.75H8c-.41 0-.75-.34-.75-.75s.34-.75.75-.75h5.5c.41 0 .75.34.75.75s-.34.75-.75.75Zm2.5-3.5H8c-.41 0-.75-.34-.75-.75s.34-.75.75-.75h8c.41 0 .75.34.75.75s-.34.75-.75.75Z"/></symbol><symbol id="icon_copy" viewBox="0 0 24 24"><path d="M15.24 2h-3.89c-1.76 0-3.16 0-4.26.15-1.13.15-2.04.47-2.76 1.19-.72.72-1.04 1.64-1.19 2.77-.15 1.1-.15 2.5-.15 4.27v5.84c0 1.51.92 2.8 2.23 3.34-.07-.91-.07-2.18-.07-3.25V11.3c0-1.28 0-2.39.12-3.27.13-.95.41-1.86 1.15-2.59C7.15 4.7 8.06 4.42 9 4.29c.88-.12 1.98-.12 3.26-.12h3.07c1.28 0 2.37 0 3.26.12A3.6 3.6 0 0 0 15.24 2ZM6.6 11.4c0-2.73 0-4.09.84-4.94.84-.85 2.2-.85 4.92-.85h2.88c2.72 0 4.07 0 4.92.85.84.85.84 2.21.84 4.94v4.82c0 2.73 0 4.09-.84 4.94-.84.85-2.2.85-4.92.85h-2.88c-2.72 0-4.07 0-4.92-.85-.84-.85-.84-2.21-.84-4.94V11.4Z"/></symbol><symbol id="icon_dark" viewBox="0 0 24 24"><path d="M19.9 2.31a.483.483 0 0 0-.63-.27.45.45 0 0 0-.27.27l-.43 1.09c-.05.13-.15.22-.27.27l-1.09.43a.483.483 0 0 0 0 .9l1.09.43c.12.05.22.15.27.27L19 6.79c.16.41.74.41.9 0l.43-1.09a.51.51 0 0 1 .27-.27L21.69 5a.483.483 0 0 0 0-.9l-1.09-.43a.478.478 0 0 1-.27-.27l-.43-1.09Zm-3.87 5.82a.483.483 0 0 0-.63-.27.45.45 0 0 0-.27.27l-.16.4a.51.51 0 0 1-.27.27l-.4.16a.483.483 0 0 0 0 .9l.4.16c.12.05.22.15.27.27l.16.4c.16.41.74.41.9 0l.16-.4a.51.51 0 0 1 .27-.27l.4-.16a.483.483 0 0 0 0-.9l-.4-.16a.51.51 0 0 1-.27-.27l-.16-.4ZM12 22c5.52 0 10-4.48 10-10 0-.46-.69-.54-.93-.14-1.86 3.07-5.85 4.06-8.92 2.21S8.09 8.22 9.94 5.15c.55-.9 1.3-1.66 2.21-2.21.4-.24.32-.93-.14-.93C6.48 2 2 6.48 2 12s4.48 10 10 10Z"/></symbol><symbol id="icon_download" viewBox="0 0 24 24"><path d="M12.57 16.62c-.29.31-.77.34-1.09.05l-.05-.05-4.1-4.49c-.29-.31-.26-.8.05-1.09.31-.29.8-.26 1.09.05l2.77 3.03V2.77a.77.77 0 0 1 1.54 0v11.35l2.77-3.03c.29-.31.77-.34 1.09-.05.31.29.34.77.05 1.09l-4.1 4.49Zm-9.03-1.54a.77.77 0 0 0-1.54 0v.06c0 1.4 0 2.53.12 3.42.12.92.39 1.7 1.01 2.32.62.62 1.39.88 2.32 1.01.89.12 2.02.12 3.42.12h6.27c1.4 0 2.53 0 3.42-.12.92-.13 1.7-.39 2.32-1.01s.88-1.39 1.01-2.32c.12-.89.12-2.02.12-3.42v-.06a.77.77 0 0 0-1.54 0c0 1.47 0 2.5-.11 3.27-.1.75-.29 1.15-.57 1.43-.28.28-.68.47-1.44.57-.77.1-1.8.11-3.27.11H8.93c-1.47 0-2.5 0-3.27-.11-.75-.1-1.15-.29-1.43-.57-.28-.28-.47-.68-.57-1.44-.1-.77-.11-1.8-.11-3.27Z"/></symbol><symbol id="icon_home" viewBox="0 0 24 24"><path d="M20.7 8.29c-.49-1.01-1.52-1.63-3.59-2.86l-1.25-.74C13.98 3.57 13.04 3.01 12 3.01s-1.98.56-3.86 1.68l-1.25.74C4.82 6.66 3.78 7.28 3.3 8.29c-.49 1.01-.32 2.2.03 4.57l.25 1.74c.44 3.05.66 4.57 1.72 5.48 1.06.91 2.61.91 5.71.91H13c3.1 0 4.65 0 5.71-.91 1.06-.91 1.28-2.43 1.72-5.48l.25-1.74c.34-2.37.51-3.56.03-4.57Zm-5.6 7.85c-.9.67-1.98 1.03-3.1 1.03s-2.21-.36-3.1-1.03a.67.67 0 1 1 .8-1.08c.66.49 1.45.77 2.3.77s1.64-.28 2.3-.77a.67.67 0 1 1 .8 1.08Z"/></symbol><symbol id="icon_label" viewBox="0 0 24 24"><path d="M21.23 8.54h-3.4l1.3-4.66c.1-.37-.11-.75-.48-.85-.37-.1-.75.11-.85.48l-1.4 5.03H9.53l1.3-4.66c.1-.37-.11-.75-.48-.85-.37-.1-.75.11-.85.48L8.1 8.54H4.63c-.38 0-.69.31-.69.69s.31.69.69.69h3.09L6.31 15H2.77c-.38 0-.69.31-.69.69s.31.69.69.69h3.14l-1.04 3.74c-.1.37.11.75.48.85.37.1.75-.11.85-.48l1.14-4.11h6.87l-1.04 3.74c-.1.37.11.75.48.85.37.1.75-.11.85-.48l1.14-4.11h3.73c.38 0 .69-.31.69-.69s-.31-.69-.69-.69h-3.35l1.41-5.08h3.78c.38 0 .69-.31.69-.69s-.31-.69-.69-.69ZM14.6 15H7.73l1.41-5.08h6.87L14.6 15Z"/></symbol><symbol id="icon_light" viewBox="0 0 24 24"><path d="M16.65 12c0 2.57-2.08 4.65-4.65 4.65S7.35 14.57 7.35 12 9.43 7.35 12 7.35s4.65 2.08 4.65 4.65ZM12 2c.39 0 .7.31.7.7v1.86c0 .39-.31.7-.7.7s-.7-.31-.7-.7V2.7c0-.39.31-.7.7-.7ZM4.25 4.29c.26-.28.7-.3.99-.04l2.07 1.89c.29.26.31.7.06.98-.26.29-.7.31-.98.06l-.01-.01-2.07-1.89c-.28-.26-.3-.7-.04-.99Zm15.5 0c.26.28.24.73-.04.99l-2.07 1.89c-.29.26-.73.23-.98-.06a.701.701 0 0 1 .04-.97l2.07-1.89c.28-.26.73-.24.99.04ZM2 12c0-.39.31-.7.7-.7h1.86c.39 0 .7.31.7.7s-.31.7-.7.7H2.7c-.39 0-.7-.31-.7-.7Zm16.74 0c0-.39.31-.7.7-.7h1.86c.39 0 .7.31.7.7s-.31.7-.7.7h-1.86c-.39 0-.7-.31-.7-.7Zm-2.07 4.67c.27-.27.71-.27.99 0l2.07 2.07c.26.28.25.72-.03.99-.27.25-.68.25-.95 0l-2.07-2.07a.706.706 0 0 1 0-.99Zm-9.35 0c.27.27.27.71 0 .99l-2.07 2.07c-.28.26-.72.25-.99-.03a.695.695 0 0 1 0-.95l2.07-2.07c.27-.27.71-.27.99 0Zm4.67 2.07c.39 0 .7.31.7.7v1.86c0 .39-.31.7-.7.7s-.7-.31-.7-.7v-1.86c0-.39.31-.7.7-.7Z"/></symbol><symbol id="icon_link" viewBox="0 0 24 24"><path d="M15.12 5.21c1.2-1.21 2.96-1.23 3.93-.25.97.98.95 2.75-.25 3.95l-2.03 2.04a.63.63 0 0 0 .02.89c.24.23.63.23.87 0l2.03-2.04c1.6-1.61 1.8-4.17.25-5.72-1.55-1.55-4.11-1.35-5.71.25L10.17 8.4c-1.6 1.61-1.8 4.17-.25 5.72.24.25.64.26.89.02a.63.63 0 0 0 .02-.89l-.02-.02c-.97-.98-.95-2.75.25-3.95l4.06-4.07Zm-1.04 4.68a.622.622 0 0 0-.89 0c-.25.25-.25.64 0 .89.97.98.95 2.75-.25 3.95L8.88 18.8c-1.2 1.21-2.96 1.23-3.93.25-.97-.98-.95-2.75.25-3.95l2.03-2.04c.24-.25.24-.64 0-.89s-.64-.24-.89 0l-2.03 2.04c-1.6 1.61-1.8 4.17-.25 5.72 1.55 1.56 4.11 1.35 5.71-.25l4.06-4.07c1.6-1.61 1.8-4.17.25-5.72Z"/></symbol><symbol id="icon_link_open" viewBox="0 0 24 24"><path d="M14.03 3.9c0-.37.3-.67.67-.67h5.4c.37 0 .67.3.67.67v5.4c0 .37-.3.67-.67.67s-.68-.3-.68-.67V5.53l-6.05 6.05c-.25.27-.68.29-.95.03a.667.667 0 0 1-.03-.95l.03-.03 6.05-6.05H14.7a.67.67 0 0 1-.67-.67ZM21 11.11a2.016 2.016 0 0 1-2.92-1.81v-.51l-3.74 3.74a2.022 2.022 0 1 1-2.86-2.86l3.74-3.74h-.51a2.03 2.03 0 0 1-2.03-2.02c0-.31.07-.62.21-.9H12c-4.24 0-6.36 0-7.68 1.32C3 5.65 3 7.77 3 12.01s0 6.36 1.32 7.68c1.32 1.32 3.44 1.32 7.68 1.32s6.36 0 7.68-1.32C21 18.37 21 16.25 21 12.01v-.89Z"/></symbol><symbol id="icon_list" viewBox="0 0 24 24"><path d="M8.69 4.04c.24.25.22.65-.03.89L5.07 8.28c-.25.24-.65.22-.89-.03l-.03-.03-1.02-1.26c-.22-.27-.18-.67.09-.88s.67-.18.88.09l.59.73 3.1-2.89c.25-.24.65-.22.89.03Zm2.68 2.1c0-.35.28-.63.63-.63h8.37c.35 0 .63.28.63.63s-.28.63-.63.63H12c-.35 0-.63-.28-.63-.63ZM8.69 9.9c.24.25.22.65-.03.89l-3.59 3.35c-.25.24-.65.22-.89-.03l-.03-.03-1.02-1.26a.621.621 0 0 1 .09-.88c.27-.22.67-.18.88.09l.59.73 3.1-2.89c.25-.24.65-.22.89.03Zm2.68 2.1c0-.35.28-.63.63-.63h8.37c.35 0 .63.28.63.63s-.28.63-.63.63H12c-.35 0-.63-.28-.63-.63Zm-2.68 3.76c.24.25.22.65-.03.89L5.07 20c-.25.24-.65.22-.89-.03l-.03-.03-1.02-1.26a.621.621 0 0 1 .09-.88c.27-.22.67-.18.88.09l.59.73 3.1-2.89c.25-.24.65-.22.89.03Zm2.68 2.1c0-.35.28-.63.63-.63h8.37c.35 0 .63.28.63.63s-.28.63-.63.63H12c-.35 0-.63-.28-.63-.63Z"/></symbol><symbol id="icon_lock" viewBox="0 0 24 24"><path d="M20.79 11.28c-.51-.51-1.21-.71-2.29-.79V8.51C18.5 4.92 15.59 2 11.99 2S5.48 4.91 5.48 8.51v1.98c-1.07.08-1.77.28-2.29.79-.85.85-.85 2.21-.85 4.94s0 4.09.85 4.94c.85.85 2.21.85 4.94.85h7.71c2.73 0 4.09 0 4.94-.85.85-.85.85-2.21.85-4.94s0-4.09-.85-4.94ZM12 18.14a1.931 1.931 0 1 1 .002-3.862A1.931 1.931 0 0 1 12 18.14Zm5.06-7.71H6.95V8.5c0-2.79 2.27-5.06 5.06-5.06s5.06 2.27 5.06 5.06v1.93Z"/></symbol><symbol id="icon_menu" viewBox="0 0 24 24"><path d="M19.68 4.32C18.36 3 16.24 3 12 3S5.64 3 4.32 4.32C3 5.64 3 7.76 3 12s0 6.36 1.32 7.68C5.64 21 7.76 21 12 21s6.36 0 7.68-1.32C21 18.36 21 16.24 21 12s0-6.36-1.32-7.68ZM17.4 16.28H6.6a.67.67 0 0 1 0-1.34h10.8a.67.67 0 0 1 0 1.34Zm0-3.6H6.6a.67.67 0 0 1 0-1.34h10.8a.67.67 0 0 1 0 1.34Zm0-3.6H6.6c-.37 0-.67-.3-.67-.68s.3-.67.67-.67h10.8c.37 0 .67.3.67.67s-.3.68-.67.68Z"/></symbol><symbol id="icon_menu_more" viewBox="0 0 24 24"><path d="M12 7.56c-.98 0-1.78-.8-1.78-1.78S11.02 4 12 4s1.78.8 1.78 1.78-.8 1.78-1.78 1.78Zm0 6.22c-.98 0-1.78-.8-1.78-1.78s.8-1.78 1.78-1.78 1.78.8 1.78 1.78-.8 1.78-1.78 1.78ZM12 20c-.98 0-1.78-.8-1.78-1.78s.8-1.78 1.78-1.78 1.78.8 1.78 1.78S12.98 20 12 20Zm6-12.44c-.98 0-1.78-.8-1.78-1.78S17.02 4 18 4s1.78.8 1.78 1.78-.8 1.78-1.78 1.78Zm0 6.22c-.98 0-1.78-.8-1.78-1.78s.8-1.78 1.78-1.78 1.78.8 1.78 1.78-.8 1.78-1.78 1.78ZM18 20c-.98 0-1.78-.8-1.78-1.78s.8-1.78 1.78-1.78 1.78.8 1.78 1.78S18.98 20 18 20ZM6 7.56c-.98 0-1.78-.8-1.78-1.78S5.02 4 6 4s1.78.8 1.78 1.78S6.98 7.56 6 7.56Zm0 6.22c-.98 0-1.78-.8-1.78-1.78s.8-1.78 1.78-1.78 1.78.8 1.78 1.78-.8 1.78-1.78 1.78ZM6 20c-.98 0-1.78-.8-1.78-1.78s.8-1.78 1.78-1.78 1.78.8 1.78 1.78S6.98 20 6 20Z"/></symbol><symbol id="icon_more" viewBox="0 0 24 24"><path d="M16.44 12c0-.98.8-1.78 1.78-1.78S20 11.02 20 12s-.8 1.78-1.78 1.78-1.78-.8-1.78-1.78Zm-6.22 0c0-.98.8-1.78 1.78-1.78s1.78.8 1.78 1.78-.8 1.78-1.78 1.78-1.78-.8-1.78-1.78ZM4 12c0-.98.8-1.78 1.78-1.78s1.78.8 1.78 1.78-.8 1.78-1.78 1.78S4 12.98 4 12Z"/></symbol><symbol id="icon_more_vertical" viewBox="0 0 24 24"><path d="M12 7.56c-.98 0-1.78-.8-1.78-1.78S11.02 4 12 4s1.78.8 1.78 1.78-.8 1.78-1.78 1.78Zm0 6.22c-.98 0-1.78-.8-1.78-1.78s.8-1.78 1.78-1.78 1.78.8 1.78 1.78-.8 1.78-1.78 1.78ZM12 20c-.98 0-1.78-.8-1.78-1.78s.8-1.78 1.78-1.78 1.78.8 1.78 1.78S12.98 20 12 20Z"/></symbol><symbol id="icon_page" viewBox="0 0 24 24"><path d="M19.83 3.17C18.66 2 16.77 2 13 2h-2C7.23 2 5.34 2 4.17 3.17S3 6.23 3 10v4c0 3.77 0 5.66 1.17 6.83S7.23 22 11 22h2c3.77 0 5.66 0 6.83-1.17S21 17.77 21 14v-4c0-3.77 0-5.66-1.17-6.83ZM13 16.75H8c-.41 0-.75-.34-.75-.75s.34-.75.75-.75h5c.41 0 .75.34.75.75s-.34.75-.75.75Zm3-4H8c-.41 0-.75-.34-.75-.75s.34-.75.75-.75h8c.41 0 .75.34.75.75s-.34.75-.75.75Zm0-4H8c-.41 0-.75-.34-.75-.75s.34-.75.75-.75h8c.41 0 .75.34.75.75s-.34.75-.75.75Z"/></symbol><symbol id="icon_pin" viewBox="0 0 24 24"><path d="m19.18 7.81-2.97-2.97c-2.03-2.03-3.04-3.05-4.13-2.81-1.09.24-1.58 1.59-2.57 4.28l-.67 1.82c-.26.72-.4 1.08-.63 1.36-.11.12-.23.24-.36.33-.3.21-.66.31-1.4.52-1.66.46-2.49.69-2.81 1.23-.14.24-.21.5-.2.77 0 .63.61 1.24 1.83 2.46l1.42 1.42-4.48 4.48a.76.76 0 0 0 .03 1.08c.29.28.75.28 1.05 0l4.48-4.48 1.47 1.47c1.23 1.23 1.84 1.84 2.47 1.84.27 0 .53-.07.76-.2.55-.31.78-1.15 1.24-2.82.2-.74.3-1.1.52-1.4.09-.13.2-.25.32-.35.28-.24.63-.37 1.35-.64l1.85-.69c2.67-1 4-1.5 4.23-2.59.24-1.09-.77-2.09-2.79-4.11Z"/></symbol><symbol id="icon_read_more" viewBox="0 0 24 24"><path d="M21.96 11.5h-4.05c-1.1 0-2.07 0-2.85-.11-.85-.11-1.7-.38-2.39-1.07s-.95-1.54-1.07-2.39c-.1-.78-.1-1.75-.1-2.85V2.26l.03-.24C11.12 2 10.64 2 10.03 2 6.24 2 4.34 2 3.17 3.17S2 6.23 2 10v4c0 3.77 0 5.66 1.17 6.83S6.23 22 10 22h4c3.77 0 5.66 0 6.83-1.17S22 17.77 22 14v-.44c0-.87 0-1.53-.04-2.06ZM11.5 18.75H6c-.41 0-.75-.34-.75-.75s.34-.75.75-.75h5.5c.41 0 .75.34.75.75s-.34.75-.75.75Zm2.5-3.5H6c-.41 0-.75-.34-.75-.75s.34-.75.75-.75h8c.41 0 .75.34.75.75s-.34.75-.75.75Zm5.35-7.63-3.96-3.56c-1.13-1.01-1.69-1.52-2.38-1.79V5c0 2.36 0 3.54.72 4.27.73.73 1.91.73 4.27.73h3.58c-.36-.7-1.01-1.29-2.23-2.38Z"/></symbol><symbol id="icon_reload" viewBox="0 0 24 24"><path d="M18.84 2.06c.31.13.51.43.51.76v4.64c0 .45-.37.82-.82.82h-4.64c-.45 0-.82-.37-.82-.82 0-.22.09-.43.24-.58l1.75-1.75A7.921 7.921 0 0 0 4.69 9.38a7.921 7.921 0 0 0 4.25 10.37 7.921 7.921 0 0 0 10.37-4.25c.54-1.28.73-2.67.55-4.05a.82.82 0 0 1 1.63-.2c.66 5.24-3.06 10.02-8.3 10.68-5.24.66-10.02-3.06-10.68-8.3-.66-5.24 3.06-10.03 8.3-10.68 1.88-.24 3.79.09 5.49.94l1.65-1.65c.23-.23.59-.3.89-.18Z"/></symbol><symbol id="icon_search" viewBox="0 0 24 24"><path d="M20.81 20.81c.25-.25.25-.67 0-.92l-3.3-3.3c2.95-3.46 2.54-8.66-.92-11.62-3.46-2.95-8.66-2.54-11.62.92a8.242 8.242 0 0 0 11.62 11.62l3.3 3.3c.25.25.67.25.92 0Z"/></symbol><symbol id="icon_settings" viewBox="0 0 24 24"><path d="M20.4 13.36c-.48-.3-.78-.8-.78-1.36s.31-1.06.78-1.36c.32-.2.53-.36.68-.56.33-.42.47-.95.4-1.48-.05-.39-.29-.8-.76-1.6-.47-.81-.7-1.21-1.02-1.45-.43-.32-.96-.47-1.49-.4-.24.03-.49.13-.83.31-.49.27-1.09.26-1.58 0-.48-.28-.78-.79-.79-1.35-.02-.38-.05-.64-.14-.86-.21-.49-.6-.88-1.09-1.08-.37-.15-.84-.15-1.78-.15s-1.41 0-1.78.15c-.49.2-.88.59-1.09 1.08-.09.22-.13.48-.15.86-.01.56-.31 1.07-.8 1.35-.49.27-1.09.28-1.58 0-.34-.18-.58-.28-.82-.31-.53-.07-1.06.07-1.49.4-.32.24-.55.65-1.02 1.45-.47.81-.7 1.21-.76 1.6-.07.53.07 1.06.4 1.48.15.19.36.35.68.55.48.3.78.8.78 1.36s-.31 1.06-.78 1.36c-.32.2-.53.36-.68.56-.33.42-.47.95-.4 1.48.05.39.29.8.76 1.61.47.81.7 1.21 1.02 1.45.42.32.96.46 1.49.4.24-.03.49-.13.82-.31a1.67 1.67 0 0 1 1.58 0c.49.28.77.79.79 1.35.02.38.05.64.15.86.2.49.6.88 1.09 1.08.37.15.84.15 1.78.15s1.41 0 1.78-.15c.49-.2.88-.59 1.09-1.08.09-.22.13-.48.14-.86.02-.56.31-1.07.8-1.35.49-.27 1.09-.28 1.58 0 .34.18.58.28.83.31.53.07 1.07-.07 1.49-.4.32-.24.55-.65 1.02-1.45.47-.81.7-1.21.76-1.61.07-.53-.07-1.06-.4-1.48-.15-.19-.36-.35-.68-.55ZM12 15c-1.67 0-3.02-1.34-3.02-3S10.33 9 12 9s3.02 1.34 3.02 3-1.35 3-3.02 3Z"/></symbol><symbol id="icon_share" viewBox="0 0 24 24"><path d="M13.7 5.73c0-1.73 1.41-3.14 3.15-3.14S20 3.99 20 5.73a3.147 3.147 0 0 1-5.39 2.2l-4.36 2.97c.12.61.06 1.23-.17 1.8l4.78 3.14c.56-.46 1.27-.71 2-.71 1.74 0 3.15 1.4 3.15 3.14 0 1.73-1.41 3.14-3.15 3.14a3.141 3.141 0 0 1-2.88-4.42l-4.75-3.12c-.57.5-1.31.77-2.07.77a3.141 3.141 0 1 1 0-6.28c1 0 1.89.46 2.47 1.19l4.23-2.88c-.1-.31-.15-.64-.15-.96Z"/></symbol><symbol id="icon_sort_ascending" viewBox="0 0 24 24"><path d="M17.71 2c.47 0 .86.38.86.86v15.71l1.89-2.51a.85.85 0 0 1 1.2-.17c.38.28.46.82.17 1.2l-3.43 4.57a.85.85 0 0 1-1.2.17.848.848 0 0 1-.34-.69V2.86c0-.47.38-.86.86-.86ZM6.57 5.14c0-.47.38-.86.86-.86h5.71c.47 0 .86.38.86.86s-.38.86-.86.86H7.43a.86.86 0 0 1-.86-.86Zm-2.29 5.71c0-.47.38-.86.86-.86h8c.47 0 .86.38.86.86s-.38.86-.86.86h-8a.86.86 0 0 1-.86-.86Zm-2.29 5.71c0-.47.38-.86.86-.86h10.29c.47 0 .86.38.86.86s-.38.86-.86.86H2.86a.86.86 0 0 1-.86-.86Z"/></symbol><symbol id="icon_sort_descending" viewBox="0 0 24 24"><path d="M17.44 2.04c.35-.12.74 0 .96.3l3.43 4.57c.28.38.21.92-.17 1.2-.38.28-.92.21-1.2-.17l-1.89-2.51v15.71c0 .47-.38.86-.86.86s-.86-.38-.86-.86V2.86c0-.37.24-.7.59-.81ZM2 7.43c0-.47.38-.86.86-.86h10.28c.47 0 .86.38.86.86s-.38.86-.86.86H2.86A.86.86 0 0 1 2 7.43Zm2.29 5.71c0-.47.38-.86.86-.86h8c.47 0 .86.38.86.86s-.38.86-.86.86H5.14a.86.86 0 0 1-.86-.86Zm2.29 5.71c0-.47.38-.86.86-.86h5.71c.47 0 .86.38.86.86s-.38.86-.86.86H7.43a.86.86 0 0 1-.86-.86Z"/></symbol><symbol id="icon_star" viewBox="0 0 24 24"><path d="M9.15 5.41C10.42 3.14 11.05 2 12 2s1.58 1.14 2.85 3.41l.33.59c.36.65.54.97.82 1.18.28.21.63.29 1.33.45l.64.14c2.46.56 3.69.84 3.98 1.78.29.94-.55 1.92-2.22 3.88l-.43.51c-.48.56-.72.84-.82 1.18-.11.35-.07.72 0 1.46l.07.68c.25 2.62.38 3.93-.39 4.51-.77.58-1.92.05-4.22-1.01l-.6-.27c-.65-.3-.98-.45-1.33-.45s-.67.15-1.33.45l-.6.27c-2.3 1.06-3.46 1.59-4.22 1.01-.77-.58-.64-1.89-.39-4.51l.07-.68c.07-.74.11-1.12 0-1.46-.11-.35-.35-.62-.82-1.18l-.43-.51c-1.68-1.96-2.52-2.94-2.22-3.88.29-.94 1.52-1.22 3.98-1.78l.64-.14c.7-.16 1.05-.24 1.33-.45.28-.21.46-.54.82-1.18l.33-.59Z"/></symbol><symbol id="icon_translate" viewBox="0 0 24 24"><path d="M14.72 19.33c.33.07.67.12 1.01.15l-.18.18c-.73.69-1.86.99-4.11 1.59-2.26.6-3.38.91-4.36.68-.77-.18-1.47-.58-2.01-1.16-.69-.73-.99-1.86-1.59-4.11l-.52-1.93c-.61-2.26-.91-3.38-.68-4.36.18-.77.58-1.47 1.16-2.01.67-.63 1.69-.94 3.61-1.45l-.02.07-.54 1.99c-.29 1.08-.53 1.97-.66 2.72-.14.78-.19 1.54-.01 2.3.25 1.06.8 2.02 1.6 2.77.58.54 1.26.87 2 1.14.71.26 1.6.49 2.66.78h.03l.11.04c.98.26 1.81.48 2.5.62Zm6.32-8.61-.52 1.93c-.61 2.26-.91 3.38-1.59 4.11-.54.58-1.24.98-2.01 1.16-.1.02-.2.04-.3.05-.92.11-2.03-.19-4.06-.73-2.26-.61-3.38-.91-4.11-1.59-.58-.54-.98-1.24-1.16-2.01-.23-.98.07-2.1.68-4.36l.52-1.93.24-.91c.46-1.67.76-2.58 1.35-3.21.54-.58 1.24-.98 2.01-1.16.98-.23 2.1.07 4.36.68 2.25.6 3.38.91 4.11 1.59.58.54.98 1.24 1.16 2.01.23.98-.08 2.1-.68 4.36Zm-6.74 2.24-2.9-.78a.75.75 0 1 0-.39 1.45l2.9.78s.03 0 .05.01c.4.09.81-.16.9-.56.09-.4-.16-.81-.56-.9Zm2.71-2.38-4.83-1.3a.75.75 0 1 0-.39 1.45l4.83 1.29s.03 0 .04.01c.4.1.81-.15.9-.56s-.15-.81-.56-.9Z"/></symbol><symbol id="icon_verified" viewBox="0 0 24 24"><path d="M21.73 10.83c-.15-.32-.41-.63-.93-1.24-.14-.16-.28-.32-.4-.49-.2-.3-.34-.63-.41-.98-.03-.21-.06-.42-.07-.63-.06-.8-.1-1.2-.21-1.54a2.69 2.69 0 0 0-1.66-1.65c-.33-.12-.73-.15-1.54-.21-.21-.01-.42-.03-.63-.07-.35-.07-.69-.21-.98-.41-.17-.12-.34-.26-.49-.4-.61-.52-.92-.78-1.24-.93-.74-.35-1.6-.35-2.34 0-.32.15-.63.41-1.24.93-.16.14-.32.28-.49.4-.3.2-.63.34-.98.41-.15.03-.31.04-.63.07-.8.06-1.2.1-1.54.21-.77.27-1.38.88-1.66 1.65-.12.33-.15.74-.21 1.54-.01.21-.03.42-.07.63-.07.35-.21.69-.41.98-.09.13-.19.25-.4.49-.52.61-.78.92-.93 1.24-.35.74-.35 1.6 0 2.34.15.32.41.63.93 1.24.21.24.31.36.4.49.2.3.34.63.41.98.03.15.04.31.07.63.06.8.1 1.2.21 1.54.27.77.88 1.38 1.66 1.66.33.12.73.15 1.54.21.32.03.48.04.63.07.35.07.69.21.98.41.13.09.25.19.49.4.61.52.92.78 1.24.93.74.35 1.6.35 2.34 0 .32-.15.63-.41 1.24-.93.24-.21.36-.31.49-.4.3-.2.63-.34.98-.41.15-.03.31-.04.63-.07.8-.06 1.2-.1 1.54-.21a2.73 2.73 0 0 0 1.66-1.66c.12-.33.15-.73.21-1.54.03-.32.04-.48.07-.63.07-.35.21-.69.41-.98.09-.13.19-.25.4-.49.52-.61.78-.92.93-1.24.35-.74.35-1.6 0-2.34Zm-5.36-.97-5.43 5.42c-.32.32-.83.32-1.15 0l-2.17-2.17a.825.825 0 0 1 0-1.1.81.81 0 0 1 1.15-.05l1.6 1.59 4.85-4.85c.31-.28.79-.28 1.1 0 .33.3.36.82.05 1.15Z"/></symbol><symbol id="icon_zip" viewBox="0 0 24 24"><path d="M19.83 3.17C18.66 2 16.77 2 13 2h-1v2h1.5c.47 0 .71 0 .85.15.15.15.15.38.15.85s0 .71-.15.85c-.15.15-.38.15-.85.15H12v2h1.5c.47 0 .71 0 .85.15.15.15.15.38.15.85s0 .71-.15.85c-.15.15-.38.15-.85.15H13c-.47 0-.71 0-.85-.15C12 9.7 12 9.47 12 9V8h-1.5c-.47 0-.71 0-.85-.15C9.5 7.7 9.5 7.47 9.5 7s0-.71.15-.85C9.8 6 10.03 6 10.5 6H12V4h-1.5c-.47 0-.71 0-.85-.15C9.5 3.7 9.5 3.47 9.5 3V2c-2.79.02-4.32.16-5.33 1.17C3 4.34 3 6.23 3 10v4c0 3.77 0 5.66 1.17 6.83S7.23 22 11 22h2c3.77 0 5.66 0 6.83-1.17S21 17.77 21 14v-4c0-3.77 0-5.66-1.17-6.83ZM14.5 13a2.5 2.5 0 0 1-5 0v-.12c0-.48.39-.88.88-.88h3.25c.48 0 .88.39.88.88V13Z"/></symbol></svg>