<svg
  width="24"
  height="24"
  viewBox="0 0 24 24"
  xmlns="http://www.w3.org/2000/svg"
  aria-hidden="true"
>
  <path d="M7 4h9c2.76 0 5 2.24 5 5H2c0-2.76 2.24-5 5-5m9 1H7C5.14 5 3.57 6.27 3.13 8h16.74c-.44-1.73-2.01-3-3.87-3m5 11c0 2.76-2.24 5-5 5H7c-2.76 0-5-2.24-5-5h19M7 20h9c1.86 0 3.43-1.27 3.87-3H3.13c.44 1.73 2.01 3 3.87 3m5.5-10l2 2 2-2H19c1.1 0 2 .9 2 2v1c0 1.1-.9 2-2 2H4c-1.1 0-2-.9-2-2v-1c0-1.1.9-2 2-2h8.5m2 3.41L12.09 11H4c-.55 0-1 .45-1 1v1c0 .55.45 1 1 1h15c.55 0 1-.45 1-1v-1c0-.55-.45-1-1-1h-2.09l-2.41 2.41z"></path>
</svg>
