<svg
  width="24"
  height="24"
  viewBox="0 0 24 24"
  xmlns="http://www.w3.org/2000/svg"
  aria-hidden="true"
>
  <path d="M2 10h3c.55 0 1 .45 1 1v9c0 .55-.45 1-1 1H2c-.55 0-1-.45-1-1v-9c0-.55.45-1 1-1m0 1v9h3v-9H2m15.72 8.03l3-5c.18-.3.28-.66.28-1.03v-1c0-1.1-.9-2-2-2h-5.61l1.46-5.44v-.02a.97.97 0 0 0-.26-.96l-6 6.01C8.22 9.95 8 10.45 8 11v7c0 1.1.9 2 2 2h6c.73 0 1.37-.39 1.72-.97M22 13c0 .59-.17 1.15-.47 1.61l-2.91 4.84C18.11 20.38 17.13 21 16 21h-6c-1.66 0-3-1.34-3-3v-7c0-.83.34-1.58.88-2.12l6.71-6.72.71.71c.53.53.7 1.29.51 1.97L14.69 9H19c1.66 0 3 1.34 3 3v1z"></path>
</svg>
