<svg
  width="24"
  height="24"
  viewBox="0 0 24 24"
  xmlns="http://www.w3.org/2000/svg"
  aria-hidden="true"
>
  <path d="M7 22c0-2.21 1.79-4 4-4v-1a5 5 0 0 1-4.9-4H5c-1.66 0-3-1.34-3-3V5h2c.77 0 1.47.29 2 .76V3h11v2.76c.53-.47 1.23-.76 2-.76h2v5c0 1.66-1.34 3-3 3h-1.1a5 5 0 0 1-4.9 4v1c2.21 0 4 1.79 4 4H7m5-3h-1c-1.31 0-2.42.83-2.83 2h6.66A2.99 2.99 0 0 0 12 19m4-15H7v8c0 2.21 1.79 4 4 4h1c2.21 0 4-1.79 4-4V4m4 6V6h-1c-1.1 0-2 .9-2 2v4h1c1.1 0 2-.9 2-2M3 10c0 1.1.9 2 2 2h1V8c0-1.1-.9-2-2-2H3v4z"></path>
</svg>
