<svg
  width="24"
  height="24"
  viewBox="0 0 24 24"
  xmlns="http://www.w3.org/2000/svg"
  aria-hidden="true"
>
  <path d="M16 18c1.1 0 2 .9 2 2s-.9 2-2 2-2-.9-2-2 .9-2 2-2m0 1c-.55 0-1 .45-1 1s.45 1 1 1 1-.45 1-1-.45-1-1-1m-9-1c1.1 0 2 .9 2 2s-.9 2-2 2-2-.9-2-2 .9-2 2-2m0 1c-.55 0-1 .45-1 1s.45 1 1 1 1-.45 1-1-.45-1-1-1M18 6H4.27l2.55 6H15c.33 0 .62-.16.8-.4l3-4A1.003 1.003 0 0 0 18 6m-3 7H6.87l-.77 1.56L6 15c0 .55.45 1 1 1h11v1H7a2 2 0 0 1-1.75-2.97l.72-1.47L2.34 4H1V3h2l.85 2H18c1.1 0 2 .9 2 2 0 .5-.17.92-.45 1.26l-2.91 3.89c-.36.51-.96.85-1.64.85z"></path>
</svg>
