<svg
  data-name="Layer 9"
  xmlns="http://www.w3.org/2000/svg"
  viewBox="0 0 24 24"
  height="24"
  width="24"
>
  <path d="M22 9.8c-.07-.09-.14-.16-.49-.19h-.88a2.8 2.8 0 0 0-2.64 1.18c.12-.78-.64-1.18-2.29-1.18-1.94 0-3.17.78-3.66 2.36a2.18 2.18 0 0 0-.05 1.44h-1.61c-.71 0-1.15-.12-1.32-.35a1.53 1.53 0 0 1 .05-1.21 2 2 0 0 1 2.22-1.39 11.61 11.61 0 0 1 1.2.07c.07 0 .12-.1.12-.17v-.07l-.12-.29c0-.21-.19-.33-.47-.38s-.48 0-.76 0a3.45 3.45 0 0 0-3.23 1.48c.21-1-.5-1.51-2.13-1.51a17.75 17.75 0 0 0-2 .07c-.31.05-.5.17-.57.38l-.14.42q0 .12.12.12c.07 0 .35 0 .83-.07.63 0 1.08-.07 1.39-.07.9 0 1.3.24 1.16.69a.29.29 0 0 1-.22.19c-.85.14-1.53.23-2 .3-1.41.19-2.24.62-2.45 1.33-.31 1 .45 1.44 2.26 1.44a12.38 12.38 0 0 0 2.29-.17c.36-.07.55-.14.62-.38l.33-1.08c0 1.08.71 1.63 2.27 1.63a14.93 14.93 0 0 0 1.6-.07c.31-.05.47-.12.55-.36l.07-.33c.33.52 1.06.78 2.17.78a10.3 10.3 0 0 0 2.05-.1.42.42 0 0 0 .31-.26.08.08 0 0 1 0-.07l.14-.45c0-.07 0-.11-.12-.11h-1.94a3.79 3.79 0 0 1-1.11-.12.61.61 0 0 1-.42-.68l2.38-.31a3 3 0 0 0 2.15-1l-.83 2.76a.1.1 0 0 0 0 .12.23.23 0 0 0 .16.05h1a.27.27 0 0 0 .26-.17l.87-3c.12-.41.47-.59 1.13-.59h1.3a.25.25 0 0 0 .21-.14L22 10a.25.25 0 0 0 0-.2zM6 13.44a8.87 8.87 0 0 1-1.32.07c-1 0-1.44-.21-1.32-.61a.82.82 0 0 1 .78-.52l2.29-.31zM16.59 11c-.09.31-.54.52-1.34.64l-1.92.26.05-.16a1.84 1.84 0 0 1 .66-1 2.64 2.64 0 0 1 1.42-.29c.87 0 1.25.22 1.13.59z"></path>
</svg>
