<svg
  data-name="Layer 9"
  xmlns="http://www.w3.org/2000/svg"
  viewBox="0 0 24 24"
  height="24"
  width="24"
  aria-hidden="true"
>
  <path d="M14.65 13.71h-.55v-.43a1.64 1.64 0 1 1 .55-1.22zM13 9.85a2.18 2.18 0 1 0 0 4.36 2.25 2.25 0 0 0 .91-.2l.15.06 1.11.46V12A2.18 2.18 0 0 0 13 9.85m-9.07 3.49a1.29 1.29 0 1 1 1.29-1.29 1.28 1.28 0 0 1-1.29 1.29m0-3.22a1.93 1.93 0 1 0 0 3.86 2 2 0 0 0 1.29-.49V14h.64v-1.95a1.92 1.92 0 0 0-1.93-1.93M6.38 14H7V9.47h-.62zm15 0H22V9.47h-.64zm-11.9-.64a1.29 1.29 0 1 1 .91-2.2l.46-.45a1.93 1.93 0 1 0 0 2.72l-.48-.43a1.28 1.28 0 0 1-.91.38m6.88-3.22v-.69h-.64V14h.64v-3.24H17v-.64m1.93.64a1.3 1.3 0 0 1 1.25 1h-2.51a1.29 1.29 0 0 1 1.24-1m1 2.12a1.28 1.28 0 0 1-2.22-.51h3.15v-.32a2 2 0 1 0-.2.83M13 11a1.12 1.12 0 1 0 1.12 1.11A1.12 1.12 0 0 0 13 11"></path>
</svg>
