<svg
  xmlns="http://www.w3.org/2000/svg"
  viewBox="0 0 24 24"
  height="24"
  width="24"
>
  <path d="M18.73 19.5C17.9 20.74 17 22 15.68 22s-1.77-.79-3.29-.79-2 .77-3.27.82-2.3-1.35-3.12-2.56C4.27 17 3 12.45 4.72 9.39a4.88 4.88 0 0 1 4.12-2.51c1.28 0 2.5.87 3.29.87s2.26-1.07 3.81-.91a4.64 4.64 0 0 1 3.64 2 4.56 4.56 0 0 0-2.15 3.81 4.41 4.41 0 0 0 2.68 4 11.05 11.05 0 0 1-1.38 2.83M13 3.5A4.55 4.55 0 0 1 16 2a4.38 4.38 0 0 1-1 3.19 3.65 3.65 0 0 1-3 1.42 4.27 4.27 0 0 1 1-3.11z"></path>
</svg>
