<svg
  height="24"
  viewBox="0 0 24 24"
  width="24"
  xmlns="http://www.w3.org/2000/svg"
  class="matericons matericons-application-menu"
>
  <path d="M7.6 5.8A1.8 1.8 0 1 1 5.8 4a1.8 1.8 0 0 1 1.8 1.8zM12 4a1.8 1.8 0 1 0 1.8 1.8A1.8 1.8 0 0 0 12 4zm6.2 3.6a1.8 1.8 0 1 0-1.8-1.8 1.8 1.8 0 0 0 1.8 1.8zM5.8 10.2A1.8 1.8 0 1 0 7.6 12a1.8 1.8 0 0 0-1.8-1.8zm6.2 0a1.8 1.8 0 1 0 1.8 1.8 1.8 1.8 0 0 0-1.8-1.8zm6.2 0A1.8 1.8 0 1 0 20 12a1.8 1.8 0 0 0-1.8-1.8zM5.8 16.4a1.8 1.8 0 1 0 1.8 1.8 1.8 1.8 0 0 0-1.8-1.8zm6.2 0a1.8 1.8 0 1 0 1.8 1.8 1.8 1.8 0 0 0-1.8-1.8zm6.2 0a1.8 1.8 0 1 0 1.8 1.8 1.8 1.8 0 0 0-1.8-1.8z"></path>
</svg>
