<svg id="Layer_9" data-name="Layer 9" xmlns="http://www.w3.org/2000/svg" viewBox="0 0 24 24"><path d="M2,11a11.12,11.12,0,0,1,.25-1.38l-.08.2c0-.23.1-.46.16-.68v0a.09.09,0,0,1,0-.05.17.17,0,0,0,0,.07,1.35,1.35,0,0,0,0,.29,1.05,1.05,0,0,0,0,.3,3.61,3.61,0,0,0,1.74,1.92,1,1,0,0,1,.17.1,12.55,12.55,0,0,0,3,1.15,26.53,26.53,0,0,0,4.6.68l.69,0,.49,0,.65,0c.66,0,1.15,0,1.31,0A13.82,13.82,0,0,0,17,13.35a9.54,9.54,0,0,0,1.5-.46,6.6,6.6,0,0,0,1.51-.83,4.47,4.47,0,0,0,.71-.63,3.88,3.88,0,0,0,.53-.72,2.8,2.8,0,0,0,.29-.68v0a1.8,1.8,0,0,0,.07-.41h0V9.36s0-.08,0-.12a2.39,2.39,0,0,0-.08-.45.43.43,0,0,1,0,.05l0,.09v0a2.17,2.17,0,0,1,.07.24v0c0,.09,0,.18.07.26h0v0c0,.11,0,.21.05.31a.59.59,0,0,0,0,.14c0,.14,0,.26,0,.34a2.44,2.44,0,0,1,0,.32v0a2.54,2.54,0,0,1-.15.59v0h0a3.19,3.19,0,0,1-.44.79h0l0,0a5.08,5.08,0,0,1-.56.63h0a6.45,6.45,0,0,1-1.2.89h0l-.09.05a13.62,13.62,0,0,1-2.85,1.2h0l-.19.06-.43.12-.33.09h0l-.64.16a16.69,16.69,0,0,1-6.64.55h0l-.13,0-.33-.06-.36-.08h0c-.45-.11-.92-.23-1.43-.39l-.26-.1h0c-.12,0-.22-.1-.33-.14L5,14.85l-.1,0h0a6.23,6.23,0,0,1-1.54-1.09h0a1.71,1.71,0,0,1-.18-.2L3,13.36,3,13.3H3A4.48,4.48,0,0,1,2.23,12v0a3,3,0,0,1-.12-.4h0A3.74,3.74,0,0,1,2,11ZM5.28,6.54h0l.15.15.11.1s0,0,0,0h0a4.39,4.39,0,0,0,1.58.77h0l.25.06.42.09.23.06h0A12,12,0,0,0,10,8a16.8,16.8,0,0,0,3.64-.4h0L14,7.53c.58-.14,1.13-.28,1.6-.44h0l.83-.31h0c.23-.1.5-.19.7-.29h0A6.52,6.52,0,0,0,18,6l.16-.12a2.51,2.51,0,0,0,.52-.5l.06-.1a.87.87,0,0,0,.11-.18h0a.88.88,0,0,0,.1-.3.89.89,0,0,0-.15-.35l0,0-.06-.07h0a11.08,11.08,0,0,0-1-.8,2.64,2.64,0,0,0-.29-.15h0c-.11-.07-.2-.17-.31-.23a1.44,1.44,0,0,1,.35.28,1.05,1.05,0,0,1,.15.24.59.59,0,0,1,.09.24,1.14,1.14,0,0,1-.6.84,3.57,3.57,0,0,1-.48.28l-.26.11-.56.21-.32.1-.73.17-.31.06c-.37.07-.75.13-1.16.17S12.43,5.94,12,6A16.09,16.09,0,0,1,9.32,5.8c-.4-.06-.78-.13-1.12-.21a4.1,4.1,0,0,1-1.89-.88,1.49,1.49,0,0,1-.12-.14.72.72,0,0,1-.13-.33c0-.33.22-.66.67-1a9.91,9.91,0,0,0-1,.71A2.33,2.33,0,0,0,5,5.1H5s0,.05,0,.08a1.29,1.29,0,0,0-.06.33v0h0s0,.08,0,.09A1.46,1.46,0,0,0,5.28,6.54ZM2.8,8.46a1.73,1.73,0,0,0,0,.32l0,0a2.29,2.29,0,0,0,.47,1l0,0a3.59,3.59,0,0,0,.32.35h0a4.87,4.87,0,0,0,1.13.83h0l.06,0a4.81,4.81,0,0,0,.51.25l0,0A10.29,10.29,0,0,0,8.23,12h0a14.2,14.2,0,0,0,1.64.12h.48c.49,0,1,0,1.52-.09l.59-.07a16.81,16.81,0,0,0,2.11-.43h0l.5-.15h0a21.06,21.06,0,0,0,2.31-.79h0l.08,0a12.21,12.21,0,0,0,1.31-.63l.11,0h0a8.12,8.12,0,0,0,.72-.46h0c.13-.1.22-.2.33-.3s.21-.17.3-.26a2.71,2.71,0,0,0,.24-.35,2,2,0,0,0,.2-.31l0,0h0a1.55,1.55,0,0,0,0-.23l0,0a1.76,1.76,0,0,0,.06-.46h0a1,1,0,0,0-.07-.45l0-.08a1.33,1.33,0,0,0-.06-.12,1.66,1.66,0,0,0-.11-.24h0c-.11-.18-.23-.35-.35-.52s-.13-.19-.19-.28h0v0a1.36,1.36,0,0,1,.1.21,1.63,1.63,0,0,1,.11.23,1.69,1.69,0,0,1,.09.46,1.44,1.44,0,0,1-.06.4.18.18,0,0,1,0,.1,1.36,1.36,0,0,1-.14.34,2.79,2.79,0,0,1-.23.32,3.08,3.08,0,0,1-.45.42.7.7,0,0,1-.1.08,4.66,4.66,0,0,1-.84.46,8.9,8.9,0,0,1-1.76.52l-.35.07c-.41.07-.87.13-1.37.17h0a25.64,25.64,0,0,1-4.51-.16l-.66-.07-.32,0-.33,0-.19,0a13.5,13.5,0,0,1-3-.71l-.19-.07A5.87,5.87,0,0,1,4,7.47l-.11-.1a1.07,1.07,0,0,1-.38-.7.69.69,0,0,1,.1-.36l0,0v0l-.08.13,0,0a10.63,10.63,0,0,0-.6,1,2.65,2.65,0,0,0-.16.82h0v.16Zm18,8a4.72,4.72,0,0,1-.43.52l-.16.18a7,7,0,0,1-.68.63A9.89,9.89,0,0,1,17.65,19c-.22.11-.44.2-.67.29a13.34,13.34,0,0,1-9.18,0h0l-.14,0q-.72-.24-1.47-.54a7.24,7.24,0,0,1-1-.52c-.14-.08-.28-.18-.42-.28A6,6,0,0,1,2.94,16.1h0a11.27,11.27,0,0,0,.78,1.35l0,.07,0-.05a9.85,9.85,0,0,0,.85,1.08,2.69,2.69,0,0,0,.28.22s0,0,0,0,.16.1.23.15a6.89,6.89,0,0,0,.71.49l.2.13,0,0a9.11,9.11,0,0,0,2,.8v0l.15,0,.68.16.26.05h0a14.49,14.49,0,0,0,2.52.22,14,14,0,0,0,4.59-.72s0,0,0,0c.25-.09.49-.2.73-.3s.32-.12.46-.19l.1,0s0,0,0,0a9.08,9.08,0,0,0,2-1.3h0a7.72,7.72,0,0,0,.64-.65l.16-.18.31-.4.11-.15.24-.38,0,0h0a5,5,0,0,0,.25-.52A3.55,3.55,0,0,1,20.81,16.49ZM21.39,14a5.1,5.1,0,0,1-1,1.11,6.76,6.76,0,0,1-1,.76,8.6,8.6,0,0,1-1.69.79l-.42.14a15.21,15.21,0,0,1-4.06.64,20.88,20.88,0,0,1-5.64-.84l-.24-.07a17.48,17.48,0,0,1-1.69-.58l-.39-.18c-.17-.07-.33-.16-.5-.25a7.43,7.43,0,0,1-1.82-1.35L2.75,14A3,3,0,0,1,2,12.5c0,.25,0,.49.07.73v-.1c0,.11,0,.21,0,.31a6,6,0,0,0,.57,1.69s0,0,0,0a.6.6,0,0,0,.06.11c.06.11.12.2.18.3s.12.22.2.32a.08.08,0,0,0,0,0,6,6,0,0,0,1.24,1.28h0l.11.07a5.29,5.29,0,0,0,.5.32c.08,0,.15.11.23.15h0a9.6,9.6,0,0,0,1.52.64h0l.09,0,.34.09.32.09h0a13.9,13.9,0,0,0,4.33.29,22.57,22.57,0,0,0,5.4-1.19h0l.24-.11.56-.22h0a9.75,9.75,0,0,0,1.46-.81h0l.12-.09a2.85,2.85,0,0,0,.33-.25l.29-.22.27-.26a1.29,1.29,0,0,0,.17-.16h0a5.83,5.83,0,0,0,.79-1h0a0,0,0,0,0,0,0,4.3,4.3,0,0,0,.33-.71v0h0a3.75,3.75,0,0,0,.15-.62c0-.16,0-.32.05-.49a3.31,3.31,0,0,1-.26.81A5.72,5.72,0,0,1,21.39,14Z"/></svg>