<svg id="Layer_9" data-name="Layer 9" xmlns="http://www.w3.org/2000/svg" viewBox="0 0 24 24"><path d="M2,11.55a4.25,4.25,0,0,1,.12-.62.36.36,0,0,0,0,.09c0-.11,0-.21.07-.31h0v0a0,0,0,0,0,0,0,.57.57,0,0,0,0,.13.33.33,0,0,0,0,.14,1.63,1.63,0,0,0,.78.86l.08,0a5.12,5.12,0,0,0,1.34.52,11.44,11.44,0,0,0,2.06.31l.32,0H7.82c.35,0,.66-.09.94-.15a4.82,4.82,0,0,0,.67-.21,2.73,2.73,0,0,0,1-.65,2.69,2.69,0,0,0,.24-.33,2.27,2.27,0,0,0,.13-.3v0a.92.92,0,0,0,0-.18h0v-.1a.43.43,0,0,1,0-.05.54.54,0,0,0,0-.2v.06h0l0,.11h0l0,.12h0c0,.05,0,.1,0,.14s0,.05,0,.07a.86.86,0,0,1,0,.15,1,1,0,0,1,0,.14h0a1.08,1.08,0,0,1-.07.27h0a2.23,2.23,0,0,1-.2.36h0a2.15,2.15,0,0,1-.25.29h0a3.15,3.15,0,0,1-.54.4h0l0,0a5.65,5.65,0,0,1-1.28.54h0l-.08,0-.2,0-.15,0h0l-.29.07a7.5,7.5,0,0,1-3,.25H4.74l-.15,0-.17,0h0a6.28,6.28,0,0,1-.65-.17l-.11-.05h0l-.14-.06-.18-.08,0,0h0a2.89,2.89,0,0,1-.7-.49h0l-.08-.09a.46.46,0,0,1-.07-.07l0,0h0A1.84,1.84,0,0,1,2.1,12h0a1.21,1.21,0,0,1-.05-.18h0A1.6,1.6,0,0,1,2,11.55Zm1.47-2h0l.07.07,0,.05,0,0h0a2,2,0,0,0,.71.34h0l.12,0,.19,0,.1,0h0a5.47,5.47,0,0,0,.87.07A7.91,7.91,0,0,0,7.25,10h0l.11,0c.26-.06.51-.13.72-.2h0l.38-.13h0l.32-.12h0a2.81,2.81,0,0,0,.4-.24l.08,0A1,1,0,0,0,9.47,9l0,0a.56.56,0,0,1,.05-.08h0a.65.65,0,0,0,0-.13.32.32,0,0,0-.06-.16h0l0,0h0A5.37,5.37,0,0,0,9,8.21l-.13-.07h0L8.77,8a.53.53,0,0,1,.16.13.36.36,0,0,1,.07.1s0,.07,0,.11a.52.52,0,0,1-.27.38l-.22.12-.11,0L8.18,9,8,9.07l-.33.08-.14,0-.52.07-.56,0a7.53,7.53,0,0,1-1.2-.07l-.5-.1a1.82,1.82,0,0,1-.85-.39l-.06-.07a.42.42,0,0,1-.06-.14c0-.15.1-.3.3-.43a4.48,4.48,0,0,0-.44.32,1,1,0,0,0-.35.49h0v0a.5.5,0,0,0,0,.14h0v0A.69.69,0,0,0,3.47,9.55Zm-1.11.86a.61.61,0,0,0,0,.14l0,0A1.12,1.12,0,0,0,2.6,11h0a1.07,1.07,0,0,0,.14.16h0a2.26,2.26,0,0,0,.5.38h0l0,0,.23.11h0A4.43,4.43,0,0,0,4.8,12h0a5.87,5.87,0,0,0,.74.05h.22c.22,0,.44,0,.68,0l.27,0c.3-.05.62-.11.94-.19h0l.22-.06h0c.33-.1.69-.22,1-.36H9a5.39,5.39,0,0,0,.59-.29l.05,0h0a3,3,0,0,0,.32-.21h0c.06,0,.1-.09.15-.13l.13-.12a1.43,1.43,0,0,0,.11-.15,1.1,1.1,0,0,0,.09-.14h0a.29.29,0,0,0,0-.1h0a.76.76,0,0,0,0-.21h0a.45.45,0,0,0,0-.2.06.06,0,0,1,0,0l0-.06a.93.93,0,0,1-.05-.1h0a1.88,1.88,0,0,0-.16-.23l-.08-.13h0a.3.3,0,0,1,0,.1.31.31,0,0,1,.05.1.56.56,0,0,1,0,.21.62.62,0,0,1,0,.18.08.08,0,0,1,0,0,.47.47,0,0,1-.06.15.76.76,0,0,1-.11.14,1.26,1.26,0,0,1-.2.2l0,0a1.91,1.91,0,0,1-.38.21,3.77,3.77,0,0,1-.79.23l-.16,0-.61.08h0a12.17,12.17,0,0,1-2-.07l-.3,0H5.35l-.15,0H5.11a6.54,6.54,0,0,1-1.35-.32l-.08,0A2.57,2.57,0,0,1,2.91,10l-.05-.05a.46.46,0,0,1-.17-.31.31.31,0,0,1,0-.17v0h0l0,.06,0,0a4.39,4.39,0,0,0-.27.47,1,1,0,0,0-.08.37h0v.08ZM10.45,14l-.19.23-.08.08c-.09.09-.19.19-.3.28a4.58,4.58,0,0,1-.85.53l-.3.13a6,6,0,0,1-4.13,0h0l-.06,0L3.88,15a4.73,4.73,0,0,1-.45-.23l-.19-.13a2.76,2.76,0,0,1-.82-.83h0a3.56,3.56,0,0,0,.34.6l0,0v0a4.57,4.57,0,0,0,.38.49l.12.1h0l.1.07.32.22.09.06h0a4.57,4.57,0,0,0,.9.36h0l.07,0,.31.07.11,0h0A6.55,6.55,0,0,0,6.3,16a6.23,6.23,0,0,0,2.06-.32h0a2.26,2.26,0,0,0,.33-.13,1.21,1.21,0,0,0,.2-.09h.05v0a4.28,4.28,0,0,0,.89-.58h0a2.64,2.64,0,0,0,.29-.29l.07-.08.14-.18,0-.07a.94.94,0,0,0,.11-.17v0h0a1.63,1.63,0,0,0,.11-.23A1.62,1.62,0,0,1,10.45,14Zm6.64-3.4h-.71a0,0,0,0,1-.05,0h0V9.92a.08.08,0,0,0-.08-.08h0l-.37,0a.09.09,0,0,0-.08.09v.62a0,0,0,0,1,0,0H15.3a.08.08,0,0,0-.09.08V11a.09.09,0,0,0,0,.06l.06,0h.45a0,0,0,0,1,0,0v1.5a1.05,1.05,0,0,0,1.14,1.1H17a.07.07,0,0,0,.08-.08v-.3a.08.08,0,0,0-.08-.08h0q-.69,0-.69-.72V11.14a0,0,0,0,1,.05,0h.71a.09.09,0,0,0,.09-.09V10.7A.08.08,0,0,0,17.09,10.62Zm3.06,2.88a.09.09,0,0,1,0,.06.09.09,0,0,1-.09.09h-.4a.06.06,0,0,1-.06,0h0l-.31-.31s0,0-.06,0h0a1.07,1.07,0,0,1-.85.42.91.91,0,0,1-1-.9A1,1,0,0,1,18,12l0,0v0h0a1,1,0,0,1-.26-.61.75.75,0,0,1,.8-.75.71.71,0,0,1,.78.72.88.88,0,0,1-.54.74h0l0,0v0l.45.45s0,0,.06,0l.27-.47a.1.1,0,0,1,.08,0h.32a.09.09,0,0,1,.08.09.1.1,0,0,1,0,0l-.44.73s0,.05,0,.06Zm-1.94-2.19a.67.67,0,0,0,.19.36h0s0,0,.05,0h0c.21-.12.37-.23.37-.41a.28.28,0,0,0-.29-.3A.32.32,0,0,0,18.21,11.31ZM19,13h0s0,0,0,0l-.59-.63s0,0-.06,0c-.29.17-.38.3-.38.53a.48.48,0,0,0,.49.46A.69.69,0,0,0,19,13h0Zm2.95-2.33H21.2a0,0,0,0,1-.05,0h0V9.92s0-.08-.08-.08h0l-.36,0a.09.09,0,0,0-.09.09v.62a0,0,0,0,1,0,0h-.45a.08.08,0,0,0-.09.08V11a.09.09,0,0,0,0,.06l.06,0h.45a0,0,0,0,1,0,0v1.5a1.05,1.05,0,0,0,1.14,1.1h.11a.08.08,0,0,0,.09-.08v-.3a.09.09,0,0,0-.09-.08h0a.63.63,0,0,1-.69-.72V11.14a0,0,0,0,1,.05,0h.71A.09.09,0,0,0,22,11V10.7A.08.08,0,0,0,21.91,10.62ZM15,13.52a.35.35,0,0,1,0,.06.09.09,0,0,1-.08.08h-.39s0,0,0-.06,0-.06,0-.11v-.15h0a1.27,1.27,0,0,1-1,.39.9.9,0,0,1-1-.89c0-1,1.26-1.17,1.76-1.15h.1s0,0,0,0,0-.57-.62-.57a1.2,1.2,0,0,0-.64.19l0,0a.09.09,0,0,1-.12,0L12.82,11a.07.07,0,0,1,0-.06.07.07,0,0,1,0-.06,1.93,1.93,0,0,1,1-.27A1,1,0,0,1,15,11.68v1.63A.68.68,0,0,0,15,13.52Zm-.55-1.34a.1.1,0,0,0-.08,0h-.1c-.83,0-1.28.29-1.26.67s.32.49.64.44a.93.93,0,0,0,.8-.89A.45.45,0,0,0,14.44,12.18Zm-3.73.71a2.76,2.76,0,0,1-.44.5,3.66,3.66,0,0,1-.46.33,3.59,3.59,0,0,1-.76.36l-.19.06A6.42,6.42,0,0,1,7,14.43a9.3,9.3,0,0,1-2.53-.38L4.4,14c-.28-.08-.53-.17-.76-.26l-.17-.08-.23-.11A3.43,3.43,0,0,1,2.42,13l-.08-.08A1.37,1.37,0,0,1,2,12.23l0,.32v0s0,.09,0,.14a3,3,0,0,0,.25.76h0l0,.05.08.13.09.15v0a2.34,2.34,0,0,0,.56.57h0l0,0a1.64,1.64,0,0,0,.22.14l.1.07h0a3.44,3.44,0,0,0,.69.28h0l.15,0,.14,0h0a6.5,6.5,0,0,0,2,.14,10.32,10.32,0,0,0,2.42-.54h0l.12,0,.24-.1h0A4.45,4.45,0,0,0,9.85,14h0l.05,0a.58.58,0,0,0,.15-.11l.13-.1.13-.12.07-.07h0a2.65,2.65,0,0,0,.36-.46h0v0a1.5,1.5,0,0,0,.15-.32h0a1.86,1.86,0,0,0,.07-.28,1.5,1.5,0,0,0,0-.22,1.16,1.16,0,0,1-.12.36A1.55,1.55,0,0,1,10.71,12.89Z"/></svg>