<svg
  height="24"
  viewBox="0 0 24 24"
  width="24"
  xmlns="http://www.w3.org/2000/svg"
  class="matericons matericons-bank-bca"
>
  <path d="M20.4 4.2V4a18.7 18.7 0 0 0-8.2-2H12a18.7 18.7 0 0 0-8.3 2v.2A19.1 19.1 0 0 0 2 11.9v.4A18.2 18.2 0 0 0 3.6 20h.2a18.6 18.6 0 0 0 16.4 0h.2a18.2 18.2 0 0 0 1.7-7.7v-.4a19.1 19.1 0 0 0-1.7-7.7zm-.6 15.4a20 20 0 0 1-7.8 1.7 20 20 0 0 1-7.8-1.7 18.2 18.2 0 0 1-1.7-7.7 19 19 0 0 1 1.7-7.3 16.5 16.5 0 0 1 7.7-1.9h.2a16.5 16.5 0 0 1 7.7 1.9 19 19 0 0 1 1.7 7.3 18.2 18.2 0 0 1-1.7 7.7zm-7-7.7c-.6 1.8-.4 3.8-.6 5.7a38 38 0 0 0-.6-5.8C11 10.1 9 9.1 9 7.3a3 3 0 0 1 3.1-3.2 3.3 3.3 0 0 1 3.4 3c.1 1.8-2.1 3.1-2.7 4.8zm6.3 1c.1.8.2 2.1-.4 2.6s-2.3.1-3.7.5-1.3.8-2 1.1a14.7 14.7 0 0 1 .3-4.7A5.2 5.2 0 0 1 16.5 9a2.2 2.2 0 0 1 2.5 2.4 3.5 3.5 0 0 1-3 2.5c-.8 0-1.1.7-1.6 1a7.9 7.9 0 0 0 4.7-2zM5.7 15.5c-.7-.5-.6-1.8-.4-2.6a7.9 7.9 0 0 0 4.7 2c-.5-.3-.8-1-1.6-1a3.6 3.6 0 0 1-3.1-2.5A2.3 2.3 0 0 1 7.8 9a4.8 4.8 0 0 1 3.2 3.4 12.3 12.3 0 0 1 .4 4.7c-.7-.3-1.2-.8-2-1.1s-2.5.3-3.7-.5zm3.7 3.3h-1l-.3 1.5h.3l.2-.6h.3v.2H9v.4h.4V20l-.2-.3h.2c.1-.1.2-.2.2-.3V19zm-.1.4h-.7v-.4H9c.1 0 .1 0 .1.1zM7 19c-.1.1 0 .3 0 .4l.3.2h.4v-.2h-.3V19l.7.2-.2.6h-.7l-.4-.2a.6.6 0 0 1-.1-.4.3.3 0 0 1 0-.4.5.5 0 0 1 .2-.4l.3-.2h.4c.2.1.3.1.4.3a.4.4 0 0 1 .1.3h-.3v-.2h-.2c-.2-.1-.3 0-.4 0a.5.5 0 0 0-.2.4zm7.2.6a.1.1 0 0 0 .1-.1v-.2c0-.1 0-.2-.1-.2a.1.1 0 0 0-.1-.1h-.4v.3h.3v.2h-.3a.1.1 0 0 1-.1.1h-.2v-.4h.3v-.3H13l.2 1.5h1.1V20a.4.4 0 0 0-.1-.3zm0 .5h-.6v-.4h.7zm1.5-.5h.3a.8.8 0 0 1-.2.4l-.3.2h-.6l-.3-.6a1.3 1.3 0 0 1 .1-.6.5.5 0 0 1 .5-.3h.5c.1 0 .1.1.2.2l-.3.2a.2.2 0 0 0-.2-.2h-.2c-.1 0-.2 0-.2.1a.6.6 0 0 0-.1.4c.1.2.1.4.2.4h.5v-.3zm-5-.7h.3v1.3h-1c-.1-.1-.2-.1-.2-.2h-.1v-1.2h.3V20h.5c.1-.1.1-.1.1-.2a.3.3 0 0 1 .1-.2zm6-.5h-.3l-.2 1.6h.3v-.3h.6l.3.3h.3l-.9-1.2zm.1.9h-.2v-.6l.2.2.2.3zm-4.7-.3h-.8v1.5h.3v-.6h.7v-.7zm0 .5h-.5V19h.5z"></path>
</svg>
