<svg
  height="24"
  viewBox="0 0 24 24"
  width="24"
  xmlns="http://www.w3.org/2000/svg"
  class="matericons matericons-bank-bca-alt"
  aria-hidden="true"
>
  <path d="M14.6 15.8l.8-1.7v1.7zm4.8.1v-1.5h-1.9l-.5 1.4h-1.6v-1.7l1.8-3.9h-.4l1-1.9h3.5l.7 7.6zm0-3v-2.6l-.6 1.3-.7 1.3h1.3zm-8.2-.7c.2-1.2 2.5-2.2 4.1-1.1v-.3l.8-1.9-.8-.4-.7-.5-.2.5c-1 0-3.5-.9-5.1 3.1L9 12.7v.8c.2 1.5 1.4 2.8 4.6 2.4l.9-2.2c-2.5.7-3.4-.3-3.3-1.5zm-3.4-.5c1.7 1.7 0 3.7-1.7 4.1v-1.9c.5-.3.8-1.4 0-1.5H5L4.5 14h1.6v1.9H2l1.3-5.6h-.5l1.1-2.1h3.5A1.4 1.4 0 0 1 9 9.5v.6a2.1 2.1 0 0 1-1.2 1.6zm-1.1-2H5.6l-.4 1.5h1.2c.8 0 .8-1.5.3-1.5z"></path>
</svg>
