<svg
  height="24"
  viewBox="0 0 24 24"
  width="24"
  xmlns="http://www.w3.org/2000/svg"
  class="matericons matericons-bank-mandiri"
  aria-hidden="true"
>
  <path d="M5.6 12.6c.1.1.1.3.1.7v1.5h-.6v-1.4A1 1 0 0 0 5 13l-.3-.2-.4.2c0 .1-.1.2-.1.3v1.5h-.7v-1.4c0-.2 0-.4-.1-.4s-.1-.2-.3-.2l-.3.2a.4.4 0 0 0-.1.3v1.5H2v-2.4h.7v.4l.3-.4h.5l.4.2.3.3.3-.3.5-.2zm2.6.7v1.5h-.6v-.3a.7.7 0 0 1-.6.3h-.2l-.5-.2a.7.7 0 0 1-.2-.6c0-.2 0-.3.1-.4l.3-.3h1c0-.6-.8-.5-1.1-.2l-.2-.5.9-.2a1 1 0 0 1 1.1.9zm-.6.3h-.8a.4.4 0 0 0-.1.3c0 .6.7.4.9 0zm2.5-1.3h-.5l-.3.4v-.4h-.7v2.4h.7v-1.4c0-.1.1-.2.1-.3l.4-.2.3.2a1 1 0 0 1 .1.4v1.4h.6v-1.5c0-.4 0-.6-.2-.7a.5.5 0 0 0-.5-.3zm6.7 2.5h.7v-2.4h-.7zm-3.2-.2v.2h-.7v-.3l-.3.2h-.4a.9.9 0 0 1-.7-.3 1.2 1.2 0 0 1-.3-.9 1.2 1.2 0 0 1 .3-.9.9.9 0 0 1 .7-.3h.4l.3.2v-1.1h.7v3.2zm-.7-1a1.3 1.3 0 0 0-.1-.6l-.4-.2-.3.2a1.4 1.4 0 0 0-.2.6 1.1 1.1 0 0 0 .2.6c0 .1.2.2.3.2l.4-.2a1.3 1.3 0 0 0 .1-.6zm8.2-4.1c-.8 0-1.4.9-2 .8s-.8-1.2-1.5-1.2-1.9 1.2-2.9 1.3-.9-1.3-1.7-1.1-2.1 1-3.3 1.6c.3.2.7.9 1.1.8s1.8-1.3 3.1-1.2.8 1 1.4 1.1 1.7-1.2 3.1-1.2.9 1.1 1.5 1.1 1.3-.7 2.1-1.1-.5-.8-.9-.9zm-5 3q-.3.1-.3.3v-.4h-.6v2.4h.7v-1.3a.5.5 0 0 1 .2-.4h.6v-.6h-.5zm-2 2.3h.7v-2.4h-.7z"></path>
</svg>
