<svg
  height="24"
  viewBox="0 0 24 24"
  width="24"
  xmlns="http://www.w3.org/2000/svg"
  class="matericons matericons-bank-bni"
>
  <path d="M9.9 19.6l1.7 2.4H4.2l4.6-3.7zm2.2-5.8a17.9 17.9 0 0 1-3.8-7.2c-.7-2.8-.4-4-.1-4.6H2v3.5l8 10zM2 9.7V22h.1L8 17.2zM11.1 2c-1.1 1.9.3 5.9 2.3 8.3 0 0 .3-4.3 3.9-5.7a5.6 5.6 0 0 1 4.7 0V2zm5.2 15.6a11.4 11.4 0 0 1-3.3-2.8l-2.2 1.8 2.4 2.9a4.2 4.2 0 0 0 3.4 1.4L15.3 22H22v-4.7a5.9 5.9 0 0 1-5.7.3zM19 6.3c-2.1-.4-5.1 1.1-3.8 5.3S19.5 17 22 16V8.2a5 5 0 0 0-3-1.9z"></path>
</svg>
