<svg
  data-name="Layer 9"
  xmlns="http://www.w3.org/2000/svg"
  viewBox="0 0 24 24"
  height="24"
  width="24"
  aria-hidden="true"
>
  <path d="M8.45 6.46v-.51l-.15-.13-.07-.13-.05-.06v-.06l-.06-.06L8 5.45V5.4l-.1-.05h-.63L7.16 5H3.7L3 8.41h4.28l.12-.31.1-.1h.11l.09-.07.09-.06.08-.07.13-.08v-.07l.06-.08.06-.08v-.08l.05-.08v-.7zm7.09 0v-.77l-.05-.06v-.06l-.06-.06-.05-.06h-.07l-.31-.1h-.85L14 5h-3.21L10 8.41h4.33l.12-.06.15-.35h.1l.1-.07.08-.06.12-.08v-.07l.07-.07.06-.08.06-.08v-.08l.05-.08v-.87zm-8 5.21v-.83l-.05-.06v-.11L7 10.62v-.06l-.08-.05h-.78L6 10.2H2.75L2 13.63h4.21l.12-.05h.11l.12-.05.09-.06.1-.07.09-.06.08-.34.08-.07.08-.08.06-.07.06-.08v-1.05zm7.09 0v-.83l-.05-.06v-.06l-.05-.05-.06-.05-.47-.06v-.05H9.84l-.75 3.47h4.21l.12-.05h.12l.11-.05.09-.07.1-.06.09-.06L14 13l.06-.07.08-.08.06-.07.06-.08.05-.08.05-.08v-.89zM22 9.56v-.77l-.05-.07v-.05l-.06-.06h-.06l-.06-.06-.07-.05h-.06l-.08-.05h-.08l-.09-.05h-4.13l-.75 3.46h4.2l.12-.05.17-.61.1-.06.1-.06.1-.06.09-.06.08-.07.08-.07.07-.08.06-.07.06-.08.05-.08.05-.08v-.34L22 10v-.44zM21 15v-.51l-.06-.13-.07-.13v-.12l-.25-.11h-.06l-.06-.06-.07-.05h-4.2l-.75 3.46h4.08l.13-.05h.12l.12-.06.11-.06h.11l.09-.07.09-.06.08-.07.08-.07.06-.07.06-.08.06-.08.06-.08V15zm-7.42 2.11v-.51l-.06-.13-.07-.13v-.06l-.05-.06v-.05l-.06-.06-.25-.11h-.16l-.08-.06H8.82l-.75 3.46h4.34l.11-.05.1-.06.11-.05.09-.07.09-.06.08-.07.08-.07.07-.07.06-.07.06-.09.05-.07v-.96z"></path>
</svg>
