<svg
  height="24"
  viewBox="0 0 24 24"
  width="24"
  xmlns="http://www.w3.org/2000/svg"
  class="matericons matericons-buffer"
  aria-hidden="true"
>
  <path d="M12.6 2.1l8.8 4.1c.2.1.4.1.4.4s-.2.2-.4.3L12.7 11a1.7 1.7 0 0 1-1.4 0L2.6 6.9c-.2-.1-.4-.1-.4-.4l.3-.3 8.9-4.1a2.4 2.4 0 0 1 1.2 0M12 22l-.7-.2-8.7-4.1c-.2 0-.4-.1-.4-.3s.2-.3.4-.4l1.4-.6a1.4 1.4 0 0 1 1.5 0l5.8 2.7a1.7 1.7 0 0 0 1.4 0l5.8-2.7a1.4 1.4 0 0 1 1.4-.1l1.6.8h.2a.3.3 0 0 1 0 .4h-.3l-8.7 4.1-.7.4m0-5.4l-.7-.2-8.7-4.1c-.2-.1-.4-.1-.4-.3s.2-.3.4-.4l1.5-.7a1.4 1.4 0 0 1 1.4.1l5.8 2.7a1.7 1.7 0 0 0 1.4 0l5.9-2.8a1.5 1.5 0 0 1 1.3 0l1.6.7.2.2a.3.3 0 0 1 0 .4h-.2l-8.8 4.1z"></path>
</svg>
