<svg
  height="24"
  viewBox="0 0 24 24"
  width="24"
  xmlns="http://www.w3.org/2000/svg"
  class="matericons matericons-buy-me-a-coffee"
  aria-hidden="true"
>
  <path d="M18.8 7.3v-.5a1.5 1.5 0 0 0-.8-1.2.6.6 0 0 1-.5-.2c-.1-.1-.1-.3-.2-.4s-.1-.7-.1-1-.1-.6-.2-.8a2.2 2.2 0 0 0-.9-.7h-.5L13 2H9.9a8.5 8.5 0 0 0-2.3.4l-.8.4a.9.9 0 0 0-.1 1 1 1 0 0 0 .6.5l.9.3a24.8 24.8 0 0 0 2.7.3h3.8c.3-.1.5-.5.4-.7a.6.6 0 0 0-.7-.4h-1.1a15 15 0 0 1-3 0H8.5v-.4h3.9l1.7.2h.9c.3.1.7.1.9.5a.4.4 0 0 0 .1.3l.2 1.3c0 .1 0 .2-.1.2H16L12 6a25.6 25.6 0 0 1-3.9-.3H6l-.6.6c-.1.3-.1.6-.2.9s-.1.6-.1.8a1.4 1.4 0 0 0 1.1 1.2 30.3 30.3 0 0 0 9.5.3.4.4 0 0 1 .4.4v.5l-.9 8.3a3.4 3.4 0 0 1-.1 1 1.1 1.1 0 0 1-1 1l-1.4.2H11a2.1 2.1 0 0 1-1.7-.4 2.1 2.1 0 0 1-.5-1.5l-.6-5.9-.3-2.6a.6.6 0 0 0-1.1.1l.2 1.8.8 7.6a2.1 2.1 0 0 0 2 1.9h4.3a2.5 2.5 0 0 0 2.2-2.2c.3-2.8.5-5.6.8-8.4l.2-1.7c0-.2.2-.3.3-.4a1 1 0 0 0 .9-.4 1.4 1.4 0 0 0 .3-1.5zm-1.2.7l-.5.2a40.8 40.8 0 0 1-6.1.4l-4.3-.4-.4-.2c-.2-.2-.1-.6 0-.8a.6.6 0 0 1 .4-.6l1.2.2 1.5.2a25.8 25.8 0 0 0 6.2-.1l1.1-.2c.4-.1.7-.2.9.2a1.1 1.1 0 0 1 .2.8l-.2.3zm-5.1 3.2a6.6 6.6 0 0 1-2.6.7l-1.3-.2.7 7.5a1.3 1.3 0 0 0 1.3 1.2h2.8a1.3 1.3 0 0 0 1.3-1.2l.8-8.3-1.1-.2a5.9 5.9 0 0 0-1.9.5z"></path>
</svg>
