<svg
  height="24"
  viewBox="0 0 24 24"
  width="24"
  xmlns="http://www.w3.org/2000/svg"
  class="matericons matericons-circle-wavy-check"
>
  <path d="M21.6 9.5l-.9-1.1a5.7 5.7 0 0 1-.1-1.4 4.2 4.2 0 0 0-.8-2.8 4.2 4.2 0 0 0-2.8-.8h-1.4a3.9 3.9 0 0 1-1.1-.9A3.8 3.8 0 0 0 12 1a3.8 3.8 0 0 0-2.5 1.4l-1.1.9H7a4.2 4.2 0 0 0-2.8.8A4.2 4.2 0 0 0 3.4 7a5.7 5.7 0 0 1-.1 1.4 3.9 3.9 0 0 1-.9 1.1A3.8 3.8 0 0 0 1 12a3.8 3.8 0 0 0 1.4 2.5l.9 1.1a5.7 5.7 0 0 1 .1 1.4 4.2 4.2 0 0 0 .8 2.8 4.2 4.2 0 0 0 2.8.8h1.4a3.9 3.9 0 0 1 1.1.9A3.8 3.8 0 0 0 12 23a3.8 3.8 0 0 0 2.5-1.4l1.1-.9H17a4.2 4.2 0 0 0 2.8-.8 4.2 4.2 0 0 0 .8-2.8 5.7 5.7 0 0 1 .1-1.4 3.9 3.9 0 0 1 .9-1.1A3.8 3.8 0 0 0 23 12a3.8 3.8 0 0 0-1.4-2.5zm-1.1 3.9a4.5 4.5 0 0 0-1.2 1.6 4.4 4.4 0 0 0-.3 2c0 .6 0 1.4-.3 1.7s-1.1.3-1.8.3a4.2 4.2 0 0 0-1.9.3 4.5 4.5 0 0 0-1.6 1.2c-.5.4-1 .9-1.4.9s-.9-.5-1.4-.9A4.5 4.5 0 0 0 9 19.3a4.2 4.2 0 0 0-1.9-.3c-.7 0-1.5 0-1.8-.3S5 17.6 5 17a4.4 4.4 0 0 0-.3-2 4.5 4.5 0 0 0-1.2-1.6c-.4-.5-.9-1-.9-1.4s.5-.9.9-1.4A4.5 4.5 0 0 0 4.7 9 4.2 4.2 0 0 0 5 7.1c0-.7 0-1.5.3-1.8S6.4 5 7 5a4.4 4.4 0 0 0 2-.3 4.5 4.5 0 0 0 1.6-1.2c.5-.4 1-.9 1.4-.9s.9.5 1.4.9A4.5 4.5 0 0 0 15 4.7a4.4 4.4 0 0 0 2 .3c.6 0 1.4 0 1.7.3S19 6.4 19 7a4.4 4.4 0 0 0 .3 2 4.5 4.5 0 0 0 1.2 1.6c.4.5.9 1 .9 1.4s-.5.9-.9 1.4zm-3.6-4.3a.8.8 0 0 1 0 1.1l-5.8 5.5c-.1.2-.3.2-.5.2a.7.7 0 0 1-.6-.2L7.1 13a.8.8 0 0 1 0-1.1c.2-.4.7-.4 1.1-.1l2.4 2.3 5.2-5a.8.8 0 0 1 1.1 0z"></path>
</svg>
