<svg
  height="24"
  viewBox="0 0 24 24"
  width="24"
  xmlns="http://www.w3.org/2000/svg"
  class="matericons matericons-copy-1"
  aria-hidden="true"
>
  <path d="M18.9 3H8.5a2.1 2.1 0 0 0-2.1 2.1v1.3H5.1A2.1 2.1 0 0 0 3 8.5v10.4A2.1 2.1 0 0 0 5.1 21h10.4a2.1 2.1 0 0 0 2.1-2.1v-1.3h1.3a2.1 2.1 0 0 0 2.1-2.1V5.1A2.1 2.1 0 0 0 18.9 3zm-3 15.9a.4.4 0 0 1-.4.4H5.1a.4.4 0 0 1-.4-.4V8.5a.4.4 0 0 1 .4-.4h10.4a.4.4 0 0 1 .4.4zm3.4-3.4a.4.4 0 0 1-.4.4h-1.3V8.5a2.2 2.2 0 0 0-2.1-2.1H8.1V5.1a.4.4 0 0 1 .4-.4h10.4a.4.4 0 0 1 .4.4z"></path>
</svg>
