<svg
  height="24"
  viewBox="0 0 24 24"
  width="24"
  xmlns="http://www.w3.org/2000/svg"
  class="matericons matericons-dark-mode"
  aria-hidden="true"
>
  <path d="M22.7 11.3l-2.3-2.4V4.6a1.1 1.1 0 0 0-1-1h-4.3l-2.4-2.3a1 1 0 0 0-1.4 0L8.9 3.6H4.6a1.1 1.1 0 0 0-1 1v4.3l-2.3 2.4a1 1 0 0 0 0 1.4l2.3 2.4v4.3a1.1 1.1 0 0 0 1 1h4.3l2.4 2.3a1 1 0 0 0 1.4 0l2.4-2.3h4.3a1.1 1.1 0 0 0 1-1v-4.3l2.3-2.4a1 1 0 0 0 0-1.4zm-4 2.6a1.1 1.1 0 0 0-.3.7v3.8h-3.8a1.1 1.1 0 0 0-.7.3L12 20.6l-1.9-1.9a1.1 1.1 0 0 0-.7-.3H5.6v-3.8a1.1 1.1 0 0 0-.3-.7L3.4 12l1.9-1.9a1.1 1.1 0 0 0 .3-.7V5.6h3.8a1.1 1.1 0 0 0 .7-.3L12 3.4l1.9 1.9a1.1 1.1 0 0 0 .7.3h3.8v3.8a1.1 1.1 0 0 0 .3.7l1.9 1.9zm-5.2-6.4a.9.9 0 0 0-1 1c0 2.9-1.4 3.5-4 3.5a.9.9 0 0 0-1 1 3.9 3.9 0 0 0 2.3 3.3 4.4 4.4 0 0 0 2.2.5 5 5 0 0 0 3.1-1 4.7 4.7 0 0 0 1.5-5.4c-.5-1.7-1.8-2.9-3.1-2.9zm.4 6.7a2.9 2.9 0 0 1-3.2.3 1.6 1.6 0 0 1-.8-.6 4.4 4.4 0 0 0 4.4-3.7 2 2 0 0 1 .4.8 2.7 2.7 0 0 1-.8 3.2z"></path>
</svg>
