<svg
  xmlns="http://www.w3.org/2000/svg"
  xmlns:xlink="http://www.w3.org/1999/xlink"
  viewBox="0 0 24 24"
  height="24"
  width="24"
>
  <defs>
    <clipPath id="a">
      <rect width="48" height="48"></rect>
    </clipPath>
    <symbol
      id="b"
      data-name="material_system_icon_keylines"
      viewBox="0 0 48 48"
    >
      <g clip-path="url(#a)" opacity=".4">
        <line x1="24" x2="24" y2="48"></line>
        <line x1="48" y1="24" y2="24"></line>
        <line x1="48" y1="16" y2="16"></line>
        <line x1="48" y1="32" y2="32"></line>
        <line x1="32" y1="48" x2="32"></line>
        <line x1="16" y1="48" x2="16"></line>
        <line x1="47.75" y1=".25" x2=".25" y2="47.75"></line>
        <line x1=".25" y1=".25" x2="47.75" y2="47.75"></line>
        <path d="M24 14a10 10 0 1 0 10 10 10 10 0 0 0-10-10z"></path>
        <path d="M24 4a20 20 0 1 0 20 20A20 20 0 0 0 24 4z"></path>
        <path d="M38 6H10a4 4 0 0 0-4 4v28a4 4 0 0 0 4 4h28a4 4 0 0 0 4-4V10a4 4 0 0 0-4-4z"></path>
        <path d="M40 8H8a4 4 0 0 0-4 4v24a4 4 0 0 0 4 4h32a4 4 0 0 0 4-4V12a4 4 0 0 0-4-4z"></path>
        <path d="M40 40V8a4 4 0 0 0-4-4H12a4 4 0 0 0-4 4v32a4 4 0 0 0 4 4h24a4 4 0 0 0 4-4z"></path>
        <path d="M47.75.25v47.5H.25V.25h47.5M48 0H0v48h48V0z"></path>
      </g>
    </symbol>
  </defs>
  <use width="48" height="48" transform="scale(.5)" xlink:href="#b"></use>
  <path
    d="M11.69 2h.62A10 10 0 0 1 22 11.7v.6a10 10 0 0 1-9.7 9.7h-.61A10 10 0 0 1 2 12.3v-.6a9.84 9.84 0 0 1 2.93-6.76A10 10 0 0 1 11.69 2zm-2 1.43a8.9 8.9 0 0 0-5.14 3.7 8.62 8.62 0 0 0-1.44 5.17 8.78 8.78 0 0 0 5.44 7.82 8.58 8.58 0 0 0 3.73.67 8.83 8.83 0 0 0 3.59-.79 8.71 8.71 0 0 0 4.3-4.54 8.5 8.5 0 0 0 .68-3.72A8.6 8.6 0 0 0 18.1 5.6a8.65 8.65 0 0 0-2.67-1.75 8.82 8.82 0 0 0-3.75-.67 9.07 9.07 0 0 0-1.95.28zm1.35 6c.32.21.64.41.94.64-.68.42-1.34.86-2 1.29.1.08.22.14.32.22l2-1.29c.3.19.6.38.88.59-.68.43-1.33.88-2 1.31a3.7 3.7 0 0 0 .33.21c.69-.42 1.37-.87 2-1.3V9.66h1.5v2.83h1.33v1.33h-2.72v-1.34c-.83.51-1.68 1.08-2.52 1.61-.87-.57-1.71-1.16-2.58-1.73a2 2 0 0 1-1.84 1.47h-2V9.66a13.18 13.18 0 0 1 2.57.1 2 2 0 0 1 1.27 1.31l2.59-1.66zM6.08 11v1.5a1.34 1.34 0 0 0 .84-.14A.87.87 0 0 0 7 11.2a1.08 1.08 0 0 0-.91-.2h-.01zm10.76-1.34h1.5v2.84h1.32v1.33h-2.83V9.69z"
    data-name="Layer 9"
  ></path>
</svg>
