<svg
  height="24"
  viewBox="0 0 24 24"
  width="24"
  xmlns="http://www.w3.org/2000/svg"
  class="matericons matericons-discord"
  aria-hidden="true"
>
  <path d="M20.7 22l-4.6-4.3.6 1.7H5.5a2.2 2.2 0 0 1-2.2-2.2v-13A2.2 2.2 0 0 1 5.5 2h13a2.2 2.2 0 0 1 2.2 2.2V22M12 7a8.6 8.6 0 0 0-4 1 7 7 0 0 1 2.5-1.2l-.2-.2a6.5 6.5 0 0 0-2.8 1.1 15.6 15.6 0 0 0-1.4 5.8A4 4 0 0 0 9.2 15l.6-.8A3.8 3.8 0 0 1 8 13a8.1 8.1 0 0 0 4 1.1 8.1 8.1 0 0 0 4-1.1 3.8 3.8 0 0 1-1.8 1.2l.6.8a4 4 0 0 0 3.1-1.5 15.6 15.6 0 0 0-1.4-5.8 6.5 6.5 0 0 0-2.8-1.1l-.2.2A7 7 0 0 1 16 8a8.6 8.6 0 0 0-4-1m-1.8 3.3a1 1 0 0 1 1 1.1 1 1 0 1 1-2 0 1 1 0 0 1 1-1.1m3.6 0a1 1 0 0 1 1 1.1 1 1 0 0 1-1 1.1 1.1 1.1 0 0 1 0-2.2z"></path>
</svg>
