<svg
  height="24"
  viewBox="0 0 24 24"
  width="24"
  xmlns="http://www.w3.org/2000/svg"
  class="matericons matericons-document-folder"
  aria-hidden="true"
>
  <path d="M9.4 3.5L5.8 3a1 1 0 0 0-.7.2 1.1 1.1 0 0 0-.3.6L3 19.5a.8.8 0 0 0 .8 1l3.8.5h.1l.6-.2a.7.7 0 0 0 .3-.6l1.6-15.8a.9.9 0 0 0-.8-.9zM6.9 19.1l-2-.2 1.6-14 1.8.2zm7.3-11.2v1.4a.9.9 0 0 1-.9.9 1 1 0 0 1-.9-.9V7.9a1 1 0 0 1 .9-.8.9.9 0 0 1 .9.8zM20.1 3h-9a.9.9 0 0 0-.9.9v16.2a.9.9 0 0 0 .9.9h9a.9.9 0 0 0 .9-.9V3.9a.9.9 0 0 0-.9-.9zM12 4.8h2.7v14.4H12zm7.2 14.4h-2.7V4.8h2.7zm-2.3-9.9V7.9a1 1 0 0 1 .9-.8.9.9 0 0 1 .9.8v1.4a.9.9 0 0 1-.9.9 1 1 0 0 1-.9-.9z"></path>
</svg>
