<svg
  height="24"
  viewBox="0 0 24 24"
  width="24"
  xmlns="http://www.w3.org/2000/svg"
  class="matericons matericons-github"
  aria-hidden="true"
>
  <path d="M12 2.2a10 10 0 0 0-3.2 19.5c.5.1.7-.2.7-.5v-1.6c-2.8.6-3.4-1.4-3.4-1.4A2.9 2.9 0 0 0 5 16.7c-.9-.6.1-.6.1-.6a2.1 2.1 0 0 1 1.5 1.1 2.2 2.2 0 0 0 2.9.8 2 2 0 0 1 .7-1.3c-2.3-.3-4.6-1.1-4.6-5A3.7 3.7 0 0 1 6.7 9a3.2 3.2 0 0 1 .1-2.6s.8-.3 2.7 1a10.6 10.6 0 0 1 5 0c1.9-1.3 2.7-1 2.7-1a3.4 3.4 0 0 1 .2 2.6 4.1 4.1 0 0 1 1 2.7c0 3.9-2.4 4.7-4.6 5a2.2 2.2 0 0 1 .7 1.8v2.7c0 .3.2.6.7.5A10 10 0 0 0 12 2.2z"></path>
</svg>
