<svg
  height="24"
  viewBox="0 0 24 24"
  width="24"
  xmlns="http://www.w3.org/2000/svg"
  class="matericons matericons-gitlab"
>
  <path d="M21.9 13.1l-1-3.2-2.1-6.6a.9.9 0 0 0-.8-.5.8.8 0 0 0-.8.5l-2 6.2H8.8l-2-6.2a.8.8 0 0 0-.8-.5 1 1 0 0 0-.8.5L3.1 9.8l-1 3.3a1.2 1.2 0 0 0 .4 1.4l9.2 6.7a.6.6 0 0 0 .6 0l9.2-6.7a1.2 1.2 0 0 0 .4-1.4M8.2 10.5l2.5 7.9-6.1-7.9m8.7 7.9l2.5-7.6v-.3h3.6l-5.6 7.1M18 3.9l1.8 5.6h-3.6m-1.3 1L13.1 16 12 19.2l-2.9-8.7M6 3.9l1.8 5.6H4.2m-1.1 4.2c-.1-.1-.2-.2-.1-.3l.8-2.4 5.8 7.4M21 13.7l-6.6 4.7h.1l5.8-7.4.7 2.4c.1.1 0 .2 0 .3"></path>
</svg>
