<svg
  height="24"
  viewBox="0 0 24 24"
  width="24"
  xmlns="http://www.w3.org/2000/svg"
  class="matericons matericons-gojek"
  aria-hidden="true"
>
  <path d="M22 12.2a9.9 9.9 0 0 1-6 9.2 1.8 1.8 0 0 1-2.6-1 1.8 1.8 0 0 1 1.1-2.3 6.3 6.3 0 1 0-7.6-9.5 6.2 6.2 0 0 0-.3 6.9 7 7 0 0 0 2.8 2.6 1.8 1.8 0 0 1 1.1 2.5 1.9 1.9 0 0 1-2.7.8 9.7 9.7 0 0 1-5.6-7.3A9.9 9.9 0 0 1 9.3 2.7a9.8 9.8 0 0 1 12.3 7.2 22.3 22.3 0 0 1 .4 2.3zm-6.3.1A3.8 3.8 0 0 0 12 8.6c-1.8-.1-3.9 1.9-3.7 3.6a3.7 3.7 0 0 0 3.7 3.9 3.8 3.8 0 0 0 3.7-3.8z"></path>
</svg>
