<svg
  height="24"
  viewBox="0 0 24 24"
  width="24"
  xmlns="http://www.w3.org/2000/svg"
  class="matericons matericons-google-maps"
>
  <path d="M18.3 6a7.4 7.4 0 0 1-.4 6.8 37.2 37.2 0 0 1-3.4 4.7 17.6 17.6 0 0 0-1.4 2.3l-.3.8-.3.8c-.1.3-.2.6-.5.6-.4 0-.5-.4-.6-.7a10.2 10.2 0 0 0-.8-2.1 18.2 18.2 0 0 0-1.5-2.3L18.3 6M9.1 8.4l-3.3 3.9a16.7 16.7 0 0 0 2.4 3.5l.6.8 4.2-4.9A3 3 0 0 1 9.3 10c-.1-.2-.1-.4-.2-.6v-1M6.6 4.6a7.7 7.7 0 0 0-1 7.3l4-4.7-3-2.6m7.6-2.2L11 6.2a3 3 0 0 1 3.6 1.3l.3.9a3.4 3.4 0 0 1 0 1l3.2-3.8a6.9 6.9 0 0 0-3.9-3.2M9.9 6.9l3.9-4.7L12 2a6.6 6.6 0 0 0-5.1 2.3h-.1z"></path>
</svg>
