<svg
  height="24"
  viewBox="0 0 24 24"
  width="24"
  xmlns="http://www.w3.org/2000/svg"
  class="matericons matericons-google-my-business"
>
  <path d="M22 8.5a2.5 2.5 0 0 1-5 0 2.5 2.5 0 0 1-5 0 2.5 2.5 0 0 1-5 0A2.5 2.5 0 0 1 4.5 11 2.5 2.5 0 0 1 2 8.5l1.4-5.4S3.7 2 4.7 2h14.6c1 0 1.3 1.1 1.3 1.1L22 8.5m-1 3.7V20a2 2 0 0 1-2 2H5a2 2 0 0 1-2-2v-7.8a4 4 0 0 0 1.5.3 3.8 3.8 0 0 0 2.5-.9 3.9 3.9 0 0 0 5 0 3.9 3.9 0 0 0 5 0 3.8 3.8 0 0 0 2.5.9 4 4 0 0 0 1.5-.3m-2 5.1v-.8h-3v1.2h1.9l-.3.6a1.7 1.7 0 0 1-1.3.5 2.4 2.4 0 0 1-1.4-.5 1.8 1.8 0 0 1 .1-2.6 1.8 1.8 0 0 1 2.5 0h.1l.9-.9h-.2a3 3 0 0 0-2.1-.8 2.9 2.9 0 0 0-2.1.9 2.7 2.7 0 0 0-.9 2.1 2.9 2.9 0 0 0 .9 2.1 2.9 2.9 0 0 0 2.2.9 2.8 2.8 0 0 0 2-.8 2.7 2.7 0 0 0 .7-1.9z"></path>
</svg>
