<svg
  height="24"
  viewBox="0 0 24 24"
  width="24"
  xmlns="http://www.w3.org/2000/svg"
  class="matericons matericons-google-podcast"
  aria-hidden="true"
>
  <path d="M17.7 7.2v1.4a1.3 1.3 0 0 1-1.3 1.3 1.2 1.2 0 0 1-1.2-1.3V7.2A1.2 1.2 0 0 1 16.4 6a1.2 1.2 0 0 1 1.3 1.2m-4.5 1.2v7.2a1.2 1.2 0 1 1-2.4 0V8.4a1.2 1.2 0 1 1 2.4 0m8.8 2.9v1.4a1.2 1.2 0 0 1-1.2 1.2 1.2 1.2 0 0 1-1.3-1.2v-1.4a1.2 1.2 0 0 1 1.3-1.2 1.2 1.2 0 0 1 1.2 1.2m-17.5 0v1.4a1.2 1.2 0 0 1-1.3 1.2A1.2 1.2 0 0 1 2 12.7v-1.4a1.2 1.2 0 0 1 1.2-1.2 1.2 1.2 0 0 1 1.3 1.2m4.3 4.1v1.4A1.2 1.2 0 0 1 7.6 18a1.2 1.2 0 0 1-1.3-1.2v-1.4a1.3 1.3 0 0 1 1.3-1.3 1.2 1.2 0 0 1 1.2 1.3m4.4 4v1.4a1.2 1.2 0 0 1-2.4 0v-1.4a1.2 1.2 0 1 1 2.4 0m0-16.2v1.4a1.2 1.2 0 1 1-2.4 0V3.2A1.2 1.2 0 0 1 12 2a1.2 1.2 0 0 1 1.2 1.2m4.5 9.1v4.5a1.2 1.2 0 0 1-1.3 1.2 1.2 1.2 0 0 1-1.2-1.2v-4.5a1.2 1.2 0 0 1 1.2-1.2 1.2 1.2 0 0 1 1.3 1.2M8.8 7.2v4.4a1.2 1.2 0 0 1-1.2 1.3 1.3 1.3 0 0 1-1.3-1.3V7.2A1.2 1.2 0 0 1 7.6 6a1.2 1.2 0 0 1 1.2 1.2z"></path>
</svg>
