<svg
  height="24"
  viewBox="0 0 24 24"
  width="24"
  xmlns="http://www.w3.org/2000/svg"
  class="matericons matericons-gopay"
>
  <path d="M16 12.6c0 .2-.1.3-.2.5v.3a.5.5 0 0 1-.5.4.4.4 0 0 1-.4-.4v-.3c-.1-.2-.2-.3-.2-.5a.6.6 0 0 1 .6-.6.7.7 0 0 1 .7.6zm6-.6a9.9 9.9 0 0 1-10 9.7A9.9 9.9 0 0 1 2 12a9.9 9.9 0 0 1 10-9.7A9.9 9.9 0 0 1 22 12zm-4.2-.3a2.2 2.2 0 0 0-2.4-2.1H9.1a.4.4 0 1 1 0-.8h6.4A2 2 0 0 0 14 7a17.5 17.5 0 0 0-5.6 0 2.5 2.5 0 0 0-2 2.2 18.2 18.2 0 0 0 0 5.7A2.7 2.7 0 0 0 8.7 17a26.6 26.6 0 0 0 6.9 0 2.4 2.4 0 0 0 2-2 12.2 12.2 0 0 0 .2-3.3z"></path>
</svg>
