<svg
  height="24"
  viewBox="0 0 24 24"
  width="24"
  xmlns="http://www.w3.org/2000/svg"
  class="matericons matericons-hash"
  aria-hidden="true"
>
  <path d="M21 8.3h-4.6l.8-4.4a.8.8 0 0 0-.6-.9.6.6 0 0 0-.8.6l-.9 4.7h-4.5l.8-4.4a.8.8 0 0 0-.6-.9.6.6 0 0 0-.8.6l-.9 4.7H4.1a.8.8 0 0 0-.8.7.9.9 0 0 0 .8.8h4.5l-.8 4.5H3a.8.8 0 0 0-.8.7.9.9 0 0 0 .8.8h4.6l-.8 4.3a.8.8 0 0 0 .6.9h.1a.7.7 0 0 0 .7-.6l.9-4.7h4.5l-.8 4.4a.8.8 0 0 0 .6.9h.1a.7.7 0 0 0 .7-.6l.9-4.7h4.8a.8.8 0 0 0 .8-.7.9.9 0 0 0-.8-.8h-4.5l.8-4.5H21a.8.8 0 0 0 .8-.7.9.9 0 0 0-.8-.8zm-7.2 6H9.4l.8-4.5h4.4z"></path>
</svg>
