<svg
  data-name="Layer 9"
  xmlns="http://www.w3.org/2000/svg"
  viewBox="0 0 24 24"
  height="24"
  width="24"
  aria-hidden="true"
>
  <path d="M15.07 11.07h-1.66a.5.5 0 0 0-.42.22v-.22h-.74v3.1H13v-2a.45.45 0 0 1 .45-.44h1.41a.44.44 0 0 1 .44.44v2h.7V12a.93.93 0 0 0-.95-.88M2 10.17h.74v4H2zm8.74.89h.75v3.11h-.75zm6 0h.75v3.1h-.75zm-10.45 0H4.65a.49.49 0 0 0-.41.22v-.22H3.5v3.1h.74v-2a.45.45 0 0 1 .45-.44H6.1a.44.44 0 0 1 .44.44v2h.73V12a.93.93 0 0 0-.95-.88m4.42-1.24h.75v.65h-.75zm6 0h.75v.65h-.75zM22 11.07h-.93L20 12.15l-1.07-1.08H18l1.53 1.55L18 14.17h.94L20 13.09l1.06 1.08H22l-1.53-1.55zm-12.91-.52a.2.2 0 0 1 .18-.07h.83v-.65h-.91a1 1 0 0 0-.7.28.8.8 0 0 0-.21.51v.44h-1s.27.1.46.66h.51v2.44H9v-2.44h1.1v-.66H9v-.33a.24.24 0 0 1 .05-.14"></path>
</svg>
