<svg
  height="24"
  viewBox="0 0 24 24"
  width="24"
  xmlns="http://www.w3.org/2000/svg"
  class="matericons matericons-intermediate-mode"
>
  <path d="M22.7 11.3l-2.3-2.4V4.6a1.1 1.1 0 0 0-1-1h-4.3l-2.4-2.3a1 1 0 0 0-1.4 0L8.9 3.6H4.6a1.1 1.1 0 0 0-1 1v4.3l-2.3 2.4a1 1 0 0 0 0 1.4l2.3 2.4v4.3a1.1 1.1 0 0 0 1 1h4.3l2.4 2.3a1 1 0 0 0 1.4 0l2.4-2.3h4.3a1.1 1.1 0 0 0 1-1v-4.3l2.3-2.4a1 1 0 0 0 0-1.4zm-4 2.6a1.1 1.1 0 0 0-.3.7v3.8h-3.8a1.1 1.1 0 0 0-.7.3L12 20.6l-1.9-1.9a1.1 1.1 0 0 0-.7-.3H5.6v-3.8a1.1 1.1 0 0 0-.3-.7L3.4 12l1.9-1.9a1.1 1.1 0 0 0 .3-.7V5.6h3.8a1.1 1.1 0 0 0 .7-.3L12 3.4l1.9 1.9a1.1 1.1 0 0 0 .7.3h3.8v3.8a1.1 1.1 0 0 0 .3.7l1.9 1.9zM16.5 12a5.1 5.1 0 0 1-4.4 5H12a1.1 1.1 0 0 1-1-.9.9.9 0 0 1 .9-1.1 3 3 0 0 0 2.6-3 3.1 3.1 0 0 0-2.6-3 1 1 0 1 1 .2-2 5.1 5.1 0 0 1 4.4 5z"></path>
</svg>
