<svg
  data-name="Layer 9"
  xmlns="http://www.w3.org/2000/svg"
  viewBox="0 0 24 24"
  height="24"
  width="24"
  aria-hidden="true"
>
  <path d="M8.16 11.82l-1.23.51a.87.87 0 0 1 .13-.6.64.64 0 0 1 1.1.09zm10.67-.3a.67.67 0 0 0-.68.72.69.69 0 0 0 .68.71.72.72 0 0 0 0-1.43zM22 8.67v6.66H2V8.67zM6.17 12.88h-1.6V10.2h-.72v3.32h2.32zm1-.1L8.91 12a1.51 1.51 0 0 0-.3-.72 1.29 1.29 0 0 0-1-.41 1.31 1.31 0 0 0-1.36 1.32 1.33 1.33 0 0 0 1.44 1.32 1.72 1.72 0 0 0 1.19-.49l-.44-.32a1.07 1.07 0 0 1-.74.26.73.73 0 0 1-.58-.18zm4.63-.85a1 1 0 0 0-1-1 1 1 0 0 0-.83.42V11h-.7v2.57h.7v-1.5a.55.55 0 0 1 .58-.55.58.58 0 0 1 .59.55v1.45h.7zm3 .31a1.38 1.38 0 1 0-1.38 1.32 1.33 1.33 0 0 0 1.37-1.32zm1.73 1.28l1-2.57h-.79l-.64 1.76-.62-1.71h-.79l1.06 2.57zm3.69-1.28a1.38 1.38 0 1 0-1.38 1.32 1.32 1.32 0 0 0 1.37-1.32zm.3.92h-.3v.06h.11v.3h.07v-.3h.12zm.45 0h-.07l-.12.17-.11-.17h-.08v.38h.08v-.27l.11.17.12-.17v.27h.1zm-7.55-1.64a.67.67 0 0 0-.68.72.69.69 0 0 0 .68.71.72.72 0 0 0 0-1.43z"></path>
</svg>
