<svg
  data-name="Layer 9"
  xmlns="http://www.w3.org/2000/svg"
  viewBox="0 0 24 24"
  height="24"
  width="24"
>
  <path d="M22 13v.36h-.06v-.28l-.1.28h-.06l-.1-.28v.28h-.06V13h.09l.1.28.1-.28H22m-.42 0v.05h-.11v.31h-.06v-.31h-.12V13h.29m-1.51-.54c.09-.3.09-.47 0-.58a.37.37 0 0 0-.31-.12c-.32 0-.5.18-.64.64-.09.3-.09.47 0 .58a.35.35 0 0 0 .3.12c.33.01.51-.17.65-.63zm1.25-.66a.59.59 0 0 1 .08.6c-.21.67-1 1.05-2.15 1.05a1.79 1.79 0 0 1-1.38-.39.65.65 0 0 1-.07-.6c.21-.67 1-1.06 2.16-1.06a1.75 1.75 0 0 1 1.36.4M17 11.48h1.23l-1.44 1.92H14.9c0-.05-.24-1.86-.25-1.92h1.16l.17 1.35 1-1.35m-3.82 1c.09-.3.1-.47 0-.58a.35.35 0 0 0-.3-.12c-.32 0-.51.18-.64.64-.1.3-.1.47 0 .58a.35.35 0 0 0 .3.12c.33-.01.48-.19.65-.65zm1.26-.66a.59.59 0 0 1 .07.6c-.2.67-1 1.05-2.15 1.05a1.78 1.78 0 0 1-1.34-.4.62.62 0 0 1-.08-.6c.21-.67 1-1.06 2.16-1.06a1.77 1.77 0 0 1 1.37.4m-3.62-.1a.29.29 0 0 1 .06.21l-.48 1.49h-1.3L9.56 12a.14.14 0 0 0 0-.15c-.06-.07-.19-.12-.63-.09 0 0-.53 1.61-.54 1.63H7.08s.59-1.83.6-1.84a9.47 9.47 0 0 1 1.64-.15c.82 0 1.32.09 1.49.29m-4.65.41a.33.33 0 0 0-.06-.26.44.44 0 0 0-.37-.14.59.59 0 0 0-.61.39l-.12.59 1.2-.56zm1.07 0a.43.43 0 0 1 0 .2l-2.26.5A.16.16 0 0 0 5 13a.68.68 0 0 0 .42.11 3.66 3.66 0 0 0 1.34-.35c0 .09-.22.51-.23.53a4.44 4.44 0 0 1-1.44.18 1.6 1.6 0 0 1-1.21-.35.7.7 0 0 1-.06-.66c.21-.66 1-1 2.09-1a1.54 1.54 0 0 1 1.21.35.52.52 0 0 1 .12.36m-4.35-1.63h1.26c0 .08-.88 2.82-.89 2.86H2c0-.08.88-2.82.89-2.86"></path>
</svg>
