<svg
  data-name="Layer 9"
  xmlns="http://www.w3.org/2000/svg"
  viewBox="0 0 24 24"
  height="24"
  width="24"
  aria-hidden="true"
>
  <path d="M10.38 10.82a1.31 1.31 0 0 0-1 .5v-.45H8.5V14h.86v-1.77a.67.67 0 0 1 .71-.67.7.7 0 0 1 .73.67V14h.86v-1.93a1.21 1.21 0 0 0-1.28-1.25m7.4 0L17 13l-.78-2.14h-1L16.53 14h.94l1.29-3.14zm-11.85 1a.78.78 0 0 1 .66-.31.71.71 0 0 1 .67.44l-1.51.62a1 1 0 0 1 .18-.75m1.65 1.23a1.34 1.34 0 0 1-.9.33.9.9 0 0 1-.68-.26l2.2-.91a1.69 1.69 0 0 0-.38-.87 1.56 1.56 0 0 0-1.24-.52 1.62 1.62 0 1 0 .1 3.24 2.09 2.09 0 0 0 1.46-.59zm-2.75.17h-2V9.94H2V14h2.83zm15.48-1.66a.82.82 0 0 0-.83.88.86.86 0 0 0 .84.89.84.84 0 0 0 .83-.89.85.85 0 0 0-.84-.88m0 2.5A1.62 1.62 0 1 1 22 12.44a1.63 1.63 0 0 1-1.69 1.62m-6.63-2.5a.82.82 0 0 0-.83.88.86.86 0 0 0 .84.89.84.84 0 0 0 .83-.89.85.85 0 0 0-.84-.88m0 2.5a1.62 1.62 0 1 1 1.69-1.62 1.63 1.63 0 0 1-1.69 1.62"></path>
</svg>
