<svg
  height="24"
  viewBox="0 0 24 24"
  width="24"
  xmlns="http://www.w3.org/2000/svg"
  class="matericons matericons-link-aja"
>
  <path d="M14.1 11.6a2.5 2.5 0 0 0-2.4 1.5c-.3 1.1-.3 2.9 1.2 3.2a4.7 4.7 0 0 0 2.6-.4 15 15 0 0 0 .4-2.1c.2-1.5.2-1.9.1-2a4.7 4.7 0 0 0-1.9-.2zm.5 1.4a9.5 9.5 0 0 1-.4 1.8c0 .2-.2.2-.4.2s-.8-.5-.6-1.3.4-.9.9-.9.5 0 .5.2zm2.7-6.3a7.8 7.8 0 0 1 .8-1l.6-.7.2-.2h1.2c.3 0 .4-.1.2.2l-.7.8a3.8 3.8 0 0 0-.8.9l.7 1.6.7 1.5c0 .1 0 .2-.1.2h-1.4v-.3L17.8 8zM10.2 9v-.2c.2-1.1.3-2.1.5-3.1.1-.6.2-.7.3-.8a7.2 7.2 0 0 1 2.2-.2h.2c1.6.4 1.3 2.1 1.2 2.9l-.2 1.5c0 .2-.1.2-.8.2h-.4c-.2 0-.3-.1-.2-.2a9.9 9.9 0 0 1 .2-1.8c.1-.8.1-1.6-.9-1.4s-.2 0-.2.2a20 20 0 0 0-.4 2.4 4.3 4.3 0 0 1-.1.5h-.1c-.1-.3-.9-.3-1.2-.1s-.2.4-.1.1zm7.7 6.5c.7.6-.2 1.6-1.1 1.2a.7.7 0 0 1 .1-1.3.8.8 0 0 1 1 .1zm.8-4.4c-.2.7-.7 3.2-.7 3.4s0 .2-.3.2H17c-.1 0-.2-.1-.1-.4s.1-.6.1-1 .1-1.1.1-1.5a2.3 2.3 0 0 0 .1-.7l.3-.2h1.2zm-3.4-1.8c-.1 0 0-.4 0-.9s.2-1.4.4-2.1a15.7 15.7 0 0 1 .4-3c0-.3 0-.3.3-.3h.8c.4 0 .4 0 .3.6a14.3 14.3 0 0 0-.3 2.1c-.3 2.2-.5 3.5-.5 3.6zM4.4 16.1h.2l.2-.5.2-.6h1.8v.5a.7.7 0 0 0 .1.5c0 .1 0 .1.1.1h1.3c.2 0 .1 0 .1-.2s-.8-5.1-.9-5.4 0-.4-.4-.4H6a.5.5 0 0 0-.4.3c-.4.7-2 4.4-2.5 5.4s-.1.3 0 .3zm1.9-4.3h.1c0 .2.2 1.6.2 1.9h-1zM22 18.7h-.6l-5.6.4a97.2 97.2 0 0 0-11 1.8l-1.3.3-.8-.3-.7-.4a18.6 18.6 0 0 1 3.1-.7 84.8 84.8 0 0 1 9.3-1.1H22zM11.1 11a.8.8 0 0 1-1.3-.4 1 1 0 0 1 .7-.9.8.8 0 0 1 .8.1.9.9 0 0 1-.2 1.2zM3.2 8.3c0-.3.4-3.7.6-4.7s.1-.3.3-.3h1.1c.2 0 .2.1.1.3s-.1 1-.2 1.9a14.4 14.4 0 0 0-.3 2.3l1.4.2h1c.2 0 .2 0 .2.2s-.1.7-.1 1-.2.1-.4.1H5.8c-1.5.1-1.5.1-1.9-.1a1.3 1.3 0 0 1-.7-.9zm7.8 3.3c.2 0 .1.2.1.4a4.1 4.1 0 0 1-.1 1 14.1 14.1 0 0 0-.2 1.8 8 8 0 0 1-.5 1.9 2.1 2.1 0 0 1-1.5 1.2c-.1.1-.6.3-.6.1l-.3-.9c0-.2.2-.2.3-.3a1.3 1.3 0 0 0 .9-.9c0-.2.2-1.2.3-2.2a18.8 18.8 0 0 0 .3-1.9l.2-.2zM8.5 3.9a1 1 0 0 1 .9-1.1c.8-.1 1 1 .2 1.5a.8.8 0 0 1-1.1-.4zm-.7 5.2c.1-1.5.3-2.7.5-4.1s.2-.2.4-.2h.7c.4 0 .5.1.4.4s-.4 2.5-.6 3.9-.1.2-.3.2h-1c-.1 0-.1 0-.1-.2z"></path>
</svg>
