<svg
  height="24"
  viewBox="0 0 24 24"
  width="24"
  xmlns="http://www.w3.org/2000/svg"
  class="matericons matericons-message-one"
  aria-hidden="true"
>
  <path d="M21.1 3.1H2.9A.9.9 0 0 0 2 4v13.7a.9.9 0 0 0 .9.9h6.5l2 2a.8.8 0 0 0 1.2 0l2-2h6.5a.9.9 0 0 0 .9-.9V4a.9.9 0 0 0-.9-.9zm-.9 13.7h-5.9l-.7.2-1.6 1.7-1.6-1.7-.7-.2H3.8V5h16.4zm-9.6-5.9a.9.9 0 0 1 .9-.9h1a.9.9 0 0 1 0 1.8h-1a.9.9 0 0 1-.9-.9zm4.6 0a.9.9 0 0 1 .9-.9h.9a.9.9 0 1 1 0 1.8h-.9a.9.9 0 0 1-.9-.9zm-9.1 0A.9.9 0 0 1 7 10h.9a.9.9 0 0 1 0 1.8H7a.9.9 0 0 1-.9-.9z"></path>
</svg>
