<svg
  height="24"
  viewBox="0 0 24 24"
  width="24"
  xmlns="http://www.w3.org/2000/svg"
  class="matericons matericons-paypal"
  aria-hidden="true"
>
  <path d="M20.4 9.2a6.2 6.2 0 0 1-.1 2.3c-.6 3.3-2.7 4.9-6.3 4.9h-.5l-.5.2c-.1.2-.2.3-.2.5v.2l-.6 3.9a.5.5 0 0 1-.3.5l-.5.2H8.5l-.3-.2c-.1-.1-.2-.2-.1-.4a8.2 8.2 0 0 1 .3-1.8 15.2 15.2 0 0 1 .3-1.9 8.9 8.9 0 0 1 .3-1.8c.1-.8.2-1.4.3-1.9a.4.4 0 0 1 .4-.4h1.5a10.2 10.2 0 0 0 2.6-.2 6.5 6.5 0 0 0 3.2-1.6 6.2 6.2 0 0 0 1.8-2.8 10.3 10.3 0 0 0 .4-1.4h.1a2.8 2.8 0 0 1 1.1 1.7zm-1.9-3.1a9.1 9.1 0 0 1-.5 2.6 5.6 5.6 0 0 1-3.4 3.5 8.7 8.7 0 0 1-2.8.5h-2a1.2 1.2 0 0 0-1.4 1.1l-.9 5.9H4.1l-.4-.2a.8.8 0 0 1-.2-.4L6.1 2.7l.3-.5L7 2h7.8l1.2.4a3.7 3.7 0 0 1 1.8 1.4 3.2 3.2 0 0 1 .7 2.3z"></path>
</svg>
