<svg
  height="24"
  viewBox="0 0 24 24"
  width="24"
  xmlns="http://www.w3.org/2000/svg"
  class="matericons matericons-quora"
  aria-hidden="true"
>
  <path d="M19.8 18.8a1.4 1.4 0 0 0 .4-1.1h1.5a5.1 5.1 0 0 1-.1.9l-.3 1a4.1 4.1 0 0 1-1.2 1.5 3.5 3.5 0 0 1-2.3.8 4.1 4.1 0 0 1-2.5-.5 7.8 7.8 0 0 1-2-2.2 9.2 9.2 0 0 1-7.8-1.7 8.5 8.5 0 0 1-3.2-6.7c0-.7.4-8.5 8.6-8.8a8.4 8.4 0 0 1 8.4 5.2 8.6 8.6 0 0 1 .7 3.2 9.7 9.7 0 0 1-.2 2 6.7 6.7 0 0 1-.8 2.4 8.8 8.8 0 0 1-1.2 1.7 12.5 12.5 0 0 1-1.2 1.2 5.9 5.9 0 0 0 1.6 1.4c.2 0 1.1.3 1.6-.3m-7-1.5c.1-.1-.3-.6-.5-.9l-.7-1a1.7 1.7 0 0 0-1.3-.8H8.7l-.3-.5a1.3 1.3 0 0 1-.1-.5 5.1 5.1 0 0 1 3.2-.9 4.1 4.1 0 0 1 2.8 1.3c.4.3.5.7.9 1h.1c.4.3.9-3 .8-5.2s-.2-3.3-1-4.4a4.7 4.7 0 0 0-3.6-1.8c-.7 0-3 .1-4 1.8s-1 5.6-1 5.6-.3 3.3 1.4 5a4.9 4.9 0 0 0 4.2 1.4z"></path>
</svg>
