<svg
  data-name="Layer 9"
  xmlns="http://www.w3.org/2000/svg"
  viewBox="0 0 24 24"
  height="24"
  width="24"
>
  <path d="M9.44 14.45a1.74 1.74 0 0 1-1-.48 1.76 1.76 0 0 1-.52-1.3 1.73 1.73 0 0 1 1.76-1.79 1.85 1.85 0 0 1 .77.18 2.13 2.13 0 0 1 .33.23h.06v-.39h.44v3.5h-.48V14a1.63 1.63 0 0 1-.91.4 2.84 2.84 0 0 1-.41 0zm.41-.45a1.19 1.19 0 0 0 1-1 2.91 2.91 0 0 0 0-.59 1.22 1.22 0 0 0-.13-.38 1.14 1.14 0 0 0-.93-.66 1.46 1.46 0 0 0-.51 0 1.25 1.25 0 0 0-.87.83 1.14 1.14 0 0 0-.07.47 1.2 1.2 0 0 0 0 .31 1.27 1.27 0 0 0 1 1 1.85 1.85 0 0 0 .47 0zm-4.23.44a1.67 1.67 0 0 1-.8-.28 1.86 1.86 0 0 1-.42-.42 1.84 1.84 0 0 1-.3-1.15 1.8 1.8 0 0 1 .33-1 1 1 0 0 1 .18-.2 1.57 1.57 0 0 1 .86-.46 3.71 3.71 0 0 1 .58 0 1.54 1.54 0 0 1 1.32 1.18 2.41 2.41 0 0 1 .07.5v.17h-2.9v.1a1.28 1.28 0 0 0 .68 1.06 1.31 1.31 0 0 0 .59.14 1.16 1.16 0 0 0 .91-.38 1.71 1.71 0 0 0 .28-.34l.38.25a1.71 1.71 0 0 1-.24.32 1.63 1.63 0 0 1-1.22.51zM7 12.3a1.17 1.17 0 0 0-.94-1 1.55 1.55 0 0 0-.48 0 1.27 1.27 0 0 0-.64.33 1.3 1.3 0 0 0-.37.67H7zm13.19 2.13a1.63 1.63 0 0 1-1.48-1.35 2 2 0 0 1 .29-1.47 1.64 1.64 0 0 1 1.1-.71 2.43 2.43 0 0 1 .66 0 1.48 1.48 0 0 1 .8.42 1.77 1.77 0 0 1 .44 1.27v.14h-2.9v.08a1.26 1.26 0 0 0 1 1.2 1.93 1.93 0 0 0 .48 0 1.21 1.21 0 0 0 .83-.56l.06-.09.37.24a1 1 0 0 1-.19.28 1.74 1.74 0 0 1-1.52.55zm1.37-2.12v-.11a1.12 1.12 0 0 0-1-.9 1.36 1.36 0 0 0-.6 0 1.26 1.26 0 0 0-.83.89v.09h2.43zM2 12.67v-1.74h2.07v.41H2.44v3.06H2zM12 12V9.55h.45v4.84H12zm1.22.69v-1.76h.44v.46-.05a1.19 1.19 0 0 1 .92-.45 1.23 1.23 0 0 1 .64.12 1.06 1.06 0 0 1 .48.48h.06a1.26 1.26 0 0 1 .82-.54 1.88 1.88 0 0 1 .58 0 1.16 1.16 0 0 1 .6.31 1.3 1.3 0 0 1 .34.66v2.51h-.44v-2.27a.89.89 0 0 0-.58-.82 1.12 1.12 0 0 0-.41 0 .84.84 0 0 0-.79.67 5.63 5.63 0 0 0 0 1.25v1.17h-.44v-2.17a.87.87 0 0 0-.76-.88 1 1 0 0 0-1 .55c-.06.15-.06.07-.06 1.36v1.18h-.43v-1.81z"></path>
</svg>
