<svg
  data-name="Layer 9"
  xmlns="http://www.w3.org/2000/svg"
  viewBox="0 0 24 24"
  height="24"
  width="24"
  aria-hidden="true"
>
  <path d="M22 10.26c-.27-1.56-5-2-10.48-1.09a30.06 30.06 0 0 0-6 1.67A.77.77 0 0 1 6 11a.47.47 0 0 1 .13.36v.15h-.52v-.14a.17.17 0 0 0-.19-.18.17.17 0 0 0-.18.14.17.17 0 0 0 0 .1c.06.24.86.39 1 .82a1.29 1.29 0 0 1 0 .35c-.05.35-.36.49-.75.49-.55 0-.78-.26-.78-.62v-.17h.58v.21a.21.21 0 0 0 .41.05.26.26 0 0 0 0-.15c-.1-.27-.85-.4-.95-.83a.71.71 0 0 1 0-.29.44.44 0 0 1 0-.15c-1.82.86-2.88 1.8-2.75 2.6.27 1.56 5 2 10.48 1.09a29.51 29.51 0 0 0 6.27-1.76h-.08c-.37 0-.71-.14-.75-.53v-1a.61.61 0 0 1 0-.14c0-.38.34-.53.74-.53s.71.09.75.53a.72.72 0 0 1 0 .13v.08h-.55v-.12a.28.28 0 0 0 0-.08.18.18 0 0 0-.2-.15.18.18 0 0 0-.2.15.28.28 0 0 0 0 .1v1a.2.2 0 0 0 .21.15.19.19 0 0 0 .21-.15v-.38h-.21v-.32h.76v.57a.82.82 0 0 1 0 .14.54.54 0 0 1-.09.26c1.76-.78 2.79-1.73 2.66-2.52zM7.68 13l-.27-1.88-.3 1.88h-.58l.39-2.13h1L8.26 13zm2.81 0v-1.82L10.12 13h-.54l-.34-1.85V13h-.57l.05-2.13h.87l.25 1.58.25-1.58H11V13zm2.51-.38c0 .41-.46.48-.74.48-.48 0-.77-.2-.77-.61v-.17h.58v.21a.18.18 0 0 0 .2.18.18.18 0 0 0 .2-.13.29.29 0 0 0 0-.16c-.1-.26-.85-.39-.94-.82a.66.66 0 0 1 0-.28c.06-.39.43-.47.73-.47a.77.77 0 0 1 .58.18.45.45 0 0 1 .14.35v.16h-.54v-.14a.17.17 0 0 0-.19-.18.16.16 0 0 0-.18.13.21.21 0 0 0 0 .11c.06.24.85.38.94.81a1 1 0 0 1-.01.35zm2-.2v.14c0 .35-.28.53-.74.53s-.71-.18-.74-.53a.61.61 0 0 1 0-.14V10.9h.55v1.65a.19.19 0 0 0 .2.15.18.18 0 0 0 .2-.15V10.9H15zm2.36.59h-.76l-.52-1.69v1.69h-.48V10.9h.8l.47 1.62V10.9h.54V13z"></path>
</svg>
