<svg
  height="24"
  viewBox="0 0 24 24"
  width="24"
  xmlns="http://www.w3.org/2000/svg"
  class="matericons matericons-search"
  aria-hidden="true"
>
  <path d="M14.25 7.72A.86.86 0 0 1 13 8.94a2.55 2.55 0 0 0-1.82-.76 2.57 2.57 0 0 0-1.83.76.88.88 0 0 1-1.22 0 .86.86 0 0 1 0-1.22 4.27 4.27 0 0 1 3-1.27 4.3 4.3 0 0 1 3.12 1.27zm6.5 13a.87.87 0 0 1-1.22 0l-3.2-3.2a8.13 8.13 0 0 1-5.13 1.88 8.2 8.2 0 1 1 8.2-8.2 8.13 8.13 0 0 1-1.85 5.13l3.2 3.2a.88.88 0 0 1 0 1.22zm-9.55-3.05a6.47 6.47 0 1 0-6.47-6.47 6.47 6.47 0 0 0 6.47 6.47z"></path>
</svg>
