<svg
  height="24"
  viewBox="0 0 24 24"
  width="24"
  xmlns="http://www.w3.org/2000/svg"
  class="matericons matericons-snapchat-alt"
>
  <path d="M21.9 16.6a1.4 1.4 0 0 0-.7-.8h-.4a5.9 5.9 0 0 1-2.2-1.9l-.4-.6V13h.2l.4-.3.5-.3.8-.9a2 2 0 0 0 .1-1.5 1.8 1.8 0 0 0-1.7-1h-.6V7.3a5.3 5.3 0 0 0-1.4-3.2 4.1 4.1 0 0 0-1.4-1.2 6.2 6.2 0 0 0-3.1-.8 6.5 6.5 0 0 0-3.1.8 5.3 5.3 0 0 0-1.4 1.2 4.8 4.8 0 0 0-1.3 3.2 7.1 7.1 0 0 0-.1 1.4h-.6a1.8 1.8 0 0 0-1.7 1 2.6 2.6 0 0 0 .1 1.5 3.8 3.8 0 0 0 .9.9l.4.3.4.3h.2v.3l-.4.6a6.5 6.5 0 0 1-2.1 1.9c-.5.2-1 .4-1.2 1a1.1 1.1 0 0 0 .3 1.3l.5.4 1.3.5h.2c.2.1.2.3.4.6l.3.4a2.2 2.2 0 0 0 1.4.3 4.4 4.4 0 0 1 1.5.2l.8.5a5.7 5.7 0 0 0 3.2 1 5 5 0 0 0 3.2-1.1l.8-.4a4.4 4.4 0 0 1 1.5-.2 2.2 2.2 0 0 0 1.4-.3l.4-.5c.1-.2.1-.4.3-.5h.2l1.3-.5.5-.4a1.1 1.1 0 0 0 .3-1.3"></path>
</svg>
