<svg
  height="24"
  viewBox="0 0 24 24"
  width="24"
  xmlns="http://www.w3.org/2000/svg"
  class="matericons matericons-sort-descending-1"
>
  <path d="M21.8 9.2a.7.7 0 0 1-1.2 0l-2.8-2.7v8a.8.8 0 0 1-1.6 0v-8l-2.8 2.7a.7.7 0 0 1-1.2 0 .9.9 0 0 1 0-1.2l4.2-4.1a.1.1 0 0 0 .1-.1h1a.1.1 0 0 0 .1.1L21.8 8a.9.9 0 0 1 0 1.2zm-19 4.4h7.5a.8.8 0 1 0 0-1.6H2.8a.8.8 0 1 0 0 1.6zm0-6.6h5.9a.9.9 0 0 0 .8-.9.9.9 0 0 0-.8-.8H2.8a.9.9 0 0 0-.8.8.9.9 0 0 0 .8.9zM17 18.6H2.8a.9.9 0 0 0-.8.9.9.9 0 0 0 .8.8H17a.8.8 0 0 0 .8-.8.8.8 0 0 0-.8-.9z"></path>
</svg>
