<svg
  height="24"
  viewBox="0 0 24 24"
  width="24"
  xmlns="http://www.w3.org/2000/svg"
  class="matericons matericons-sort-amount-up"
  aria-hidden="true"
>
  <path d="M20.8 5.3a.8.8 0 0 1-.8.8h-8.4a.9.9 0 0 1-.9-.8.9.9 0 0 1 .9-.9H20a.8.8 0 0 1 .8.9zM7.7 4.1h-.9L3.4 7.6a.9.9 0 0 0 0 1.2l.6.3.6-.3 1.9-1.9v12.3a.9.9 0 0 0 .9.8.9.9 0 0 0 .8-.8V4.8a.4.4 0 0 0-.1-.3.4.4 0 0 0-.4-.4zm10.6 4.5h-6.7a.9.9 0 0 0-.9.9.9.9 0 0 0 .9.8h6.7a.9.9 0 0 0 .9-.8.9.9 0 0 0-.9-.9zm-1.7 4.2h-5a.9.9 0 0 0-.9.9.9.9 0 0 0 .9.8h5a.9.9 0 0 0 .9-.8.9.9 0 0 0-.9-.9zm-1.7 4.3h-3.3a.8.8 0 1 0 0 1.6h3.3a.8.8 0 1 0 0-1.6z"></path>
</svg>
