<svg
  height="24"
  viewBox="0 0 24 24"
  width="24"
  xmlns="http://www.w3.org/2000/svg"
  class="matericons matericons-spotify"
  aria-hidden="true"
>
  <path d="M17.9 10.9C14.7 9 9.4 8.8 6.3 9.8a.9.9 0 0 1-1.1-.7.8.8 0 0 1 .6-1.1 18.4 18.4 0 0 1 13.1 1.4.8.8 0 0 1 .3 1.2 1 1 0 0 1-1.3.3m-.1 2.8c-.3.4-.7.5-1 .2a13.3 13.3 0 0 0-10-1.1.8.8 0 0 1-1-.5c0-.4.1-.9.5-.9a14.3 14.3 0 0 1 11.3 1.3.8.8 0 0 1 .2 1m-1.2 2.8c-.2.3-.6.4-.8.1-2.4-1.4-5.4-1.7-8.9-.9-.3.1-.6-.1-.7-.5s.1-.6.5-.7a12.6 12.6 0 0 1 9.7 1.1.6.6 0 0 1 .2.9M12 2a10 10 0 1 0 10 10A10 10 0 0 0 12 2z"></path>
</svg>
