<svg
  height="24"
  viewBox="0 0 24 24"
  width="24"
  xmlns="http://www.w3.org/2000/svg"
  class="matericons matericons-star"
>
  <path d="M17.3 21.6a1.1 1.1 0 0 1-.8-.2L12 18.6l-4.2 2.6a1.7 1.7 0 0 1-1.8 0 1.7 1.7 0 0 1-.6-1.8l1.2-4.7-4.1-3.5a1.6 1.6 0 0 1-.4-1.6 1.5 1.5 0 0 1 1.3-1l5.2-.3c.1 0 .1 0 .1-.1l1.9-4.9a1.4 1.4 0 0 1 1.9-.8 1.4 1.4 0 0 1 .9.8l1.9 4.9c0 .1 0 .1.1.1l5.2.3a1.5 1.5 0 0 1 1.3 1 1.6 1.6 0 0 1-.4 1.6l-4.1 3.4 1.3 5.1a1.5 1.5 0 0 1-.6 1.6zM12 17.1a1.3 1.3 0 0 1 .8.3l4.5 2.8L16 15a1.7 1.7 0 0 1 .5-1.5l4.1-3.4h-.1l-5.2-.3a1.6 1.6 0 0 1-1.3-1l-2-5-2 5a1.4 1.4 0 0 1-1.3.9l-5.2.3h-.1l4.1 3.4A1.7 1.7 0 0 1 8 15l-1.2 4.8c-.1.1 0 .1 0 .2s.2.1.2 0l4.2-2.6a1.3 1.3 0 0 1 .8-.3z"></path>
</svg>
