<svg
  height="24"
  viewBox="0 0 24 24"
  width="24"
  xmlns="http://www.w3.org/2000/svg"
  class="matericons matericons-steam"
>
  <path d="M12 2a10 10 0 0 1 0 20 9.9 9.9 0 0 1-9.6-7.3l3.8 1.6A2.8 2.8 0 0 0 9 18.6a2.9 2.9 0 0 0 2.8-2.8v-.2l3.4-2.4h.1A3.7 3.7 0 0 0 19 9.4a3.6 3.6 0 0 0-3.7-3.7 3.7 3.7 0 0 0-3.8 3.7l-2.4 3.5H9a2.8 2.8 0 0 0-1.6.5L2 11.2A10 10 0 0 1 12 2M8.3 17.2a1.6 1.6 0 0 0 2-.9 1.4 1.4 0 0 0-.8-2l-1.3-.5a2.2 2.2 0 0 1 1.6 0 2 2 0 0 1 1.1 1.1 2.5 2.5 0 0 1 0 1.7 2.1 2.1 0 0 1-2.8 1.1 2.4 2.4 0 0 1-1-1l1.2.5m9.5-7.8a2.5 2.5 0 1 1-2.5-2.5 2.5 2.5 0 0 1 2.5 2.5m-4.4 0a1.8 1.8 0 0 0 1.9 1.9 1.9 1.9 0 0 0 1.9-1.9 2 2 0 0 0-1.9-1.9 1.9 1.9 0 0 0-1.9 1.9z"></path>
</svg>
