<svg
  height="24"
  viewBox="0 0 24 24"
  width="24"
  xmlns="http://www.w3.org/2000/svg"
  class="matericons matericons-tokopedia-alt"
>
  <path d="M20.2 5.7c-1.3 0-2.6-.1-3.9 0a4.3 4.3 0 0 0-8.6 0c-1.3-.1-2.6 0-3.9 0h-.7V22H15a5.9 5.9 0 0 0 5.9-5.9V5.7zM12 3.2a3.2 3.2 0 0 1 3.2 2.6h-.1a10.9 10.9 0 0 0-3.1.8 6.8 6.8 0 0 0-3.1-.8A3.1 3.1 0 0 1 12 3.2zm3.8 13.5a2.9 2.9 0 0 1-1.6-.4l-.3.3-1.5 1.6-.4.4-.4-.4-1.5-1.6-.3-.3a2.9 2.9 0 0 1-1.6.4A4.2 4.2 0 0 1 4 12.5a4.2 4.2 0 0 1 4.2-4.1A4.1 4.1 0 0 1 12 11a4.1 4.1 0 0 1 3.8-2.6 4.2 4.2 0 0 1 4.2 4.1 4.2 4.2 0 0 1-4.2 4.2zm-4.3-5.1a.4.4 0 0 1-.1-.3c0-.1-.1-.1-.1-.2a.4.4 0 0 1-.1-.3h-.1c0-.1 0-.1-.1-.2v-.2h-.1c0-.1-.1-.1-.1-.2h-.1V10h-.1v-.2H6.1l-.2.2-.2.2a3.3 3.3 0 0 0-1 2.3A3.5 3.5 0 0 0 8.2 16a3.5 3.5 0 0 0 3.4-3.5 2.8 2.8 0 0 0-.1-.9zm-2.9 3.2a2.2 2.2 0 0 1-2.2-2.2 2 2 0 0 1 .3-1.1 1 1 0 0 0 1 .7 1 1 0 0 0 1-1.1.8.8 0 0 0-.2-.7h.1a2.2 2.2 0 0 1 2.2 2.2 2.2 2.2 0 0 1-2.2 2.2zm10.5-3.2a.4.4 0 0 0-.1-.3c0-.1 0-.1-.1-.2 0-.1 0-.2-.1-.2 0-.1-.1-.1-.1-.2h-.1v-.2l-.2-.2-.2-.2-.2-.2h-4.3v.1h-.3c0 .1-.1.1-.1.2h-.1v.2c-.1.1-.1.1-.1.2h-.2v.2h-.1a2.8 2.8 0 0 0-.1.9 3.5 3.5 0 0 0 3.1 4.3 3.5 3.5 0 0 0 3.5-3.5 2.9 2.9 0 0 0-.2-.9zm-3.7 3.2a2.2 2.2 0 0 1-2.2-2.2 2 2 0 0 1 .3-1.1 1 1 0 0 0 1 .7 1 1 0 0 0 1-1.1 1.4 1.4 0 0 0-.2-.7h.1a2.2 2.2 0 0 1 2.2 2.2 2.2 2.2 0 0 1-2.2 2.2zm-3.4-.7a4.1 4.1 0 0 1-.5.9h1a4.1 4.1 0 0 1-.5-.9zm1.5 2.2a1.7 1.7 0 0 0-3 0l1.5 1.6z"></path>
</svg>
