<svg
  height="24"
  viewBox="0 0 24 24"
  width="24"
  xmlns="http://www.w3.org/2000/svg"
  class="matericons matericons-trakteer"
>
  <path d="M13.5 4.1a2 2 0 0 1 1.9 2 1.9 1.9 0 0 1-.3 1h-3.3a1.9 1.9 0 0 1-.3-1 2 2 0 0 1 2-2zM8.2 9.3h7.6a.9.9 0 0 0 .9-.8v-.2a.8.8 0 0 0-.9-.8H8.2a.8.8 0 0 0-.9.8v.2a.9.9 0 0 0 .9.8zm2.6-2.9h.2v-.5a2.3 2.3 0 0 1 2-2.2A2.3 2.3 0 0 0 10.8 2a2.2 2.2 0 0 0 0 4.4zm6.7 6v8.1A1.5 1.5 0 0 1 16 22H8a1.5 1.5 0 0 1-1.5-1.5v-8.1A1.5 1.5 0 0 1 8 10.9v-.6h8.1v.6a1.5 1.5 0 0 1 1.4 1.5zm-2.6 1.8h-.1a1.8 1.8 0 0 0-2.5 0l-.3.3-.3-.3a1.8 1.8 0 0 0-2.5 0h-.1a1.8 1.8 0 0 0 0 2.5l.3.3 2.6 2.6 2.6-2.6.3-.3a1.8 1.8 0 0 0 0-2.5z"></path>
</svg>
