<svg
  data-name="Layer 9"
  xmlns="http://www.w3.org/2000/svg"
  viewBox="0 0 24 24"
  height="24"
  width="24"
  aria-hidden="true"
>
  <path
    d="M2 2h20v20H2zm15 9.47h1.53a3.64 3.64 0 0 1 .74 0A1.12 1.12 0 0 1 20 13a1.16 1.16 0 0 1-.85.78h-1.53a4.54 4.54 0 0 1-.74 0 1.14 1.14 0 0 1-.77-1.41v-.07a1.07 1.07 0 0 1 .84-.71zm3.74 1.31a1.78 1.78 0 0 0-.61-1.62 1.76 1.76 0 0 0-.75-.37 6.39 6.39 0 0 0-1.07 0h-1.14a1.82 1.82 0 0 0-.89.23 1.84 1.84 0 0 0-.62 2.53A2.11 2.11 0 0 0 16 14a2.45 2.45 0 0 0 1.82.41H19a1.75 1.75 0 0 0 1.76-1.59zm-10.6-1.48a1.67 1.67 0 0 0 .28.46l.87 1.3c.18.26.41.62.59.87a1.11 1.11 0 0 0 1 .51 1.1 1.1 0 0 0 .86-.59l.6-.86 1-1.53a.37.37 0 0 0-.07-.52.35.35 0 0 0-.28-.07.6.6 0 0 0-.37.36l-.59.86-.59.87-.3.43a.43.43 0 0 1-.43.28.7.7 0 0 1-.36-.36l-.26-.43-.62-.88-.6-.87a.42.42 0 0 0-.44-.27.35.35 0 0 0-.29.42zm-6.88 0a1.89 1.89 0 0 0 .26.46l1.18 1.73c.29.43.58 1 1.25.93s.87-.54 1.18-1L8 12.11l.3-.4a.78.78 0 0 0 .23-.51.37.37 0 0 0-.4-.33.6.6 0 0 0-.36.32l-.59.87c-.21.3-.38.6-.58.89l-.3.43a.45.45 0 0 1-.42.3.72.72 0 0 1-.38-.37c-.51-.69-1-1.45-1.47-2.16a.42.42 0 0 0-.44-.28.35.35 0 0 0-.3.41zm6-.42c-.37.08-.31.38-.31.76v2.16a.84.84 0 0 0 .06.47.36.36 0 0 0 .51.1.35.35 0 0 0 .15-.2v-2.66a.8.8 0 0 0-.04-.51.34.34 0 0 0-.36-.15zm0-1.29a.91.91 0 0 0-.16.11l-.24.3c-.17.17 0 .24.18.46l.16.13c.17.17.23 0 .46-.18s.31-.25-.18-.74a.16.16 0 0 0-.19-.06z"
    fill-rule="evenodd"
  ></path>
</svg>
