<svg
  data-name="Layer 9"
  xmlns="http://www.w3.org/2000/svg"
  viewBox="0 0 24 24"
  height="24"
  width="24"
>
  <path
    d="M17.7 11.45h1.75a4 4 0 0 1 .85 0 1.29 1.29 0 0 1-.11 2.55h-1.75a4 4 0 0 1-.85 0 1.29 1.29 0 0 1-.87-1.6v-.09a1.2 1.2 0 0 1 1-.81zM22 13a2 2 0 0 0-.7-1.83 2 2 0 0 0-.86-.43 7.08 7.08 0 0 0-1.22 0h-1.31a1.92 1.92 0 0 0-1 .26 2.11 2.11 0 0 0-.71 2.89 2.47 2.47 0 0 0 .42.49 2.75 2.75 0 0 0 2.08.47H20A2 2 0 0 0 22 13zM9.87 11.21a2.18 2.18 0 0 0 .33.52l1 1.49c.19.29.44.71.66 1a1.27 1.27 0 0 0 1.1.57 1.32 1.32 0 0 0 1-.64l.67-1 1.18-1.75a.43.43 0 0 0-.07-.59.46.46 0 0 0-.34-.08.74.74 0 0 0-.42.41l-.67 1-.67 1c-.12.17-.22.32-.33.5s-.24.38-.49.32a.9.9 0 0 1-.42-.42l-.3-.54c-.23-.32-.44-.64-.68-1l-.67-1a.48.48 0 0 0-.51-.32.43.43 0 0 0-.37.47zM2 11.2a1.74 1.74 0 0 0 .32.52l1.35 2c.32.51.64 1.1 1.42 1.08s1-.62 1.36-1.15l1-1.49.34-.49a1 1 0 0 0 .26-.58.41.41 0 0 0-.48-.35.68.68 0 0 0-.43.4c-.23.34-.44.64-.67 1s-.45.65-.68 1c-.12.17-.22.32-.32.49a.52.52 0 0 1-.49.34.79.79 0 0 1-.42-.42C4 12.71 3.43 11.84 2.88 11a.49.49 0 0 0-.51-.32.43.43 0 0 0-.37.47zm6.88-.48c-.41.09-.35.44-.35.88v2.45a.9.9 0 0 0 .08.54.41.41 0 0 0 .58.12.46.46 0 0 0 .17-.22v-3.06a1.11 1.11 0 0 0-.07-.54.43.43 0 0 0-.43-.18zm0-1.49a.54.54 0 0 0-.15.15l-.32.3c-.2.19 0 .28.21.51l.15.15c.2.2.27.06.53-.2s.35-.27-.21-.82a.17.17 0 0 0-.18-.09z"
    fill-rule="evenodd"
  ></path>
</svg>
