<svg
  height="24"
  viewBox="0 0 24 24"
  width="24"
  xmlns="http://www.w3.org/2000/svg"
  class="matericons matericons-vkontakte"
>
  <path d="M15.1 2H8.9C3.3 2 2 3.3 2 8.9v6.2C2 20.7 3.3 22 8.9 22h6.2c5.6 0 6.9-1.3 6.9-6.9V8.9C22 3.3 20.7 2 15.1 2m3 14.3h-1.4c-.6 0-.7-.5-1.7-1.5s-1.3-.9-1.5-.9-.4.1-.4.5v1.3c0 .3-.1.6-1 .6a5.8 5.8 0 0 1-4.4-2.7 10.6 10.6 0 0 1-2.3-4.8c0-.3 0-.5.4-.5h1.5c.4 0 .5.2.7.6.7 2.1 1.9 3.9 2.4 3.9s.2-.1.2-.6v-2.1c0-1-.5-1.1-.5-1.4s.1-.4.3-.4h2.3c.3 0 .4.2.4.6v2.9c0 .3.2.4.3.4s.3-.1.7-.5a13 13 0 0 0 1.8-2.9c0-.2.2-.4.6-.4h1.4c.5 0 .6.2.5.5a19.9 19.9 0 0 1-2 3.3c-.1.3-.2.4 0 .7l1 1a11 11 0 0 1 1.3 1.7c.1.5-.1.7-.6.7z"></path>
</svg>
