<svg
  height="24"
  viewBox="0 0 24 24"
  width="24"
  xmlns="http://www.w3.org/2000/svg"
  class="matericons matericons-waze"
>
  <path d="M20.5 6.6a8.3 8.3 0 0 1 1.4 3.2 7.7 7.7 0 0 1-.3 3.7 7.2 7.2 0 0 1-2 3.1 9.4 9.4 0 0 1-2.3 1.6 2.1 2.1 0 0 1-1.2 2.7h-.7a2.2 2.2 0 0 1-2.1-2h-3.1a2.1 2.1 0 0 1-4.1-.2.7.7 0 0 1 .1-.5 9 9 0 0 1-4-2.9 1.1 1.1 0 0 1 .2-1.3l.7-.2c.7 0 1-.3 1.1-.7a5.4 5.4 0 0 0 .4-2.2 7.7 7.7 0 0 1 .2-1.5A7.1 7.1 0 0 1 7.5 5a9.5 9.5 0 0 1 5.8-2 8.6 8.6 0 0 1 4.1 1 8.6 8.6 0 0 1 3.1 2.6m-3.8 10.7a7.5 7.5 0 0 0 3.9-4.1c1.6-4.9-2.6-9.1-7.3-9.1h-1.1c-2.8.4-5.8 2.4-6.4 5.4s.2 5.3-2.7 5.3a7.6 7.6 0 0 0 3.7 2.6 2 2 0 0 1 2.9.1l.3.4h3.6a2.1 2.1 0 0 1 2.8-.9l.3.3m-5.7-7a1 1 0 0 1-1.1-1 1 1 0 0 1 1-1.1 1.2 1.2 0 0 1 1.1 1 1 1 0 0 1-1 1.1m4.7 0a1.2 1.2 0 0 1-1.2-1 1.1 1.1 0 0 1 1-1.1 1.2 1.2 0 0 1 1.2 1 1 1 0 0 1-1 1.1m-6 1.8a.7.7 0 0 1 .4-.7.6.6 0 0 1 .6.5 2.6 2.6 0 0 0 2.6 1.7 2.5 2.5 0 0 0 2.6-1.7.5.5 0 0 1 .7-.3c.2.2.3.3.3.5a3.6 3.6 0 0 1-1.2 1.8 4 4 0 0 1-2.4.7h-.1a3.5 3.5 0 0 1-3.5-2.5z"></path>
</svg>
