<svg
  height="24"
  viewBox="0 0 24 24"
  width="24"
  xmlns="http://www.w3.org/2000/svg"
  class="matericons matericons-wechat"
  aria-hidden="true"
>
  <path d="M9.5 4C5.4 4 2 6.7 2 10a5.7 5.7 0 0 0 2.8 4.7L4 17l2.5-1.5a9.3 9.3 0 0 0 2.9.5 4.5 4.5 0 0 1-.4-2c0-3.3 3.1-6 7-6h.6a7.7 7.7 0 0 0-7.1-4m-3 2.5a.9.9 0 0 1 1 1 .9.9 0 0 1-1 1 .9.9 0 0 1-1-1 .9.9 0 0 1 1-1m5 0a.9.9 0 0 1 1 1 1 1 0 0 1-2 0 .9.9 0 0 1 1-1M16 9c-3.3 0-6 2.2-6 5s2.7 5 6 5l1.9-.2L20 20l-.6-1.9A4.7 4.7 0 0 0 22 14c0-2.8-2.7-5-6-5m-2 2.5a1 1 0 1 1-1 1 .9.9 0 0 1 1-1m4 0a1 1 0 1 1-1 1 .9.9 0 0 1 1-1z"></path>
</svg>
