<svg
  data-name="Layer 9"
  xmlns="http://www.w3.org/2000/svg"
  viewBox="0 0 24 24"
  height="24"
  width="24"
  aria-hidden="true"
>
  <path d="M21.79 5.61a.21.21 0 0 1 .21.21v12.36a.21.21 0 0 1-.21.21h-2.71a.21.21 0 0 1-.21-.21V5.82a.21.21 0 0 1 .21-.21zM10 5.61c2 0 4.18.09 5.24 1.15s1.14 3.1 1.15 5.11v6.31a.21.21 0 0 1-.21.21H13.5a.21.21 0 0 1-.21-.21v-6.42a4.24 4.24 0 0 0-.65-2.85 3.6 3.6 0 0 0-2.39-.64H5.34a.22.22 0 0 0-.21.21v9.7a.21.21 0 0 1-.21.21H2.21a.21.21 0 0 1-.21-.21V5.82a.21.21 0 0 1 .21-.21zm.61 4.93a.21.21 0 0 1 .21.2v7.44a.21.21 0 0 1-.21.21H7.79a.21.21 0 0 1-.21-.21v-7.44a.2.2 0 0 1 .21-.2z"></path>
</svg>
