<svg
  data-name="Layer 9"
  xmlns="http://www.w3.org/2000/svg"
  viewBox="0 0 24 24"
  height="24"
  width="24"
>
  <path d="M21.24 22H2.76a.76.76 0 0 1-.76-.76V2.76A.76.76 0 0 1 2.76 2h18.48a.76.76 0 0 1 .76.76v18.48a.76.76 0 0 1-.76.76M17.68 8.29h-1.57a.12.12 0 0 0-.12.12v7.18a.12.12 0 0 0 .12.12h1.57a.12.12 0 0 0 .12-.12V8.41a.12.12 0 0 0-.12-.12m-5.37 0h-6a.12.12 0 0 0-.12.12v7.18a.12.12 0 0 0 .12.12h1.58a.12.12 0 0 0 .11-.12V10a.12.12 0 0 1 .12-.11h3.39A1.15 1.15 0 0 1 12.75 11v4.55a.12.12 0 0 0 .12.12h1.57a.13.13 0 0 0 .13-.12V10.5A2 2 0 0 0 14 8.94a2.13 2.13 0 0 0-1.66-.65m-1.1 2.86H9.56a.12.12 0 0 0-.13.12v4.32a.13.13 0 0 0 .13.12h1.65a.13.13 0 0 0 .12-.12v-4.32a.12.12 0 0 0-.12-.12"></path>
</svg>
