<svg
  data-name="Layer 9"
  xmlns="http://www.w3.org/2000/svg"
  viewBox="0 0 24 24"
  height="24"
  width="24"
  aria-hidden="true"
>
  <path d="M19.92 4.09C18 2.21 15.32 2 12 2s-6 .21-7.92 2.1S2 8.69 2 12s.19 6 2.08 7.91S8.68 22 12 22s6-.19 7.92-2.08S22 15.33 22 12s-.19-6-2.08-7.92zM17.8 8.2a.12.12 0 0 1 .13.12v7.4a.13.13 0 0 1-.13.12h-1.62a.12.12 0 0 1-.12-.12v-7.4a.12.12 0 0 1 .12-.12zm-7 0c1.22 0 2.5.05 3.13.68s.69 1.86.69 3.06v3.78a.13.13 0 0 1-.13.12h-1.65a.12.12 0 0 1-.12-.12v-3.84a2.54 2.54 0 0 0-.39-1.71 2.12 2.12 0 0 0-1.43-.38H8a.12.12 0 0 0-.12.12v5.81a.13.13 0 0 1-.13.12H6.09a.13.13 0 0 1-.09-.12v-7.4a.12.12 0 0 1 .13-.12zm.36 2.94a.13.13 0 0 1 .13.12v4.46a.13.13 0 0 1-.13.12H9.43a.13.13 0 0 1-.13-.12v-4.46a.13.13 0 0 1 .13-.12z"></path>
</svg>
