<svg
  height="24"
  viewBox="0 0 24 24"
  width="24"
  xmlns="http://www.w3.org/2000/svg"
  class="matericons matericons-youtube"
  aria-hidden="true"
>
  <path d="M10 15l5.2-3L10 9v6m11.6-7.8a8.4 8.4 0 0 1 .2 1.9 16.2 16.2 0 0 1 .1 2.1v.8a25.1 25.1 0 0 1-.4 4.8 2.7 2.7 0 0 1-1.8 1.8l-2.6.2H12a50.8 50.8 0 0 1-7.8-.4 2.7 2.7 0 0 1-1.8-1.8 8.4 8.4 0 0 1-.2-1.9 16.2 16.2 0 0 1-.1-2.1V12a25.1 25.1 0 0 1 .4-4.8 2.7 2.7 0 0 1 1.7-1.8 12.6 12.6 0 0 1 2.6-.2H12a50.8 50.8 0 0 1 7.8.4 2.7 2.7 0 0 1 1.8 1.6z"></path>
</svg>
