<svg xmlns="http://www.w3.org/2000/svg" viewBox="0 0 24 24" width="24" height="24" aria-hidden="true" class="hidden"><symbol id="icon_archive" viewBox="0 0 24 24"><path d="M13.26 13.88h-2.51c-.44 0-.71 0-.98-.11a1.49 1.49 0 0 1-.79-.79c-.11-.27-.11-.54-.11-.98s0-.71.11-.98c.15-.36.44-.64.79-.79.27-.11.54-.11.98-.11h2.51c.44 0 .71 0 .98.11.37.15.65.43.79.79.11.27.11.54.11.98s0 .71-.11.98c-.15.36-.44.65-.79.79-.27.11-.54.11-.98.11Zm-2.51-2.51c-.22 0-.45 0-.5.02-.05.02-.09.06-.11.11-.02.05-.02.28-.02.5s0 .44.02.5c.02.05.06.09.11.11.05.02.28.02.5.02h2.51c.22 0 .44 0 .5-.02.05-.02.09-.06.11-.11.01-.05.01-.28.01-.5s0-.45-.02-.5a.198.198 0 0 0-.11-.11c-.05-.01-.28-.01-.5-.01h-2.51Zm7.83 7.62c1.17-1.16 1.17-2.83 1.17-6.16V8.39c.33-.05.6-.16.83-.39.43-.43.43-.97.43-1.87s0-1.44-.43-1.87-.97-.43-1.87-.43h-3.35c-.35 0-.63.28-.63.63s.28.63.63.63h3.35c.42 0 .9 0 .99.06.06.09.06.57.06.99s0 .89-.06.99c-.09.06-.57.06-.99.06H5.3c-.42 0-.89 0-.99-.06-.06-.09-.06-.56-.06-.98s0-.89.06-.99c.09-.06.56-.06.98-.06h6.7c.35 0 .63-.28.63-.63s-.28-.63-.63-.63H5.3c-.9 0-1.44 0-1.87.43C3 4.7 3 5.24 3 6.14s0 1.44.43 1.87c.23.23.49.34.83.39v4.44c0 3.33 0 5 1.17 6.16.67.67 1.55.99 3.03 1.1.33.01.65-.23.67-.58a.614.614 0 0 0-.58-.67c-1.17-.09-1.79-.3-2.24-.74-.8-.8-.8-2.29-.8-5.27v-4.4h12.98v4.4c0 2.98 0 4.48-.8 5.27-.8.8-2.29.8-5.27.8h-.84c-.35 0-.63.28-.63.63s.28.63.63.63h.84c3.33 0 5 0 6.16-1.17Z"/></symbol><symbol id="icon_arrow_left" viewBox="0 0 24 24"><path d="M20 12c0 .38-.31.69-.69.69h-2.29c-.38 0-.69-.31-.69-.69s.31-.69.69-.69h2.29c.38 0 .69.31.69.69Zm-5.03 0c0 .38-.31.69-.69.69H6.34l4.32 4.32c.27.27.27.7 0 .97s-.7.27-.97 0L4.2 12.49a.574.574 0 0 1-.15-.23.696.696 0 0 1-.05-.25v-.02a.696.696 0 0 1 .2-.48l5.49-5.49c.27-.27.7-.27.97 0s.27.7 0 .97l-4.32 4.32h7.94c.38 0 .69.31.69.69Z"/></symbol><symbol id="icon_arrow_right" viewBox="0 0 24 24"><path d="M4 12c0-.38.31-.69.69-.69h2.29c.38 0 .69.31.69.69s-.31.69-.69.69H4.69c-.38 0-.69-.31-.69-.69Zm5.03 0c0-.38.31-.69.69-.69h7.94l-4.32-4.32c-.27-.27-.27-.7 0-.97s.7-.27.97 0l5.49 5.49c.07.07.12.14.15.23.03.08.05.16.05.25v.02a.696.696 0 0 1-.2.48l-5.49 5.49c-.27.27-.7.27-.97 0s-.27-.7 0-.97l4.32-4.32H9.72c-.38 0-.69-.31-.69-.69Z"/></symbol><symbol id="icon_arrow_top" viewBox="0 0 24 24"><path d="M12 20c-.38 0-.69-.31-.69-.69v-2.29c0-.38.31-.69.69-.69s.69.31.69.69v2.29c0 .38-.31.69-.69.69Zm0-5.03c-.38 0-.69-.31-.69-.69V6.34l-4.32 4.32c-.27.27-.7.27-.97 0s-.27-.7 0-.97l5.49-5.49c.07-.07.14-.12.23-.15.08-.03.16-.05.25-.05h.02a.696.696 0 0 1 .48.2l5.49 5.49c.27.27.27.7 0 .97s-.7.27-.97 0l-4.32-4.32v7.94c0 .38-.31.69-.69.69Z"/></symbol><symbol id="icon_bookmark" viewBox="0 0 24 24"><path d="M20.1 11.19v4.49c0 2.79 0 4.18-.66 4.79-.31.29-.71.47-1.14.52-.89.1-1.93-.82-4-2.65-.92-.81-1.38-1.22-1.91-1.32a2.1 2.1 0 0 0-.79 0c-.53.11-.99.51-1.91 1.32-2.07 1.84-3.11 2.75-4 2.65-.42-.05-.82-.23-1.14-.52-.66-.61-.66-2-.66-4.79v-4.49c0-3.86 0-5.79 1.19-6.99C6.27 3 8.18 3 11.99 3s5.73 0 6.91 1.2c1.19 1.2 1.19 3.13 1.19 6.99ZM8.63 6.6c0-.37.3-.67.67-.67h5.4a.67.67 0 0 1 0 1.34H9.3a.67.67 0 0 1-.67-.67Z"/></symbol><symbol id="icon_bookmark_add" viewBox="0 0 24 24"><path d="M6.28 21c-.07 0-.14 0-.21-.01-.53-.06-1.02-.28-1.41-.65-.82-.75-.82-2.06-.82-4.91v-4.18c0-.35.28-.63.63-.63s.63.28.63.63v4.18c0 2.18 0 3.61.41 3.99.2.18.44.29.7.32.55.04 1.62-.88 3.23-2.31.92-.81 1.41-1.25 2.07-1.38.32-.07.66-.07.99 0 .65.13 1.15.57 2.05 1.36 1.63 1.44 2.69 2.41 3.25 2.32.26-.03.51-.14.7-.32.41-.38.41-1.82.41-3.99v-4.18c0-3.41 0-5.13-.92-6.06-.92-.93-2.61-.93-5.99-.93s-5.07 0-5.98.93c-.52.53-.76 1.28-.86 2.67-.02.35-.31.6-.67.58a.614.614 0 0 1-.58-.67c.12-1.71.47-2.71 1.22-3.47 1.29-1.3 3.16-1.3 6.88-1.3s5.59 0 6.88 1.3c1.28 1.3 1.28 3.19 1.28 6.94v4.18c0 2.86 0 4.16-.82 4.92-.39.36-.88.59-1.41.65-1.1.13-2.08-.73-4.21-2.62-.75-.66-1.16-1.02-1.48-1.09-.16-.03-.33-.03-.49 0-.33.07-.73.42-1.47 1.07-2.01 1.78-2.99 2.64-4.01 2.64Zm8.23-13.4H9.49c-.35 0-.63-.28-.63-.63s.28-.63.63-.63h5.02c.35 0 .63.28.63.63s-.28.63-.63.63Z"/></symbol><symbol id="icon_check" viewBox="0 0 24 24"><path d="M10.6 15.02c-.18 0-.36-.07-.49-.2l-1.86-1.86c-.27-.27-.27-.71 0-.99s.71-.27.99 0l1.37 1.37 4.16-4.16c.27-.27.71-.27.99 0s.27.71 0 .99l-4.65 4.65c-.14.14-.31.2-.49.2Zm9.83 5.41C22 18.86 22 16.57 22 12c0-.39-.31-.7-.7-.7s-.7.31-.7.7c0 4.19 0 6.29-1.16 7.45-1.16 1.16-3.26 1.16-7.45 1.16s-6.29 0-7.45-1.16C3.38 18.29 3.38 16.19 3.38 12s0-6.29 1.16-7.45C5.7 3.39 7.8 3.39 11.99 3.39s6.29 0 7.45 1.16c.71.71 1.01 1.73 1.11 3.76.02.39.35.68.73.66.39-.02.68-.35.66-.73-.1-2-.4-3.56-1.52-4.68-1.57-1.57-3.86-1.57-8.43-1.57s-6.87 0-8.43 1.57c-1.57 1.57-1.57 3.86-1.57 8.43s0 6.87 1.57 8.43c1.57 1.57 3.86 1.57 8.43 1.57s6.87 0 8.43-1.57Z"/></symbol><symbol id="icon_clear" viewBox="0 0 24 24"><path d="M13.66 20.14h-2.45c-2.19 0-3.28 0-4.3-.55s-1.61-1.46-2.77-3.27l-.63-.99c-.97-1.5-1.5-2.33-1.5-3.34s.53-1.83 1.5-3.34l.63-.99C5.3 5.85 5.89 4.94 6.91 4.39c1.02-.55 2.12-.55 4.31-.55h2.45c3.79 0 5.69 0 7.01 1.29.71.69 1.08 1.61 1.23 3.06.04.38-.24.72-.62.76-.37.05-.72-.24-.76-.62-.11-1.11-.35-1.75-.81-2.2-.92-.89-2.63-.89-6.04-.89h-2.45c-1.95 0-2.93 0-3.64.38-.7.38-1.22 1.19-2.25 2.79l-.64.99c-.85 1.32-1.28 1.99-1.28 2.58s.37 1.17 1.28 2.58l.63.98c1.03 1.61 1.55 2.41 2.26 2.8.71.38 1.69.38 3.64.38h2.45c3.41 0 5.12 0 6.04-.89.91-.88.91-2.54.91-5.85 0-.39.31-.7.7-.7s.7.31.7.7c0 3.7 0 5.56-1.33 6.85-1.32 1.29-3.22 1.29-7.01 1.29Zm1.6-5.12c-.18 0-.36-.07-.49-.2l-1.83-1.83-1.83 1.83c-.27.27-.71.27-.99 0s-.27-.71 0-.99L11.95 12l-1.83-1.83c-.27-.27-.27-.71 0-.99s.71-.27.99 0l1.83 1.83 1.83-1.83c.27-.27.71-.27.99 0s.27.71 0 .99L13.93 12l1.83 1.83c.27.27.27.71 0 .99-.14.14-.31.2-.49.2Z"/></symbol><symbol id="icon_clear_rtl" viewBox="0 0 24 24"><path d="M10.34 3.86h2.45c2.19 0 3.28 0 4.3.55s1.61 1.46 2.77 3.27l.63.99c.97 1.5 1.5 2.33 1.5 3.34s-.53 1.83-1.5 3.34l-.63.99c-1.16 1.81-1.75 2.72-2.77 3.27-1.02.55-2.12.55-4.31.55h-2.45c-3.79 0-5.69 0-7.01-1.29-.71-.69-1.08-1.61-1.23-3.06-.04-.38.24-.72.62-.76.37-.05.72.24.76.62.11 1.11.35 1.75.81 2.2.92.89 2.63.89 6.04.89h2.45c1.95 0 2.93 0 3.64-.38.7-.38 1.22-1.19 2.25-2.79l.64-.99c.85-1.32 1.28-1.99 1.28-2.58s-.37-1.17-1.28-2.58l-.63-.98c-1.03-1.61-1.55-2.41-2.26-2.8-.71-.38-1.69-.38-3.64-.38h-2.45c-3.41 0-5.12 0-6.04.89-.91.88-.91 2.54-.91 5.85 0 .39-.31.7-.7.7s-.7-.31-.7-.7c0-3.7 0-5.56 1.33-6.85 1.32-1.29 3.22-1.29 7.01-1.29Zm-1.6 5.12c.18 0 .36.07.49.2l1.83 1.83 1.83-1.83c.27-.27.71-.27.99 0s.27.71 0 .99L12.05 12l1.83 1.83c.27.27.27.71 0 .99s-.71.27-.99 0l-1.83-1.83-1.83 1.83c-.27.27-.71.27-.99 0s-.27-.71 0-.99L10.07 12l-1.83-1.83a.706.706 0 0 1 0-.99c.14-.14.31-.2.49-.2Z"/></symbol><symbol id="icon_close" viewBox="0 0 24 24"><path d="M12 22C6.49 22 2 17.51 2 12c0-1.76.46-3.49 1.34-5a.69.69 0 0 1 .95-.25c.33.19.45.62.25.95A8.626 8.626 0 0 0 3.39 12c0 4.74 3.86 8.6 8.6 8.6s8.6-3.86 8.6-8.6S16.74 3.4 12 3.4h-.01c-1.51 0-2.99.4-4.29 1.15-.33.19-.76.08-.95-.25A.698.698 0 0 1 7 3.35a9.927 9.927 0 0 1 4.99-1.34h.02c5.51 0 10 4.49 10 10s-4.49 10-10 10Zm2.33-6.98c-.18 0-.36-.07-.49-.2l-1.83-1.83-1.83 1.83c-.27.27-.71.27-.99 0s-.27-.71 0-.99L11.02 12l-1.83-1.83c-.27-.27-.27-.71 0-.99s.71-.27.99 0l1.83 1.83 1.83-1.83c.27-.27.71-.27.99 0s.27.71 0 .99L13 12l1.83 1.83c.27.27.27.71 0 .99-.14.14-.31.2-.49.2Z"/></symbol><symbol id="icon_comment" viewBox="0 0 24 24"><path d="M11.99 22c-1.53 0-3.07-.36-4.44-1.04a.812.812 0 0 0-.59-.07l-2.06.55c-.32.08-.66.09-.98 0a1.912 1.912 0 0 1-1.35-2.33l.55-2.07c.05-.18.02-.38-.07-.58a9.93 9.93 0 0 1-1.04-4.45C2 6.49 6.49 2 12 2h.02c1.75 0 3.47.46 4.98 1.34.33.19.45.62.25.95s-.62.45-.95.25a8.59 8.59 0 0 0-4.29-1.15H12C7.26 3.4 3.4 7.26 3.4 12c0 1.34.3 2.63.9 3.83.25.5.31 1.05.17 1.56l-.55 2.07c-.07.27.09.55.36.63.09.02.18.02.26 0l2.07-.55c.54-.13 1.09-.07 1.57.18 1.17.58 2.49.89 3.81.89 4.75-.08 8.62-3.86 8.62-8.6 0-1.52-.4-3-1.15-4.3a.698.698 0 0 1 .25-.95c.33-.19.76-.08.95.25.87 1.51 1.34 3.24 1.34 5 0 5.51-4.49 10-10 10h-.01Zm4.66-10c0-.51-.42-.93-.93-.93s-.93.42-.93.93.42.93.93.93.93-.42.93-.93Zm-3.72 0c0-.51-.42-.93-.93-.93s-.93.42-.93.93.42.93.93.93.93-.42.93-.93Zm-3.71 0c0-.51-.42-.93-.93-.93s-.93.42-.93.93.42.93.93.93.93-.42.93-.93Z"/></symbol><symbol id="icon_comment_text" viewBox="0 0 24 24"><path d="M11.99 22c-1.53 0-3.07-.36-4.44-1.04a.812.812 0 0 0-.59-.07l-2.06.55c-.32.08-.66.09-.98 0a1.912 1.912 0 0 1-1.35-2.33l.55-2.07c.05-.18.02-.38-.07-.58a9.93 9.93 0 0 1-1.04-4.45C2 6.49 6.49 2 12 2h.02c1.75 0 3.47.46 4.98 1.34.33.19.45.62.25.95s-.62.45-.95.25a8.59 8.59 0 0 0-4.29-1.15H12C7.26 3.4 3.4 7.26 3.4 12c0 1.34.3 2.63.9 3.83.25.5.31 1.05.17 1.56l-.55 2.07c-.07.27.09.55.36.63.09.02.18.02.26 0l2.07-.55c.54-.13 1.09-.07 1.57.18 1.17.58 2.49.89 3.81.89 4.75-.08 8.62-3.86 8.62-8.6 0-1.52-.4-3-1.15-4.3a.698.698 0 0 1 .25-.95c.33-.19.76-.08.95.25.87 1.51 1.34 3.24 1.34 5 0 5.51-4.49 10-10 10h-.01Zm1.41-7.44H8.28c-.39 0-.7-.31-.7-.7s.31-.7.7-.7h5.12c.39 0 .7.31.7.7s-.31.7-.7.7Zm2.33-3.26H8.29c-.39 0-.7-.31-.7-.7s.31-.7.7-.7h7.44c.39 0 .7.31.7.7s-.31.7-.7.7Z"/></symbol><symbol id="icon_copy" viewBox="0 0 24 24"><path d="M21.07 14.79v.93c0 2.73 0 4.24-1.02 5.26C19.03 22 17.52 22 14.79 22H12c-2.73 0-4.24 0-5.26-1.02-.48-.47-.72-1.06-.86-1.82a3.476 3.476 0 0 1-2.95-3.43v-5.58c0-.39.31-.7.7-.7s.7.31.7.7v5.58c0 .92.6 1.69 1.42 1.97-.02-.58-.02-1.23-.02-1.97v-4.65c0-2.73 0-4.24 1.02-5.26C7.77 4.8 9.27 4.8 12.01 4.8h2.79c.75 0 1.39 0 1.97.02A2.096 2.096 0 0 0 14.8 3.4h-3.72c-3.31 0-4.97 0-5.86.89-.46.46-.69 1.09-.79 2.21-.03.36-.34.63-.69.63h-.07a.71.71 0 0 1-.63-.76c.14-1.45.5-2.36 1.2-3.06 1.29-1.29 3.15-1.29 6.84-1.29h3.72c1.74 0 3.17 1.28 3.43 2.95.76.14 1.35.38 1.82.86.93.93 1.01 2.26 1.02 4.32 0 .39-.31.7-.69.7a.7.7 0 0 1-.7-.69c-.01-1.94-.1-2.83-.61-3.34-.61-.61-1.84-.61-4.27-.61h-2.79c-2.43 0-3.66 0-4.27.61-.61.61-.61 1.84-.61 4.27v4.65c0 2.43 0 3.66.61 4.27.61.61 1.84.61 4.27.61h2.79c2.44 0 3.66 0 4.27-.61.61-.61.61-1.84.61-4.27v-.93c0-.39.31-.7.7-.7s.7.31.7.7Z"/></symbol><symbol id="icon_dark" viewBox="0 0 24 24"><path d="M15.33 11.54c-.38 0-.71-.23-.85-.58l-.15-.37-.36-.14a.913.913 0 0 1-.51-.51.91.91 0 0 1 .51-1.19l.37-.15.14-.36a.912.912 0 0 1 1.7 0s.15.37.15.37l.36.14c.23.09.42.28.51.51a.91.91 0 0 1-.51 1.19l-.37.15-.14.36c-.14.35-.47.58-.85.58Zm0-2.94-.13.34c-.09.23-.28.42-.51.52l-.37.15.37.12c.24.09.42.28.52.52l.15.37.12-.37c.1-.24.28-.43.52-.52l.37-.15-.37-.12a.913.913 0 0 1-.51-.51l-.13-.35Zm-.01-.03Zm3.61-.65c-.38 0-.71-.23-.85-.58l-.4-1.02-1.01-.39a.913.913 0 0 1-.51-.51c-.09-.23-.09-.48 0-.7s.28-.4.5-.49l1.01-.4.39-1.01a.89.89 0 0 1 .52-.52.94.94 0 0 1 .7.01c.22.1.4.28.48.51l.4 1.01 1.01.4c.23.09.42.28.51.51a.91.91 0 0 1-.51 1.19l-1.02.4-.39 1.01c-.14.35-.42.56-.85.58Zm-.01-4.76-.38 1.01a.89.89 0 0 1-.52.52l-1.01.4 1.01.38c.23.09.42.28.52.52l.4 1.02.37-1.02c.09-.24.28-.42.52-.52l1.01-.4-1.02-.38a.947.947 0 0 1-.52-.52l-.4-1Zm0-.01Zm1.52 8.71-.6-.36.6.36Zm-8.31-8.29-.36-.6.36.6ZM7.7 19.46c-.33-.19-.76-.08-.95.25s-.08.76.25.95l.7-1.21Zm-4.36-2.45a.695.695 0 1 0 1.23-.65c0-.01-.02-.03-.02-.04l-1.21.7Zm17.27-5a8.6 8.6 0 0 1-8.6 8.6v1.4c5.52 0 10-4.48 10-10h-1.4Zm-17.21 0C3.4 7.25 7.25 3.4 12 3.4V2C6.48 2 2 6.48 2 12h1.4Zm11.86 2.09a5.35 5.35 0 0 1-5.35-5.35h-1.4c0 3.72 3.02 6.74 6.74 6.74v-1.4Zm4.58-2.59a5.349 5.349 0 0 1-4.58 2.59v1.4c2.36 0 4.56-1.24 5.78-3.26l-1.2-.72ZM9.91 8.75c0-1.88.98-3.61 2.59-4.58l-.72-1.19a6.75 6.75 0 0 0-3.26 5.78h1.4ZM12 3.4c-.09 0-.18-.04-.25-.11a.285.285 0 0 1-.08-.14c0-.03 0-.11.1-.17l.72 1.19c.47-.28.62-.8.56-1.21-.06-.42-.39-.95-1.06-.95v1.4Zm9.03 8.83c-.06.1-.15.1-.17.1-.05 0-.11-.04-.14-.08a.34.34 0 0 1-.11-.25h1.4c0-.67-.53-1-.95-1.06-.41-.05-.93.1-1.21.56l1.19.72ZM12 20.61c-1.51 0-2.99-.39-4.3-1.15L7 20.67a9.99 9.99 0 0 0 5 1.34v-1.4Zm-7.45-4.3a8.551 8.551 0 0 1-1.15-4.3H2c0 1.76.46 3.48 1.34 5l1.21-.7Z"/></symbol><symbol id="icon_download" viewBox="0 0 24 24"><path d="M15.08 22H8.93c-3.01 0-4.67 0-5.8-1.13C2 19.75 2 18.09 2 15.08a.77.77 0 0 1 1.54 0c0 2.68 0 4.03.68 4.71.68.68 2.02.68 4.71.68h6.15a.77.77 0 0 1 0 1.54Zm4.1-.26c-.34 0-.64-.22-.74-.56-.12-.41.12-.83.53-.95.36-.1.61-.24.82-.45.68-.68.68-2.02.68-4.71a.77.77 0 0 1 1.54 0c0 3.01 0 4.67-1.13 5.8-.39.39-.88.67-1.48.84-.07.02-.14.03-.21.03ZM12 16.87h-.05c-.08 0-.15-.02-.22-.05-.02 0-.04-.01-.05-.02a1.07 1.07 0 0 1-.22-.15l-.03-.03-4.1-4.48c-.29-.31-.26-.8.05-1.09.31-.29.8-.26 1.09.05l2.77 3.02V2.77a.77.77 0 0 1 1.54 0v11.35l2.77-3.02c.29-.31.77-.34 1.09-.05.31.29.34.77.05 1.09l-4.1 4.48-.03.03c-.06.06-.14.11-.21.15-.01 0-.03.01-.04.02-.07.03-.15.05-.24.05h-.05Z"/></symbol><symbol id="icon_home" viewBox="0 0 24 24"><path d="M12.14 16.81c-1.04 0-2.04-.33-2.89-.96a.626.626 0 0 1-.13-.88c.21-.28.6-.34.88-.13 1.26.94 3.02.93 4.28 0 .28-.21.67-.15.88.13.21.28.15.67-.13.88-.85.63-1.85.96-2.89.96ZM18.79 20c1.16-1 1.38-2.5 1.81-5.49l.23-1.62a.63.63 0 0 0-.53-.71.63.63 0 0 0-.71.53l-.23 1.62c-.39 2.68-.58 4.02-1.38 4.71-.81.7-2.18.7-4.9.7h-1.85c-2.73 0-4.1 0-4.9-.7-.81-.69-1-2.04-1.38-4.72l-.23-1.63c-.3-2.08-.45-3.12-.08-3.89s1.28-1.32 3.1-2.4l1.16-.69c3.29-1.96 3.24-1.96 6.54 0l1.16.69c1.82 1.08 2.73 1.62 3.1 2.4.15.31.52.45.84.29.31-.15.44-.52.29-.84-.54-1.12-1.62-1.76-3.59-2.93l-1.16-.69c-1.85-1.1-2.77-1.65-3.91-1.65s-2.12.59-3.91 1.65l-1.16.69C5.07 6.53 4.05 7.14 3.51 8.25s-.37 2.28-.03 4.62l.23 1.62c.43 2.99.64 4.49 1.81 5.49 1.16 1 2.68 1 5.72 1h1.85c3.04 0 4.56 0 5.72-1Z"/></symbol><symbol id="icon_label" viewBox="0 0 24 24"><path d="M13.86 21.07c-.06 0-.12 0-.19-.03a.704.704 0 0 1-.49-.86l1.05-3.77H7.31l-1.15 4.14c-.1.37-.49.59-.86.49a.704.704 0 0 1-.49-.86l1.05-3.77H2.7c-.39 0-.7-.31-.7-.7s.31-.7.7-.7h3.55l.38-1.35c.1-.37.49-.59.86-.49.37.1.59.49.49.86l-.27.98h6.92l1.42-5.12H9.13l-.37 1.35c-.1.37-.49.59-.86.49a.704.704 0 0 1-.49-.86l.27-.98H4.57c-.39 0-.7-.31-.7-.7s.31-.7.7-.7h3.5l1.41-5.07a.7.7 0 1 1 1.35.37l-1.3 4.7h6.92l1.41-5.07a.7.7 0 1 1 1.35.37l-1.3 4.7h3.42c.39 0 .7.31.7.7s-.31.7-.7.7h-3.81l-1.42 5.12h3.37c.39 0 .7.31.7.7s-.31.7-.7.7h-3.76l-1.15 4.14c-.09.31-.37.51-.67.51Z"/></symbol><symbol id="icon_light" viewBox="0 0 24 24"><path d="M12 22c-.39 0-.7-.31-.7-.7v-1.86c0-.39.31-.7.7-.7s.7.31.7.7v1.86c0 .39-.31.7-.7.7Zm-7.23-2.07c-.18 0-.36-.07-.49-.2a.706.706 0 0 1 0-.99l2.07-2.07c.27-.27.71-.27.99 0s.27.71 0 .99l-2.07 2.07c-.14.14-.31.2-.49.2Zm14.47 0c-.18 0-.36-.07-.49-.2l-2.07-2.07c-.27-.27-.27-.71 0-.99s.71-.27.99 0l2.07 2.07c.27.27.27.71 0 .99-.14.14-.31.2-.49.2Zm-7.23-2.58c-.6 0-1.2-.1-1.79-.31-1.35-.48-2.43-1.45-3.04-2.74s-.69-2.74-.22-4.09c.13-.36.53-.55.89-.43.36.13.55.53.43.89a3.954 3.954 0 0 0 5.43 4.88c.95-.46 1.67-1.25 2.02-2.25a3.95 3.95 0 0 0-5.04-5.04.695.695 0 0 1-.89-.43c-.13-.36.06-.76.43-.89a5.35 5.35 0 0 1 6.82 6.83 5.343 5.343 0 0 1-2.74 3.05c-.73.35-1.52.53-2.3.53Zm9.3-4.65h-1.86c-.39 0-.7-.31-.7-.7s.31-.7.7-.7h1.86c.39 0 .7.31.7.7s-.31.7-.7.7Zm-16.74 0H2.71c-.39 0-.7-.31-.7-.7s.31-.7.7-.7h1.86c.39 0 .7.31.7.7s-.31.7-.7.7Zm12.61-5.35a.707.707 0 0 1-.48-1.22l2.07-1.89c.28-.26.73-.24.99.04.26.28.24.73-.04.99l-2.07 1.89c-.13.12-.3.18-.47.18Zm-10.34 0c-.17 0-.34-.06-.47-.18L4.3 5.28c-.28-.26-.3-.7-.04-.99.26-.29.7-.31.99-.04l2.07 1.89a.707.707 0 0 1-.48 1.22Zm5.17-2.1c-.39 0-.7-.31-.7-.7V2.69c0-.39.31-.7.7-.7s.7.31.7.7v1.86c0 .39-.31.7-.7.7Z"/></symbol><symbol id="icon_link" viewBox="0 0 24 24"><path d="M10.36 14.3a.62.62 0 0 1-.44-.18c-1.5-1.51-1.39-4.08.25-5.73l1.8-1.81c.24-.25.64-.25.89 0 .25.24.25.64 0 .89l-1.8 1.81c-1.16 1.16-1.27 2.93-.25 3.95.24.25.24.64 0 .89a.62.62 0 0 1-.44.18Zm6.85-2.29a.62.62 0 0 1-.44-.18.622.622 0 0 1 0-.89L18.8 8.9c1.16-1.16 1.27-2.93.25-3.95-.45-.45-1.06-.69-1.73-.69-.79 0-1.6.35-2.2.95-.24.25-.64.25-.89 0a.622.622 0 0 1 0-.89C15.06 3.48 16.19 3 17.32 3c1.01 0 1.94.38 2.62 1.06 1.5 1.51 1.39 4.08-.25 5.73l-2.03 2.04a.62.62 0 0 1-.44.18ZM6.68 21c1.13 0 2.25-.48 3.09-1.32l4.06-4.08c1.64-1.65 1.76-4.22.25-5.73-.24-.25-.64-.25-.89 0s-.25.64 0 .89c1.02 1.02.9 2.79-.25 3.95l-4.06 4.08c-.6.6-1.4.95-2.2.95-.67 0-1.29-.25-1.73-.69-1.02-1.02-.9-2.79.25-3.95l2.03-2.04c.24-.25.24-.64 0-.89s-.64-.24-.89 0l-2.03 2.04c-1.64 1.65-1.76 4.22-.25 5.73.68.69 1.62 1.06 2.62 1.06Z"/></symbol><symbol id="icon_link_open" viewBox="0 0 24 24"><path d="M12.84 11.79a.62.62 0 0 1-.44-.18.622.622 0 0 1 0-.89l6.46-6.46H15.9c-.35 0-.63-.28-.63-.63s.28-.63.63-.63h4.48c.08 0 .16.02.23.05.08.03.15.08.21.14.06.06.11.13.14.21.03.07.05.15.05.23v4.48c0 .35-.28.63-.63.63s-.63-.28-.63-.63V5.15l-6.46 6.46a.62.62 0 0 1-.44.18Zm6.75 7.8C21 18.18 21 16.12 21 12c0-.35-.28-.63-.63-.63s-.63.28-.63.63c0 3.77 0 5.66-1.04 6.7s-2.93 1.04-6.7 1.04-5.66 0-6.7-1.04c-.64-.64-.91-1.55-1-3.38a.628.628 0 0 0-.66-.6c-.35.02-.61.31-.6.66.09 1.8.35 3.2 1.36 4.21C5.81 21 7.88 21 11.99 21s6.18 0 7.59-1.41ZM4.26 12c0-3.77 0-5.66 1.04-6.7S8.23 4.26 12 4.26c.35 0 .63-.28.63-.63S12.35 3 12 3C7.89 3 5.82 3 4.41 4.41 3 5.82 3 7.89 3 12c0 .35.28.63.63.63s.63-.28.63-.63Z"/></symbol><symbol id="icon_list" viewBox="0 0 24 24"><path d="M4.65 20.16h-.04a.618.618 0 0 1-.44-.23l-1.02-1.26a.622.622 0 0 1 .09-.88c.27-.22.66-.18.88.09l.59.73 3.1-2.89c.25-.24.65-.22.89.03s.22.65-.03.89l-3.59 3.35c-.12.11-.27.17-.43.17Zm0-5.86h-.04a.618.618 0 0 1-.44-.23l-1.02-1.26a.622.622 0 0 1 .09-.88c.27-.22.66-.18.88.09l.59.73 3.1-2.89c.25-.24.65-.22.89.03s.22.65-.03.89l-3.59 3.35c-.12.11-.27.17-.43.17Zm0-5.86h-.04a.618.618 0 0 1-.44-.23L3.15 6.95a.622.622 0 0 1 .09-.88c.27-.22.66-.18.88.09l.59.73L7.81 4c.25-.24.65-.22.89.03s.22.65-.03.89L5.08 8.27c-.12.11-.27.17-.43.17Zm15.73 10.05h-1.26c-.35 0-.63-.28-.63-.63s.28-.63.63-.63h1.26c.35 0 .63.28.63.63s-.28.63-.63.63Zm-4.19 0H12c-.35 0-.63-.28-.63-.63s.28-.63.63-.63h4.19c.35 0 .63.28.63.63s-.28.63-.63.63Zm4.19-5.86h-4.19c-.35 0-.63-.28-.63-.63s.28-.63.63-.63h4.19c.35 0 .63.28.63.63s-.28.63-.63.63Zm-7.12 0H12c-.35 0-.63-.28-.63-.63s.28-.63.63-.63h1.26c.35 0 .63.28.63.63s-.28.63-.63.63Zm7.12-5.86H12c-.35 0-.63-.28-.63-.63s.28-.63.63-.63h8.37c.35 0 .63.28.63.63s-.28.63-.63.63Z"/></symbol><symbol id="icon_lock" viewBox="0 0 24 24"><path d="M12 18.28c-1.41 0-2.56-1.15-2.56-2.56s1.15-2.56 2.56-2.56 2.56 1.15 2.56 2.56-1.15 2.56-2.56 2.56Zm0-3.72a1.16 1.16 0 1 0 .002 2.322A1.16 1.16 0 0 0 12 14.56Zm8.98 6.42C22 19.96 22 18.45 22 15.72s0-4.24-1.02-5.26c-.64-.64-1.48-.88-2.7-.97V8.28A6.29 6.29 0 0 0 12 2c-1.8 0-3.52.77-4.71 2.13-.26.29-.23.73.06.98.29.25.73.23.98-.06 1.79-2.03 5.2-2.14 7.12-.22.92.92 1.43 2.15 1.43 3.45v1.17H7.12V8.28c0-.28.02-.55.07-.81a.693.693 0 0 0-.57-.8.674.674 0 0 0-.8.57c-.06.34-.09.69-.09 1.05V9.5c-1.22.09-2.05.33-2.7.97-1.02 1.02-1.02 2.53-1.02 5.26s0 4.24 1.02 5.26c1.02 1.02 2.53 1.02 5.26 1.02h2.79c.39 0 .7-.31.7-.7s-.31-.7-.7-.7H8.29c-2.43 0-3.66 0-4.27-.61-.61-.61-.61-1.83-.61-4.27s0-3.66.61-4.27c.61-.61 1.83-.61 4.27-.61h7.44c2.44 0 3.66 0 4.27.61.61.61.61 1.83.61 4.27s0 3.66-.61 4.27c-.61.61-1.83.61-4.27.61h-.93c-.39 0-.7.31-.7.7s.31.7.7.7h.93c2.73 0 4.24 0 5.26-1.02Z"/></symbol><symbol id="icon_menu" viewBox="0 0 24 24"><path d="M20.23 17.91h-3.09c-.43 0-.77-.35-.77-.77s.35-.77.77-.77h3.09c.43 0 .77.35.77.77s-.35.77-.77.77Zm-7.2 0H3.77c-.43 0-.77-.35-.77-.77s.35-.77.77-.77h9.26c.43 0 .77.35.77.77s-.35.77-.77.77Zm7.2-5.14H3.77c-.43 0-.77-.35-.77-.77s.35-.77.77-.77h16.46c.43 0 .77.35.77.77s-.35.77-.77.77Zm0-5.14h-9.26c-.43 0-.77-.35-.77-.77s.35-.77.77-.77h9.26c.43 0 .77.35.77.77s-.35.77-.77.77Zm-13.37 0H3.77c-.43 0-.77-.35-.77-.77s.35-.77.77-.77h3.09c.43 0 .77.35.77.77s-.35.77-.77.77Z"/></symbol><symbol id="icon_menu_more" viewBox="0 0 24 24"><path d="M17.74 9.74c.34 0 .62.28.62.62s-.28.62-.62.62c-.57 0-1.03.46-1.03 1.03s.46 1.03 1.03 1.03 1.03-.46 1.03-1.03c0-.34.28-.62.62-.62s.62.28.62.62c0 1.24-1.01 2.26-2.26 2.26s-2.26-1.01-2.26-2.26 1.01-2.26 2.26-2.26Zm-8 2.26c0 1.24 1.01 2.26 2.26 2.26s2.26-1.01 2.26-2.26S13.25 9.74 12 9.74 9.74 10.75 9.74 12Zm1.23 0c0-.57.46-1.03 1.03-1.03s1.03.46 1.03 1.03-.46 1.03-1.03 1.03-1.03-.46-1.03-1.03ZM4 12c0 .34.28.62.62.62s.62-.28.62-.62c0-.57.46-1.03 1.03-1.03S7.3 11.43 7.3 12s-.46 1.03-1.03 1.03c-.34 0-.62.28-.62.62s.28.62.62.62c1.24 0 2.26-1.01 2.26-2.26S7.52 9.75 6.27 9.75s-2.26 1.01-2.26 2.26Zm11.49-6c0-1.24 1.01-2.26 2.26-2.26S20.01 4.75 20.01 6c0 .34-.28.62-.62.62s-.62-.28-.62-.62c0-.57-.46-1.03-1.03-1.03s-1.03.46-1.03 1.03.46 1.03 1.03 1.03c.34 0 .62.28.62.62 0 .34-.28.62-.62.62-1.24 0-2.26-1.01-2.26-2.26ZM12 8.26c1.24 0 2.26-1.01 2.26-2.26S13.25 3.74 12 3.74 9.74 4.75 9.74 6 10.75 8.26 12 8.26Zm0-3.28c.57 0 1.03.46 1.03 1.03S12.57 7.04 12 7.04s-1.03-.46-1.03-1.03.46-1.03 1.03-1.03ZM6.26 8.26C7.5 8.26 8.52 7.25 8.52 6S7.51 3.74 6.26 3.74c-.34 0-.62.28-.62.62 0 .34.28.62.62.62.57 0 1.03.46 1.03 1.03s-.46 1.03-1.03 1.03-1.03-.46-1.03-1.03c0-.34-.28-.62-.62-.62s-.62.28-.62.62c0 1.24 1.01 2.26 2.26 2.26Zm11.49 7.49c.34 0 .62.28.62.62s-.28.62-.62.62c-.57 0-1.03.46-1.03 1.03s.46 1.03 1.03 1.03 1.03-.46 1.03-1.03c0-.34.28-.62.62-.62s.62.28.62.62c0 1.24-1.01 2.26-2.26 2.26s-2.26-1.01-2.26-2.26 1.01-2.26 2.26-2.26Zm-8 2.26c0 1.24 1.01 2.26 2.26 2.26s2.26-1.01 2.26-2.26-1.01-2.26-2.26-2.26-2.26 1.01-2.26 2.26Zm1.23 0c0-.57.46-1.03 1.03-1.03s1.03.46 1.03 1.03-.46 1.03-1.03 1.03-1.03-.46-1.03-1.03Zm-6.97 0c0 .34.28.62.62.62s.62-.28.62-.62c0-.57.46-1.03 1.03-1.03s1.03.46 1.03 1.03-.46 1.03-1.03 1.03c-.34 0-.62.28-.62.62s.28.62.62.62c1.24 0 2.26-1.01 2.26-2.26s-1.01-2.26-2.26-2.26-2.26 1.01-2.26 2.26Z"/></symbol><symbol id="icon_more" viewBox="0 0 24 24"><path d="M17.74 9.74c.34 0 .62.28.62.62s-.28.62-.62.62c-.57 0-1.03.46-1.03 1.03s.46 1.03 1.03 1.03 1.03-.46 1.03-1.03c0-.34.28-.62.62-.62s.62.28.62.62c0 1.24-1.01 2.26-2.26 2.26s-2.26-1.01-2.26-2.26 1.01-2.26 2.26-2.26Zm-8 2.26c0 1.24 1.01 2.26 2.26 2.26s2.26-1.01 2.26-2.26S13.25 9.74 12 9.74 9.74 10.75 9.74 12Zm1.23 0c0-.57.46-1.03 1.03-1.03s1.03.46 1.03 1.03-.46 1.03-1.03 1.03-1.03-.46-1.03-1.03ZM4 12c0 .34.28.62.62.62s.62-.28.62-.62c0-.57.46-1.03 1.03-1.03S7.3 11.43 7.3 12s-.46 1.03-1.03 1.03c-.34 0-.62.28-.62.62s.28.62.62.62c1.24 0 2.26-1.01 2.26-2.26S7.52 9.75 6.27 9.75s-2.26 1.01-2.26 2.26Z"/></symbol><symbol id="icon_more_vertical" viewBox="0 0 24 24"><path d="M9.74 6.26c0-.34.28-.62.62-.62s.62.28.62.62c0 .57.46 1.03 1.03 1.03s1.03-.46 1.03-1.03-.46-1.03-1.03-1.03c-.34 0-.62-.28-.62-.62s.28-.62.62-.62c1.24 0 2.26 1.01 2.26 2.26s-1.01 2.26-2.26 2.26S9.75 7.5 9.75 6.25Zm2.26 8c1.24 0 2.26-1.01 2.26-2.26S13.25 9.74 12 9.74 9.74 10.75 9.74 12s1.01 2.26 2.26 2.26Zm0-1.23c-.57 0-1.03-.46-1.03-1.03s.46-1.03 1.03-1.03 1.03.46 1.03 1.03-.46 1.03-1.03 1.03ZM12 20c.34 0 .62-.28.62-.62s-.28-.62-.62-.62c-.57 0-1.03-.46-1.03-1.03s.46-1.03 1.03-1.03 1.03.46 1.03 1.03c0 .34.28.62.62.62s.62-.28.62-.62c0-1.24-1.01-2.26-2.26-2.26s-2.26 1.01-2.26 2.26 1.01 2.26 2.26 2.26Z"/></symbol><symbol id="icon_page" viewBox="0 0 24 24"><path d="M12.93 22h-1.86c-3.7 0-5.55 0-6.85-1.3-.7-.69-1.05-1.61-1.2-3.06-.04-.38.24-.72.63-.76.4-.03.73.24.76.63.11 1.11.34 1.75.79 2.2.89.89 2.55.89 5.86.89h1.86c3.31 0 4.97 0 5.86-.89.89-.88.89-2.55.89-5.86v-3.72c0-.39.31-.7.7-.7s.7.31.7.7v3.72c0 3.7 0 5.55-1.29 6.84-1.29 1.3-3.15 1.3-6.85 1.3Zm0-5.58H8.28c-.39 0-.7-.31-.7-.7s.31-.7.7-.7h4.65c.39 0 .7.31.7.7s-.31.7-.7.7Zm-9.3-1.86c-.39 0-.7-.31-.7-.7v-3.72c0-3.7 0-5.55 1.3-6.85C5.52 2 7.38 2 11.07 2h1.86c3.7 0 5.55 0 6.85 1.29.7.69 1.06 1.61 1.2 3.06.04.38-.24.72-.63.76-.38.05-.72-.24-.76-.63-.11-1.11-.34-1.75-.79-2.2-.89-.89-2.55-.89-5.86-.89h-1.86c-3.31 0-4.97 0-5.86.89-.89.88-.89 2.55-.89 5.86v3.72c0 .39-.31.7-.7.7Zm12.09-1.86H12c-.39 0-.7-.31-.7-.7s.31-.7.7-.7h3.72c.39 0 .7.31.7.7s-.31.7-.7.7Zm-6.51 0h-.93c-.39 0-.7-.31-.7-.7s.31-.7.7-.7h.93c.39 0 .7.31.7.7s-.31.7-.7.7Zm6.51-3.72h-.93c-.39 0-.7-.31-.7-.7s.31-.7.7-.7h.93c.39 0 .7.31.7.7s-.31.7-.7.7Zm-3.72 0H8.28c-.39 0-.7-.31-.7-.7s.31-.7.7-.7H12c.39 0 .7.31.7.7s-.31.7-.7.7Z"/></symbol><symbol id="icon_pin" viewBox="0 0 24 24"><path d="m15.71 5.45.49-.49-.49.49ZM8.96 18.93l-.49.49.49-.49Zm-3.83-3.84.49-.49-.49.49Zm12.05-.29-.25-.65.25.65Zm-1.78.67.25.65-.25-.65ZM7.93 8.4l.66.24-.66-.24Zm1.3-1.53.66.24-.66-.24Zm-2.96 3.9.19.67-.19-.67Zm1.36-.5-.41-.57.41.57Zm.35-.32.53.45-.53-.45Zm6.12 6.14.46.53-.46-.53Zm-.81 1.69-.67-.19.67.19Zm.5-1.35-.57-.41.57.41ZM3.35 12.71h-.7.7Zm.2-.75-.61-.35.61.35Zm7.8 8.74V20v.7Zm.73-.19-.35-.61.35.61Zm9.19-8.22.68.15-.68-.15Zm-9.56-9.56.15.68-.15-.68Zm9.92 8a.693.693 0 0 0-.95-.26c-.34.19-.45.62-.26.95l1.21-.69Zm-4.05-2.42a.7.7 0 0 0 .99-.99l-.99.99ZM9.45 18.43l-3.83-3.84-.99.99 3.83 3.84.99-.99Zm7.48-4.29-1.78.67.49 1.31 1.78-.67-.49-1.31Zm-7.7-5.26.65-1.77-1.31-.48-.65 1.77 1.31.48Zm-2.79 2.57c.66-.18 1.17-.31 1.58-.61L7.2 9.71c-.16.12-.37.18-1.13.39l.37 1.35ZM7.91 8.4c-.27.74-.36.95-.49 1.1l1.06.91c.33-.39.5-.88.74-1.52l-1.31-.48Zm.1 2.44c.17-.13.33-.27.47-.43L7.42 9.5c-.07.08-.14.15-.22.21l.82 1.13Zm7.12 3.97c-.64.24-1.13.41-1.51.75l.91 1.06c.15-.13.35-.22 1.09-.49l-.49-1.31Zm-1.19 3.15c.21-.76.28-.97.39-1.13l-1.13-.81c-.3.41-.42.92-.61 1.58l1.35.37Zm-.32-2.41c-.16.14-.3.29-.42.46l1.13.81c.06-.08.13-.16.2-.22l-.91-1.06Zm-8.01-.96c-.6-.6-1.01-1.01-1.27-1.34-.27-.33-.29-.48-.29-.54h-1.4c0 .55.27 1 .6 1.41.33.41.8.88 1.38 1.46l.99-.99Zm.46-4.5c-.79.22-1.44.39-1.92.59-.48.19-.94.46-1.21.93l1.21.7c.03-.06.13-.17.52-.33s.95-.31 1.77-.54l-.37-1.35ZM4.04 12.7c0-.14.03-.27.1-.39l-1.21-.7c-.19.33-.29.71-.29 1.1h1.4Zm4.41 6.7c.58.58 1.06 1.06 1.47 1.39.41.33.87.6 1.41.6v-1.4c-.06 0-.21-.03-.54-.29-.34-.27-.75-.68-1.35-1.28l-.99.99Zm4.14-1.82c-.23.83-.38 1.39-.54 1.78-.16.4-.27.49-.33.53l.69 1.21c.47-.27.74-.73.93-1.22.2-.49.37-1.14.59-1.93l-1.35-.37Zm-1.26 3.81c.38 0 .75-.1 1.08-.29l-.69-1.21c-.12.07-.25.1-.39.1v1.4Zm6.08-5.96c1.27-.48 2.29-.86 3.02-1.26.74-.41 1.33-.93 1.51-1.75l-1.36-.3c-.05.23-.22.48-.82.82-.62.34-1.53.69-2.84 1.18l.49 1.31Zm-1.22-10.5c-.96-.97-1.74-1.75-2.42-2.25-.68-.51-1.4-.84-2.23-.65l.3 1.36c.23-.05.53 0 1.09.41.57.42 1.26 1.11 2.26 2.11l.99-.99ZM9.87 7.09c.49-1.32.82-2.24 1.16-2.87.34-.61.58-.78.82-.83l-.3-1.36c-.82.18-1.34.78-1.74 1.53-.4.74-.78 1.77-1.25 3.06l1.31.48Zm10.54 4.31c.19.33.21.54.17.72l1.36.3c.13-.61-.02-1.17-.32-1.71l-1.21.69ZM15.2 5.92l2.37 2.37.99-.99-2.37-2.37-.99.99ZM2.19 20.83c-.26.28-.25.72.03.99.27.25.68.25.95 0l-.99-.99Zm5.32-3.35a.7.7 0 0 0-.99-.99l.99.99Zm-4.33 4.34 4.33-4.34-.99-.99-4.33 4.34.99.99Z"/></symbol><symbol id="icon_read_more" viewBox="0 0 24 24"><path d="M11.54 18.28H6.42c-.39 0-.7-.31-.7-.7s.31-.7.7-.7h5.12c.39 0 .7.31.7.7s-.31.7-.7.7Zm2.33-3.26H6.42c-.39 0-.7-.31-.7-.7s.31-.7.7-.7h7.44c.39 0 .7.31.7.7s-.31.7-.7.7Zm7.44-5.58h-3.72c-2.13 0-3.02-.02-3.48-.48s-.48-1.34-.48-3.48V3.16h-1.4v2.33c0 2.31 0 3.58.88 4.46s2.16.89 4.46.89h3.72v-1.4Zm-17.91.7c0-.39-.31-.7-.7-.7s-.7.31-.7.7h1.4Zm17.21 3.72c0 .39.31.7.7.7s.7-.31.7-.7h-1.4Zm-5.92-8.73.47-.52-.47.52Zm4.15 2.8-.47.52.47-.52Zm2.14 2.36-.64.28.64-.28ZM3.79 20.21l.49-.49-.49.49Zm16.42 0-.49-.49.49.49ZM2.1 6.35c-.04.38.24.72.63.76s.72-.24.76-.63L2.1 6.34Zm19.8 11.3c.04-.38-.24-.72-.63-.76s-.72.24-.76.63l1.39.14Zm-8.04 2.96h-3.72v1.4h3.72v-1.4ZM3.4 13.86v-3.72H2v3.72h1.4Zm17.21-.41v.41h1.4v-.41h-1.4Zm-5.92-8.32 3.68 3.31.93-1.04-3.68-3.31-.93 1.04ZM22 13.46c0-1.57.01-2.57-.38-3.45l-1.28.57c.25.56.26 1.19.26 2.89H22Zm-3.63-5.01c1.26 1.13 1.72 1.57 1.97 2.13l1.27-.57c-.4-.89-1.14-1.54-2.31-2.6l-.93 1.04Zm-8.2-5.05c1.47 0 2.03.01 2.52.2l.5-1.3c-.79-.31-1.66-.29-3.02-.29v1.4Zm5.46.69c-1.01-.91-1.64-1.49-2.43-1.8l-.5 1.3c.49.19.91.55 2 1.53l.93-1.04Zm-5.48 16.52c-1.77 0-3.03 0-3.99-.13-.93-.13-1.47-.36-1.87-.76l-.99.99c.7.7 1.58 1.01 2.67 1.15 1.07.14 2.44.14 4.18.14v-1.4ZM2 13.86c0 1.73 0 3.11.14 4.18.15 1.09.46 1.97 1.15 2.67l.99-.99c-.39-.39-.63-.93-.75-1.87-.13-.96-.13-2.22-.13-3.99H2ZM13.86 22c1.73 0 3.11 0 4.18-.14 1.09-.15 1.97-.46 2.67-1.15l-.99-.99c-.39.39-.93.63-1.87.75-.96.13-2.22.13-3.99.13V22ZM10.17 2c-1.74 0-3.12 0-4.2.14-1.09.15-1.98.46-2.68 1.15l.99.99c.39-.39.93-.63 1.88-.75.96-.13 2.23-.13 4.01-.13V2ZM3.49 6.49c.11-1.15.36-1.77.79-2.21l-.99-.99c-.78.78-1.07 1.79-1.2 3.06l1.39.14Zm17.03 11.03c-.11 1.15-.36 1.77-.79 2.21l.99.99c.78-.78 1.07-1.79 1.2-3.06l-1.39-.14Z"/></symbol><symbol id="icon_reload" viewBox="0 0 24 24"><path d="M12 22c-1.41 0-2.81-.32-4.1-.94a.8.8 0 1 1 .7-1.44c1.68.82 3.6 1 5.4.52 2-.54 3.68-1.82 4.71-3.62 1.04-1.8 1.31-3.89.78-5.89a.8.8 0 0 1 .57-.98c.44-.11.87.14.98.57.65 2.42.31 4.94-.94 7.11a9.254 9.254 0 0 1-5.69 4.36c-.8.21-1.61.32-2.42.32Zm-6.68-3.21a.81.81 0 0 1-.63-.3c-3-3.74-2.7-9.1.69-12.49C7.15 4.24 9.51 3.2 12 3.27c2.22 0 4.32.77 6 2.19V2.8c0-.44.36-.8.8-.8s.8.36.8.8v4.54c0 .11-.02.21-.06.3-.04.1-.1.19-.18.26a.87.87 0 0 1-.26.18c-.09.04-.19.06-.29.06h-4.55c-.44 0-.8-.36-.8-.8s.36-.8.8-.8h2.53A7.725 7.725 0 0 0 12 4.87c-2.07 0-4.01.8-5.48 2.27a7.74 7.74 0 0 0-.57 10.34.807.807 0 0 1-.62 1.31Z"/></symbol><symbol id="icon_search" viewBox="0 0 24 24"><path d="M20.37 21a.62.62 0 0 1-.44-.18l-2.74-2.74c-.41.35-.85.66-1.32.93-4.1 2.37-9.36.96-11.72-3.14a8.593 8.593 0 0 1 0-8.58c.17-.3.56-.4.86-.23.3.17.4.56.23.86a7.357 7.357 0 0 0 0 7.32c2.02 3.5 6.51 4.71 10.01 2.68 1.7-.98 2.91-2.56 3.41-4.45s.25-3.86-.73-5.56c-2.02-3.5-6.51-4.7-10.01-2.68-.3.17-.68.07-.86-.23-.17-.3-.07-.68.23-.86 4.1-2.37 9.36-.95 11.72 3.14 1.15 1.99 1.45 4.3.86 6.51a8.523 8.523 0 0 1-1.79 3.39l2.74 2.74c.25.25.25.64 0 .89a.62.62 0 0 1-.44.18Z"/></symbol><symbol id="icon_settings" viewBox="0 0 24 24"><path d="M12 15.49c-1.92 0-3.49-1.57-3.49-3.49S10.08 8.51 12 8.51s3.49 1.57 3.49 3.49-1.57 3.49-3.49 3.49Zm0-5.58c-1.15 0-2.09.94-2.09 2.09s.94 2.09 2.09 2.09 2.09-.94 2.09-2.09-.94-2.09-2.09-2.09ZM12 22c-.93 0-1.44 0-1.91-.2-.63-.26-1.12-.75-1.39-1.38-.14-.34-.17-.7-.18-1.04a.808.808 0 0 0-.39-.68.809.809 0 0 0-.77 0c-.42.22-.71.33-1 .37-.67.09-1.36-.1-1.89-.51-.4-.31-.65-.75-1.12-1.54-.47-.82-.73-1.26-.79-1.76-.09-.68.09-1.35.51-1.89.22-.29.52-.5.81-.68.25-.16.4-.41.4-.67s-.15-.52-.4-.67a.686.686 0 0 1-.22-.96c.2-.33.63-.43.96-.22.66.41 1.05 1.11 1.05 1.86s-.39 1.45-1.05 1.86c-.24.15-.37.26-.44.35-.19.25-.27.55-.23.86.03.23.24.59.61 1.24.38.65.58 1.01.76 1.15.24.19.55.27.86.23.12-.02.28-.08.53-.21.66-.36 1.46-.36 2.12.02.66.38 1.06 1.07 1.09 1.84.01.28.03.45.08.56.12.28.35.51.63.63.21.09.63.09 1.37.09s1.16 0 1.38-.09c.28-.12.51-.35.63-.63.05-.11.07-.28.08-.56.03-.78.43-1.46 1.08-1.84.67-.38 1.47-.38 2.14-.02.24.13.4.19.52.21.31.04.61-.04.86-.23.18-.14.4-.51.76-1.13.19-.34.34-.59.45-.8a.699.699 0 0 1 1.24.64c-.12.23-.27.5-.47.84-.47.81-.72 1.25-1.12 1.56-.54.42-1.22.6-1.89.51-.3-.04-.59-.14-1-.36a.795.795 0 0 0-.79 0c-.22.13-.37.38-.38.67-.02.46-.07.77-.18 1.04a2.56 2.56 0 0 1-1.39 1.39c-.47.19-.98.19-1.91.19Zm7.76-8.04c-.12 0-.25-.03-.36-.1-.65-.4-1.05-1.09-1.06-1.85 0-.76.39-1.46 1.05-1.87.24-.15.37-.26.45-.35.19-.24.27-.55.23-.86-.03-.23-.25-.61-.61-1.23-.38-.65-.58-1.01-.77-1.15-.25-.19-.54-.27-.86-.23-.12.02-.28.08-.53.21-.66.36-1.46.36-2.12-.02-.67-.4-1.07-1.09-1.09-1.85 0-.27-.03-.44-.08-.55-.12-.28-.35-.51-.63-.63-.21-.09-.63-.09-1.38-.09s-1.16 0-1.38.09c-.28.12-.51.35-.63.63-.05.11-.07.28-.08.56-.02.75-.42 1.44-1.08 1.83-.68.38-1.48.39-2.15.02-.24-.13-.4-.19-.52-.21-.3-.03-.61.04-.86.23-.18.14-.4.52-.76 1.15-.19.32-.33.57-.44.78a.699.699 0 0 1-1.24-.64c.12-.23.27-.5.47-.84.46-.8.72-1.24 1.12-1.55.55-.42 1.22-.6 1.89-.51.3.04.59.15 1 .36.25.14.55.14.79 0 .22-.13.37-.39.38-.67.02-.47.07-.77.19-1.05.26-.63.75-1.13 1.39-1.39.47-.19.98-.19 1.91-.19s1.44 0 1.91.19c.63.26 1.12.75 1.39 1.39.14.34.17.7.18 1.04 0 .29.16.54.39.68.23.13.52.13.77 0 .42-.22.7-.33 1-.37.68-.09 1.35.09 1.89.51.4.31.66.75 1.12 1.55.46.8.72 1.25.79 1.75.09.68-.09 1.35-.51 1.89-.23.29-.52.5-.81.68-.25.16-.4.41-.4.68 0 .27.15.52.39.67a.7.7 0 0 1-.36 1.3Z"/></symbol><symbol id="icon_share" viewBox="0 0 24 24"><path d="M16.85 21.46c-.4 0-.73-.33-.73-.73s.33-.73.73-.73c.94 0 1.7-.76 1.7-1.7s-.76-1.7-1.7-1.7-1.7.76-1.7 1.7c0 .4-.33.73-.73.73s-.73-.33-.73-.73c0-.19.02-.38.05-.56l-4.59-3.21s-.05-.03-.07-.05A3.15 3.15 0 0 1 3.99 12c0-.4.33-.73.73-.73s.73.33.73.73c0 .94.76 1.7 1.7 1.7s1.7-.76 1.7-1.7-.76-1.7-1.7-1.7c-.4 0-.73-.33-.73-.73s.33-.73.73-.73c.73 0 1.4.25 1.94.67a.18.18 0 0 1 .07-.05l4.59-3.21c-.13-.73 0-1.48.37-2.13.42-.73 1.1-1.25 1.91-1.47.81-.22 1.66-.11 2.39.32a.725.725 0 1 1-.72 1.26c-.39-.23-.85-.29-1.29-.17-.44.12-.8.4-1.03.79-.23.39-.29.85-.17 1.29.12.44.4.8.79 1.03.39.23.85.29 1.29.17.44-.12.8-.4 1.03-.79.2-.35.64-.47.99-.27.35.2.47.64.27.99-.42.73-1.1 1.25-1.91 1.47s-1.66.11-2.39-.31c-.37-.21-.68-.49-.93-.82l-4.34 3.04c.19.41.3.87.3 1.35s-.11.94-.3 1.35l4.35 3.04c.58-.75 1.48-1.24 2.5-1.24a3.15 3.15 0 1 1 0 6.3Z"/></symbol><symbol id="icon_sort_ascending" viewBox="0 0 24 24"><path d="M17.71 2c.47 0 .86.38.86.86v15.71l1.89-2.51a.85.85 0 0 1 1.2-.17c.38.28.46.82.17 1.2l-3.43 4.57a.85.85 0 0 1-1.2.17.848.848 0 0 1-.34-.69V2.86c0-.47.38-.86.86-.86ZM6.57 5.14c0-.47.38-.86.86-.86h5.71c.47 0 .86.38.86.86s-.38.86-.86.86H7.43a.86.86 0 0 1-.86-.86Zm-2.29 5.71c0-.47.38-.86.86-.86h8c.47 0 .86.38.86.86s-.38.86-.86.86h-8a.86.86 0 0 1-.86-.86Zm-2.29 5.71c0-.47.38-.86.86-.86h10.29c.47 0 .86.38.86.86s-.38.86-.86.86H2.86a.86.86 0 0 1-.86-.86Z"/></symbol><symbol id="icon_sort_descending" viewBox="0 0 24 24"><path d="M17.44 2.04c.35-.12.74 0 .96.3l3.43 4.57c.28.38.21.92-.17 1.2-.38.28-.92.21-1.2-.17l-1.89-2.51v15.71c0 .47-.38.86-.86.86s-.86-.38-.86-.86V2.86c0-.37.24-.7.59-.81ZM2 7.43c0-.47.38-.86.86-.86h10.28c.47 0 .86.38.86.86s-.38.86-.86.86H2.86A.86.86 0 0 1 2 7.43Zm2.29 5.71c0-.47.38-.86.86-.86h8c.47 0 .86.38.86.86s-.38.86-.86.86H5.14a.86.86 0 0 1-.86-.86Zm2.29 5.71c0-.47.38-.86.86-.86h5.71c.47 0 .86.38.86.86s-.38.86-.86.86H7.43a.86.86 0 0 1-.86-.86Z"/></symbol><symbol id="icon_star" viewBox="0 0 24 24"><path d="M6.97 22c-.41 0-.77-.11-1.11-.37-1.02-.77-.89-2.12-.63-4.81l.06-.64c.06-.62.08-.9.03-1.08-.05-.17-.23-.39-.62-.85l-.41-.48c-1.67-1.95-2.59-3.03-2.2-4.27.39-1.26 1.75-1.57 4.22-2.13.38-.08.75.15.83.53s-.15.75-.53.83c-1.83.41-3.04.69-3.19 1.18-.16.51.67 1.48 1.93 2.95l.4.47c.48.56.76.89.9 1.35.14.46.1.87.03 1.63l-.06.63c-.19 1.97-.32 3.26.09 3.57.38.29 1.5-.23 3.21-1.01l.56-.26c1.31-.6 1.74-.6 3.05 0l.55.25c1.65.76 2.83 1.3 3.21 1.02.4-.31.28-1.6.09-3.56l1.39-.14c.26 2.69.39 4.04-.63 4.81-1.04.8-2.32.2-4.64-.86l-.55-.26c-1.07-.49-.84-.48-1.89 0l-.56.26c-1.57.72-2.67 1.23-3.53 1.23Zm12.21-7.97a.7.7 0 0 1-.53-1.15c1.26-1.47 2.09-2.44 1.93-2.95-.15-.49-1.36-.77-3.19-1.18l-.59-.13c-.7-.16-1.12-.25-1.5-.54-.38-.29-.59-.67-.95-1.32l-.31-.55C13.13 4.58 12.47 3.4 12 3.4s-1.13 1.18-2.03 2.8l-1.22-.67C10.06 3.18 10.72 2 12.01 2s1.95 1.18 3.25 3.52l.31.55c.3.54.44.78.58.88.13.1.39.16.97.29l.59.13c2.47.56 3.82.86 4.22 2.13.39 1.24-.53 2.32-2.2 4.27-.14.16-.33.24-.53.24Z"/></symbol><symbol id="icon_translate" viewBox="0 0 24 24"><path d="M15.92 18.28c-.87 0-1.91-.28-3.58-.72-2.21-.59-3.32-.89-4.13-1.65a4.42 4.42 0 0 1-1.28-2.22c-.25-1.08.05-2.19.64-4.39l.71-2.64c.41-1.51.73-2.55 1.42-3.28a4.42 4.42 0 0 1 2.22-1.28c1.08-.26 2.19.04 4.4.64 2.21.59 3.31.89 4.12 1.64.64.6 1.08 1.37 1.28 2.22.19.8.06 1.63-.22 2.78-.09.37-.47.61-.84.51a.699.699 0 0 1-.51-.84c.26-1.09.32-1.67.21-2.14-.14-.59-.44-1.11-.88-1.52-.55-.52-1.55-.78-3.53-1.31-1.98-.53-2.98-.8-3.72-.63-.58.14-1.11.44-1.52.88-.43.46-.68 1.2-1.09 2.69l-.71 2.64c-.53 1.98-.8 2.98-.63 3.72.14.58.44 1.11.88 1.52.55.52 1.54.78 3.52 1.31 1.82.49 2.81.75 3.53.66.07 0 .13-.02.2-.03.59-.14 1.11-.44 1.52-.88.52-.55.78-1.54 1.31-3.52l1.35.36c-.59 2.2-.89 3.3-1.64 4.11a4.42 4.42 0 0 1-2.22 1.28c-.11.03-.23.05-.35.06-.15.02-.3.03-.46.03Zm-1.96-4.02c-.06 0-.12 0-.18-.02l-2.7-.72a.694.694 0 1 1 .36-1.34l2.7.72c.37.1.59.48.49.85-.08.31-.37.52-.67.52Zm2.52-2.21c-.06 0-.12 0-.18-.02l-4.49-1.2a.694.694 0 1 1 .36-1.34l4.49 1.2c.37.1.59.48.49.85-.08.31-.37.52-.67.52Zm-8.41 9.96c-.28 0-.54-.03-.8-.09a4.42 4.42 0 0 1-2.22-1.28c-.76-.81-1.06-1.92-1.65-4.12a.694.694 0 1 1 1.34-.36c.53 1.98.8 2.98 1.32 3.53.41.44.94.74 1.52.88.74.17 1.74-.1 3.72-.63 1.98-.53 2.98-.8 3.53-1.32.37-.35.65-.79.81-1.27.12-.37.51-.56.88-.45.37.12.57.51.45.88-.23.7-.64 1.35-1.18 1.85-.81.76-1.91 1.05-4.11 1.64-1.68.45-2.72.73-3.6.73Zm-4.89-8.38c-.31 0-.6-.21-.68-.53-.28-1.15-.41-1.98-.22-2.78.2-.85.64-1.62 1.28-2.22.81-.76 1.92-1.05 4.12-1.64l1.09-.29c.38-.1.75.13.85.5a.7.7 0 0 1-.5.85l-1.08.29c-1.98.53-2.98.8-3.53 1.32-.44.41-.74.94-.88 1.52-.11.47-.05 1.05.21 2.14.09.37-.14.75-.51.84-.06.01-.11.02-.17.02Z"/></symbol><symbol id="icon_verified" viewBox="0 0 24 24"><path d="M10.49 15.26c-.19 0-.39-.07-.53-.22l-2.01-2.01c-.29-.29-.29-.77 0-1.06s.77-.29 1.06 0l1.47 1.47 4.48-4.48c.29-.29.77-.29 1.06 0s.29.77 0 1.06L11 15.04c-.15.15-.34.22-.53.22Zm2.91 6.42c.39-.18.72-.46 1.32-.98.12-.11.25-.22.37-.3.19-.13.41-.22.64-.26.12-.02.24-.03.49-.05.78-.06 1.21-.09 1.61-.24.93-.33 1.66-1.05 1.99-1.99.14-.4.17-.8.24-1.61.02-.25.03-.38.05-.5.04-.23.13-.44.26-.64.06-.1.14-.18.33-.4.5-.59.77-.91.96-1.29.43-.89.43-1.92 0-2.81a.752.752 0 0 0-1-.35c-.38.18-.53.63-.35 1 .23.48.23 1.03 0 1.52-.1.2-.33.47-.79 1.02-.2.24-.3.36-.39.49-.24.36-.41.76-.49 1.18-.03.16-.05.33-.08.68-.05.65-.08 1.01-.16 1.23-.18.5-.57.89-1.07 1.07-.21.07-.55.1-1.26.16-.32.03-.49.04-.64.07a3.3 3.3 0 0 0-1.2.5c-.18.13-.36.27-.51.41-.5.42-.77.66-.98.76-.48.23-1.03.23-1.52 0-.21-.1-.48-.33-.98-.76-.26-.22-.39-.33-.53-.42-.36-.24-.76-.41-1.18-.49-.16-.03-.32-.05-.67-.08-.65-.05-1.01-.08-1.23-.16-.5-.18-.89-.57-1.07-1.07a.763.763 0 0 0-.96-.46c-.39.14-.6.57-.46.96a3.27 3.27 0 0 0 1.99 1.99c.4.14.83.18 1.63.24.24.02.36.03.48.05.23.04.44.13.64.26.1.07.19.15.39.32.61.52.92.78 1.31.97.45.21.93.32 1.41.32s.96-.11 1.4-.32ZM3.32 13.76c.38-.18.53-.63.35-1a1.76 1.76 0 0 1 0-1.52c.1-.21.33-.48.77-1 .21-.24.31-.37.4-.5.24-.36.41-.76.49-1.18.03-.16.05-.33.08-.67.05-.65.08-1.01.16-1.23.18-.5.57-.89 1.07-1.07.21-.08.55-.1 1.25-.16.32-.03.49-.04.64-.07.42-.08.82-.25 1.18-.49.14-.09.27-.2.53-.42.5-.42.77-.66.98-.76a1.76 1.76 0 0 1 1.52 0c.21.1.48.33.98.76.26.22.39.33.53.42.36.24.76.41 1.18.49.16.03.32.05.67.08.68.05 1.02.08 1.23.16.5.18.89.57 1.07 1.07.14.39.58.6.96.46.39-.14.6-.57.46-.96a3.27 3.27 0 0 0-1.99-1.99c-.41-.15-.84-.18-1.64-.24-.24-.02-.36-.03-.48-.05-.23-.04-.44-.13-.64-.26-.1-.07-.2-.15-.39-.31-.59-.51-.92-.79-1.31-.97-.89-.43-1.92-.43-2.81 0-.38.18-.69.45-1.31.97-.19.16-.28.25-.39.31-.19.13-.41.22-.64.26-.12.02-.24.03-.49.05-.78.06-1.21.09-1.61.24-.93.33-1.66 1.05-1.99 1.99-.14.4-.17.81-.24 1.61-.02.25-.03.38-.05.5-.05.23-.14.45-.27.64-.07.1-.15.19-.32.39-.52.62-.78.92-.97 1.31-.43.89-.43 1.92 0 2.81a.757.757 0 0 0 1 .36Z"/></symbol><symbol id="icon_zip" viewBox="0 0 24 24"><path d="M12.93 22h-1.86c-3.7 0-5.55 0-6.85-1.29-.7-.7-1.06-1.61-1.2-3.06-.04-.38.24-.72.63-.76.4-.04.73.24.76.63.11 1.11.34 1.75.79 2.21.88.89 2.55.89 5.86.89h1.86c3.31 0 4.97 0 5.86-.89.89-.88.89-2.55.89-5.86v-3.72c0-.39.31-.7.7-.7s.7.31.7.7v3.72c0 3.7 0 5.55-1.29 6.85-1.29 1.29-3.15 1.29-6.85 1.29Zm-9.3-7.44c-.39 0-.7-.31-.7-.7v-3.72c0-3.7 0-5.55 1.29-6.85C5.51 2 7.37 2 11.07 2h1.86c3.7 0 5.55 0 6.85 1.29.7.7 1.06 1.61 1.2 3.06.04.38-.24.72-.63.76-.38.05-.72-.24-.76-.63-.11-1.11-.34-1.75-.79-2.21-.88-.89-2.55-.89-5.86-.89h-1.86c-3.31 0-4.97 0-5.86.89-.89.88-.89 2.55-.89 5.86v3.72c0 .39-.31.7-.7.7ZM12 18.28c-1.67 0-3.02-1.36-3.02-3.02v-.12c0-.83.68-1.51 1.51-1.51h3.02c.83 0 1.51.68 1.51 1.51 0 1.78-1.36 3.14-3.02 3.14Zm-1.51-3.26-.12.23a1.63 1.63 0 0 0 3.26 0l-.12-.23h-3.02Zm2.91-2.33h-.47c-.53 0-.95 0-1.29-.34s-.34-.76-.34-1.29v-.7h-.7c-.53 0-.95 0-1.29-.34s-.34-.76-.34-1.29v-.47c0-.53 0-.95.34-1.29s.76-.34 1.29-.34h.7V5.7h-.7c-.53 0-.95 0-1.29-.34s-.34-.76-.34-1.29V3.6c0-.53 0-.95.34-1.29s.76-.34 1.29-.34h.47c.53 0 .95 0 1.29.34s.34.76.34 1.29v.7h.7c.53 0 .95 0 1.29.34s.34.76.34 1.29v.47c0 .53 0 .95-.34 1.29s-.76.34-1.29.34h-.7V8.96h.7c.53 0 .95 0 1.29.34s.34.76.34 1.29v.47c0 .53 0 .95-.34 1.29s-.76.34-1.29.34Zm-.7-1.4H13.63V10.36H12.7V11.29Zm-2.33-2.33H11.3V8.03H10.37V8.96Zm2.33-2.33H13.63V5.7H12.7V6.63ZM10.37 4.3H11.3V3.37H10.37V4.3Z"/></symbol><symbol id="icon_blogger" viewBox="0 0 24 24"><path d="M20.31 22H3.69C2.75 22 2 21.25 2 20.31V3.69C2 2.75 2.75 2 3.69 2h16.68c.88 0 1.63.75 1.63 1.69v16.62c0 .94-.75 1.69-1.69 1.69ZM12 5.31H9.5c-2.31 0-4.19 1.88-4.19 4.19v5c0 2.31 1.88 4.19 4.19 4.19h5c2.31 0 4.19-1.88 4.19-4.19v-3.31c0-.5-.38-.88-.87-.88h-.81a.82.82 0 0 1-.81-.81c0-2.31-1.88-4.19-4.19-4.19Zm2.56 10H9.5c-.44 0-.81-.37-.81-.81s.37-.81.81-.81h5.06c.44 0 .81.37.81.81s-.37.81-.81.81Zm-2.13-6.63c.44 0 .81.37.81.81s-.37.81-.81.81h-3c-.44 0-.81-.37-.81-.81s.37-.81.81-.81h3Z"/></symbol><symbol id="icon_email" viewBox="0 0 24 24"><path d="m20 8-8 5-8-5V6l8 5 8-5m0-2H4c-1.11 0-2 .89-2 2v12c0 1.1.9 2 2 2h16c1.1 0 2-.9 2-2V6a2 2 0 0 0-2-2Z"/></symbol><symbol id="icon_facebook" viewBox="0 0 24 24"><path d="M22.06 12.06C22.06 6.5 17.56 2 12 2S1.94 6.5 1.94 12.06c0 5.02 3.68 9.18 8.49 9.94v-7.03H7.88v-2.91h2.55V9.84c0-2.52 1.5-3.91 3.8-3.91 1.1 0 2.25.2 2.25.2v2.48h-1.27c-1.25 0-1.64.78-1.64 1.57v1.89h2.79l-.45 2.91h-2.34v7.03c4.81-.76 8.49-4.92 8.49-9.94Z"/></symbol><symbol id="icon_linkedin" viewBox="0 0 24 24"><path d="M19.04 19.04h-2.96V14.4c0-1.11-.02-2.53-1.54-2.53s-1.78 1.2-1.78 2.45v4.72H9.8V9.5h2.84v1.3h.04c.4-.75 1.36-1.54 2.81-1.54 3 0 3.56 1.97 3.56 4.55v5.24ZM6.45 8.19a1.72 1.72 0 1 1 0-3.44 1.72 1.72 0 0 1 0 3.44Zm1.49 10.85H4.97V9.5h2.97v9.54ZM20.52 2H3.48C2.66 2 2 2.64 2 3.44v17.12c0 .8.66 1.44 1.48 1.44h17.04c.82 0 1.48-.64 1.48-1.44V3.44c0-.8-.67-1.44-1.48-1.44Z"/></symbol><symbol id="icon_pinterest" viewBox="0 0 24 24"><path d="M12.01 2C6.5 2 2.02 6.47 2.02 11.99a9.98 9.98 0 0 0 6.35 9.3c-.09-.79-.17-2 .03-2.87.18-.78 1.17-4.96 1.17-4.96s-.3-.6-.3-1.48c0-1.39.81-2.43 1.81-2.43.85 0 1.26.64 1.26 1.41 0 .86-.54 2.14-.83 3.33-.24.99.5 1.8 1.48 1.8 1.77 0 3.14-1.87 3.14-4.57 0-2.38-1.72-4.06-4.17-4.06-2.84 0-4.51 2.13-4.51 4.33 0 .86.33 1.79.74 2.28.08.1.09.19.07.29-.08.31-.24 1-.28 1.14-.04.19-.14.23-.33.14-1.25-.57-2.03-2.4-2.03-3.87 0-3.15 2.29-6.04 6.6-6.04 3.46 0 6.16 2.47 6.16 5.77s-2.17 6.22-5.19 6.22c-1.01 0-1.96-.52-2.3-1.15l-.62 2.37c-.22.87-.84 1.96-1.25 2.62.94.29 1.92.45 2.96.45 5.51 0 9.99-4.47 9.99-9.99 0-5.52-4.48-9.99-9.99-9.99l.03-.02Z"/></symbol><symbol id="icon_reddit" viewBox="0 0 24 24"><path d="M12 2C6.48 2 2 6.48 2 12s4.48 10 10 10 10-4.48 10-10S17.52 2 12 2Zm4.18 3.95c.57 0 1.04.47 1.04 1.04 0 .58-.48 1.04-1.05 1.03-.55 0-1-.44-1.03-.98l-2.16-.46-.67 3.12c1.52.06 2.9.53 3.89 1.24.26-.26.61-.41 1.01-.41.81 0 1.46.66 1.46 1.46 0 .6-.36 1.11-.84 1.35.02.14.04.29.03.43 0 2.25-2.61 4.06-5.84 4.06s-5.84-1.81-5.84-4.06c0-.15.01-.31.04-.45a1.455 1.455 0 0 1 .59-2.79c.39 0 .75.16 1.01.41 1.01-.74 2.4-1.19 3.95-1.24l.74-3.49c.02-.07.06-.13.12-.16s.13-.05.2-.03l2.42.51c.17-.36.53-.59.92-.58ZM9.71 12c-.57 0-1.04.47-1.04 1.04s.47 1.04 1.04 1.04 1.04-.47 1.04-1.04S10.28 12 9.71 12Zm4.58 0c-.57 0-1.04.47-1.04 1.04s.47 1.04 1.04 1.04 1.04-.47 1.04-1.04S14.86 12 14.29 12Zm-4.55 3.32c-.07 0-.14.03-.19.08-.11.11-.11.28 0 .39.7.7 2.07.76 2.47.76s1.75-.05 2.47-.76c.1-.11.11-.27.02-.39a.272.272 0 0 0-.39 0c-.46.44-1.4.61-2.09.61s-1.65-.16-2.09-.61a.273.273 0 0 0-.19-.08Z"/></symbol><symbol id="icon_skype" viewBox="0 0 24 24"><path d="M12.06 17.73c-3.35 0-4.85-1.65-4.85-2.89 0-.64.47-1.08 1.11-1.08 1.44 0 1.06 2.06 3.74 2.06 1.37 0 2.13-.75 2.13-1.51 0-.46-.22-.97-1.13-1.19l-2.98-.75c-2.4-.6-2.84-1.91-2.84-3.13 0-2.54 2.38-3.49 4.62-3.49 2.06 0 4.49 1.14 4.49 2.67 0 .65-.57 1.03-1.21 1.03-1.22 0-1-1.7-3.47-1.7-1.22 0-1.91.55-1.91 1.35s.96 1.05 1.8 1.24l2.2.49c2.41.54 3.02 1.95 3.02 3.29 0 2.06-1.59 3.6-4.77 3.6m9.24-4.07-.02.11-.04-.2s.04.06.05.1c.1-.56.15-1.14.15-1.71 0-1.27-.25-2.51-.75-3.68a9.39 9.39 0 0 0-2.02-3 9.39 9.39 0 0 0-3-2.02c-1.1-.53-2.33-.78-3.61-.78-.6 0-1.2.06-1.79.17l.1.05-.2-.03.1-.02c-.8-.43-1.7-.66-2.62-.66-1.49 0-2.89.58-3.95 1.64a5.592 5.592 0 0 0-1.64 3.96c0 .95.24 1.89.7 2.71l.02-.1.03.2-.05-.1c-.1.54-.14 1.08-.14 1.63 0 1.27.25 2.51.74 3.68a9.167 9.167 0 0 0 2.02 3.01 9.31 9.31 0 0 0 3 2.03c1.16.5 2.4.75 3.67.75.55 0 1.11-.05 1.65-.15l-.1-.05.2.04-.11.03c.83.47 1.77.73 2.75.73 1.49 0 2.88-.58 3.94-1.64a5.566 5.566 0 0 0 1.63-3.96c0-.95-.25-1.89-.71-2.72"/></symbol><symbol id="icon_telegram" viewBox="0 0 24 24"><path d="M11.95 2C6.45 2.03 2 6.5 2 12c0 5.52 4.48 10 10 10s10-4.48 10-10S17.52 2 12 2h-.05Zm4.13 6.02c.08 0 .27.02.39.12.08.07.13.17.14.27.01.08.03.25.02.39-.15 1.58-.8 5.42-1.13 7.19-.14.75-.42 1-.68 1.02-.58.05-1.02-.38-1.58-.75-.88-.58-1.38-.94-2.23-1.5-.99-.65-.35-1.01.22-1.59.15-.15 2.71-2.48 2.76-2.69 0-.03.01-.12-.05-.18s-.14-.03-.21-.02c-.09.02-1.49.95-4.22 2.79-.4.27-.76.41-1.08.4-.36 0-1.04-.2-1.55-.37-.63-.2-1.12-.31-1.08-.66.02-.18.27-.36.74-.55 2.91-1.27 4.86-2.11 5.83-2.51 2.78-1.15 3.35-1.36 3.73-1.36Z"/></symbol><symbol id="icon_twitter" viewBox="0 0 24 24"><path d="M22 5.79c-.74.33-1.53.55-2.35.66.84-.51 1.49-1.31 1.8-2.28-.79.48-1.67.81-2.6 1a4.06 4.06 0 0 0-3.02-1.3c-2.25 0-4.08 1.84-4.08 4.1 0 .33.04.64.11.94-3.4-.17-6.43-1.81-8.45-4.28-.35.6-.55 1.31-.55 2.06 0 1.42.72 2.69 1.83 3.4-.68 0-1.31-.19-1.86-.48v.03a4.09 4.09 0 0 0 3.29 4.02c-.34.1-.71.14-1.08.14-.26 0-.52-.03-.76-.08.52 1.62 2.02 2.82 3.82 2.85A8.144 8.144 0 0 1 3 18.33c-.33 0-.65-.02-.98-.06a11.6 11.6 0 0 0 6.29 1.85c7.53 0 11.67-6.25 11.67-11.67v-.54c.8-.57 1.49-1.3 2.05-2.13Z"/></symbol><symbol id="icon_whatsapp" viewBox="0 0 24 24"><path d="M12.04 2c-5.46 0-9.91 4.45-9.91 9.91 0 1.75.46 3.45 1.32 4.95L2.05 22l5.25-1.38c1.45.79 3.08 1.21 4.74 1.21 5.46 0 9.91-4.45 9.91-9.91 0-2.65-1.03-5.14-2.9-7.01A9.816 9.816 0 0 0 12.04 2m.01 1.67c2.2 0 4.26.86 5.82 2.42a8.225 8.225 0 0 1 2.41 5.83c0 4.54-3.7 8.23-8.24 8.23-1.48 0-2.93-.39-4.19-1.15l-.3-.17-3.12.82.83-3.04-.2-.32a8.188 8.188 0 0 1-1.26-4.38c0-4.54 3.7-8.24 8.25-8.24M8.53 7.33c-.16 0-.43.06-.66.31-.22.25-.87.86-.87 2.07s.89 2.39 1 2.56c.14.17 1.76 2.67 4.25 3.73.59.27 1.05.42 1.41.53.59.19 1.13.16 1.56.1.48-.07 1.46-.6 1.67-1.18.21-.58.21-1.07.15-1.18-.07-.1-.23-.16-.48-.27-.25-.14-1.47-.74-1.69-.82-.23-.08-.37-.12-.56.12-.16.25-.64.81-.78.97-.15.17-.29.19-.53.07-.26-.13-1.06-.39-2-1.23-.74-.66-1.23-1.47-1.38-1.72-.12-.24-.01-.39.11-.5.11-.11.27-.29.37-.44.13-.14.17-.25.25-.41.08-.17.04-.31-.02-.43-.06-.11-.56-1.35-.77-1.84-.2-.48-.4-.42-.56-.43-.14 0-.3-.01-.47-.01Z"/></symbol><symbol id="icon_android" viewBox="0 0 24 24"><path d="M16.61 14.78c-.46 0-.84-.37-.84-.83s.38-.82.84-.82c.46 0 .84.36.84.82s-.38.83-.84.83m-9.2 0c-.46 0-.84-.37-.84-.83s.38-.82.84-.82c.46 0 .83.36.83.82s-.37.83-.83.83m9.5-5.01 1.67-2.88c.09-.17.03-.38-.13-.47-.17-.1-.38-.04-.45.13l-1.71 2.91A10.15 10.15 0 0 0 12 8.54c-1.53 0-3 .33-4.27.91L6.04 6.54a.334.334 0 0 0-.47-.13c-.17.09-.22.3-.13.47L7.1 9.76c-2.85 1.56-4.81 4.45-5.1 7.87h20c-.28-3.41-2.23-6.3-5.09-7.86Z"/></symbol></svg>