<svg xmlns="http://www.w3.org/2000/svg" viewBox="0 0 24 24" width="24" height="24" aria-hidden="true" class="hidden"><symbol id="icon_archive" viewBox="0 0 24 24"><path d="M10.71 13.93h2.57v1.29h-2.57v-1.29ZM5.57 3v16.71c0 .71.58 1.29 1.29 1.29h10.29c.71 0 1.29-.58 1.29-1.29V3H5.57Zm11.57 16.71H6.86V12h10.29v7.71Zm0-9H6.86V8.14h10.29v2.57ZM6.86 6.86V4.29h10.29v2.57H6.86Z"/></symbol><symbol id="icon_arrow_left" viewBox="0 0 24 24"><path d="m10.67 18.67.94-.94-5.05-5.06h13.45v-1.33H6.55l5.05-5.06-.94-.94-6.67 6.67 6.67 6.67Z"/></symbol><symbol id="icon_arrow_right" viewBox="0 0 24 24"><path d="m13.33 5.33-.94.94 5.05 5.06H4v1.33h13.45l-5.05 5.06.94.94 6.67-6.67-6.67-6.67Z"/></symbol><symbol id="icon_arrow_top" viewBox="0 0 24 24"><path d="m5.33 10.67.94.94 5.06-5.05v13.45h1.33V6.55l5.06 5.05.94-.94L12 4l-6.67 6.67Z"/></symbol><symbol id="icon_bookmark" viewBox="0 0 24 24"><path d="M17.14 3H6.86c-.71 0-1.29.58-1.29 1.29V21L12 17.75 18.43 21V4.29c0-.71-.58-1.29-1.29-1.29Z"/></symbol><symbol id="icon_bookmark_add" viewBox="0 0 24 24"><path d="M15.86 12v6.91L11.3 16.6l-.58-.29-.58.29-4.56 2.31V4.29h6.43V3H5.57c-.71 0-1.29.58-1.29 1.29V21l6.43-3.25L17.14 21v-9h-1.29Zm1.29-6.43V3h-1.29v2.57h-2.57v1.29h2.57v2.57h1.29V6.86h2.57V5.57h-2.57Z"/></symbol><symbol id="icon_check" viewBox="0 0 24 24"><path d="M9.75 18.16 3 11.41l1.06-1.06 5.69 5.69 10.19-10.2L21 6.9 9.75 18.15Z"/></symbol><symbol id="icon_clear" viewBox="0 0 24 24"><path d="M9.43 9.43h1.29v7.71H9.43V9.43Zm3.86 0h1.29v7.71h-1.29V9.43Zm-9-3.86v1.29h1.29v12.86c0 .71.58 1.29 1.29 1.29h10.29c.71 0 1.29-.58 1.29-1.29V6.86h1.29V5.57H4.29Zm2.57 14.14V6.86h10.29v12.86H6.86ZM9.43 3h5.14v1.29H9.43V3Z"/></symbol><symbol id="icon_clear_rtl" viewBox="0 0 24 24"><path d="M9.43 9.43h1.29v7.71H9.43V9.43Zm3.86 0h1.29v7.71h-1.29V9.43Zm-9-3.86v1.29h1.29v12.86c0 .71.58 1.29 1.29 1.29h10.29c.71 0 1.29-.58 1.29-1.29V6.86h1.29V5.57H4.29Zm2.57 14.14V6.86h10.29v12.86H6.86ZM9.43 3h5.14v1.29H9.43V3Z"/></symbol><symbol id="icon_close" viewBox="0 0 24 24"><path d="M19 6.22 17.78 5 12 10.78 6.22 5 5 6.22 10.78 12 5 17.78 6.22 19 12 13.22 17.78 19 19 17.78 13.22 12 19 6.22Z"/></symbol><symbol id="icon_comment" viewBox="0 0 24 24"><path d="M13.24 21.29 12 20.58l2.86-5h4.29c.79 0 1.43-.64 1.43-1.43V5.57c0-.79-.64-1.43-1.43-1.43H4.86c-.79 0-1.43.64-1.43 1.43v8.57c0 .79.64 1.43 1.43 1.43h6.43V17H4.86A2.86 2.86 0 0 1 2 14.14V5.57a2.86 2.86 0 0 1 2.86-2.86h14.29a2.86 2.86 0 0 1 2.86 2.86v8.57A2.86 2.86 0 0 1 19.15 17h-3.46l-2.44 4.29Zm-.53-15h-1.43v2.86H8.42v1.43h2.86v2.86h1.43v-2.86h2.86V9.15h-2.86V6.29Z"/></symbol><symbol id="icon_comment_text" viewBox="0 0 24 24"><path d="M13.24 21.29 12 20.58l2.86-5h4.29c.79 0 1.43-.64 1.43-1.43V5.57c0-.79-.64-1.43-1.43-1.43H4.86c-.79 0-1.43.64-1.43 1.43v8.57c0 .79.64 1.43 1.43 1.43h6.43V17H4.86A2.86 2.86 0 0 1 2 14.14V5.57a2.86 2.86 0 0 1 2.86-2.86h14.29a2.86 2.86 0 0 1 2.86 2.86v8.57A2.86 2.86 0 0 1 19.15 17h-3.46l-2.44 4.29ZM6.29 7h11.43v1.43H6.29V7Zm0 4.29h7.14v1.43H6.29v-1.43Z"/></symbol><symbol id="icon_copy" viewBox="0 0 24 24"><path d="M19.71 8.14v11.57H8.14V8.14h11.57m0-1.29H8.14c-.71 0-1.29.58-1.29 1.29v11.57c0 .71.58 1.29 1.29 1.29h11.57c.71 0 1.29-.58 1.29-1.29V8.14c0-.71-.58-1.29-1.29-1.29ZM4.29 13.29H3v-9C3 3.58 3.58 3 4.29 3h9v1.29h-9v9Z"/></symbol><symbol id="icon_dark" viewBox="0 0 24 24"><path d="M10.08 3.86c-1.46 6.24 2.41 12.47 8.65 13.94l.27.06a8.591 8.591 0 0 1-6.13 2.61h-.32a8.543 8.543 0 0 1-8.23-8.83 8.513 8.513 0 0 1 5.77-7.77m1.14-1.86s-.09 0-.13.01c-5.49.97-9.14 6.2-8.17 11.68.83 4.67 4.81 8.13 9.56 8.3h.38c3.28 0 6.35-1.59 8.23-4.27.24-.36.14-.84-.22-1.08a.753.753 0 0 0-.38-.13c-5.54-.49-9.63-5.37-9.14-10.9.08-.87.27-1.73.57-2.56a.775.775 0 0 0-.7-1.06Z"/></symbol><symbol id="icon_download" viewBox="0 0 24 24"><path d="M19.14 17.71v2.86H4.86v-2.86H3.43v2.86c0 .79.64 1.43 1.43 1.43h14.29c.79 0 1.43-.64 1.43-1.43v-2.86h-1.43Zm0-7.14-1.01-1.01-5.42 5.41V2h-1.43v12.98L5.86 9.57l-1.01 1.01 7.14 7.14 7.14-7.14Z"/></symbol><symbol id="icon_home" viewBox="0 0 24 24"><path d="M12.42 3.15c-.25-.2-.61-.2-.86 0l-9.94 7.76.86 1.09 1.22-.95v8.57c0 .76.62 1.38 1.38 1.38h13.85c.76 0 1.38-.62 1.38-1.38v-8.57l1.22.95.86-1.09-9.97-7.76Zm.96 16.47h-2.77v-5.54h2.77v5.54Zm1.38 0v-5.54c0-.76-.62-1.38-1.38-1.38h-2.77c-.76 0-1.38.62-1.38 1.38v5.54H5.08V9.97L12 4.58l6.92 5.4v9.64h-4.15Z"/></symbol><symbol id="icon_label" viewBox="0 0 24 24"><path d="M21 9V7.5h-4.5V3H15v4.5H9V3H7.5v4.5H3V9h4.5v6H3v1.5h4.5V21H9v-4.5h6V21h1.5v-4.5H21V15h-4.5V9H21Zm-6 6H9V9h6v6Z"/></symbol><symbol id="icon_light" viewBox="0 0 24 24"><path d="M12 9.14a2.86 2.86 0 1 1 .001 5.719A2.86 2.86 0 0 1 12 9.14m0-1.43c-2.37 0-4.29 1.92-4.29 4.29s1.92 4.29 4.29 4.29 4.29-1.92 4.29-4.29S14.37 7.71 12 7.71ZM4.42 5.43l1.01-1.01 2.5 2.5-1.01 1.01-2.5-2.5ZM2 11.29h3.57v1.43H2v-1.43Zm2.42 7.28 2.5-2.5 1.01 1.01-2.5 2.5-1.01-1.01Zm6.86-.14h1.43V22h-1.43v-3.57Zm4.78-1.36 1.01-1.01 2.5 2.5-1.01 1.01-2.5-2.5Zm2.37-5.79H22v1.43h-3.57v-1.43Zm-2.37-4.36 2.5-2.5 1.01 1.01-2.5 2.5-1.01-1.01ZM11.29 2h1.43v3.57h-1.43V2Z"/></symbol><symbol id="icon_link" viewBox="0 0 24 24"><path d="M19.94 6.17a3.58 3.58 0 0 0-5.08 0l.85.85c.94-.94 2.46-.94 3.4 0s.94 2.46 0 3.4l-4.79 4.79c-.94.94-2.46.94-3.39 0a2.39 2.39 0 0 1 0-3.39l.84-.85-.84-.85-.85.85a3.58 3.58 0 0 0 0 5.08c.68.67 1.59 1.04 2.55 1.04.96 0 1.88-.38 2.56-1.05l4.79-4.79a3.597 3.597 0 0 0-.01-5.08ZM4.93 16.99a2.39 2.39 0 0 1 0-3.39l4.79-4.79a2.39 2.39 0 0 1 3.39 0c.45.45.7 1.07.68 1.71 0 .64-.25 1.25-.7 1.71l-1.27 1.29.85.85 1.27-1.27c1.41-1.41 1.41-3.69 0-5.1s-3.69-1.41-5.1 0l-4.79 4.79a3.588 3.588 0 0 0-.01 5.08l.01.01c.68.66 1.6 1.03 2.55 1.02.96 0 1.88-.38 2.56-1.05L8.31 17c-.93.94-2.45.94-3.39 0Z"/></symbol><symbol id="icon_link_open" viewBox="0 0 24 24"><path d="M9.39 13.93c-1.76 0-3.18-1.42-3.18-3.18 0-.84.34-1.65.93-2.25l3.28-3.28a3.187 3.187 0 0 1 4.5 0 3.187 3.187 0 0 1 0 4.5l-.36.35-.91-.91.36-.36c.74-.74.74-1.94 0-2.68-.75-.72-1.93-.72-2.68 0L8.05 9.4c-.74.74-.74 1.94 0 2.68.75.72 1.93.72 2.68 0l.91.91c-.6.6-1.41.93-2.25.93Zm5.14-1.29c-1.76 0-3.18-1.42-3.18-3.18 0-.84.34-1.65.93-2.25l.36-.35.91.91-.35.35c-.74.74-.74 1.94 0 2.68.75.72 1.93.72 2.68 0l3.28-3.28c.74-.74.74-1.94 0-2.68-.75-.72-1.93-.72-2.68 0l-.91-.91c1.24-1.24 3.26-1.24 4.5 0s1.24 3.26 0 4.5l-3.28 3.28c-.6.6-1.41.93-2.25.93ZM17.14 21H4.29A1.3 1.3 0 0 1 3 19.71V6.86c0-.71.58-1.28 1.29-1.29h2.57v1.29H4.29v12.86h12.86v-6.43h1.29v6.43a1.3 1.3 0 0 1-1.29 1.29Z"/></symbol><symbol id="icon_list" viewBox="0 0 24 24"><path d="M11.31 16.15H21v1.38h-9.69v-1.38Zm0-9.69H21v1.38h-9.69V6.46ZM5.77 9.23V3.69H4.39v.69H3.01v1.38h1.38v3.46H3.01v1.38h4.14V9.22H5.77Zm1.38 11.08H3v-2.77c0-.76.62-1.38 1.38-1.38h1.38v-1.38H3V13.4h2.77c.76 0 1.38.62 1.38 1.38v1.38c0 .76-.62 1.38-1.38 1.38H4.39v1.38h2.77v1.38Z"/></symbol><symbol id="icon_lock" viewBox="0 0 24 24"><path d="M17.71 10.57h-1.43V6.29c0-2.37-1.92-4.29-4.29-4.29S7.7 3.92 7.7 6.29v4.29H6.27c-.79 0-1.43.64-1.43 1.43v8.57c0 .79.64 1.43 1.43 1.43H17.7c.79 0 1.43-.64 1.43-1.43V12c0-.79-.64-1.43-1.43-1.43ZM9.14 6.29a2.86 2.86 0 1 1 5.72 0v4.29H9.15V6.29Zm8.57 14.29H6.29V12h11.43v8.57Z"/></symbol><symbol id="icon_menu" viewBox="0 0 24 24"><path d="M3 4.5h18V6H3V4.5ZM3 18h18v1.5H3V18Zm0-9h18v1.5H3V9Zm0 4.5h18V15H3v-1.5Z"/></symbol><symbol id="icon_menu_more" viewBox="0 0 24 24"><path d="M5.6 4.4c.88 0 1.6.72 1.6 1.6s-.72 1.6-1.6 1.6S4 6.88 4 6s.72-1.6 1.6-1.6Zm6.4 0c.88 0 1.6.72 1.6 1.6s-.72 1.6-1.6 1.6-1.6-.72-1.6-1.6.72-1.6 1.6-1.6Zm6.4 0c.88 0 1.6.72 1.6 1.6s-.72 1.6-1.6 1.6-1.6-.72-1.6-1.6.72-1.6 1.6-1.6Zm-12.8 6c.88 0 1.6.72 1.6 1.6s-.72 1.6-1.6 1.6S4 12.88 4 12s.72-1.6 1.6-1.6Zm6.4 0c.88 0 1.6.72 1.6 1.6s-.72 1.6-1.6 1.6-1.6-.72-1.6-1.6.72-1.6 1.6-1.6Zm6.4 0c.88 0 1.6.72 1.6 1.6s-.72 1.6-1.6 1.6-1.6-.72-1.6-1.6.72-1.6 1.6-1.6Zm-12.8 6c.88 0 1.6.72 1.6 1.6s-.72 1.6-1.6 1.6S4 18.88 4 18s.72-1.6 1.6-1.6Zm6.4 0c.88 0 1.6.72 1.6 1.6s-.72 1.6-1.6 1.6-1.6-.72-1.6-1.6.72-1.6 1.6-1.6Zm6.4 0c.88 0 1.6.72 1.6 1.6s-.72 1.6-1.6 1.6-1.6-.72-1.6-1.6.72-1.6 1.6-1.6Z"/></symbol><symbol id="icon_more" viewBox="0 0 24 24"><path d="M5.6 10.4c.88 0 1.6.72 1.6 1.6s-.72 1.6-1.6 1.6S4 12.88 4 12s.72-1.6 1.6-1.6Zm6.4 0c.88 0 1.6.72 1.6 1.6s-.72 1.6-1.6 1.6-1.6-.72-1.6-1.6.72-1.6 1.6-1.6Zm6.4 0c.88 0 1.6.72 1.6 1.6s-.72 1.6-1.6 1.6-1.6-.72-1.6-1.6.72-1.6 1.6-1.6Z"/></symbol><symbol id="icon_more_2" viewBox="0 0 24 24"><path d="M13.6 5.6c0 .88-.72 1.6-1.6 1.6s-1.6-.72-1.6-1.6S11.12 4 12 4s1.6.72 1.6 1.6Zm0 6.4c0 .88-.72 1.6-1.6 1.6s-1.6-.72-1.6-1.6.72-1.6 1.6-1.6 1.6.72 1.6 1.6Zm0 6.4c0 .88-.72 1.6-1.6 1.6s-1.6-.72-1.6-1.6.72-1.6 1.6-1.6 1.6.72 1.6 1.6Z"/></symbol><symbol id="icon_page" viewBox="0 0 24 24"><path d="m18.93 7.21-5-5a.657.657 0 0 0-.5-.21H6.29c-.79 0-1.43.64-1.43 1.43v17.14c0 .79.64 1.43 1.43 1.43h11.43c.79 0 1.43-.64 1.43-1.43V7.71c0-.21-.07-.36-.21-.5Zm-5.5-3.5 4 4h-4v-4Zm4.29 16.86H6.29V3.43H12v4.28c0 .79.64 1.43 1.43 1.43h4.29v11.43Zm-10-4.29h8.57v1.43H7.71v-1.43Zm0-4.29h8.57v1.43H7.71v-1.43Z"/></symbol><symbol id="icon_pin" viewBox="0 0 24 24"><path d="M20.99 10.08 22 9.07 14.86 2l-.94 1.01.85.85-8.21 6.94-1.23-1.23-1.01 1 4.04 4.06L2 20.99 3.01 22l6.37-6.36 4.06 4.04.99-1.01-1.23-1.23 6.95-8.21.85.85Z"/></symbol><symbol id="icon_read_more" viewBox="0 0 24 24"><path d="M6.29 10.57h7.86V12H6.29v-1.43Zm0 3.57h9.28v1.43H6.29v-1.43ZM20.57 3.43H3.43C2.64 3.43 2 4.07 2 4.86v14.29c0 .79.64 1.43 1.43 1.43h17.14c.79 0 1.43-.64 1.43-1.43V4.86c0-.79-.64-1.43-1.43-1.43Zm0 1.43v1.43H3.43V4.86h17.14ZM3.43 19.14V7.71h17.14v11.43H3.43Z"/></symbol><symbol id="icon_reload" viewBox="0 0 24 24"><path d="M18.9 13.72a6.901 6.901 0 0 1-13.8 0c0-3.81 3.09-6.9 6.9-6.9h4.26l-2.47 2.47.97.98 4.14-4.14L14.76 2l-.97.98 2.47 2.47h-4.27c-4.57 0-8.28 3.71-8.28 8.28s3.71 8.28 8.28 8.28 8.28-3.71 8.28-8.28h-1.38Z"/></symbol><symbol id="icon_search" viewBox="0 0 24 24"><path d="m21 20.06-5.03-5.03c2.59-3.11 2.17-7.74-.94-10.33S7.29 2.53 4.7 5.64s-2.17 7.74.94 10.33a7.325 7.325 0 0 0 9.39 0L20.06 21l.94-.94ZM4.36 10.35c0-3.31 2.68-5.99 5.99-5.99s5.99 2.68 5.99 5.99-2.68 5.99-5.99 5.99-5.99-2.68-5.99-5.99Z"/></symbol><symbol id="icon_settings" viewBox="0 0 24 24"><path d="M19.88 12.54v-1.1l1.38-1.2c.52-.46.64-1.23.27-1.83l-1.69-2.87a1.45 1.45 0 0 0-1.7-.65l-1.74.59c-.3-.2-.61-.38-.94-.54l-.37-1.81c-.14-.68-.74-1.17-1.43-1.15h-3.35c-.69-.01-1.3.47-1.43 1.15l-.37 1.81c-.33.16-.64.34-.95.54l-1.7-.62c-.15-.04-.3-.05-.46-.04-.51 0-.98.27-1.24.72L2.47 8.41c-.34.59-.22 1.35.29 1.8l1.35 1.24v1.1l-1.35 1.2a1.44 1.44 0 0 0-.29 1.83l1.69 2.87a1.45 1.45 0 0 0 1.7.65l1.74-.59c.3.2.61.38.94.54l.37 1.81c.14.68.74 1.17 1.43 1.15h3.38c.69.01 1.3-.47 1.43-1.15l.37-1.81c.33-.16.64-.34.95-.54l1.73.59c.15.05.3.07.46.07.51 0 .98-.27 1.24-.72l1.63-2.87c.34-.59.22-1.35-.29-1.8l-1.35-1.24Zm-1.28 5.19-2.46-.83c-.58.49-1.23.87-1.94 1.12l-.51 2.57h-3.38l-.51-2.54c-.7-.26-1.36-.64-1.93-1.12l-2.46.8-1.69-2.87 1.95-1.72c-.13-.74-.13-1.5 0-2.24L3.72 9.13l1.69-2.87 2.46.83c.58-.49 1.23-.87 1.94-1.12l.51-2.57h3.38l.51 2.54c.7.26 1.36.64 1.93 1.12l2.46-.8 1.69 2.87-1.95 1.72c.13.74.13 1.5 0 2.24l1.95 1.77-1.69 2.87ZM12 16.3c-2.37 0-4.3-1.92-4.3-4.3S9.62 7.7 12 7.7s4.3 1.92 4.3 4.3a4.262 4.262 0 0 1-4.21 4.3H12Zm0-7.16a2.803 2.803 0 0 0-2.87 2.73V12a2.803 2.803 0 0 0 2.73 2.87h.13c1.55.04 2.83-1.19 2.87-2.73v-.13a2.803 2.803 0 0 0-2.73-2.87H12Z"/></symbol><symbol id="icon_share" viewBox="0 0 24 24"><path d="M16.93 14.47c-.93 0-1.81.43-2.39 1.16l-4.49-2.81c.16-.53.16-1.09 0-1.62l4.49-2.81c1.07 1.32 3 1.53 4.32.46s1.53-3 .46-4.32c-1.07-1.32-3-1.53-4.32-.46-.73.59-1.15 1.48-1.14 2.41 0 .27.04.55.12.81L9.49 10.1a3.07 3.07 0 0 0-4.32-.49 3.07 3.07 0 0 0-.49 4.32 3.07 3.07 0 0 0 4.81 0l4.49 2.81c-.08.26-.12.54-.12.81 0 1.7 1.38 3.07 3.07 3.07S20 19.24 20 17.55s-1.38-3.07-3.07-3.07Zm0-9.84c1.02 0 1.84.83 1.84 1.84s-.83 1.84-1.84 1.84-1.84-.83-1.84-1.84.83-1.84 1.84-1.84Zm-9.84 9.22c-1.02 0-1.84-.83-1.84-1.84s.83-1.84 1.84-1.84 1.84.83 1.84 1.84-.83 1.84-1.84 1.84Zm9.84 5.53c-1.02 0-1.84-.83-1.84-1.84s.83-1.84 1.84-1.84 1.84.83 1.84 1.84-.83 1.84-1.84 1.84Z"/></symbol><symbol id="icon_sort_ascending" viewBox="0 0 24 24"><path d="m13.29 15.86.91-.91 2.31 2.31V4.29h1.29v12.97l2.31-2.31.91.91-3.86 3.86-3.86-3.86ZM3 13.29h9v1.29H3v-1.29Zm2.57-3.86H12v1.29H5.57V9.43Zm2.57-3.86H12v1.29H8.14V5.57Z"/></symbol><symbol id="icon_sort_descending" viewBox="0 0 24 24"><path d="m13.29 15.86.91-.91 2.31 2.31V4.29h1.29v12.97l2.31-2.31.91.91-3.86 3.86-3.86-3.86ZM3 5.57h9v1.29H3V5.57Zm2.57 3.86H12v1.29H5.57V9.43Zm2.57 3.86H12v1.29H8.14v-1.29Z"/></symbol><symbol id="icon_star" viewBox="0 0 24 24"><path d="M12 3 9.07 8.93l-6.54.95 4.73 4.62-1.12 6.51 5.85-3.07 5.85 3.07-1.12-6.51 4.73-4.61-6.54-.95-2.93-5.93Z"/></symbol><symbol id="icon_translate" viewBox="0 0 24 24"><path d="M20.46 21.64H22l-4.29-10.71h-1.68l-4.29 10.71h1.54l1.14-2.86h4.89l1.14 2.86ZM15 17.35l1.87-4.69 1.88 4.69H15ZM13.43 5.92V4.49h-5V2.36H7V4.5H2v1.43h7.67c-.4 1.63-1.18 3.15-2.28 4.41-.72-.89-1.27-1.9-1.64-2.99h-1.5a11.95 11.95 0 0 0 2.14 3.99 11.981 11.981 0 0 1-3.69 2.44l.54 1.33a13.24 13.24 0 0 0 4.13-2.76c1.17 1.19 2.57 2.12 4.11 2.74l.51-1.31c-1.38-.53-2.62-1.35-3.66-2.41a12.57 12.57 0 0 0 2.8-5.45h2.29Z"/></symbol><symbol id="icon_verified" viewBox="0 0 24 24"><path d="M12 2C6.48 2 2 6.48 2 12s4.48 10 10 10 10-4.48 10-10S17.52 2 12 2Zm-1.43 13.99L7 12.42l1.14-1.14 2.44 2.44 5.29-5.29 1.14 1.13-4.4 4.4-2.03 2.03Z"/></symbol><symbol id="icon_zip" viewBox="0 0 24 24"><path d="M20.57 7h-4.29v10h1.43v-3.57h2.86c.79 0 1.43-.64 1.43-1.43V8.43C22 7.64 21.36 7 20.57 7Zm0 5h-2.86V8.43h2.86V12ZM9.14 7v1.43h2.14v7.14H9.14V17h5.71v-1.43h-2.14V8.43h2.14V7H9.14ZM7.71 7H2v1.43h4.29L2 15.57V17h5.71v-1.43H3.43l4.29-7.14V7Z"/></symbol><symbol id="icon_blogger" viewBox="0 0 24 24"><path d="M20.31 22H3.69C2.75 22 2 21.25 2 20.31V3.69C2 2.75 2.75 2 3.69 2h16.68c.88 0 1.63.75 1.63 1.69v16.62c0 .94-.75 1.69-1.69 1.69ZM12 5.31H9.5c-2.31 0-4.19 1.88-4.19 4.19v5c0 2.31 1.88 4.19 4.19 4.19h5c2.31 0 4.19-1.88 4.19-4.19v-3.31c0-.5-.38-.88-.87-.88h-.81a.82.82 0 0 1-.81-.81c0-2.31-1.88-4.19-4.19-4.19Zm2.56 10H9.5c-.44 0-.81-.37-.81-.81s.37-.81.81-.81h5.06c.44 0 .81.37.81.81s-.37.81-.81.81Zm-2.13-6.63c.44 0 .81.37.81.81s-.37.81-.81.81h-3c-.44 0-.81-.37-.81-.81s.37-.81.81-.81h3Z"/></symbol><symbol id="icon_email" viewBox="0 0 24 24"><path d="m20 8-8 5-8-5V6l8 5 8-5m0-2H4c-1.11 0-2 .89-2 2v12c0 1.1.9 2 2 2h16c1.1 0 2-.9 2-2V6a2 2 0 0 0-2-2Z"/></symbol><symbol id="icon_facebook" viewBox="0 0 24 24"><path d="M22.06 12.06C22.06 6.5 17.56 2 12 2S1.94 6.5 1.94 12.06c0 5.02 3.68 9.18 8.49 9.94v-7.03H7.88v-2.91h2.55V9.84c0-2.52 1.5-3.91 3.8-3.91 1.1 0 2.25.2 2.25.2v2.48h-1.27c-1.25 0-1.64.78-1.64 1.57v1.89h2.79l-.45 2.91h-2.34v7.03c4.81-.76 8.49-4.92 8.49-9.94Z"/></symbol><symbol id="icon_linkedin" viewBox="0 0 24 24"><path d="M19.04 19.04h-2.96V14.4c0-1.11-.02-2.53-1.54-2.53s-1.78 1.2-1.78 2.45v4.72H9.8V9.5h2.84v1.3h.04c.4-.75 1.36-1.54 2.81-1.54 3 0 3.56 1.97 3.56 4.55v5.24ZM6.45 8.19a1.72 1.72 0 1 1 0-3.44 1.72 1.72 0 0 1 0 3.44Zm1.49 10.85H4.97V9.5h2.97v9.54ZM20.52 2H3.48C2.66 2 2 2.64 2 3.44v17.12c0 .8.66 1.44 1.48 1.44h17.04c.82 0 1.48-.64 1.48-1.44V3.44c0-.8-.67-1.44-1.48-1.44Z"/></symbol><symbol id="icon_pinterest" viewBox="0 0 24 24"><path d="M12.01 2C6.5 2 2.02 6.47 2.02 11.99a9.98 9.98 0 0 0 6.35 9.3c-.09-.79-.17-2 .03-2.87.18-.78 1.17-4.96 1.17-4.96s-.3-.6-.3-1.48c0-1.39.81-2.43 1.81-2.43.85 0 1.26.64 1.26 1.41 0 .86-.54 2.14-.83 3.33-.24.99.5 1.8 1.48 1.8 1.77 0 3.14-1.87 3.14-4.57 0-2.38-1.72-4.06-4.17-4.06-2.84 0-4.51 2.13-4.51 4.33 0 .86.33 1.79.74 2.28.08.1.09.19.07.29-.08.31-.24 1-.28 1.14-.04.19-.14.23-.33.14-1.25-.57-2.03-2.4-2.03-3.87 0-3.15 2.29-6.04 6.6-6.04 3.46 0 6.16 2.47 6.16 5.77s-2.17 6.22-5.19 6.22c-1.01 0-1.96-.52-2.3-1.15l-.62 2.37c-.22.87-.84 1.96-1.25 2.62.94.29 1.92.45 2.96.45 5.51 0 9.99-4.47 9.99-9.99 0-5.52-4.48-9.99-9.99-9.99l.03-.02Z"/></symbol><symbol id="icon_reddit" viewBox="0 0 24 24"><path d="M12 2C6.48 2 2 6.48 2 12s4.48 10 10 10 10-4.48 10-10S17.52 2 12 2Zm4.18 3.95c.57 0 1.04.47 1.04 1.04 0 .58-.48 1.04-1.05 1.03-.55 0-1-.44-1.03-.98l-2.16-.46-.67 3.12c1.52.06 2.9.53 3.89 1.24.26-.26.61-.41 1.01-.41.81 0 1.46.66 1.46 1.46 0 .6-.36 1.11-.84 1.35.02.14.04.29.03.43 0 2.25-2.61 4.06-5.84 4.06s-5.84-1.81-5.84-4.06c0-.15.01-.31.04-.45a1.455 1.455 0 0 1 .59-2.79c.39 0 .75.16 1.01.41 1.01-.74 2.4-1.19 3.95-1.24l.74-3.49c.02-.07.06-.13.12-.16s.13-.05.2-.03l2.42.51c.17-.36.53-.59.92-.58ZM9.71 12c-.57 0-1.04.47-1.04 1.04s.47 1.04 1.04 1.04 1.04-.47 1.04-1.04S10.28 12 9.71 12Zm4.58 0c-.57 0-1.04.47-1.04 1.04s.47 1.04 1.04 1.04 1.04-.47 1.04-1.04S14.86 12 14.29 12Zm-4.55 3.32c-.07 0-.14.03-.19.08-.11.11-.11.28 0 .39.7.7 2.07.76 2.47.76s1.75-.05 2.47-.76c.1-.11.11-.27.02-.39a.272.272 0 0 0-.39 0c-.46.44-1.4.61-2.09.61s-1.65-.16-2.09-.61a.273.273 0 0 0-.19-.08Z"/></symbol><symbol id="icon_skype" viewBox="0 0 24 24"><path d="M12.06 17.73c-3.35 0-4.85-1.65-4.85-2.89 0-.64.47-1.08 1.11-1.08 1.44 0 1.06 2.06 3.74 2.06 1.37 0 2.13-.75 2.13-1.51 0-.46-.22-.97-1.13-1.19l-2.98-.75c-2.4-.6-2.84-1.91-2.84-3.13 0-2.54 2.38-3.49 4.62-3.49 2.06 0 4.49 1.14 4.49 2.67 0 .65-.57 1.03-1.21 1.03-1.22 0-1-1.7-3.47-1.7-1.22 0-1.91.55-1.91 1.35s.96 1.05 1.8 1.24l2.2.49c2.41.54 3.02 1.95 3.02 3.29 0 2.06-1.59 3.6-4.77 3.6m9.24-4.07-.02.11-.04-.2s.04.06.05.1c.1-.56.15-1.14.15-1.71 0-1.27-.25-2.51-.75-3.68a9.39 9.39 0 0 0-2.02-3 9.39 9.39 0 0 0-3-2.02c-1.1-.53-2.33-.78-3.61-.78-.6 0-1.2.06-1.79.17l.1.05-.2-.03.1-.02c-.8-.43-1.7-.66-2.62-.66-1.49 0-2.89.58-3.95 1.64a5.592 5.592 0 0 0-1.64 3.96c0 .95.24 1.89.7 2.71l.02-.1.03.2-.05-.1c-.1.54-.14 1.08-.14 1.63 0 1.27.25 2.51.74 3.68a9.167 9.167 0 0 0 2.02 3.01 9.31 9.31 0 0 0 3 2.03c1.16.5 2.4.75 3.67.75.55 0 1.11-.05 1.65-.15l-.1-.05.2.04-.11.03c.83.47 1.77.73 2.75.73 1.49 0 2.88-.58 3.94-1.64a5.566 5.566 0 0 0 1.63-3.96c0-.95-.25-1.89-.71-2.72"/></symbol><symbol id="icon_telegram" viewBox="0 0 24 24"><path d="M11.95 2C6.45 2.03 2 6.5 2 12c0 5.52 4.48 10 10 10s10-4.48 10-10S17.52 2 12 2h-.05Zm4.13 6.02c.08 0 .27.02.39.12.08.07.13.17.14.27.01.08.03.25.02.39-.15 1.58-.8 5.42-1.13 7.19-.14.75-.42 1-.68 1.02-.58.05-1.02-.38-1.58-.75-.88-.58-1.38-.94-2.23-1.5-.99-.65-.35-1.01.22-1.59.15-.15 2.71-2.48 2.76-2.69 0-.03.01-.12-.05-.18s-.14-.03-.21-.02c-.09.02-1.49.95-4.22 2.79-.4.27-.76.41-1.08.4-.36 0-1.04-.2-1.55-.37-.63-.2-1.12-.31-1.08-.66.02-.18.27-.36.74-.55 2.91-1.27 4.86-2.11 5.83-2.51 2.78-1.15 3.35-1.36 3.73-1.36Z"/></symbol><symbol id="icon_twitter" viewBox="0 0 24 24"><path d="M22 5.79c-.74.33-1.53.55-2.35.66.84-.51 1.49-1.31 1.8-2.28-.79.48-1.67.81-2.6 1a4.06 4.06 0 0 0-3.02-1.3c-2.25 0-4.08 1.84-4.08 4.1 0 .33.04.64.11.94-3.4-.17-6.43-1.81-8.45-4.28-.35.6-.55 1.31-.55 2.06 0 1.42.72 2.69 1.83 3.4-.68 0-1.31-.19-1.86-.48v.03a4.09 4.09 0 0 0 3.29 4.02c-.34.1-.71.14-1.08.14-.26 0-.52-.03-.76-.08.52 1.62 2.02 2.82 3.82 2.85A8.144 8.144 0 0 1 3 18.33c-.33 0-.65-.02-.98-.06a11.6 11.6 0 0 0 6.29 1.85c7.53 0 11.67-6.25 11.67-11.67v-.54c.8-.57 1.49-1.3 2.05-2.13Z"/></symbol><symbol id="icon_whatsapp" viewBox="0 0 24 24"><path d="M12.04 2c-5.46 0-9.91 4.45-9.91 9.91 0 1.75.46 3.45 1.32 4.95L2.05 22l5.25-1.38c1.45.79 3.08 1.21 4.74 1.21 5.46 0 9.91-4.45 9.91-9.91 0-2.65-1.03-5.14-2.9-7.01A9.816 9.816 0 0 0 12.04 2m.01 1.67c2.2 0 4.26.86 5.82 2.42a8.225 8.225 0 0 1 2.41 5.83c0 4.54-3.7 8.23-8.24 8.23-1.48 0-2.93-.39-4.19-1.15l-.3-.17-3.12.82.83-3.04-.2-.32a8.188 8.188 0 0 1-1.26-4.38c0-4.54 3.7-8.24 8.25-8.24M8.53 7.33c-.16 0-.43.06-.66.31-.22.25-.87.86-.87 2.07s.89 2.39 1 2.56c.14.17 1.76 2.67 4.25 3.73.59.27 1.05.42 1.41.53.59.19 1.13.16 1.56.1.48-.07 1.46-.6 1.67-1.18.21-.58.21-1.07.15-1.18-.07-.1-.23-.16-.48-.27-.25-.14-1.47-.74-1.69-.82-.23-.08-.37-.12-.56.12-.16.25-.64.81-.78.97-.15.17-.29.19-.53.07-.26-.13-1.06-.39-2-1.23-.74-.66-1.23-1.47-1.38-1.72-.12-.24-.01-.39.11-.5.11-.11.27-.29.37-.44.13-.14.17-.25.25-.41.08-.17.04-.31-.02-.43-.06-.11-.56-1.35-.77-1.84-.2-.48-.4-.42-.56-.43-.14 0-.3-.01-.47-.01Z"/></symbol><symbol id="icon_android" viewBox="0 0 24 24"><path d="M16.61 14.78c-.46 0-.84-.37-.84-.83s.38-.82.84-.82c.46 0 .84.36.84.82s-.38.83-.84.83m-9.2 0c-.46 0-.84-.37-.84-.83s.38-.82.84-.82c.46 0 .83.36.83.82s-.37.83-.83.83m9.5-5.01 1.67-2.88c.09-.17.03-.38-.13-.47-.17-.1-.38-.04-.45.13l-1.71 2.91A10.15 10.15 0 0 0 12 8.54c-1.53 0-3 .33-4.27.91L6.04 6.54a.334.334 0 0 0-.47-.13c-.17.09-.22.3-.13.47L7.1 9.76c-2.85 1.56-4.81 4.45-5.1 7.87h20c-.28-3.41-2.23-6.3-5.09-7.86Z"/></symbol></svg>