<svg xmlns="http://www.w3.org/2000/svg" viewBox="0 0 24 24" width="24" height="24" aria-hidden="true" class="hidden"><symbol id="icon_archive" viewBox="0 0 24 24"><path d="M19.71 5.57H4.29C3.58 5.57 3 6.15 3 6.86v1.93c0 .71.58 1.29 1.29 1.29v7.07c0 .71.58 1.29 1.29 1.29h12.86c.71 0 1.29-.58 1.29-1.29v-7.07c.71 0 1.29-.58 1.29-1.29V6.86c0-.71-.58-1.29-1.29-1.29Zm-1.29 11.57H5.57v-7.07h12.86v7.07Zm1.29-8.36H4.29V6.85h15.43v1.93ZM9.42 12.64c0-.36.29-.64.64-.64h3.86c.36 0 .64.29.64.64s-.29.64-.64.64h-3.86c-.36 0-.64-.29-.64-.64Z"/></symbol><symbol id="icon_arrow_left" viewBox="0 0 24 24"><path d="m4.2 11.53 6-6a.664.664 0 1 1 .94.94l-4.86 4.86h13.06a.67.67 0 0 1 0 1.34H6.28l4.86 4.86a.664.664 0 1 1-.94.94l-6-6a.664.664 0 0 1 0-.94Z"/></symbol><symbol id="icon_arrow_right" viewBox="0 0 24 24"><path d="m19.8 12.47-6 6a.664.664 0 1 1-.94-.94l4.86-4.86H4.67a.67.67 0 0 1 0-1.34h13.06l-4.86-4.86a.664.664 0 1 1 .94-.94l6 6c.26.26.26.68 0 .94Z"/></symbol><symbol id="icon_arrow_top" viewBox="0 0 24 24"><path d="m12.47 4.2 6 6a.664.664 0 1 1-.94.94l-4.86-4.86v13.06a.67.67 0 0 1-1.34 0V6.28l-4.86 4.86a.664.664 0 1 1-.94-.94l6-6c.26-.26.68-.26.94 0Z"/></symbol><symbol id="icon_bookmark" viewBox="0 0 24 24"><path d="M17.04 3H6.96c-.8 0-1.44.64-1.44 1.44v15.84a.717.717 0 0 0 1.1.61L12 17.53l5.38 3.36c.34.21.78.11.99-.23a.73.73 0 0 0 .11-.38V4.44c0-.8-.64-1.44-1.44-1.44Z"/></symbol><symbol id="icon_bookmark_add" viewBox="0 0 24 24"><path d="M17.04 3H6.96c-.8 0-1.44.64-1.44 1.44v15.84a.717.717 0 0 0 1.1.61L12 17.53l5.38 3.36c.34.21.78.11.99-.23a.73.73 0 0 0 .11-.38V4.44c0-.8-.64-1.44-1.44-1.44Zm0 15.98-4.66-2.91a.698.698 0 0 0-.76 0l-4.66 2.91V4.44h10.08v14.54Z"/></symbol><symbol id="icon_check" viewBox="0 0 24 24"><path d="M19.81 7.33 9.57 17.57c-.25.25-.65.25-.91 0l-4.48-4.48c-.25-.25-.25-.66 0-.91s.66-.25.91 0l4.03 4.03 9.79-9.78c.25-.25.66-.25.91 0s.25.66 0 .91Z"/></symbol><symbol id="icon_clear" viewBox="0 0 24 24"><path d="M19.71 4.93H7.86c-.45 0-.87.24-1.1.62l-3.67 6.12a.65.65 0 0 0 0 .66l3.67 6.12c.23.39.65.62 1.1.62h11.85c.71 0 1.29-.58 1.29-1.29V6.21c0-.71-.58-1.29-1.29-1.29ZM7.31 18.12l.55-.33-.55.33Zm12.4-.33H7.86L4.39 12l3.47-5.79h11.85v11.57Zm-8.81-4.31 1.47-1.47-1.47-1.47c-.25-.25-.25-.66 0-.91s.66-.25.91 0l1.47 1.47 1.47-1.47c.25-.25.66-.25.91 0s.25.66 0 .91l-1.47 1.47 1.47 1.47c.25.25.25.66 0 .91s-.66.25-.91 0l-1.47-1.47-1.47 1.47c-.25.25-.66.25-.91 0a.646.646 0 0 1 0-.91Z"/></symbol><symbol id="icon_clear_rtl" viewBox="0 0 24 24"><path d="M4.29 19.07h11.85c.45 0 .87-.24 1.1-.62l3.67-6.12a.65.65 0 0 0 0-.66l-3.67-6.12a1.27 1.27 0 0 0-1.1-.62H4.29C3.58 4.93 3 5.51 3 6.22v11.57c0 .71.58 1.29 1.29 1.29Zm12.4-13.19-.55.33.55-.33Zm-12.4.33h11.85L19.61 12l-3.47 5.79H4.29V6.21Zm8.81 4.31-1.47 1.47 1.47 1.47c.25.25.25.66 0 .91s-.66.25-.91 0l-1.47-1.47-1.47 1.47c-.25.25-.66.25-.91 0a.646.646 0 0 1 0-.91l1.47-1.47-1.47-1.47c-.25-.25-.25-.66 0-.91s.66-.25.91 0l1.47 1.47 1.47-1.47c.25-.25.66-.25.91 0s.25.66 0 .91Z"/></symbol><symbol id="icon_close" viewBox="0 0 24 24"><path d="M18.79 17.8c.27.27.27.72 0 .99s-.72.27-.99 0L12 12.98l-5.8 5.81c-.27.27-.72.27-.99 0s-.27-.72 0-.99l5.81-5.8-5.81-5.8c-.27-.27-.27-.72 0-.99s.72-.27.99 0l5.8 5.81 5.8-5.81c.27-.27.72-.27.99 0s.27.72 0 .99L12.98 12l5.81 5.8Z"/></symbol><symbol id="icon_comment" viewBox="0 0 24 24"><path d="M10.85 10.46c0-.64.52-1.15 1.15-1.15s1.15.52 1.15 1.15-.52 1.15-1.15 1.15-1.15-.52-1.15-1.15Zm5.38 1.15c.64 0 1.15-.52 1.15-1.15s-.52-1.15-1.15-1.15-1.15.52-1.15 1.15.52 1.15 1.15 1.15ZM22 4.3v12.31c0 .85-.69 1.54-1.54 1.54h-5.72l-1.43 2.34c-.44.73-1.39.96-2.11.52-.21-.13-.39-.31-.52-.53l-1.42-2.33H3.54c-.85 0-1.54-.69-1.54-1.54V4.31c0-.85.69-1.54 1.54-1.54h16.92c.85 0 1.54.69 1.54 1.54Zm-1.54 0H3.54v12.31h5.72c.54 0 1.04.28 1.32.74l1.43 2.33 1.43-2.34c.28-.46.78-.74 1.32-.74h5.72V4.31ZM7.77 11.62c.64 0 1.15-.52 1.15-1.15S8.4 9.32 7.77 9.32s-1.15.52-1.15 1.15.52 1.15 1.15 1.15Z"/></symbol><symbol id="icon_comment_text" viewBox="0 0 24 24"><path d="M8.15 8.92c0-.42.34-.77.77-.77h6.15a.77.77 0 0 1 0 1.54H8.92a.77.77 0 0 1-.77-.77Zm.77 3.85h6.15a.77.77 0 0 0 0-1.54H8.92a.77.77 0 0 0 0 1.54ZM22 4.31v12.31c0 .85-.69 1.54-1.54 1.54h-5.72l-1.43 2.34c-.44.73-1.39.96-2.11.52-.21-.13-.39-.31-.52-.53l-1.42-2.33H3.54c-.85 0-1.54-.69-1.54-1.54V4.31c0-.85.69-1.54 1.54-1.54h16.92c.85 0 1.54.69 1.54 1.54Zm-1.54 0H3.54v12.31h5.72c.54 0 1.04.28 1.32.74l1.43 2.33 1.43-2.34c.28-.46.78-.74 1.32-.74h5.72V4.31Z"/></symbol><symbol id="icon_copy" viewBox="0 0 24 24"><path d="M21.17 2H7.83c-.46 0-.83.37-.83.83V7H2.83c-.46 0-.83.37-.83.83v13.33c0 .46.37.83.83.83h13.33c.46 0 .83-.37.83-.83v-4.17h4.17c.46 0 .83-.37.83-.83V2.83c0-.46-.37-.83-.83-.83Zm-5.83 18.33H3.67V8.67h11.66v11.67Zm5-5h-3.33v-7.5c0-.46-.37-.83-.83-.83h-7.5V3.67h11.67v11.66Z"/></symbol><symbol id="icon_dark" viewBox="0 0 24 24"><path d="M22 9.31c0 .42-.34.77-.77.77h-1.54v1.54a.77.77 0 0 1-1.54 0v-1.54h-1.54a.77.77 0 0 1 0-1.54h1.54V7a.77.77 0 0 1 1.54 0v1.54h1.54c.42 0 .77.34.77.77Zm-9.23-3.85h.77v.77a.77.77 0 0 0 1.54 0v-.77h.77a.77.77 0 0 0 0-1.54h-.77v-.77a.77.77 0 0 0-1.54 0v.77h-.77a.77.77 0 0 0 0 1.54Zm7 9.33c.18.21.24.51.14.77-1.76 4.79-7.06 7.25-11.85 5.49C3.27 19.29.81 13.99 2.57 9.2a9.2 9.2 0 0 1 5.49-5.49.77.77 0 0 1 1.02.87c-.91 4.59 2.08 9.04 6.67 9.95 1.08.21 2.2.21 3.28 0 .27-.05.55.04.73.26Zm-1.86 1.43c-.17 0-.35.01-.52.01-5.52 0-10-4.48-10-10 0-.17 0-.35.01-.52-3.68 2.12-4.95 6.82-2.83 10.51s6.82 4.95 10.51 2.83a7.683 7.683 0 0 0 2.83-2.83Z"/></symbol><symbol id="icon_download" viewBox="0 0 24 24"><path d="M20 14v4.67c0 .74-.6 1.33-1.33 1.33H5.33C4.59 20 4 19.4 4 18.67V14a.67.67 0 0 1 1.34 0v4.67h13.33V14a.67.67 0 0 1 1.34 0Zm-8.47.47c.26.26.68.26.94 0l3.33-3.33a.664.664 0 1 0-.94-.94l-2.19 2.2V4.67a.67.67 0 0 0-1.34 0v7.72l-2.19-2.2a.664.664 0 1 0-.94.94l3.33 3.33Z"/></symbol><symbol id="icon_home" viewBox="0 0 24 24"><path d="m20.18 10.18-7.21-6.8c-.55-.5-1.39-.5-1.94 0s-7.21 6.8-7.21 6.8c-.3.27-.47.66-.47 1.06v8.32c0 .8.64 1.44 1.44 1.44h4.32c.8 0 1.44-.64 1.44-1.44v-4.32h2.88v4.32c0 .8.64 1.44 1.44 1.44h4.32c.8 0 1.44-.64 1.44-1.44v-8.32c0-.4-.17-.79-.47-1.06Zm-.97 9.38h-4.32v-4.32c0-.8-.64-1.44-1.44-1.44h-2.88c-.8 0-1.44.64-1.44 1.44v4.32H4.8v-8.32l7.19-6.8 7.19 6.79v8.33Z"/></symbol><symbol id="icon_label" viewBox="0 0 24 24"><path d="M21.23 8.15h-4.67l.81-4.48a.769.769 0 0 0-.63-.88c-.41-.07-.8.2-.88.61l-.87 4.75H10.4l.81-4.48a.769.769 0 0 0-.63-.88c-.41-.07-.8.2-.88.61l-.86 4.75H4.31a.77.77 0 0 0 0 1.54h4.25l-.84 4.62H2.77a.77.77 0 0 0 0 1.54h4.67l-.81 4.48c-.08.42.2.82.62.89.05 0 .09.01.14.01.37 0 .69-.27.76-.63l.87-4.75h4.59l-.81 4.48c-.08.42.2.82.62.89.05 0 .09.01.14.01.37 0 .69-.27.76-.63l.87-4.75h4.53a.77.77 0 0 0 0-1.54h-4.25l.84-4.62h4.95a.77.77 0 0 0 0-1.54Zm-7.36 6.15H9.28l.84-4.62h4.59l-.84 4.62Z"/></symbol><symbol id="icon_light" viewBox="0 0 24 24"><path d="M11.33 4.67v-2a.67.67 0 0 1 1.34 0v2a.67.67 0 0 1-1.34 0Zm6 7.33c0 2.95-2.39 5.33-5.33 5.33S6.67 14.94 6.67 12 9.06 6.67 12 6.67s5.33 2.39 5.33 5.33ZM16 12c0-2.21-1.79-4-4-4s-4 1.79-4 4 1.79 4 4 4 4-1.79 4-4ZM6.2 7.14a.664.664 0 1 0 .94-.94L5.81 4.87a.664.664 0 1 0-.94.94L6.2 7.14Zm0 9.72-1.33 1.33a.664.664 0 1 0 .94.94l1.33-1.33a.664.664 0 1 0-.94-.94Zm11.13-9.53c.18 0 .35-.07.47-.19l1.33-1.33a.664.664 0 1 0-.94-.94L16.86 6.2c-.26.26-.26.68 0 .94.13.13.3.2.47.2Zm.47 9.53a.664.664 0 1 0-.94.94l1.33 1.33a.664.664 0 1 0 .94-.94l-1.33-1.33ZM5.33 12c0-.37-.3-.67-.67-.67H2.67a.67.67 0 0 0 0 1.34h2c.37 0 .67-.3.67-.67ZM12 18.67c-.37 0-.67.3-.67.67v2a.67.67 0 0 0 1.34 0v-2c0-.37-.3-.67-.67-.67Zm9.33-7.33h-2a.67.67 0 0 0 0 1.34h2a.67.67 0 0 0 0-1.34Z"/></symbol><symbol id="icon_link" viewBox="0 0 24 24"><path d="M12.9 17.47c.29.29.29.77 0 1.06l-.93.94a5.257 5.257 0 0 1-7.43 0 5.257 5.257 0 0 1 0-7.43L6.8 9.78a5.242 5.242 0 0 1 7.2-.21c.31.28.34.75.06 1.06-.28.31-.75.34-1.06.06a3.75 3.75 0 0 0-5.14.15L5.6 13.1a3.754 3.754 0 0 0 0 5.3 3.754 3.754 0 0 0 5.3 0l.93-.93c.29-.29.77-.29 1.06 0Zm6.57-12.93a5.245 5.245 0 0 0-7.42 0l-.93.93c-.29.29-.29.77 0 1.06.29.29.77.29 1.06 0l.93-.93c1.46-1.46 3.84-1.46 5.3 0s1.46 3.84 0 5.3l-2.26 2.26a3.75 3.75 0 0 1-5.14.15.746.746 0 0 0-1.06.06c-.28.31-.25.79.06 1.06a5.252 5.252 0 0 0 7.2-.21l2.26-2.26a5.257 5.257 0 0 0 0-7.43Z"/></symbol><symbol id="icon_link_open" viewBox="0 0 24 24"><path d="M19.5 3h-15C3.67 3 3 3.67 3 4.5v15c0 .83.67 1.5 1.5 1.5h15c.83 0 1.5-.67 1.5-1.5v-15c0-.83-.67-1.5-1.5-1.5Zm0 16.5h-15v-15h15v15ZM8.47 15.53a.754.754 0 0 1 0-1.06l4.72-4.72H10.5c-.41 0-.75-.34-.75-.75s.34-.75.75-.75H15c.41 0 .75.34.75.75v4.5c0 .41-.34.75-.75.75s-.75-.34-.75-.75v-2.69l-4.72 4.72c-.29.29-.77.29-1.06 0Z"/></symbol><symbol id="icon_list" viewBox="0 0 24 24"><path d="M21 12.37c0 .41-.34.75-.75.75H9.76c-.41 0-.75-.34-.75-.75s.34-.75.75-.75h10.49c.41 0 .75.34.75.75ZM9.76 7.13h10.49c.41 0 .75-.34.75-.75s-.34-.75-.75-.75H9.76c-.41 0-.75.34-.75.75s.34.75.75.75Zm10.49 10.49H9.76c-.41 0-.75.34-.75.75s.34.75.75.75h10.49c.41 0 .75-.34.75-.75s-.34-.75-.75-.75ZM4.1 5.55l.41-.21v4.78c0 .41.34.75.75.75s.75-.34.75-.75V4.13a.749.749 0 0 0-1.09-.67l-1.5.75c-.37.19-.52.64-.34 1.01.19.37.64.52 1.01.34Zm3.39 9.51c-.08-.6-.41-1.14-.9-1.49a2.326 2.326 0 0 0-3.19.44c-.14.18-.26.39-.33.61-.17.38 0 .82.38.99.38.17.82 0 .99-.38l.03-.09c.03-.07.06-.14.11-.2.27-.34.77-.41 1.12-.15.17.12.28.3.31.5.03.19-.03.39-.15.54v.01l-2.69 3.59a.75.75 0 0 0 .6 1.2h3c.41 0 .75-.34.75-.75s-.34-.75-.75-.75h-1.5l1.79-2.39c.37-.47.52-1.07.44-1.66Z"/></symbol><symbol id="icon_lock" viewBox="0 0 24 24"><path d="M19.41 8.67h-2.96V6.45c0-2.45-1.99-4.44-4.44-4.44S7.57 4 7.57 6.45v2.22H4.61c-.82 0-1.48.66-1.48 1.48v10.37c0 .82.66 1.48 1.48 1.48h14.81c.82 0 1.48-.66 1.48-1.48V10.15c0-.82-.66-1.48-1.48-1.48ZM9.04 6.45a2.96 2.96 0 1 1 5.92 0v2.22H9.03V6.45Zm10.37 14.07H4.59V10.15H19.4v10.37Zm-6.3-5.19c0 .61-.5 1.11-1.11 1.11s-1.11-.5-1.11-1.11.5-1.11 1.11-1.11 1.11.5 1.11 1.11Z"/></symbol><symbol id="icon_menu" viewBox="0 0 24 24"><path d="M21 12c0 .41-.34.75-.75.75H3.75c-.41 0-.75-.34-.75-.75s.34-.75.75-.75h16.5c.41 0 .75.34.75.75ZM3.75 6.75h16.5c.41 0 .75-.34.75-.75s-.34-.75-.75-.75H3.75c-.41 0-.75.34-.75.75s.34.75.75.75Zm16.5 10.5H3.75c-.41 0-.75.34-.75.75s.34.75.75.75h16.5c.41 0 .75-.34.75-.75s-.34-.75-.75-.75Z"/></symbol><symbol id="icon_menu_more" viewBox="0 0 24 24"><path d="M6.4 5.2c0 .66-.54 1.2-1.2 1.2S4 5.86 4 5.2 4.54 4 5.2 4s1.2.54 1.2 1.2ZM12 4c-.66 0-1.2.54-1.2 1.2s.54 1.2 1.2 1.2 1.2-.54 1.2-1.2S12.66 4 12 4Zm6.8 2.4c.66 0 1.2-.54 1.2-1.2S19.46 4 18.8 4s-1.2.54-1.2 1.2.54 1.2 1.2 1.2ZM5.2 10.8c-.66 0-1.2.54-1.2 1.2s.54 1.2 1.2 1.2 1.2-.54 1.2-1.2-.54-1.2-1.2-1.2Zm6.8 0c-.66 0-1.2.54-1.2 1.2s.54 1.2 1.2 1.2 1.2-.54 1.2-1.2-.54-1.2-1.2-1.2Zm6.8 0c-.66 0-1.2.54-1.2 1.2s.54 1.2 1.2 1.2S20 12.66 20 12s-.54-1.2-1.2-1.2ZM5.2 17.6c-.66 0-1.2.54-1.2 1.2S4.54 20 5.2 20s1.2-.54 1.2-1.2-.54-1.2-1.2-1.2Zm6.8 0c-.66 0-1.2.54-1.2 1.2S11.34 20 12 20s1.2-.54 1.2-1.2-.54-1.2-1.2-1.2Zm6.8 0c-.66 0-1.2.54-1.2 1.2s.54 1.2 1.2 1.2 1.2-.54 1.2-1.2-.54-1.2-1.2-1.2Z"/></symbol><symbol id="icon_more" viewBox="0 0 24 24"><path d="M13.2 12c0 .66-.54 1.2-1.2 1.2s-1.2-.54-1.2-1.2.54-1.2 1.2-1.2 1.2.54 1.2 1.2Zm5.6-1.2c-.66 0-1.2.54-1.2 1.2s.54 1.2 1.2 1.2S20 12.66 20 12s-.54-1.2-1.2-1.2Zm-13.6 0c-.66 0-1.2.54-1.2 1.2s.54 1.2 1.2 1.2 1.2-.54 1.2-1.2-.54-1.2-1.2-1.2Z"/></symbol><symbol id="icon_more_vertical" viewBox="0 0 24 24"><path d="M12 13.2c-.66 0-1.2-.54-1.2-1.2s.54-1.2 1.2-1.2 1.2.54 1.2 1.2-.54 1.2-1.2 1.2Zm1.2 5.6c0-.66-.54-1.2-1.2-1.2s-1.2.54-1.2 1.2.54 1.2 1.2 1.2 1.2-.54 1.2-1.2Zm0-13.6c0-.66-.54-1.2-1.2-1.2s-1.2.54-1.2 1.2.54 1.2 1.2 1.2 1.2-.54 1.2-1.2Z"/></symbol><symbol id="icon_page" viewBox="0 0 24 24"><path d="m20.24 7.61-5.39-5.39a.732.732 0 0 0-.54-.22H5.08c-.85 0-1.54.69-1.54 1.54v16.92c0 .85.69 1.54 1.54 1.54h13.85c.85 0 1.54-.69 1.54-1.54V8.15c0-.2-.08-.4-.22-.54Zm-5.16-2.98 2.76 2.76h-2.76V4.63Zm3.85 15.84H5.08V3.54h8.46v4.62c0 .42.34.77.77.77h4.62v11.54Zm-3.08-7.69c0 .42-.34.77-.77.77H8.93a.77.77 0 0 1 0-1.54h6.15c.42 0 .77.34.77.77Zm0 3.08c0 .42-.34.77-.77.77H8.93a.77.77 0 0 1 0-1.54h6.15c.42 0 .77.34.77.77Z"/></symbol><symbol id="icon_pin" viewBox="0 0 24 24"><path d="M20.15 14.59h-.86L17.33 3.48h.6c.41 0 .74-.33.74-.74S18.34 2 17.93 2H6.07c-.41 0-.74.33-.74.74s.33.74.74.74h.6L4.71 14.59h-.86c-.41 0-.74.33-.74.74s.33.74.74.74h7.41v5.19c0 .41.33.74.74.74s.74-.33.74-.74v-5.19h7.41c.41 0 .74-.33.74-.74s-.33-.74-.74-.74ZM8.18 3.48h7.65l1.96 11.11H6.22L8.18 3.48Z"/></symbol><symbol id="icon_read_more" viewBox="0 0 24 24"><path d="M9.14 10.57c0-.39.32-.71.71-.71h7.14c.39 0 .71.32.71.71s-.32.71-.71.71H9.85c-.39 0-.71-.32-.71-.71Zm.71 3.57h7.14c.39 0 .71-.32.71-.71s-.32-.71-.71-.71H9.85c-.39 0-.71.32-.71.71s.32.71.71.71Zm12.14-7.86v10.71c0 1.18-.96 2.14-2.14 2.14H4.14C2.96 19.13 2 18.18 2 17V8.43c0-.39.32-.71.71-.71s.71.32.71.71V17c0 .39.32.71.71.71s.71-.32.71-.71V6.29c0-.79.64-1.43 1.43-1.43h14.29c.79 0 1.43.64 1.43 1.43Zm-1.43 0H6.29v10.71c0 .24-.04.48-.12.71h13.69c.39 0 .71-.32.71-.71V6.29Z"/></symbol><symbol id="icon_reload" viewBox="0 0 24 24"><path d="M2 12c0-3.82 3.1-6.92 6.92-6.92h10.45l-1-.99c-.3-.3-.3-.79 0-1.09s.79-.3 1.09 0l2.31 2.31c.3.3.3.79 0 1.09l-2.31 2.31c-.3.3-.79.3-1.09 0-.3-.3-.3-.79 0-1.09l1-.99H8.92c-2.97 0-5.38 2.41-5.38 5.38a.77.77 0 0 1-1.54 0Zm19.23-.77a.77.77 0 0 0-.77.77c0 2.97-2.41 5.38-5.38 5.38H4.63l1-.99c.3-.3.3-.79 0-1.09-.3-.3-.79-.3-1.09 0l-2.31 2.31c-.3.3-.3.79 0 1.09l2.31 2.31c.3.3.79.3 1.09 0 .3-.3.3-.79 0-1.09l-1-.99h10.45c3.82 0 6.92-3.1 6.92-6.92a.77.77 0 0 0-.77-.77Z"/></symbol><symbol id="icon_search" viewBox="0 0 24 24"><path d="m20.8 19.82-4.33-4.33c2.69-3.23 2.25-8.03-.98-10.73-3.23-2.69-8.03-2.25-10.73.98-2.69 3.23-2.25 8.03.98 10.73a7.623 7.623 0 0 0 9.75 0l4.33 4.33a.694.694 0 0 0 .98-.98ZM4.4 10.63c0-3.44 2.79-6.22 6.22-6.22s6.22 2.79 6.22 6.22-2.79 6.22-6.22 6.22a6.22 6.22 0 0 1-6.22-6.22Z"/></symbol><symbol id="icon_settings" viewBox="0 0 24 24"><path d="M12 7.41c-2.53 0-4.59 2.05-4.59 4.59s2.05 4.59 4.59 4.59 4.59-2.05 4.59-4.59c0-2.53-2.05-4.58-4.59-4.59Zm0 7.64a3.06 3.06 0 1 1 0-6.12 3.06 3.06 0 0 1 0 6.12Zm8.41-2.85v-.41l1.43-1.78c.15-.19.2-.44.14-.67-.23-.88-.58-1.72-1.04-2.51a.764.764 0 0 0-.57-.38L18.1 6.2c-.09-.1-.19-.19-.29-.29l-.27-2.27a.764.764 0 0 0-.38-.57c-.79-.46-1.63-.8-2.51-1.04-.23-.06-.49 0-.67.14L12.2 3.59h-.41l-1.78-1.42a.77.77 0 0 0-.67-.14c-.88.23-1.72.58-2.51 1.04-.21.12-.35.33-.38.57L6.2 5.91c-.1.09-.19.19-.29.29l-2.27.26c-.24.03-.45.17-.57.38-.46.79-.8 1.63-1.04 2.51-.06.23 0 .49.14.67l1.42 1.78v.41l-1.42 1.78a.77.77 0 0 0-.14.67c.23.88.58 1.72 1.04 2.51.12.21.33.35.57.38l2.27.25c.09.1.19.19.29.29l.26 2.27c.03.24.17.45.38.57.79.46 1.63.8 2.51 1.04.23.06.49 0 .67-.14l1.78-1.42h.41l1.78 1.43c.19.15.44.2.67.14.88-.23 1.72-.58 2.51-1.04.21-.12.35-.33.38-.57l.25-2.27c.1-.09.19-.19.29-.29l2.27-.27c.24-.03.45-.17.57-.38.46-.79.8-1.63 1.04-2.51.06-.23 0-.49-.14-.67l-1.42-1.78Zm-1.54-.62c.02.28.02.55 0 .83-.01.19.05.38.17.52l1.36 1.69c-.16.49-.35.97-.6 1.43l-2.16.24c-.19.02-.36.11-.49.25-.18.21-.38.4-.59.59-.14.13-.23.3-.25.49l-.24 2.16c-.46.24-.94.44-1.43.6l-1.7-1.36a.76.76 0 0 0-.48-.17h-.05c-.28.02-.55.02-.83 0a.743.743 0 0 0-.52.17l-1.7 1.36c-.49-.16-.97-.35-1.43-.6l-.24-2.16a.777.777 0 0 0-.25-.49c-.21-.18-.4-.38-.59-.59a.777.777 0 0 0-.49-.25l-2.16-.24c-.24-.46-.44-.94-.6-1.43l1.36-1.7a.76.76 0 0 0 .17-.52c-.02-.28-.02-.55 0-.83a.743.743 0 0 0-.17-.52L3.6 9.35c.16-.49.35-.97.6-1.43l2.16-.24c.19-.02.36-.11.49-.25.18-.21.38-.4.59-.59.14-.13.23-.3.25-.49l.24-2.16c.46-.24.94-.44 1.43-.6l1.7 1.36c.15.12.33.18.52.17.28-.02.55-.02.83 0 .19.01.38-.05.52-.17l1.7-1.36c.49.16.97.35 1.43.6l.24 2.16c.02.19.11.36.25.49.21.18.4.38.59.59.13.14.3.23.49.25l2.16.24c.24.46.44.94.6 1.43l-1.36 1.7c-.12.15-.18.34-.17.53Z"/></symbol><symbol id="icon_share" viewBox="0 0 24 24"><path d="m20.8 9.72-4.15 4.15a.694.694 0 0 1-.98-.98l2.97-2.97h-3.43c-3.47 0-6.51 2.35-7.38 5.71-.1.37-.47.59-.84.5s-.59-.47-.5-.84a8.99 8.99 0 0 1 8.72-6.75h3.44l-2.97-2.97a.694.694 0 0 1 .98-.98l4.15 4.15c.27.27.27.71 0 .98Zm-3.26 8.51H4.38V7.85c0-.38-.31-.69-.69-.69S3 7.47 3 7.85v10.38c0 .76.62 1.38 1.38 1.38h13.15c.38 0 .69-.31.69-.69s-.31-.69-.69-.69Z"/></symbol><symbol id="icon_sort_ascending" viewBox="0 0 24 24"><path d="M11.25 11.25c0 .41-.34.75-.75.75H3.75c-.41 0-.75-.34-.75-.75s.34-.75.75-.75h6.75c.41 0 .75.34.75.75ZM3.75 6H16.5c.41 0 .75-.34.75-.75s-.34-.75-.75-.75H3.75c-.41 0-.75.34-.75.75s.34.75.75.75ZM9 16.5H3.75c-.41 0-.75.34-.75.75s.34.75.75.75H9c.41 0 .75-.34.75-.75s-.34-.75-.75-.75Zm11.78-2.03a.754.754 0 0 0-1.06 0s-2.47 2.47-2.47 2.47V9.75c0-.41-.34-.75-.75-.75s-.75.34-.75.75v7.19l-2.47-2.47c-.29-.29-.77-.29-1.06 0s-.29.77 0 1.06l3.75 3.75c.29.29.77.29 1.06 0l3.75-3.75c.29-.29.29-.77 0-1.06Z"/></symbol><symbol id="icon_sort_descending" viewBox="0 0 24 24"><path d="M11.25 11.25c0 .41-.34.75-.75.75H3.75c-.41 0-.75-.34-.75-.75s.34-.75.75-.75h6.75c.41 0 .75.34.75.75ZM3.75 6H16.5c.41 0 .75-.34.75-.75s-.34-.75-.75-.75H3.75c-.41 0-.75.34-.75.75s.34.75.75.75ZM9 16.5H3.75c-.41 0-.75.34-.75.75s.34.75.75.75H9c.41 0 .75-.34.75-.75s-.34-.75-.75-.75Zm3.22-2.47c.29.29.77.29 1.06 0l2.47-2.47v7.19c0 .41.34.75.75.75s.75-.34.75-.75v-7.19l2.47 2.47c.29.29.77.29 1.06 0s.29-.77 0-1.06l-3.75-3.75a.754.754 0 0 0-1.06 0s-3.75 3.75-3.75 3.75c-.29.29-.29.77 0 1.06Z"/></symbol><symbol id="icon_star" viewBox="0 0 24 24"><path d="M21.93 9.62c-.18-.54-.66-.93-1.23-.98l-5.3-.46-2.08-4.94a1.423 1.423 0 0 0-2.63 0L8.62 8.18l-5.31.46a1.423 1.423 0 0 0-.81 2.5l4.03 3.52-1.21 5.23c-.18.77.3 1.54 1.07 1.72.36.08.74.02 1.06-.17L12 18.67l4.56 2.77c.68.41 1.55.19 1.96-.49.19-.32.25-.7.17-1.06l-1.21-5.23 4.03-3.51c.44-.38.6-.98.42-1.53Zm-1.36.45-4.03 3.51c-.4.35-.57.89-.45 1.4l1.21 5.23-4.56-2.77c-.45-.28-1.02-.28-1.48 0l-4.55 2.77 1.2-5.23c.12-.52-.05-1.06-.45-1.4l-4.03-3.51 5.31-.46c.53-.05.99-.38 1.19-.87L12 3.8l2.07 4.94c.2.49.66.82 1.19.87l5.31.46Z"/></symbol><symbol id="icon_translate" viewBox="0 0 24 24"><path d="m21.92 19.89-5-10a.718.718 0 0 0-1.28 0l-1.94 3.88a7.912 7.912 0 0 1-4.21-1.51 9.253 9.253 0 0 0 2.47-5.62h2.17c.39 0 .71-.32.71-.71s-.32-.71-.71-.71h-5V3.79c0-.39-.32-.71-.71-.71s-.71.32-.71.71v1.43h-5c-.39 0-.71.32-.71.71s.32.71.71.71h7.82c-.16 1.75-.9 3.4-2.11 4.67a7.919 7.919 0 0 1-1.7-2.77.713.713 0 0 0-.9-.45c-.37.13-.58.53-.45.9v.02a9.29 9.29 0 0 0 1.97 3.24 7.833 7.833 0 0 1-4.64 1.52c-.39 0-.71.32-.71.71s.32.71.71.71c2.07 0 4.08-.69 5.71-1.97a9.248 9.248 0 0 0 4.59 1.9l-2.38 4.75c-.18.35-.03.78.32.96.35.18.78.03.96-.32l1.23-2.46h6.26l1.23 2.46a.715.715 0 0 0 1.35-.32c0-.11-.03-.22-.08-.32Zm-8.05-3.25 2.42-4.83 2.42 4.83h-4.83Z"/></symbol><symbol id="icon_verified" viewBox="0 0 24 24"><path d="M20.74 9.75c-.34-.35-.68-.71-.82-1.03-.12-.29-.13-.78-.14-1.24-.01-.87-.03-1.86-.71-2.55s-1.67-.7-2.55-.71c-.47 0-.95-.01-1.24-.14-.32-.13-.68-.48-1.03-.82C13.63 2.67 12.93 2 12 2s-1.63.67-2.25 1.26c-.35.34-.71.68-1.03.82-.29.12-.78.13-1.24.14-.87.01-1.86.03-2.55.71s-.7 1.67-.71 2.55c0 .47-.01.95-.14 1.24-.13.32-.48.68-.82 1.03C2.67 10.37 2 11.07 2 12s.67 1.63 1.26 2.25c.34.35.68.71.82 1.03.12.29.13.78.14 1.24.01.87.03 1.86.71 2.55s1.67.7 2.55.71c.47 0 .95.01 1.24.14.32.13.68.48 1.03.82.62.59 1.32 1.26 2.25 1.26s1.63-.67 2.25-1.26c.35-.34.71-.68 1.03-.82.29-.12.78-.13 1.24-.14.87-.01 1.86-.03 2.55-.71s.7-1.67.71-2.55c0-.47.01-.95.14-1.24.13-.32.48-.68.82-1.03.59-.62 1.26-1.32 1.26-2.25s-.67-1.63-1.26-2.25Zm-1.03 3.51c-.43.45-.87.91-1.11 1.48-.23.54-.23 1.17-.24 1.77 0 .62-.02 1.28-.3 1.56s-.93.29-1.56.3c-.6 0-1.23.02-1.77.24-.57.23-1.03.68-1.48 1.11s-.9.87-1.26.87-.82-.44-1.26-.87-.91-.87-1.48-1.11c-.54-.23-1.17-.23-1.77-.24-.62 0-1.28-.02-1.56-.3s-.29-.93-.3-1.56c0-.6-.02-1.23-.24-1.77-.23-.57-.68-1.03-1.11-1.48s-.87-.9-.87-1.26.44-.82.87-1.26.87-.91 1.11-1.48c.23-.54.23-1.17.24-1.77 0-.62.02-1.28.3-1.56s.93-.29 1.56-.3c.6 0 1.23-.02 1.77-.24.57-.23 1.03-.68 1.47-1.11s.9-.87 1.26-.87.82.44 1.26.87.91.87 1.48 1.11c.54.23 1.17.23 1.77.24.62 0 1.28.02 1.56.3s.29.93.3 1.56c0 .6.02 1.23.24 1.77.23.57.68 1.03 1.11 1.47s.87.9.87 1.26-.44.82-.87 1.26Zm-3.63-3.91c.28.28.28.73 0 1.01l-5 5c-.28.28-.73.28-1.01 0l-2.14-2.14a.712.712 0 0 1 0-1.01c.28-.28.73-.28 1.01 0l1.64 1.64 4.49-4.5c.28-.28.73-.28 1.01 0Z"/></symbol><symbol id="icon_zip" viewBox="0 0 24 24"><path d="M17.83 14.5h-1.67c-.46 0-.83.37-.83.83v5.83c0 .46.37.83.83.83s.83-.37.83-.83v-.83h.83c1.61 0 2.92-1.31 2.92-2.92s-1.31-2.92-2.92-2.92Zm0 4.17H17v-2.5h.83a1.25 1.25 0 0 1 0 2.5Zm-5-3.33v5.83c0 .46-.37.83-.83.83s-.83-.37-.83-.83v-5.83c0-.46.37-.83.83-.83s.83.37.83.83Zm-4.17 5.83c0 .46-.37.83-.83.83H4.5a.837.837 0 0 1-.73-1.25l2.62-4.58H4.5c-.46 0-.83-.37-.83-.83s.37-.83.83-.83h3.33a.837.837 0 0 1 .73 1.25l-2.63 4.58h1.9c.46 0 .83.37.83.83ZM20.92 8.08l-5.83-5.84A.824.824 0 0 0 14.5 2h-10c-.92 0-1.67.75-1.67 1.67v7.5c0 .46.37.83.83.83s.83-.37.83-.83v-7.5h9.18v5c0 .46.37.83.83.83h5v1.67c0 .46.37.83.83.83s.83-.37.83-.83v-2.5c0-.22-.09-.43-.24-.59Zm-5.59-.24V4.85l2.99 2.99h-2.99Z"/></symbol><symbol id="icon_blogger" viewBox="0 0 24 24"><path d="M20.31 22H3.69C2.75 22 2 21.25 2 20.31V3.69C2 2.75 2.75 2 3.69 2h16.68c.88 0 1.63.75 1.63 1.69v16.62c0 .94-.75 1.69-1.69 1.69ZM12 5.31H9.5c-2.31 0-4.19 1.88-4.19 4.19v5c0 2.31 1.88 4.19 4.19 4.19h5c2.31 0 4.19-1.88 4.19-4.19v-3.31c0-.5-.38-.88-.87-.88h-.81a.82.82 0 0 1-.81-.81c0-2.31-1.88-4.19-4.19-4.19Zm2.56 10H9.5c-.44 0-.81-.37-.81-.81s.37-.81.81-.81h5.06c.44 0 .81.37.81.81s-.37.81-.81.81Zm-2.13-6.63c.44 0 .81.37.81.81s-.37.81-.81.81h-3c-.44 0-.81-.37-.81-.81s.37-.81.81-.81h3Z"/></symbol><symbol id="icon_email" viewBox="0 0 24 24"><path d="m20 8-8 5-8-5V6l8 5 8-5m0-2H4c-1.11 0-2 .89-2 2v12c0 1.1.9 2 2 2h16c1.1 0 2-.9 2-2V6a2 2 0 0 0-2-2Z"/></symbol><symbol id="icon_facebook" viewBox="0 0 24 24"><path d="M22.06 12.06C22.06 6.5 17.56 2 12 2S1.94 6.5 1.94 12.06c0 5.02 3.68 9.18 8.49 9.94v-7.03H7.88v-2.91h2.55V9.84c0-2.52 1.5-3.91 3.8-3.91 1.1 0 2.25.2 2.25.2v2.48h-1.27c-1.25 0-1.64.78-1.64 1.57v1.89h2.79l-.45 2.91h-2.34v7.03c4.81-.76 8.49-4.92 8.49-9.94Z"/></symbol><symbol id="icon_linkedin" viewBox="0 0 24 24"><path d="M19.04 19.04h-2.96V14.4c0-1.11-.02-2.53-1.54-2.53s-1.78 1.2-1.78 2.45v4.72H9.8V9.5h2.84v1.3h.04c.4-.75 1.36-1.54 2.81-1.54 3 0 3.56 1.97 3.56 4.55v5.24ZM6.45 8.19a1.72 1.72 0 1 1 0-3.44 1.72 1.72 0 0 1 0 3.44Zm1.49 10.85H4.97V9.5h2.97v9.54ZM20.52 2H3.48C2.66 2 2 2.64 2 3.44v17.12c0 .8.66 1.44 1.48 1.44h17.04c.82 0 1.48-.64 1.48-1.44V3.44c0-.8-.67-1.44-1.48-1.44Z"/></symbol><symbol id="icon_pinterest" viewBox="0 0 24 24"><path d="M12.01 2C6.5 2 2.02 6.47 2.02 11.99a9.98 9.98 0 0 0 6.35 9.3c-.09-.79-.17-2 .03-2.87.18-.78 1.17-4.96 1.17-4.96s-.3-.6-.3-1.48c0-1.39.81-2.43 1.81-2.43.85 0 1.26.64 1.26 1.41 0 .86-.54 2.14-.83 3.33-.24.99.5 1.8 1.48 1.8 1.77 0 3.14-1.87 3.14-4.57 0-2.38-1.72-4.06-4.17-4.06-2.84 0-4.51 2.13-4.51 4.33 0 .86.33 1.79.74 2.28.08.1.09.19.07.29-.08.31-.24 1-.28 1.14-.04.19-.14.23-.33.14-1.25-.57-2.03-2.4-2.03-3.87 0-3.15 2.29-6.04 6.6-6.04 3.46 0 6.16 2.47 6.16 5.77s-2.17 6.22-5.19 6.22c-1.01 0-1.96-.52-2.3-1.15l-.62 2.37c-.22.87-.84 1.96-1.25 2.62.94.29 1.92.45 2.96.45 5.51 0 9.99-4.47 9.99-9.99 0-5.52-4.48-9.99-9.99-9.99l.03-.02Z"/></symbol><symbol id="icon_reddit" viewBox="0 0 24 24"><path d="M12 2C6.48 2 2 6.48 2 12s4.48 10 10 10 10-4.48 10-10S17.52 2 12 2Zm4.18 3.95c.57 0 1.04.47 1.04 1.04 0 .58-.48 1.04-1.05 1.03-.55 0-1-.44-1.03-.98l-2.16-.46-.67 3.12c1.52.06 2.9.53 3.89 1.24.26-.26.61-.41 1.01-.41.81 0 1.46.66 1.46 1.46 0 .6-.36 1.11-.84 1.35.02.14.04.29.03.43 0 2.25-2.61 4.06-5.84 4.06s-5.84-1.81-5.84-4.06c0-.15.01-.31.04-.45a1.455 1.455 0 0 1 .59-2.79c.39 0 .75.16 1.01.41 1.01-.74 2.4-1.19 3.95-1.24l.74-3.49c.02-.07.06-.13.12-.16s.13-.05.2-.03l2.42.51c.17-.36.53-.59.92-.58ZM9.71 12c-.57 0-1.04.47-1.04 1.04s.47 1.04 1.04 1.04 1.04-.47 1.04-1.04S10.28 12 9.71 12Zm4.58 0c-.57 0-1.04.47-1.04 1.04s.47 1.04 1.04 1.04 1.04-.47 1.04-1.04S14.86 12 14.29 12Zm-4.55 3.32c-.07 0-.14.03-.19.08-.11.11-.11.28 0 .39.7.7 2.07.76 2.47.76s1.75-.05 2.47-.76c.1-.11.11-.27.02-.39a.272.272 0 0 0-.39 0c-.46.44-1.4.61-2.09.61s-1.65-.16-2.09-.61a.273.273 0 0 0-.19-.08Z"/></symbol><symbol id="icon_skype" viewBox="0 0 24 24"><path d="M12.06 17.73c-3.35 0-4.85-1.65-4.85-2.89 0-.64.47-1.08 1.11-1.08 1.44 0 1.06 2.06 3.74 2.06 1.37 0 2.13-.75 2.13-1.51 0-.46-.22-.97-1.13-1.19l-2.98-.75c-2.4-.6-2.84-1.91-2.84-3.13 0-2.54 2.38-3.49 4.62-3.49 2.06 0 4.49 1.14 4.49 2.67 0 .65-.57 1.03-1.21 1.03-1.22 0-1-1.7-3.47-1.7-1.22 0-1.91.55-1.91 1.35s.96 1.05 1.8 1.24l2.2.49c2.41.54 3.02 1.95 3.02 3.29 0 2.06-1.59 3.6-4.77 3.6m9.24-4.07-.02.11-.04-.2s.04.06.05.1c.1-.56.15-1.14.15-1.71 0-1.27-.25-2.51-.75-3.68a9.39 9.39 0 0 0-2.02-3 9.39 9.39 0 0 0-3-2.02c-1.1-.53-2.33-.78-3.61-.78-.6 0-1.2.06-1.79.17l.1.05-.2-.03.1-.02c-.8-.43-1.7-.66-2.62-.66-1.49 0-2.89.58-3.95 1.64a5.592 5.592 0 0 0-1.64 3.96c0 .95.24 1.89.7 2.71l.02-.1.03.2-.05-.1c-.1.54-.14 1.08-.14 1.63 0 1.27.25 2.51.74 3.68a9.167 9.167 0 0 0 2.02 3.01 9.31 9.31 0 0 0 3 2.03c1.16.5 2.4.75 3.67.75.55 0 1.11-.05 1.65-.15l-.1-.05.2.04-.11.03c.83.47 1.77.73 2.75.73 1.49 0 2.88-.58 3.94-1.64a5.566 5.566 0 0 0 1.63-3.96c0-.95-.25-1.89-.71-2.72"/></symbol><symbol id="icon_telegram" viewBox="0 0 24 24"><path d="M11.95 2C6.45 2.03 2 6.5 2 12c0 5.52 4.48 10 10 10s10-4.48 10-10S17.52 2 12 2h-.05Zm4.13 6.02c.08 0 .27.02.39.12.08.07.13.17.14.27.01.08.03.25.02.39-.15 1.58-.8 5.42-1.13 7.19-.14.75-.42 1-.68 1.02-.58.05-1.02-.38-1.58-.75-.88-.58-1.38-.94-2.23-1.5-.99-.65-.35-1.01.22-1.59.15-.15 2.71-2.48 2.76-2.69 0-.03.01-.12-.05-.18s-.14-.03-.21-.02c-.09.02-1.49.95-4.22 2.79-.4.27-.76.41-1.08.4-.36 0-1.04-.2-1.55-.37-.63-.2-1.12-.31-1.08-.66.02-.18.27-.36.74-.55 2.91-1.27 4.86-2.11 5.83-2.51 2.78-1.15 3.35-1.36 3.73-1.36Z"/></symbol><symbol id="icon_twitter" viewBox="0 0 24 24"><path d="M22 5.79c-.74.33-1.53.55-2.35.66.84-.51 1.49-1.31 1.8-2.28-.79.48-1.67.81-2.6 1a4.06 4.06 0 0 0-3.02-1.3c-2.25 0-4.08 1.84-4.08 4.1 0 .33.04.64.11.94-3.4-.17-6.43-1.81-8.45-4.28-.35.6-.55 1.31-.55 2.06 0 1.42.72 2.69 1.83 3.4-.68 0-1.31-.19-1.86-.48v.03a4.09 4.09 0 0 0 3.29 4.02c-.34.1-.71.14-1.08.14-.26 0-.52-.03-.76-.08.52 1.62 2.02 2.82 3.82 2.85A8.144 8.144 0 0 1 3 18.33c-.33 0-.65-.02-.98-.06a11.6 11.6 0 0 0 6.29 1.85c7.53 0 11.67-6.25 11.67-11.67v-.54c.8-.57 1.49-1.3 2.05-2.13Z"/></symbol><symbol id="icon_whatsapp" viewBox="0 0 24 24"><path d="M12.04 2c-5.46 0-9.91 4.45-9.91 9.91 0 1.75.46 3.45 1.32 4.95L2.05 22l5.25-1.38c1.45.79 3.08 1.21 4.74 1.21 5.46 0 9.91-4.45 9.91-9.91 0-2.65-1.03-5.14-2.9-7.01A9.816 9.816 0 0 0 12.04 2m.01 1.67c2.2 0 4.26.86 5.82 2.42a8.225 8.225 0 0 1 2.41 5.83c0 4.54-3.7 8.23-8.24 8.23-1.48 0-2.93-.39-4.19-1.15l-.3-.17-3.12.82.83-3.04-.2-.32a8.188 8.188 0 0 1-1.26-4.38c0-4.54 3.7-8.24 8.25-8.24M8.53 7.33c-.16 0-.43.06-.66.31-.22.25-.87.86-.87 2.07s.89 2.39 1 2.56c.14.17 1.76 2.67 4.25 3.73.59.27 1.05.42 1.41.53.59.19 1.13.16 1.56.1.48-.07 1.46-.6 1.67-1.18.21-.58.21-1.07.15-1.18-.07-.1-.23-.16-.48-.27-.25-.14-1.47-.74-1.69-.82-.23-.08-.37-.12-.56.12-.16.25-.64.81-.78.97-.15.17-.29.19-.53.07-.26-.13-1.06-.39-2-1.23-.74-.66-1.23-1.47-1.38-1.72-.12-.24-.01-.39.11-.5.11-.11.27-.29.37-.44.13-.14.17-.25.25-.41.08-.17.04-.31-.02-.43-.06-.11-.56-1.35-.77-1.84-.2-.48-.4-.42-.56-.43-.14 0-.3-.01-.47-.01Z"/></symbol><symbol id="icon_android" viewBox="0 0 24 24"><path d="M16.61 14.78c-.46 0-.84-.37-.84-.83s.38-.82.84-.82c.46 0 .84.36.84.82s-.38.83-.84.83m-9.2 0c-.46 0-.84-.37-.84-.83s.38-.82.84-.82c.46 0 .83.36.83.82s-.37.83-.83.83m9.5-5.01 1.67-2.88c.09-.17.03-.38-.13-.47-.17-.1-.38-.04-.45.13l-1.71 2.91A10.15 10.15 0 0 0 12 8.54c-1.53 0-3 .33-4.27.91L6.04 6.54a.334.334 0 0 0-.47-.13c-.17.09-.22.3-.13.47L7.1 9.76c-2.85 1.56-4.81 4.45-5.1 7.87h20c-.28-3.41-2.23-6.3-5.09-7.86Z"/></symbol></svg>