<svg xmlns="http://www.w3.org/2000/svg"><defs><symbol id="align-text-both-one" viewBox="0 0 24 24"><path d="M18.8 3H5.2A2.2 2.2 0 0 0 3 5.2v13.6A2.2 2.2 0 0 0 5.2 21h13.6a2.2 2.2 0 0 0 2.2-2.2V5.2A2.2 2.2 0 0 0 18.8 3zm.4 15.8a.4.4 0 0 1-.4.4H5.2a.4.4 0 0 1-.4-.4V5.2a.4.4 0 0 1 .4-.4h13.6a.4.4 0 0 1 .4.4zM17.4 12a.9.9 0 0 1-.9.9h-9a.9.9 0 0 1 0-1.8h9a.9.9 0 0 1 .9.9zm0-4.1a1 1 0 0 1-.9 1h-9a1 1 0 0 1-.9-1 .9.9 0 0 1 .9-.8h9a.9.9 0 0 1 .9.8zm0 8.2a.9.9 0 0 1-.9.8h-9a.9.9 0 0 1-.9-.8 1 1 0 0 1 .9-1h9a1 1 0 0 1 .9 1z"></path></symbol><symbol id="application-menu" viewBox="0 0 24 24"><path d="M7.6 5.8A1.8 1.8 0 1 1 5.8 4a1.8 1.8 0 0 1 1.8 1.8zM12 4a1.8 1.8 0 1 0 1.8 1.8A1.8 1.8 0 0 0 12 4zm6.2 3.6a1.8 1.8 0 1 0-1.8-1.8 1.8 1.8 0 0 0 1.8 1.8zM5.8 10.2A1.8 1.8 0 1 0 7.6 12a1.8 1.8 0 0 0-1.8-1.8zm6.2 0a1.8 1.8 0 1 0 1.8 1.8 1.8 1.8 0 0 0-1.8-1.8zm6.2 0A1.8 1.8 0 1 0 20 12a1.8 1.8 0 0 0-1.8-1.8zM5.8 16.4a1.8 1.8 0 1 0 1.8 1.8 1.8 1.8 0 0 0-1.8-1.8zm6.2 0a1.8 1.8 0 1 0 1.8 1.8 1.8 1.8 0 0 0-1.8-1.8zm6.2 0a1.8 1.8 0 1 0 1.8 1.8 1.8 1.8 0 0 0-1.8-1.8z"></path></symbol><symbol id="archive-outline" viewBox="0 0 24 24"><path d="M20 21H4V10h2v9h12v-9h2v11M3 3h18v6H3V3m6.5 8h5c.28 0 .5.22.5.5V13H9v-1.5c0-.28.22-.5.5-.5M5 5v2h14V5H5z"></path></symbol><symbol id="archive" viewBox="0 0 24 24"><path d="M19.7 5.6H4.3A1.3 1.3 0 0 0 3 6.9v1.9a1.3 1.3 0 0 0 1.3 1.3v7a1.3 1.3 0 0 0 1.3 1.3h12.8a1.3 1.3 0 0 0 1.3-1.3v-7A1.3 1.3 0 0 0 21 8.8V6.9a1.3 1.3 0 0 0-1.3-1.3zm-1.3 11.5H5.6v-7h12.8zm1.3-8.3H4.3V6.9h15.4zM9.4 12.6a.7.7 0 0 1 .7-.6h3.8a.7.7 0 0 1 .7.6.7.7 0 0 1-.7.7h-3.8a.7.7 0 0 1-.7-.7z"></path></symbol><symbol id="arrow-clockwise" viewBox="0 0 24 24"><path d="M22 4.4v4.8a.9.9 0 0 1-.8.8h-4.8a.9.9 0 0 1-.8-.8.8.8 0 0 1 .8-.8h2.9l-2.1-2.1a7.9 7.9 0 0 0-11.3.1 8 8 0 0 0 11.3 11.3.8.8 0 0 1 1.2-.1.8.8 0 0 1 0 1.1 9.7 9.7 0 0 1-13.6 0 9.7 9.7 0 0 1 0-13.6 9.7 9.7 0 0 1 13.6 0l2 2V4.4a.8.8 0 0 1 1.6 0z"></path></symbol><symbol id="arrow-left-1" viewBox="0 0 24 24"><path d="M20 12a.7.7 0 0 1-.7.6h-13l4.8 4.9a.7.7 0 0 1 0 1 .7.7 0 0 1-.9 0l-6-6a.7.7 0 0 1 0-1l6-6a.6.6 0 0 1 .9.1.7.7 0 0 1 0 .9l-4.8 4.8h13a.7.7 0 0 1 .7.7z"></path></symbol><symbol id="arrow-left-2" viewBox="0 0 24 24"><path d="M20 12a.9.9 0 0 1-.8.8H6.7l3.5 3.4a.9.9 0 0 1 0 1.2l-.6.2-.6-.2-4.8-4.8v-.3a.6.6 0 0 1 0-.6v-.3L9 6.6a.9.9 0 0 1 1.2 0 .9.9 0 0 1 0 1.2l-3.5 3.4h12.5a.9.9 0 0 1 .8.8z"></path></symbol><symbol id="arrow-left" viewBox="0 0 24 24"><path d="M20 11v2H8l5.5 5.5-1.42 1.42L4.16 12l7.92-7.92L13.5 5.5 8 11h12z"></path></symbol><symbol id="arrow-right-1" viewBox="0 0 24 24"><path d="M4 12a.7.7 0 0 1 .7-.6h13l-4.8-4.9a.7.7 0 0 1 0-1 .7.7 0 0 1 .9 0l6 6a.7.7 0 0 1 0 1l-6 6a.6.6 0 0 1-.9-.1.7.7 0 0 1 0-.9l4.8-4.8h-13A.7.7 0 0 1 4 12z"></path></symbol><symbol id="arrow-right-2" viewBox="0 0 24 24"><path d="M4 12a.9.9 0 0 1 .8-.8h12.5l-3.5-3.4a.9.9 0 0 1 0-1.2l.6-.2.6.2 4.8 4.8v.3a.6.6 0 0 1 0 .6v.3L15 17.4a.8.8 0 0 1-1.2-1.2l3.5-3.4H4.8A.9.9 0 0 1 4 12z"></path></symbol><symbol id="arrow-right" viewBox="0 0 24 24"><path d="M4 11v2h12l-5.5 5.5 1.42 1.42L19.84 12l-7.92-7.92L10.5 5.5 16 11H4z"></path></symbol><symbol id="arrow-up-1" viewBox="0 0 24 24"><path d="M12 20a.7.7 0 0 1-.6-.7v-13l-4.9 4.8a.7.7 0 0 1-1 0 .7.7 0 0 1 0-.9l6-6a.7.7 0 0 1 1 0l6 6a.6.6 0 0 1-.1.9.7.7 0 0 1-.9 0l-4.8-4.8v13a.7.7 0 0 1-.7.7z"></path></symbol><symbol id="arrow-up-2" viewBox="0 0 24 24"><path d="M12 20a.9.9 0 0 1-.8-.8V6.7l-3.4 3.5a.9.9 0 0 1-1.2 0 1.4 1.4 0 0 1-.2-.6 1.4 1.4 0 0 1 .2-.6l4.8-4.8h1.2L17.4 9a.8.8 0 0 1-1.2 1.2l-3.4-3.5v12.5a.9.9 0 0 1-.8.8z"></path></symbol><symbol id="arrow-up" viewBox="0 0 24 24"><path d="M13 20h-2V8l-5.5 5.5-1.42-1.42L12 4.16l7.92 7.92-1.42 1.42L13 8v12z"></path></symbol><symbol id="article" viewBox="0 0 24 24"><path d="M19.6 4.4H4.4A1.4 1.4 0 0 0 3 5.8v12.4a1.4 1.4 0 0 0 1.4 1.4h15.2a1.4 1.4 0 0 0 1.4-1.4V5.8a1.4 1.4 0 0 0-1.4-1.4zm0 13.8H4.4V5.8h15.2zm-2.4-9a.7.7 0 0 1-.7.7h-9a.7.7 0 0 1 0-1.4h9a.7.7 0 0 1 .7.7zm0 2.8a.7.7 0 0 1-.7.7h-9a.7.7 0 0 1 0-1.4h9a.7.7 0 0 1 .7.7zm0 2.8a.7.7 0 0 1-.7.7h-9a.7.7 0 0 1 0-1.4h9a.7.7 0 0 1 .7.7z"></path></symbol><symbol id="bank-bca-alt" viewBox="0 0 24 24"><path d="M14.6 15.8l.8-1.7v1.7zm4.8.1v-1.5h-1.9l-.5 1.4h-1.6v-1.7l1.8-3.9h-.4l1-1.9h3.5l.7 7.6zm0-3v-2.6l-.6 1.3-.7 1.3h1.3zm-8.2-.7c.2-1.2 2.5-2.2 4.1-1.1v-.3l.8-1.9-.8-.4-.7-.5-.2.5c-1 0-3.5-.9-5.1 3.1L9 12.7v.8c.2 1.5 1.4 2.8 4.6 2.4l.9-2.2c-2.5.7-3.4-.3-3.3-1.5zm-3.4-.5c1.7 1.7 0 3.7-1.7 4.1v-1.9c.5-.3.8-1.4 0-1.5H5L4.5 14h1.6v1.9H2l1.3-5.6h-.5l1.1-2.1h3.5A1.4 1.4 0 0 1 9 9.5v.6a2.1 2.1 0 0 1-1.2 1.6zm-1.1-2H5.6l-.4 1.5h1.2c.8 0 .8-1.5.3-1.5z"></path></symbol><symbol id="bank-bca" viewBox="0 0 24 24"><path d="M20.4 4.2V4a18.7 18.7 0 0 0-8.2-2H12a18.7 18.7 0 0 0-8.3 2v.2A19.1 19.1 0 0 0 2 11.9v.4A18.2 18.2 0 0 0 3.6 20h.2a18.6 18.6 0 0 0 16.4 0h.2a18.2 18.2 0 0 0 1.7-7.7v-.4a19.1 19.1 0 0 0-1.7-7.7zm-.6 15.4a20 20 0 0 1-7.8 1.7 20 20 0 0 1-7.8-1.7 18.2 18.2 0 0 1-1.7-7.7 19 19 0 0 1 1.7-7.3 16.5 16.5 0 0 1 7.7-1.9h.2a16.5 16.5 0 0 1 7.7 1.9 19 19 0 0 1 1.7 7.3 18.2 18.2 0 0 1-1.7 7.7zm-7-7.7c-.6 1.8-.4 3.8-.6 5.7a38 38 0 0 0-.6-5.8C11 10.1 9 9.1 9 7.3a3 3 0 0 1 3.1-3.2 3.3 3.3 0 0 1 3.4 3c.1 1.8-2.1 3.1-2.7 4.8zm6.3 1c.1.8.2 2.1-.4 2.6s-2.3.1-3.7.5-1.3.8-2 1.1a14.7 14.7 0 0 1 .3-4.7A5.2 5.2 0 0 1 16.5 9a2.2 2.2 0 0 1 2.5 2.4 3.5 3.5 0 0 1-3 2.5c-.8 0-1.1.7-1.6 1a7.9 7.9 0 0 0 4.7-2zM5.7 15.5c-.7-.5-.6-1.8-.4-2.6a7.9 7.9 0 0 0 4.7 2c-.5-.3-.8-1-1.6-1a3.6 3.6 0 0 1-3.1-2.5A2.3 2.3 0 0 1 7.8 9a4.8 4.8 0 0 1 3.2 3.4 12.3 12.3 0 0 1 .4 4.7c-.7-.3-1.2-.8-2-1.1s-2.5.3-3.7-.5zm3.7 3.3h-1l-.3 1.5h.3l.2-.6h.3v.2H9v.4h.4V20l-.2-.3h.2c.1-.1.2-.2.2-.3V19zm-.1.4h-.7v-.4H9c.1 0 .1 0 .1.1zM7 19c-.1.1 0 .3 0 .4l.3.2h.4v-.2h-.3V19l.7.2-.2.6h-.7l-.4-.2a.6.6 0 0 1-.1-.4.3.3 0 0 1 0-.4.5.5 0 0 1 .2-.4l.3-.2h.4c.2.1.3.1.4.3a.4.4 0 0 1 .1.3h-.3v-.2h-.2c-.2-.1-.3 0-.4 0a.5.5 0 0 0-.2.4zm7.2.6a.1.1 0 0 0 .1-.1v-.2c0-.1 0-.2-.1-.2a.1.1 0 0 0-.1-.1h-.4v.3h.3v.2h-.3a.1.1 0 0 1-.1.1h-.2v-.4h.3v-.3H13l.2 1.5h1.1V20a.4.4 0 0 0-.1-.3zm0 .5h-.6v-.4h.7zm1.5-.5h.3a.8.8 0 0 1-.2.4l-.3.2h-.6l-.3-.6a1.3 1.3 0 0 1 .1-.6.5.5 0 0 1 .5-.3h.5c.1 0 .1.1.2.2l-.3.2a.2.2 0 0 0-.2-.2h-.2c-.1 0-.2 0-.2.1a.6.6 0 0 0-.1.4c.1.2.1.4.2.4h.5v-.3zm-5-.7h.3v1.3h-1c-.1-.1-.2-.1-.2-.2h-.1v-1.2h.3V20h.5c.1-.1.1-.1.1-.2a.3.3 0 0 1 .1-.2zm6-.5h-.3l-.2 1.6h.3v-.3h.6l.3.3h.3l-.9-1.2zm.1.9h-.2v-.6l.2.2.2.3zm-4.7-.3h-.8v1.5h.3v-.6h.7v-.7zm0 .5h-.5V19h.5z"></path></symbol><symbol id="bank-bni" viewBox="0 0 24 24"><path d="M9.9 19.6l1.7 2.4H4.2l4.6-3.7zm2.2-5.8a17.9 17.9 0 0 1-3.8-7.2c-.7-2.8-.4-4-.1-4.6H2v3.5l8 10zM2 9.7V22h.1L8 17.2zM11.1 2c-1.1 1.9.3 5.9 2.3 8.3 0 0 .3-4.3 3.9-5.7a5.6 5.6 0 0 1 4.7 0V2zm5.2 15.6a11.4 11.4 0 0 1-3.3-2.8l-2.2 1.8 2.4 2.9a4.2 4.2 0 0 0 3.4 1.4L15.3 22H22v-4.7a5.9 5.9 0 0 1-5.7.3zM19 6.3c-2.1-.4-5.1 1.1-3.8 5.3S19.5 17 22 16V8.2a5 5 0 0 0-3-1.9z"></path></symbol><symbol id="bank-bri" viewBox="0 0 24 24"><path d="M19.1 2H4.9A2.9 2.9 0 0 0 2 4.9v14.2A2.9 2.9 0 0 0 4.9 22h14.2a2.9 2.9 0 0 0 2.9-2.9V4.9A2.9 2.9 0 0 0 19.1 2zM6.9 20H5.5A1.4 1.4 0 0 1 4 18.5v-13A1.4 1.4 0 0 1 5.5 4h1.7c2.3 0 4 2.3 2.6 3.8L5.5 12l3.7 3.9c1.7 1.8-.3 4.1-2.3 4.1zm3.4 0c1.8 0 2.9-3 1-4.9L8.4 12l3.4-3.4A2.8 2.8 0 0 0 11 4h1.5c2.3 0 4 2.3 2.5 3.8L10.8 12l7.8 8zm3.4-8l3.4-3.4a2.8 2.8 0 0 0-.8-4.6h2.2A1.4 1.4 0 0 1 20 5.5v13z"></path></symbol><symbol id="bank-jenius" viewBox="0 0 24 24"><path d="M13.2 4a9.1 9.1 0 0 0-6.6 2.8C4 8 2 10.5 2 13.2c0 4.3 3.8 6.8 8.3 6.8a7.1 7.1 0 0 0 2.1-.3h1.5a7.9 7.9 0 0 0 8.1-7.6C22 7.6 18.3 4 13.2 4zm-3.1 3.2a4 4 0 0 1 3.8 3.9c0 2.5-1.5 4.1-3.7 4.1A3.9 3.9 0 0 1 6.5 11a3.7 3.7 0 0 1 3.6-3.8zm-.3 12.1a6.5 6.5 0 0 1-6.1-6.2 5.6 5.6 0 0 1 2-4.5 3.2 3.2 0 0 0-.5 1.8 1.9 1.9 0 0 0-.1.8 8.3 8.3 0 0 0 5.4 8zm2.2-.4a7.7 7.7 0 0 1-5.4-4.5 5.1 5.1 0 0 0 3.7 1.4 4.7 4.7 0 0 0 5-4.6 5.1 5.1 0 0 0-.5-2.3 6.2 6.2 0 0 1 1.7 4.3 6.4 6.4 0 0 1-4.5 5.7zm2.5 0a6.4 6.4 0 0 0 3.3-5.3c0-4.9-4.9-6.6-4.9-6.6a6.6 6.6 0 0 0-3.2-.8h-.4a8.1 8.1 0 0 1 4.5-1.5 7 7 0 0 1 6.7 6.8 7.6 7.6 0 0 1-6 7.4z"></path></symbol><symbol id="bank-mandiri" viewBox="0 0 24 24"><path d="M5.6 12.6c.1.1.1.3.1.7v1.5h-.6v-1.4A1 1 0 0 0 5 13l-.3-.2-.4.2c0 .1-.1.2-.1.3v1.5h-.7v-1.4c0-.2 0-.4-.1-.4s-.1-.2-.3-.2l-.3.2a.4.4 0 0 0-.1.3v1.5H2v-2.4h.7v.4l.3-.4h.5l.4.2.3.3.3-.3.5-.2zm2.6.7v1.5h-.6v-.3a.7.7 0 0 1-.6.3h-.2l-.5-.2a.7.7 0 0 1-.2-.6c0-.2 0-.3.1-.4l.3-.3h1c0-.6-.8-.5-1.1-.2l-.2-.5.9-.2a1 1 0 0 1 1.1.9zm-.6.3h-.8a.4.4 0 0 0-.1.3c0 .6.7.4.9 0zm2.5-1.3h-.5l-.3.4v-.4h-.7v2.4h.7v-1.4c0-.1.1-.2.1-.3l.4-.2.3.2a1 1 0 0 1 .1.4v1.4h.6v-1.5c0-.4 0-.6-.2-.7a.5.5 0 0 0-.5-.3zm6.7 2.5h.7v-2.4h-.7zm-3.2-.2v.2h-.7v-.3l-.3.2h-.4a.9.9 0 0 1-.7-.3 1.2 1.2 0 0 1-.3-.9 1.2 1.2 0 0 1 .3-.9.9.9 0 0 1 .7-.3h.4l.3.2v-1.1h.7v3.2zm-.7-1a1.3 1.3 0 0 0-.1-.6l-.4-.2-.3.2a1.4 1.4 0 0 0-.2.6 1.1 1.1 0 0 0 .2.6c0 .1.2.2.3.2l.4-.2a1.3 1.3 0 0 0 .1-.6zm8.2-4.1c-.8 0-1.4.9-2 .8s-.8-1.2-1.5-1.2-1.9 1.2-2.9 1.3-.9-1.3-1.7-1.1-2.1 1-3.3 1.6c.3.2.7.9 1.1.8s1.8-1.3 3.1-1.2.8 1 1.4 1.1 1.7-1.2 3.1-1.2.9 1.1 1.5 1.1 1.3-.7 2.1-1.1-.5-.8-.9-.9zm-5 3q-.3.1-.3.3v-.4h-.6v2.4h.7v-1.3a.5.5 0 0 1 .2-.4h.6v-.6h-.5zm-2 2.3h.7v-2.4h-.7z"></path></symbol><symbol id="behance" viewBox="0 0 24 24"><path d="M17.7 18.3a4.1 4.1 0 0 1-1.9-.4 3.8 3.8 0 0 1-1.5-.9 6 6 0 0 1-.9-1.5 6.2 6.2 0 0 1 0-3.8 6.5 6.5 0 0 1 1-1.5 7.1 7.1 0 0 1 1.4-1 5.8 5.8 0 0 1 1.9-.3 4.1 4.1 0 0 1 1.9.4 3.3 3.3 0 0 1 1.4 1.2 3.8 3.8 0 0 1 .8 1.7 6.5 6.5 0 0 1 .2 2h-6.4a1.9 1.9 0 0 0 .6 1.7 1.7 1.7 0 0 0 1.5.5 2.8 2.8 0 0 0 1.3-.3 1.8 1.8 0 0 0 .7-.8h2.1a4.1 4.1 0 0 1-1.6 2.3 4.3 4.3 0 0 1-2.5.7zm-.1-7.6l-1 .2-.6.5c-.1.2-.3.4-.3.6a1.3 1.3 0 0 0-.1.6h3.9a2.4 2.4 0 0 0-.5-1.4 2.4 2.4 0 0 0-1.4-.5zM8 18H2V5.7h5.8l1.6.2a2.6 2.6 0 0 1 1.2.5 1.7 1.7 0 0 1 .8.9 4 4 0 0 1 .3 1.5 2.6 2.6 0 0 1-.4 1.5 2.3 2.3 0 0 1-1.2 1 3.1 3.1 0 0 1 1.6 1.2 3.6 3.6 0 0 1 .6 2 3.2 3.2 0 0 1-.4 1.6 3.1 3.1 0 0 1-.9 1.1 4.2 4.2 0 0 1-1.4.6A4.7 4.7 0 0 1 8 18zm-3.3-5.4v3.3h3.7l.6-.3a1 1 0 0 0 .4-.5 1.1 1.1 0 0 0 .2-.8 1.9 1.9 0 0 0-.5-1.3 2 2 0 0 0-1.5-.4zm0-4.8v2.9h2.7a2.1 2.1 0 0 0 1.2-.3 1.3 1.3 0 0 0 .5-1.2 2 2 0 0 0-.1-.7l-.5-.4-.6-.2H4.7zm15.3 0h-4.9V6.6H20z"></path></symbol><symbol id="blogger" viewBox="0 0 24 24"><path d="M12.5 10H10c-.55 0-1-.45-1-1s.45-1 1-1h2.5c.55 0 1 .45 1 1s-.45 1-1 1m2.5 4c0-.55-.45-1-1-1h-4c-.55 0-1 .45-1 1s.45 1 1 1h4c.55 0 1-.45 1-1m7-10v16c0 1.11-.89 2-2 2H4c-1.11 0-2-.89-2-2V4c0-1.11.89-2 2-2h16c1.11 0 2 .89 2 2m-4 8s0-1-1-1c-.95.03-1-1-1-1V8c0-1.66-1.34-3-3-3H9C7.34 5 6 6.34 6 8v7c0 1.66 1.34 3 3 3h6c1.66 0 3-1.34 3-3v-3z"></path></symbol><symbol id="brightness-4" viewBox="0 0 24 24"><path d="M12 18c-.89 0-1.74-.2-2.5-.55C11.56 16.5 13 14.42 13 12c0-2.42-1.44-4.5-3.5-5.45C10.26 6.2 11.11 6 12 6a6 6 0 0 1 6 6 6 6 0 0 1-6 6m8-9.31V4h-4.69L12 .69 8.69 4H4v4.69L.69 12 4 15.31V20h4.69L12 23.31 15.31 20H20v-4.69L23.31 12 20 8.69z"></path></symbol><symbol id="brightness-7" viewBox="0 0 24 24"><path d="M12 8a4 4 0 0 0-4 4 4 4 0 0 0 4 4 4 4 0 0 0 4-4 4 4 0 0 0-4-4m0 10a6 6 0 0 1-6-6 6 6 0 0 1 6-6 6 6 0 0 1 6 6 6 6 0 0 1-6 6m8-9.31V4h-4.69L12 .69 8.69 4H4v4.69L.69 12 4 15.31V20h4.69L12 23.31 15.31 20H20v-4.69L23.31 12 20 8.69z"></path></symbol><symbol id="buffer" viewBox="0 0 24 24"><path d="M12.6 2.1l8.8 4.1c.2.1.4.1.4.4s-.2.2-.4.3L12.7 11a1.7 1.7 0 0 1-1.4 0L2.6 6.9c-.2-.1-.4-.1-.4-.4l.3-.3 8.9-4.1a2.4 2.4 0 0 1 1.2 0M12 22l-.7-.2-8.7-4.1c-.2 0-.4-.1-.4-.3s.2-.3.4-.4l1.4-.6a1.4 1.4 0 0 1 1.5 0l5.8 2.7a1.7 1.7 0 0 0 1.4 0l5.8-2.7a1.4 1.4 0 0 1 1.4-.1l1.6.8h.2a.3.3 0 0 1 0 .4h-.3l-8.7 4.1-.7.4m0-5.4l-.7-.2-8.7-4.1c-.2-.1-.4-.1-.4-.3s.2-.3.4-.4l1.5-.7a1.4 1.4 0 0 1 1.4.1l5.8 2.7a1.7 1.7 0 0 0 1.4 0l5.9-2.8a1.5 1.5 0 0 1 1.3 0l1.6.7.2.2a.3.3 0 0 1 0 .4h-.2l-8.8 4.1z"></path></symbol><symbol id="buy-me-a-coffee" viewBox="0 0 24 24"><path d="M18.8 7.3v-.5a1.5 1.5 0 0 0-.8-1.2.6.6 0 0 1-.5-.2c-.1-.1-.1-.3-.2-.4s-.1-.7-.1-1-.1-.6-.2-.8a2.2 2.2 0 0 0-.9-.7h-.5L13 2H9.9a8.5 8.5 0 0 0-2.3.4l-.8.4a.9.9 0 0 0-.1 1 1 1 0 0 0 .6.5l.9.3a24.8 24.8 0 0 0 2.7.3h3.8c.3-.1.5-.5.4-.7a.6.6 0 0 0-.7-.4h-1.1a15 15 0 0 1-3 0H8.5v-.4h3.9l1.7.2h.9c.3.1.7.1.9.5a.4.4 0 0 0 .1.3l.2 1.3c0 .1 0 .2-.1.2H16L12 6a25.6 25.6 0 0 1-3.9-.3H6l-.6.6c-.1.3-.1.6-.2.9s-.1.6-.1.8a1.4 1.4 0 0 0 1.1 1.2 30.3 30.3 0 0 0 9.5.3.4.4 0 0 1 .4.4v.5l-.9 8.3a3.4 3.4 0 0 1-.1 1 1.1 1.1 0 0 1-1 1l-1.4.2H11a2.1 2.1 0 0 1-1.7-.4 2.1 2.1 0 0 1-.5-1.5l-.6-5.9-.3-2.6a.6.6 0 0 0-1.1.1l.2 1.8.8 7.6a2.1 2.1 0 0 0 2 1.9h4.3a2.5 2.5 0 0 0 2.2-2.2c.3-2.8.5-5.6.8-8.4l.2-1.7c0-.2.2-.3.3-.4a1 1 0 0 0 .9-.4 1.4 1.4 0 0 0 .3-1.5zm-1.2.7l-.5.2a40.8 40.8 0 0 1-6.1.4l-4.3-.4-.4-.2c-.2-.2-.1-.6 0-.8a.6.6 0 0 1 .4-.6l1.2.2 1.5.2a25.8 25.8 0 0 0 6.2-.1l1.1-.2c.4-.1.7-.2.9.2a1.1 1.1 0 0 1 .2.8l-.2.3zm-5.1 3.2a6.6 6.6 0 0 1-2.6.7l-1.3-.2.7 7.5a1.3 1.3 0 0 0 1.3 1.2h2.8a1.3 1.3 0 0 0 1.3-1.2l.8-8.3-1.1-.2a5.9 5.9 0 0 0-1.9.5z"></path></symbol><symbol id="caret-down" viewBox="0 0 24 24"><path d="M12 15.3l-.4-.2-5.5-5.5a.5.5 0 0 1 .1-.7.5.5 0 0 1 .7 0L12 14l5.1-5.1a.6.6 0 0 1 .8 0 .9.9 0 0 1 0 .7l-5.5 5.5z"></path></symbol><symbol id="chat-dots" viewBox="0 0 24 24"><path d="M20.5 2.8h-17A1.6 1.6 0 0 0 2 4.4v15.2a1.4 1.4 0 0 0 .9 1.4l.6.2a1.5 1.5 0 0 0 1-.4l3.1-2.6h12.9a1.5 1.5 0 0 0 1.5-1.5V4.4a1.6 1.6 0 0 0-1.5-1.6zm0 13.9H7.6a1.9 1.9 0 0 0-1 .3l-3.1 2.6V4.4h17zm-9.7-6.2a1.2 1.2 0 0 1 2.4 0 1.2 1.2 0 0 1-2.4 0zm-4.6 0a1.1 1.1 0 0 1 1.2-1.1 1.1 1.1 0 0 1 1.1 1.1 1.1 1.1 0 0 1-1.1 1.2 1.2 1.2 0 0 1-1.2-1.2zm9.3 0a1.1 1.1 0 0 1 1.1-1.1 1.1 1.1 0 0 1 1.2 1.1 1.2 1.2 0 0 1-1.2 1.2 1.1 1.1 0 0 1-1.1-1.2z"></path></symbol><symbol id="chat" viewBox="0 0 24 24"><path d="M3.5 21.2l-.6-.2a1.4 1.4 0 0 1-.9-1.4V4.4a1.6 1.6 0 0 1 1.5-1.6h17A1.6 1.6 0 0 1 22 4.4v12.3a1.5 1.5 0 0 1-1.5 1.5H7.6l-3.1 2.6a1.5 1.5 0 0 1-1 .4zm0-16.8v15.2L6.6 17a1.9 1.9 0 0 1 1-.3h12.9V4.4z"></path></symbol><symbol id="check-1" viewBox="0 0 24 24"><path d="M9.2 18.3a.5.5 0 0 1-.5-.3l-5.5-5.5a.8.8 0 0 1 .1-1.1.9.9 0 0 1 1 0l4.9 5L19.7 5.9a.8.8 0 0 1 1.1.1.7.7 0 0 1 0 1l-11 11a.6.6 0 0 1-.6.3z"></path></symbol><symbol id="check-2" viewBox="0 0 24 24"><path d="M20.7 7L9.6 18.2l-.7.2-.6-.2-5-5.1a.8.8 0 0 1-.1-1.2 1.1 1.1 0 0 1 1.3 0l4.4 4.5L19.5 5.8a1.1 1.1 0 0 1 1.3 0 .8.8 0 0 1-.1 1.2z"></path></symbol><symbol id="check-decagram" viewBox="0 0 24 24"><path d="M23 12l-2.44-2.78.34-3.68-3.61-.82-1.89-3.18L12 3 8.6 1.54 6.71 4.72l-3.61.81.34 3.68L1 12l2.44 2.78-.34 3.69 3.61.82 1.89 3.18L12 21l3.4 1.46 1.89-3.18 3.61-.82-.34-3.68L23 12m-13 5l-4-4 1.41-1.41L10 14.17l6.59-6.59L18 9l-8 8z"></path></symbol><symbol id="check-one" viewBox="0 0 24 24"><path d="M19.4 4.6A10.4 10.4 0 0 0 12 1.5a10.2 10.2 0 0 0-7.4 3.1A10.2 10.2 0 0 0 1.5 12a10.2 10.2 0 0 0 3.1 7.4 10.2 10.2 0 0 0 7.4 3.1 10.4 10.4 0 0 0 7.4-3.1 10.2 10.2 0 0 0 3.1-7.4 10.2 10.2 0 0 0-3.1-7.4zm-1.3 13.5a8.6 8.6 0 0 1-6.1 2.5 8.6 8.6 0 1 1 0-17.2 8.6 8.6 0 0 1 6.1 14.7zm-.7-9.6a.9.9 0 0 1 0 1.3l-5.7 5.7a.9.9 0 0 1-.7.3l-.6-.3-2.9-2.8a1 1 0 0 1 0-1.4 1.2 1.2 0 0 1 1.4 0l2.1 2.2 5.1-5a.9.9 0 0 1 1.3 0z"></path></symbol><symbol id="check" viewBox="0 0 24 24"><path d="M21 7L9 19l-5.5-5.5 1.41-1.41L9 16.17 19.59 5.59 21 7z"></path></symbol><symbol id="chevron-down" viewBox="0 0 24 24"><path d="M7.41 8.58L12 13.17l4.59-4.59L18 10l-6 6-6-6 1.41-1.42z"></path></symbol><symbol id="circle-wavy-check" viewBox="0 0 24 24"><path d="M21.6 9.5l-.9-1.1a5.7 5.7 0 0 1-.1-1.4 4.2 4.2 0 0 0-.8-2.8 4.2 4.2 0 0 0-2.8-.8h-1.4a3.9 3.9 0 0 1-1.1-.9A3.8 3.8 0 0 0 12 1a3.8 3.8 0 0 0-2.5 1.4l-1.1.9H7a4.2 4.2 0 0 0-2.8.8A4.2 4.2 0 0 0 3.4 7a5.7 5.7 0 0 1-.1 1.4 3.9 3.9 0 0 1-.9 1.1A3.8 3.8 0 0 0 1 12a3.8 3.8 0 0 0 1.4 2.5l.9 1.1a5.7 5.7 0 0 1 .1 1.4 4.2 4.2 0 0 0 .8 2.8 4.2 4.2 0 0 0 2.8.8h1.4a3.9 3.9 0 0 1 1.1.9A3.8 3.8 0 0 0 12 23a3.8 3.8 0 0 0 2.5-1.4l1.1-.9H17a4.2 4.2 0 0 0 2.8-.8 4.2 4.2 0 0 0 .8-2.8 5.7 5.7 0 0 1 .1-1.4 3.9 3.9 0 0 1 .9-1.1A3.8 3.8 0 0 0 23 12a3.8 3.8 0 0 0-1.4-2.5zm-1.1 3.9a4.5 4.5 0 0 0-1.2 1.6 4.4 4.4 0 0 0-.3 2c0 .6 0 1.4-.3 1.7s-1.1.3-1.8.3a4.2 4.2 0 0 0-1.9.3 4.5 4.5 0 0 0-1.6 1.2c-.5.4-1 .9-1.4.9s-.9-.5-1.4-.9A4.5 4.5 0 0 0 9 19.3a4.2 4.2 0 0 0-1.9-.3c-.7 0-1.5 0-1.8-.3S5 17.6 5 17a4.4 4.4 0 0 0-.3-2 4.5 4.5 0 0 0-1.2-1.6c-.4-.5-.9-1-.9-1.4s.5-.9.9-1.4A4.5 4.5 0 0 0 4.7 9 4.2 4.2 0 0 0 5 7.1c0-.7 0-1.5.3-1.8S6.4 5 7 5a4.4 4.4 0 0 0 2-.3 4.5 4.5 0 0 0 1.6-1.2c.5-.4 1-.9 1.4-.9s.9.5 1.4.9A4.5 4.5 0 0 0 15 4.7a4.4 4.4 0 0 0 2 .3c.6 0 1.4 0 1.7.3S19 6.4 19 7a4.4 4.4 0 0 0 .3 2 4.5 4.5 0 0 0 1.2 1.6c.4.5.9 1 .9 1.4s-.5.9-.9 1.4zm-3.6-4.3a.8.8 0 0 1 0 1.1l-5.8 5.5c-.1.2-.3.2-.5.2a.7.7 0 0 1-.6-.2L7.1 13a.8.8 0 0 1 0-1.1c.2-.4.7-.4 1.1-.1l2.4 2.3 5.2-5a.8.8 0 0 1 1.1 0z"></path></symbol><symbol id="close-1" viewBox="0 0 24 24"><path d="M18.8 17.7a.8.8 0 0 1 0 1.1l-.6.2-.5-.2-5.7-5.7-5.7 5.7-.5.2-.6-.2a.8.8 0 0 1 0-1.1l5.7-5.7-5.7-5.7a.8.8 0 0 1 1.1-1.1l5.7 5.7 5.7-5.7a.8.8 0 0 1 1.1 1.1L13.1 12z"></path></symbol><symbol id="close" viewBox="0 0 24 24"><path d="M19 6.41L17.59 5 12 10.59 6.41 5 5 6.41 10.59 12 5 17.59 6.41 19 12 13.41 17.59 19 19 17.59 13.41 12 19 6.41z"></path></symbol><symbol id="codepen" viewBox="0 0 24 24"><path d="M8.2 12l-1.3.9v-1.8l1.3.9m3.3-2.2V7.3l-4.2 2.8 1.9 1.3 2.3-1.6m5.2.3l-4.2-2.8v2.5l2.3 1.6 1.9-1.3m-9.4 3.8l4.2 2.8v-2.5l-2.3-1.6-1.9 1.3m5.2.3v2.5l4.2-2.8-1.9-1.3-2.3 1.6m-.5-3.5L10.1 12l1.9 1.3 1.9-1.3-1.9-1.3M22 12A10 10 0 1 1 12 2a10 10 0 0 1 10 10m-3.8-1.9H18l-5.7-4.2a.6.6 0 0 0-.6 0L6.1 9.7h-.3v3.8h.3l5.6 3.8h.6l5.7-3h.2v-4.2m-1.1 2.8v-1.8l-1.3.9z"></path></symbol><symbol id="comment-outline" viewBox="0 0 24 24"><path d="M9 22a1 1 0 0 1-1-1v-3H4a2 2 0 0 1-2-2V4a2 2 0 0 1 2-2h16a2 2 0 0 1 2 2v12a2 2 0 0 1-2 2h-6.1l-3.7 3.71c-.2.19-.45.29-.7.29H9m1-6v3.08L13.08 16H20V4H4v12h6z"></path></symbol><symbol id="comment-text-outline" viewBox="0 0 24 24"><path d="M9 22a1 1 0 0 1-1-1v-3H4a2 2 0 0 1-2-2V4a2 2 0 0 1 2-2h16a2 2 0 0 1 2 2v12a2 2 0 0 1-2 2h-6.1l-3.7 3.71c-.2.19-.45.29-.7.29H9m1-6v3.08L13.08 16H20V4H4v12h6M6 7h12v2H6V7m0 4h9v2H6v-2z"></path></symbol><symbol id="content-copy" viewBox="0 0 24 24"><path d="M19 21H8V7h11m0-2H8a2 2 0 0 0-2 2v14a2 2 0 0 0 2 2h11a2 2 0 0 0 2-2V7a2 2 0 0 0-2-2m-3-4H4a2 2 0 0 0-2 2v14h2V3h12V1z"></path></symbol><symbol id="copy-1" viewBox="0 0 24 24"><path d="M18.9 3H8.5a2.1 2.1 0 0 0-2.1 2.1v1.3H5.1A2.1 2.1 0 0 0 3 8.5v10.4A2.1 2.1 0 0 0 5.1 21h10.4a2.1 2.1 0 0 0 2.1-2.1v-1.3h1.3a2.1 2.1 0 0 0 2.1-2.1V5.1A2.1 2.1 0 0 0 18.9 3zm-3 15.9a.4.4 0 0 1-.4.4H5.1a.4.4 0 0 1-.4-.4V8.5a.4.4 0 0 1 .4-.4h10.4a.4.4 0 0 1 .4.4zm3.4-3.4a.4.4 0 0 1-.4.4h-1.3V8.5a2.2 2.2 0 0 0-2.1-2.1H8.1V5.1a.4.4 0 0 1 .4-.4h10.4a.4.4 0 0 1 .4.4z"></path></symbol><symbol id="copy" viewBox="0 0 24 24"><path d="M20.2 3H8.3a.7.7 0 0 0-.8.8v3.7H3.8a.7.7 0 0 0-.8.8v11.9a.7.7 0 0 0 .8.8h11.9a.7.7 0 0 0 .8-.8v-3.7h3.7a.7.7 0 0 0 .8-.8V3.8a.7.7 0 0 0-.8-.8zM15 19.5H4.5V9H15zm4.5-4.5h-3V8.3a.7.7 0 0 0-.8-.8H9v-3h10.5z"></path></symbol><symbol id="dana" viewBox="0 0 24 24"><path d="M21.8 11.2a9.6 9.6 0 0 0-2.1-5.3 5 5 0 0 0-1.1-1.3 8.4 8.4 0 0 0-3.1-1.9 10 10 0 0 0-4.3-.7 9.7 9.7 0 0 0-7.6 4.8 10.3 10.3 0 0 0-1.4 6A10 10 0 0 0 12.8 22a10 10 0 0 0 9-10.8zm-4.1-1.5v5.2c0 .3-.2.1-.3 0-3.4-1.9-6.7 2-10 .8-1.3-.4-1.1-.7-1.1-1.5s-.1-4.8 0-5.1a14 14 0 0 0 1.9.7c3 .4 6.2-3.2 9.2-1.1.4.3.3.4.3 1z"></path></symbol><symbol id="dark-mode" viewBox="0 0 24 24"><path d="M22.7 11.3l-2.3-2.4V4.6a1.1 1.1 0 0 0-1-1h-4.3l-2.4-2.3a1 1 0 0 0-1.4 0L8.9 3.6H4.6a1.1 1.1 0 0 0-1 1v4.3l-2.3 2.4a1 1 0 0 0 0 1.4l2.3 2.4v4.3a1.1 1.1 0 0 0 1 1h4.3l2.4 2.3a1 1 0 0 0 1.4 0l2.4-2.3h4.3a1.1 1.1 0 0 0 1-1v-4.3l2.3-2.4a1 1 0 0 0 0-1.4zm-4 2.6a1.1 1.1 0 0 0-.3.7v3.8h-3.8a1.1 1.1 0 0 0-.7.3L12 20.6l-1.9-1.9a1.1 1.1 0 0 0-.7-.3H5.6v-3.8a1.1 1.1 0 0 0-.3-.7L3.4 12l1.9-1.9a1.1 1.1 0 0 0 .3-.7V5.6h3.8a1.1 1.1 0 0 0 .7-.3L12 3.4l1.9 1.9a1.1 1.1 0 0 0 .7.3h3.8v3.8a1.1 1.1 0 0 0 .3.7l1.9 1.9zm-5.2-6.4a.9.9 0 0 0-1 1c0 2.9-1.4 3.5-4 3.5a.9.9 0 0 0-1 1 3.9 3.9 0 0 0 2.3 3.3 4.4 4.4 0 0 0 2.2.5 5 5 0 0 0 3.1-1 4.7 4.7 0 0 0 1.5-5.4c-.5-1.7-1.8-2.9-3.1-2.9zm.4 6.7a2.9 2.9 0 0 1-3.2.3 1.6 1.6 0 0 1-.8-.6 4.4 4.4 0 0 0 4.4-3.7 2 2 0 0 1 .4.8 2.7 2.7 0 0 1-.8 3.2z"></path></symbol><symbol id="dev" viewBox="0 0 24 24"><path d="M7.7 11.9c0 1.7 0 1.9-.2 2.1s-.4.2-.8.2h-.5V9.7h.5l.8.2c.2.2.2.3.2 2M22 7.5v9a2 2 0 0 1-2 2H4a2 2 0 0 1-2-2v-9a2 2 0 0 1 2-2h16a2 2 0 0 1 2 2M8.9 11.7c0-1.8 0-2-.3-2.4s-.8-.8-2.3-.8H5v7h1.2c1.3 0 1.9-.2 2.3-.7s.5-1 .4-3.1m4.2-3.2h-1.5c-1.5 0-1.5 0-1.7.3s-.2.4-.2 3.2v3l.3.2c.2.3.3.3 1.7.3h1.4v-1.2h-2.2v-1.7h1.4v-1.3h-1.4V9.7h2.2V8.5m5.9.1h-1.3l-.6 2.3c-.4 1.5-.6 2.3-.7 2.1s-1.1-4.4-1.1-4.4h-1.4l.4 1.6c.2.8.6 2.2.8 3.1s.5 1.7.8 1.9a.7.7 0 0 0 .6.4 1.2 1.2 0 0 0 .9-.7z"></path></symbol><symbol id="deviant-art" viewBox="0 0 24 24"><path d="M6 6h6l2-4h4v4l-3.5 7H18v5h-6l-2 4H6v-4l3.5-7H6z"></path></symbol><symbol id="discord" viewBox="0 0 24 24"><path d="M20.7 22l-4.6-4.3.6 1.7H5.5a2.2 2.2 0 0 1-2.2-2.2v-13A2.2 2.2 0 0 1 5.5 2h13a2.2 2.2 0 0 1 2.2 2.2V22M12 7a8.6 8.6 0 0 0-4 1 7 7 0 0 1 2.5-1.2l-.2-.2a6.5 6.5 0 0 0-2.8 1.1 15.6 15.6 0 0 0-1.4 5.8A4 4 0 0 0 9.2 15l.6-.8A3.8 3.8 0 0 1 8 13a8.1 8.1 0 0 0 4 1.1 8.1 8.1 0 0 0 4-1.1 3.8 3.8 0 0 1-1.8 1.2l.6.8a4 4 0 0 0 3.1-1.5 15.6 15.6 0 0 0-1.4-5.8 6.5 6.5 0 0 0-2.8-1.1l-.2.2A7 7 0 0 1 16 8a8.6 8.6 0 0 0-4-1m-1.8 3.3a1 1 0 0 1 1 1.1 1 1 0 1 1-2 0 1 1 0 0 1 1-1.1m3.6 0a1 1 0 0 1 1 1.1 1 1 0 0 1-1 1.1 1.1 1.1 0 0 1 0-2.2z"></path></symbol><symbol id="disqus" viewBox="0 0 24 24"><path d="M12.4 21.7a9.9 9.9 0 0 1-6.3-2.3L2 20l1.6-4a10.2 10.2 0 0 1-.9-4 9.7 9.7 0 1 1 9.7 9.7m5.2-9.7c0-2.8-2-4.8-5.4-4.8H8.6V17h3.6c3.4 0 5.4-2.1 5.4-4.9m-5.3 2.5h-1.1v-5h1.1a2.3 2.3 0 0 1 2.6 2.4 2.3 2.3 0 0 1-2.6 2.5z"></path></symbol><symbol id="document-folder" viewBox="0 0 24 24"><path d="M9.4 3.5L5.8 3a1 1 0 0 0-.7.2 1.1 1.1 0 0 0-.3.6L3 19.5a.8.8 0 0 0 .8 1l3.8.5h.1l.6-.2a.7.7 0 0 0 .3-.6l1.6-15.8a.9.9 0 0 0-.8-.9zM6.9 19.1l-2-.2 1.6-14 1.8.2zm7.3-11.2v1.4a.9.9 0 0 1-.9.9 1 1 0 0 1-.9-.9V7.9a1 1 0 0 1 .9-.8.9.9 0 0 1 .9.8zM20.1 3h-9a.9.9 0 0 0-.9.9v16.2a.9.9 0 0 0 .9.9h9a.9.9 0 0 0 .9-.9V3.9a.9.9 0 0 0-.9-.9zM12 4.8h2.7v14.4H12zm7.2 14.4h-2.7V4.8h2.7zm-2.3-9.9V7.9a1 1 0 0 1 .9-.8.9.9 0 0 1 .9.8v1.4a.9.9 0 0 1-.9.9 1 1 0 0 1-.9-.9z"></path></symbol><symbol id="dots-grid" viewBox="0 0 24 24"><path d="M12 16c1.1 0 2 .9 2 2s-.9 2-2 2-2-.9-2-2 .9-2 2-2m0-6c1.1 0 2 .9 2 2s-.9 2-2 2-2-.9-2-2 .9-2 2-2m0-6c1.1 0 2 .9 2 2s-.9 2-2 2-2-.9-2-2 .9-2 2-2M6 16c1.1 0 2 .9 2 2s-.9 2-2 2-2-.9-2-2 .9-2 2-2m0-6c1.1 0 2 .9 2 2s-.9 2-2 2-2-.9-2-2 .9-2 2-2m0-6c1.1 0 2 .9 2 2s-.9 2-2 2-2-.9-2-2 .9-2 2-2m12 12c1.1 0 2 .9 2 2s-.9 2-2 2-2-.9-2-2 .9-2 2-2m0-6c1.1 0 2 .9 2 2s-.9 2-2 2-2-.9-2-2 .9-2 2-2m0-6c1.1 0 2 .9 2 2s-.9 2-2 2-2-.9-2-2 .9-2 2-2z"></path></symbol><symbol id="dots-horizontal" viewBox="0 0 24 24"><path d="M16 12a2 2 0 0 1 2-2 2 2 0 0 1 2 2 2 2 0 0 1-2 2 2 2 0 0 1-2-2m-6 0a2 2 0 0 1 2-2 2 2 0 0 1 2 2 2 2 0 0 1-2 2 2 2 0 0 1-2-2m-6 0a2 2 0 0 1 2-2 2 2 0 0 1 2 2 2 2 0 0 1-2 2 2 2 0 0 1-2-2z"></path></symbol><symbol id="dots-nine" viewBox="0 0 24 24"><path d="M6.4 5.2a1.2 1.2 0 0 1-1.2 1.2A1.2 1.2 0 0 1 4 5.2 1.2 1.2 0 0 1 5.2 4a1.2 1.2 0 0 1 1.2 1.2zM12 4a1.2 1.2 0 0 0-1.2 1.2 1.2 1.2 0 0 0 2.4 0A1.2 1.2 0 0 0 12 4zm6.8 2.4A1.2 1.2 0 0 0 20 5.2a1.2 1.2 0 1 0-2.4 0 1.2 1.2 0 0 0 1.2 1.2zM5.2 17.6a1.2 1.2 0 1 0 0 2.4 1.2 1.2 0 1 0 0-2.4zm6.8 0a1.2 1.2 0 1 0 1.2 1.2 1.2 1.2 0 0 0-1.2-1.2zm6.8 0a1.2 1.2 0 1 0 1.2 1.2 1.2 1.2 0 0 0-1.2-1.2zM5.2 10.8a1.2 1.2 0 0 0 0 2.4 1.2 1.2 0 1 0 0-2.4zm6.8 0a1.2 1.2 0 1 0 1.2 1.2 1.2 1.2 0 0 0-1.2-1.2zm6.8 0A1.2 1.2 0 1 0 20 12a1.2 1.2 0 0 0-1.2-1.2z"></path></symbol><symbol id="dots-three" viewBox="0 0 24 24"><path d="M6.5 12a1.2 1.2 0 0 1-1.2 1.3 1.3 1.3 0 0 1 0-2.6A1.2 1.2 0 0 1 6.5 12zm12.2-1.3a1.2 1.2 0 0 0-1.2 1.3 1.2 1.2 0 0 0 1.2 1.3 1.3 1.3 0 1 0 0-2.6zm-6.7 0a1.3 1.3 0 1 0 1.3 1.3 1.3 1.3 0 0 0-1.3-1.3z"></path></symbol><symbol id="down" viewBox="0 0 24 24"><path d="M17.7 10l-5.1 5.2-.6.2-.6-.2L6.3 10a.7.7 0 0 1 0-1.2.9.9 0 0 1 1.2 0l4.5 4.6 4.5-4.6a.9.9 0 0 1 1.2 0 .7.7 0 0 1 0 1.2z"></path></symbol><symbol id="email" viewBox="0 0 24 24"><path d="M20 8l-8 5-8-5V6l8 5 8-5m0-2H4c-1.11 0-2 .89-2 2v12a2 2 0 0 0 2 2h16a2 2 0 0 0 2-2V6a2 2 0 0 0-2-2z"></path></symbol><symbol id="evernote" viewBox="0 0 24 24"><path d="M15.09 11.63s.19-1.28.91-1.28c.76 0 1.78 1.71 1.78 1.71s-2.32-.43-2.69-.43M19 4.69c-.36-.6-2.17-1.28-3.11-1.28H13.5S12.7 2 10.88 2c-1.83 0-1.71.81-1.71 1.5v2.82l-.83.87H4.5s-1.06.72-1.06 2.25c0 1.56.48 6.91 3.69 7.41 3.8.58 4.45-1.18 4.45-1.39 0-.9.02-2.25.02-2.25s1.11 2.12 2.79 2.12 2.65.97 2.65 1.96v1.84S17 20.28 16 20.28h-2.11s-.69-.54-.69-1.28c0-.75.33-.95.73-.95.39 0 .72.04.72.04v-1.56s-3.18-.03-3.18 2.41c0 2.43 1.66 3.06 2.99 3.06h2.17s3.93-.5 3.93-8.25S19.33 5.28 19 4.69M7.5 6.31H4.26l4.06-4.09V5.5l-.82.81z"></path></symbol><symbol id="eye-off-outline" viewBox="0 0 24 24"><path d="M2 5.27L3.28 4 20 20.72 18.73 22l-3.08-3.08c-1.15.38-2.37.58-3.65.58-5 0-9.27-3.11-11-7.5.69-1.76 1.79-3.31 3.19-4.54L2 5.27M12 9a3 3 0 0 1 3 3 3 3 0 0 1-.17 1L11 9.17A3 3 0 0 1 12 9m0-4.5c5 0 9.27 3.11 11 7.5a11.79 11.79 0 0 1-4 5.19l-1.42-1.43A9.862 9.862 0 0 0 20.82 12 9.821 9.821 0 0 0 12 6.5c-1.09 0-2.16.18-3.16.5L7.3 5.47c1.44-.62 3.03-.97 4.7-.97M3.18 12A9.821 9.821 0 0 0 12 17.5c.69 0 1.37-.07 2-.21L11.72 15A3.064 3.064 0 0 1 9 12.28L5.6 8.87c-.99.85-1.82 1.91-2.42 3.13z"></path></symbol><symbol id="eye-slash" viewBox="0 0 24 24"><path d="M5.2 3.4a.7.7 0 0 0-1 0 .8.8 0 0 0-.1 1l1.8 2a12.7 12.7 0 0 0-4.8 5.3.6.6 0 0 0 0 .6 11.5 11.5 0 0 0 2.5 3.5 11.6 11.6 0 0 0 8.4 3.5 11.5 11.5 0 0 0 4.8-1l2 2.3.5.2.5-.2a.7.7 0 0 0 .1-1zm4.3 7l3.9 4.2a3.5 3.5 0 0 1-1.4.3A2.9 2.9 0 0 1 9.1 12a2.9 2.9 0 0 1 .4-1.6zm2.5 7.5a10.1 10.1 0 0 1-7.3-3.1A9.4 9.4 0 0 1 2.6 12a11.3 11.3 0 0 1 4.3-4.5l1.6 1.8a4.5 4.5 0 0 0 .8 6.2 4.5 4.5 0 0 0 5.1.2l1.3 1.5a11.6 11.6 0 0 1-3.7.7zm10.9-5.6a11.8 11.8 0 0 1-3 4l-.5.2a.9.9 0 0 1-.6-.3.8.8 0 0 1 .1-1 11.1 11.1 0 0 0 2.5-3.2 9.4 9.4 0 0 0-2.1-2.8A10.1 10.1 0 0 0 12 6.1l-1.8.2c-.4 0-.8-.2-.8-.6a.8.8 0 0 1 .6-.9h2a11.6 11.6 0 0 1 8.4 3.5 11.5 11.5 0 0 1 2.5 3.5.6.6 0 0 1 0 .5zM12.6 9.1c-.4-.1-.7-.4-.6-.8a.6.6 0 0 1 .8-.6 4.4 4.4 0 0 1 3.6 3.9.8.8 0 0 1-.7.8h-.1a.8.8 0 0 1-.7-.7 3 3 0 0 0-2.3-2.6z"></path></symbol><symbol id="facebook-messanger" viewBox="0 0 24 24"><path d="M12 2a9.7 9.7 0 0 0-10 9.7 9.8 9.8 0 0 0 3.1 7.2.5.5 0 0 1 .3.5v1.8a.7.7 0 0 0 1.1.7l2-.8H9a9.2 9.2 0 0 0 2.9.4A9.7 9.7 0 1 0 12 2m6 7.5l-2.9 4.6a1.4 1.4 0 0 1-2.2.4l-2.3-1.7a.6.6 0 0 0-.8 0l-3.1 2.4a.5.5 0 0 1-.7-.7l2.9-4.6a1.5 1.5 0 0 1 2.2-.4l2.3 1.7a.6.6 0 0 0 .8 0l3.1-2.4a.5.5 0 0 1 .7.7z"></path></symbol><symbol id="facebook" viewBox="0 0 24 24"><path d="M12 2.04c-5.5 0-10 4.49-10 10.02 0 5 3.66 9.15 8.44 9.9v-7H7.9v-2.9h2.54V9.85c0-2.51 1.49-3.89 3.78-3.89 1.09 0 2.23.19 2.23.19v2.47h-1.26c-1.24 0-1.63.77-1.63 1.56v1.88h2.78l-.45 2.9h-2.33v7a10 10 0 0 0 8.44-9.9c0-5.53-4.5-10.02-10-10.02z"></path></symbol><symbol id="file-document-outline" viewBox="0 0 24 24"><path d="M6 2a2 2 0 0 0-2 2v16a2 2 0 0 0 2 2h12a2 2 0 0 0 2-2V8l-6-6H6m0 2h7v5h5v11H6V4m2 8v2h8v-2H8m0 4v2h5v-2H8z"></path></symbol><symbol id="file-removal" viewBox="0 0 24 24"><path d="M20.1 7.1H20v-.3l-4-4.5a1.1 1.1 0 0 0-.7-.3H5.6a1.8 1.8 0 0 0-1.8 1.8v16.4A1.8 1.8 0 0 0 5.6 22h12.8a1.8 1.8 0 0 0 1.8-1.8V7.5c0-.2 0-.3-.1-.4zm-4.5-2.3l1.6 1.7h-1.6zm2.8 15.4H5.6V3.8h8.2v3.7a.9.9 0 0 0 .9.9h3.7zm-9.6-7.3h6.4a.9.9 0 0 1 0 1.8H8.8a.9.9 0 1 1 0-1.8z"></path></symbol><symbol id="file-text" viewBox="0 0 24 24"><path d="M20.2 7.6l-5.3-5.4-.6-.2H5.1a1.6 1.6 0 0 0-1.6 1.5v17A1.6 1.6 0 0 0 5.1 22h13.8a1.6 1.6 0 0 0 1.6-1.5V8.2a.7.7 0 0 0-.3-.6zm-5.1-3l2.7 2.8h-2.7zm3.8 15.9H5.1v-17h8.4v4.7a.8.8 0 0 0 .8.7h4.6zm-3.1-7.7a.7.7 0 0 1-.7.7H8.9a.7.7 0 0 1-.7-.7.7.7 0 0 1 .7-.8h6.2a.7.7 0 0 1 .7.8zm0 3a.7.7 0 0 1-.7.8H8.9a.7.7 0 0 1-.7-.8.7.7 0 0 1 .7-.7h6.2a.7.7 0 0 1 .7.7z"></path></symbol><symbol id="format-list-numbered" viewBox="0 0 24 24"><path d="M7 13v-2h14v2H7m0 6v-2h14v2H7M7 7V5h14v2H7M3 8V5H2V4h2v4H3m-1 9v-1h3v4H2v-1h2v-.5H3v-1h1V17H2m2.25-7a.75.75 0 0 1 .75.75c0 .2-.08.39-.21.52L3.12 13H5v1H2v-.92L4 11H2v-1h2.25z"></path></symbol><symbol id="github" viewBox="0 0 24 24"><path d="M12 2.2a10 10 0 0 0-3.2 19.5c.5.1.7-.2.7-.5v-1.6c-2.8.6-3.4-1.4-3.4-1.4A2.9 2.9 0 0 0 5 16.7c-.9-.6.1-.6.1-.6a2.1 2.1 0 0 1 1.5 1.1 2.2 2.2 0 0 0 2.9.8 2 2 0 0 1 .7-1.3c-2.3-.3-4.6-1.1-4.6-5A3.7 3.7 0 0 1 6.7 9a3.2 3.2 0 0 1 .1-2.6s.8-.3 2.7 1a10.6 10.6 0 0 1 5 0c1.9-1.3 2.7-1 2.7-1a3.4 3.4 0 0 1 .2 2.6 4.1 4.1 0 0 1 1 2.7c0 3.9-2.4 4.7-4.6 5a2.2 2.2 0 0 1 .7 1.8v2.7c0 .3.2.6.7.5A10 10 0 0 0 12 2.2z"></path></symbol><symbol id="gitlab" viewBox="0 0 24 24"><path d="M21.9 13.1l-1-3.2-2.1-6.6a.9.9 0 0 0-.8-.5.8.8 0 0 0-.8.5l-2 6.2H8.8l-2-6.2a.8.8 0 0 0-.8-.5 1 1 0 0 0-.8.5L3.1 9.8l-1 3.3a1.2 1.2 0 0 0 .4 1.4l9.2 6.7a.6.6 0 0 0 .6 0l9.2-6.7a1.2 1.2 0 0 0 .4-1.4M8.2 10.5l2.5 7.9-6.1-7.9m8.7 7.9l2.5-7.6v-.3h3.6l-5.6 7.1M18 3.9l1.8 5.6h-3.6m-1.3 1L13.1 16 12 19.2l-2.9-8.7M6 3.9l1.8 5.6H4.2m-1.1 4.2c-.1-.1-.2-.2-.1-.3l.8-2.4 5.8 7.4M21 13.7l-6.6 4.7h.1l5.8-7.4.7 2.4c.1.1 0 .2 0 .3"></path></symbol><symbol id="gojek" viewBox="0 0 24 24"><path d="M22 12.2a9.9 9.9 0 0 1-6 9.2 1.8 1.8 0 0 1-2.6-1 1.8 1.8 0 0 1 1.1-2.3 6.3 6.3 0 1 0-7.6-9.5 6.2 6.2 0 0 0-.3 6.9 7 7 0 0 0 2.8 2.6 1.8 1.8 0 0 1 1.1 2.5 1.9 1.9 0 0 1-2.7.8 9.7 9.7 0 0 1-5.6-7.3A9.9 9.9 0 0 1 9.3 2.7a9.8 9.8 0 0 1 12.3 7.2 22.3 22.3 0 0 1 .4 2.3zm-6.3.1A3.8 3.8 0 0 0 12 8.6c-1.8-.1-3.9 1.9-3.7 3.6a3.7 3.7 0 0 0 3.7 3.9 3.8 3.8 0 0 0 3.7-3.8z"></path></symbol><symbol id="goodreads" viewBox="0 0 24 24"><path d="M17.3 12.9a6.4 6.4 0 0 1-5.3 3c-3.5 0-6.4-3.1-6.4-7A6.7 6.7 0 0 1 12 2a6.4 6.4 0 0 1 5.3 3V2h1.1v13.6c0 6.1-3.9 6.4-7.2 6.4s-4.4-1.9-4.9-4.4h1.1a3.7 3.7 0 0 0 3.8 3.3c2.4 0 6.1 0 6.1-5.3v-2.7M12 3.1a5.6 5.6 0 0 0-5.3 5.8 5.6 5.6 0 0 0 5.3 5.9 5.6 5.6 0 0 0 5.3-5.9A5.6 5.6 0 0 0 12 3.1z"></path></symbol><symbol id="google-maps" viewBox="0 0 24 24"><path d="M18.3 6a7.4 7.4 0 0 1-.4 6.8 37.2 37.2 0 0 1-3.4 4.7 17.6 17.6 0 0 0-1.4 2.3l-.3.8-.3.8c-.1.3-.2.6-.5.6-.4 0-.5-.4-.6-.7a10.2 10.2 0 0 0-.8-2.1 18.2 18.2 0 0 0-1.5-2.3L18.3 6M9.1 8.4l-3.3 3.9a16.7 16.7 0 0 0 2.4 3.5l.6.8 4.2-4.9A3 3 0 0 1 9.3 10c-.1-.2-.1-.4-.2-.6v-1M6.6 4.6a7.7 7.7 0 0 0-1 7.3l4-4.7-3-2.6m7.6-2.2L11 6.2a3 3 0 0 1 3.6 1.3l.3.9a3.4 3.4 0 0 1 0 1l3.2-3.8a6.9 6.9 0 0 0-3.9-3.2M9.9 6.9l3.9-4.7L12 2a6.6 6.6 0 0 0-5.1 2.3h-.1z"></path></symbol><symbol id="google-my-business" viewBox="0 0 24 24"><path d="M22 8.5a2.5 2.5 0 0 1-5 0 2.5 2.5 0 0 1-5 0 2.5 2.5 0 0 1-5 0A2.5 2.5 0 0 1 4.5 11 2.5 2.5 0 0 1 2 8.5l1.4-5.4S3.7 2 4.7 2h14.6c1 0 1.3 1.1 1.3 1.1L22 8.5m-1 3.7V20a2 2 0 0 1-2 2H5a2 2 0 0 1-2-2v-7.8a4 4 0 0 0 1.5.3 3.8 3.8 0 0 0 2.5-.9 3.9 3.9 0 0 0 5 0 3.9 3.9 0 0 0 5 0 3.8 3.8 0 0 0 2.5.9 4 4 0 0 0 1.5-.3m-2 5.1v-.8h-3v1.2h1.9l-.3.6a1.7 1.7 0 0 1-1.3.5 2.4 2.4 0 0 1-1.4-.5 1.8 1.8 0 0 1 .1-2.6 1.8 1.8 0 0 1 2.5 0h.1l.9-.9h-.2a3 3 0 0 0-2.1-.8 2.9 2.9 0 0 0-2.1.9 2.7 2.7 0 0 0-.9 2.1 2.9 2.9 0 0 0 .9 2.1 2.9 2.9 0 0 0 2.2.9 2.8 2.8 0 0 0 2-.8 2.7 2.7 0 0 0 .7-1.9z"></path></symbol><symbol id="google-play" viewBox="0 0 24 24"><path d="M3 20.6V3.4A1.5 1.5 0 0 1 3.8 2l10 10-10 10a1.6 1.6 0 0 1-.8-1.4m14-5.4L6.1 21.5l8.6-8.6 2.3 2.3m3.4-4.4a1.5 1.5 0 0 1 0 2.4l-2.3 1.3-2.5-2.5 2.5-2.5 2.3 1.3M6.1 2.5L17 8.8l-2.3 2.3z"></path></symbol><symbol id="google-podcast" viewBox="0 0 24 24"><path d="M17.7 7.2v1.4a1.3 1.3 0 0 1-1.3 1.3 1.2 1.2 0 0 1-1.2-1.3V7.2A1.2 1.2 0 0 1 16.4 6a1.2 1.2 0 0 1 1.3 1.2m-4.5 1.2v7.2a1.2 1.2 0 1 1-2.4 0V8.4a1.2 1.2 0 1 1 2.4 0m8.8 2.9v1.4a1.2 1.2 0 0 1-1.2 1.2 1.2 1.2 0 0 1-1.3-1.2v-1.4a1.2 1.2 0 0 1 1.3-1.2 1.2 1.2 0 0 1 1.2 1.2m-17.5 0v1.4a1.2 1.2 0 0 1-1.3 1.2A1.2 1.2 0 0 1 2 12.7v-1.4a1.2 1.2 0 0 1 1.2-1.2 1.2 1.2 0 0 1 1.3 1.2m4.3 4.1v1.4A1.2 1.2 0 0 1 7.6 18a1.2 1.2 0 0 1-1.3-1.2v-1.4a1.3 1.3 0 0 1 1.3-1.3 1.2 1.2 0 0 1 1.2 1.3m4.4 4v1.4a1.2 1.2 0 0 1-2.4 0v-1.4a1.2 1.2 0 1 1 2.4 0m0-16.2v1.4a1.2 1.2 0 1 1-2.4 0V3.2A1.2 1.2 0 0 1 12 2a1.2 1.2 0 0 1 1.2 1.2m4.5 9.1v4.5a1.2 1.2 0 0 1-1.3 1.2 1.2 1.2 0 0 1-1.2-1.2v-4.5a1.2 1.2 0 0 1 1.2-1.2 1.2 1.2 0 0 1 1.3 1.2M8.8 7.2v4.4a1.2 1.2 0 0 1-1.2 1.3 1.3 1.3 0 0 1-1.3-1.3V7.2A1.2 1.2 0 0 1 7.6 6a1.2 1.2 0 0 1 1.2 1.2z"></path></symbol><symbol id="google" viewBox="0 0 24 24"><path d="M21.6 11.1h-9.2v2.7h6.5c-.3 3.8-3.5 5.5-6.5 5.5A7.3 7.3 0 0 1 5.2 12a7.2 7.2 0 0 1 7.2-7.3 7 7 0 0 1 4.9 2l1.9-2A9.6 9.6 0 0 0 12.3 2a10.2 10.2 0 0 0-10 10 10.1 10.1 0 0 0 10.2 10 8.8 8.8 0 0 0 9.2-9.1 14.1 14.1 0 0 0-.1-1.8z"></path></symbol><symbol id="gopay" viewBox="0 0 24 24"><path d="M16 12.6c0 .2-.1.3-.2.5v.3a.5.5 0 0 1-.5.4.4.4 0 0 1-.4-.4v-.3c-.1-.2-.2-.3-.2-.5a.6.6 0 0 1 .6-.6.7.7 0 0 1 .7.6zm6-.6a9.9 9.9 0 0 1-10 9.7A9.9 9.9 0 0 1 2 12a9.9 9.9 0 0 1 10-9.7A9.9 9.9 0 0 1 22 12zm-4.2-.3a2.2 2.2 0 0 0-2.4-2.1H9.1a.4.4 0 1 1 0-.8h6.4A2 2 0 0 0 14 7a17.5 17.5 0 0 0-5.6 0 2.5 2.5 0 0 0-2 2.2 18.2 18.2 0 0 0 0 5.7A2.7 2.7 0 0 0 8.7 17a26.6 26.6 0 0 0 6.9 0 2.4 2.4 0 0 0 2-2 12.2 12.2 0 0 0 .2-3.3z"></path></symbol><symbol id="hamburger-button" viewBox="0 0 24 24"><path d="M3 6a.9.9 0 0 1 1-1h16a.9.9 0 0 1 1 1 .9.9 0 0 1-1 1H4a.9.9 0 0 1-1-1zm17 5H4a1 1 0 0 0 0 2h16a1 1 0 0 0 0-2zm0 6H4a1 1 0 0 0 0 2h16a1 1 0 0 0 0-2z"></path></symbol><symbol id="hash" viewBox="0 0 24 24"><path d="M21 8.3h-4.6l.8-4.4a.8.8 0 0 0-.6-.9.6.6 0 0 0-.8.6l-.9 4.7h-4.5l.8-4.4a.8.8 0 0 0-.6-.9.6.6 0 0 0-.8.6l-.9 4.7H4.1a.8.8 0 0 0-.8.7.9.9 0 0 0 .8.8h4.5l-.8 4.5H3a.8.8 0 0 0-.8.7.9.9 0 0 0 .8.8h4.6l-.8 4.3a.8.8 0 0 0 .6.9h.1a.7.7 0 0 0 .7-.6l.9-4.7h4.5l-.8 4.4a.8.8 0 0 0 .6.9h.1a.7.7 0 0 0 .7-.6l.9-4.7h4.8a.8.8 0 0 0 .8-.7.9.9 0 0 0-.8-.8h-4.5l.8-4.5H21a.8.8 0 0 0 .8-.7.9.9 0 0 0-.8-.8zm-7.2 6H9.4l.8-4.5h4.4z"></path></symbol><symbol id="home-variant-outline" viewBox="0 0 24 24"><path d="M9 13h6v6h3v-9l-6-4.5L6 10v9h3v-6m-5 8V9l8-6 8 6v12H4z"></path></symbol><symbol id="home" viewBox="0 0 24 24"><path d="M21.6 10.4l-9-7.2a.9.9 0 0 0-1.2 0l-9 7.2a.9.9 0 0 0-.3.7 1.4 1.4 0 0 0 .2.6 1 1 0 0 0 1.3.1l.7-.6v8.9a1 1 0 0 0 .9.9h13.6a1 1 0 0 0 .9-.9v-8.9l.7.6a1 1 0 0 0 1.3-.1 1.4 1.4 0 0 0 .2-.6.9.9 0 0 0-.3-.7zm-11 8.8v-4.1h2.8v4.1zm7.3 0h-2.7v-5a1.1 1.1 0 0 0-.9-.9H9.7a1.1 1.1 0 0 0-.9.9v5H6.1V9.7L12 5.1l5.9 4.6z"></path></symbol><symbol id="house" viewBox="0 0 24 24"><path d="M19.3 21h-4.4a1.5 1.5 0 0 1-1.4-1.5v-4.3h-3v4.3A1.5 1.5 0 0 1 9.1 21H4.7a1.5 1.5 0 0 1-1.5-1.5v-8.4a1.6 1.6 0 0 1 .5-1.1L11 3.4a1.5 1.5 0 0 1 2 0l7.3 6.6a1.6 1.6 0 0 1 .5 1.1v8.4a1.5 1.5 0 0 1-1.5 1.5zm-8.8-7.3h3a1.5 1.5 0 0 1 1.4 1.5v4.3h4.4v-8.4L12 4.5l-7.3 6.6v8.4h4.4v-4.3a1.5 1.5 0 0 1 1.4-1.5z"></path></symbol><symbol id="icon_newspaper" viewBox="0 0 24 24"><path d="M9.1 10.6a.8.8 0 0 1 .8-.7H17a.7.7 0 0 1 0 1.4H9.9a.8.8 0 0 1-.8-.7zm.8 3.5H17a.7.7 0 1 0 0-1.4H9.9a.8.8 0 0 0-.8.7.8.8 0 0 0 .8.7zM22 6.3V17a2.1 2.1 0 0 1-2.1 2.1H4.1A2.1 2.1 0 0 1 2 17V8.4a.7.7 0 0 1 .7-.7.7.7 0 0 1 .7.7V17a.7.7 0 0 0 .7.7.8.8 0 0 0 .8-.7V6.3a1.4 1.4 0 0 1 1.4-1.4h14.3A1.4 1.4 0 0 1 22 6.3zm-1.4 0H6.3V17c0 .2-.1.5-.1.7h13.7a.7.7 0 0 0 .7-.7z"></path></symbol><symbol id="instagram" viewBox="0 0 24 24"><path d="M7.8 2h8.4A5.8 5.8 0 0 1 22 7.8v8.4a5.8 5.8 0 0 1-5.8 5.8H7.8A5.8 5.8 0 0 1 2 16.2V7.8A5.8 5.8 0 0 1 7.8 2m-.2 2A3.6 3.6 0 0 0 4 7.6v8.8A3.6 3.6 0 0 0 7.6 20h8.8a3.6 3.6 0 0 0 3.6-3.6V7.6A3.6 3.6 0 0 0 16.4 4H7.6m9.6 1.5a1.3 1.3 0 0 1 1.3 1.3A1.3 1.3 0 0 1 17.2 8 1.3 1.3 0 0 1 16 6.8a1.3 1.3 0 0 1 1.2-1.3M12 7a5 5 0 1 1-5 5 5 5 0 0 1 5-5m0 2a3 3 0 1 0 3 3 2.9 2.9 0 0 0-3-3z"></path></symbol><symbol id="intermediate-mode" viewBox="0 0 24 24"><path d="M22.7 11.3l-2.3-2.4V4.6a1.1 1.1 0 0 0-1-1h-4.3l-2.4-2.3a1 1 0 0 0-1.4 0L8.9 3.6H4.6a1.1 1.1 0 0 0-1 1v4.3l-2.3 2.4a1 1 0 0 0 0 1.4l2.3 2.4v4.3a1.1 1.1 0 0 0 1 1h4.3l2.4 2.3a1 1 0 0 0 1.4 0l2.4-2.3h4.3a1.1 1.1 0 0 0 1-1v-4.3l2.3-2.4a1 1 0 0 0 0-1.4zm-4 2.6a1.1 1.1 0 0 0-.3.7v3.8h-3.8a1.1 1.1 0 0 0-.7.3L12 20.6l-1.9-1.9a1.1 1.1 0 0 0-.7-.3H5.6v-3.8a1.1 1.1 0 0 0-.3-.7L3.4 12l1.9-1.9a1.1 1.1 0 0 0 .3-.7V5.6h3.8a1.1 1.1 0 0 0 .7-.3L12 3.4l1.9 1.9a1.1 1.1 0 0 0 .7.3h3.8v3.8a1.1 1.1 0 0 0 .3.7l1.9 1.9zM16.5 12a5.1 5.1 0 0 1-4.4 5H12a1.1 1.1 0 0 1-1-.9.9.9 0 0 1 .9-1.1 3 3 0 0 0 2.6-3 3.1 3.1 0 0 0-2.6-3 1 1 0 1 1 .2-2 5.1 5.1 0 0 1 4.4 5z"></path></symbol><symbol id="link-aja" viewBox="0 0 24 24"><path d="M14.1 11.6a2.5 2.5 0 0 0-2.4 1.5c-.3 1.1-.3 2.9 1.2 3.2a4.7 4.7 0 0 0 2.6-.4 15 15 0 0 0 .4-2.1c.2-1.5.2-1.9.1-2a4.7 4.7 0 0 0-1.9-.2zm.5 1.4a9.5 9.5 0 0 1-.4 1.8c0 .2-.2.2-.4.2s-.8-.5-.6-1.3.4-.9.9-.9.5 0 .5.2zm2.7-6.3a7.8 7.8 0 0 1 .8-1l.6-.7.2-.2h1.2c.3 0 .4-.1.2.2l-.7.8a3.8 3.8 0 0 0-.8.9l.7 1.6.7 1.5c0 .1 0 .2-.1.2h-1.4v-.3L17.8 8zM10.2 9v-.2c.2-1.1.3-2.1.5-3.1.1-.6.2-.7.3-.8a7.2 7.2 0 0 1 2.2-.2h.2c1.6.4 1.3 2.1 1.2 2.9l-.2 1.5c0 .2-.1.2-.8.2h-.4c-.2 0-.3-.1-.2-.2a9.9 9.9 0 0 1 .2-1.8c.1-.8.1-1.6-.9-1.4s-.2 0-.2.2a20 20 0 0 0-.4 2.4 4.3 4.3 0 0 1-.1.5h-.1c-.1-.3-.9-.3-1.2-.1s-.2.4-.1.1zm7.7 6.5c.7.6-.2 1.6-1.1 1.2a.7.7 0 0 1 .1-1.3.8.8 0 0 1 1 .1zm.8-4.4c-.2.7-.7 3.2-.7 3.4s0 .2-.3.2H17c-.1 0-.2-.1-.1-.4s.1-.6.1-1 .1-1.1.1-1.5a2.3 2.3 0 0 0 .1-.7l.3-.2h1.2zm-3.4-1.8c-.1 0 0-.4 0-.9s.2-1.4.4-2.1a15.7 15.7 0 0 1 .4-3c0-.3 0-.3.3-.3h.8c.4 0 .4 0 .3.6a14.3 14.3 0 0 0-.3 2.1c-.3 2.2-.5 3.5-.5 3.6zM4.4 16.1h.2l.2-.5.2-.6h1.8v.5a.7.7 0 0 0 .1.5c0 .1 0 .1.1.1h1.3c.2 0 .1 0 .1-.2s-.8-5.1-.9-5.4 0-.4-.4-.4H6a.5.5 0 0 0-.4.3c-.4.7-2 4.4-2.5 5.4s-.1.3 0 .3zm1.9-4.3h.1c0 .2.2 1.6.2 1.9h-1zM22 18.7h-.6l-5.6.4a97.2 97.2 0 0 0-11 1.8l-1.3.3-.8-.3-.7-.4a18.6 18.6 0 0 1 3.1-.7 84.8 84.8 0 0 1 9.3-1.1H22zM11.1 11a.8.8 0 0 1-1.3-.4 1 1 0 0 1 .7-.9.8.8 0 0 1 .8.1.9.9 0 0 1-.2 1.2zM3.2 8.3c0-.3.4-3.7.6-4.7s.1-.3.3-.3h1.1c.2 0 .2.1.1.3s-.1 1-.2 1.9a14.4 14.4 0 0 0-.3 2.3l1.4.2h1c.2 0 .2 0 .2.2s-.1.7-.1 1-.2.1-.4.1H5.8c-1.5.1-1.5.1-1.9-.1a1.3 1.3 0 0 1-.7-.9zm7.8 3.3c.2 0 .1.2.1.4a4.1 4.1 0 0 1-.1 1 14.1 14.1 0 0 0-.2 1.8 8 8 0 0 1-.5 1.9 2.1 2.1 0 0 1-1.5 1.2c-.1.1-.6.3-.6.1l-.3-.9c0-.2.2-.2.3-.3a1.3 1.3 0 0 0 .9-.9c0-.2.2-1.2.3-2.2a18.8 18.8 0 0 0 .3-1.9l.2-.2zM8.5 3.9a1 1 0 0 1 .9-1.1c.8-.1 1 1 .2 1.5a.8.8 0 0 1-1.1-.4zm-.7 5.2c.1-1.5.3-2.7.5-4.1s.2-.2.4-.2h.7c.4 0 .5.1.4.4s-.4 2.5-.6 3.9-.1.2-.3.2h-1c-.1 0-.1 0-.1-.2z"></path></symbol><symbol id="link-three" viewBox="0 0 24 24"><path d="M20.5 6.4l-2.9-2.9a1.6 1.6 0 0 0-2.4 0l-4.1 4.1a1.7 1.7 0 0 0 0 2.3l.9.9-1.2 1.2-.9-.9a1.7 1.7 0 0 0-2.3 0l-4.1 4.1a1.7 1.7 0 0 0 0 2.4l2.9 2.9a1.8 1.8 0 0 0 1.2.5 1.8 1.8 0 0 0 1.2-.5l4.1-4.1a1.7 1.7 0 0 0 0-2.3l-.9-.9 1.2-1.2.9.9a1.6 1.6 0 0 0 1.1.5 1.7 1.7 0 0 0 1.2-.5l4.1-4.1a1.8 1.8 0 0 0 .5-1.2 1.8 1.8 0 0 0-.5-1.2zM9.4 11.7l-.6.6zm2.3 3.5l-4.1 4.1-2.9-2.9 4.1-4.1.9.9-1.2 1.1a.9.9 0 0 0 0 1.2.7.7 0 0 0 .6.3.9.9 0 0 0 .6-.3l1.1-1.2zM17 4.1l-.6.6zm-1.8 7.6l-.9-.9 1.2-1.1a.8.8 0 0 0-1.2-1.2l-1.1 1.2-.9-.9 4.1-4.1 2.9 2.9z"></path></symbol><symbol id="link-variant" viewBox="0 0 24 24"><path d="M10.59 13.41c.41.39.41 1.03 0 1.42-.39.39-1.03.39-1.42 0a5.003 5.003 0 0 1 0-7.07l3.54-3.54a5.003 5.003 0 0 1 7.07 0 5.003 5.003 0 0 1 0 7.07l-1.49 1.49c.01-.82-.12-1.64-.4-2.42l.47-.48a2.982 2.982 0 0 0 0-4.24 2.982 2.982 0 0 0-4.24 0l-3.53 3.53a2.982 2.982 0 0 0 0 4.24m2.82-4.24c.39-.39 1.03-.39 1.42 0a5.003 5.003 0 0 1 0 7.07l-3.54 3.54a5.003 5.003 0 0 1-7.07 0 5.003 5.003 0 0 1 0-7.07l1.49-1.49c-.01.82.12 1.64.4 2.43l-.47.47a2.982 2.982 0 0 0 0 4.24 2.982 2.982 0 0 0 4.24 0l3.53-3.53a2.982 2.982 0 0 0 0-4.24.973.973 0 0 1 0-1.42z"></path></symbol><symbol id="link" viewBox="0 0 24 24"><path d="M21 7.8a4.9 4.9 0 0 1-1.4 3.4L17 13.8a5 5 0 0 1-6.8 0 .8.8 0 0 1 0-1.1.7.7 0 0 1 1 0h.1a3.3 3.3 0 0 0 4.7 0l2.6-2.6a3.4 3.4 0 0 0 .1-4.7 3.4 3.4 0 0 0-4.7-.1h-.1l-1.8 2a.9.9 0 0 1-1.1-.1.9.9 0 0 1 0-1l1.8-1.8A4.8 4.8 0 0 1 21 7.8zm-8.9 8.8l-1.9 1.8a3.1 3.1 0 0 1-4.6-.1 3.1 3.1 0 0 1 0-4.5l2.6-2.6a3.2 3.2 0 0 1 4.6 0 .9.9 0 0 0 1.1-.1.9.9 0 0 0 0-1 5 5 0 0 0-6.8 0l-2.6 2.6a4.8 4.8 0 1 0 6.6 7l.2-.2 1.8-1.8a.8.8 0 0 0-.1-1.1.8.8 0 0 0-.9 0z"></path></symbol><symbol id="linkedin" viewBox="0 0 24 24"><path d="M19 3a2 2 0 0 1 2 2v14a2 2 0 0 1-2 2H5a2 2 0 0 1-2-2V5a2 2 0 0 1 2-2h14m-.5 15.5v-5.3a3.26 3.26 0 0 0-3.26-3.26c-.85 0-1.84.52-2.32 1.3v-1.11h-2.79v8.37h2.79v-4.93c0-.77.62-1.4 1.39-1.4a1.4 1.4 0 0 1 1.4 1.4v4.93h2.79M6.88 8.56a1.68 1.68 0 0 0 1.68-1.68c0-.93-.75-1.69-1.68-1.69a1.69 1.69 0 0 0-1.69 1.69c0 .93.76 1.68 1.69 1.68m1.39 9.94v-8.37H5.5v8.37h2.77z"></path></symbol><symbol id="linktree" viewBox="0 0 24 24"><path d="M8.6 14.6v.4a.8.8 0 0 0 .8.7h1.1v4a.7.7 0 0 1-.7.7H7.5a.8.8 0 0 1-.8-.7v-4H2.8a.7.7 0 0 1-.7-1.1L7.9 4a.8.8 0 0 1 1.2-.3c.1.1.3.2.3.3l2.5 4.7zm13.3 0L16.1 4a.9.9 0 0 0-1.2-.3c-.1.1-.3.2-.3.3l-2.5 4.7 3.2 5.9c.1.1.1.2.1.4a1 1 0 0 1-.9.7h-1.1v4a.7.7 0 0 0 .8.7h2.4a.7.7 0 0 0 .7-.7v-4h3.9a.7.7 0 0 0 .7-1.1z"></path></symbol><symbol id="list-number" viewBox="0 0 24 24"><path d="M21 12.2a.7.7 0 0 1-.7.7H9.8a.7.7 0 0 1-.8-.7.8.8 0 0 1 .8-.8h10.5a.8.8 0 0 1 .7.8zM9.8 6.9h10.5a.7.7 0 0 0 .7-.7.8.8 0 0 0-.7-.8H9.8a.8.8 0 0 0-.8.8.7.7 0 0 0 .8.7zm10.5 10.5H9.8a.8.8 0 0 0-.8.8.7.7 0 0 0 .8.7h10.5a.7.7 0 0 0 .7-.7.8.8 0 0 0-.7-.8zM4.1 6.5l.4-.2v4a.8.8 0 0 0 .8.8.8.8 0 0 0 .7-.8V5.1a.8.8 0 0 0-.4-.7.8.8 0 0 0-.7 0l-1.5.7a.8.8 0 0 0-.3 1.1.8.8 0 0 0 1 .3zm2.7 9.7a2.7 2.7 0 0 0 .3-1.2 2.1 2.1 0 0 0-2-2.1 2 2 0 0 0-1.9 1.3.7.7 0 0 0 .4 1 .9.9 0 0 0 1-.4.5.5 0 0 1 .5-.4.6.6 0 0 1 .5.6.4.4 0 0 1-.1.3l-2.3 3.2a.7.7 0 0 0 .1 1l.5.2h2.6a.7.7 0 0 0 .7-.8.7.7 0 0 0-.7-.7H5.3l1.5-2z"></path></symbol><symbol id="list" viewBox="0 0 24 24"><path d="M21 12a.8.8 0 0 1-.8.8H3.8a.8.8 0 0 1 0-1.6h16.4a.8.8 0 0 1 .8.8zM3.8 6.8h16.4a.8.8 0 1 0 0-1.6H3.8a.8.8 0 0 0 0 1.6zm16.4 10.4H3.8a.8.8 0 1 0 0 1.6h16.4a.8.8 0 1 0 0-1.6z"></path></symbol><symbol id="magnify" viewBox="0 0 24 24"><path d="M9.5 3A6.5 6.5 0 0 1 16 9.5c0 1.61-.59 3.09-1.56 4.23l.27.27h.79l5 5-1.5 1.5-5-5v-.79l-.27-.27A6.516 6.516 0 0 1 9.5 16 6.5 6.5 0 0 1 3 9.5 6.5 6.5 0 0 1 9.5 3m0 2C7 5 5 7 5 9.5S7 14 9.5 14 14 12 14 9.5 12 5 9.5 5z"></path></symbol><symbol id="magnifying-glass" viewBox="0 0 24 24"><path d="M20.3 19.4l-3.5-3.5a7.7 7.7 0 0 0-.9-10.6 7.5 7.5 0 1 0-9.7 11.5 7.7 7.7 0 0 0 9.7 0l3.5 3.5a.6.6 0 1 0 .9-.9zM4.8 11A6.2 6.2 0 0 1 11 4.8a6.2 6.2 0 0 1 6.2 6.2 6.1 6.1 0 0 1-6.2 6.2A6.2 6.2 0 0 1 4.8 11z"></path></symbol><symbol id="medium" viewBox="0 0 24 24"><path d="M4.4 7.3a.9.9 0 0 0-.3-.7L2.3 4.3V4h5.8l4.4 9.9 4-9.9H22v.3l-1.6 1.6-.2.4v11.4a.8.8 0 0 0 .2.4l1.6 1.6v.3h-7.9v-.3l1.6-1.6c.2-.2.2-.2.2-.5V8.5L11.4 20h-.6L5.6 8.5v7.7a.9.9 0 0 0 .3.9L8 19.6v.4H2v-.4l2.1-2.5a1.6 1.6 0 0 0 .3-.9z"></path></symbol><symbol id="menu" viewBox="0 0 24 24"><path d="M3 6h18v2H3V6m0 5h18v2H3v-2m0 5h18v2H3v-2z"></path></symbol><symbol id="message-one-alt" viewBox="0 0 24 24"><path d="M21.1 3.1H2.9A.9.9 0 0 0 2 4v13.7a.9.9 0 0 0 .9.9h6.5l2 2a.8.8 0 0 0 1.2 0l2-2h6.5a.9.9 0 0 0 .9-.9V4a.9.9 0 0 0-.9-.9zm-.9 13.7h-5.9l-.7.2-1.6 1.7-1.6-1.7-.7-.2H3.8V5h16.4z"></path></symbol><symbol id="message-one" viewBox="0 0 24 24"><path d="M21.1 3.1H2.9A.9.9 0 0 0 2 4v13.7a.9.9 0 0 0 .9.9h6.5l2 2a.8.8 0 0 0 1.2 0l2-2h6.5a.9.9 0 0 0 .9-.9V4a.9.9 0 0 0-.9-.9zm-.9 13.7h-5.9l-.7.2-1.6 1.7-1.6-1.7-.7-.2H3.8V5h16.4zm-9.6-5.9a.9.9 0 0 1 .9-.9h1a.9.9 0 0 1 0 1.8h-1a.9.9 0 0 1-.9-.9zm4.6 0a.9.9 0 0 1 .9-.9h.9a.9.9 0 1 1 0 1.8h-.9a.9.9 0 0 1-.9-.9zm-9.1 0A.9.9 0 0 1 7 10h.9a.9.9 0 0 1 0 1.8H7a.9.9 0 0 1-.9-.9z"></path></symbol><symbol id="monitor" viewBox="0 0 24 24"><path d="M21 16H3V4h18m0-2H3c-1.11 0-2 .89-2 2v12a2 2 0 0 0 2 2h7v2H8v2h8v-2h-2v-2h7a2 2 0 0 0 2-2V4a2 2 0 0 0-2-2z"></path></symbol><symbol id="moon" viewBox="0 0 24 24"><path d="M23 14.3a1 1 0 0 0-.9-.6h-.3a9.3 9.3 0 0 1-11.5-6.5 8.9 8.9 0 0 1 0-5.1v-.2a.8.8 0 0 0-.8-.9h-.3a11.2 11.2 0 0 0 6 21.6 11.3 11.3 0 0 0 7.8-7.8zm-10.8 6.9A9.4 9.4 0 0 1 8.3 3.3 11.2 11.2 0 0 0 18 15.8h2.7a9.3 9.3 0 0 1-8.5 5.4z"></path></symbol><symbol id="more" viewBox="0 0 24 24"><path d="M7.2 12a1.6 1.6 0 1 1-1.6-1.6A1.6 1.6 0 0 1 7.2 12zm4.8-1.6a1.6 1.6 0 1 0 1.6 1.6 1.6 1.6 0 0 0-1.6-1.6zm6.4 0A1.6 1.6 0 1 0 20 12a1.6 1.6 0 0 0-1.6-1.6z"></path></symbol><symbol id="newspaper-folding" viewBox="0 0 24 24"><path d="M21.1 5.6h-7.8l-.4-2.8A.9.9 0 0 0 12 2H2.9a.9.9 0 0 0-.9.9v14.6a.9.9 0 0 0 .9.9h6.5l.3 2.8c0 .1.1.1.1.2l.3.3h11a.9.9 0 0 0 .9-.9V6.5a.9.9 0 0 0-.9-.9zM3.8 3.8h7.4l1.6 12.7h-9zm8 14.6l-.5.6v-.6zm8.4 1.8h-7.6l1.9-2.1c0-.1.1-.1.1-.2s.1-.1.1-.2v-.4l-.3-2.6H17a.9.9 0 1 0 0-1.8h-2.8l-.3-1.8H17a.9.9 0 0 0 0-1.8h-3.3l-.2-1.8h6.7zM4.7 6.5a.9.9 0 0 1 .9-.9h3.2a.9.9 0 0 1 .9.9 1 1 0 0 1-.9 1H5.6a1 1 0 0 1-.9-1zm0 3.7a.9.9 0 0 1 .9-.9h3.7a.9.9 0 0 1 0 1.8H5.6a.9.9 0 0 1-.9-.9zm5.9 3.6a.9.9 0 0 1-.9.9H5.6a.9.9 0 0 1 0-1.8h4.1a.9.9 0 0 1 .9.9z"></path></symbol><symbol id="newspaper-variant-outline" viewBox="0 0 24 24"><path d="M20 5v14H4V5h16m0-2H4c-1.11 0-2 .89-2 2v14c0 1.11.89 2 2 2h16c1.11 0 2-.89 2-2V5c0-1.11-.89-2-2-2m-2 12H6v2h12v-2m-8-8H6v6h4V7m2 2h6V7h-6v2m6 2h-6v2h6v-2z"></path></symbol><symbol id="newspaper" viewBox="0 0 24 24"><path d="M9.1 10.6a.8.8 0 0 1 .8-.7H17a.7.7 0 0 1 0 1.4H9.9a.8.8 0 0 1-.8-.7zm.8 3.5H17a.7.7 0 1 0 0-1.4H9.9a.8.8 0 0 0-.8.7.8.8 0 0 0 .8.7zM22 6.3V17a2.1 2.1 0 0 1-2.1 2.1H4.1A2.1 2.1 0 0 1 2 17V8.4a.7.7 0 0 1 .7-.7.7.7 0 0 1 .7.7V17a.7.7 0 0 0 .7.7.8.8 0 0 0 .8-.7V6.3a1.4 1.4 0 0 1 1.4-1.4h14.3A1.4 1.4 0 0 1 22 6.3zm-1.4 0H6.3V17c0 .2-.1.5-.1.7h13.7a.7.7 0 0 0 .7-.7z"></path></symbol><symbol id="oppo" viewBox="0 0 24 24"><path d="M7.09 12.08V9.79h.71v.3l.1-.09a3.27 3.27 0 0 1 2.38-.31 2 2 0 0 1 1.47 1.21 1.58 1.58 0 0 1 0 1.05 1.84 1.84 0 0 1-.92 1A3.32 3.32 0 0 1 8.3 13a2.74 2.74 0 0 1-.42-.21l-.08-.05v1.61h-.71zm2.72.55a1.79 1.79 0 0 0 .95-.39 1 1 0 0 0 .34-.6 1.41 1.41 0 0 0 0-.41 1.07 1.07 0 0 0-.45-.69 1.56 1.56 0 0 0-.41-.2 2.51 2.51 0 0 0-1.16-.1 1.35 1.35 0 0 0-1.24.92 1.07 1.07 0 0 0 0 .64 1.47 1.47 0 0 0 1.31.84 4.53 4.53 0 0 0 .64 0zm2.37-.55V9.79h.71v.15a1.19 1.19 0 0 0 0 .15L13 10a2.37 2.37 0 0 1 .45-.23 3.38 3.38 0 0 1 1.92-.09 1.8 1.8 0 0 1 1.56 1.82 1.73 1.73 0 0 1-1.22 1.5 2.55 2.55 0 0 1-.78.19 4.82 4.82 0 0 1-.76 0 2.68 2.68 0 0 1-1.17-.38h-.07v1.61h-.71zm2.74.55a1.48 1.48 0 0 0 1.15-.63 1.08 1.08 0 0 0 .12-.73 1.32 1.32 0 0 0-1.26-1 2.44 2.44 0 0 0-1.36.18 1.13 1.13 0 0 0-.66.8 1.55 1.55 0 0 0 0 .43 1.12 1.12 0 0 0 .36.6 1.85 1.85 0 0 0 1 .39 3.52 3.52 0 0 0 .65 0zm-10.79.61a3.36 3.36 0 0 1-1-.23A1.77 1.77 0 0 1 2 11.72a1.84 1.84 0 0 1 0-.47 1.81 1.81 0 0 1 1.38-1.48 3.38 3.38 0 0 1 1.42-.12 2.22 2.22 0 0 1 1.79 1.1 1.59 1.59 0 0 1-.08 1.51 1.88 1.88 0 0 1-.54.55 2.8 2.8 0 0 1-1.21.41h-.63zm.51-.6a2 2 0 0 0 .92-.31 1.18 1.18 0 0 0 .44-.55.91.91 0 0 0 0-.35.88.88 0 0 0 0-.34 1.36 1.36 0 0 0-1.05-.82 2.51 2.51 0 0 0-1.42.1 1.23 1.23 0 0 0-.66.53 1.1 1.1 0 0 0-.09.87 1.22 1.22 0 0 0 .72.72 2.42 2.42 0 0 0 .68.16zm14.76.6h-.12a3.06 3.06 0 0 1-1.12-.34 1.7 1.7 0 0 1-.82-1 1.6 1.6 0 0 1-.05-.84 1.69 1.69 0 0 1 .74-1 3.09 3.09 0 0 1 2-.41 2.53 2.53 0 0 1 1.47.65 1.58 1.58 0 0 1 .46.95 2.54 2.54 0 0 1 0 .39 1.89 1.89 0 0 1-1.56 1.51 3.52 3.52 0 0 1-.76.09zm.47-.6A1.79 1.79 0 0 0 21 12.2a1.05 1.05 0 0 0 .3-.58 1.21 1.21 0 0 0 0-.38 1.31 1.31 0 0 0-1.21-1 2 2 0 0 0-.43 0 1.64 1.64 0 0 0-1.56.76 1 1 0 0 0-.1.46 1 1 0 0 0 .18.6 1.59 1.59 0 0 0 1.2.61z"></path></symbol><symbol id="ordered-list" viewBox="0 0 24 24"><path d="M5.5 7.3V6.1h-.4l-.6-.3a.8.8 0 0 1 .2-1L5.8 4h.8a.1.1 0 0 1 .1.1H7v3.2h.4a.8.8 0 0 1 .7.8.7.7 0 0 1-.7.7H5.1a.7.7 0 0 1-.7-.7.8.8 0 0 1 .7-.8zm-1.1 6.1v.2l.2.2h2.8a.7.7 0 0 0 .7-.7.8.8 0 0 0-.7-.8h-.2a2.7 2.7 0 0 0 .6-1 1.2 1.2 0 0 0-.2-1.2 1.8 1.8 0 0 0-1.2-.9 3.5 3.5 0 0 0-1.8.7.8.8 0 0 0 1.1 1.1l.5-.3.2.2a3.8 3.8 0 0 1-1.6 1.5h-.1a.1.1 0 0 0-.1.1h-.1v.2zm3 1.7a1.8 1.8 0 0 0-2.1-.2c-.5.3-.7.7-.8.7a.9.9 0 0 0 .2 1.1.9.9 0 0 0 1.1-.2.5.5 0 0 1 .8-.2h.2c0 .1-.1.1-.1.2h-.4a.7.7 0 0 0-.8.7.8.8 0 0 0 .8.8h.5l-.2.2a.5.5 0 0 1-.8-.2.9.9 0 0 0-1.1 0 .8.8 0 0 0-.2 1 1.9 1.9 0 0 0 .8.7 1.6 1.6 0 0 0 .9.3 1.9 1.9 0 0 0 1.2-.4 1.4 1.4 0 0 0 .8-1.3 1.6 1.6 0 0 0-.2-1 1.3 1.3 0 0 0 .2-.9 1.4 1.4 0 0 0-.8-1.3zm11.5-3.7h-8.2a.7.7 0 0 0-.7.7.7.7 0 0 0 .7.8h8.2a.7.7 0 0 0 .7-.8.7.7 0 0 0-.7-.7zm0 5.2h-8.2a.7.7 0 0 0-.7.7.8.8 0 0 0 .7.8h8.2a.8.8 0 0 0 .7-.8.7.7 0 0 0-.7-.7zm-8.2-8.9h8.2a.7.7 0 0 0 .7-.7.8.8 0 0 0-.7-.8h-8.2a.8.8 0 0 0-.7.8.7.7 0 0 0 .7.7z"></path></symbol><symbol id="ovo" viewBox="0 0 24 24"><path d="M12 2a10 10 0 1 0 10 10A10 10 0 0 0 12 2zm0 17.5a7.5 7.5 0 1 1 7.5-7.5 7.6 7.6 0 0 1-7.5 7.5zm0-2.5a5 5 0 1 1 5-5 5 5 0 0 1-5 5z"></path></symbol><symbol id="patreon" viewBox="0 0 24 24"><path d="M14.8 2.4a7.2 7.2 0 1 1-7.2 7.2 7.2 7.2 0 0 1 7.2-7.2M2 21.6h3.5V2.4H2z"></path></symbol><symbol id="paypal" viewBox="0 0 24 24"><path d="M20.4 9.2a6.2 6.2 0 0 1-.1 2.3c-.6 3.3-2.7 4.9-6.3 4.9h-.5l-.5.2c-.1.2-.2.3-.2.5v.2l-.6 3.9a.5.5 0 0 1-.3.5l-.5.2H8.5l-.3-.2c-.1-.1-.2-.2-.1-.4a8.2 8.2 0 0 1 .3-1.8 15.2 15.2 0 0 1 .3-1.9 8.9 8.9 0 0 1 .3-1.8c.1-.8.2-1.4.3-1.9a.4.4 0 0 1 .4-.4h1.5a10.2 10.2 0 0 0 2.6-.2 6.5 6.5 0 0 0 3.2-1.6 6.2 6.2 0 0 0 1.8-2.8 10.3 10.3 0 0 0 .4-1.4h.1a2.8 2.8 0 0 1 1.1 1.7zm-1.9-3.1a9.1 9.1 0 0 1-.5 2.6 5.6 5.6 0 0 1-3.4 3.5 8.7 8.7 0 0 1-2.8.5h-2a1.2 1.2 0 0 0-1.4 1.1l-.9 5.9H4.1l-.4-.2a.8.8 0 0 1-.2-.4L6.1 2.7l.3-.5L7 2h7.8l1.2.4a3.7 3.7 0 0 1 1.8 1.4 3.2 3.2 0 0 1 .7 2.3z"></path></symbol><symbol id="pinterest" viewBox="0 0 24 24"><path d="M9.04 21.54c.96.29 1.93.46 2.96.46a10 10 0 0 0 10-10A10 10 0 0 0 12 2 10 10 0 0 0 2 12c0 4.25 2.67 7.9 6.44 9.34-.09-.78-.18-2.07 0-2.96l1.15-4.94s-.29-.58-.29-1.5c0-1.38.86-2.41 1.84-2.41.86 0 1.26.63 1.26 1.44 0 .86-.57 2.09-.86 3.27-.17.98.52 1.84 1.52 1.84 1.78 0 3.16-1.9 3.16-4.58 0-2.4-1.72-4.04-4.19-4.04-2.82 0-4.48 2.1-4.48 4.31 0 .86.28 1.73.74 2.3.09.06.09.14.06.29l-.29 1.09c0 .17-.11.23-.28.11-1.28-.56-2.02-2.38-2.02-3.85 0-3.16 2.24-6.03 6.56-6.03 3.44 0 6.12 2.47 6.12 5.75 0 3.44-2.13 6.2-5.18 6.2-.97 0-1.92-.52-2.26-1.13l-.67 2.37c-.23.86-.86 2.01-1.29 2.7v-.03z"></path></symbol><symbol id="pound-1" viewBox="0 0 24 24"><path d="M20.1 14.7h-3.6V9.3h3.6a.9.9 0 1 0 0-1.8h-3.6V3.9a.9.9 0 0 0-1.8 0v3.6H9.3V3.9a.9.9 0 0 0-1.8 0v3.6H3.9a.9.9 0 1 0 0 1.8h3.6v5.4H3.9a.9.9 0 0 0 0 1.8h3.6v3.6a.9.9 0 0 0 1.8 0v-3.6h5.4v3.6a.9.9 0 1 0 1.8 0v-3.6h3.6a.9.9 0 0 0 0-1.8zm-10.8 0V9.3h5.4v5.4z"></path></symbol><symbol id="pound" viewBox="0 0 24 24"><path d="M5.41 21l.71-4h-4l.35-2h4l1.06-6h-4l.35-2h4l.71-4h2l-.71 4h6l.71-4h2l-.71 4h4l-.35 2h-4l-1.06 6h4l-.35 2h-4l-.71 4h-2l.71-4h-6l-.71 4h-2M9.53 9l-1.06 6h6l1.06-6h-6z"></path></symbol><symbol id="preview-close-one" viewBox="0 0 24 24"><path d="M14.7 17a.9.9 0 0 1-.7 1 6.9 6.9 0 0 1-2 .3c-5.4 0-9.5-5.5-9.7-5.8a.7.7 0 0 1 0-1 14.4 14.4 0 0 1 2.8-2.9.8.8 0 0 1 1.2.1.9.9 0 0 1-.1 1.3 12.4 12.4 0 0 0-2 2c1.3 1.5 5.1 5.4 9.4 4.3a.9.9 0 0 1 1.1.7zm7-5.5c-.2-.3-4.3-5.8-9.7-5.8a6.9 6.9 0 0 0-2 .3.9.9 0 0 0-.7 1 1 1 0 0 0 1.1.7c4.3-1 8.1 2.8 9.4 4.3a12.4 12.4 0 0 1-2 2 .9.9 0 0 0-.1 1.3.8.8 0 0 0 .7.3l.5-.2a14.4 14.4 0 0 0 2.8-2.9.7.7 0 0 0 0-1zm-1 8a.8.8 0 0 1 0 1.2.7.7 0 0 1-1.2 0l-6-5.9a4.2 4.2 0 0 1-1.5.4 2.9 2.9 0 0 1-2.1-.9 3.1 3.1 0 0 1-1.1-2.2 4.7 4.7 0 0 1 .4-1.6l-5.9-6a.8.8 0 0 1 0-1.2.7.7 0 0 1 1.2 0zm-8.6-6.2l-1.4-1.4v.2a1.6 1.6 0 0 0 .5.9 1 1 0 0 0 .9.3z"></path></symbol><symbol id="quora" viewBox="0 0 24 24"><path d="M19.8 18.8a1.4 1.4 0 0 0 .4-1.1h1.5a5.1 5.1 0 0 1-.1.9l-.3 1a4.1 4.1 0 0 1-1.2 1.5 3.5 3.5 0 0 1-2.3.8 4.1 4.1 0 0 1-2.5-.5 7.8 7.8 0 0 1-2-2.2 9.2 9.2 0 0 1-7.8-1.7 8.5 8.5 0 0 1-3.2-6.7c0-.7.4-8.5 8.6-8.8a8.4 8.4 0 0 1 8.4 5.2 8.6 8.6 0 0 1 .7 3.2 9.7 9.7 0 0 1-.2 2 6.7 6.7 0 0 1-.8 2.4 8.8 8.8 0 0 1-1.2 1.7 12.5 12.5 0 0 1-1.2 1.2 5.9 5.9 0 0 0 1.6 1.4c.2 0 1.1.3 1.6-.3m-7-1.5c.1-.1-.3-.6-.5-.9l-.7-1a1.7 1.7 0 0 0-1.3-.8H8.7l-.3-.5a1.3 1.3 0 0 1-.1-.5 5.1 5.1 0 0 1 3.2-.9 4.1 4.1 0 0 1 2.8 1.3c.4.3.5.7.9 1h.1c.4.3.9-3 .8-5.2s-.2-3.3-1-4.4a4.7 4.7 0 0 0-3.6-1.8c-.7 0-3 .1-4 1.8s-1 5.6-1 5.6-.3 3.3 1.4 5a4.9 4.9 0 0 0 4.2 1.4z"></path></symbol><symbol id="reddit" viewBox="0 0 24 24"><path d="M14.5 15.41c.08.09.08.28 0 .39-.73.7-2.09.76-2.5.76-.39 0-1.75-.06-2.46-.76-.1-.11-.1-.3 0-.39.11-.1.28-.1.38 0 .46.46 1.41.59 2.08.59.69 0 1.66-.13 2.1-.59.11-.1.28-.1.4 0m-3.75-2.37c0-.57-.47-1.04-1.04-1.04-.57 0-1.04.47-1.04 1.04 0 .57.47 1.05 1.04 1.04.57 0 1.04-.47 1.04-1.04M14.29 12c-.57 0-1.04.5-1.04 1.05s.47 1.04 1.04 1.04c.57 0 1.04-.48 1.04-1.04 0-.55-.47-1.05-1.04-1.05M22 12c0 5.5-4.5 10-10 10S2 17.5 2 12 6.5 2 12 2s10 4.5 10 10m-3.33 0c0-.81-.67-1.46-1.45-1.46-.4 0-.76.16-1.02.41-1-.72-2.37-1.18-3.9-1.24l.67-3.13 2.17.47c.02.55.48.99 1.04.99.57 0 1.04-.47 1.04-1.04 0-.57-.47-1.04-1.04-1.04-.41 0-.77.24-.93.59l-2.43-.52c-.07-.03-.14 0-.19.04-.06.04-.09.1-.1.17l-.74 3.48c-1.55.05-2.95.51-3.97 1.24-.26-.25-.62-.4-1.01-.4-.81 0-1.46.65-1.46 1.44 0 .61.36 1.11.86 1.34-.02.16-.03.28-.03.44 0 2.22 2.61 4.07 5.82 4.07 3.23 0 5.85-1.82 5.85-4.07 0-.14-.01-.28-.04-.44.5-.23.86-.74.86-1.34z"></path></symbol><symbol id="redo" viewBox="0 0 24 24"><path d="M22 4v4.5a.9.9 0 0 1-1 1h-4.5a.9.9 0 0 1-1-1 .9.9 0 0 1 1-1h2.3a5.7 5.7 0 0 1-1.1-1.2A8.3 8.3 0 0 0 12 4a8 8 0 0 0 0 16 8.6 8.6 0 0 0 5.7-2.3 1 1 0 0 1 1.4 1.4A10.5 10.5 0 0 1 12 22a10 10 0 0 1 0-20 9.9 9.9 0 0 1 7.1 2.9l.9 1V4a1 1 0 0 1 2 0z"></path></symbol><symbol id="reload" viewBox="0 0 24 24"><path d="M2 12a9 9 0 0 0 9 9c2.39 0 4.68-.94 6.4-2.6l-1.5-1.5A6.706 6.706 0 0 1 11 19c-6.24 0-9.36-7.54-4.95-11.95C10.46 2.64 18 5.77 18 12h-3l4 4h.1l3.9-4h-3a9 9 0 0 0-18 0z"></path></symbol><symbol id="saweria-alt" viewBox="0 0 24 24"><path d="M13 15.9c-.1.4-.5 1.2-.9 1.3-.4 0-.7-.8-.9-1.4a1.8 1.8 0 0 0 .9-.6 2.2 2.2 0 0 0 .9.7zm7.4.1a6.9 6.9 0 0 1 .5 1.7 1 1 0 0 1-.4 1.1 3.9 3.9 0 0 1-2.3 1.3 2.9 2.9 0 0 1-2.5 1.7h-.1a4 4 0 0 1-2.7-1h-1.7A3.9 3.9 0 0 1 8.4 22h-.1a2.6 2.6 0 0 1-2.5-1.8 3.9 3.9 0 0 1-2.3-1.3 1 1 0 0 1-.4-1.1 6.9 6.9 0 0 1 .5-1.8 1.3 1.3 0 0 1-.9-.2c-.2-.4-.3-1.2 2-4.5a34.2 34.2 0 0 1 2.2-3.1A3.9 3.9 0 0 1 4.4 6a4.1 4.1 0 0 1 .1-3.4A1.5 1.5 0 0 1 5.8 2c1.4.1 1.5 1.5 1.6 2.7s.1.7.1 1 .8 1.2 1 1.2a12.6 12.6 0 0 1 7 0c.2 0 .8-.2 1-1.2s.1-.7.1-1 .2-2.6 1.6-2.7a1.5 1.5 0 0 1 1.3.6 4.1 4.1 0 0 1 .1 3.4 3.9 3.9 0 0 1-2.5 2.2 34.2 34.2 0 0 1 2.2 3.1c2.3 3.3 2.2 4.1 2 4.5a1.3 1.3 0 0 1-.9.2zm-6.6-8l.2.2c.5-.1 1.1.4 1.4.6h.3c.1 0 .1-.2 0-.3s-1-.8-1.7-.7-.2 0-.2.2zm-1.1 2.2h.3c.1-.1.2-.2.1-.3a1.3 1.3 0 0 1-.2-.9l-.2-.2-.3.2a3.1 3.1 0 0 0 .3 1.2zm-.9-.1a.2.2 0 0 0 .4 0v-1c0-.2-.1-.3-.2-.3s-.2.1-.2.3zm-.8.2h.3a3.1 3.1 0 0 0 .3-1.1l-.3-.2-.2.2a2.7 2.7 0 0 1-.2.9c-.1 0 0 .1.1.2zM7.9 8.9h.3c.2-.2.9-.7 1.3-.6s.3-.1.3-.2l-.2-.3a3.3 3.3 0 0 0-1.7.8c-.1 0-.1.2 0 .3zm-1.7 4a1.9 1.9 0 0 0 1.3 1.2h.6a1.9 1.9 0 0 0 1.2-.4 3.1 3.1 0 0 0 1.1-1.6A2.5 2.5 0 0 0 9 9a2.6 2.6 0 0 0-2.9 2 2.5 2.5 0 0 0 .1 1.9zm4.5 5.9a.5.5 0 0 0-.5.1c0 .1-.1.1-.2.1a.2.2 0 0 1-.2-.2s0-.8-.4-.8-.7.5-.7.5-.2.2-.3.1a.2.2 0 0 1-.2-.2 1 1 0 0 0-.1-.4c-.1-.2-.3-.2-.6-.2a.9.9 0 0 0-.8.4 2.2 2.2 0 0 0-.5 1.9 2.5 2.5 0 0 0 2.1 1.5 3.2 3.2 0 0 0 2.8-1.4 1.1 1.1 0 0 0-.4-1.4zm1.4-1.2c.8 0 1.2-1.1 1.3-1.6h.4c.5 0 .7-.7.8-1h.3c.1 0 .2-.2.2-.3s-.1-.2-.3-.1h-.3l-.4-.2h-.3a.3.3 0 0 0 0 .4h.4c-.1.3-.2.7-.4.7h-.5a1.8 1.8 0 0 1-1-.7.8.8 0 0 0 .7-.7c.5-.2.9-.4.9-.7s-.9-.9-1.9-.9-1.8.4-1.8.9.2.4.6.6h.3c0 .4.3.6.8.7l-1 .7h-.4c-.1 0-.3-.3-.4-.7l.2-.2a.2.2 0 0 0 0-.3h-.4l-.2.3h-.4a.2.2 0 0 0 0 .4h.4c.1.3.4.9.8.9h.3c.1.5.5 1.6 1.3 1.6zm5.2.4a.7.7 0 0 0-.8-.4.8.8 0 0 0-.6.2 1 1 0 0 0-.1.4c0 .1-.1.2-.2.3l-.3-.2s-.2-.6-.7-.5-.4.8-.4.8l-.2.2c-.1 0-.2 0-.2-.1h-.5a1.1 1.1 0 0 0-.4 1.4 3.2 3.2 0 0 0 2.8 1.4 2.5 2.5 0 0 0 2.1-1.5 2.2 2.2 0 0 0-.5-2zm.5-7.1a2.1 2.1 0 0 0-1.1-1.6 2.2 2.2 0 0 0-1.7-.4 2.6 2.6 0 0 0-1.5 3.2 2.5 2.5 0 0 0 2.4 2h.5a2.2 2.2 0 0 0 1.3-1.2 2.5 2.5 0 0 0 .1-2zM7.6 13.7a1.7 1.7 0 0 0 1.4-.3 2 2 0 0 0 .8-.8.9.9 0 0 1-.6.3c-.5 0-1-.7-1-1.6s.5-1.6 1-1.6h.1l-.5-.2h-.4a2.2 2.2 0 0 0-1.9 1.7 2.2 2.2 0 0 0 .1 1.6 1.6 1.6 0 0 0 1 .9zm8.9-4.1a1.5 1.5 0 0 0-1.4-.2 1.2 1.2 0 0 0-.8.4h.5c.5 0 .9.7.9 1.6s-.4 1.6-.9 1.6a.6.6 0 0 1-.6-.3 1.9 1.9 0 0 0 2.1 1 1.6 1.6 0 0 0 1-1 2.2 2.2 0 0 0 .1-1.6 2.3 2.3 0 0 0-.9-1.5z"></path></symbol><symbol id="saweria" viewBox="0 0 24 24"><path d="M10.4 12.2A2.5 2.5 0 0 0 9 9a2.6 2.6 0 0 0-2.9 2 2.5 2.5 0 0 0 .1 1.9 1.9 1.9 0 0 0 1.3 1.2h.6a1.9 1.9 0 0 0 1.2-.4 3.1 3.1 0 0 0 1.1-1.5zm-2.8 1.5a1.6 1.6 0 0 1-1-1 2.2 2.2 0 0 1-.1-1.6 2.2 2.2 0 0 1 1.9-1.7h.4l.5.2h-.1c-.5 0-1 .7-1 1.6s.5 1.6 1 1.6a.9.9 0 0 0 .6-.3 2 2 0 0 1-.8.8 1.7 1.7 0 0 1-1.4.4zm9.1-4.4a2.2 2.2 0 0 0-1.7-.4 2.6 2.6 0 0 0-1.5 3.2 2.5 2.5 0 0 0 2.4 2h.5a2.2 2.2 0 0 0 1.3-1.2 2.5 2.5 0 0 0 .1-1.9 2.1 2.1 0 0 0-1.1-1.7zm.6 3.3a1.6 1.6 0 0 1-1 1 1.9 1.9 0 0 1-2.1-1 .6.6 0 0 0 .6.3c.5 0 .9-.7.9-1.6s-.4-1.6-.9-1.6h-.5a1.2 1.2 0 0 1 .8-.4 1.5 1.5 0 0 1 1.4.2 2.3 2.3 0 0 1 .9 1.4 2.2 2.2 0 0 1-.1 1.7zm-2.5 2.1h-.3l-.4-.2h-.3a.3.3 0 0 0 0 .4h.4c-.1.3-.2.7-.4.7h-.5a1.8 1.8 0 0 1-1-.7.8.8 0 0 0 .7-.7c.5-.2.9-.4.9-.7s-.9-.9-1.9-.9-1.8.4-1.8.9.2.4.6.6h.3c0 .4.3.6.8.7l-1 .7h-.4c-.1 0-.3-.3-.4-.7l.2-.2a.2.2 0 0 0 0-.3h-.4l-.2.3h-.4a.2.2 0 0 0 0 .4h.4c.1.3.4.9.8.9h.3c.1.5.5 1.6 1.3 1.6s1.2-1.1 1.3-1.6h.4c.5 0 .7-.7.8-1h.3c.1 0 .2-.2.2-.3s-.1 0-.3.1zm-2.7 2.5c-.4 0-.7-.8-.9-1.4a1.8 1.8 0 0 0 .9-.6 2.2 2.2 0 0 0 .9.7c-.1.4-.5 1.2-.9 1.3zM7.9 8.9c-.1-.1-.1-.3 0-.3a3.3 3.3 0 0 1 1.7-.8l.2.3c0 .1-.1.2-.3.2s-1.1.4-1.3.6h-.3zm5.9-.9c0-.2 0-.3.2-.3s1.6.7 1.7.7.1.3 0 .3h-.3c-.3-.2-.9-.7-1.4-.6zm-2.9 2a2.7 2.7 0 0 0 .2-.9l.2-.2.3.2a3.1 3.1 0 0 1-.3 1.1H11c-.1 0-.2-.1-.1-.2zm1.8.2a3.1 3.1 0 0 1-.3-1.1l.3-.2.2.2a1.3 1.3 0 0 0 .2.9c.1.1 0 .2-.1.3h-.3zm-.9-.1v-1c0-.2.1-.3.2-.3s.2.1.2.3v1a.2.2 0 0 1-.4 0zm7.5 1.2a34.2 34.2 0 0 0-2.2-3.1A3.9 3.9 0 0 0 19.6 6a4.1 4.1 0 0 0-.1-3.4 1.5 1.5 0 0 0-1.3-.6c-1.4.1-1.5 1.5-1.6 2.7s-.1.7-.1 1-.8 1.2-1 1.2a12.6 12.6 0 0 0-7 0c-.2 0-.8-.2-1-1.2s-.1-.7-.1-1S7.2 2.1 5.8 2a1.5 1.5 0 0 0-1.3.6A4.1 4.1 0 0 0 4.4 6a3.9 3.9 0 0 0 2.5 2.2 34.2 34.2 0 0 0-2.2 3.1c-2.3 3.3-2.2 4.1-2 4.5a1.3 1.3 0 0 0 .9.2 6.9 6.9 0 0 0-.5 1.7 1 1 0 0 0 .4 1.1 3.9 3.9 0 0 0 2.3 1.3A2.6 2.6 0 0 0 8.3 22h.1a3.9 3.9 0 0 0 2.8-1.2h1.7a4 4 0 0 0 2.7 1h.1a2.9 2.9 0 0 0 2.5-1.7 3.9 3.9 0 0 0 2.3-1.3 1 1 0 0 0 .4-1.1 6.9 6.9 0 0 0-.5-1.7 1.3 1.3 0 0 0 .9-.2c.2-.4.3-1.2-2-4.5zm-8.2 8.9a3.2 3.2 0 0 1-2.8 1.4 2.5 2.5 0 0 1-2.1-1.5 2.2 2.2 0 0 1 .5-1.9.9.9 0 0 1 .8-.4c.3 0 .5 0 .6.2a1 1 0 0 1 .1.4.2.2 0 0 0 .2.2c.1.1.2 0 .3-.1s.2-.6.7-.5.4.8.4.8a.2.2 0 0 0 .2.2c.1 0 .2 0 .2-.1a.5.5 0 0 1 .5-.1 1.1 1.1 0 0 1 .4 1.4zm6.7-.3a2.5 2.5 0 0 1-2.1 1.5 3.2 3.2 0 0 1-2.8-1.4 1.1 1.1 0 0 1 .4-1.4h.5c0 .1.1.1.2.1l.2-.2s0-.8.4-.8.7.5.7.5l.3.2c.1-.1.2-.2.2-.3a1 1 0 0 1 .1-.4.8.8 0 0 1 .6-.2.7.7 0 0 1 .8.4 2.2 2.2 0 0 1 .5 2zm3.1-4.4c-.1.1-.3.1-.8-.1h-.3v.2a15.6 15.6 0 0 1 .7 2.1 1.1 1.1 0 0 1-.3.7 4.2 4.2 0 0 1-1.9 1.2 3.6 3.6 0 0 0-.6-2 1.7 1.7 0 0 0-1.2-.6 1.3 1.3 0 0 0-.9.4l-.2.2a1.2 1.2 0 0 0-.8-.4 1.1 1.1 0 0 0-.8.9.6.6 0 0 0-.7.1 1.3 1.3 0 0 0-.6 1.9h-1a1.5 1.5 0 0 0-.6-2h-.7a1.1 1.1 0 0 0-.8-.9 1.2 1.2 0 0 0-.8.4l-.2-.2a1.3 1.3 0 0 0-.9-.4 1.7 1.7 0 0 0-1.2.6 3 3 0 0 0-.6 1.8 4.2 4.2 0 0 1-1.9-1.2 1.1 1.1 0 0 1-.3-.7 15.6 15.6 0 0 1 .7-2.1v-.2h-.3c-.5.2-.7.2-.8.1s-.3-.7 1.9-4l2.5-3.2c.1-.1.1-.2 0-.2a.2.2 0 0 0-.2-.2 2.9 2.9 0 0 1-2.5-1.9 3.3 3.3 0 0 1 .1-2.9c.2-.3.4-.5.8-.4s1.2.8 1.3 2.2a3.4 3.4 0 0 0 .1 1c.3 1.6 1.4 1.7 1.4 1.7h.1a11.8 11.8 0 0 1 6.8-.1c0 .1 0 .1.1.1s1.1-.1 1.4-1.7a3.4 3.4 0 0 0 .1-1c.1-1.4.3-2.2 1.3-2.3a1 1 0 0 1 .8.5 3.3 3.3 0 0 1 .1 2.9 2.9 2.9 0 0 1-2.5 1.9.2.2 0 0 0-.2.2c-.1 0-.1.1 0 .2l2.5 3.4c2.2 3.3 2 3.9 1.9 4z"></path></symbol><symbol id="search" viewBox="0 0 24 24"><path d="M14.25 7.72A.86.86 0 0 1 13 8.94a2.55 2.55 0 0 0-1.82-.76 2.57 2.57 0 0 0-1.83.76.88.88 0 0 1-1.22 0 .86.86 0 0 1 0-1.22 4.27 4.27 0 0 1 3-1.27 4.3 4.3 0 0 1 3.12 1.27zm6.5 13a.87.87 0 0 1-1.22 0l-3.2-3.2a8.13 8.13 0 0 1-5.13 1.88 8.2 8.2 0 1 1 8.2-8.2 8.13 8.13 0 0 1-1.85 5.13l3.2 3.2a.88.88 0 0 1 0 1.22zm-9.55-3.05a6.47 6.47 0 1 0-6.47-6.47 6.47 6.47 0 0 0 6.47 6.47z"></path></symbol><symbol id="share-network" viewBox="0 0 24 24"><path d="M17.3 15a3.7 3.7 0 0 0-2.7 1.1l-4.3-2.7a4.5 4.5 0 0 0 0-2.8l4.3-2.7a3.7 3.7 0 0 0 5.3 0 3.7 3.7 0 0 0 0-5.3 3.7 3.7 0 0 0-5.3 0 3.7 3.7 0 0 0-1.1 2.7 3.1 3.1 0 0 0 .3 1.3L9.4 9.4a3.8 3.8 0 0 0-5.3-.1 3.8 3.8 0 0 0 5.3 5.4l4.4 2.8a3.2 3.2 0 0 0-.3 1.4 3.8 3.8 0 1 0 3.8-3.9zm0-12a2.2 2.2 0 0 1 2.2 2.3 2.2 2.2 0 0 1-2.2 2.2 2.3 2.3 0 1 1 0-4.5zM6.8 14.3A2.3 2.3 0 0 1 4.5 12a2.2 2.2 0 0 1 2.3-2.2A2.2 2.2 0 0 1 9 12a2.4 2.4 0 0 1-2.2 2.3zM17.3 21a2.3 2.3 0 1 1 2.2-2.2 2.2 2.2 0 0 1-2.2 2.2z"></path></symbol><symbol id="share-one" viewBox="0 0 24 24"><path d="M17.5 15a4.2 4.2 0 0 0-2.4.9l-5.2-3.1a1.9 1.9 0 0 0 .1-.8c0-.3-.1-.6-.1-.9L15 8a3.5 3.5 0 0 0 6-2.5 3.5 3.5 0 0 0-7 0 1.7 1.7 0 0 0 .1.7L8.8 9.4a3.2 3.2 0 0 0-2.3-.9 3.5 3.5 0 0 0 0 7 4.2 4.2 0 0 0 2.4-.9l5.2 3.1a1.9 1.9 0 0 0-.1.8 3.5 3.5 0 1 0 3.5-3.5zm0-11A1.5 1.5 0 0 1 19 5.5a1.5 1.5 0 0 1-3 0A1.5 1.5 0 0 1 17.5 4zm-11 9.5a1.5 1.5 0 0 1 0-3 1.5 1.5 0 0 1 0 3zm11 6.5a1.5 1.5 0 1 1 1.5-1.5 1.5 1.5 0 0 1-1.5 1.5z"></path></symbol><symbol id="share-variant-outline" viewBox="0 0 24 24"><path d="M18 16.08c-.76 0-1.44.3-1.96.77L8.91 12.7c.05-.23.09-.46.09-.7s-.04-.47-.09-.7l7.05-4.11c.54.5 1.25.81 2.04.81 1.66 0 3-1.34 3-3s-1.34-3-3-3-3 1.34-3 3c0 .24.04.47.09.7L8.04 9.81C7.5 9.31 6.79 9 6 9c-1.66 0-3 1.34-3 3s1.34 3 3 3c.79 0 1.5-.31 2.04-.81l7.12 4.15c-.05.21-.08.43-.08.66 0 1.61 1.31 2.91 2.92 2.91s2.92-1.3 2.92-2.91-1.31-2.92-2.92-2.92M18 4c.55 0 1 .45 1 1s-.45 1-1 1-1-.45-1-1 .45-1 1-1M6 13c-.55 0-1-.45-1-1s.45-1 1-1 1 .45 1 1-.45 1-1 1m12 7c-.55 0-1-.45-1-1s.45-1 1-1 1 .45 1 1-.45 1-1 1z"></path></symbol><symbol id="shopee" viewBox="0 0 24 24"><path d="M20.5 6.8h-4.1C16.3 4.1 14.4 2 12 2S7.7 4.1 7.6 6.8H3.5a.4.4 0 0 0-.4.4l.6 13A1.7 1.7 0 0 0 5.3 22h13.2a1.8 1.8 0 0 0 1.8-1.7l.6-13a.4.4 0 0 0-.4-.5zM12 3.2a3.5 3.5 0 0 1 3.2 3.6H8.8A3.5 3.5 0 0 1 12 3.2zM15.3 17a2.6 2.6 0 0 1-1.6 2.1 5.2 5.2 0 0 1-1.8.3 4.6 4.6 0 0 1-2.3-.6 3 3 0 0 1-1-.7.1.1 0 0 1 0-.2l.4-.5h.2a.1.1 0 0 1 .1.1 4.5 4.5 0 0 0 2.6.9c1.3 0 2.2-.5 2.4-1.4s-.6-1.8-2.1-2.3l-1.8-.7a2.4 2.4 0 0 1-1.5-2.4 2.8 2.8 0 0 1 3-2.3 7.8 7.8 0 0 1 2.1.4l.8.5c.1 0 .1.1 0 .2l-.3.5h-.2a4.7 4.7 0 0 0-2.4-.7 1.9 1.9 0 0 0-2 1.5c0 .8.6 1.4 1.9 1.9s3.7 1.8 3.5 3.4z"></path></symbol><symbol id="skype" viewBox="0 0 24 24"><path d="M18.7 5.3a9.6 9.6 0 0 1 2.6 8.4 6.4 6.4 0 0 1 .7 2.7 5.6 5.6 0 0 1-5.6 5.6 6.4 6.4 0 0 1-2.7-.7 9.4 9.4 0 0 1-11-11A6.4 6.4 0 0 1 2 7.6 5.6 5.6 0 0 1 7.6 2a6.4 6.4 0 0 1 2.7.7 9.6 9.6 0 0 1 8.4 2.6M12 17.7c3.2 0 4.8-1.5 4.8-3.6s-.6-2.7-3-3.2l-2.2-.5c-.9-.2-1.8-.5-1.8-1.3s.6-1.3 1.9-1.3 2.2 1.7 3.4 1.7a1.1 1.1 0 0 0 1.2-1.1c0-1.5-2.4-2.6-4.5-2.6s-4.6.9-4.6 3.5.5 2.5 2.9 3.1l2.9.7c.9.3 1.2.8 1.2 1.2s-.8 1.5-2.2 1.5-2.3-2-3.7-2a1 1 0 0 0-1.1 1.1c0 1.2 1.5 2.8 4.8 2.8z"></path></symbol><symbol id="snapchat-alt" viewBox="0 0 24 24"><path d="M21.9 16.6a1.4 1.4 0 0 0-.7-.8h-.4a5.9 5.9 0 0 1-2.2-1.9l-.4-.6V13h.2l.4-.3.5-.3.8-.9a2 2 0 0 0 .1-1.5 1.8 1.8 0 0 0-1.7-1h-.6V7.3a5.3 5.3 0 0 0-1.4-3.2 4.1 4.1 0 0 0-1.4-1.2 6.2 6.2 0 0 0-3.1-.8 6.5 6.5 0 0 0-3.1.8 5.3 5.3 0 0 0-1.4 1.2 4.8 4.8 0 0 0-1.3 3.2 7.1 7.1 0 0 0-.1 1.4h-.6a1.8 1.8 0 0 0-1.7 1 2.6 2.6 0 0 0 .1 1.5 3.8 3.8 0 0 0 .9.9l.4.3.4.3h.2v.3l-.4.6a6.5 6.5 0 0 1-2.1 1.9c-.5.2-1 .4-1.2 1a1.1 1.1 0 0 0 .3 1.3l.5.4 1.3.5h.2c.2.1.2.3.4.6l.3.4a2.2 2.2 0 0 0 1.4.3 4.4 4.4 0 0 1 1.5.2l.8.5a5.7 5.7 0 0 0 3.2 1 5 5 0 0 0 3.2-1.1l.8-.4a4.4 4.4 0 0 1 1.5-.2 2.2 2.2 0 0 0 1.4-.3l.4-.5c.1-.2.1-.4.3-.5h.2l1.3-.5.5-.4a1.1 1.1 0 0 0 .3-1.3"></path></symbol><symbol id="snapchat" viewBox="0 0 24 24"><path d="M21.9 16.6a1.4 1.4 0 0 0-.7-.8h-.4a5.9 5.9 0 0 1-2.2-1.9l-.4-.6V13h.2l.4-.3.5-.3.8-.9a2 2 0 0 0 .1-1.5 1.8 1.8 0 0 0-1.7-1h-.6V7.3a5.3 5.3 0 0 0-1.4-3.2 4.1 4.1 0 0 0-1.4-1.2 6.2 6.2 0 0 0-3.1-.8 6.5 6.5 0 0 0-3.1.8 5.3 5.3 0 0 0-1.4 1.2 4.8 4.8 0 0 0-1.3 3.2 7.1 7.1 0 0 0-.1 1.4h-.6a1.8 1.8 0 0 0-1.7 1 2.6 2.6 0 0 0 .1 1.5 3.8 3.8 0 0 0 .9.9l.4.3.4.3h.2v.3l-.4.6a6.5 6.5 0 0 1-2.1 1.9c-.5.2-1 .4-1.2 1a1.1 1.1 0 0 0 .3 1.3l.5.4 1.3.5h.2c.2.1.2.3.4.6l.3.4a2.2 2.2 0 0 0 1.4.3 4.4 4.4 0 0 1 1.5.2l.8.5a5.7 5.7 0 0 0 3.2 1 5 5 0 0 0 3.2-1.1l.8-.4a4.4 4.4 0 0 1 1.5-.2 2.2 2.2 0 0 0 1.4-.3l.4-.5c.1-.2.1-.4.3-.5h.2l1.3-.5.5-.4a1.1 1.1 0 0 0 .3-1.3m-1.4.7c-.8.5-1.4.4-1.8.7s-.2.3-.3.4v.2a.5.5 0 0 1-.2.4c-.3.2-1.3 0-2.6.4s-1.7 1.3-3.6 1.3-2.5-1-3.6-1.3-2.3-.2-2.6-.4-.1-.7-.5-1-1-.2-1.8-.7-.4-.3-.3-.4l.2-.2A7 7 0 0 0 6.5 14a3.7 3.7 0 0 0 .5-1.3c.1-.2.1-.3-.1-.5l-1.5-1c-.5-.3-.7-.7-.5-1.1a.6.6 0 0 1 .6-.3h.2l1.3.4h.3a22.1 22.1 0 0 1 0-2.6 3.6 3.6 0 0 1 .2-1.1A4.2 4.2 0 0 1 8.3 5 5.1 5.1 0 0 1 12 3.3a4.3 4.3 0 0 1 3.4 1.3l.3.2a4.5 4.5 0 0 1 .9 1.7 2.5 2.5 0 0 1 .1.9 11.1 11.1 0 0 1 0 2.6h.3l1.3-.4h.2a.6.6 0 0 1 .6.3c.2.4 0 .8-.5 1.1l-1.5 1c-.2.2-.2.3-.1.5a4.4 4.4 0 0 0 1.1 2.2 6.4 6.4 0 0 0 2.5 1.8l.2.2q0 .5-.3.6z"></path></symbol><symbol id="sort-amount-down" viewBox="0 0 24 24"><path d="M20.6 5.3a.8.8 0 0 1-.8.8h-8.4a.9.9 0 0 1-.9-.8.9.9 0 0 1 .9-.9h8.4a.8.8 0 0 1 .8.9zM7.6 4a.9.9 0 0 0-.9.8v12.3l-1.9-1.9a.9.9 0 0 0-1.2 0 .9.9 0 0 0 0 1.2L7 19.8h.9a1 1 0 0 0 .5-.4V4.8a.9.9 0 0 0-.8-.8zm10.5 4.6h-6.7a.9.9 0 0 0-.9.9.9.9 0 0 0 .9.8h6.7a.8.8 0 0 0 .8-.8.8.8 0 0 0-.8-.9zm-1.7 4.2h-5a.9.9 0 0 0-.9.9.9.9 0 0 0 .9.8h5a.9.9 0 0 0 .9-.8.9.9 0 0 0-.9-.9zm-1.7 4.3h-3.3a.8.8 0 1 0 0 1.6h3.3a.8.8 0 1 0 0-1.6z"></path></symbol><symbol id="sort-amount-up" viewBox="0 0 24 24"><path d="M20.8 5.3a.8.8 0 0 1-.8.8h-8.4a.9.9 0 0 1-.9-.8.9.9 0 0 1 .9-.9H20a.8.8 0 0 1 .8.9zM7.7 4.1h-.9L3.4 7.6a.9.9 0 0 0 0 1.2l.6.3.6-.3 1.9-1.9v12.3a.9.9 0 0 0 .9.8.9.9 0 0 0 .8-.8V4.8a.4.4 0 0 0-.1-.3.4.4 0 0 0-.4-.4zm10.6 4.5h-6.7a.9.9 0 0 0-.9.9.9.9 0 0 0 .9.8h6.7a.9.9 0 0 0 .9-.8.9.9 0 0 0-.9-.9zm-1.7 4.2h-5a.9.9 0 0 0-.9.9.9.9 0 0 0 .9.8h5a.9.9 0 0 0 .9-.8.9.9 0 0 0-.9-.9zm-1.7 4.3h-3.3a.8.8 0 1 0 0 1.6h3.3a.8.8 0 1 0 0-1.6z"></path></symbol><symbol id="sort-ascending-1" viewBox="0 0 24 24"><path d="M21.8 16l-4.2 4.1h-1.2L12.3 16a.8.8 0 0 1 .1-1.2.8.8 0 0 1 1.1 0l2.7 2.7v-8a.9.9 0 0 1 .8-.8.9.9 0 0 1 .9.8v8l2.7-2.7a.8.8 0 0 1 1.2.1.8.8 0 0 1 0 1.1zm-11.4-5.6H2.8a.8.8 0 1 0 0 1.6h7.6a.8.8 0 0 0 0-1.6zM2.8 5.3H17a.8.8 0 1 0 0-1.6H2.8a.8.8 0 0 0 0 1.6zM8.7 17H2.8a.9.9 0 0 0-.8.9.9.9 0 0 0 .8.8h5.9a.9.9 0 0 0 .8-.8.9.9 0 0 0-.8-.9z"></path></symbol><symbol id="sort-ascending" viewBox="0 0 24 24"><path d="M19 17h3l-4 4-4-4h3V3h2M2 17h10v2H2M6 5v2H2V5m0 6h7v2H2v-2z"></path></symbol><symbol id="sort-descending-1" viewBox="0 0 24 24"><path d="M21.8 9.2a.7.7 0 0 1-1.2 0l-2.8-2.7v8a.8.8 0 0 1-1.6 0v-8l-2.8 2.7a.7.7 0 0 1-1.2 0 .9.9 0 0 1 0-1.2l4.2-4.1a.1.1 0 0 0 .1-.1h1a.1.1 0 0 0 .1.1L21.8 8a.9.9 0 0 1 0 1.2zm-19 4.4h7.5a.8.8 0 1 0 0-1.6H2.8a.8.8 0 1 0 0 1.6zm0-6.6h5.9a.9.9 0 0 0 .8-.9.9.9 0 0 0-.8-.8H2.8a.9.9 0 0 0-.8.8.9.9 0 0 0 .8.9zM17 18.6H2.8a.9.9 0 0 0-.8.9.9.9 0 0 0 .8.8H17a.8.8 0 0 0 .8-.8.8.8 0 0 0-.8-.9z"></path></symbol><symbol id="sort-descending" viewBox="0 0 24 24"><path d="M19 7h3l-4-4-4 4h3v14h2M2 17h10v2H2M6 5v2H2V5m0 6h7v2H2v-2z"></path></symbol><symbol id="soundcloud" viewBox="0 0 24 24"><path d="M11.6 8.8v7.4h8a2.3 2.3 0 0 0 2.4-2.4 2.4 2.4 0 0 0-2.4-2.4 1.5 1.5 0 0 0-.9.2 4.2 4.2 0 0 0-4.3-3.8 4.8 4.8 0 0 0-2.8 1m-.8 1l-.9-.4v6.8h1.3V9.3a1 1 0 0 0-.4.5m-2.1-.5v6.9h.8V9.3h-.8M7 9.9v6.3h.8V9.4l-.8.5m-1.5 2.2h-.2v4.2h.8v-5.7a4.7 4.7 0 0 0-.6 1.5m-1.9-.2v4.2h.9v-4.3h-.9M2 14a2.1 2.1 0 0 0 .8 1.7v-3.4A2.1 2.1 0 0 0 2 14z"></path></symbol><symbol id="spotify" viewBox="0 0 24 24"><path d="M17.9 10.9C14.7 9 9.4 8.8 6.3 9.8a.9.9 0 0 1-1.1-.7.8.8 0 0 1 .6-1.1 18.4 18.4 0 0 1 13.1 1.4.8.8 0 0 1 .3 1.2 1 1 0 0 1-1.3.3m-.1 2.8c-.3.4-.7.5-1 .2a13.3 13.3 0 0 0-10-1.1.8.8 0 0 1-1-.5c0-.4.1-.9.5-.9a14.3 14.3 0 0 1 11.3 1.3.8.8 0 0 1 .2 1m-1.2 2.8c-.2.3-.6.4-.8.1-2.4-1.4-5.4-1.7-8.9-.9-.3.1-.6-.1-.7-.5s.1-.6.5-.7a12.6 12.6 0 0 1 9.7 1.1.6.6 0 0 1 .2.9M12 2a10 10 0 1 0 10 10A10 10 0 0 0 12 2z"></path></symbol><symbol id="stackexchange" viewBox="0 0 24 24"><path d="M3.9 10.7H20V14H3.9v-3.3m0-4.3H20v3.4H3.9V6.4M17.5 2h-11a2.7 2.7 0 0 0-2.6 2.7v.8H20v-.8A2.6 2.6 0 0 0 17.5 2M3.9 15v.8a2.7 2.7 0 0 0 2.6 2.7h6.9V22l3.4-3.5h.7a2.7 2.7 0 0 0 2.6-2.7V15z"></path></symbol><symbol id="stackoverflow" viewBox="0 0 24 24"><path d="M17.8 20.2v-5.3h1.8V22h-16v-7.1h1.7v5.3h12.5M7.3 14.4l.4-1.8 8.7 1.9-.4 1.7-8.7-1.8m1.2-4.2l.7-1.6 8.1 3.7-.8 1.7-8-3.8m2.2-4l1.1-1.3 6.9 5.7-1.1 1.3-6.9-5.7M15.1 2l5.3 7.2-1.4 1-5.3-7.1L15.1 2m-8 16.4v-1.8H16v1.8z"></path></symbol><symbol id="star-1" viewBox="0 0 24 24"><path d="M21.4 9.8a1.1 1.1 0 0 0-.7-.6l-5.5-.8-2.4-4.9A1 1 0 0 0 12 3a1 1 0 0 0-.8.5L8.8 8.4l-5.5.8a1.1 1.1 0 0 0-.7.6 1 1 0 0 0 .2.9l4 3.9-.9 5.4a.7.7 0 0 0 .3.8.8.8 0 0 0 .9.1l4.9-2.6 4.9 2.6h.4l.5-.2a.7.7 0 0 0 .3-.8l-.9-5.4 4-3.9a1 1 0 0 0 .2-.8zm-5.7 3.9a1.1 1.1 0 0 0-.3.7l.7 4.2-3.7-2h-.8l-3.7 2 .7-4.2a1.1 1.1 0 0 0-.3-.7l-3-3 4.2-.6a1.8 1.8 0 0 0 .7-.5L12 5.8l1.9 3.8a1.5 1.5 0 0 0 .6.5l4.2.6z"></path></symbol><symbol id="star-outline" viewBox="0 0 24 24"><path d="M12 15.39l-3.76 2.27.99-4.28-3.32-2.88 4.38-.37L12 6.09l1.71 4.04 4.38.37-3.32 2.88.99 4.28M22 9.24l-7.19-.61L12 2 9.19 8.63 2 9.24l5.45 4.73L5.82 21 12 17.27 18.18 21l-1.64-7.03L22 9.24z"></path></symbol><symbol id="star" viewBox="0 0 24 24"><path d="M17.3 21.6a1.1 1.1 0 0 1-.8-.2L12 18.6l-4.2 2.6a1.7 1.7 0 0 1-1.8 0 1.7 1.7 0 0 1-.6-1.8l1.2-4.7-4.1-3.5a1.6 1.6 0 0 1-.4-1.6 1.5 1.5 0 0 1 1.3-1l5.2-.3c.1 0 .1 0 .1-.1l1.9-4.9a1.4 1.4 0 0 1 1.9-.8 1.4 1.4 0 0 1 .9.8l1.9 4.9c0 .1 0 .1.1.1l5.2.3a1.5 1.5 0 0 1 1.3 1 1.6 1.6 0 0 1-.4 1.6l-4.1 3.4 1.3 5.1a1.5 1.5 0 0 1-.6 1.6zM12 17.1a1.3 1.3 0 0 1 .8.3l4.5 2.8L16 15a1.7 1.7 0 0 1 .5-1.5l4.1-3.4h-.1l-5.2-.3a1.6 1.6 0 0 1-1.3-1l-2-5-2 5a1.4 1.4 0 0 1-1.3.9l-5.2.3h-.1l4.1 3.4A1.7 1.7 0 0 1 8 15l-1.2 4.8c-.1.1 0 .1 0 .2s.2.1.2 0l4.2-2.6a1.3 1.3 0 0 1 .8-.3z"></path></symbol><symbol id="steam" viewBox="0 0 24 24"><path d="M12 2a10 10 0 0 1 0 20 9.9 9.9 0 0 1-9.6-7.3l3.8 1.6A2.8 2.8 0 0 0 9 18.6a2.9 2.9 0 0 0 2.8-2.8v-.2l3.4-2.4h.1A3.7 3.7 0 0 0 19 9.4a3.6 3.6 0 0 0-3.7-3.7 3.7 3.7 0 0 0-3.8 3.7l-2.4 3.5H9a2.8 2.8 0 0 0-1.6.5L2 11.2A10 10 0 0 1 12 2M8.3 17.2a1.6 1.6 0 0 0 2-.9 1.4 1.4 0 0 0-.8-2l-1.3-.5a2.2 2.2 0 0 1 1.6 0 2 2 0 0 1 1.1 1.1 2.5 2.5 0 0 1 0 1.7 2.1 2.1 0 0 1-2.8 1.1 2.4 2.4 0 0 1-1-1l1.2.5m9.5-7.8a2.5 2.5 0 1 1-2.5-2.5 2.5 2.5 0 0 1 2.5 2.5m-4.4 0a1.8 1.8 0 0 0 1.9 1.9 1.9 1.9 0 0 0 1.9-1.9 2 2 0 0 0-1.9-1.9 1.9 1.9 0 0 0-1.9 1.9z"></path></symbol><symbol id="sun" viewBox="0 0 24 24"><path d="M12 5.8a6.2 6.2 0 1 0 6.2 6.2A6.2 6.2 0 0 0 12 5.8zm0 11A4.9 4.9 0 0 1 7.2 12 4.9 4.9 0 0 1 12 7.2a4.9 4.9 0 0 1 4.8 4.8 4.9 4.9 0 0 1-4.8 4.8zm-.7-13.2V1.7a.7.7 0 1 1 1.4 0v1.9a.7.7 0 0 1-1.4 0zM4.2 5.3a.9.9 0 0 1-.1-1.1.9.9 0 0 1 1.1-.1.1.1 0 0 0 .1.1l1.3 1.3a1.1 1.1 0 0 1 0 1.1 1.1 1.1 0 0 1-1.1 0zm-.6 7.4H1.7a.7.7 0 1 1 0-1.4h1.9a.7.7 0 1 1 0 1.4zm3 4.7a1.1 1.1 0 0 1 0 1.1l-1.3 1.3-.6.2-.5-.2a.8.8 0 0 1 0-1.1l1.3-1.3a1.1 1.1 0 0 1 1.1 0zm6.1 3v1.9a.7.7 0 0 1-1.4 0v-1.9a.7.7 0 0 1 1.4 0zm7.1-1.7a.8.8 0 0 1 0 1.1l-.5.2-.6-.2-1.3-1.3a.8.8 0 0 1 1.1-1.1zM23 12a.7.7 0 0 1-.7.7h-1.9a.7.7 0 0 1 0-1.4h1.9a.7.7 0 0 1 .7.7zm-5.6-5.4a1.1 1.1 0 0 1 0-1.1l1.3-1.3a.9.9 0 0 1 1.1.1.9.9 0 0 1 0 1l-1.3 1.3a1.1 1.1 0 0 1-1.1 0z"></path></symbol><symbol id="teamviewer" viewBox="0 0 24 24"><path d="M10 9.2L9.3 11h5.5L14 9.2l5.5 2.8-5.5 2.8.8-1.8H9.3l.7 1.8L4.5 12 10 9.2M20.8 22H3.2A1.2 1.2 0 0 1 2 20.8V3.2A1.2 1.2 0 0 1 3.2 2h17.6A1.2 1.2 0 0 1 22 3.2v17.6a1.2 1.2 0 0 1-1.2 1.2M11.9 3.8A8.2 8.2 0 0 0 3.8 12a8 8 0 0 0 8.1 8.2h.1a8.2 8.2 0 0 0 8.2-8.2 8 8 0 0 0-7.9-8.2z"></path></symbol><symbol id="telegram" viewBox="0 0 24 24"><path d="M9.78 18.65l.28-4.23 7.68-6.92c.34-.31-.07-.46-.52-.19L7.74 13.3 3.64 12c-.88-.25-.89-.86.2-1.3l15.97-6.16c.73-.33 1.43.18 1.15 1.3l-2.72 12.81c-.19.91-.74 1.13-1.5.71L12.6 16.3l-1.99 1.93c-.23.23-.42.42-.83.42z"></path></symbol><symbol id="text-box-outline" viewBox="0 0 24 24"><path d="M5 3c-1.11 0-2 .89-2 2v14c0 1.11.89 2 2 2h14c1.11 0 2-.89 2-2V5c0-1.11-.89-2-2-2H5m0 2h14v14H5V5m2 2v2h10V7H7m0 4v2h10v-2H7m0 4v2h7v-2H7z"></path></symbol><symbol id="tokopedia-alt" viewBox="0 0 24 24"><path d="M20.2 5.7c-1.3 0-2.6-.1-3.9 0a4.3 4.3 0 0 0-8.6 0c-1.3-.1-2.6 0-3.9 0h-.7V22H15a5.9 5.9 0 0 0 5.9-5.9V5.7zM12 3.2a3.2 3.2 0 0 1 3.2 2.6h-.1a10.9 10.9 0 0 0-3.1.8 6.8 6.8 0 0 0-3.1-.8A3.1 3.1 0 0 1 12 3.2zm3.8 13.5a2.9 2.9 0 0 1-1.6-.4l-.3.3-1.5 1.6-.4.4-.4-.4-1.5-1.6-.3-.3a2.9 2.9 0 0 1-1.6.4A4.2 4.2 0 0 1 4 12.5a4.2 4.2 0 0 1 4.2-4.1A4.1 4.1 0 0 1 12 11a4.1 4.1 0 0 1 3.8-2.6 4.2 4.2 0 0 1 4.2 4.1 4.2 4.2 0 0 1-4.2 4.2zm-4.3-5.1a.4.4 0 0 1-.1-.3c0-.1-.1-.1-.1-.2a.4.4 0 0 1-.1-.3h-.1c0-.1 0-.1-.1-.2v-.2h-.1c0-.1-.1-.1-.1-.2h-.1V10h-.1v-.2H6.1l-.2.2-.2.2a3.3 3.3 0 0 0-1 2.3A3.5 3.5 0 0 0 8.2 16a3.5 3.5 0 0 0 3.4-3.5 2.8 2.8 0 0 0-.1-.9zm-2.9 3.2a2.2 2.2 0 0 1-2.2-2.2 2 2 0 0 1 .3-1.1 1 1 0 0 0 1 .7 1 1 0 0 0 1-1.1.8.8 0 0 0-.2-.7h.1a2.2 2.2 0 0 1 2.2 2.2 2.2 2.2 0 0 1-2.2 2.2zm10.5-3.2a.4.4 0 0 0-.1-.3c0-.1 0-.1-.1-.2 0-.1 0-.2-.1-.2 0-.1-.1-.1-.1-.2h-.1v-.2l-.2-.2-.2-.2-.2-.2h-4.3v.1h-.3c0 .1-.1.1-.1.2h-.1v.2c-.1.1-.1.1-.1.2h-.2v.2h-.1a2.8 2.8 0 0 0-.1.9 3.5 3.5 0 0 0 3.1 4.3 3.5 3.5 0 0 0 3.5-3.5 2.9 2.9 0 0 0-.2-.9zm-3.7 3.2a2.2 2.2 0 0 1-2.2-2.2 2 2 0 0 1 .3-1.1 1 1 0 0 0 1 .7 1 1 0 0 0 1-1.1 1.4 1.4 0 0 0-.2-.7h.1a2.2 2.2 0 0 1 2.2 2.2 2.2 2.2 0 0 1-2.2 2.2zm-3.4-.7a4.1 4.1 0 0 1-.5.9h1a4.1 4.1 0 0 1-.5-.9zm1.5 2.2a1.7 1.7 0 0 0-3 0l1.5 1.6z"></path></symbol><symbol id="tokopedia" viewBox="0 0 24 24"><path d="M10.8 12.6a2.2 2.2 0 0 1-2.2 2.2 2.2 2.2 0 0 1-2.2-2.2 2 2 0 0 1 .3-1.1 1 1 0 0 0 1 .7 1 1 0 0 0 1-1.1.8.8 0 0 0-.2-.7h.1a2.2 2.2 0 0 1 2.2 2.2zm10.1-6.9v10.4A5.9 5.9 0 0 1 15 22H3.1V5.7h.7c1.3 0 2.6-.1 3.9 0a4.3 4.3 0 0 1 8.6 0c1.3-.1 2.6 0 3.9 0zm-12 .1a6.8 6.8 0 0 1 3.1.8 10.9 10.9 0 0 1 3.1-.8h.1A3.2 3.2 0 0 0 12 3.2a3.1 3.1 0 0 0-3.1 2.6zm11.3.6c-1.3 0-2.6-.1-3.8 0h-1.2a8 8 0 0 0-3.2.9 8.5 8.5 0 0 0-3.2-.9H7.6c-1.2-.1-2.5 0-3.8 0v14.9H15a5.2 5.2 0 0 0 5.2-5.2V6.4zm-4.9 4a1.4 1.4 0 0 1 .2.7 1 1 0 0 1-1 1.1 1 1 0 0 1-1-.7 2 2 0 0 0-.3 1.1 2.2 2.2 0 0 0 4.4 0 2.2 2.2 0 0 0-2.2-2.2zm.5-2a4.2 4.2 0 0 1 4.2 4.1 4.2 4.2 0 0 1-4.2 4.2 2.9 2.9 0 0 1-1.6-.4l-.3.3-1.5 1.6-.4.4-.4-.4-1.5-1.6-.3-.3a2.9 2.9 0 0 1-1.6.4A4.2 4.2 0 0 1 4 12.5a4.2 4.2 0 0 1 4.2-4.1A4.1 4.1 0 0 1 12 11a4.1 4.1 0 0 1 3.8-2.6zM12 14.1a4.1 4.1 0 0 1-.5.9h1a4.1 4.1 0 0 1-.5-.9zm-.4-1.6a2.8 2.8 0 0 0-.1-.9.4.4 0 0 1-.1-.3c0-.1-.1-.1-.1-.2a.4.4 0 0 1-.1-.3h-.1c0-.1 0-.1-.1-.2v-.2h-.1c0-.1-.1-.1-.1-.2h-.1V10h-.1v-.2H6.1l-.2.2-.2.2a3.3 3.3 0 0 0-1 2.3A3.5 3.5 0 0 0 8.2 16a3.5 3.5 0 0 0 3.4-3.5zm1.9 3.8a1.7 1.7 0 0 0-3 0l1.5 1.6zm2.6-7.2h-2.4v.9h-.3c0 .1-.1.1-.1.2h-.1v.2c-.1.1-.1.1-.1.2h-.2v.2h-.1a2.8 2.8 0 0 0-.1.9 3.5 3.5 0 0 0 3.1 4.3 3.5 3.5 0 0 0 3.5-3.5 2.9 2.9 0 0 0-.2-.9.4.4 0 0 0-.1-.3c0-.1 0-.1-.1-.2 0-.1 0-.2-.1-.2 0-.1-.1-.1-.1-.2h-.1v-.2l-.2-.2-.2-.2-.2-.2h-1.9z"></path></symbol><symbol id="trakteer" viewBox="0 0 24 24"><path d="M13.5 4.1a2 2 0 0 1 1.9 2 1.9 1.9 0 0 1-.3 1h-3.3a1.9 1.9 0 0 1-.3-1 2 2 0 0 1 2-2zM8.2 9.3h7.6a.9.9 0 0 0 .9-.8v-.2a.8.8 0 0 0-.9-.8H8.2a.8.8 0 0 0-.9.8v.2a.9.9 0 0 0 .9.8zm2.6-2.9h.2v-.5a2.3 2.3 0 0 1 2-2.2A2.3 2.3 0 0 0 10.8 2a2.2 2.2 0 0 0 0 4.4zm6.7 6v8.1A1.5 1.5 0 0 1 16 22H8a1.5 1.5 0 0 1-1.5-1.5v-8.1A1.5 1.5 0 0 1 8 10.9v-.6h8.1v.6a1.5 1.5 0 0 1 1.4 1.5zm-2.6 1.8h-.1a1.8 1.8 0 0 0-2.5 0l-.3.3-.3-.3a1.8 1.8 0 0 0-2.5 0h-.1a1.8 1.8 0 0 0 0 2.5l.3.3 2.6 2.6 2.6-2.6.3-.3a1.8 1.8 0 0 0 0-2.5z"></path></symbol><symbol id="trello" viewBox="0 0 24 24"><path d="M19.5 2h-15A2.5 2.5 0 0 0 2 4.5v15A2.5 2.5 0 0 0 4.5 22h15a2.5 2.5 0 0 0 2.5-2.5v-15A2.5 2.5 0 0 0 19.5 2m-8.8 15.2a1.2 1.2 0 0 1-1.2 1.2H5.8a1.2 1.2 0 0 1-1.2-1.2V5.8a1.2 1.2 0 0 1 1.2-1.2h3.7a1.2 1.2 0 0 1 1.2 1.2v11.4m8.7-5a1.2 1.2 0 0 1-1.2 1.2h-3.7a1.2 1.2 0 0 1-1.2-1.2V5.8a1.2 1.2 0 0 1 1.2-1.2h3.7a1.2 1.2 0 0 1 1.2 1.2z"></path></symbol><symbol id="trend-up" viewBox="0 0 24 24"><path d="M22 6.3V12a.7.7 0 1 1-1.4 0V8l-7.4 7.4a.9.9 0 0 1-1 0l-3.1-3.1-5.9 5.9a.7.7 0 0 1-1 0 .7.7 0 0 1 0-1l6.4-6.4a.8.8 0 0 1 1.1 0l3 3L19.6 7h-4a.7.7 0 1 1 0-1.4h5.7a.7.7 0 0 1 .7.7z"></path></symbol><symbol id="trending-up-1" viewBox="0 0 24 24"><path d="M22 6.4v6.1a1 1 0 0 1-1 1 1 1 0 0 1-1.1-1V8.9L14.1 15a1 1 0 0 1-1.3.2l-4.2-2.6-4.8 5.7a1.2 1.2 0 0 1-.8.4.9.9 0 0 1-.6-.3 1 1 0 0 1-.2-1.4l5.3-6.4a1.1 1.1 0 0 1 1.4-.2l4.3 2.6 5.4-5.6h-3.8a1.1 1.1 0 0 1-1-1 1.1 1.1 0 0 1 1-1.1h6.9l.2.3v.2z"></path></symbol><symbol id="trending-up" viewBox="0 0 24 24"><path d="M16 6l2.29 2.29-4.88 4.88-4-4L2 16.59 3.41 18l6-6 4 4 6.3-6.29L22 12V6h-6z"></path></symbol><symbol id="twitch" viewBox="0 0 24 24"><path d="M11.6 5.9h1.5v4.3h-1.5m4-4.3H17v4.3h-1.4M7 2L3.4 5.6v12.8h4.3V22l3.6-3.6h2.8l6.5-6.4V2m-1.5 9.3l-2.8 2.8h-2.9l-2.5 2.5v-2.5H7.7V3.4h11.4z"></path></symbol><symbol id="twitter" viewBox="0 0 24 24"><path d="M22.46 6c-.77.35-1.6.58-2.46.69.88-.53 1.56-1.37 1.88-2.38-.83.5-1.75.85-2.72 1.05C18.37 4.5 17.26 4 16 4c-2.35 0-4.27 1.92-4.27 4.29 0 .34.04.67.11.98C8.28 9.09 5.11 7.38 3 4.79c-.37.63-.58 1.37-.58 2.15 0 1.49.75 2.81 1.91 3.56-.71 0-1.37-.2-1.95-.5v.03c0 2.08 1.48 3.82 3.44 4.21a4.22 4.22 0 0 1-1.93.07 4.28 4.28 0 0 0 4 2.98 8.521 8.521 0 0 1-5.33 1.84c-.34 0-.68-.02-1.02-.06C3.44 20.29 5.7 21 8.12 21 16 21 20.33 14.46 20.33 8.79c0-.19 0-.37-.01-.56.84-.6 1.56-1.36 2.14-2.23z"></path></symbol><symbol id="vimeo" viewBox="0 0 24 24"><path d="M22 7.3c-.1 2-1.5 4.7-4.1 8.1s-5 5.3-6.9 5.3-2.1-1.1-3-3.3-1-3.9-1.6-5.9-1.2-3.2-1.9-3.2l-1.6.9L2 8l2.9-2.6q1.9-1.8 3-1.8c1.5-.2 2.5.9 2.9 3.2a29.1 29.1 0 0 0 .8 4.6c.4 2 .9 3 1.4 3s1.1-.6 1.9-1.9a8.4 8.4 0 0 0 1.4-3.1c.1-1.1-.3-1.7-1.4-1.7l-1.4.3c.9-3.2 2.8-4.8 5.6-4.7s3 1.4 2.9 4z"></path></symbol><symbol id="vkontakte" viewBox="0 0 24 24"><path d="M15.1 2H8.9C3.3 2 2 3.3 2 8.9v6.2C2 20.7 3.3 22 8.9 22h6.2c5.6 0 6.9-1.3 6.9-6.9V8.9C22 3.3 20.7 2 15.1 2m3 14.3h-1.4c-.6 0-.7-.5-1.7-1.5s-1.3-.9-1.5-.9-.4.1-.4.5v1.3c0 .3-.1.6-1 .6a5.8 5.8 0 0 1-4.4-2.7 10.6 10.6 0 0 1-2.3-4.8c0-.3 0-.5.4-.5h1.5c.4 0 .5.2.7.6.7 2.1 1.9 3.9 2.4 3.9s.2-.1.2-.6v-2.1c0-1-.5-1.1-.5-1.4s.1-.4.3-.4h2.3c.3 0 .4.2.4.6v2.9c0 .3.2.4.3.4s.3-.1.7-.5a13 13 0 0 0 1.8-2.9c0-.2.2-.4.6-.4h1.4c.5 0 .6.2.5.5a19.9 19.9 0 0 1-2 3.3c-.1.3-.2.4 0 .7l1 1a11 11 0 0 1 1.3 1.7c.1.5-.1.7-.6.7z"></path></symbol><symbol id="waze" viewBox="0 0 24 24"><path d="M20.5 6.6a8.3 8.3 0 0 1 1.4 3.2 7.7 7.7 0 0 1-.3 3.7 7.2 7.2 0 0 1-2 3.1 9.4 9.4 0 0 1-2.3 1.6 2.1 2.1 0 0 1-1.2 2.7h-.7a2.2 2.2 0 0 1-2.1-2h-3.1a2.1 2.1 0 0 1-4.1-.2.7.7 0 0 1 .1-.5 9 9 0 0 1-4-2.9 1.1 1.1 0 0 1 .2-1.3l.7-.2c.7 0 1-.3 1.1-.7a5.4 5.4 0 0 0 .4-2.2 7.7 7.7 0 0 1 .2-1.5A7.1 7.1 0 0 1 7.5 5a9.5 9.5 0 0 1 5.8-2 8.6 8.6 0 0 1 4.1 1 8.6 8.6 0 0 1 3.1 2.6m-3.8 10.7a7.5 7.5 0 0 0 3.9-4.1c1.6-4.9-2.6-9.1-7.3-9.1h-1.1c-2.8.4-5.8 2.4-6.4 5.4s.2 5.3-2.7 5.3a7.6 7.6 0 0 0 3.7 2.6 2 2 0 0 1 2.9.1l.3.4h3.6a2.1 2.1 0 0 1 2.8-.9l.3.3m-5.7-7a1 1 0 0 1-1.1-1 1 1 0 0 1 1-1.1 1.2 1.2 0 0 1 1.1 1 1 1 0 0 1-1 1.1m4.7 0a1.2 1.2 0 0 1-1.2-1 1.1 1.1 0 0 1 1-1.1 1.2 1.2 0 0 1 1.2 1 1 1 0 0 1-1 1.1m-6 1.8a.7.7 0 0 1 .4-.7.6.6 0 0 1 .6.5 2.6 2.6 0 0 0 2.6 1.7 2.5 2.5 0 0 0 2.6-1.7.5.5 0 0 1 .7-.3c.2.2.3.3.3.5a3.6 3.6 0 0 1-1.2 1.8 4 4 0 0 1-2.4.7h-.1a3.5 3.5 0 0 1-3.5-2.5z"></path></symbol><symbol id="wechat" viewBox="0 0 24 24"><path d="M9.5 4C5.4 4 2 6.7 2 10a5.7 5.7 0 0 0 2.8 4.7L4 17l2.5-1.5a9.3 9.3 0 0 0 2.9.5 4.5 4.5 0 0 1-.4-2c0-3.3 3.1-6 7-6h.6a7.7 7.7 0 0 0-7.1-4m-3 2.5a.9.9 0 0 1 1 1 .9.9 0 0 1-1 1 .9.9 0 0 1-1-1 .9.9 0 0 1 1-1m5 0a.9.9 0 0 1 1 1 1 1 0 0 1-2 0 .9.9 0 0 1 1-1M16 9c-3.3 0-6 2.2-6 5s2.7 5 6 5l1.9-.2L20 20l-.6-1.9A4.7 4.7 0 0 0 22 14c0-2.8-2.7-5-6-5m-2 2.5a1 1 0 1 1-1 1 .9.9 0 0 1 1-1m4 0a1 1 0 1 1-1 1 .9.9 0 0 1 1-1z"></path></symbol><symbol id="whatsapp" viewBox="0 0 24 24"><path d="M12 6.1a5.9 5.9 0 0 0-5.9 5.8 6.2 6.2 0 0 0 .9 3.2l.2.2-.6 2.2 2.2-.6H9a6.1 6.1 0 0 0 3 .8 6 6 0 0 0 6-5.9 5.9 5.9 0 0 0-1.8-4.1A6.1 6.1 0 0 0 12 6.1zm3.5 8.4a1.8 1.8 0 0 1-1.2.8 4.2 4.2 0 0 1-2.2-.4 9.1 9.1 0 0 1-3-2.7 3.5 3.5 0 0 1-.7-1.8A2.3 2.3 0 0 1 9 8.9a.6.6 0 0 1 .5-.2h.3c.1 0 .3-.1.4.3s.5 1.2.6 1.3.1.2 0 .3-.7.6-.5 1a5.4 5.4 0 0 0 2.4 2.1h.4l.5-.7c.1-.2.3-.1.4-.1l1.2.6.4.2a3.9 3.9 0 0 1-.1.8zM19.9 2H4.1A2.2 2.2 0 0 0 2 4.1v15.8A2.2 2.2 0 0 0 4.1 22h15.8a2.2 2.2 0 0 0 2.1-2.1V4.1A2.2 2.2 0 0 0 19.9 2zM12 19a7.7 7.7 0 0 1-3.4-.8l-3.7.9 1-3.6a6.5 6.5 0 0 1-1-3.6 7 7 0 0 1 7.1-7 7 7 0 0 1 5 2 7.3 7.3 0 0 1 2.1 5A7.1 7.1 0 0 1 12 19z"></path></symbol><symbol id="wordpress" viewBox="0 0 24 24"><path d="M3.4 12a8.5 8.5 0 0 1 .8-3.5l4.1 11.2A8.5 8.5 0 0 1 3.4 12m14.4-.4a9.7 9.7 0 0 1-.7 2.7l-.8 2.9L13.2 8h1a.4.4 0 0 0-.1-.7H9.6c-.5 0-.5.7-.1.7h.9l1.4 3.6-1.9 5.7L6.7 8h1a.4.4 0 0 0 0-.7H4.8A8.8 8.8 0 0 1 12 3.4a8.6 8.6 0 0 1 5.8 2.3h-.1a1.5 1.5 0 0 0-1.5 1.5 3.6 3.6 0 0 0 .9 2 4.9 4.9 0 0 1 .7 2.4m-5.7 1.2l2.7 7.2h.1a9.3 9.3 0 0 1-2.9.5 6.7 6.7 0 0 1-2.4-.4l2.5-7.4m7.4-4.9a8.1 8.1 0 0 1 1.1 4.2 8.5 8.5 0 0 1-4.3 7.4l2.6-7.6a7.9 7.9 0 0 0 .7-3v-.9M12 2A10 10 0 1 1 2 12 10 10 0 0 1 12 2m0 19.5a9.4 9.4 0 0 0 9.5-9.5A9.4 9.4 0 0 0 12 2.5 9.4 9.4 0 0 0 2.5 12a9.4 9.4 0 0 0 9.5 9.5z"></path></symbol><symbol id="x" viewBox="0 0 24 24"><path d="M18.8 17.8a.7.7 0 0 1 0 1 .9.9 0 0 1-1 0L12 13l-5.8 5.8a.9.9 0 0 1-1 0 .7.7 0 0 1 0-1L11 12 5.2 6.2a.8.8 0 0 1 .1-1 .8.8 0 0 1 .9 0L12 11l5.8-5.8a.7.7 0 0 1 1 .1.7.7 0 0 1 0 .9L13 12z"></path></symbol><symbol id="yahoo" viewBox="0 0 24 24"><path d="M10.5 7.6l-2.3 5.6-2.4-5.6H2l4.3 9.6-1.5 3.5h3.7l5.7-13.1h-3.7m4.5 5.1a2.3 2.3 0 0 0-2.4 2.3 2.2 2.2 0 0 0 2.3 2.2 2.4 2.4 0 0 0 2.5-2.3 2.3 2.3 0 0 0-2.4-2.2m2.7-9.4l-3.8 8.6h4.3L22 3.3z"></path></symbol><symbol id="youtube" viewBox="0 0 24 24"><path d="M10 15l5.2-3L10 9v6m11.6-7.8a8.4 8.4 0 0 1 .2 1.9 16.2 16.2 0 0 1 .1 2.1v.8a25.1 25.1 0 0 1-.4 4.8 2.7 2.7 0 0 1-1.8 1.8l-2.6.2H12a50.8 50.8 0 0 1-7.8-.4 2.7 2.7 0 0 1-1.8-1.8 8.4 8.4 0 0 1-.2-1.9 16.2 16.2 0 0 1-.1-2.1V12a25.1 25.1 0 0 1 .4-4.8 2.7 2.7 0 0 1 1.7-1.8 12.6 12.6 0 0 1 2.6-.2H12a50.8 50.8 0 0 1 7.8.4 2.7 2.7 0 0 1 1.8 1.6z"></path></symbol></defs></svg>