<svg xmlns="http://www.w3.org/2000/svg"><defs><symbol id="telegram" viewBox="0 0 24 24"><path d="M9.5 19.4l.3-4.7L18.4 7c.3-.3-.1-.5-.6-.2L7.3 13.4 2.7 12c-1-.3-1-1 .2-1.4l17.8-6.9c.8-.3 1.5.2 1.2 1.5l-3 14.2c-.2 1-.8 1.2-1.7.8l-4.5-3.4-2.3 2.1a.9.9 0 0 1-.9.5z"></path></symbol><symbol id="whatsapp" viewBox="0 0 24 24"><path d="M12 1.9a10 10 0 0 0-9.9 10 9.6 9.6 0 0 0 1.3 5L2 22.1l5.3-1.4a9.7 9.7 0 0 0 4.7 1.2 10 10 0 0 0 10-10 9.8 9.8 0 0 0-2.9-7 10 10 0 0 0-7.1-3m.1 1.7a8.1 8.1 0 0 1 5.8 2.5 7.8 7.8 0 0 1 2.4 5.8 8.3 8.3 0 0 1-8.3 8.3A8.1 8.1 0 0 1 7.8 19h-.3l-3.1.8.8-3.1-.2-.4a8.4 8.4 0 0 1 7.1-12.7M8.5 7.3l-.7.3A3.2 3.2 0 0 0 7 9.7a5.5 5.5 0 0 0 1 2.6 10.3 10.3 0 0 0 4.3 3.7l1.4.6h1.5a2.6 2.6 0 0 0 1.7-1.2 3.9 3.9 0 0 0 .2-1.2l-.5-.3-1.7-.8a.5.5 0 0 0-.6.1 3.9 3.9 0 0 1-.8 1c-.1.2-.3.2-.5.1a6.8 6.8 0 0 1-2-1.3 11.7 11.7 0 0 1-1.4-1.7.4.4 0 0 1 .1-.5l.4-.5a.5.5 0 0 0 .2-.4.3.3 0 0 0 0-.4 11.3 11.3 0 0 0-.8-1.9c-.2-.4-.4-.4-.5-.4z"></path></symbol></defs></svg>