<svg xmlns="http://www.w3.org/2000/svg"><defs><symbol id="archive-outline" viewBox="0 0 24 24"><path d="M20 21H4V10h2v9h12v-9h2v11M3 3h18v6H3V3m6.5 8h5c.28 0 .5.22.5.5V13H9v-1.5c0-.28.22-.5.5-.5M5 5v2h14V5H5z"></path></symbol><symbol id="arrow-left" viewBox="0 0 24 24"><path d="M20 11v2H8l5.5 5.5-1.42 1.42L4.16 12l7.92-7.92L13.5 5.5 8 11h12z"></path></symbol><symbol id="arrow-right" viewBox="0 0 24 24"><path d="M4 11v2h12l-5.5 5.5 1.42 1.42L19.84 12l-7.92-7.92L10.5 5.5 16 11H4z"></path></symbol><symbol id="arrow-up" viewBox="0 0 24 24"><path d="M13 20h-2V8l-5.5 5.5-1.42-1.42L12 4.16l7.92 7.92-1.42 1.42L13 8v12z"></path></symbol><symbol id="blogger" viewBox="0 0 24 24"><path d="M12.5 10H10c-.55 0-1-.45-1-1s.45-1 1-1h2.5c.55 0 1 .45 1 1s-.45 1-1 1m2.5 4c0-.55-.45-1-1-1h-4c-.55 0-1 .45-1 1s.45 1 1 1h4c.55 0 1-.45 1-1m7-10v16c0 1.11-.89 2-2 2H4c-1.11 0-2-.89-2-2V4c0-1.11.89-2 2-2h16c1.11 0 2 .89 2 2m-4 8s0-1-1-1c-.95.03-1-1-1-1V8c0-1.66-1.34-3-3-3H9C7.34 5 6 6.34 6 8v7c0 1.66 1.34 3 3 3h6c1.66 0 3-1.34 3-3v-3z"></path></symbol><symbol id="brightness-4" viewBox="0 0 24 24"><path d="M12 18c-.89 0-1.74-.2-2.5-.55C11.56 16.5 13 14.42 13 12c0-2.42-1.44-4.5-3.5-5.45C10.26 6.2 11.11 6 12 6a6 6 0 0 1 6 6 6 6 0 0 1-6 6m8-9.31V4h-4.69L12 .69 8.69 4H4v4.69L.69 12 4 15.31V20h4.69L12 23.31 15.31 20H20v-4.69L23.31 12 20 8.69z"></path></symbol><symbol id="brightness-7" viewBox="0 0 24 24"><path d="M12 8a4 4 0 0 0-4 4 4 4 0 0 0 4 4 4 4 0 0 0 4-4 4 4 0 0 0-4-4m0 10a6 6 0 0 1-6-6 6 6 0 0 1 6-6 6 6 0 0 1 6 6 6 6 0 0 1-6 6m8-9.31V4h-4.69L12 .69 8.69 4H4v4.69L.69 12 4 15.31V20h4.69L12 23.31 15.31 20H20v-4.69L23.31 12 20 8.69z"></path></symbol><symbol id="check-decagram" viewBox="0 0 24 24"><path d="M23 12l-2.44-2.78.34-3.68-3.61-.82-1.89-3.18L12 3 8.6 1.54 6.71 4.72l-3.61.81.34 3.68L1 12l2.44 2.78-.34 3.69 3.61.82 1.89 3.18L12 21l3.4 1.46 1.89-3.18 3.61-.82-.34-3.68L23 12m-13 5l-4-4 1.41-1.41L10 14.17l6.59-6.59L18 9l-8 8z"></path></symbol><symbol id="check" viewBox="0 0 24 24"><path d="M21 7L9 19l-5.5-5.5 1.41-1.41L9 16.17 19.59 5.59 21 7z"></path></symbol><symbol id="chevron-down" viewBox="0 0 24 24"><path d="M7.41 8.58L12 13.17l4.59-4.59L18 10l-6 6-6-6 1.41-1.42z"></path></symbol><symbol id="close" viewBox="0 0 24 24"><path d="M19 6.41L17.59 5 12 10.59 6.41 5 5 6.41 10.59 12 5 17.59 6.41 19 12 13.41 17.59 19 19 17.59 13.41 12 19 6.41z"></path></symbol><symbol id="comment-outline" viewBox="0 0 24 24"><path d="M9 22a1 1 0 0 1-1-1v-3H4a2 2 0 0 1-2-2V4a2 2 0 0 1 2-2h16a2 2 0 0 1 2 2v12a2 2 0 0 1-2 2h-6.1l-3.7 3.71c-.2.19-.45.29-.7.29H9m1-6v3.08L13.08 16H20V4H4v12h6z"></path></symbol><symbol id="comment-text-outline" viewBox="0 0 24 24"><path d="M9 22a1 1 0 0 1-1-1v-3H4a2 2 0 0 1-2-2V4a2 2 0 0 1 2-2h16a2 2 0 0 1 2 2v12a2 2 0 0 1-2 2h-6.1l-3.7 3.71c-.2.19-.45.29-.7.29H9m1-6v3.08L13.08 16H20V4H4v12h6M6 7h12v2H6V7m0 4h9v2H6v-2z"></path></symbol><symbol id="content-copy" viewBox="0 0 24 24"><path d="M19 21H8V7h11m0-2H8a2 2 0 0 0-2 2v14a2 2 0 0 0 2 2h11a2 2 0 0 0 2-2V7a2 2 0 0 0-2-2m-3-4H4a2 2 0 0 0-2 2v14h2V3h12V1z"></path></symbol><symbol id="dots-grid" viewBox="0 0 24 24"><path d="M12 16c1.1 0 2 .9 2 2s-.9 2-2 2-2-.9-2-2 .9-2 2-2m0-6c1.1 0 2 .9 2 2s-.9 2-2 2-2-.9-2-2 .9-2 2-2m0-6c1.1 0 2 .9 2 2s-.9 2-2 2-2-.9-2-2 .9-2 2-2M6 16c1.1 0 2 .9 2 2s-.9 2-2 2-2-.9-2-2 .9-2 2-2m0-6c1.1 0 2 .9 2 2s-.9 2-2 2-2-.9-2-2 .9-2 2-2m0-6c1.1 0 2 .9 2 2s-.9 2-2 2-2-.9-2-2 .9-2 2-2m12 12c1.1 0 2 .9 2 2s-.9 2-2 2-2-.9-2-2 .9-2 2-2m0-6c1.1 0 2 .9 2 2s-.9 2-2 2-2-.9-2-2 .9-2 2-2m0-6c1.1 0 2 .9 2 2s-.9 2-2 2-2-.9-2-2 .9-2 2-2z"></path></symbol><symbol id="dots-horizontal" viewBox="0 0 24 24"><path d="M16 12a2 2 0 0 1 2-2 2 2 0 0 1 2 2 2 2 0 0 1-2 2 2 2 0 0 1-2-2m-6 0a2 2 0 0 1 2-2 2 2 0 0 1 2 2 2 2 0 0 1-2 2 2 2 0 0 1-2-2m-6 0a2 2 0 0 1 2-2 2 2 0 0 1 2 2 2 2 0 0 1-2 2 2 2 0 0 1-2-2z"></path></symbol><symbol id="email" viewBox="0 0 24 24"><path d="M20 8l-8 5-8-5V6l8 5 8-5m0-2H4c-1.11 0-2 .89-2 2v12a2 2 0 0 0 2 2h16a2 2 0 0 0 2-2V6a2 2 0 0 0-2-2z"></path></symbol><symbol id="evernote" viewBox="0 0 24 24"><path d="M15.09 11.63s.19-1.28.91-1.28c.76 0 1.78 1.71 1.78 1.71s-2.32-.43-2.69-.43M19 4.69c-.36-.6-2.17-1.28-3.11-1.28H13.5S12.7 2 10.88 2c-1.83 0-1.71.81-1.71 1.5v2.82l-.83.87H4.5s-1.06.72-1.06 2.25c0 1.56.48 6.91 3.69 7.41 3.8.58 4.45-1.18 4.45-1.39 0-.9.02-2.25.02-2.25s1.11 2.12 2.79 2.12 2.65.97 2.65 1.96v1.84S17 20.28 16 20.28h-2.11s-.69-.54-.69-1.28c0-.75.33-.95.73-.95.39 0 .72.04.72.04v-1.56s-3.18-.03-3.18 2.41c0 2.43 1.66 3.06 2.99 3.06h2.17s3.93-.5 3.93-8.25S19.33 5.28 19 4.69M7.5 6.31H4.26l4.06-4.09V5.5l-.82.81z"></path></symbol><symbol id="eye-off-outline" viewBox="0 0 24 24"><path d="M2 5.27L3.28 4 20 20.72 18.73 22l-3.08-3.08c-1.15.38-2.37.58-3.65.58-5 0-9.27-3.11-11-7.5.69-1.76 1.79-3.31 3.19-4.54L2 5.27M12 9a3 3 0 0 1 3 3 3 3 0 0 1-.17 1L11 9.17A3 3 0 0 1 12 9m0-4.5c5 0 9.27 3.11 11 7.5a11.79 11.79 0 0 1-4 5.19l-1.42-1.43A9.862 9.862 0 0 0 20.82 12 9.821 9.821 0 0 0 12 6.5c-1.09 0-2.16.18-3.16.5L7.3 5.47c1.44-.62 3.03-.97 4.7-.97M3.18 12A9.821 9.821 0 0 0 12 17.5c.69 0 1.37-.07 2-.21L11.72 15A3.064 3.064 0 0 1 9 12.28L5.6 8.87c-.99.85-1.82 1.91-2.42 3.13z"></path></symbol><symbol id="facebook" viewBox="0 0 24 24"><path d="M12 2.04c-5.5 0-10 4.49-10 10.02 0 5 3.66 9.15 8.44 9.9v-7H7.9v-2.9h2.54V9.85c0-2.51 1.49-3.89 3.78-3.89 1.09 0 2.23.19 2.23.19v2.47h-1.26c-1.24 0-1.63.77-1.63 1.56v1.88h2.78l-.45 2.9h-2.33v7a10 10 0 0 0 8.44-9.9c0-5.53-4.5-10.02-10-10.02z"></path></symbol><symbol id="file-document-outline" viewBox="0 0 24 24"><path d="M6 2a2 2 0 0 0-2 2v16a2 2 0 0 0 2 2h12a2 2 0 0 0 2-2V8l-6-6H6m0 2h7v5h5v11H6V4m2 8v2h8v-2H8m0 4v2h5v-2H8z"></path></symbol><symbol id="format-list-numbered" viewBox="0 0 24 24"><path d="M7 13v-2h14v2H7m0 6v-2h14v2H7M7 7V5h14v2H7M3 8V5H2V4h2v4H3m-1 9v-1h3v4H2v-1h2v-.5H3v-1h1V17H2m2.25-7a.75.75 0 0 1 .75.75c0 .2-.08.39-.21.52L3.12 13H5v1H2v-.92L4 11H2v-1h2.25z"></path></symbol><symbol id="home-variant-outline" viewBox="0 0 24 24"><path d="M9 13h6v6h3v-9l-6-4.5L6 10v9h3v-6m-5 8V9l8-6 8 6v12H4z"></path></symbol><symbol id="link-variant" viewBox="0 0 24 24"><path d="M10.59 13.41c.41.39.41 1.03 0 1.42-.39.39-1.03.39-1.42 0a5.003 5.003 0 0 1 0-7.07l3.54-3.54a5.003 5.003 0 0 1 7.07 0 5.003 5.003 0 0 1 0 7.07l-1.49 1.49c.01-.82-.12-1.64-.4-2.42l.47-.48a2.982 2.982 0 0 0 0-4.24 2.982 2.982 0 0 0-4.24 0l-3.53 3.53a2.982 2.982 0 0 0 0 4.24m2.82-4.24c.39-.39 1.03-.39 1.42 0a5.003 5.003 0 0 1 0 7.07l-3.54 3.54a5.003 5.003 0 0 1-7.07 0 5.003 5.003 0 0 1 0-7.07l1.49-1.49c-.01.82.12 1.64.4 2.43l-.47.47a2.982 2.982 0 0 0 0 4.24 2.982 2.982 0 0 0 4.24 0l3.53-3.53a2.982 2.982 0 0 0 0-4.24.973.973 0 0 1 0-1.42z"></path></symbol><symbol id="linkedin" viewBox="0 0 24 24"><path d="M19 3a2 2 0 0 1 2 2v14a2 2 0 0 1-2 2H5a2 2 0 0 1-2-2V5a2 2 0 0 1 2-2h14m-.5 15.5v-5.3a3.26 3.26 0 0 0-3.26-3.26c-.85 0-1.84.52-2.32 1.3v-1.11h-2.79v8.37h2.79v-4.93c0-.77.62-1.4 1.39-1.4a1.4 1.4 0 0 1 1.4 1.4v4.93h2.79M6.88 8.56a1.68 1.68 0 0 0 1.68-1.68c0-.93-.75-1.69-1.68-1.69a1.69 1.69 0 0 0-1.69 1.69c0 .93.76 1.68 1.69 1.68m1.39 9.94v-8.37H5.5v8.37h2.77z"></path></symbol><symbol id="magnify" viewBox="0 0 24 24"><path d="M9.5 3A6.5 6.5 0 0 1 16 9.5c0 1.61-.59 3.09-1.56 4.23l.27.27h.79l5 5-1.5 1.5-5-5v-.79l-.27-.27A6.516 6.516 0 0 1 9.5 16 6.5 6.5 0 0 1 3 9.5 6.5 6.5 0 0 1 9.5 3m0 2C7 5 5 7 5 9.5S7 14 9.5 14 14 12 14 9.5 12 5 9.5 5z"></path></symbol><symbol id="menu" viewBox="0 0 24 24"><path d="M3 6h18v2H3V6m0 5h18v2H3v-2m0 5h18v2H3v-2z"></path></symbol><symbol id="newspaper-variant-outline" viewBox="0 0 24 24"><path d="M20 5v14H4V5h16m0-2H4c-1.11 0-2 .89-2 2v14c0 1.11.89 2 2 2h16c1.11 0 2-.89 2-2V5c0-1.11-.89-2-2-2m-2 12H6v2h12v-2m-8-8H6v6h4V7m2 2h6V7h-6v2m6 2h-6v2h6v-2z"></path></symbol><symbol id="pinterest" viewBox="0 0 24 24"><path d="M9.04 21.54c.96.29 1.93.46 2.96.46a10 10 0 0 0 10-10A10 10 0 0 0 12 2 10 10 0 0 0 2 12c0 4.25 2.67 7.9 6.44 9.34-.09-.78-.18-2.07 0-2.96l1.15-4.94s-.29-.58-.29-1.5c0-1.38.86-2.41 1.84-2.41.86 0 1.26.63 1.26 1.44 0 .86-.57 2.09-.86 3.27-.17.98.52 1.84 1.52 1.84 1.78 0 3.16-1.9 3.16-4.58 0-2.4-1.72-4.04-4.19-4.04-2.82 0-4.48 2.1-4.48 4.31 0 .86.28 1.73.74 2.3.09.06.09.14.06.29l-.29 1.09c0 .17-.11.23-.28.11-1.28-.56-2.02-2.38-2.02-3.85 0-3.16 2.24-6.03 6.56-6.03 3.44 0 6.12 2.47 6.12 5.75 0 3.44-2.13 6.2-5.18 6.2-.97 0-1.92-.52-2.26-1.13l-.67 2.37c-.23.86-.86 2.01-1.29 2.7v-.03z"></path></symbol><symbol id="pound" viewBox="0 0 24 24"><path d="M5.41 21l.71-4h-4l.35-2h4l1.06-6h-4l.35-2h4l.71-4h2l-.71 4h6l.71-4h2l-.71 4h4l-.35 2h-4l-1.06 6h4l-.35 2h-4l-.71 4h-2l.71-4h-6l-.71 4h-2M9.53 9l-1.06 6h6l1.06-6h-6z"></path></symbol><symbol id="reddit" viewBox="0 0 24 24"><path d="M14.5 15.41c.08.09.08.28 0 .39-.73.7-2.09.76-2.5.76-.39 0-1.75-.06-2.46-.76-.1-.11-.1-.3 0-.39.11-.1.28-.1.38 0 .46.46 1.41.59 2.08.59.69 0 1.66-.13 2.1-.59.11-.1.28-.1.4 0m-3.75-2.37c0-.57-.47-1.04-1.04-1.04-.57 0-1.04.47-1.04 1.04 0 .57.47 1.05 1.04 1.04.57 0 1.04-.47 1.04-1.04M14.29 12c-.57 0-1.04.5-1.04 1.05s.47 1.04 1.04 1.04c.57 0 1.04-.48 1.04-1.04 0-.55-.47-1.05-1.04-1.05M22 12c0 5.5-4.5 10-10 10S2 17.5 2 12 6.5 2 12 2s10 4.5 10 10m-3.33 0c0-.81-.67-1.46-1.45-1.46-.4 0-.76.16-1.02.41-1-.72-2.37-1.18-3.9-1.24l.67-3.13 2.17.47c.02.55.48.99 1.04.99.57 0 1.04-.47 1.04-1.04 0-.57-.47-1.04-1.04-1.04-.41 0-.77.24-.93.59l-2.43-.52c-.07-.03-.14 0-.19.04-.06.04-.09.1-.1.17l-.74 3.48c-1.55.05-2.95.51-3.97 1.24-.26-.25-.62-.4-1.01-.4-.81 0-1.46.65-1.46 1.44 0 .61.36 1.11.86 1.34-.02.16-.03.28-.03.44 0 2.22 2.61 4.07 5.82 4.07 3.23 0 5.85-1.82 5.85-4.07 0-.14-.01-.28-.04-.44.5-.23.86-.74.86-1.34z"></path></symbol><symbol id="reload" viewBox="0 0 24 24"><path d="M2 12a9 9 0 0 0 9 9c2.39 0 4.68-.94 6.4-2.6l-1.5-1.5A6.706 6.706 0 0 1 11 19c-6.24 0-9.36-7.54-4.95-11.95C10.46 2.64 18 5.77 18 12h-3l4 4h.1l3.9-4h-3a9 9 0 0 0-18 0z"></path></symbol><symbol id="share-variant-outline" viewBox="0 0 24 24"><path d="M18 16.08c-.76 0-1.44.3-1.96.77L8.91 12.7c.05-.23.09-.46.09-.7s-.04-.47-.09-.7l7.05-4.11c.54.5 1.25.81 2.04.81 1.66 0 3-1.34 3-3s-1.34-3-3-3-3 1.34-3 3c0 .24.04.47.09.7L8.04 9.81C7.5 9.31 6.79 9 6 9c-1.66 0-3 1.34-3 3s1.34 3 3 3c.79 0 1.5-.31 2.04-.81l7.12 4.15c-.05.21-.08.43-.08.66 0 1.61 1.31 2.91 2.92 2.91s2.92-1.3 2.92-2.91-1.31-2.92-2.92-2.92M18 4c.55 0 1 .45 1 1s-.45 1-1 1-1-.45-1-1 .45-1 1-1M6 13c-.55 0-1-.45-1-1s.45-1 1-1 1 .45 1 1-.45 1-1 1m12 7c-.55 0-1-.45-1-1s.45-1 1-1 1 .45 1 1-.45 1-1 1z"></path></symbol><symbol id="sort-ascending" viewBox="0 0 24 24"><path d="M19 17h3l-4 4-4-4h3V3h2M2 17h10v2H2M6 5v2H2V5m0 6h7v2H2v-2z"></path></symbol><symbol id="sort-descending" viewBox="0 0 24 24"><path d="M19 7h3l-4-4-4 4h3v14h2M2 17h10v2H2M6 5v2H2V5m0 6h7v2H2v-2z"></path></symbol><symbol id="star-outline" viewBox="0 0 24 24"><path d="M12 15.39l-3.76 2.27.99-4.28-3.32-2.88 4.38-.37L12 6.09l1.71 4.04 4.38.37-3.32 2.88.99 4.28M22 9.24l-7.19-.61L12 2 9.19 8.63 2 9.24l5.45 4.73L5.82 21 12 17.27 18.18 21l-1.64-7.03L22 9.24z"></path></symbol><symbol id="telegram" viewBox="0 0 24 24"><path d="M9.78 18.65l.28-4.23 7.68-6.92c.34-.31-.07-.46-.52-.19L7.74 13.3 3.64 12c-.88-.25-.89-.86.2-1.3l15.97-6.16c.73-.33 1.43.18 1.15 1.3l-2.72 12.81c-.19.91-.74 1.13-1.5.71L12.6 16.3l-1.99 1.93c-.23.23-.42.42-.83.42z"></path></symbol><symbol id="text-box-outline" viewBox="0 0 24 24"><path d="M5 3c-1.11 0-2 .89-2 2v14c0 1.11.89 2 2 2h14c1.11 0 2-.89 2-2V5c0-1.11-.89-2-2-2H5m0 2h14v14H5V5m2 2v2h10V7H7m0 4v2h10v-2H7m0 4v2h7v-2H7z"></path></symbol><symbol id="trending-up" viewBox="0 0 24 24"><path d="M16 6l2.29 2.29-4.88 4.88-4-4L2 16.59 3.41 18l6-6 4 4 6.3-6.29L22 12V6h-6z"></path></symbol><symbol id="twitter" viewBox="0 0 24 24"><path d="M22.46 6c-.77.35-1.6.58-2.46.69.88-.53 1.56-1.37 1.88-2.38-.83.5-1.75.85-2.72 1.05C18.37 4.5 17.26 4 16 4c-2.35 0-4.27 1.92-4.27 4.29 0 .34.04.67.11.98C8.28 9.09 5.11 7.38 3 4.79c-.37.63-.58 1.37-.58 2.15 0 1.49.75 2.81 1.91 3.56-.71 0-1.37-.2-1.95-.5v.03c0 2.08 1.48 3.82 3.44 4.21a4.22 4.22 0 0 1-1.93.07 4.28 4.28 0 0 0 4 2.98 8.521 8.521 0 0 1-5.33 1.84c-.34 0-.68-.02-1.02-.06C3.44 20.29 5.7 21 8.12 21 16 21 20.33 14.46 20.33 8.79c0-.19 0-.37-.01-.56.84-.6 1.56-1.36 2.14-2.23z"></path></symbol><symbol id="whatsapp" viewBox="0 0 24 24"><path d="M12 6.1a5.9 5.9 0 0 0-5.9 5.8 6.2 6.2 0 0 0 .9 3.2l.2.2-.6 2.2 2.2-.6H9a6.1 6.1 0 0 0 3 .8 6 6 0 0 0 6-5.9 5.9 5.9 0 0 0-1.8-4.1A6.1 6.1 0 0 0 12 6.1zm3.5 8.4a1.8 1.8 0 0 1-1.2.8 4.2 4.2 0 0 1-2.2-.4 9.1 9.1 0 0 1-3-2.7 3.5 3.5 0 0 1-.7-1.8A2.3 2.3 0 0 1 9 8.9a.6.6 0 0 1 .5-.2h.3c.1 0 .3-.1.4.3s.5 1.2.6 1.3.1.2 0 .3-.7.6-.5 1a5.4 5.4 0 0 0 2.4 2.1h.4l.5-.7c.1-.2.3-.1.4-.1l1.2.6.4.2a3.9 3.9 0 0 1-.1.8zM19.9 2H4.1A2.2 2.2 0 0 0 2 4.1v15.8A2.2 2.2 0 0 0 4.1 22h15.8a2.2 2.2 0 0 0 2.1-2.1V4.1A2.2 2.2 0 0 0 19.9 2zM12 19a7.7 7.7 0 0 1-3.4-.8l-3.7.9 1-3.6a6.5 6.5 0 0 1-1-3.6 7 7 0 0 1 7.1-7 7 7 0 0 1 5 2 7.3 7.3 0 0 1 2.1 5A7.1 7.1 0 0 1 12 19z"></path></symbol></defs></svg>