<svg height="24" width="24" viewBox="0 0 24 24" xmlns="http://www.w3.org/2000/svg" aria-hidden="true" class="matericons matericons-acer-1"><path d="M17.88 9.5h1.63l-.19.95a2.07 2.07 0 0 1 1.77-1.06 4.59 4.59 0 0 1 .81.07l-.31 1.25a3.15 3.15 0 0 0-.78-.12 2 2 0 0 0-1.93 1.57l-.57 2.15h-1.69C17 12.7 17.6 11 17.88 9.5zm-4.65 2.13a13.67 13.67 0 0 1 1.9-.2c.73-.09 1.76-.49 1.73-1.1s-.62-.8-1.16-.73a3 3 0 0 0-2.47 2zm-.16.42a3.82 3.82 0 0 0 0 .81 1.45 1.45 0 0 0 1.55 1.19 2.61 2.61 0 0 0 1.8-.82.13.13 0 0 1 .22 0 .22.22 0 0 1 0 .21 3 3 0 0 1-2.25 1c-1.06 0-2.38-.4-2.54-1.49a2 2 0 0 1 0-.43 3.84 3.84 0 0 1 3.89-3.22c.87-.05 2.13.18 2.05 1.12s-1.57 1.34-2.54 1.36a5.68 5.68 0 0 0-2.12.24zm-.91 1.15l-.27 1a6.8 6.8 0 0 1-1.61.17c-1.62 0-2.82-.78-2.74-2.33.08-1.78 1.85-2.69 3.55-2.71a6.69 6.69 0 0 1 1.65.19l-.51 1a3.67 3.67 0 0 0-1.37-.15 1.76 1.76 0 0 0-1.7 1.29 1.3 1.3 0 0 0 1.37 1.76 5.62 5.62 0 0 0 1.63-.27zM5.28 9.38c1.36 0 2.39.32 2.48 1.45a3.75 3.75 0 0 1-.24 1.28L7 14.32c-1.09 0-2 0-3 .1s-2-.19-2-1.35c0-1.9 3-1.73 4.21-1.73.26-.76-.36-1.06-1.23-1.06a6.41 6.41 0 0 0-2.08.43l.23-1a7.4 7.4 0 0 1 2.15-.31zM6 12.1c-.69 0-2.62-.16-2.62.89 0 .52.54.6 1 .6 1.23 0 1.42-.42 1.62-1.49zm15.31 1.23a.67.67 0 0 0-.47.2.72.72 0 0 0-.2.48.69.69 0 0 0 .2.47.63.63 0 0 0 .47.2.67.67 0 0 0 .48-.2A.64.64 0 0 0 22 14a.65.65 0 0 0-.19-.48.72.72 0 0 0-.48-.2zm.61.68a.6.6 0 0 1-.18.42.69.69 0 0 1-.43.18.64.64 0 0 1-.43-.18.61.61 0 0 1-.17-.42.67.67 0 0 1 .17-.44.63.63 0 0 1 .43-.17.58.58 0 0 1 .43.18.62.62 0 0 1 .2.42zm-.59-.4h-.28v.77h.11V14h.19l.17.35h.12l-.16-.35a.21.21 0 0 0 .19-.21c0-.15-.1-.21-.32-.21zm0 .07c.15 0 .24 0 .24.14s-.08.15-.24.15h-.15v-.29z"></path></svg>