<svg height="24" viewBox="0 0 24 24" width="24" xmlns="http://www.w3.org/2000/svg" class="matericons matericons-align-text-both-one"><path d="M18.8 3H5.2A2.2 2.2 0 0 0 3 5.2v13.6A2.2 2.2 0 0 0 5.2 21h13.6a2.2 2.2 0 0 0 2.2-2.2V5.2A2.2 2.2 0 0 0 18.8 3zm.4 15.8a.4.4 0 0 1-.4.4H5.2a.4.4 0 0 1-.4-.4V5.2a.4.4 0 0 1 .4-.4h13.6a.4.4 0 0 1 .4.4zM17.4 12a.9.9 0 0 1-.9.9h-9a.9.9 0 0 1 0-1.8h9a.9.9 0 0 1 .9.9zm0-4.1a1 1 0 0 1-.9 1h-9a1 1 0 0 1-.9-1 .9.9 0 0 1 .9-.8h9a.9.9 0 0 1 .9.8zm0 8.2a.9.9 0 0 1-.9.8h-9a.9.9 0 0 1-.9-.8 1 1 0 0 1 .9-1h9a1 1 0 0 1 .9 1z"></path></svg>