<svg height="24" viewBox="0 0 24 24" width="24" xmlns="http://www.w3.org/2000/svg" class="matericons matericons-asus"><path d="M21.15 10.52a.41.41 0 0 1 .41-.42.41.41 0 0 1 .4.41.38.38 0 0 1-.12.29.39.39 0 0 1-.28.13.41.41 0 0 1-.41-.41m0 0a.44.44 0 0 0 .44.44.4.4 0 0 0 .31-.13.45.45 0 0 0 0-.63.46.46 0 0 0-.31-.13.44.44 0 0 0-.44.45m.27.26h.07v-.21h.19a.09.09 0 0 1 0 .06v.14h.08v-.11-.06a.14.14 0 0 0 0-.07.12.12 0 0 0-.07-.12h-.29zm.06-.26v-.17h.2a.07.07 0 0 1 0 .07v.07h-.07zm-17.64.61L2 14h1.24L5 11.26zm7.45-.06V10H7.74a1.13 1.13 0 0 0-.84.42 1.4 1.4 0 0 0-.26.54V10H4.76a.44.44 0 0 0-.37.2c-.11.14-.54.85-.54.85zm9.57 0V10h-3.79a1.17 1.17 0 0 0-.85.42A1.4 1.4 0 0 0 16 11v.09zM12.5 10h-1.06v1.05h1.06zm3.5 0h-1v1.05h1zm0 1.43l-1-.06v1.23a.34.34 0 0 1-.34.35H12.8a.33.33 0 0 1-.3-.34v-1.39l-1.05-.07V13a1.15 1.15 0 0 0 1 1h2.5a1.09 1.09 0 0 0 1-1.07zM5.56 14h4.93a1.16 1.16 0 0 0 .94-1 1.69 1.69 0 0 0 0-.42 1.25 1.25 0 0 0-1-.91l-3.8-.3A1.12 1.12 0 0 0 7 12a1.32 1.32 0 0 0 .62.29l2.63.22c.08 0 .23 0 .23.23a.2.2 0 0 1-.22.2H6.59v-1.56l-1-.08V14zM16 14h3.76a1.14 1.14 0 0 0 1.08-1 1.5 1.5 0 0 0 0-.43 1.17 1.17 0 0 0-1-.91c-.38 0-3.82-.24-3.82-.24a1 1 0 0 0 .35.56 1.17 1.17 0 0 0 .59.28l2.66.22c.08 0 .25 0 .25.22a.2.2 0 0 1-.07.15.43.43 0 0 1-.18 0H16z"></path></svg>