<svg height="24" viewBox="0 0 24 24" width="24" xmlns="http://www.w3.org/2000/svg" class="matericons matericons-asus-rog"><defs><clippath id="a"><rect width="48" height="48"></rect></clippath><symbol id="b" data-name="material_system_icon_keylines" viewbox="0 0 48 48"><g clip-path="url(#a)" opacity=".4"><line x1="24" x2="24" y2="48"></line><line x1="48" y1="24" y2="24"></line><line x1="48" y1="16" y2="16"></line><line x1="48" y1="32" y2="32"></line><line x1="32" y1="48" x2="32"></line><line x1="16" y1="48" x2="16"></line><line x1="47.75" y1=".25" x2=".25" y2="47.75"></line><line x1=".25" y1=".25" x2="47.75" y2="47.75"></line><path d="M24 14a10 10 0 1 0 10 10 10 10 0 0 0-10-10z"></path><path d="M24 4a20 20 0 1 0 20 20A20 20 0 0 0 24 4z"></path><path d="M38 6H10a4 4 0 0 0-4 4v28a4 4 0 0 0 4 4h28a4 4 0 0 0 4-4V10a4 4 0 0 0-4-4z"></path><path d="M40 8H8a4 4 0 0 0-4 4v24a4 4 0 0 0 4 4h32a4 4 0 0 0 4-4V12a4 4 0 0 0-4-4z"></path><path d="M40 40V8a4 4 0 0 0-4-4H12a4 4 0 0 0-4 4v32a4 4 0 0 0 4 4h24a4 4 0 0 0 4-4z"></path><path d="M47.75.25v47.5H.25V.25h47.5M48 0H0v48h48V0z"></path></g></symbol></defs><use width="48" height="48" transform="scale(.5)" xlink:href="#b"></use><path d="M14 7.61h-.07l-.07.06-.13.12c-.25.2-.57.52-.81.74s-.7.68-1 1c-.67.64-1.42 1.42-2.09 2s-1 1-1.59 1.49c-.22.2-.36.38-.66.39a3.38 3.38 0 0 1-1.48-.6 4.83 4.83 0 0 0-1.43-.63l.27.37c.19.3.52.95.68 1.27a9 9 0 0 0 2.2 3 5.68 5.68 0 0 0 .76.54l.41.23a3.57 3.57 0 0 0 .46.2c-.1-.1-.2-.22-.28-.31a17.94 17.94 0 0 1-1.38-1.64.74.74 0 0 1 0-.91 6.93 6.93 0 0 1 1.15-1.13c.9-.77 1.71-1.46 2.65-2.19.44-.35.9-.7 1.38-1s.95-.66 1.44-1l.74-.47.75-.45.66-.37.68-.35a25.38 25.38 0 0 1 2.84-1.26l.76-.26.78-.25h-1.08c-.64 0-1 0-1.65.07a16.58 16.58 0 0 0-1.76.23l-.24.05-.47.1c-.31.08-.59.17-.88.26s-.58.19-.85.3a3.21 3.21 0 0 0-.68.47zm6.25 1.55l.57-.29.58-.29a1.39 1.39 0 0 0 .6-1.17c-.07 0-.34.14-.41.16l-.14.06c-.34.14-.79.31-1.1.46l-.28.12a1 1 0 0 0-.26.13c-.11 0-2.16 1-2.41 1.14l-1.18.61s-1.11.59-1.15.65-.8.44-.92.51c-1.45.82-3.05 1.84-4.44 2.78-.38.27-.88.61-1.26.9l-.31.23s-.08.05-.1.09a8.25 8.25 0 0 0 1.27.57 20.9 20.9 0 0 0 3.67 1l.81.12.65.06-.53-.05h.74a8.69 8.69 0 0 0 .89 0 1.68 1.68 0 0 0 .85-.1 2.3 2.3 0 0 0 .59-.35 8.45 8.45 0 0 0 1.75-2 19.55 19.55 0 0 0 1.34-2.47c.2-.43.38-.88.56-1.34.09-.23.16-.45.24-.7a6.66 6.66 0 0 0 .22-.74c-.18 0-3.39 1.75-3.7 1.92l-1.21.67c-.39.21-.81.46-1.19.68-.79.44-1.59.93-2.38 1.38-.13.08-1.14.67-1.17.71s3.25-1.38 3.33-1.41 3.27-1.4 3.32-1.41a4.37 4.37 0 0 1-.26.54c-.08.18-.18.38-.27.56-.5 1-1 2.19-2.15 2.63h-.06l-.3.09-.31.07a5.79 5.79 0 0 1-1.81 0c-.6-.09-1-.2-1.61-.34-.14 0-1.14-.32-1.2-.36s.61-.42.66-.46c1.11-.77 3-1.91 4.17-2.6l.37-.21a4 4 0 0 0 .35-.2l.56-.31.57-.2c.38-.22.76-.4 1.14-.61 0 0 2.19-1.15 2.32-1.19zM5.75 15s-.41-.45-.48-.54c-.49-.54-1-1.05-1.45-1.62l-.93-1.11c-.12-.15-.79-1-.89-1.15 0 0 .15.71.18.8l.11.41a3.3 3.3 0 0 0 2.05 2.56c.16.08 1.32.64 1.41.65z" fill-rule="evenodd" data-name="Layer 9"></path></svg>