<svg height="24" viewBox="0 0 24 24" width="24" xmlns="http://www.w3.org/2000/svg" class="matericons matericons-at-t-1"><path d="M2 11a11.12 11.12 0 0 1 .25-1.38l-.08.2c0-.23.1-.46.16-.68a.09.09 0 0 1 0-.05.17.17 0 0 0 0 .07 1.35 1.35 0 0 0 0 .29 1.05 1.05 0 0 0 0 .3 3.61 3.61 0 0 0 1.74 1.92 1 1 0 0 1 .17.1 12.55 12.55 0 0 0 3 1.15 26.53 26.53 0 0 0 4.6.68h3.14a13.82 13.82 0 0 0 2.02-.25 9.54 9.54 0 0 0 1.5-.46 6.6 6.6 0 0 0 1.51-.83 4.47 4.47 0 0 0 .71-.63 3.88 3.88 0 0 0 .53-.72 2.8 2.8 0 0 0 .29-.68 1.8 1.8 0 0 0 .07-.41v-.38a2.39 2.39 0 0 0-.08-.45.43.43 0 0 1 0 .05v.09a2.17 2.17 0 0 1 .07.24c0 .09 0 .18.07.26 0 .11 0 .21.05.31a.59.59 0 0 0 0 .14v.34a2.44 2.44 0 0 1 0 .32 2.54 2.54 0 0 1-.15.59 3.19 3.19 0 0 1-.44.79 5.08 5.08 0 0 1-.56.63 6.45 6.45 0 0 1-1.2.89l-.09.05a13.62 13.62 0 0 1-2.85 1.2l-.19.06-.43.12-.33.09-.64.16a16.69 16.69 0 0 1-6.64.55h-.13l-.33-.06-.36-.08c-.45-.11-.92-.23-1.43-.39l-.26-.1c-.12 0-.22-.1-.33-.14L5 14.85h-.1a6.23 6.23 0 0 1-1.54-1.09 1.71 1.71 0 0 1-.18-.2l-.18-.2v-.06a4.48 4.48 0 0 1-.77-1.3 3 3 0 0 1-.12-.4A3.74 3.74 0 0 1 2 11zm3.28-4.46l.15.15.11.1a4.39 4.39 0 0 0 1.58.77l.25.06.42.09.23.06A12 12 0 0 0 10 8a16.8 16.8 0 0 0 3.64-.4l.36-.07c.58-.14 1.13-.28 1.6-.44l.83-.31c.23-.1.5-.19.7-.29A6.52 6.52 0 0 0 18 6l.16-.12a2.51 2.51 0 0 0 .52-.5l.06-.1a.87.87 0 0 0 .11-.18.88.88 0 0 0 .1-.3.89.89 0 0 0-.15-.35l-.06-.07a11.08 11.08 0 0 0-1-.8 2.64 2.64 0 0 0-.29-.15c-.11-.07-.2-.17-.31-.23a1.44 1.44 0 0 1 .35.28 1.05 1.05 0 0 1 .15.24.59.59 0 0 1 .09.24 1.14 1.14 0 0 1-.6.84 3.57 3.57 0 0 1-.48.28l-.26.11-.56.21-.32.1-.73.17-.31.06c-.37.07-.75.13-1.16.17s-.88.04-1.31.1a16.09 16.09 0 0 1-2.68-.2c-.4-.06-.78-.13-1.12-.21a4.1 4.1 0 0 1-1.89-.88 1.49 1.49 0 0 1-.12-.14.72.72 0 0 1-.13-.33c0-.33.22-.66.67-1a9.91 9.91 0 0 0-1 .71A2.33 2.33 0 0 0 5 5.1v.08a1.29 1.29 0 0 0-.06.33v.09a1.46 1.46 0 0 0 .34.94zM2.8 8.46a1.73 1.73 0 0 0 0 .32 2.29 2.29 0 0 0 .47 1 3.59 3.59 0 0 0 .32.35 4.87 4.87 0 0 0 1.13.83h.06a4.81 4.81 0 0 0 .51.25 10.29 10.29 0 0 0 2.94.79 14.2 14.2 0 0 0 1.64.12h.48c.49 0 1 0 1.52-.09l.59-.07a16.81 16.81 0 0 0 2.11-.43l.5-.15a21.06 21.06 0 0 0 2.31-.79h.08a12.21 12.21 0 0 0 1.31-.63h.11a8.12 8.12 0 0 0 .72-.46c.13-.1.22-.2.33-.3s.21-.17.3-.26a2.71 2.71 0 0 0 .24-.35 2 2 0 0 0 .2-.31 1.55 1.55 0 0 0 0-.23 1.76 1.76 0 0 0 .06-.46 1 1 0 0 0-.07-.45v-.08a1.33 1.33 0 0 0-.06-.12 1.66 1.66 0 0 0-.11-.24c-.11-.18-.23-.35-.35-.52s-.13-.19-.19-.28a1.36 1.36 0 0 1 .1.21 1.63 1.63 0 0 1 .11.23 1.69 1.69 0 0 1 .09.46 1.44 1.44 0 0 1-.06.4.18.18 0 0 1 0 .1 1.36 1.36 0 0 1-.14.34 2.79 2.79 0 0 1-.23.32 3.08 3.08 0 0 1-.45.42.7.7 0 0 1-.1.08 4.66 4.66 0 0 1-.84.46 8.9 8.9 0 0 1-1.76.52l-.35.07c-.41.07-.87.13-1.37.17a25.64 25.64 0 0 1-4.51-.16l-.66-.07h-.84a13.5 13.5 0 0 1-3-.71l-.19-.07A5.87 5.87 0 0 1 4 7.47l-.11-.1a1.07 1.07 0 0 1-.38-.7.69.69 0 0 1 .1-.36l-.08.13a10.63 10.63 0 0 0-.6 1 2.65 2.65 0 0 0-.16.82v.16zm18 8a4.72 4.72 0 0 1-.43.52l-.16.18a7 7 0 0 1-.68.63A9.89 9.89 0 0 1 17.65 19c-.22.11-.44.2-.67.29a13.34 13.34 0 0 1-9.18 0h-.14q-.72-.24-1.47-.54a7.24 7.24 0 0 1-1-.52c-.14-.08-.28-.18-.42-.28a6 6 0 0 1-1.83-1.85 11.27 11.27 0 0 0 .78 1.35v.07-.05a9.85 9.85 0 0 0 .85 1.08 2.69 2.69 0 0 0 .28.22s.16.1.23.15a6.89 6.89 0 0 0 .71.49l.2.13a9.11 9.11 0 0 0 2 .8h.15l.68.16.26.05a14.49 14.49 0 0 0 2.52.22 14 14 0 0 0 4.59-.72c.25-.09.49-.2.73-.3s.32-.12.46-.19h.1a9.08 9.08 0 0 0 2-1.3 7.72 7.72 0 0 0 .64-.65l.16-.18.31-.4.11-.15.24-.38a5 5 0 0 0 .25-.52 3.55 3.55 0 0 1-.38.51zm.59-2.46a5.1 5.1 0 0 1-1 1.11 6.76 6.76 0 0 1-1 .76 8.6 8.6 0 0 1-1.69.79l-.42.14a15.21 15.21 0 0 1-4.06.64 20.88 20.88 0 0 1-5.64-.84l-.24-.07a17.48 17.48 0 0 1-1.69-.58l-.39-.18c-.17-.07-.33-.16-.5-.25a7.43 7.43 0 0 1-1.82-1.35L2.75 14A3 3 0 0 1 2 12.5c0 .25 0 .49.07.73v-.1.31a6 6 0 0 0 .57 1.69.6.6 0 0 0 .06.11c.06.11.12.2.18.3s.12.22.2.32a6 6 0 0 0 1.24 1.28l.11.07a5.29 5.29 0 0 0 .5.32c.08 0 .15.11.23.15a9.6 9.6 0 0 0 1.52.64h.09l.34.09.32.09a13.9 13.9 0 0 0 4.33.29 22.57 22.57 0 0 0 5.4-1.19l.24-.11.56-.22a9.75 9.75 0 0 0 1.46-.81l.12-.09a2.85 2.85 0 0 0 .33-.25l.29-.22.27-.26a1.29 1.29 0 0 0 .17-.16 5.83 5.83 0 0 0 .79-1 4.3 4.3 0 0 0 .33-.71 3.75 3.75 0 0 0 .15-.62c0-.16 0-.32.05-.49a3.31 3.31 0 0 1-.26.81 5.72 5.72 0 0 1-.27.53z"></path></svg>