<svg height="24" viewBox="0 0 24 24" width="24" xmlns="http://www.w3.org/2000/svg" class="matericons matericons-at-t"><path d="M2 11.55a4.25 4.25 0 0 1 .12-.62.36.36 0 0 0 0 .09c0-.11 0-.21.07-.31a.57.57 0 0 0 0 .13.33.33 0 0 0 0 .14 1.63 1.63 0 0 0 .78.86h.08a5.12 5.12 0 0 0 1.34.52 11.44 11.44 0 0 0 2.06.31h1.37c.35 0 .66-.09.94-.15a4.82 4.82 0 0 0 .67-.21 2.73 2.73 0 0 0 1-.65 2.69 2.69 0 0 0 .24-.33 2.27 2.27 0 0 0 .13-.3.92.92 0 0 0 0-.18v-.1a.43.43 0 0 1 0-.05.54.54 0 0 0 0-.2v.5a.86.86 0 0 1 0 .15 1 1 0 0 1 0 .14 1.08 1.08 0 0 1-.07.27 2.23 2.23 0 0 1-.2.36 2.15 2.15 0 0 1-.25.29 3.15 3.15 0 0 1-.54.4 5.65 5.65 0 0 1-1.28.54h-.43l-.29.07a7.5 7.5 0 0 1-3 .25h-.32a6.28 6.28 0 0 1-.65-.17l-.11-.05-.14-.06-.18-.08a2.89 2.89 0 0 1-.7-.49l-.08-.09a.46.46 0 0 1-.07-.07A1.84 1.84 0 0 1 2.1 12a1.21 1.21 0 0 1-.05-.18 1.6 1.6 0 0 1-.05-.27zm1.47-2l.07.07v.05a2 2 0 0 0 .71.34h.41a5.47 5.47 0 0 0 .87.07A7.91 7.91 0 0 0 7.25 10h.11c.26-.06.51-.13.72-.2l.38-.13.32-.12a2.81 2.81 0 0 0 .4-.24h.08A1 1 0 0 0 9.47 9a.56.56 0 0 1 .05-.08.65.65 0 0 0 0-.13.32.32 0 0 0-.06-.16A5.37 5.37 0 0 0 9 8.21l-.13-.07-.1-.14a.53.53 0 0 1 .16.13.36.36 0 0 1 .07.1v.11a.52.52 0 0 1-.27.38l-.22.12H8.4L8.18 9 8 9.07l-.33.08h-.14l-.52.07h-.56a7.53 7.53 0 0 1-1.2-.07l-.5-.1a1.82 1.82 0 0 1-.85-.39l-.06-.07a.42.42 0 0 1-.06-.14c0-.15.1-.3.3-.43a4.48 4.48 0 0 0-.44.32 1 1 0 0 0-.35.49.5.5 0 0 0 0 .14.69.69 0 0 0 .18.58zm-1.11.86a.61.61 0 0 0 0 .14 1.12 1.12 0 0 0 .24.45 1.07 1.07 0 0 0 .14.16 2.26 2.26 0 0 0 .5.38l.23.11A4.43 4.43 0 0 0 4.8 12a5.87 5.87 0 0 0 .74.05h1.17c.3-.05.62-.11.94-.19l.22-.06c.33-.1.69-.22 1-.36H9a5.39 5.39 0 0 0 .59-.29h.05a3 3 0 0 0 .32-.21c.06 0 .1-.09.15-.13l.13-.12a1.43 1.43 0 0 0 .11-.15 1.1 1.1 0 0 0 .09-.14.29.29 0 0 0 0-.1.76.76 0 0 0 0-.21.45.45 0 0 0 0-.2v-.06a.93.93 0 0 1-.05-.1 1.88 1.88 0 0 0-.16-.23l-.08-.13a.3.3 0 0 1 0 .1.31.31 0 0 1 .05.1.56.56 0 0 1 0 .21.62.62 0 0 1 0 .18.47.47 0 0 1-.06.15.76.76 0 0 1-.11.14 1.26 1.26 0 0 1-.2.2 1.91 1.91 0 0 1-.38.21 3.77 3.77 0 0 1-.79.23H8.5l-.61.08a12.17 12.17 0 0 1-2-.07h-.78a6.54 6.54 0 0 1-1.35-.32h-.08a2.57 2.57 0 0 1-.77-.58l-.05-.05a.46.46 0 0 1-.17-.31.31.31 0 0 1 0-.17v.06a4.39 4.39 0 0 0-.27.47 1 1 0 0 0-.08.37v.08zM10.45 14l-.19.23-.08.08c-.09.09-.19.19-.3.28a4.58 4.58 0 0 1-.85.53l-.3.13a6 6 0 0 1-4.13 0h-.06L3.88 15a4.73 4.73 0 0 1-.45-.23l-.19-.13a2.76 2.76 0 0 1-.82-.83 3.56 3.56 0 0 0 .34.6 4.57 4.57 0 0 0 .38.49l.12.1.1.07.32.22.09.06a4.57 4.57 0 0 0 .9.36h.07l.31.07h.11A6.55 6.55 0 0 0 6.3 16a6.23 6.23 0 0 0 2.06-.32 2.26 2.26 0 0 0 .33-.13 1.21 1.21 0 0 0 .2-.09h.05a4.28 4.28 0 0 0 .89-.58 2.64 2.64 0 0 0 .29-.29l.07-.08.14-.18v-.07a.94.94 0 0 0 .11-.17 1.63 1.63 0 0 0 .11-.23 1.62 1.62 0 0 1-.1.14zm6.64-3.4h-.76v-.68a.08.08 0 0 0-.08-.08h-.37a.09.09 0 0 0-.08.09v.62h-.5a.08.08 0 0 0-.09.08V11a.09.09 0 0 0 0 .06h.51v1.5a1.05 1.05 0 0 0 1.14 1.1H17a.07.07 0 0 0 .08-.08v-.3a.08.08 0 0 0-.08-.08q-.69 0-.69-.72v-1.34h.76a.09.09 0 0 0 .09-.09v-.35a.08.08 0 0 0-.07-.08zm3.06 2.88a.09.09 0 0 1 0 .06.09.09 0 0 1-.09.09h-.4a.06.06 0 0 1-.06 0l-.31-.31h-.06a1.07 1.07 0 0 1-.85.42.91.91 0 0 1-1-.9A1 1 0 0 1 18 12a1 1 0 0 1-.26-.61.75.75 0 0 1 .8-.75.71.71 0 0 1 .78.72.88.88 0 0 1-.54.74l.45.45h.06l.27-.47a.1.1 0 0 1 .08 0h.32a.09.09 0 0 1 .08.09l-.44.73v.06zm-1.94-2.19a.67.67 0 0 0 .19.36h.05c.21-.12.37-.23.37-.41a.28.28 0 0 0-.29-.3.32.32 0 0 0-.32.37zM19 13l-.59-.63h-.06c-.29.17-.38.3-.38.53a.48.48 0 0 0 .49.46A.69.69 0 0 0 19 13zm2.95-2.33h-.8v-.75s0-.08-.08-.08h-.36a.09.09 0 0 0-.09.09v.62h-.45a.08.08 0 0 0-.09.08V11a.09.09 0 0 0 0 .06h.51v1.5a1.05 1.05 0 0 0 1.14 1.1h.11a.08.08 0 0 0 .09-.08v-.3a.09.09 0 0 0-.09-.08.63.63 0 0 1-.69-.72v-1.34h.76A.09.09 0 0 0 22 11v-.3a.08.08 0 0 0-.09-.08zM15 13.52a.35.35 0 0 1 0 .06.09.09 0 0 1-.08.08h-.39v-.32a1.27 1.27 0 0 1-1 .39.9.9 0 0 1-1-.89c0-1 1.26-1.17 1.76-1.15h.1s0-.57-.62-.57a1.2 1.2 0 0 0-.64.19.09.09 0 0 1-.12 0l-.19-.31a.07.07 0 0 1 0-.06.07.07 0 0 1 0-.06 1.93 1.93 0 0 1 1-.27A1 1 0 0 1 15 11.68v1.63a.68.68 0 0 0 0 .21zm-.55-1.34a.1.1 0 0 0-.08 0h-.1c-.83 0-1.28.29-1.26.67s.32.49.64.44a.93.93 0 0 0 .8-.89.45.45 0 0 0-.01-.22zm-3.73.71a2.76 2.76 0 0 1-.44.5 3.66 3.66 0 0 1-.46.33 3.59 3.59 0 0 1-.76.36l-.19.06a6.42 6.42 0 0 1-1.87.29 9.3 9.3 0 0 1-2.53-.38L4.4 14c-.28-.08-.53-.17-.76-.26l-.17-.08-.23-.11a3.43 3.43 0 0 1-.82-.55l-.08-.08a1.37 1.37 0 0 1-.34-.69v.46a3 3 0 0 0 .25.76v.05l.08.13.09.15a2.34 2.34 0 0 0 .56.57 1.64 1.64 0 0 0 .22.14l.1.07a3.44 3.44 0 0 0 .69.28h.29a6.5 6.5 0 0 0 2 .14 10.32 10.32 0 0 0 2.42-.54h.12l.24-.1a4.45 4.45 0 0 0 .79-.34h.05a.58.58 0 0 0 .15-.11l.13-.1.13-.12.07-.07a2.65 2.65 0 0 0 .36-.46 1.5 1.5 0 0 0 .15-.32 1.86 1.86 0 0 0 .07-.28 1.5 1.5 0 0 0 0-.22 1.16 1.16 0 0 1-.12.36 1.55 1.55 0 0 1-.13.21z"></path></svg>