<svg height="24" width="24" viewBox="0 0 24 24" xmlns="http://www.w3.org/2000/svg" aria-hidden="true" class="matericons matericons-bank-bri"><path d="M19.1 2H4.9A2.9 2.9 0 0 0 2 4.9v14.2A2.9 2.9 0 0 0 4.9 22h14.2a2.9 2.9 0 0 0 2.9-2.9V4.9A2.9 2.9 0 0 0 19.1 2zM6.9 20H5.5A1.4 1.4 0 0 1 4 18.5v-13A1.4 1.4 0 0 1 5.5 4h1.7c2.3 0 4 2.3 2.6 3.8L5.5 12l3.7 3.9c1.7 1.8-.3 4.1-2.3 4.1zm3.4 0c1.8 0 2.9-3 1-4.9L8.4 12l3.4-3.4A2.8 2.8 0 0 0 11 4h1.5c2.3 0 4 2.3 2.5 3.8L10.8 12l7.8 8zm3.4-8l3.4-3.4a2.8 2.8 0 0 0-.8-4.6h2.2A1.4 1.4 0 0 1 20 5.5v13z"></path></svg>