<svg height="24" width="24" viewBox="0 0 24 24" xmlns="http://www.w3.org/2000/svg" aria-hidden="true" class="matericons matericons-bank-jenius"><path d="M13.2 4a9.1 9.1 0 0 0-6.6 2.8C4 8 2 10.5 2 13.2c0 4.3 3.8 6.8 8.3 6.8a7.1 7.1 0 0 0 2.1-.3h1.5a7.9 7.9 0 0 0 8.1-7.6C22 7.6 18.3 4 13.2 4zm-3.1 3.2a4 4 0 0 1 3.8 3.9c0 2.5-1.5 4.1-3.7 4.1A3.9 3.9 0 0 1 6.5 11a3.7 3.7 0 0 1 3.6-3.8zm-.3 12.1a6.5 6.5 0 0 1-6.1-6.2 5.6 5.6 0 0 1 2-4.5 3.2 3.2 0 0 0-.5 1.8 1.9 1.9 0 0 0-.1.8 8.3 8.3 0 0 0 5.4 8zm2.2-.4a7.7 7.7 0 0 1-5.4-4.5 5.1 5.1 0 0 0 3.7 1.4 4.7 4.7 0 0 0 5-4.6 5.1 5.1 0 0 0-.5-2.3 6.2 6.2 0 0 1 1.7 4.3 6.4 6.4 0 0 1-4.5 5.7zm2.5 0a6.4 6.4 0 0 0 3.3-5.3c0-4.9-4.9-6.6-4.9-6.6a6.6 6.6 0 0 0-3.2-.8h-.4a8.1 8.1 0 0 1 4.5-1.5 7 7 0 0 1 6.7 6.8 7.6 7.6 0 0 1-6 7.4z"></path></svg>