<svg height="24" width="24" viewBox="0 0 24 24" xmlns="http://www.w3.org/2000/svg" aria-hidden="true" class="matericons matericons-behance"><path d="M17.7 18.3a4.1 4.1 0 0 1-1.9-.4 3.8 3.8 0 0 1-1.5-.9 6 6 0 0 1-.9-1.5 6.2 6.2 0 0 1 0-3.8 6.5 6.5 0 0 1 1-1.5 7.1 7.1 0 0 1 1.4-1 5.8 5.8 0 0 1 1.9-.3 4.1 4.1 0 0 1 1.9.4 3.3 3.3 0 0 1 1.4 1.2 3.8 3.8 0 0 1 .8 1.7 6.5 6.5 0 0 1 .2 2h-6.4a1.9 1.9 0 0 0 .6 1.7 1.7 1.7 0 0 0 1.5.5 2.8 2.8 0 0 0 1.3-.3 1.8 1.8 0 0 0 .7-.8h2.1a4.1 4.1 0 0 1-1.6 2.3 4.3 4.3 0 0 1-2.5.7zm-.1-7.6l-1 .2-.6.5c-.1.2-.3.4-.3.6a1.3 1.3 0 0 0-.1.6h3.9a2.4 2.4 0 0 0-.5-1.4 2.4 2.4 0 0 0-1.4-.5zM8 18H2V5.7h5.8l1.6.2a2.6 2.6 0 0 1 1.2.5 1.7 1.7 0 0 1 .8.9 4 4 0 0 1 .3 1.5 2.6 2.6 0 0 1-.4 1.5 2.3 2.3 0 0 1-1.2 1 3.1 3.1 0 0 1 1.6 1.2 3.6 3.6 0 0 1 .6 2 3.2 3.2 0 0 1-.4 1.6 3.1 3.1 0 0 1-.9 1.1 4.2 4.2 0 0 1-1.4.6A4.7 4.7 0 0 1 8 18zm-3.3-5.4v3.3h3.7l.6-.3a1 1 0 0 0 .4-.5 1.1 1.1 0 0 0 .2-.8 1.9 1.9 0 0 0-.5-1.3 2 2 0 0 0-1.5-.4zm0-4.8v2.9h2.7a2.1 2.1 0 0 0 1.2-.3 1.3 1.3 0 0 0 .5-1.2 2 2 0 0 0-.1-.7l-.5-.4-.6-.2H4.7zm15.3 0h-4.9V6.6H20z"></path></svg>