<svg height="24" viewBox="0 0 24 24" width="24" xmlns="http://www.w3.org/2000/svg" class="matericons matericons-blackberry-1"><path d="M11.74 12.44h-.52v-.5h.53V12h.47v-.27h-.69v.81h.65v-.16zm-3.55.13v-1.76h-.05l-.36 1.66v.47h.67v-.36h-.3zm6.16-1.29h-.6L13 12l.26-1.21h-.46l-.5 2.29h.44l.12-.56.27-.21.37.77h.5l-.52-1 .89-.75zm-7.1.12v-.12h-.73l-.1.46h.81zm-.15.92v-.08h-.77l-.12.55H7zm-1.29 0v-1.53h1.2v1.05h-.88v-.37zm9.79-.95v-.12h-.67l-.1.46h.81zm-.15.92v-.08h-.76l-.12.55h.74zm-1.3 0v-1.53h1.2v1.08h-.92v-.43zm4.92-1.07h-.35v1.12h.43v-.78.64-.32h.4v-.36h-.21zm1.48 2.46l1.45-2.4h-.47l-.67 1.16-.15-1.16h-.88v1.08L19 13v.06h.43V11.9h.33l.09-.42v1.55V13l-.45.78zM9.28 11.84h.5H9v.46h.65v.17h.45v-1.49h-.75v.05zm.17.46h.41v.21h-.75v-.06h.25zm7.63-.63h.31-.83v.23h.26zm.26.86h-.48v-.11h1.04v-.56h-.67v.59h.65-.48zm-14.27-2v-.12h-.79l-.12.57H3v-.48zm1.17 0v-.08h-.78l-.13.57h.82v-.52zm-1.33.87v-.09h-.79l-.12.38h.83v-.06zm1.18 0v-.09H3.3l-.13.57H4v-.06zm1.22-.4v-.09h-.78l-.13.57h.83V11zm-.17.9v-.13h-.78l-.13.57h.82zm-1.22.35v-.13h-.79l-.13.47h.81z"></path></svg>