<svg height="24" viewBox="0 0 24 24" width="24" xmlns="http://www.w3.org/2000/svg" class="matericons matericons-brightness-high"><path d="M12 15.8a3.8 3.8 0 1 1 3.8-3.8 3.8 3.8 0 0 1-3.8 3.8zm0 1.2a5 5 0 1 0-5-5 5 5 0 0 0 5 5zm0-15a.6.6 0 0 1 .6.6v2.5a.7.7 0 0 1-.6.7.7.7 0 0 1-.6-.7V2.6A.6.6 0 0 1 12 2zm0 16.2a.7.7 0 0 1 .6.7v2.5a.6.6 0 0 1-1.2 0v-2.5a.7.7 0 0 1 .6-.7zM22 12a.6.6 0 0 1-.6.6h-2.5a.7.7 0 0 1-.7-.6.7.7 0 0 1 .7-.6h2.5a.6.6 0 0 1 .6.6zM5.8 12a.7.7 0 0 1-.7.6H2.6a.6.6 0 0 1 0-1.2h2.5a.7.7 0 0 1 .7.6zm13.3-7.1a.7.7 0 0 1 0 .9l-1.8 1.8a.7.7 0 0 1-.9 0 .7.7 0 0 1 0-.9l1.8-1.8a.7.7 0 0 1 .9 0zM7.6 16.4a.7.7 0 0 1 0 .9l-1.8 1.8a.7.7 0 0 1-.9 0 .7.7 0 0 1 0-.9l1.8-1.8a.7.7 0 0 1 .9 0zm11.5 2.7a.7.7 0 0 1-.9 0l-1.8-1.8a.6.6 0 0 1 .9-.9l1.8 1.8a.7.7 0 0 1 0 .9zM7.6 7.6a.7.7 0 0 1-.9 0L4.9 5.8a.7.7 0 0 1 0-.9.7.7 0 0 1 .9 0l1.8 1.8a.7.7 0 0 1 0 .9z"></path></svg>