<svg height="24" viewBox="0 0 24 24" width="24" xmlns="http://www.w3.org/2000/svg" class="matericons matericons-chat-dots"><path d="M20.5 2.8h-17A1.6 1.6 0 0 0 2 4.4v15.2a1.4 1.4 0 0 0 .9 1.4l.6.2a1.5 1.5 0 0 0 1-.4l3.1-2.6h12.9a1.5 1.5 0 0 0 1.5-1.5V4.4a1.6 1.6 0 0 0-1.5-1.6zm0 13.9H7.6a1.9 1.9 0 0 0-1 .3l-3.1 2.6V4.4h17zm-9.7-6.2a1.2 1.2 0 0 1 2.4 0 1.2 1.2 0 0 1-2.4 0zm-4.6 0a1.1 1.1 0 0 1 1.2-1.1 1.1 1.1 0 0 1 1.1 1.1 1.1 1.1 0 0 1-1.1 1.2 1.2 1.2 0 0 1-1.2-1.2zm9.3 0a1.1 1.1 0 0 1 1.1-1.1 1.1 1.1 0 0 1 1.2 1.1 1.2 1.2 0 0 1-1.2 1.2 1.1 1.1 0 0 1-1.1-1.2z"></path></svg>