<svg height="24" viewBox="0 0 24 24" width="24" xmlns="http://www.w3.org/2000/svg" class="matericons matericons-chat-square-text"><path d="M19.5 3.7a1.2 1.2 0 0 1 1.3 1.2v10a1.3 1.3 0 0 1-1.3 1.3h-3.1a2.2 2.2 0 0 0-2 1L12 20.3l-2.4-3.1a2.2 2.2 0 0 0-2-1H4.5a1.3 1.3 0 0 1-1.3-1.3v-10a1.2 1.2 0 0 1 1.3-1.2zm-15-1.3A2.5 2.5 0 0 0 2 4.9v10a2.5 2.5 0 0 0 2.5 2.5h3.1a1.2 1.2 0 0 1 1 .5l2.4 3.2a1.4 1.4 0 0 0 1.8.2l.2-.2 2.4-3.2a1.2 1.2 0 0 1 1-.5h3.1a2.5 2.5 0 0 0 2.5-2.5v-10a2.5 2.5 0 0 0-2.5-2.5zm1.3 4.4a.5.5 0 0 1 .6-.6h11.2a.5.5 0 0 1 .6.6.6.6 0 0 1-.6.6H6.4a.6.6 0 0 1-.6-.6zm0 3.1a.6.6 0 0 1 .6-.6h11.2a.6.6 0 0 1 .6.6.5.5 0 0 1-.6.6H6.4a.5.5 0 0 1-.6-.6zm0 3.1a.6.6 0 0 1 .6-.6h6.2a.6.6 0 0 1 .6.6c0 .4-.2.7-.6.7H6.4c-.4 0-.6-.3-.6-.7z"></path></svg>