<svg height="24" viewBox="0 0 24 24" width="24" xmlns="http://www.w3.org/2000/svg" class="matericons matericons-check-one"><path d="M19.4 4.6A10.4 10.4 0 0 0 12 1.5a10.2 10.2 0 0 0-7.4 3.1A10.2 10.2 0 0 0 1.5 12a10.2 10.2 0 0 0 3.1 7.4 10.2 10.2 0 0 0 7.4 3.1 10.4 10.4 0 0 0 7.4-3.1 10.2 10.2 0 0 0 3.1-7.4 10.2 10.2 0 0 0-3.1-7.4zm-1.3 13.5a8.6 8.6 0 0 1-6.1 2.5 8.6 8.6 0 1 1 0-17.2 8.6 8.6 0 0 1 6.1 14.7zm-.7-9.6a.9.9 0 0 1 0 1.3l-5.7 5.7a.9.9 0 0 1-.7.3l-.6-.3-2.9-2.8a1 1 0 0 1 0-1.4 1.2 1.2 0 0 1 1.4 0l2.1 2.2 5.1-5a.9.9 0 0 1 1.3 0z"></path></svg>