<svg height="24" width="24" viewBox="0 0 24 24" xmlns="http://www.w3.org/2000/svg" aria-hidden="true" class="matericons matericons-codepen"><path d="M8.2 12l-1.3.9v-1.8l1.3.9m3.3-2.2V7.3l-4.2 2.8 1.9 1.3 2.3-1.6m5.2.3l-4.2-2.8v2.5l2.3 1.6 1.9-1.3m-9.4 3.8l4.2 2.8v-2.5l-2.3-1.6-1.9 1.3m5.2.3v2.5l4.2-2.8-1.9-1.3-2.3 1.6m-.5-3.5L10.1 12l1.9 1.3 1.9-1.3-1.9-1.3M22 12A10 10 0 1 1 12 2a10 10 0 0 1 10 10m-3.8-1.9H18l-5.7-4.2a.6.6 0 0 0-.6 0L6.1 9.7h-.3v3.8h.3l5.6 3.8h.6l5.7-3h.2v-4.2m-1.1 2.8v-1.8l-1.3.9z"></path></svg>