<svg height="24" width="24" viewBox="0 0 24 24" xmlns="http://www.w3.org/2000/svg" aria-hidden="true" class="matericons matericons-dell-2"><path d="M10.57 8.88c.42.28.85.55 1.25.85l-2.68 1.72c.14.11.29.19.43.3l2.7-1.75c.41.25.8.5 1.18.78-.91.57-1.78 1.17-2.67 1.75.13.11.3.18.44.28.92-.57 1.82-1.15 2.73-1.73V9.22h2V13h1.77v1.77H14V13c-1.11.68-2.24 1.44-3.36 2.15-1.16-.76-2.27-1.55-3.43-2.31a2.65 2.65 0 0 1-2.46 2c-.82.06-1.75 0-2.7 0V9.22a17 17 0 0 1 3.42.13 2.66 2.66 0 0 1 1.7 1.74c1.16-.72 2.3-1.47 3.45-2.21zM3.91 11v2A1.73 1.73 0 0 0 5 12.81a1.15 1.15 0 0 0 .14-1.54A1.41 1.41 0 0 0 3.92 11h-.01zm14.33-1.78h2V13H22v1.77h-3.77V9.26z"></path></svg>