<svg height="24" width="24" viewBox="0 0 24 24" xmlns="http://www.w3.org/2000/svg" aria-hidden="true" class="matericons matericons-dell-1"><path d="M11.69 2h.62A10 10 0 0 1 22 11.7v.6a10 10 0 0 1-9.7 9.7h-.61A10 10 0 0 1 2 12.3v-.6a9.84 9.84 0 0 1 2.93-6.76A10 10 0 0 1 11.69 2zm-2 1.43a8.9 8.9 0 0 0-5.14 3.7 8.62 8.62 0 0 0-1.44 5.17 8.78 8.78 0 0 0 5.44 7.82 8.58 8.58 0 0 0 3.73.67 8.83 8.83 0 0 0 3.59-.79 8.71 8.71 0 0 0 4.3-4.54 8.5 8.5 0 0 0 .68-3.72A8.6 8.6 0 0 0 18.1 5.6a8.65 8.65 0 0 0-2.67-1.75 8.82 8.82 0 0 0-3.75-.67 9.07 9.07 0 0 0-1.95.28zm1.35 6c.32.21.64.41.94.64-.68.42-1.34.86-2 1.29.1.08.22.14.32.22l2-1.29c.3.19.6.38.88.59-.68.43-1.33.88-2 1.31a3.7 3.7 0 0 0 .33.21c.69-.42 1.37-.87 2-1.3V9.66h1.5v2.83h1.33v1.33h-2.72v-1.34c-.83.51-1.68 1.08-2.52 1.61-.87-.57-1.71-1.16-2.58-1.73a2 2 0 0 1-1.84 1.47h-2V9.66a13.18 13.18 0 0 1 2.57.1 2 2 0 0 1 1.27 1.31l2.59-1.66zM6.08 11v1.5a1.34 1.34 0 0 0 .84-.14A.87.87 0 0 0 7 11.2a1.08 1.08 0 0 0-.91-.2h-.01zm10.76-1.34h1.5v2.84h1.32v1.33h-2.83V9.69z"></path></svg>