<svg height="24" width="24" viewBox="0 0 24 24" xmlns="http://www.w3.org/2000/svg" aria-hidden="true" class="matericons matericons-dots-nine"><path d="M6.4 5.2a1.2 1.2 0 0 1-1.2 1.2A1.2 1.2 0 0 1 4 5.2 1.2 1.2 0 0 1 5.2 4a1.2 1.2 0 0 1 1.2 1.2zM12 4a1.2 1.2 0 0 0-1.2 1.2 1.2 1.2 0 0 0 2.4 0A1.2 1.2 0 0 0 12 4zm6.8 2.4A1.2 1.2 0 0 0 20 5.2a1.2 1.2 0 1 0-2.4 0 1.2 1.2 0 0 0 1.2 1.2zM5.2 17.6a1.2 1.2 0 1 0 0 2.4 1.2 1.2 0 1 0 0-2.4zm6.8 0a1.2 1.2 0 1 0 1.2 1.2 1.2 1.2 0 0 0-1.2-1.2zm6.8 0a1.2 1.2 0 1 0 1.2 1.2 1.2 1.2 0 0 0-1.2-1.2zM5.2 10.8a1.2 1.2 0 0 0 0 2.4 1.2 1.2 0 1 0 0-2.4zm6.8 0a1.2 1.2 0 1 0 1.2 1.2 1.2 1.2 0 0 0-1.2-1.2zm6.8 0A1.2 1.2 0 1 0 20 12a1.2 1.2 0 0 0-1.2-1.2z"></path></svg>