<svg height="24" viewBox="0 0 24 24" width="24" xmlns="http://www.w3.org/2000/svg" class="matericons matericons-envelope-plus"><path d="M4.5 3.2A2.6 2.6 0 0 0 2 5.8v10a2.4 2.4 0 0 0 2.5 2.4h6.9a.6.6 0 0 0 .6-.6.6.6 0 0 0-.6-.6H4.5a1.2 1.2 0 0 1-1.2-.9l7-4.4 1.7 1 8.8-5.2v3.9a.6.6 0 0 0 .6.6.6.6 0 0 0 .6-.6V5.8a2.6 2.6 0 0 0-2.5-2.6zM9.1 11l-5.9 3.6V7.5zM3.2 6v-.2a1.3 1.3 0 0 1 1.3-1.3h15a1.3 1.3 0 0 1 1.3 1.3V6L12 11.3zM22 16.4a4.4 4.4 0 1 1-4.4-4.4 4.4 4.4 0 0 1 4.4 4.4zm-4.4-2.5a.6.6 0 0 0-.6.6v1.3h-1.2c-.4 0-.7.2-.7.6a.7.7 0 0 0 .7.6H17v1.2a.7.7 0 0 0 .6.7c.4 0 .6-.3.6-.7V17h1.3a.6.6 0 0 0 .6-.6.6.6 0 0 0-.6-.6h-1.3v-1.3a.6.6 0 0 0-.6-.6z"></path></svg>