<svg height="24" viewBox="0 0 24 24" width="24" xmlns="http://www.w3.org/2000/svg" class="matericons matericons-eye-slash"><path d="M5.2 3.4a.7.7 0 0 0-1 0 .8.8 0 0 0-.1 1l1.8 2a12.7 12.7 0 0 0-4.8 5.3.6.6 0 0 0 0 .6 11.5 11.5 0 0 0 2.5 3.5 11.6 11.6 0 0 0 8.4 3.5 11.5 11.5 0 0 0 4.8-1l2 2.3.5.2.5-.2a.7.7 0 0 0 .1-1zm4.3 7l3.9 4.2a3.5 3.5 0 0 1-1.4.3A2.9 2.9 0 0 1 9.1 12a2.9 2.9 0 0 1 .4-1.6zm2.5 7.5a10.1 10.1 0 0 1-7.3-3.1A9.4 9.4 0 0 1 2.6 12a11.3 11.3 0 0 1 4.3-4.5l1.6 1.8a4.5 4.5 0 0 0 .8 6.2 4.5 4.5 0 0 0 5.1.2l1.3 1.5a11.6 11.6 0 0 1-3.7.7zm10.9-5.6a11.8 11.8 0 0 1-3 4l-.5.2a.9.9 0 0 1-.6-.3.8.8 0 0 1 .1-1 11.1 11.1 0 0 0 2.5-3.2 9.4 9.4 0 0 0-2.1-2.8A10.1 10.1 0 0 0 12 6.1l-1.8.2c-.4 0-.8-.2-.8-.6a.8.8 0 0 1 .6-.9h2a11.6 11.6 0 0 1 8.4 3.5 11.5 11.5 0 0 1 2.5 3.5.6.6 0 0 1 0 .5zM12.6 9.1c-.4-.1-.7-.4-.6-.8a.6.6 0 0 1 .8-.6 4.4 4.4 0 0 1 3.6 3.9.8.8 0 0 1-.7.8h-.1a.8.8 0 0 1-.7-.7 3 3 0 0 0-2.3-2.6z"></path></svg>