<svg height="24" viewBox="0 0 24 24" width="24" xmlns="http://www.w3.org/2000/svg" class="matericons matericons-eye-slash"><path d="M19.6 16.6a19.8 19.8 0 0 0 3.7-4.6S19.1 4.2 12 4.2A11 11 0 0 0 8 5l1.1 1.1a9.8 9.8 0 0 1 2.9-.5 10.6 10.6 0 0 1 7.3 3.5 21.7 21.7 0 0 1 2.4 2.9l-.3.4a19.9 19.9 0 0 1-2.1 2.5l-.7.7zm-2.9-2.9a5.1 5.1 0 0 0-3-6.4 5 5 0 0 0-3.4 0l1.2 1.2a3.6 3.6 0 0 1 4 3 1.7 1.7 0 0 1 0 1zm-4.2 1.8l1.2 1.2a5.1 5.1 0 0 1-6.4-3 5 5 0 0 1 0-3.4l1.2 1.2a3.6 3.6 0 0 0 3 4zM5.4 8.4l-.7.7A21.7 21.7 0 0 0 2.3 12l.3.4a19.9 19.9 0 0 0 2.1 2.5 10.6 10.6 0 0 0 7.3 3.5 9.3 9.3 0 0 0 2.9-.5L16 19a11 11 0 0 1-4 .8C4.9 19.8.7 12 .7 12a19.8 19.8 0 0 1 3.7-4.6l1 1zM20 21L3 4l1-1 17 17z"></path></svg>