<svg height="24" width="24" viewBox="0 0 24 24" xmlns="http://www.w3.org/2000/svg" aria-hidden="true" class="matericons matericons-file-text"><path d="M20.2 7.6l-5.3-5.4-.6-.2H5.1a1.6 1.6 0 0 0-1.6 1.5v17A1.6 1.6 0 0 0 5.1 22h13.8a1.6 1.6 0 0 0 1.6-1.5V8.2a.7.7 0 0 0-.3-.6zm-5.1-3l2.7 2.8h-2.7zm3.8 15.9H5.1v-17h8.4v4.7a.8.8 0 0 0 .8.7h4.6zm-3.1-7.7a.7.7 0 0 1-.7.7H8.9a.7.7 0 0 1-.7-.7.7.7 0 0 1 .7-.8h6.2a.7.7 0 0 1 .7.8zm0 3a.7.7 0 0 1-.7.8H8.9a.7.7 0 0 1-.7-.8.7.7 0 0 1 .7-.7h6.2a.7.7 0 0 1 .7.7z"></path></svg>