<svg height="24" viewBox="0 0 24 24" width="24" xmlns="http://www.w3.org/2000/svg" class="matericons matericons-grid-3x3-gap"><path d="M7.4 5.1v2.3H5.1V5.1zm1.2 13.8v-2.3a1.2 1.2 0 0 0-1.2-1.2H5.1A1.1 1.1 0 0 0 4 16.6v2.3A1.1 1.1 0 0 0 5.1 20h2.3a1.1 1.1 0 0 0 1.2-1.1zm0-5.8v-2.2a1.2 1.2 0 0 0-1.2-1.2H5.1A1.1 1.1 0 0 0 4 10.9v2.2a1.1 1.1 0 0 0 1.1 1.2h2.3a1.2 1.2 0 0 0 1.2-1.2zm0-5.7V5.1A1.1 1.1 0 0 0 7.4 4H5.1A1.1 1.1 0 0 0 4 5.1v2.3a1.1 1.1 0 0 0 1.1 1.2h2.3a1.2 1.2 0 0 0 1.2-1.2zm5.7 11.5v-2.3a1.2 1.2 0 0 0-1.2-1.2h-2.2a1.2 1.2 0 0 0-1.2 1.2v2.3a1.1 1.1 0 0 0 1.2 1.1h2.2a1.1 1.1 0 0 0 1.2-1.1zm0-5.8v-2.2a1.2 1.2 0 0 0-1.2-1.2h-2.2a1.2 1.2 0 0 0-1.2 1.2v2.2a1.2 1.2 0 0 0 1.2 1.2h2.2a1.2 1.2 0 0 0 1.2-1.2zm0-5.7V5.1A1.1 1.1 0 0 0 13.1 4h-2.2a1.1 1.1 0 0 0-1.2 1.1v2.3a1.2 1.2 0 0 0 1.2 1.2h2.2a1.2 1.2 0 0 0 1.2-1.2zm-1.2-2.3v2.3h-2.2V5.1zm5.8 0v2.3h-2.3V5.1zM7.4 10.9v2.2H5.1v-2.2zm5.7 0v2.2h-2.2v-2.2zm5.8 0h-2.3v2.2h2.3zM7.4 16.6v2.3H5.1v-2.3zm5.7 0v2.3h-2.2v-2.3zm5.8 0v2.3h-2.3v-2.3zM16.6 4a1.1 1.1 0 0 0-1.2 1.1v2.3a1.2 1.2 0 0 0 1.2 1.2h2.3A1.1 1.1 0 0 0 20 7.4V5.1A1.1 1.1 0 0 0 18.9 4zm-1.2 6.9a1.2 1.2 0 0 1 1.2-1.2h2.3a1.1 1.1 0 0 1 1.1 1.2v2.2a1.1 1.1 0 0 1-1.1 1.2h-2.3a1.2 1.2 0 0 1-1.2-1.2zm1.2 4.5a1.2 1.2 0 0 0-1.2 1.2v2.3a1.1 1.1 0 0 0 1.2 1.1h2.3a1.1 1.1 0 0 0 1.1-1.1v-2.3a1.1 1.1 0 0 0-1.1-1.2z"></path></svg>