<svg height="24" viewBox="0 0 24 24" width="24" xmlns="http://www.w3.org/2000/svg" class="matericons matericons-hash"><path d="M12.1 19.9v.3a.8.8 0 0 0 .9.8.9.9 0 0 0 .9-.8l.9-4.5h2a.9.9 0 1 0 0-1.8h-1.6l.8-4.2h2.1c.7 0 1-.3 1-.9s-.3-.8-1-.8h-1.7l.8-3.9v-.2a.9.9 0 0 0-.8-.9h-.1a1 1 0 0 0-.9.7L14.6 8h-3.7l.8-3.9v-.2a.9.9 0 0 0-.9-.9 1 1 0 0 0-.9.7L9.1 8H7.2c-.7 0-1 .3-1 .8s.3.9 1 .9h1.5l-.8 4.2h-2a.9.9 0 1 0 0 1.8h1.6l-.9 4.2v.3a.8.8 0 0 0 .8.8 1 1 0 0 0 1-.8l.9-4.5H13l-.9 4.2zM10.5 9.7h3.8l-.9 4.3H9.6l.9-4.3z"></path></svg>