<svg height="24" viewBox="0 0 24 24" width="24" xmlns="http://www.w3.org/2000/svg" class="matericons matericons-icon_newspaper"><path d="M9.1 10.6a.8.8 0 0 1 .8-.7H17a.7.7 0 0 1 0 1.4H9.9a.8.8 0 0 1-.8-.7zm.8 3.5H17a.7.7 0 1 0 0-1.4H9.9a.8.8 0 0 0-.8.7.8.8 0 0 0 .8.7zM22 6.3V17a2.1 2.1 0 0 1-2.1 2.1H4.1A2.1 2.1 0 0 1 2 17V8.4a.7.7 0 0 1 .7-.7.7.7 0 0 1 .7.7V17a.7.7 0 0 0 .7.7.8.8 0 0 0 .8-.7V6.3a1.4 1.4 0 0 1 1.4-1.4h14.3A1.4 1.4 0 0 1 22 6.3zm-1.4 0H6.3V17c0 .2-.1.5-.1.7h13.7a.7.7 0 0 0 .7-.7z"></path></svg>