<svg height="24" viewBox="0 0 24 24" width="24" xmlns="http://www.w3.org/2000/svg" class="matericons matericons-instagram"><path d="M7.8 2h8.4A5.8 5.8 0 0 1 22 7.8v8.4a5.8 5.8 0 0 1-5.8 5.8H7.8A5.8 5.8 0 0 1 2 16.2V7.8A5.8 5.8 0 0 1 7.8 2m-.2 2A3.6 3.6 0 0 0 4 7.6v8.8A3.6 3.6 0 0 0 7.6 20h8.8a3.6 3.6 0 0 0 3.6-3.6V7.6A3.6 3.6 0 0 0 16.4 4H7.6m9.6 1.5a1.3 1.3 0 0 1 1.3 1.3A1.3 1.3 0 0 1 17.2 8 1.3 1.3 0 0 1 16 6.8a1.3 1.3 0 0 1 1.2-1.3M12 7a5 5 0 1 1-5 5 5 5 0 0 1 5-5m0 2a3 3 0 1 0 3 3 2.9 2.9 0 0 0-3-3z"></path></svg>