<svg height="24" width="24" viewBox="0 0 24 24" xmlns="http://www.w3.org/2000/svg" aria-hidden="true" class="matericons matericons-link-three"><path d="M20.5 6.4l-2.9-2.9a1.6 1.6 0 0 0-2.4 0l-4.1 4.1a1.7 1.7 0 0 0 0 2.3l.9.9-1.2 1.2-.9-.9a1.7 1.7 0 0 0-2.3 0l-4.1 4.1a1.7 1.7 0 0 0 0 2.4l2.9 2.9a1.8 1.8 0 0 0 1.2.5 1.8 1.8 0 0 0 1.2-.5l4.1-4.1a1.7 1.7 0 0 0 0-2.3l-.9-.9 1.2-1.2.9.9a1.6 1.6 0 0 0 1.1.5 1.7 1.7 0 0 0 1.2-.5l4.1-4.1a1.8 1.8 0 0 0 .5-1.2 1.8 1.8 0 0 0-.5-1.2zM9.4 11.7l-.6.6zm2.3 3.5l-4.1 4.1-2.9-2.9 4.1-4.1.9.9-1.2 1.1a.9.9 0 0 0 0 1.2.7.7 0 0 0 .6.3.9.9 0 0 0 .6-.3l1.1-1.2zM17 4.1l-.6.6zm-1.8 7.6l-.9-.9 1.2-1.1a.8.8 0 0 0-1.2-1.2l-1.1 1.2-.9-.9 4.1-4.1 2.9 2.9z"></path></svg>