<svg height="24" viewBox="0 0 24 24" width="24" xmlns="http://www.w3.org/2000/svg" class="matericons matericons-link"><path d="M21 7.8a4.9 4.9 0 0 1-1.4 3.4L17 13.8a5 5 0 0 1-6.8 0 .8.8 0 0 1 0-1.1.7.7 0 0 1 1 0h.1a3.3 3.3 0 0 0 4.7 0l2.6-2.6a3.4 3.4 0 0 0 .1-4.7 3.4 3.4 0 0 0-4.7-.1h-.1l-1.8 2a.9.9 0 0 1-1.1-.1.9.9 0 0 1 0-1l1.8-1.8A4.8 4.8 0 0 1 21 7.8zm-8.9 8.8l-1.9 1.8a3.1 3.1 0 0 1-4.6-.1 3.1 3.1 0 0 1 0-4.5l2.6-2.6a3.2 3.2 0 0 1 4.6 0 .9.9 0 0 0 1.1-.1.9.9 0 0 0 0-1 5 5 0 0 0-6.8 0l-2.6 2.6a4.8 4.8 0 1 0 6.6 7l.2-.2 1.8-1.8a.8.8 0 0 0-.1-1.1.8.8 0 0 0-.9 0z"></path></svg>