<svg height="24" viewBox="0 0 24 24" width="24" xmlns="http://www.w3.org/2000/svg" class="matericons matericons-list-number"><path d="M21 12.2a.7.7 0 0 1-.7.7H9.8a.7.7 0 0 1-.8-.7.8.8 0 0 1 .8-.8h10.5a.8.8 0 0 1 .7.8zM9.8 6.9h10.5a.7.7 0 0 0 .7-.7.8.8 0 0 0-.7-.8H9.8a.8.8 0 0 0-.8.8.7.7 0 0 0 .8.7zm10.5 10.5H9.8a.8.8 0 0 0-.8.8.7.7 0 0 0 .8.7h10.5a.7.7 0 0 0 .7-.7.8.8 0 0 0-.7-.8zM4.1 6.5l.4-.2v4a.8.8 0 0 0 .8.8.8.8 0 0 0 .7-.8V5.1a.8.8 0 0 0-.4-.7.8.8 0 0 0-.7 0l-1.5.7a.8.8 0 0 0-.3 1.1.8.8 0 0 0 1 .3zm2.7 9.7a2.7 2.7 0 0 0 .3-1.2 2.1 2.1 0 0 0-2-2.1 2 2 0 0 0-1.9 1.3.7.7 0 0 0 .4 1 .9.9 0 0 0 1-.4.5.5 0 0 1 .5-.4.6.6 0 0 1 .5.6.4.4 0 0 1-.1.3l-2.3 3.2a.7.7 0 0 0 .1 1l.5.2h2.6a.7.7 0 0 0 .7-.8.7.7 0 0 0-.7-.7H5.3l1.5-2z"></path></svg>