<svg height="24" viewBox="0 0 24 24" width="24" xmlns="http://www.w3.org/2000/svg" class="matericons matericons-list-ol"><path d="M7.5 17.7a.9.9 0 0 1 .8-.8h13.4a.9.9 0 0 1 .8.8.8.8 0 0 1-.8.7H8.3a.8.8 0 0 1-.8-.7zm0-6a.8.8 0 0 1 .8-.7h13.4a.8.8 0 0 1 .8.7.9.9 0 0 1-.8.8H8.3a.9.9 0 0 1-.8-.8zm0-6a.8.8 0 0 1 .8-.7h13.4a.8.8 0 0 1 .8.7.8.8 0 0 1-.8.8H8.3a.8.8 0 0 1-.8-.8zM2.6 18.2v-.7H3c.4 0 .6-.2.6-.4a.6.6 0 0 0-.6-.5.5.5 0 0 0-.5.5h-.9c0-.7.6-1.2 1.5-1.2s1.4.4 1.4 1a.9.9 0 0 1-.7.9.8.8 0 0 1 .8.9c0 .8-.7 1.2-1.5 1.2a1.5 1.5 0 0 1-1.6-1.2h.9a.6.6 0 0 0 .6.5c.4 0 .7-.2.7-.5a.6.6 0 0 0-.6-.6zm0-7h-.9a1.3 1.3 0 0 1 1.4-1.3c.9 0 1.5.5 1.5 1.1a1.9 1.9 0 0 1-.7 1.3l-.8.9h1.5v.8H1.8v-.6l1.4-1.5a1.2 1.2 0 0 0 .4-.8.5.5 0 0 0-.5-.5.5.5 0 0 0-.5.5zM3.9 8h-1V4.9l-.9.6v-.8l.9-.7h1z"></path></svg>