<svg height="24" viewBox="0 0 24 24" width="24" xmlns="http://www.w3.org/2000/svg" class="matericons matericons-moon-stars"><path d="M9.5 2.3a.9.9 0 0 1 .1 1.1 9.1 9.1 0 0 0 8.1 13.4 6.2 6.2 0 0 0 1.9-.2 1.2 1.2 0 0 1 1 .4 1.1 1.1 0 0 1-.1 1.2A10.4 10.4 0 0 1 2 11.6a10.2 10.2 0 0 1 6.4-9.5.9.9 0 0 1 1.1.2zM8.1 3.6a9.1 9.1 0 0 0 4.3 17.1 8.8 8.8 0 0 0 6.5-2.7h-1.2A10.4 10.4 0 0 1 7.2 7.7a9.8 9.8 0 0 1 .9-4.1zm7.4 2.3a.2.2 0 0 1 .3-.1h.2l.5 1.5a2.4 2.4 0 0 0 1.4 1.4l1.4.4c.2.1.2.2.2.4l-.2.2-1.4.4a2.4 2.4 0 0 0-1.4 1.4l-.5 1.6a.2.2 0 0 1-.3.1h-.2l-.5-1.6a2.4 2.4 0 0 0-1.4-1.4l-1.4-.4c-.2-.1-.2-.2-.2-.4l.2-.2 1.4-.4A2.4 2.4 0 0 0 15 7.4zm3.8-3.8h.4l.3 1a1.4 1.4 0 0 0 .9.9l1 .3a.4.4 0 0 1 .1.3h-.1l-1 .3a1.4 1.4 0 0 0-.9.9l-.3 1h-.4l-.3-1a1.4 1.4 0 0 0-.9-.9l-1-.3a.4.4 0 0 1-.1-.3h.1l1-.3a1.4 1.4 0 0 0 .9-.9l.3-1z"></path></svg>