<svg height="24" viewBox="0 0 24 24" width="24" xmlns="http://www.w3.org/2000/svg" class="matericons matericons-motogp-1"><path d="M5.18 10l-.18.37a1.71 1.71 0 0 1 .49-.32A1.3 1.3 0 0 1 6 9.93a.45.45 0 0 1 .51.44 1.9 1.9 0 0 1 .5-.32 1.21 1.21 0 0 1 .47-.12.48.48 0 0 1 .41.15.36.36 0 0 1 .07.36 5.29 5.29 0 0 1-.3.68l-1.49 2.72H5l1.32-2.5a3.66 3.66 0 0 0 .29-.61c0-.07 0-.11-.09-.11a.28.28 0 0 0-.23.11 5.21 5.21 0 0 0-.35.61l-1.32 2.5H3.51l1.29-2.43a6.27 6.27 0 0 0 .33-.68c0-.08 0-.11-.09-.11a.29.29 0 0 0-.17.06.38.38 0 0 0-.14.14l-.19.36-1.41 2.66H2L4 10zm5.61.36a.49.49 0 0 0-.28-.31 1.25 1.25 0 0 0-.61-.11 2 2 0 0 0-.86.18 2 2 0 0 0-.67.48 3.81 3.81 0 0 0-.56.84l-.52 1a3.76 3.76 0 0 0-.32.74.64.64 0 0 0 0 .41.43.43 0 0 0 .28.26 1.73 1.73 0 0 0 .61.08 2.52 2.52 0 0 0 .67-.09 2.13 2.13 0 0 0 .6-.31 2.22 2.22 0 0 0 .46-.46 5.45 5.45 0 0 0 .46-.76l.49-.94a3.24 3.24 0 0 0 .27-.6.73.73 0 0 0-.02-.41zm-1.27.7l-.94 1.77a1.29 1.29 0 0 1-.2.33.24.24 0 0 1-.18.07c-.07 0-.1 0-.09-.08a1.4 1.4 0 0 1 .15-.35l.92-1.74a1.89 1.89 0 0 1 .23-.37.24.24 0 0 1 .18-.07c.06 0 .1 0 .09.07a1.82 1.82 0 0 1-.16.37zm3.62-1.57l-.32.61h.31l-.32.6h-.31l-1.08 2.06a1.27 1.27 0 0 0-.19.42s.11.05.3.05l-.32.61h-.47a3.51 3.51 0 0 1-.56 0 .32.32 0 0 1-.22-.15.34.34 0 0 1 0-.28 6.36 6.36 0 0 1 .35-.72l1-2h-.25l.32-.6h.25l.37-.6zm2.5.87a.52.52 0 0 0-.28-.31 1.28 1.28 0 0 0-.61-.11 2.12 2.12 0 0 0-.87.18 2.16 2.16 0 0 0-.67.48 3.81 3.81 0 0 0-.55.84l-.52 1a4.77 4.77 0 0 0-.33.74.71.71 0 0 0 0 .41.43.43 0 0 0 .28.26 1.7 1.7 0 0 0 .61.08 2.52 2.52 0 0 0 .67-.09 2.28 2.28 0 0 0 .6-.31 2.22 2.22 0 0 0 .46-.46 5.61 5.61 0 0 0 .45-.76l.5-.94a3 3 0 0 0 .26-.6.74.74 0 0 0 0-.41zm-1.28.7l-.93 1.77a1.58 1.58 0 0 1-.21.33.21.21 0 0 1-.17.07c-.07 0-.1 0-.09-.08a1.08 1.08 0 0 1 .15-.35l.89-1.74a2.58 2.58 0 0 1 .23-.37.24.24 0 0 1 .18-.07c.07 0 .1 0 .1.07a1.55 1.55 0 0 1-.15.37zm3.45-.77a.41.41 0 0 0-.18-.26.61.61 0 0 0-.35-.09 1.14 1.14 0 0 0-.73.24 2.35 2.35 0 0 0-.61.78l-.73 1.4A1.9 1.9 0 0 0 15 13a.35.35 0 0 0 .1.33.67.67 0 0 0 .46.13 1.06 1.06 0 0 0 .38-.07 2.42 2.42 0 0 0 .43-.21l-.15.29a1.21 1.21 0 0 1-.22.33.33.33 0 0 1-.22.08c-.12 0-.14-.09-.05-.26h-1.16c-.19.37-.21.62-.05.75a1.36 1.36 0 0 0 .8.19 2.88 2.88 0 0 0 .81-.11 1.86 1.86 0 0 0 .62-.29 1.76 1.76 0 0 0 .39-.37c.08-.12.23-.38.44-.78l1.56-3h-1.09zm-.38.73l-.63 1.19a2.46 2.46 0 0 1-.25.42.28.28 0 0 1-.2.09c-.07 0-.1 0-.1-.07a2 2 0 0 1 .15-.34l.68-1.31a1.08 1.08 0 0 1 .21-.32.25.25 0 0 1 .19-.08c.07 0 .1 0 .09.07a1.09 1.09 0 0 1-.14.33zm3.32-1zm1.16.08a.47.47 0 0 0-.39-.14 1.13 1.13 0 0 0-.46.1 2.32 2.32 0 0 0-.51.3l.2-.33h-1.19l-2.31 4.38h1.17l.46-.88a.46.46 0 0 0 .18.3.54.54 0 0 0 .35.1 1.12 1.12 0 0 0 .53-.13 1.24 1.24 0 0 0 .44-.35 4.7 4.7 0 0 0 .46-.75l.85-1.61a3.54 3.54 0 0 0 .29-.65.33.33 0 0 0-.07-.36zm-1.42 1l-.86 1.65a3 3 0 0 1-.24.39.21.21 0 0 1-.18.07c-.08 0-.11 0-.1-.08a2.32 2.32 0 0 1 .19-.44l.84-1.59a3.42 3.42 0 0 1 .25-.42.26.26 0 0 1 .2-.08c.08 0 .11 0 .11.07a2.75 2.75 0 0 1-.21.45z"></path></svg>