<svg height="24" viewBox="0 0 24 24" width="24" xmlns="http://www.w3.org/2000/svg" class="matericons matericons-motogp-4"><path d="M11 10.46a.76.76 0 0 0-.72-.36 2.2 2.2 0 0 0-1.11.36 2.4 2.4 0 0 0-.88.88l-1.09 2a.94.94 0 0 0-.08.88.79.79 0 0 0 .72.35A2.26 2.26 0 0 0 9 14.22a2.55 2.55 0 0 0 .88-.88l1.09-2a.92.92 0 0 0 .03-.88zm-1 .88l-1 2a.66.66 0 0 1-.24.23.68.68 0 0 1-.35.11.25.25 0 0 1-.24-.11.24.24 0 0 1 0-.23l1.09-2a.74.74 0 0 1 .6-.35.25.25 0 0 1 .23.11.26.26 0 0 1-.04.24zm5.2-1.24zm.73.36a.78.78 0 0 0-.73-.36 2.23 2.23 0 0 0-1.11.36 2.37 2.37 0 0 0-.87.88l-1.09 2a.92.92 0 0 0-.09.88.79.79 0 0 0 .72.35 2.26 2.26 0 0 0 1.11-.35 2.55 2.55 0 0 0 .88-.88l1.09-2a.92.92 0 0 0 .09-.88zm-1 .88l-1.09 2a.63.63 0 0 1-.23.23.72.72 0 0 1-.36.11.25.25 0 0 1-.24-.11.24.24 0 0 1 0-.23l1.09-2a.74.74 0 0 1 .6-.35.24.24 0 0 1 .23.11.24.24 0 0 1 0 .24zm2.75.53l.29-.53a.24.24 0 0 0 0-.24c0-.07-.11-.11-.23-.11a.74.74 0 0 0-.6.35l-1.09 2a.24.24 0 0 0 0 .23.25.25 0 0 0 .24.11.72.72 0 0 0 .36-.11.63.63 0 0 0 .23-.23l.12-.24h-.4l.49-.89h1.32l-.25.44-.37.69a2.55 2.55 0 0 1-.88.88 2.25 2.25 0 0 1-1.1.35.79.79 0 0 1-.73-.35.92.92 0 0 1 .09-.88l1.09-2a2.37 2.37 0 0 1 .87-.88 2.23 2.23 0 0 1 1.11-.36.78.78 0 0 1 .73.36.92.92 0 0 1-.09.88l-.29.53zm4.24-1.41a.77.77 0 0 0-.72-.36 2.2 2.2 0 0 0-1.11.36 2.4 2.4 0 0 0-.88.88l-1.76 3.23h.22a1.4 1.4 0 0 0 1-.56l.48-.88h.41a2.2 2.2 0 0 0 1.11-.36 2.4 2.4 0 0 0 .88-.88l.3-.55a.92.92 0 0 0 .07-.88zm-1 .88l-.3.55a.74.74 0 0 1-.6.35h-.4l.49-.9a.74.74 0 0 1 .59-.35.25.25 0 0 1 .24.11.26.26 0 0 1-.01.24zm-9.71 3.23h-.05a1.39 1.39 0 0 1-.87-.22c-.23-.2-.28-.51 0-1l1.89-3.47a1 1 0 0 1 .87-.44h.28l-.33.66h.69l-.48.89h-.69l-1.32 2.35c-.07.12-.06.2 0 .24a.81.81 0 0 0 .47.09l-.47.89zm-9.21 0l1.83-3.35a2.32 2.32 0 0 1 .79-.8 2.06 2.06 0 0 1 1-.32h1.75a.7.7 0 0 1 .65.32.84.84 0 0 1-.08.8L6.42 14a1.4 1.4 0 0 1-1 .56h-.21L7 11.22a.14.14 0 0 0 0-.15.17.17 0 0 0-.11-.07h-.43l-1.65 3a1.38 1.38 0 0 1-1 .56H3.6l2-3.58h-.47a.46.46 0 0 0-.24.08.46.46 0 0 0-.16.15L3.21 14a1.4 1.4 0 0 1-1 .56z"></path></svg>