<svg height="24" width="24" viewBox="0 0 24 24" xmlns="http://www.w3.org/2000/svg" aria-hidden="true" class="matericons matericons-motogp"><path d="M8.23 14.81h2.46l-1.32 2.47H6.91l1.32-2.47zM4.48 6.72h4.63l-2.48 4.63H2zm2.14 4.64h3.45l-1.85 3.45H4.77zm5.11-3.09h3.08l-1.65 3.09h-3.08zm3.91-1.54h1.55l-.83 1.54h-1.55zm-4.37 5.14l-.13.23a1.41 1.41 0 0 1 .31-.21.92.92 0 0 1 .31-.07.29.29 0 0 1 .33.28 1.46 1.46 0 0 1 .32-.21.82.82 0 0 1 .3-.07.33.33 0 0 1 .26.09.24.24 0 0 1 0 .23 2.82 2.82 0 0 1-.19.44l-.92 1.74h-.72l.84-1.6a2.32 2.32 0 0 0 .18-.39c0-.05 0-.07-.06-.07a.17.17 0 0 0-.14.07 3 3 0 0 0-.23.39l-.84 1.6h-.72l.83-1.56a4.36 4.36 0 0 0 .21-.43c0-.05 0-.07-.06-.07h-.11a.39.39 0 0 0-.08.1 2.27 2.27 0 0 0-.13.23L10 14.32h-.76l1.29-2.45zm3.42.86l-.32.6a3.67 3.67 0 0 1-.29.48 1.59 1.59 0 0 1-.29.29 1.44 1.44 0 0 1-.39.2 1.52 1.52 0 0 1-.42.06 1.27 1.27 0 0 1-.39 0 .28.28 0 0 1-.18-.17.38.38 0 0 1 0-.26 2.66 2.66 0 0 1 .21-.47l.33-.63a2.55 2.55 0 0 1 .35-.53 1.35 1.35 0 0 1 .43-.31 1.3 1.3 0 0 1 .55-.12.81.81 0 0 1 .39.08.3.3 0 0 1 .18.19.53.53 0 0 1 0 .25 2.12 2.12 0 0 1-.16.39zm-.69-.19a1 1 0 0 0 .1-.23s0-.05-.06-.05a.13.13 0 0 0-.11.05 1.5 1.5 0 0 0-.15.23l-.58 1.11a.83.83 0 0 0-.1.22.05.05 0 0 0 .06.06.16.16 0 0 0 .11 0 .77.77 0 0 0 .13-.21l.6-1.13zm2.31-1l-.21.39h.21l-.21.38h-.2l-.69 1.31q-.13.24-.12.27h.19l-.2.4h-.66a.24.24 0 0 1-.14-.1.22.22 0 0 1 0-.18 4.47 4.47 0 0 1 .23-.46l.65-1.25H15l.21-.38h.16l.2-.39zm1.43 1.19l-.32.6a2.82 2.82 0 0 1-.29.48 1.33 1.33 0 0 1-.29.29 1.44 1.44 0 0 1-.39.2 1.42 1.42 0 0 1-.42.06 1.27 1.27 0 0 1-.39 0 .28.28 0 0 1-.18-.17.46.46 0 0 1 0-.26 2.66 2.66 0 0 1 .21-.47l.33-.63a2.2 2.2 0 0 1 .36-.53 1.21 1.21 0 0 1 .42-.31 1.31 1.31 0 0 1 .56-.12.87.87 0 0 1 .39.08.31.31 0 0 1 .17.19.42.42 0 0 1 0 .25 3.85 3.85 0 0 1-.17.39zm-.65-.19a.67.67 0 0 0 .1-.23s0-.05-.06-.05a.13.13 0 0 0-.11.05 1.5 1.5 0 0 0-.15.23l-.58 1.11a.83.83 0 0 0-.1.22.05.05 0 0 0 .06.06.16.16 0 0 0 .11 0 .77.77 0 0 0 .13-.21l.6-1.13zm3.05-.67l-1 1.88a5.64 5.64 0 0 1-.28.5 1 1 0 0 1-.25.23 1.06 1.06 0 0 1-.4.19 1.61 1.61 0 0 1-.51.07.83.83 0 0 1-.51-.12q-.15-.12 0-.48H18c-.06.11 0 .16 0 .16a.16.16 0 0 0 .14-.05.6.6 0 0 0 .14-.2l.1-.19a1.62 1.62 0 0 1-.27.13.79.79 0 0 1-.25 0 .46.46 0 0 1-.29-.08.22.22 0 0 1-.06-.22 1.17 1.17 0 0 1 .15-.37l.47-.89a1.32 1.32 0 0 1 .39-.5.7.7 0 0 1 .46-.16.36.36 0 0 1 .22.06.27.27 0 0 1 .12.17l.15-.18zm-1.1.65a2.12 2.12 0 0 0 .1-.22h-.06a.13.13 0 0 0-.12.05.73.73 0 0 0-.14.21l-.43.82a1.53 1.53 0 0 0-.1.21h.06a.16.16 0 0 0 .13-.06 1.23 1.23 0 0 0 .16-.27l.4-.75zm2.12-.65l-.12.21a1.58 1.58 0 0 1 .32-.19.66.66 0 0 1 .3-.07.27.27 0 0 1 .24.1.2.2 0 0 1 0 .21 1.83 1.83 0 0 1-.19.41l-.54 1a3.82 3.82 0 0 1-.29.47.89.89 0 0 1-.28.23.84.84 0 0 1-.34.08.36.36 0 0 1-.22-.06.34.34 0 0 1-.12-.2l-.3.56H19l1.47-2.79zm-.16.71a1.67 1.67 0 0 0 .13-.28h-.07a.13.13 0 0 0-.12.05 1.64 1.64 0 0 0-.17.27l-.53 1a.92.92 0 0 0-.12.28s0 .06.06.06a.17.17 0 0 0 .12 0 2.21 2.21 0 0 0 .15-.25l.55-1.13z"></path></svg>