<svg height="24" width="24" viewBox="0 0 24 24" xmlns="http://www.w3.org/2000/svg" aria-hidden="true" class="matericons matericons-motogp-3"><path d="M6.94 11.17H2l2.12-3.88a1.91 1.91 0 0 1 1.49-1h4l-2.67 4.88zm0 0h3.87L8.74 15H4.87zm6.59 0h-2.72l1.37-2.51a1.26 1.26 0 0 1 1-.61h2.72l-1.37 2.52a1.26 1.26 0 0 1-1 .6zm3.66-4.87h1.45l-.77 1.41a.67.67 0 0 1-.53.34h-1.45l.77-1.41a.7.7 0 0 1 .53-.34zM9.3 17.7H7.25L8.74 15h2.71l-1.14 2a1.32 1.32 0 0 1-1 .66zm5.5-6a.48.48 0 0 1 .44.22.56.56 0 0 1-.05.55l-.67 1.23a1.64 1.64 0 0 1-.54.54 1.33 1.33 0 0 1-.69.22.45.45 0 0 1-.44-.22.54.54 0 0 1 .05-.54l.67-1.23a1.58 1.58 0 0 1 .54-.55 1.43 1.43 0 0 1 .69-.22zm-.16.62a.15.15 0 0 0-.14-.07.44.44 0 0 0-.22.07.43.43 0 0 0-.15.15l-.67 1.23a.14.14 0 0 0 0 .14s.07.07.14.07a.38.38 0 0 0 .22-.07.41.41 0 0 0 .15-.14l.67-1.23a.16.16 0 0 0 0-.18zm3.17-.62a.47.47 0 0 1 .44.22.56.56 0 0 1-.05.55l-.67 1.23a1.64 1.64 0 0 1-.54.54 1.33 1.33 0 0 1-.69.22.46.46 0 0 1-.44-.22.54.54 0 0 1 .05-.54l.67-1.23a1.58 1.58 0 0 1 .54-.55 1.43 1.43 0 0 1 .69-.22zm-.16.62a.15.15 0 0 0-.14-.07.47.47 0 0 0-.22.07.43.43 0 0 0-.15.15l-.67 1.23a.14.14 0 0 0 0 .14s.07.07.14.07a.38.38 0 0 0 .22-.07.41.41 0 0 0 .15-.14l.67-1.23a.16.16 0 0 0 0-.15zm1.69.47l.18-.32a.16.16 0 0 0 0-.15.16.16 0 0 0-.15-.07.47.47 0 0 0-.22.07.4.4 0 0 0-.14.15l-.68 1.23a.14.14 0 0 0 0 .14s.08.07.15.07a.38.38 0 0 0 .22-.07.38.38 0 0 0 .14-.14l.08-.15h-.25L19 13h.81l-.15.28-.23.42a1.47 1.47 0 0 1-.54.54 1.3 1.3 0 0 1-.68.22.48.48 0 0 1-.45-.22.59.59 0 0 1 .05-.54l.68-1.23a1.42 1.42 0 0 1 .54-.55 1.4 1.4 0 0 1 .68-.22.49.49 0 0 1 .45.22.61.61 0 0 1-.05.55l-.18.32zm-.15 1.67l1.09-2a1.58 1.58 0 0 1 .54-.55 1.43 1.43 0 0 1 .69-.22.48.48 0 0 1 .44.22.56.56 0 0 1-.05.55l-.19.34a1.47 1.47 0 0 1-.54.54 1.4 1.4 0 0 1-.68.22h-.25l-.3.55a.9.9 0 0 1-.61.34zm1.65-2l-.3.55h.25a.47.47 0 0 0 .22-.07.47.47 0 0 0 .14-.14l.19-.34a.16.16 0 0 0 0-.15.15.15 0 0 0-.14-.07.44.44 0 0 0-.22.07.43.43 0 0 0-.15.15zm-5.49 2a.82.82 0 0 1-.53-.14c-.15-.12-.18-.31 0-.61l1.16-2.14a.64.64 0 0 1 .54-.27h.17l-.22.41h.42l-.3.55h-.42l-.79 1.45v.15a.45.45 0 0 0 .29.06l-.29.55zm-5.69 0l1.13-2.07a1.53 1.53 0 0 1 .49-.49 1.26 1.26 0 0 1 .62-.2H13a.44.44 0 0 1 .4.2.55.55 0 0 1-.05.49l-.94 1.73a.9.9 0 0 1-.61.34h-.14l1.13-2.07a.1.1 0 0 0 0-.09.11.11 0 0 0-.1 0h-.26l-1 1.87a.9.9 0 0 1-.61.34h-.14l1.21-2.21h-.29a.27.27 0 0 0-.15 0 .29.29 0 0 0-.1.09l-.94 1.73a.88.88 0 0 1-.61.34z"></path></svg>