<svg height="24" viewBox="0 0 24 24" width="24" xmlns="http://www.w3.org/2000/svg" class="matericons matericons-newspaper"><path d="M2 5.1a1.8 1.8 0 0 1 1.9-1.8h13.7a1.8 1.8 0 0 1 1.9 1.8v13.2a2.7 2.7 0 0 1-.3 1.2h.9a.7.7 0 0 0 .7-.6V7.6a.6.6 0 0 1 .6-.6.6.6 0 0 1 .6.6v11.3a1.8 1.8 0 0 1-1.9 1.8H3.9A1.8 1.8 0 0 1 2 18.9zm15 14.4a1.5 1.5 0 0 0 1.1-.6.8.8 0 0 0 .2-.6V5.1a.7.7 0 0 0-.7-.6H3.9a.6.6 0 0 0-.6.6v13.8a.6.6 0 0 0 .6.6zM4.5 5.8H17v2.5H4.5zm0 3.7h5v3.7h-5zm0 5h5v1.2h-5zm0 2.5h5v1.2h-5zm6.3-7.5h2.5v1.3h-2.5zm3.7 0H17v1.3h-2.5zM10.8 12h2.5v1.2h-2.5zm3.7 0H17v1.2h-2.5zm-3.7 2.5h2.5v1.2h-2.5zm3.7 0H17v1.2h-2.5zM10.8 17h2.5v1.2h-2.5zm3.7 0H17v1.2h-2.5z"></path></svg>