<svg height="24" viewBox="0 0 24 24" width="24" xmlns="http://www.w3.org/2000/svg" class="matericons matericons-newspaper-folding"><path d="M21.1 5.6h-7.8l-.4-2.8A.9.9 0 0 0 12 2H2.9a.9.9 0 0 0-.9.9v14.6a.9.9 0 0 0 .9.9h6.5l.3 2.8c0 .1.1.1.1.2l.3.3h11a.9.9 0 0 0 .9-.9V6.5a.9.9 0 0 0-.9-.9zM3.8 3.8h7.4l1.6 12.7h-9zm8 14.6l-.5.6v-.6zm8.4 1.8h-7.6l1.9-2.1c0-.1.1-.1.1-.2s.1-.1.1-.2v-.4l-.3-2.6H17a.9.9 0 1 0 0-1.8h-2.8l-.3-1.8H17a.9.9 0 0 0 0-1.8h-3.3l-.2-1.8h6.7zM4.7 6.5a.9.9 0 0 1 .9-.9h3.2a.9.9 0 0 1 .9.9 1 1 0 0 1-.9 1H5.6a1 1 0 0 1-.9-1zm0 3.7a.9.9 0 0 1 .9-.9h3.7a.9.9 0 0 1 0 1.8H5.6a.9.9 0 0 1-.9-.9zm5.9 3.6a.9.9 0 0 1-.9.9H5.6a.9.9 0 0 1 0-1.8h4.1a.9.9 0 0 1 .9.9z"></path></svg>