<svg height="24" width="24" viewBox="0 0 24 24" xmlns="http://www.w3.org/2000/svg" aria-hidden="true" class="matericons matericons-oppo"><path d="M7.09 12.08V9.79h.71v.3l.1-.09a3.27 3.27 0 0 1 2.38-.31 2 2 0 0 1 1.47 1.21 1.58 1.58 0 0 1 0 1.05 1.84 1.84 0 0 1-.92 1A3.32 3.32 0 0 1 8.3 13a2.74 2.74 0 0 1-.42-.21l-.08-.05v1.61h-.71zm2.72.55a1.79 1.79 0 0 0 .95-.39 1 1 0 0 0 .34-.6 1.41 1.41 0 0 0 0-.41 1.07 1.07 0 0 0-.45-.69 1.56 1.56 0 0 0-.41-.2 2.51 2.51 0 0 0-1.16-.1 1.35 1.35 0 0 0-1.24.92 1.07 1.07 0 0 0 0 .64 1.47 1.47 0 0 0 1.31.84 4.53 4.53 0 0 0 .64 0zm2.37-.55V9.79h.71v.15a1.19 1.19 0 0 0 0 .15L13 10a2.37 2.37 0 0 1 .45-.23 3.38 3.38 0 0 1 1.92-.09 1.8 1.8 0 0 1 1.56 1.82 1.73 1.73 0 0 1-1.22 1.5 2.55 2.55 0 0 1-.78.19 4.82 4.82 0 0 1-.76 0 2.68 2.68 0 0 1-1.17-.38h-.07v1.61h-.71zm2.74.55a1.48 1.48 0 0 0 1.15-.63 1.08 1.08 0 0 0 .12-.73 1.32 1.32 0 0 0-1.26-1 2.44 2.44 0 0 0-1.36.18 1.13 1.13 0 0 0-.66.8 1.55 1.55 0 0 0 0 .43 1.12 1.12 0 0 0 .36.6 1.85 1.85 0 0 0 1 .39 3.52 3.52 0 0 0 .65 0zm-10.79.61a3.36 3.36 0 0 1-1-.23A1.77 1.77 0 0 1 2 11.72a1.84 1.84 0 0 1 0-.47 1.81 1.81 0 0 1 1.38-1.48 3.38 3.38 0 0 1 1.42-.12 2.22 2.22 0 0 1 1.79 1.1 1.59 1.59 0 0 1-.08 1.51 1.88 1.88 0 0 1-.54.55 2.8 2.8 0 0 1-1.21.41h-.63zm.51-.6a2 2 0 0 0 .92-.31 1.18 1.18 0 0 0 .44-.55.91.91 0 0 0 0-.35.88.88 0 0 0 0-.34 1.36 1.36 0 0 0-1.05-.82 2.51 2.51 0 0 0-1.42.1 1.23 1.23 0 0 0-.66.53 1.1 1.1 0 0 0-.09.87 1.22 1.22 0 0 0 .72.72 2.42 2.42 0 0 0 .68.16zm14.76.6h-.12a3.06 3.06 0 0 1-1.12-.34 1.7 1.7 0 0 1-.82-1 1.6 1.6 0 0 1-.05-.84 1.69 1.69 0 0 1 .74-1 3.09 3.09 0 0 1 2-.41 2.53 2.53 0 0 1 1.47.65 1.58 1.58 0 0 1 .46.95 2.54 2.54 0 0 1 0 .39 1.89 1.89 0 0 1-1.56 1.51 3.52 3.52 0 0 1-.76.09zm.47-.6A1.79 1.79 0 0 0 21 12.2a1.05 1.05 0 0 0 .3-.58 1.21 1.21 0 0 0 0-.38 1.31 1.31 0 0 0-1.21-1 2 2 0 0 0-.43 0 1.64 1.64 0 0 0-1.56.76 1 1 0 0 0-.1.46 1 1 0 0 0 .18.6 1.59 1.59 0 0 0 1.2.61z"></path></svg>