<svg height="24" width="24" viewBox="0 0 24 24" xmlns="http://www.w3.org/2000/svg" aria-hidden="true" class="matericons matericons-ordered-list"><path d="M5.5 7.3V6.1h-.4l-.6-.3a.8.8 0 0 1 .2-1L5.8 4h.8a.1.1 0 0 1 .1.1H7v3.2h.4a.8.8 0 0 1 .7.8.7.7 0 0 1-.7.7H5.1a.7.7 0 0 1-.7-.7.8.8 0 0 1 .7-.8zm-1.1 6.1v.2l.2.2h2.8a.7.7 0 0 0 .7-.7.8.8 0 0 0-.7-.8h-.2a2.7 2.7 0 0 0 .6-1 1.2 1.2 0 0 0-.2-1.2 1.8 1.8 0 0 0-1.2-.9 3.5 3.5 0 0 0-1.8.7.8.8 0 0 0 1.1 1.1l.5-.3.2.2a3.8 3.8 0 0 1-1.6 1.5h-.1a.1.1 0 0 0-.1.1h-.1v.2zm3 1.7a1.8 1.8 0 0 0-2.1-.2c-.5.3-.7.7-.8.7a.9.9 0 0 0 .2 1.1.9.9 0 0 0 1.1-.2.5.5 0 0 1 .8-.2h.2c0 .1-.1.1-.1.2h-.4a.7.7 0 0 0-.8.7.8.8 0 0 0 .8.8h.5l-.2.2a.5.5 0 0 1-.8-.2.9.9 0 0 0-1.1 0 .8.8 0 0 0-.2 1 1.9 1.9 0 0 0 .8.7 1.6 1.6 0 0 0 .9.3 1.9 1.9 0 0 0 1.2-.4 1.4 1.4 0 0 0 .8-1.3 1.6 1.6 0 0 0-.2-1 1.3 1.3 0 0 0 .2-.9 1.4 1.4 0 0 0-.8-1.3zm11.5-3.7h-8.2a.7.7 0 0 0-.7.7.7.7 0 0 0 .7.8h8.2a.7.7 0 0 0 .7-.8.7.7 0 0 0-.7-.7zm0 5.2h-8.2a.7.7 0 0 0-.7.7.8.8 0 0 0 .7.8h8.2a.8.8 0 0 0 .7-.8.7.7 0 0 0-.7-.7zm-8.2-8.9h8.2a.7.7 0 0 0 .7-.7.8.8 0 0 0-.7-.8h-8.2a.8.8 0 0 0-.7.8.7.7 0 0 0 .7.7z"></path></svg>