<svg height="24" viewBox="0 0 24 24" width="24" xmlns="http://www.w3.org/2000/svg" class="matericons matericons-patch-check"><path d="M15.2 9.5a.6.6 0 0 1 0 .9l-4.1 4.1a.8.8 0 0 1-1 .1l-2-2a.7.7 0 0 1 0-1 .6.6 0 0 1 .9 0l1.6 1.6 3.7-3.6a.6.6 0 0 1 .9-.1zm-.1-5l-1.2-1.3.9-1 .9.9h1.2a3.9 3.9 0 0 1 4 3.9v1.3l.9.9a4 4 0 0 1 .1 5.6h-.1l-.9.9v1.2a3.9 3.9 0 0 1-3.9 4h-1.3l-.9.9a4 4 0 0 1-5.6.1l-.9-.9H7.1a3.9 3.9 0 0 1-4-3.9v-1.4l-.9-.9a4 4 0 0 1-.1-5.6h.1l.9-.9V7.1a3.9 3.9 0 0 1 3.9-4h1.3l.9-.9a4 4 0 0 1 5.6-.1l-.9 1a2.6 2.6 0 0 0-3.7-.1h-.1L8.9 4.5H7.1A2.7 2.7 0 0 0 4.4 7v1.9l-1.2 1.2a2.6 2.6 0 0 0-.1 3.7h.1L4.5 15v1.8A2.7 2.7 0 0 0 7 19.6h1.9l1.2 1.3a2.6 2.6 0 0 0 3.7.1h.1l1.2-1.3h1.8a2.7 2.7 0 0 0 2.7-2.7v-1.9l1.3-1.2a2.6 2.6 0 0 0 .1-3.7h-.1l-1.4-1.3V7.1A2.7 2.7 0 0 0 17 4.4h-1.9z"></path></svg>