<svg height="24" viewBox="0 0 24 24" width="24" xmlns="http://www.w3.org/2000/svg" class="matericons matericons-preview-close-one"><path d="M14.7 17a.9.9 0 0 1-.7 1 6.9 6.9 0 0 1-2 .3c-5.4 0-9.5-5.5-9.7-5.8a.7.7 0 0 1 0-1 14.4 14.4 0 0 1 2.8-2.9.8.8 0 0 1 1.2.1.9.9 0 0 1-.1 1.3 12.4 12.4 0 0 0-2 2c1.3 1.5 5.1 5.4 9.4 4.3a.9.9 0 0 1 1.1.7zm7-5.5c-.2-.3-4.3-5.8-9.7-5.8a6.9 6.9 0 0 0-2 .3.9.9 0 0 0-.7 1 1 1 0 0 0 1.1.7c4.3-1 8.1 2.8 9.4 4.3a12.4 12.4 0 0 1-2 2 .9.9 0 0 0-.1 1.3.8.8 0 0 0 .7.3l.5-.2a14.4 14.4 0 0 0 2.8-2.9.7.7 0 0 0 0-1zm-1 8a.8.8 0 0 1 0 1.2.7.7 0 0 1-1.2 0l-6-5.9a4.2 4.2 0 0 1-1.5.4 2.9 2.9 0 0 1-2.1-.9 3.1 3.1 0 0 1-1.1-2.2 4.7 4.7 0 0 1 .4-1.6l-5.9-6a.8.8 0 0 1 0-1.2.7.7 0 0 1 1.2 0zm-8.6-6.2l-1.4-1.4v.2a1.6 1.6 0 0 0 .5.9 1 1 0 0 0 .9.3z"></path></svg>