<svg height="24" viewBox="0 0 24 24" width="24" xmlns="http://www.w3.org/2000/svg" class="matericons matericons-samsung"><path d="M18.51 10.57v2.24l-.65-2.24h-1.05v2.82h.71v-2.32l.7 2.32h1v-2.82zm-13.45 0l-.54 2.85h.77l.4-2.59.39 2.59h.76l-.52-2.85zm4.31 0L9 12.75l-.35-2.18H7.48l-.05 2.85h.71v-2.56l.48 2.56h.72l.48-2.56v2.56h.72l-.07-2.85zm-6 2a.38.38 0 0 1 0 .21c0 .1-.09.19-.28.19s-.29-.1-.29-.25v-.28H2v.22c0 .64.5.83 1 .83s1-.18 1-.65a1.35 1.35 0 0 0 0-.47c-.13-.6-1.22-.77-1.29-1.11a.38.38 0 0 1 0-.15A.22.22 0 0 1 3 11a.24.24 0 0 1 .27.26v.17H4v-.2c0-.62-.57-.72-1-.72s-.93.17-1 .63a.86.86 0 0 0 0 .39c.11.58 1.14.76 1.28 1.12zm9.29 0a.38.38 0 0 1 0 .21c0 .1-.09.19-.28.19a.25.25 0 0 1-.28-.25v-.28h-.77v.22c0 .63.5.82 1 .82s.93-.17 1-.65a1.36 1.36 0 0 0 0-.47c-.12-.59-1.2-.77-1.27-1.1a.38.38 0 0 1 0-.15c0-.09.08-.19.26-.19a.24.24 0 0 1 .26.26v.17h.71v-.2c0-.62-.55-.72-1-.72s-.91.16-1 .63a1 1 0 0 0 0 .39c.12.58 1.12.75 1.26 1.12zM15 13a.25.25 0 0 0 .27-.2.41.41 0 0 0 0-.11v-2.12H16v2a1 1 0 0 1 0 .19c0 .54-.47.71-1 .71s-.95-.17-1-.71v-2.19h.73v2.11a.37.37 0 0 0 0 .11c0 .07.06.2.26.2zm6 0a.27.27 0 0 0 .29-.2.41.41 0 0 0 0-.11v-.41H21v-.42h1v.76a1.64 1.64 0 0 1 0 .2c0 .52-.5.7-1 .7s-1-.18-1-.7a1.64 1.64 0 0 1 0-.2v-1.39c.06-.54.49-.71 1-.71s.94.17 1 .71v.29h-.72v-.17a.51.51 0 0 0 0-.1A.25.25 0 0 0 21 11a.27.27 0 0 0-.29.21.57.57 0 0 0 0 .13v1.31a.37.37 0 0 0 0 .11c0 .07.08.2.28.2z"></path></svg>