<svg height="24" viewBox="0 0 24 24" width="24" xmlns="http://www.w3.org/2000/svg" class="matericons matericons-saweria-alt"><path d="M13 15.9c-.1.4-.5 1.2-.9 1.3-.4 0-.7-.8-.9-1.4a1.8 1.8 0 0 0 .9-.6 2.2 2.2 0 0 0 .9.7zm7.4.1a6.9 6.9 0 0 1 .5 1.7 1 1 0 0 1-.4 1.1 3.9 3.9 0 0 1-2.3 1.3 2.9 2.9 0 0 1-2.5 1.7h-.1a4 4 0 0 1-2.7-1h-1.7A3.9 3.9 0 0 1 8.4 22h-.1a2.6 2.6 0 0 1-2.5-1.8 3.9 3.9 0 0 1-2.3-1.3 1 1 0 0 1-.4-1.1 6.9 6.9 0 0 1 .5-1.8 1.3 1.3 0 0 1-.9-.2c-.2-.4-.3-1.2 2-4.5a34.2 34.2 0 0 1 2.2-3.1A3.9 3.9 0 0 1 4.4 6a4.1 4.1 0 0 1 .1-3.4A1.5 1.5 0 0 1 5.8 2c1.4.1 1.5 1.5 1.6 2.7s.1.7.1 1 .8 1.2 1 1.2a12.6 12.6 0 0 1 7 0c.2 0 .8-.2 1-1.2s.1-.7.1-1 .2-2.6 1.6-2.7a1.5 1.5 0 0 1 1.3.6 4.1 4.1 0 0 1 .1 3.4 3.9 3.9 0 0 1-2.5 2.2 34.2 34.2 0 0 1 2.2 3.1c2.3 3.3 2.2 4.1 2 4.5a1.3 1.3 0 0 1-.9.2zm-6.6-8l.2.2c.5-.1 1.1.4 1.4.6h.3c.1 0 .1-.2 0-.3s-1-.8-1.7-.7-.2 0-.2.2zm-1.1 2.2h.3c.1-.1.2-.2.1-.3a1.3 1.3 0 0 1-.2-.9l-.2-.2-.3.2a3.1 3.1 0 0 0 .3 1.2zm-.9-.1a.2.2 0 0 0 .4 0v-1c0-.2-.1-.3-.2-.3s-.2.1-.2.3zm-.8.2h.3a3.1 3.1 0 0 0 .3-1.1l-.3-.2-.2.2a2.7 2.7 0 0 1-.2.9c-.1 0 0 .1.1.2zM7.9 8.9h.3c.2-.2.9-.7 1.3-.6s.3-.1.3-.2l-.2-.3a3.3 3.3 0 0 0-1.7.8c-.1 0-.1.2 0 .3zm-1.7 4a1.9 1.9 0 0 0 1.3 1.2h.6a1.9 1.9 0 0 0 1.2-.4 3.1 3.1 0 0 0 1.1-1.6A2.5 2.5 0 0 0 9 9a2.6 2.6 0 0 0-2.9 2 2.5 2.5 0 0 0 .1 1.9zm4.5 5.9a.5.5 0 0 0-.5.1c0 .1-.1.1-.2.1a.2.2 0 0 1-.2-.2s0-.8-.4-.8-.7.5-.7.5-.2.2-.3.1a.2.2 0 0 1-.2-.2 1 1 0 0 0-.1-.4c-.1-.2-.3-.2-.6-.2a.9.9 0 0 0-.8.4 2.2 2.2 0 0 0-.5 1.9 2.5 2.5 0 0 0 2.1 1.5 3.2 3.2 0 0 0 2.8-1.4 1.1 1.1 0 0 0-.4-1.4zm1.4-1.2c.8 0 1.2-1.1 1.3-1.6h.4c.5 0 .7-.7.8-1h.3c.1 0 .2-.2.2-.3s-.1-.2-.3-.1h-.3l-.4-.2h-.3a.3.3 0 0 0 0 .4h.4c-.1.3-.2.7-.4.7h-.5a1.8 1.8 0 0 1-1-.7.8.8 0 0 0 .7-.7c.5-.2.9-.4.9-.7s-.9-.9-1.9-.9-1.8.4-1.8.9.2.4.6.6h.3c0 .4.3.6.8.7l-1 .7h-.4c-.1 0-.3-.3-.4-.7l.2-.2a.2.2 0 0 0 0-.3h-.4l-.2.3h-.4a.2.2 0 0 0 0 .4h.4c.1.3.4.9.8.9h.3c.1.5.5 1.6 1.3 1.6zm5.2.4a.7.7 0 0 0-.8-.4.8.8 0 0 0-.6.2 1 1 0 0 0-.1.4c0 .1-.1.2-.2.3l-.3-.2s-.2-.6-.7-.5-.4.8-.4.8l-.2.2c-.1 0-.2 0-.2-.1h-.5a1.1 1.1 0 0 0-.4 1.4 3.2 3.2 0 0 0 2.8 1.4 2.5 2.5 0 0 0 2.1-1.5 2.2 2.2 0 0 0-.5-2zm.5-7.1a2.1 2.1 0 0 0-1.1-1.6 2.2 2.2 0 0 0-1.7-.4 2.6 2.6 0 0 0-1.5 3.2 2.5 2.5 0 0 0 2.4 2h.5a2.2 2.2 0 0 0 1.3-1.2 2.5 2.5 0 0 0 .1-2zM7.6 13.7a1.7 1.7 0 0 0 1.4-.3 2 2 0 0 0 .8-.8.9.9 0 0 1-.6.3c-.5 0-1-.7-1-1.6s.5-1.6 1-1.6h.1l-.5-.2h-.4a2.2 2.2 0 0 0-1.9 1.7 2.2 2.2 0 0 0 .1 1.6 1.6 1.6 0 0 0 1 .9zm8.9-4.1a1.5 1.5 0 0 0-1.4-.2 1.2 1.2 0 0 0-.8.4h.5c.5 0 .9.7.9 1.6s-.4 1.6-.9 1.6a.6.6 0 0 1-.6-.3 1.9 1.9 0 0 0 2.1 1 1.6 1.6 0 0 0 1-1 2.2 2.2 0 0 0 .1-1.6 2.3 2.3 0 0 0-.9-1.5z"></path></svg>