<svg height="24" width="24" viewBox="0 0 24 24" xmlns="http://www.w3.org/2000/svg" aria-hidden="true" class="matericons matericons-share-one"><path d="M17.5 15a4.2 4.2 0 0 0-2.4.9l-5.2-3.1a1.9 1.9 0 0 0 .1-.8c0-.3-.1-.6-.1-.9L15 8a3.5 3.5 0 0 0 6-2.5 3.5 3.5 0 0 0-7 0 1.7 1.7 0 0 0 .1.7L8.8 9.4a3.2 3.2 0 0 0-2.3-.9 3.5 3.5 0 0 0 0 7 4.2 4.2 0 0 0 2.4-.9l5.2 3.1a1.9 1.9 0 0 0-.1.8 3.5 3.5 0 1 0 3.5-3.5zm0-11A1.5 1.5 0 0 1 19 5.5a1.5 1.5 0 0 1-3 0A1.5 1.5 0 0 1 17.5 4zm-11 9.5a1.5 1.5 0 0 1 0-3 1.5 1.5 0 0 1 0 3zm11 6.5a1.5 1.5 0 1 1 1.5-1.5 1.5 1.5 0 0 1-1.5 1.5z"></path></svg>