<svg height="24" width="24" viewBox="0 0 24 24" xmlns="http://www.w3.org/2000/svg" aria-hidden="true" class="matericons matericons-share-network"><path d="M17.3 15a3.7 3.7 0 0 0-2.7 1.1l-4.3-2.7a4.5 4.5 0 0 0 0-2.8l4.3-2.7a3.7 3.7 0 0 0 5.3 0 3.7 3.7 0 0 0 0-5.3 3.7 3.7 0 0 0-5.3 0 3.7 3.7 0 0 0-1.1 2.7 3.1 3.1 0 0 0 .3 1.3L9.4 9.4a3.8 3.8 0 0 0-5.3-.1 3.8 3.8 0 0 0 5.3 5.4l4.4 2.8a3.2 3.2 0 0 0-.3 1.4 3.8 3.8 0 1 0 3.8-3.9zm0-12a2.2 2.2 0 0 1 2.2 2.3 2.2 2.2 0 0 1-2.2 2.2 2.3 2.3 0 1 1 0-4.5zM6.8 14.3A2.3 2.3 0 0 1 4.5 12a2.2 2.2 0 0 1 2.3-2.2A2.2 2.2 0 0 1 9 12a2.4 2.4 0 0 1-2.2 2.3zM17.3 21a2.3 2.3 0 1 1 2.2-2.2 2.2 2.2 0 0 1-2.2 2.2z"></path></svg>