<svg height="24" viewBox="0 0 24 24" width="24" xmlns="http://www.w3.org/2000/svg" class="matericons matericons-share"><path d="M18.2 4.1a1.8 1.8 0 0 0-1.7 1.7 1.7 1.7 0 1 0 3.4 0 1.8 1.8 0 0 0-1.7-1.7zm-2.8 1.7A2.8 2.8 0 0 1 18.2 3 2.9 2.9 0 0 1 21 5.8a2.8 2.8 0 0 1-2.8 2.8 2.5 2.5 0 0 1-2.1-1l-7.6 3.6a2.2 2.2 0 0 1 0 1.6l7.6 3.6a2.6 2.6 0 0 1 3.9-.3 2.8 2.8 0 1 1-3.6 4.2 2.8 2.8 0 0 1-.9-3l-7.6-3.5a2.8 2.8 0 1 1-.3-3.9l.3.3 7.6-3.5a2.8 2.8 0 0 1-.1-.9zm-9.6 4.5a1.7 1.7 0 0 0 0 3.4 1.7 1.7 0 1 0 0-3.4zm12.4 6.2a1.7 1.7 0 1 0 1.7 1.7 1.8 1.8 0 0 0-1.7-1.7z"></path></svg>