<svg height="24" viewBox="0 0 24 24" width="24" xmlns="http://www.w3.org/2000/svg" class="matericons matericons-shopee"><path d="M20.5 6.8h-4.1C16.3 4.1 14.4 2 12 2S7.7 4.1 7.6 6.8H3.5a.4.4 0 0 0-.4.4l.6 13A1.7 1.7 0 0 0 5.3 22h13.2a1.8 1.8 0 0 0 1.8-1.7l.6-13a.4.4 0 0 0-.4-.5zM12 3.2a3.5 3.5 0 0 1 3.2 3.6H8.8A3.5 3.5 0 0 1 12 3.2zM15.3 17a2.6 2.6 0 0 1-1.6 2.1 5.2 5.2 0 0 1-1.8.3 4.6 4.6 0 0 1-2.3-.6 3 3 0 0 1-1-.7.1.1 0 0 1 0-.2l.4-.5h.2a.1.1 0 0 1 .1.1 4.5 4.5 0 0 0 2.6.9c1.3 0 2.2-.5 2.4-1.4s-.6-1.8-2.1-2.3l-1.8-.7a2.4 2.4 0 0 1-1.5-2.4 2.8 2.8 0 0 1 3-2.3 7.8 7.8 0 0 1 2.1.4l.8.5c.1 0 .1.1 0 .2l-.3.5h-.2a4.7 4.7 0 0 0-2.4-.7 1.9 1.9 0 0 0-2 1.5c0 .8.6 1.4 1.9 1.9s3.7 1.8 3.5 3.4z"></path></svg>