<svg height="24" viewBox="0 0 24 24" width="24" xmlns="http://www.w3.org/2000/svg" class="matericons matericons-skype"><path d="M18.7 5.3a9.6 9.6 0 0 1 2.6 8.4 6.4 6.4 0 0 1 .7 2.7 5.6 5.6 0 0 1-5.6 5.6 6.4 6.4 0 0 1-2.7-.7 9.4 9.4 0 0 1-11-11A6.4 6.4 0 0 1 2 7.6 5.6 5.6 0 0 1 7.6 2a6.4 6.4 0 0 1 2.7.7 9.6 9.6 0 0 1 8.4 2.6M12 17.7c3.2 0 4.8-1.5 4.8-3.6s-.6-2.7-3-3.2l-2.2-.5c-.9-.2-1.8-.5-1.8-1.3s.6-1.3 1.9-1.3 2.2 1.7 3.4 1.7a1.1 1.1 0 0 0 1.2-1.1c0-1.5-2.4-2.6-4.5-2.6s-4.6.9-4.6 3.5.5 2.5 2.9 3.1l2.9.7c.9.3 1.2.8 1.2 1.2s-.8 1.5-2.2 1.5-2.3-2-3.7-2a1 1 0 0 0-1.1 1.1c0 1.2 1.5 2.8 4.8 2.8z"></path></svg>