<svg height="24" width="24" viewBox="0 0 24 24" xmlns="http://www.w3.org/2000/svg" aria-hidden="true" class="matericons matericons-sony"><path d="M21.7 13.07a.3.3 0 0 0-.31.3.3.3 0 0 0 .29.31.3.3 0 0 0 .3-.3.31.31 0 0 0-.3-.31zm0 .58a.27.27 0 0 1-.27-.27.27.27 0 0 1 .27-.27.27.27 0 0 1 .26.27.28.28 0 0 1-.26.27zm.15-.35a.09.09 0 0 0 0-.08h-.23v.34-.16h.08l.1.16h.05l-.11-.16c.07 0 .11 0 .11-.09zm-.16.06h-.07v-.12h.1s.09 0 .09.06-.07.06-.12.06zm-1.78-1.71l.62-.67a.17.17 0 0 0 .06-.11s-.05-.07-.18-.07h-.15v-.42H22v.42h-.23c-.25 0-.3 0-.66.5l-1 1.06V13c0 .17.08.23.33.23h.37v.4h-2.42v-.4h.38c.24 0 .32-.06.32-.23v-.65l-1.16-1.28c-.19-.23-.17-.28-.7-.28v-.42h2.15v.42h-.15c-.15 0-.22 0-.22.09s0 .09.08.13l.58.64a.15.15 0 0 0 .24 0zM5.44 10.38H6v1.18h-.52a.74.74 0 0 0-.32-.45A2 2 0 0 0 4 10.7c-.57 0-1 .18-1 .44 0 .71 3.24.14 3.24 1.5 0 .71-.69 1.1-1.94 1.1a3.75 3.75 0 0 1-1.47-.33c-.12-.07-.17.06-.19.23H2v-1.21h.48a1 1 0 0 0 .39.49 2.16 2.16 0 0 0 1.3.37c.77 0 1-.18 1-.42s-.26-.3-1.11-.44l-.71-.11C2.59 12.2 2 12 2 11.37s.74-1.09 1.92-1.09a2.58 2.58 0 0 1 1.31.29c.11.07.21.08.21-.19zm10.15 2V11c0-.17-.09-.23-.34-.23H15v-.4h1.9v.4h-.25c-.25 0-.34.06-.34.23v2.63h-.74l-2.41-2.28V13c0 .16.09.23.34.23h.33v.4h-2v-.4h.33c.25 0 .34-.07.34-.23v-2c0-.17-.09-.23-.34-.23h-.33v-.4h1.71zm-6.36-2.12c-1.51 0-2.46.67-2.46 1.74s.93 1.72 2.41 1.72 2.49-.66 2.49-1.77-1-1.69-2.44-1.69zm0 3A1.2 1.2 0 0 1 7.88 12a1.22 1.22 0 0 1 1.36-1.3 1.2 1.2 0 0 1 1.3 1.3 1.19 1.19 0 0 1-1.34 1.29z"></path></svg>