<svg height="24" viewBox="0 0 24 24" width="24" xmlns="http://www.w3.org/2000/svg" class="matericons matericons-sort-numeric-down-alt"><path d="M17.6 11c-1.7 0-2.5-.9-2.6-1.8h1.5a1.1 1.1 0 0 0 1.1.6c1.2 0 1.7-1.2 1.6-2.7a2 2 0 0 1-1.9 1.1 2.4 2.4 0 0 1-2.5-2.5A2.7 2.7 0 0 1 17.7 3c1.6 0 3 .9 3 3.9S19.6 11 17.6 11zm.1-3.9A1.3 1.3 0 0 0 19 5.6a1.3 1.3 0 0 0-1.3-1.4 1.3 1.3 0 0 0-1.4 1.4 1.3 1.3 0 0 0 1.4 1.5zm1.4 6.2V21h-1.5v-6.2L15.8 16v-1.4l1.8-1.3zM7.7 4.4a.9.9 0 0 0-.8-.8.8.8 0 0 0-.7.8v14.1l-1.6-1.6a.8.8 0 0 0-1.1 0 .7.7 0 0 0 0 1l2.9 2.9a.7.7 0 0 0 1 0l2.9-2.9a.7.7 0 0 0-1-1l-1.6 1.6z"></path></svg>