<svg height="24" viewBox="0 0 24 24" width="24" xmlns="http://www.w3.org/2000/svg" class="matericons matericons-sort-amount-down"><path d="M20.6 5.3a.8.8 0 0 1-.8.8h-8.4a.9.9 0 0 1-.9-.8.9.9 0 0 1 .9-.9h8.4a.8.8 0 0 1 .8.9zM7.6 4a.9.9 0 0 0-.9.8v12.3l-1.9-1.9a.9.9 0 0 0-1.2 0 .9.9 0 0 0 0 1.2L7 19.8h.9a1 1 0 0 0 .5-.4V4.8a.9.9 0 0 0-.8-.8zm10.5 4.6h-6.7a.9.9 0 0 0-.9.9.9.9 0 0 0 .9.8h6.7a.8.8 0 0 0 .8-.8.8.8 0 0 0-.8-.9zm-1.7 4.2h-5a.9.9 0 0 0-.9.9.9.9 0 0 0 .9.8h5a.9.9 0 0 0 .9-.8.9.9 0 0 0-.9-.9zm-1.7 4.3h-3.3a.8.8 0 1 0 0 1.6h3.3a.8.8 0 1 0 0-1.6z"></path></svg>