<svg height="24" viewBox="0 0 24 24" width="24" xmlns="http://www.w3.org/2000/svg" class="matericons matericons-sort-numeric-up"><path d="M19.1 3v7.7h-1.5V4.5l-1.8 1.2V4.3L17.6 3zm-1.5 18a2.3 2.3 0 0 1-2.6-1.9h1.5a1 1 0 0 0 1.1.7c1.2 0 1.7-1.2 1.6-2.7a2 2 0 0 1-1.9 1.1 2.4 2.4 0 0 1-2.5-2.6 2.7 2.7 0 0 1 2.9-2.6c1.6 0 3 .9 3 3.9S19.6 21 17.6 21zm.1-4a1.2 1.2 0 0 0 1.3-1.4 1.2 1.2 0 0 0-1.3-1.4 1.3 1.3 0 0 0-1.4 1.4 1.3 1.3 0 0 0 1.4 1.4zm-10 3.1a.9.9 0 0 1-.8.8.8.8 0 0 1-.7-.8V6L4.5 7.6a.7.7 0 0 1-1 0 .7.7 0 0 1 0-1l2.9-2.9a.7.7 0 0 1 1 0l2.9 2.9a.7.7 0 0 1-1 1L7.7 6z"></path></svg>