<svg height="24" viewBox="0 0 24 24" width="24" xmlns="http://www.w3.org/2000/svg" class="matericons matericons-star-1"><path d="M21.4 9.8a1.1 1.1 0 0 0-.7-.6l-5.5-.8-2.4-4.9A1 1 0 0 0 12 3a1 1 0 0 0-.8.5L8.8 8.4l-5.5.8a1.1 1.1 0 0 0-.7.6 1 1 0 0 0 .2.9l4 3.9-.9 5.4a.7.7 0 0 0 .3.8.8.8 0 0 0 .9.1l4.9-2.6 4.9 2.6h.4l.5-.2a.7.7 0 0 0 .3-.8l-.9-5.4 4-3.9a1 1 0 0 0 .2-.8zm-5.7 3.9a1.1 1.1 0 0 0-.3.7l.7 4.2-3.7-2h-.8l-3.7 2 .7-4.2a1.1 1.1 0 0 0-.3-.7l-3-3 4.2-.6a1.8 1.8 0 0 0 .7-.5L12 5.8l1.9 3.8a1.5 1.5 0 0 0 .6.5l4.2.6z"></path></svg>