<svg height="24" width="24" viewBox="0 0 24 24" xmlns="http://www.w3.org/2000/svg" aria-hidden="true" class="matericons matericons-sun"><path d="M12 5.8a6.2 6.2 0 1 0 6.2 6.2A6.2 6.2 0 0 0 12 5.8zm0 11A4.9 4.9 0 0 1 7.2 12 4.9 4.9 0 0 1 12 7.2a4.9 4.9 0 0 1 4.8 4.8 4.9 4.9 0 0 1-4.8 4.8zm-.7-13.2V1.7a.7.7 0 1 1 1.4 0v1.9a.7.7 0 0 1-1.4 0zM4.2 5.3a.9.9 0 0 1-.1-1.1.9.9 0 0 1 1.1-.1.1.1 0 0 0 .1.1l1.3 1.3a1.1 1.1 0 0 1 0 1.1 1.1 1.1 0 0 1-1.1 0zm-.6 7.4H1.7a.7.7 0 1 1 0-1.4h1.9a.7.7 0 1 1 0 1.4zm3 4.7a1.1 1.1 0 0 1 0 1.1l-1.3 1.3-.6.2-.5-.2a.8.8 0 0 1 0-1.1l1.3-1.3a1.1 1.1 0 0 1 1.1 0zm6.1 3v1.9a.7.7 0 0 1-1.4 0v-1.9a.7.7 0 0 1 1.4 0zm7.1-1.7a.8.8 0 0 1 0 1.1l-.5.2-.6-.2-1.3-1.3a.8.8 0 0 1 1.1-1.1zM23 12a.7.7 0 0 1-.7.7h-1.9a.7.7 0 0 1 0-1.4h1.9a.7.7 0 0 1 .7.7zm-5.6-5.4a1.1 1.1 0 0 1 0-1.1l1.3-1.3a.9.9 0 0 1 1.1.1.9.9 0 0 1 0 1l-1.3 1.3a1.1 1.1 0 0 1-1.1 0z"></path></svg>