<svg height="24" width="24" viewBox="0 0 24 24" xmlns="http://www.w3.org/2000/svg" aria-hidden="true" class="matericons matericons-tokopedia"><path d="M10.8 12.6a2.2 2.2 0 0 1-2.2 2.2 2.2 2.2 0 0 1-2.2-2.2 2 2 0 0 1 .3-1.1 1 1 0 0 0 1 .7 1 1 0 0 0 1-1.1.8.8 0 0 0-.2-.7h.1a2.2 2.2 0 0 1 2.2 2.2zm10.1-6.9v10.4A5.9 5.9 0 0 1 15 22H3.1V5.7h.7c1.3 0 2.6-.1 3.9 0a4.3 4.3 0 0 1 8.6 0c1.3-.1 2.6 0 3.9 0zm-12 .1a6.8 6.8 0 0 1 3.1.8 10.9 10.9 0 0 1 3.1-.8h.1A3.2 3.2 0 0 0 12 3.2a3.1 3.1 0 0 0-3.1 2.6zm11.3.6c-1.3 0-2.6-.1-3.8 0h-1.2a8 8 0 0 0-3.2.9 8.5 8.5 0 0 0-3.2-.9H7.6c-1.2-.1-2.5 0-3.8 0v14.9H15a5.2 5.2 0 0 0 5.2-5.2V6.4zm-4.9 4a1.4 1.4 0 0 1 .2.7 1 1 0 0 1-1 1.1 1 1 0 0 1-1-.7 2 2 0 0 0-.3 1.1 2.2 2.2 0 0 0 4.4 0 2.2 2.2 0 0 0-2.2-2.2zm.5-2a4.2 4.2 0 0 1 4.2 4.1 4.2 4.2 0 0 1-4.2 4.2 2.9 2.9 0 0 1-1.6-.4l-.3.3-1.5 1.6-.4.4-.4-.4-1.5-1.6-.3-.3a2.9 2.9 0 0 1-1.6.4A4.2 4.2 0 0 1 4 12.5a4.2 4.2 0 0 1 4.2-4.1A4.1 4.1 0 0 1 12 11a4.1 4.1 0 0 1 3.8-2.6zM12 14.1a4.1 4.1 0 0 1-.5.9h1a4.1 4.1 0 0 1-.5-.9zm-.4-1.6a2.8 2.8 0 0 0-.1-.9.4.4 0 0 1-.1-.3c0-.1-.1-.1-.1-.2a.4.4 0 0 1-.1-.3h-.1c0-.1 0-.1-.1-.2v-.2h-.1c0-.1-.1-.1-.1-.2h-.1V10h-.1v-.2H6.1l-.2.2-.2.2a3.3 3.3 0 0 0-1 2.3A3.5 3.5 0 0 0 8.2 16a3.5 3.5 0 0 0 3.4-3.5zm1.9 3.8a1.7 1.7 0 0 0-3 0l1.5 1.6zm2.6-7.2h-2.4v.9h-.3c0 .1-.1.1-.1.2h-.1v.2c-.1.1-.1.1-.1.2h-.2v.2h-.1a2.8 2.8 0 0 0-.1.9 3.5 3.5 0 0 0 3.1 4.3 3.5 3.5 0 0 0 3.5-3.5 2.9 2.9 0 0 0-.2-.9.4.4 0 0 0-.1-.3c0-.1 0-.1-.1-.2 0-.1 0-.2-.1-.2 0-.1-.1-.1-.1-.2h-.1v-.2l-.2-.2-.2-.2-.2-.2h-1.9z"></path></svg>