<svg height="24" width="24" viewBox="0 0 24 24" xmlns="http://www.w3.org/2000/svg" aria-hidden="true" class="matericons matericons-whatsapp"><path d="M12 6.1a5.9 5.9 0 0 0-5.9 5.8 6.2 6.2 0 0 0 .9 3.2l.2.2-.6 2.2 2.2-.6H9a6.1 6.1 0 0 0 3 .8 6 6 0 0 0 6-5.9 5.9 5.9 0 0 0-1.8-4.1A6.1 6.1 0 0 0 12 6.1zm3.5 8.4a1.8 1.8 0 0 1-1.2.8 4.2 4.2 0 0 1-2.2-.4 9.1 9.1 0 0 1-3-2.7 3.5 3.5 0 0 1-.7-1.8A2.3 2.3 0 0 1 9 8.9a.6.6 0 0 1 .5-.2h.3c.1 0 .3-.1.4.3s.5 1.2.6 1.3.1.2 0 .3-.7.6-.5 1a5.4 5.4 0 0 0 2.4 2.1h.4l.5-.7c.1-.2.3-.1.4-.1l1.2.6.4.2a3.9 3.9 0 0 1-.1.8zM19.9 2H4.1A2.2 2.2 0 0 0 2 4.1v15.8A2.2 2.2 0 0 0 4.1 22h15.8a2.2 2.2 0 0 0 2.1-2.1V4.1A2.2 2.2 0 0 0 19.9 2zM12 19a7.7 7.7 0 0 1-3.4-.8l-3.7.9 1-3.6a6.5 6.5 0 0 1-1-3.6 7 7 0 0 1 7.1-7 7 7 0 0 1 5 2 7.3 7.3 0 0 1 2.1 5A7.1 7.1 0 0 1 12 19z"></path></svg>