<svg height="24" viewBox="0 0 24 24" width="24" xmlns="http://www.w3.org/2000/svg" class="matericons matericons-wordpress"><path d="M3.4 12a8.5 8.5 0 0 1 .8-3.5l4.1 11.2A8.5 8.5 0 0 1 3.4 12m14.4-.4a9.7 9.7 0 0 1-.7 2.7l-.8 2.9L13.2 8h1a.4.4 0 0 0-.1-.7H9.6c-.5 0-.5.7-.1.7h.9l1.4 3.6-1.9 5.7L6.7 8h1a.4.4 0 0 0 0-.7H4.8A8.8 8.8 0 0 1 12 3.4a8.6 8.6 0 0 1 5.8 2.3h-.1a1.5 1.5 0 0 0-1.5 1.5 3.6 3.6 0 0 0 .9 2 4.9 4.9 0 0 1 .7 2.4m-5.7 1.2l2.7 7.2h.1a9.3 9.3 0 0 1-2.9.5 6.7 6.7 0 0 1-2.4-.4l2.5-7.4m7.4-4.9a8.1 8.1 0 0 1 1.1 4.2 8.5 8.5 0 0 1-4.3 7.4l2.6-7.6a7.9 7.9 0 0 0 .7-3v-.9M12 2A10 10 0 1 1 2 12 10 10 0 0 1 12 2m0 19.5a9.4 9.4 0 0 0 9.5-9.5A9.4 9.4 0 0 0 12 2.5 9.4 9.4 0 0 0 2.5 12a9.4 9.4 0 0 0 9.5 9.5z"></path></svg>