<svg height="24" viewBox="0 0 24 24" width="24" xmlns="http://www.w3.org/2000/svg" class="matericons matericons-xiaomi-3"><path d="M13.26 10.44a1.72 1.72 0 0 0-1.21.34 1.73 1.73 0 0 0-.4 1.24 1.67 1.67 0 0 0 .35 1.23 1.7 1.7 0 0 0 1.22.36 1.67 1.67 0 0 0 1.2-.35 1.66 1.66 0 0 0 .4-1.24 1.61 1.61 0 0 0-.39-1.22 1.69 1.69 0 0 0-1.17-.36zm.74 2.34a.92.92 0 0 1-.69.21.92.92 0 0 1-.69-.21 1.06 1.06 0 0 1-.22-.78 1.09 1.09 0 0 1 .17-.75.88.88 0 0 1 .69-.21.88.88 0 0 1 .69.21 1 1 0 0 1 .18.75 1.12 1.12 0 0 1-.13.78zM7 10.5h-.73a.05.05 0 0 0 0 .05v3h.65V10.5zM4.2 12l1.15-1.42a.06.06 0 0 0 0-.07h-.92l-.76 1-.74-1h-.88L3.18 12 2 13.47v.07h.86a.05.05 0 0 0 .05 0l.78-1 .73 1h.82l.05-.05zM20 10.72a1.56 1.56 0 0 0-1-.27 1.9 1.9 0 0 0-.9.18h-.12a1.94 1.94 0 0 0-.92-.18 1.63 1.63 0 0 0-1 .24c-.21.18-.26.42-.26.91v1.95h.65l.05-.05v-1.56a2.13 2.13 0 0 1 .05-.69c0-.08.12-.18.47-.18s.52 0 .59.22a1.1 1.1 0 0 1 0 .18v2a.05.05 0 0 0 .05.05h.65l.05-.05v-2a.57.57 0 0 1 0-.18c.06-.19.16-.22.58-.22s.43.1.48.18a2.16 2.16 0 0 1 .05.69v1.57h.69v-1.78c.06-.52.05-.73-.16-1.01zm-9.3.18a1.55 1.55 0 0 0-1.4-.5 3.6 3.6 0 0 0-1.07.19c-.06 0 0 .07 0 .11v.5c0 .11.06.07.11.06a4.08 4.08 0 0 1 .9-.22c.33 0 .79 0 .91.19a.82.82 0 0 1 .07.37 5.57 5.57 0 0 0-.82 0 2.43 2.43 0 0 0-1 .18.69.69 0 0 0-.41.41 1.28 1.28 0 0 0-.06.51.88.88 0 0 0 .33.65 2 2 0 0 0 1.28.28c.9 0 1.14-.32 1.26-.52a2.66 2.66 0 0 0 .17-1.26 1.87 1.87 0 0 0-.3-.95zm-.59 1.87c-.08.18-.39.2-.57.21a1.55 1.55 0 0 1-.74-.08.37.37 0 0 1-.19-.3.29.29 0 0 1 .05-.24c.12-.16.43-.19.74-.2a5.1 5.1 0 0 1 .78 0 1.65 1.65 0 0 1-.1.61zM22 10.5h-.7l-.05.05v2.95l.05.05h.7V10.5z"></path></svg>