<svg height="24" viewBox="0 0 24 24" width="24" xmlns="http://www.w3.org/2000/svg" class="matericons matericons-zte"><path d="M2.58 16.82a.65.65 0 0 1-.5-.34.66.66 0 0 1 0-.58l1.49-2.35 2.12-3.33c.36-.56.67-1.06.68-1.09a.47.47 0 0 0 0-.4.52.52 0 0 0-.18-.18c-.11-.06 0-.06-1.69-.06s-1.59 0-1.75-.07a.66.66 0 0 1-.34-.77.7.7 0 0 1 .34-.41c.15-.08-.08-.07 2.91-.07h2.7a.66.66 0 0 1 .43.43.53.53 0 0 1 0 .2.55.55 0 0 1-.08.32s-1 1.54-2.14 3.36-2.12 3.33-2.13 3.36a.74.74 0 0 0 0 .26.49.49 0 0 0 .26.32h1.82c1.94 0 1.77 0 1.94.08a.64.64 0 0 1 .27.27.66.66 0 0 1-.22.87.53.53 0 0 1-.28.1H2.58zm14.28 0a1 1 0 0 1-.28-.12.88.88 0 0 1-.19-.24c-.07-.15-.06.26-.06-4.49V7.61a.9.9 0 0 1 .18-.28.88.88 0 0 1 .31-.15h4.65a.5.5 0 0 1 .3.18.46.46 0 0 1 .13.16.65.65 0 0 1 .1.48.45.45 0 0 1-.14.24.59.59 0 0 1-.27.18h-1.68a13.58 13.58 0 0 0-1.61 0 .71.71 0 0 0-.46.49v1.8a.69.69 0 0 0 .49.5 9.49 9.49 0 0 0 1.33 0c1.4 0 1.33 0 1.48.07a.69.69 0 0 1 .34.41.65.65 0 0 1-.43.82h-2.77a.68.68 0 0 0-.39.33c-.07.16-.07.12-.07 1.06a5.32 5.32 0 0 0 0 .92.66.66 0 0 0 .49.48 12.42 12.42 0 0 0 1.52 0h1.56a.64.64 0 0 1 .61.7.42.42 0 0 1 0 .27.64.64 0 0 1-.44.5h-4.7zm-4.42 0a.73.73 0 0 1-.23-.09 1 1 0 0 1-.29-.28l-.06-.14V9a.67.67 0 0 0-.44-.47h-.8a3.52 3.52 0 0 1-.76 0A.67.67 0 0 1 9.35 8a.86.86 0 0 1 0-.32.67.67 0 0 1 .42-.46h5.51a.85.85 0 0 1 .32.15.68.68 0 0 1 .18.29.41.41 0 0 1 0 .22.39.39 0 0 1 0 .21.71.71 0 0 1-.43.42 3.41 3.41 0 0 1-.77 0c-.8 0-.75 0-.9.09a.67.67 0 0 0-.33.4v7.28a.74.74 0 0 1-.53.54 1.22 1.22 0 0 1-.33 0z"></path></svg>