<?xml version="1.0" encoding="UTF-8"?><svg id="bootstrap-outline" xmlns="http://www.w3.org/2000/svg" viewBox="0 0 24 24"><path id="archive" d="M3,5.25c0-.62,.5-1.12,1.12-1.12h15.75c.62,0,1.12,.5,1.12,1.12v2.25c0,.62-.5,1.12-1.12,1.12v8.44c0,1.55-1.26,2.81-2.81,2.81H6.94c-1.55,0-2.81-1.26-2.81-2.81V8.62c-.62,0-1.12-.5-1.12-1.12v-2.25Zm2.25,3.38v8.44c0,.93,.76,1.69,1.69,1.69h10.12c.93,0,1.69-.76,1.69-1.69V8.62H5.25Zm14.62-3.38H4.12v2.25h15.75v-2.25Zm-11.25,6.19c0-.31,.25-.56,.56-.56h5.62c.31,0,.56,.25,.56,.56s-.25,.56-.56,.56h-5.62c-.31,0-.56-.25-.56-.56Z"/><path id="arrow-left" d="M20,12c0-.32-.26-.57-.57-.57H5.95l3.6-3.6c.22-.22,.22-.59,0-.81-.22-.22-.59-.22-.81,0l-4.57,4.57c-.22,.22-.22,.58,0,.81,0,0,0,0,0,0l4.57,4.57c.22,.22,.59,.22,.81,0s.22-.59,0-.81l-3.6-3.6h13.48c.32,0,.57-.26,.57-.57Z" style="fill-rule:evenodd;"/><path id="arrow-right" d="M4,12c0,.32,.26,.57,.57,.57h13.48l-3.6,3.6c-.22,.22-.22,.59,0,.81,.22,.22,.59,.22,.81,0l4.57-4.57c.22-.22,.22-.58,0-.81,0,0,0,0,0,0l-4.57-4.57c-.22-.22-.59-.22-.81,0s-.22,.59,0,.81l3.6,3.6H4.57c-.32,0-.57,.26-.57,.57Z" style="fill-rule:evenodd;"/><path id="arrow-top" d="M12,20c.32,0,.57-.26,.57-.57V5.95l3.6,3.6c.22,.22,.59,.22,.81,0,.22-.22,.22-.59,0-.81l-4.57-4.57c-.22-.22-.58-.22-.81,0,0,0,0,0,0,0l-4.57,4.57c-.22,.22-.22,.59,0,.81s.59,.22,.81,0l3.6-3.6v13.48c0,.32,.26,.57,.57,.57Z" style="fill-rule:evenodd;"/><path id="bookmark" d="M5.25,20.44V5.25c0-1.24,1.01-2.25,2.25-2.25h9c1.24,0,2.25,1.01,2.25,2.25v15.19c0,.31-.25,.56-.56,.56-.09,0-.19-.02-.27-.07l-5.92-3.23-5.92,3.23c-.27,.15-.61,.05-.76-.22-.05-.08-.07-.18-.07-.27ZM12.18,7.61c-.05-.1-.17-.14-.27-.09-.04,.02-.07,.05-.09,.09l-.71,1.45c-.03,.06-.09,.1-.15,.11l-1.6,.23c-.11,.02-.18,.12-.17,.23,0,.04,.03,.08,.06,.11l1.15,1.13s.07,.11,.06,.18l-.27,1.59c-.02,.11,.06,.21,.16,.23,.04,0,.09,0,.13-.02l1.43-.75c.06-.03,.13-.03,.19,0l1.43,.75c.1,.05,.22,.01,.27-.09,.02-.04,.03-.08,.02-.12l-.27-1.59c-.01-.06,0-.13,.06-.18l1.16-1.13c.08-.08,.08-.2,0-.28-.03-.03-.07-.05-.11-.06l-1.6-.23c-.07,0-.12-.05-.15-.11l-.71-1.44Z" style="fill-rule:evenodd;"/><path id="bookmark-add" d="M11.82,7.61c.05-.1,.17-.14,.27-.09,.04,.02,.07,.05,.09,.09l.71,1.45c.03,.06,.09,.1,.15,.11l1.6,.23c.16,.02,.23,.23,.11,.34l-1.15,1.13s-.07,.11-.06,.18l.27,1.59c.02,.11-.06,.21-.16,.23-.04,0-.09,0-.13-.02l-1.43-.75c-.06-.03-.13-.03-.19,0l-1.43,.75c-.1,.05-.22,.01-.27-.09-.02-.04-.03-.08-.02-.12l.27-1.59c.01-.06,0-.13-.06-.18l-1.16-1.13c-.08-.08-.08-.2,0-.28,.03-.03,.07-.05,.11-.06l1.6-.23c.07,0,.12-.05,.15-.11l.71-1.45Zm-6.57-2.36c0-1.24,1.01-2.25,2.25-2.25h9c1.24,0,2.25,1.01,2.25,2.25v15.19c0,.31-.25,.56-.56,.56-.11,0-.22-.03-.31-.09l-5.88-3.17-5.88,3.17c-.26,.17-.61,.1-.78-.16-.06-.09-.09-.2-.09-.31V5.25Zm2.25-1.13c-.62,0-1.13,.5-1.13,1.13v14.14l5.31-2.79c.19-.13,.43-.13,.62,0l5.31,2.79V5.25c0-.62-.5-1.13-1.13-1.13H7.5Z"/><path id="check" d="M19.8,6.64c.27,.27,.27,.71,0,.98,0,0,0,0,0,0l-9.74,9.74c-.27,.27-.71,.27-.98,0,0,0,0,0,0,0l-4.87-4.87c-.27-.27-.27-.71,0-.98,.27-.27,.71-.27,.98,0l4.38,4.38L18.81,6.64c.27-.27,.71-.27,.98,0,0,0,0,0,0,0Z"/><path id="clear" d="M9.69,8.72c-.22,.22-.22,.59,0,.81,0,0,0,0,0,0l2.46,2.46-2.46,2.46c-.22,.22-.22,.59,0,.81,.22,.22,.59,.22,.81,0h0l2.46-2.46,2.46,2.46c.22,.22,.59,.22,.81,0,.22-.22,.22-.59,0-.81l-2.46-2.46,2.46-2.46c.22-.22,.22-.59,0-.81-.22-.22-.59-.22-.81,0l-2.46,2.46-2.46-2.46c-.22-.22-.59-.22-.81,0h0ZM18.7,3.97c1.27,0,2.3,1.03,2.3,2.3v11.48c0,1.27-1.03,2.3-2.3,2.3H10.58c-.67,0-1.31-.29-1.74-.8L3.28,12.75c-.37-.43-.37-1.06,0-1.49l5.56-6.48c.44-.51,1.07-.8,1.74-.8,0,0,8.13,0,8.13,0Zm-8.13,1.15c-.34,0-.65,.15-.87,.4l-5.56,6.48,5.56,6.48c.22,.25,.54,.4,.87,.4h8.13c.63,0,1.15-.51,1.15-1.15V6.26c0-.63-.51-1.15-1.15-1.15H10.58Z"/><path id="clear_rtl" d="M14.31,15.28c.22-.22,.22-.59,0-.81,0,0,0,0,0,0l-2.46-2.46,2.46-2.46c.22-.22,.22-.59,0-.81-.22-.22-.59-.22-.81,0h0l-2.46,2.46-2.46-2.46c-.22-.22-.59-.22-.81,0-.22,.22-.22,.59,0,.81l2.46,2.46-2.46,2.46c-.22,.22-.22,.59,0,.81,.22,.22,.59,.22,.81,0l2.46-2.46,2.46,2.46c.22,.22,.59,.22,.81,0h0Zm-9.01,4.76c-1.27,0-2.3-1.03-2.3-2.3V6.26c0-1.27,1.03-2.3,2.3-2.3H13.42c.67,0,1.31,.29,1.74,.8l5.56,6.49c.37,.43,.37,1.06,0,1.49l-5.56,6.48c-.44,.51-1.07,.8-1.74,.8,0,0-8.13,0-8.13,0Zm8.13-1.15c.34,0,.65-.15,.87-.4l5.56-6.48-5.56-6.48c-.22-.25-.54-.4-.87-.4H5.3c-.63,0-1.15,.51-1.15,1.15v11.48c0,.63,.51,1.15,1.15,1.15H13.42Z"/><path id="close" d="M5.29,5.29c.39-.39,1.02-.39,1.41,0,0,0,0,0,0,0l5.29,5.29,5.29-5.29c.39-.39,1.02-.39,1.42,0s.39,1.02,0,1.42l-5.29,5.29,5.29,5.29c.39,.39,.39,1.02,0,1.42s-1.02,.39-1.42,0l-5.29-5.29-5.29,5.29c-.39,.39-1.02,.39-1.42,0s-.39-1.02,0-1.42l5.29-5.29L5.29,6.71c-.39-.39-.39-1.02,0-1.41,0,0,0,0,0,0Z"/><path id="comment" d="M19.5,3.67c.69,0,1.25,.56,1.25,1.25V14.92c0,.69-.56,1.25-1.25,1.25h-3.12c-.79,0-1.53,.37-2,1l-2.37,3.17-2.38-3.17c-.47-.63-1.21-1-2-1h-3.12c-.69,0-1.25-.56-1.25-1.25V4.92c0-.69,.56-1.25,1.25-1.25h15ZM4.5,2.42c-1.38,0-2.5,1.12-2.5,2.5V14.92c0,1.38,1.12,2.5,2.5,2.5h3.12c.39,0,.76,.19,1,.5l2.38,3.17c.41,.55,1.2,.66,1.75,.25,.09-.07,.18-.16,.25-.25l2.37-3.17c.24-.31,.61-.5,1-.5h3.12c1.38,0,2.5-1.12,2.5-2.5V4.92c0-1.38-1.12-2.5-2.5-2.5H4.5Zm3.75,7.5c0,.69-.56,1.25-1.25,1.25s-1.25-.56-1.25-1.25,.56-1.25,1.25-1.25,1.25,.56,1.25,1.25Zm5,0c0,.69-.56,1.25-1.25,1.25s-1.25-.56-1.25-1.25,.56-1.25,1.25-1.25,1.25,.56,1.25,1.25Zm5,0c0,.69-.56,1.25-1.25,1.25s-1.25-.56-1.25-1.25,.56-1.25,1.25-1.25,1.25,.56,1.25,1.25Z"/><path id="comment-text" d="M19.5,3.67c.69,0,1.25,.56,1.25,1.25V14.92c0,.69-.56,1.25-1.25,1.25h-3.12c-.79,0-1.53,.37-2,1l-2.37,3.17-2.38-3.17c-.47-.63-1.21-1-2-1h-3.12c-.69,0-1.25-.56-1.25-1.25V4.92c0-.69,.56-1.25,1.25-1.25h15ZM4.5,2.42c-1.38,0-2.5,1.12-2.5,2.5V14.92c0,1.38,1.12,2.5,2.5,2.5h3.12c.39,0,.76,.19,1,.5l2.38,3.17c.41,.55,1.2,.66,1.75,.25,.09-.07,.18-.16,.25-.25l2.37-3.17c.24-.31,.61-.5,1-.5h3.12c1.38,0,2.5-1.12,2.5-2.5V4.92c0-1.38-1.12-2.5-2.5-2.5H4.5Zm1.25,4.38c0-.35,.28-.62,.62-.62h11.25c.35,0,.62,.28,.62,.62s-.28,.62-.62,.62H6.38c-.35,0-.62-.28-.62-.62Zm0,3.12c0-.35,.28-.62,.62-.62h11.25c.35,0,.62,.28,.62,.62s-.28,.62-.62,.62H6.38c-.35,0-.62-.28-.62-.62Zm0,3.12c0-.35,.28-.62,.62-.62h6.25c.35,0,.62,.28,.62,.62s-.28,.62-.62,.62H6.38c-.35,0-.62-.28-.62-.62Z"/><path id="copy" d="M2,4.5c0-1.38,1.12-2.5,2.5-2.5H14.5c1.38,0,2.5,1.12,2.5,2.5v2.5h2.5c1.38,0,2.5,1.12,2.5,2.5v10c0,1.38-1.12,2.5-2.5,2.5H9.5c-1.38,0-2.5-1.12-2.5-2.5v-2.5h-2.5c-1.38,0-2.5-1.12-2.5-2.5V4.5Zm2.5-1.25c-.69,0-1.25,.56-1.25,1.25V14.5c0,.69,.56,1.25,1.25,1.25H14.5c.69,0,1.25-.56,1.25-1.25V4.5c0-.69-.56-1.25-1.25-1.25H4.5Z"/><path id="dark" d="M9.5,2.35c.25,.3,.29,.73,.1,1.07-.72,1.33-1.1,2.81-1.1,4.33,0,5.03,4.1,9.1,9.15,9.1,.66,0,1.3-.07,1.92-.2,.39-.08,.78,.07,1.01,.4,.24,.34,.23,.8-.04,1.12-1.99,2.44-4.97,3.85-8.11,3.85-5.76,0-10.43-4.64-10.43-10.36,0-4.31,2.64-8,6.41-9.56,.39-.16,.83-.05,1.1,.27Zm-1.43,1.29c-2.95,1.58-4.79,4.65-4.79,8,0,5.03,4.1,9.1,9.15,9.1,2.44,0,4.79-.97,6.51-2.7-.42,.05-.85,.08-1.29,.08-5.76,0-10.43-4.64-10.43-10.36,0-1.46,.3-2.85,.85-4.11Zm7.42,2.3c.05-.14,.2-.22,.34-.17,.08,.03,.15,.09,.17,.17l.48,1.45c.22,.65,.72,1.16,1.37,1.37l1.45,.48c.14,.05,.22,.2,.17,.34-.03,.08-.09,.15-.17,.17l-1.45,.48c-.65,.22-1.16,.72-1.37,1.37l-.48,1.45c-.05,.14-.2,.22-.34,.17-.08-.03-.15-.09-.17-.17l-.48-1.45c-.22-.65-.72-1.16-1.37-1.37l-1.45-.48c-.14-.05-.22-.2-.17-.34,.03-.08,.09-.15,.17-.17l1.45-.48c.65-.22,1.16-.72,1.37-1.37,0,0,.48-1.45,.48-1.45Zm3.84-3.81c.03-.09,.14-.14,.23-.11,.05,.02,.09,.06,.11,.11l.32,.97c.14,.43,.48,.77,.92,.92l.97,.32c.09,.03,.14,.14,.11,.23-.02,.05-.06,.09-.11,.11l-.97,.32c-.43,.14-.77,.48-.92,.92l-.32,.97c-.03,.09-.14,.14-.23,.11-.05-.02-.09-.06-.11-.11l-.32-.97c-.14-.43-.48-.77-.92-.92l-.97-.32c-.09-.03-.14-.14-.11-.23,.02-.05,.06-.09,.11-.11l.97-.32c.43-.14,.77-.48,.92-.92l.32-.97h0Z"/><path id="download" d="M2.62,14.44c.35,0,.62,.28,.62,.62v3.12c0,.69,.56,1.25,1.25,1.25h15c.69,0,1.25-.56,1.25-1.25v-3.12c0-.35,.28-.62,.62-.62s.62,.28,.62,.62v3.12c0,1.38-1.12,2.5-2.5,2.5H4.5c-1.38,0-2.5-1.12-2.5-2.5v-3.12c0-.35,.28-.62,.62-.62Zm8.93,2.44c.24,.24,.64,.24,.88,0,0,0,0,0,0,0l3.75-3.75c.24-.24,.24-.64,0-.89s-.64-.24-.89,0l-2.68,2.68V3.94c0-.35-.28-.62-.62-.62s-.62,.28-.62,.62V14.93l-2.68-2.68c-.24-.24-.64-.24-.89,0s-.24,.64,0,.89l3.75,3.75Z"/><path id="home" d="M12.44,3.56c-.24-.24-.63-.24-.87,0,0,0,0,0,0,0l-7.38,7.38c-.12,.12-.18,.27-.18,.44v8.62c0,.34,.28,.62,.62,.62h5.54c.34,0,.62-.28,.62-.62v-4.92h2.46v4.92c0,.34,.28,.62,.62,.62h5.54c.34,0,.62-.28,.62-.62V11.39c0-.16-.06-.32-.18-.44l-1.67-1.67V5.23c0-.34-.28-.62-.62-.62h-1.23c-.34,0-.62,.28-.62,.62v1.59l-3.26-3.26Zm-7.2,15.82v-7.75l6.77-6.77,6.77,6.77v7.75h-4.31v-4.92c0-.34-.28-.62-.62-.62h-3.69c-.34,0-.62,.28-.62,.62v4.92H5.23Z"/><path id="label" d="M12.15,19.86c-.02,.1-.02,.2-.02,.3,0,.51,.35,.84,.83,.84,.44,0,.82-.29,.92-.79l.92-4.49h2c.7,0,1.02-.39,1.02-.91s-.31-.88-1.02-.88h-1.64l.86-4.19h2.1c.71,0,1.03-.38,1.03-.91s-.31-.87-1.03-.87h-1.74l.79-3.83c.02-.09,.02-.18,.03-.27,0-.47-.37-.85-.84-.86,0,0-.01,0-.02,0-.43,0-.81,.29-.9,.71l-.87,4.24h-3.71l.79-3.83c.01-.07,.02-.2,.02-.27,0-.47-.37-.85-.84-.86,0,0-.02,0-.03,0-.43,0-.8,.3-.88,.71l-.87,4.24h-1.85c-.71,0-1.02,.37-1.02,.88s.31,.9,1.02,.9h1.5l-.86,4.19h-1.99c-.7,0-1.01,.36-1.01,.88s.31,.91,1.01,.91h1.62l-.86,4.14c-.01,.07-.02,.21-.02,.3,0,.51,.35,.84,.83,.84,.44,0,.82-.29,.92-.79l.92-4.49h3.72l-.86,4.14h0Zm-1.66-10.15h3.76l-.86,4.26h-3.79l.88-4.26h0Z"/><path id="light" d="M12,15.75c-2.07,0-3.75-1.68-3.75-3.75s1.68-3.75,3.75-3.75,3.75,1.68,3.75,3.75-1.68,3.75-3.75,3.75Zm0,1.25c2.76,0,5-2.24,5-5s-2.24-5-5-5-5,2.24-5,5,2.24,5,5,5Zm0-15c.35,0,.62,.28,.62,.62v2.5c0,.35-.28,.62-.62,.62s-.62-.28-.62-.62V2.62c0-.35,.28-.62,.62-.62Zm0,16.25c.35,0,.62,.28,.62,.62v2.5c0,.35-.28,.62-.62,.62s-.62-.28-.62-.62v-2.5c0-.35,.28-.62,.62-.62Zm10-6.25c0,.35-.28,.62-.62,.62h-2.5c-.35,0-.62-.28-.62-.62s.28-.62,.62-.62h2.5c.35,0,.62,.28,.62,.62Zm-16.25,0c0,.35-.28,.62-.62,.62H2.62c-.35,0-.62-.28-.62-.62s.28-.62,.62-.62h2.5c.35,0,.62,.28,.62,.62Zm13.32-7.07c.24,.24,.24,.64,0,.88l-1.77,1.77c-.24,.24-.64,.24-.88,0-.24-.24-.24-.64,0-.88l1.77-1.77c.24-.24,.64-.24,.88,0ZM7.58,16.42c.24,.24,.24,.64,0,.88l-1.77,1.77c-.25,.24-.64,.23-.88-.02-.23-.24-.23-.63,0-.87l1.77-1.77c.24-.24,.64-.24,.88,0Zm11.49,2.65c-.24,.24-.64,.24-.88,0l-1.77-1.77c-.24-.25-.23-.64,.02-.88,.24-.23,.63-.23,.87,0l1.77,1.77c.24,.24,.24,.64,0,.88ZM7.58,7.58c-.24,.24-.64,.24-.88,0l-1.77-1.77c-.25-.24-.26-.64-.02-.88,.24-.25,.64-.26,.88-.02,0,0,.01,.01,.02,.02l1.77,1.77c.24,.24,.24,.64,0,.88,0,0,0,0,0,0Z"/><path id="link" d="M6.66,10.44l-2.23,2.23c-1.9,1.9-1.9,4.99,0,6.9s4.99,1.9,6.9,0h0l2.97-2.97c1.9-1.9,1.9-4.99,0-6.9-.39-.39-.85-.71-1.35-.95l-.95,.95c-.1,.1-.18,.21-.25,.32,1.73,.5,2.72,2.3,2.23,4.02-.15,.53-.44,1.01-.83,1.4l-2.97,2.97c-1.27,1.27-3.33,1.27-4.6,0-1.27-1.27-1.27-3.33,0-4.6l1.29-1.29c-.18-.68-.25-1.39-.21-2.09h0Zm3.04-3.04c-1.9,1.9-1.9,4.99,0,6.9,.39,.39,.85,.71,1.35,.95l1.26-1.26c-1.73-.47-2.76-2.25-2.3-3.98,.15-.55,.44-1.05,.84-1.46l2.97-2.97c1.27-1.27,3.33-1.27,4.6,0s1.27,3.33,0,4.6h0l-1.29,1.29c.18,.68,.25,1.39,.21,2.09l2.23-2.23c1.9-1.9,1.9-4.99,0-6.9-1.9-1.9-4.99-1.9-6.9,0l-2.97,2.97Z"/><path id="link-open" d="M12.72,6.94c0-.31-.25-.56-.56-.56H4.69c-.93,0-1.69,.76-1.69,1.69v11.25c0,.93,.76,1.69,1.69,1.69H15.94c.93,0,1.69-.76,1.69-1.69h0v-7.47c0-.31-.25-.56-.56-.56s-.56,.25-.56,.56v7.47c0,.31-.25,.56-.56,.56H4.69c-.31,0-.56-.25-.56-.56V8.06c0-.31,.25-.56,.56-.56h7.47c.31,0,.56-.25,.56-.56Zm8.28-3.38c0-.31-.25-.56-.56-.56h-5.62c-.31,0-.56,.25-.56,.56s.25,.56,.56,.56h4.27L9.91,13.29c-.22,.22-.22,.58,0,.8s.58,.22,.8,0L19.88,4.92v4.27c0,.31,.25,.56,.56,.56s.56-.25,.56-.56V3.56Z"/><path id="list" d="M8.14,16.9c0-.36,.29-.64,.64-.64h11.57c.36,0,.64,.29,.64,.64s-.29,.64-.64,.64H8.79c-.36,0-.64-.29-.64-.64Zm0-5.14c0-.36,.29-.64,.64-.64h11.57c.36,0,.64,.29,.64,.64s-.29,.64-.64,.64H8.79c-.36,0-.64-.29-.64-.64Zm0-5.14c0-.36,.29-.64,.64-.64h11.57c.36,0,.64,.29,.64,.64s-.29,.64-.64,.64H8.79c-.36,0-.64-.29-.64-.64ZM3.92,17.37v-.61h.37c.28,0,.47-.18,.47-.41s-.2-.4-.46-.4c-.29,0-.47,.2-.48,.4h-.76c.02-.6,.48-1.01,1.27-1.01,.76,0,1.23,.37,1.23,.9,0,.38-.26,.7-.63,.76v.04c.42,.03,.74,.39,.73,.81,0,.69-.65,1.03-1.35,1.03-.84,0-1.29-.48-1.3-1.02h.75c.01,.23,.24,.39,.54,.4,.33,0,.55-.19,.54-.45,0-.25-.2-.45-.53-.45h-.38Zm0-6.04h-.78v-.04c0-.52,.38-1.09,1.23-1.09,.75,0,1.23,.42,1.23,.97,0,.5-.33,.79-.61,1.09l-.69,.74v.04h1.36v.65H3.18v-.51l1.23-1.27c.18-.18,.38-.39,.38-.65,0-.23-.19-.41-.44-.41-.23,0-.43,.17-.44,.41,0,0,0,.02,0,.03,0,0,0,.05,0,.05Zm1.1-2.78h-.82v-2.67h-.04l-.77,.54v-.73l.81-.57h.82v3.43Z"/><path id="lock" d="M12,3.25c1.38,0,2.5,1.12,2.5,2.5v5h-5V5.75c0-1.38,1.12-2.5,2.5-2.5Zm3.75,7.5V5.75c0-2.07-1.68-3.75-3.75-3.75s-3.75,1.68-3.75,3.75v5c-1.38,0-2.5,1.12-2.5,2.5v6.25c0,1.38,1.12,2.5,2.5,2.5h7.5c1.38,0,2.5-1.12,2.5-2.5v-6.25c0-1.38-1.12-2.5-2.5-2.5Zm-7.5,1.25h7.5c.69,0,1.25,.56,1.25,1.25v6.25c0,.69-.56,1.25-1.25,1.25h-7.5c-.69,0-1.25-.56-1.25-1.25v-6.25c0-.69,.56-1.25,1.25-1.25Z"/><path id="menu" d="M3,18.55c0-.45,.37-.82,.82-.82H20.18c.45,0,.82,.37,.82,.82s-.37,.82-.82,.82H3.82c-.45,0-.82-.37-.82-.82Zm0-6.55c0-.45,.37-.82,.82-.82H20.18c.45,0,.82,.37,.82,.82s-.37,.82-.82,.82H3.82c-.45,0-.82-.37-.82-.82Zm0-6.55c0-.45,.37-.82,.82-.82H20.18c.45,0,.82,.37,.82,.82s-.37,.82-.82,.82H3.82c-.45,0-.82-.37-.82-.82Z" style="fill-rule:evenodd;"/><path id="menu-more" d="M5.85,7.85c-1.02,0-1.85-.83-1.85-1.85s.83-1.85,1.85-1.85,1.85,.83,1.85,1.85-.83,1.85-1.85,1.85Zm6.15,0c-1.02,0-1.85-.83-1.85-1.85s.83-1.85,1.85-1.85,1.85,.83,1.85,1.85-.83,1.85-1.85,1.85Zm6.15,0c-1.02,0-1.85-.83-1.85-1.85s.83-1.85,1.85-1.85,1.85,.83,1.85,1.85-.83,1.85-1.85,1.85ZM5.85,19.85c-1.02,0-1.85-.83-1.85-1.85s.83-1.85,1.85-1.85,1.85,.83,1.85,1.85-.83,1.85-1.85,1.85Zm6.15,0c-1.02,0-1.85-.83-1.85-1.85s.83-1.85,1.85-1.85,1.85,.83,1.85,1.85-.83,1.85-1.85,1.85Zm6.15,0c-1.02,0-1.85-.83-1.85-1.85s.83-1.85,1.85-1.85,1.85,.83,1.85,1.85-.83,1.85-1.85,1.85ZM5.85,13.85c-1.02,0-1.85-.83-1.85-1.85s.83-1.85,1.85-1.85,1.85,.83,1.85,1.85-.83,1.85-1.85,1.85Zm6.15,0c-1.02,0-1.85-.83-1.85-1.85s.83-1.85,1.85-1.85,1.85,.83,1.85,1.85-.83,1.85-1.85,1.85Zm6.15,0c-1.02,0-1.85-.83-1.85-1.85s.83-1.85,1.85-1.85,1.85,.83,1.85,1.85-.83,1.85-1.85,1.85Z"/><path id="more" d="M5.85,13.85c-1.02,0-1.85-.83-1.85-1.85s.83-1.85,1.85-1.85,1.85,.83,1.85,1.85-.83,1.85-1.85,1.85Zm6.15,0c-1.02,0-1.85-.83-1.85-1.85s.83-1.85,1.85-1.85,1.85,.83,1.85,1.85-.83,1.85-1.85,1.85Zm6.15,0c-1.02,0-1.85-.83-1.85-1.85s.83-1.85,1.85-1.85,1.85,.83,1.85,1.85-.83,1.85-1.85,1.85Z"/><path id="more-vertical" d="M10.15,5.85c0-1.02,.83-1.85,1.85-1.85s1.85,.83,1.85,1.85-.83,1.85-1.85,1.85-1.85-.83-1.85-1.85Zm0,6.15c0-1.02,.83-1.85,1.85-1.85s1.85,.83,1.85,1.85-.83,1.85-1.85,1.85-1.85-.83-1.85-1.85Zm0,6.15c0-1.02,.83-1.85,1.85-1.85s1.85,.83,1.85,1.85-.83,1.85-1.85,1.85-1.85-.83-1.85-1.85Z"/><path id="page" d="M8.88,10.75c-.35,0-.62,.28-.62,.63s.28,.62,.62,.62h6.25c.35,0,.62-.28,.62-.62s-.28-.63-.62-.63h-6.25Zm-.62,3.12c0-.35,.28-.62,.62-.62h6.25c.35,0,.62,.28,.62,.62s-.28,.62-.62,.62h-6.25c-.35,0-.62-.28-.62-.62Zm0,2.5c0-.35,.28-.62,.62-.62h2.5c.35,0,.62,.28,.62,.62s-.28,.62-.62,.62h-2.5c-.35,0-.62-.28-.62-.62ZM13.88,2H7c-1.38,0-2.5,1.12-2.5,2.5v15c0,1.38,1.12,2.5,2.5,2.5h10c1.38,0,2.5-1.12,2.5-2.5V7.62L13.88,2Zm0,1.25v2.5c0,1.04,.84,1.88,1.88,1.88h2.5v11.88c0,.69-.56,1.25-1.25,1.25H7c-.69,0-1.25-.56-1.25-1.25V4.5c0-.69,.56-1.25,1.25-1.25h6.88Z"/><path id="pin" d="M14.2,2c.19,0,.37,.07,.51,.21l7.09,7.09c.28,.28,.28,.73,0,1.01-.69,.69-1.53,.84-2.15,.84-.25,0-.48-.03-.66-.06l-4.49,4.49c.12,.48,.19,.96,.23,1.45,.07,1.01-.05,2.42-1.03,3.4-.28,.28-.73,.28-1.01,0l-4.05-4.05-4.56,4.56c-.28,.28-1.75,1.29-2.02,1.01-.28-.28,.73-1.75,1.01-2.02l4.56-4.56L3.57,11.32c-.28-.28-.28-.73,0-1.01,.99-.99,2.4-1.1,3.4-1.03,.49,.03,.97,.11,1.45,.23l4.49-4.49c-.04-.22-.06-.44-.06-.66,0-.62,.15-1.46,.84-2.15,.13-.13,.32-.21,.51-.21Zm.17,3.02h0s0,0,0,0Zm0,0h0c.08,.26,.02,.54-.17,.73l-5.06,5.06c-.19,.19-.47,.26-.73,.17h-.02c-.14-.05-.27-.08-.41-.11-.36-.08-.73-.14-1.1-.17-.6-.04-1.2,.01-1.68,.21l7.89,7.89c.2-.49,.25-1.08,.21-1.68-.04-.51-.13-1.02-.27-1.51v-.02s0,0,0,0c-.09-.26-.02-.54,.17-.73l5.06-5.06c.2-.2,.5-.26,.76-.16l.14,.03c.12,.02,.3,.05,.49,.05,.16,0,.33-.02,.49-.06L14.34,3.87c-.04,.16-.06,.33-.06,.49,0,.22,.03,.44,.09,.66h0Z"/><path id="read-more" d="M20.12,5.75c.35,0,.62,.28,.62,.62v11.25c0,.35-.28,.62-.62,.62H3.88c-.35,0-.62-.28-.62-.62V6.38c0-.35,.28-.62,.62-.62H20.12ZM3.88,4.5c-1.04,0-1.88,.84-1.88,1.88v11.25c0,1.04,.84,1.88,1.88,1.88H20.12c1.04,0,1.88-.84,1.88-1.88V6.38c0-1.04-.84-1.88-1.88-1.88H3.88Zm1.88,4.38c0-.35,.28-.62,.62-.62h11.25c.35,0,.62,.28,.62,.62s-.28,.62-.62,.62H6.38c-.35,0-.62-.28-.62-.62Zm0,3.12c0-.35,.28-.62,.62-.62h11.25c.35,0,.62,.28,.62,.62s-.28,.62-.62,.62H6.38c-.35,0-.62-.28-.62-.62Zm0,3.12c0-.35,.28-.62,.62-.62h7.5c.35,0,.62,.28,.62,.62s-.28,.62-.62,.62H6.38c-.35,0-.62-.28-.62-.62Z"/><path id="reload" d="M12,5.96c-4.03,0-7.29,3.27-7.29,7.29,0,4.03,3.27,7.29,7.29,7.29,4.03,0,7.29-3.27,7.29-7.29,0-1.05-.23-2.09-.66-3.04-.15-.37,.02-.8,.4-.95,.35-.14,.75,0,.93,.34,2.02,4.39,.09,9.58-4.3,11.6-4.39,2.02-9.58,.09-11.6-4.3s-.09-9.58,4.3-11.6c1.14-.53,2.39-.8,3.65-.8v1.46Zm0,2.14V2.36c0-.2,.16-.36,.36-.36,.09,0,.17,.03,.23,.08l3.44,2.87c.17,.15,.17,.41,0,.56l-3.44,2.87c-.15,.13-.38,.11-.51-.05-.05-.07-.08-.15-.08-.23Z"/><path id="search" d="M15.74,14.34c2.12-2.9,1.49-6.96-1.4-9.09-2.9-2.12-6.96-1.49-9.09,1.4-2.12,2.9-1.49,6.96,1.4,9.09,2.29,1.68,5.4,1.68,7.69,0h0s.06,.08,.1,.11l3.85,3.85c.39,.39,1.02,.39,1.41,0s.39-1.02,0-1.41l-3.85-3.85s-.07-.07-.11-.1h0Zm.26-3.84c0,3.04-2.46,5.5-5.5,5.5s-5.5-2.46-5.5-5.5,2.46-5.5,5.5-5.5,5.5,2.46,5.5,5.5Z"/><path id="settings" d="M12,7.94c-2.24,0-4.06,1.82-4.06,4.06s1.82,4.06,4.06,4.06,4.06-1.82,4.06-4.06-1.82-4.06-4.06-4.06Zm-2.81,4.06c0-1.55,1.26-2.81,2.81-2.81s2.81,1.26,2.81,2.81-1.26,2.81-2.81,2.81-2.81-1.26-2.81-2.81ZM14.25,3.68c-.66-2.24-3.83-2.24-4.49,0l-.12,.4c-.17,.58-.78,.91-1.36,.74-.07-.02-.15-.05-.21-.09l-.37-.2c-2.05-1.12-4.29,1.13-3.18,3.18l.2,.37c.29,.53,.09,1.19-.44,1.48-.07,.04-.14,.07-.21,.09l-.4,.12c-2.24,.66-2.24,3.83,0,4.49l.4,.12c.58,.17,.91,.78,.74,1.36-.02,.07-.05,.15-.09,.21l-.2,.37c-1.12,2.05,1.13,4.29,3.18,3.18l.37-.2c.53-.29,1.19-.09,1.48,.44,.04,.07,.07,.14,.09,.21l.12,.4c.66,2.24,3.83,2.24,4.49,0l.12-.4c.17-.58,.78-.91,1.36-.74,.07,.02,.15,.05,.21,.09l.37,.2c2.05,1.12,4.29-1.13,3.18-3.18l-.2-.37c-.29-.53-.09-1.19,.44-1.48,.07-.04,.14-.07,.21-.09l.4-.12c2.24-.66,2.24-3.83,0-4.49l-.4-.12c-.58-.17-.91-.78-.74-1.36,.02-.07,.05-.15,.09-.21l.2-.37c1.12-2.05-1.13-4.29-3.18-3.18l-.37,.2c-.53,.29-1.19,.09-1.48-.44-.04-.07-.07-.14-.09-.21,0,0-.12-.4-.12-.4Zm-3.29,.35c.31-1.04,1.79-1.04,2.09,0l.12,.4c.37,1.24,1.67,1.95,2.91,1.58,.16-.05,.31-.11,.46-.19l.36-.2c.96-.52,2,.53,1.48,1.48l-.2,.37c-.62,1.14-.2,2.56,.94,3.18,.15,.08,.3,.14,.46,.19l.4,.12c1.04,.31,1.04,1.79,0,2.09l-.4,.12c-1.24,.37-1.95,1.67-1.58,2.91,.05,.16,.11,.31,.19,.46l.2,.36c.52,.96-.53,2-1.48,1.48l-.36-.2c-1.14-.62-2.56-.2-3.18,.94-.08,.15-.14,.3-.19,.46l-.12,.4c-.31,1.04-1.79,1.04-2.09,0l-.12-.4c-.37-1.24-1.67-1.95-2.91-1.58-.16,.05-.31,.11-.46,.19l-.37,.2c-.96,.52-2-.53-1.48-1.48l.2-.36c.62-1.14,.2-2.56-.93-3.18-.15-.08-.3-.14-.46-.19l-.4-.12c-1.04-.31-1.04-1.79,0-2.09l.4-.12c1.24-.37,1.95-1.67,1.58-2.91-.05-.16-.11-.31-.19-.46l-.2-.37c-.52-.96,.53-2,1.48-1.48l.37,.2c1.14,.62,2.56,.2,3.18-.94,.08-.15,.14-.3,.19-.46,0,0,.12-.4,.12-.4Z"/><path id="share" d="M17.5,5c-.83,0-1.5,.67-1.5,1.5s.67,1.5,1.5,1.5,1.5-.67,1.5-1.5-.67-1.5-1.5-1.5Zm-2.5,1.5c0-1.38,1.12-2.5,2.5-2.5,1.38,0,2.5,1.12,2.5,2.5,0,1.38-1.12,2.5-2.5,2.5-.73,0-1.42-.32-1.9-.87l-6.72,3.12c.15,.49,.15,1.01,0,1.5l6.72,3.12c.9-1.05,2.48-1.17,3.53-.27s1.17,2.48,.27,3.53c-.9,1.05-2.48,1.17-3.53,.27-.76-.65-1.06-1.7-.75-2.65l-6.72-3.12c-.9,1.05-2.48,1.17-3.53,.27-1.05-.9-1.17-2.48-.27-3.53,.9-1.05,2.48-1.17,3.53-.27,.1,.08,.19,.17,.27,.27l6.72-3.12c-.08-.24-.12-.5-.11-.75ZM6.5,10.5c-.83,0-1.5,.67-1.5,1.5s.67,1.5,1.5,1.5,1.5-.67,1.5-1.5-.67-1.5-1.5-1.5Zm11,5.5c-.83,0-1.5,.67-1.5,1.5s.67,1.5,1.5,1.5,1.5-.67,1.5-1.5-.67-1.5-1.5-1.5Z"/><path id="sort-ascending" d="M6.72,5.79c0-.34-.28-.62-.62-.62s-.62,.28-.62,.62v10.91l-1.42-1.42c-.24-.24-.64-.24-.88,0-.24,.24-.24,.64,0,.88h0l2.48,2.48h0c.24,.25,.63,.24,.87,0l2.48-2.48c.24-.24,.24-.64,0-.88-.24-.24-.64-.24-.88,0l-1.42,1.42V5.79Zm4.34,1.24c0-.34,.28-.62,.62-.62h8.69c.34,0,.62,.28,.62,.62s-.28,.62-.62,.62H11.69c-.34,0-.62-.28-.62-.62Zm.62,3.1c-.34,0-.62,.28-.62,.62s.28,.62,.62,.62h6.21c.34,0,.62-.28,.62-.62s-.28-.62-.62-.62h-6.21Zm0,3.72c-.34,0-.62,.28-.62,.62s.28,.62,.62,.62h3.72c.34,0,.62-.28,.62-.62s-.28-.62-.62-.62h-3.72Zm0,3.72c-.34,0-.62,.28-.62,.62s.28,.62,.62,.62h1.24c.34,0,.62-.28,.62-.62s-.28-.62-.62-.62h-1.24Z"/><path id="sort-descending" d="M6.72,18.21c0,.34-.28,.62-.62,.62s-.62-.28-.62-.62V7.29l-1.42,1.42c-.24,.24-.64,.24-.88,0-.24-.24-.24-.64,0-.88l2.48-2.48h0c.24-.24,.63-.24,.87,0l2.48,2.48c.24,.24,.24,.64,0,.88s-.64,.24-.88,0l-1.42-1.42v10.91ZM11.07,7.04c0-.34,.28-.62,.62-.62h8.69c.34,0,.62,.28,.62,.62s-.28,.62-.62,.62H11.69c-.34,0-.62-.28-.62-.62Zm.62,3.1c-.34,0-.62,.28-.62,.62s.28,.62,.62,.62h6.21c.34,0,.62-.28,.62-.62s-.28-.62-.62-.62h-6.21Zm0,3.72c-.34,0-.62,.28-.62,.62s.28,.62,.62,.62h3.72c.34,0,.62-.28,.62-.62s-.28-.62-.62-.62h-3.72Zm0,3.72c-.34,0-.62,.28-.62,.62s.28,.62,.62,.62h1.24c.34,0,.62-.28,.62-.62s-.28-.62-.62-.62h-1.24Z"/><path id="star" d="M5.58,20.56c-.1,.55,.45,.99,.93,.74l5.49-2.82,5.49,2.82c.48,.25,1.03-.19,.93-.74l-1.04-5.91,4.4-4.19c.41-.39,.2-1.11-.35-1.19l-6.12-.87-2.73-5.41c-.15-.32-.53-.46-.85-.3-.13,.06-.24,.17-.3,.3l-2.73,5.41-6.12,.87c-.55,.08-.76,.79-.35,1.19l4.4,4.19-1.04,5.91h0Zm6.13-3.46l-4.61,2.37,.87-4.95c.04-.23-.04-.47-.2-.63l-3.63-3.46,5.06-.72c.21-.03,.4-.17,.49-.36l2.31-4.57,2.31,4.57c.09,.19,.28,.33,.49,.36l5.06,.72-3.63,3.46c-.17,.16-.25,.4-.2,.63l.87,4.95-4.61-2.37c-.18-.09-.4-.09-.58,0h0Z"/><path id="translate" d="M7.68,10.39l-.54,1.61h-1.39l2.33-6.25h1.6l2.32,6.25h-1.46l-.54-1.61s-2.32,0-2.32,0Zm2.04-.92l-.85-2.53h-.06l-.85,2.53h1.76ZM2,4.5c0-1.38,1.12-2.5,2.5-2.5H13.25c1.38,0,2.5,1.12,2.5,2.5v3.75h3.75c1.38,0,2.5,1.12,2.5,2.5v8.75c0,1.38-1.12,2.5-2.5,2.5H10.75c-1.38,0-2.5-1.12-2.5-2.5v-3.75h-3.75c-1.38,0-2.5-1.12-2.5-2.5V4.5Zm2.5-1.25c-.69,0-1.25,.56-1.25,1.25V13.25c0,.69,.56,1.25,1.25,1.25H13.25c.69,0,1.25-.56,1.25-1.25V4.5c0-.69-.56-1.25-1.25-1.25H4.5ZM13.42,15.74c.24,.38,.5,.73,.79,1.06-.94,.72-2.09,1.25-3.46,1.61,.22,.27,.56,.79,.69,1.08,1.41-.45,2.6-1.05,3.61-1.87,.97,.83,2.17,1.46,3.66,1.84,.17-.32,.52-.84,.79-1.11-1.41-.32-2.57-.87-3.52-1.61,.85-.93,1.53-2.06,2.03-3.45h1.5v-1.31h-3.75v1.31h.96c-.4,1.05-.92,1.93-1.59,2.66-.18-.2-.36-.4-.52-.61-.35,.23-.76,.36-1.17,.39Z"/><path id="verified" d="M14.94,9.68c.24,.24,.24,.64,0,.88,0,0,0,0,0,0l-3.75,3.75c-.24,.24-.64,.24-.88,0,0,0,0,0,0,0l-1.88-1.88c-.24-.24-.24-.64,0-.89s.64-.24,.89,0l1.43,1.43,3.31-3.31c.24-.24,.64-.24,.88,0,0,0,0,0,0,0Zm-.1-4.54l-1.15-1.18,.89-.87,.78,.8h1.11c2-.04,3.63,1.56,3.66,3.56,0,.03,0,.06,0,.09v1.11s.78,.78,.78,.78c1.43,1.39,1.45,3.68,.06,5.11-.02,.02-.04,.04-.06,.06l-.8,.78v1.11c.04,2-1.56,3.63-3.56,3.66-.03,0-.06,0-.09,0h-1.11s-.78,.78-.78,.78c-1.39,1.43-3.68,1.45-5.11,.06-.02-.02-.04-.04-.06-.06l-.78-.8h-1.11c-2,.04-3.63-1.56-3.66-3.56,0-.03,0-.06,0-.09v-1.11s-.78-.78-.78-.78c-1.43-1.39-1.45-3.68-.06-5.11,.02-.02,.04-.04,.06-.06l.8-.78v-1.11c-.04-2,1.56-3.63,3.56-3.66,.03,0,.06,0,.09,0h1.11s.78-.78,.78-.78c1.39-1.43,3.68-1.45,5.11-.06,.02,.02,.04,.04,.06,.06l-.89,.87c-.91-.93-2.41-.95-3.34-.04-.01,.01-.03,.03-.04,.04l-1.15,1.18-1.65-.02c-1.3-.01-2.37,1.03-2.39,2.34,0,.02,0,.04,0,.05l.02,1.65-1.18,1.15c-.93,.91-.95,2.41-.04,3.34,.01,.01,.03,.03,.04,.04l1.18,1.15-.02,1.65c-.01,1.3,1.03,2.37,2.34,2.39,.02,0,.04,0,.05,0l1.65-.02,1.15,1.18c.91,.93,2.41,.95,3.34,.04,.01-.01,.03-.03,.04-.04l1.15-1.18,1.65,.02c1.3,.01,2.37-1.03,2.39-2.34,0-.02,0-.04,0-.05l-.02-1.65,1.18-1.15c.93-.91,.95-2.41,.04-3.34-.01-.01-.03-.03-.04-.04l-1.18-1.15,.02-1.65c.01-1.3-1.03-2.37-2.34-2.39-.02,0-.04,0-.05,0,0,0-1.65,.02-1.65,.02Z"/><path id="zip" d="M8.25,11.38c0-.69,.56-1.25,1.25-1.25h1.25c.69,0,1.25,.56,1.25,1.25v1.17l.5,2c.13,.51-.08,1.05-.52,1.34l-1.16,.77c-.42,.28-.97,.28-1.39,0l-1.16-.77c-.44-.29-.65-.83-.52-1.34l.5-2v-1.17Zm2.5,0h-1.25v1.17c0,.1-.01,.2-.04,.3l-.5,2,1.16,.77,1.16-.77-.5-2c-.02-.1-.04-.2-.04-.3v-1.17Zm8.75-3.75v11.88c0,1.38-1.12,2.5-2.5,2.5H7c-1.38,0-2.5-1.12-2.5-2.5V4.5c0-1.38,1.12-2.5,2.5-2.5h6.88l5.62,5.62Zm-3.75,0c-1.04,0-1.88-.84-1.88-1.88V3.25h-2.5v1.25h-1.25v1.25h1.25v1.25h-1.25v1.25h1.25v1.25h-1.88v-1.25h-1.25v-1.25h1.25v-1.25h-1.25v-1.25h1.25v-1.25h-2.5c-.69,0-1.25,.56-1.25,1.25v15c0,.69,.56,1.25,1.25,1.25h10c.69,0,1.25-.56,1.25-1.25V7.62h-2.5Z"/></svg>