<?xml version="1.0" encoding="UTF-8"?><svg id="carbon" xmlns="http://www.w3.org/2000/svg" viewBox="0 0 24 24"><path id="archive" d="M10.71,13.93h2.57v1.29h-2.57v-1.29ZM5.57,3V19.71c0,.71,.58,1.29,1.29,1.29h10.29c.71,0,1.29-.58,1.29-1.29V3H5.57Zm11.57,16.71H6.86v-7.71h10.29v7.71Zm0-9H6.86v-2.57h10.29v2.57ZM6.86,6.86v-2.57h10.29v2.57H6.86Z"/><path id="arrow-left" d="M10.67,18.67l.94-.94-5.05-5.06h13.45v-1.33H6.55l5.05-5.06-.94-.94-6.67,6.67,6.67,6.67Z"/><path id="arrow-right" d="M13.33,5.33l-.94,.94,5.05,5.06H4v1.33h13.45l-5.05,5.06,.94,.94,6.67-6.67-6.67-6.67Z"/><path id="arrow-top" d="M5.33,10.67l.94,.94,5.06-5.05v13.45h1.33V6.55l5.06,5.05,.94-.94L12,4l-6.67,6.67Z"/><path id="bookmark" d="M17.14,3H6.86c-.71,0-1.29,.58-1.29,1.29V21l6.43-3.25,6.43,3.25V4.29c0-.71-.58-1.29-1.29-1.29Z"/><path id="bookmark-add" d="M15.86,12v6.91l-4.56-2.31-.58-.29-.58,.29-4.56,2.31V4.29h6.43v-1.29H5.57c-.71,0-1.29,.58-1.29,1.29V21l6.43-3.25,6.43,3.25V12h-1.29Zm1.29-6.43V3h-1.29v2.57h-2.57v1.29h2.57v2.57h1.29v-2.57h2.57v-1.29h-2.57Z"/><path id="check" d="M9.75,18.16L3,11.41l1.06-1.06,5.69,5.69L19.94,5.84l1.06,1.06-11.25,11.25Z"/><path id="clear" d="M9.43,9.43h1.29v7.71h-1.29v-7.71Zm3.86,0h1.29v7.71h-1.29v-7.71ZM4.29,5.57v1.29h1.29v12.86c0,.71,.58,1.29,1.29,1.29h10.29c.71,0,1.29-.58,1.29-1.29V6.86h1.29v-1.29H4.29Zm2.57,14.14V6.86h10.29v12.86H6.86ZM9.43,3h5.14v1.29h-5.14v-1.29Z"/><path id="close" d="M19,6.22l-1.22-1.22-5.78,5.78L6.22,5l-1.22,1.22,5.78,5.78-5.78,5.78,1.22,1.22,5.78-5.78,5.78,5.78,1.22-1.22-5.78-5.78,5.78-5.78Z"/><path id="comment" d="M13.24,21.29l-1.24-.71,2.86-5h4.29c.79,0,1.43-.64,1.43-1.43V5.57c0-.79-.64-1.43-1.43-1.43H4.86c-.79,0-1.43,.64-1.43,1.43V14.14c0,.79,.64,1.43,1.43,1.43h6.43v1.43H4.86c-1.58,0-2.86-1.28-2.86-2.86V5.57c0-1.58,1.28-2.86,2.86-2.86h14.29c1.58,0,2.86,1.28,2.86,2.86V14.14c0,1.58-1.28,2.86-2.86,2.86h-3.46l-2.44,4.29Zm-.53-15h-1.43v2.86h-2.86v1.43h2.86v2.86h1.43v-2.86h2.86v-1.43h-2.86v-2.86Z"/><path id="comment-text" d="M13.24,21.29l-1.24-.71,2.86-5h4.29c.79,0,1.43-.64,1.43-1.43V5.57c0-.79-.64-1.43-1.43-1.43H4.86c-.79,0-1.43,.64-1.43,1.43V14.14c0,.79,.64,1.43,1.43,1.43h6.43v1.43H4.86c-1.58,0-2.86-1.28-2.86-2.86V5.57c0-1.58,1.28-2.86,2.86-2.86h14.29c1.58,0,2.86,1.28,2.86,2.86V14.14c0,1.58-1.28,2.86-2.86,2.86h-3.46l-2.44,4.29ZM6.29,7h11.43v1.43H6.29v-1.43Zm0,4.29h7.14v1.43H6.29v-1.43Z"/><path id="copy" d="M19.71,8.14v11.57H8.14V8.14h11.57m0-1.29H8.14c-.71,0-1.29,.58-1.29,1.29v11.57c0,.71,.58,1.29,1.29,1.29h11.57c.71,0,1.29-.58,1.29-1.29V8.14c0-.71-.58-1.29-1.29-1.29ZM4.29,13.29h-1.29V4.29c0-.71,.58-1.29,1.29-1.29H13.29v1.29H4.29V13.29Z"/><path id="dark" d="M10.08,3.86c-1.46,6.24,2.41,12.47,8.65,13.94,.09,.02,.18,.04,.27,.06-1.61,1.66-3.82,2.6-6.13,2.61-.11,0-.21,0-.32,0-4.71-.17-8.39-4.12-8.23-8.83,.12-3.54,2.42-6.63,5.77-7.77m1.14-1.86s-.09,0-.13,.01C5.61,2.99,1.96,8.22,2.93,13.7c.83,4.67,4.81,8.13,9.56,8.3,.13,0,.25,0,.38,0,3.28,0,6.35-1.59,8.23-4.27,.24-.36,.14-.84-.22-1.08-.11-.08-.25-.12-.38-.13-5.54-.49-9.63-5.37-9.14-10.9,.08-.87,.27-1.73,.57-2.56,.16-.4-.04-.85-.45-1.01-.08-.03-.17-.05-.25-.05Z"/><path id="download" d="M19.14,17.71v2.86H4.86v-2.86h-1.43v2.86c0,.79,.64,1.43,1.43,1.43h14.29c.79,0,1.43-.64,1.43-1.43v-2.86h-1.43Zm0-7.14l-1.01-1.01-5.42,5.41V2h-1.43V14.98l-5.42-5.41-1.01,1.01,7.14,7.14,7.14-7.14Z"/><path id="home" d="M12.42,3.15c-.25-.2-.61-.2-.86,0L1.62,10.91l.86,1.09,1.22-.95v8.57c0,.76,.62,1.38,1.38,1.38h13.85c.76,0,1.38-.62,1.38-1.38V11.05l1.22,.95,.86-1.09L12.42,3.15Zm.96,16.47h-2.77v-5.54h2.77v5.54Zm1.38,0v-5.54c0-.76-.62-1.38-1.38-1.38h-2.77c-.76,0-1.38,.62-1.38,1.38v5.54H5.08V9.97l6.92-5.39,6.92,5.4v9.64h-4.15Z"/><path id="label" d="M21,9v-1.5h-4.5V3h-1.5V7.5h-6V3h-1.5V7.5H3v1.5H7.5v6H3v1.5H7.5v4.5h1.5v-4.5h6v4.5h1.5v-4.5h4.5v-1.5h-4.5v-6h4.5Zm-6,6h-6v-6h6v6Z"/><path id="light" d="M12,9.14c1.58,0,2.86,1.28,2.86,2.86s-1.28,2.86-2.86,2.86-2.86-1.28-2.86-2.86c0-1.58,1.28-2.86,2.86-2.86m0-1.43c-2.37,0-4.29,1.92-4.29,4.29s1.92,4.29,4.29,4.29,4.29-1.92,4.29-4.29-1.92-4.29-4.29-4.29Zm-7.58-2.28l1.01-1.01,2.5,2.5-1.01,1.01-2.5-2.5ZM2,11.29h3.57v1.43H2v-1.43Zm2.42,7.28l2.5-2.5,1.01,1.01-2.5,2.5-1.01-1.01Zm6.86-.14h1.43v3.57h-1.43v-3.57Zm4.78-1.36l1.01-1.01,2.5,2.5-1.01,1.01-2.5-2.5Zm2.37-5.79h3.57v1.43h-3.57v-1.43Zm-2.37-4.36l2.5-2.5,1.01,1.01-2.5,2.5-1.01-1.01ZM11.29,2h1.43v3.57h-1.43V2Z"/><path id="link" d="M19.94,6.17c-1.4-1.41-3.68-1.41-5.08,0,0,0,0,0,0,0l.85,.85c.94-.94,2.46-.94,3.4,0s.94,2.46,0,3.4l-4.79,4.79c-.94,.94-2.46,.94-3.39,0-.94-.94-.94-2.46,0-3.39l.84-.85-.84-.85-.85,.85c-1.41,1.4-1.41,3.68,0,5.08,0,0,0,0,0,0,.68,.67,1.59,1.04,2.55,1.04,.96,0,1.88-.38,2.56-1.05l4.79-4.79c1.4-1.41,1.39-3.68-.01-5.08ZM4.93,16.99c-.94-.93-.94-2.45,0-3.39,0,0,0,0,0,0l4.79-4.79c.93-.94,2.45-.94,3.39,0,0,0,0,0,0,0,.45,.45,.7,1.07,.68,1.71,0,.64-.25,1.25-.7,1.71l-1.27,1.29,.85,.85,1.27-1.27c1.41-1.41,1.41-3.69,0-5.1s-3.69-1.41-5.1,0l-4.79,4.79c-1.41,1.4-1.41,3.68-.01,5.08,0,0,0,0,.01,.01,.68,.66,1.6,1.03,2.55,1.02,.96,0,1.88-.38,2.56-1.05l-.85-.85c-.93,.94-2.45,.94-3.39,0,0,0,0,0,0,0Z"/><path id="link-open" d="M9.39,13.93c-1.76,0-3.18-1.42-3.18-3.18,0-.84,.34-1.65,.93-2.25l3.28-3.28c1.24-1.24,3.26-1.24,4.5,0,1.24,1.24,1.24,3.26,0,4.5l-.36,.35-.91-.91,.36-.36c.74-.74,.74-1.94,0-2.68-.75-.72-1.93-.72-2.68,0l-3.28,3.28c-.74,.74-.74,1.94,0,2.68,0,0,0,0,0,0,.75,.72,1.93,.72,2.68,0l.91,.91c-.6,.6-1.41,.93-2.25,.93Zm5.14-1.29c-1.76,0-3.18-1.42-3.18-3.18,0-.84,.34-1.65,.93-2.25l.36-.35,.91,.91-.35,.35c-.74,.74-.74,1.94,0,2.68,.75,.72,1.93,.72,2.68,0l3.28-3.28c.74-.74,.74-1.94,0-2.68-.75-.72-1.93-.72-2.68,0l-.91-.91c1.24-1.24,3.26-1.24,4.5,0s1.24,3.26,0,4.5l-3.28,3.28c-.6,.6-1.41,.93-2.25,.93h0Zm2.61,8.36H4.29c-.71,0-1.28-.58-1.29-1.29V6.86c0-.71,.58-1.28,1.29-1.29h2.57v1.29h-2.57v12.86h12.86v-6.43h1.29v6.43c0,.71-.58,1.28-1.29,1.29Z"/><path id="list" d="M11.31,16.15h9.69v1.38H11.31v-1.38Zm0-9.69h9.69v1.38H11.31v-1.38Zm-5.54,2.77V3.69h-1.38v.69h-1.38v1.38h1.38v3.46h-1.38v1.38H7.15v-1.38h-1.38Zm1.38,11.08H3v-2.77c0-.76,.62-1.38,1.38-1.38h1.38v-1.38H3v-1.38h2.77c.76,0,1.38,.62,1.38,1.38v1.38c0,.76-.62,1.38-1.38,1.38h-1.38v1.38h2.77v1.38Z"/><path id="lock" d="M17.71,10.57h-1.43V6.29c0-2.37-1.92-4.29-4.29-4.29s-4.29,1.92-4.29,4.29v4.29h-1.43c-.79,0-1.43,.64-1.43,1.43v8.57c0,.79,.64,1.43,1.43,1.43h11.43c.79,0,1.43-.64,1.43-1.43V12c0-.79-.64-1.43-1.43-1.43ZM9.14,6.29c0-1.58,1.28-2.86,2.86-2.86s2.86,1.28,2.86,2.86v4.29h-5.71V6.29Zm8.57,14.29H6.29V12h11.43v8.57Z"/><path id="menu" d="M3,4.5H21v1.5H3v-1.5Zm0,13.5H21v1.5H3v-1.5Zm0-9H21v1.5H3v-1.5Zm0,4.5H21v1.5H3v-1.5Z"/><path id="menu-more" d="M5.6,4.4c.88,0,1.6,.72,1.6,1.6s-.72,1.6-1.6,1.6-1.6-.72-1.6-1.6,.72-1.6,1.6-1.6Zm6.4,0c.88,0,1.6,.72,1.6,1.6s-.72,1.6-1.6,1.6-1.6-.72-1.6-1.6,.72-1.6,1.6-1.6Zm6.4,0c.88,0,1.6,.72,1.6,1.6s-.72,1.6-1.6,1.6-1.6-.72-1.6-1.6,.72-1.6,1.6-1.6ZM5.6,10.4c.88,0,1.6,.72,1.6,1.6s-.72,1.6-1.6,1.6-1.6-.72-1.6-1.6,.72-1.6,1.6-1.6Zm6.4,0c.88,0,1.6,.72,1.6,1.6s-.72,1.6-1.6,1.6-1.6-.72-1.6-1.6,.72-1.6,1.6-1.6Zm6.4,0c.88,0,1.6,.72,1.6,1.6s-.72,1.6-1.6,1.6-1.6-.72-1.6-1.6,.72-1.6,1.6-1.6Zm-12.8,6c.88,0,1.6,.72,1.6,1.6s-.72,1.6-1.6,1.6-1.6-.72-1.6-1.6,.72-1.6,1.6-1.6Zm6.4,0c.88,0,1.6,.72,1.6,1.6s-.72,1.6-1.6,1.6-1.6-.72-1.6-1.6,.72-1.6,1.6-1.6Zm6.4,0c.88,0,1.6,.72,1.6,1.6s-.72,1.6-1.6,1.6-1.6-.72-1.6-1.6,.72-1.6,1.6-1.6Z"/><path id="more" d="M5.6,10.4c.88,0,1.6,.72,1.6,1.6s-.72,1.6-1.6,1.6-1.6-.72-1.6-1.6,.72-1.6,1.6-1.6Zm6.4,0c.88,0,1.6,.72,1.6,1.6s-.72,1.6-1.6,1.6-1.6-.72-1.6-1.6,.72-1.6,1.6-1.6Zm6.4,0c.88,0,1.6,.72,1.6,1.6s-.72,1.6-1.6,1.6-1.6-.72-1.6-1.6,.72-1.6,1.6-1.6Z"/><path id="more-2" d="M13.6,5.6c0,.88-.72,1.6-1.6,1.6s-1.6-.72-1.6-1.6,.72-1.6,1.6-1.6,1.6,.72,1.6,1.6Zm0,6.4c0,.88-.72,1.6-1.6,1.6s-1.6-.72-1.6-1.6,.72-1.6,1.6-1.6,1.6,.72,1.6,1.6Zm0,6.4c0,.88-.72,1.6-1.6,1.6s-1.6-.72-1.6-1.6,.72-1.6,1.6-1.6,1.6,.72,1.6,1.6Z"/><path id="page" d="M18.93,7.21L13.93,2.21c-.14-.14-.29-.21-.5-.21H6.29c-.79,0-1.43,.64-1.43,1.43V20.57c0,.79,.64,1.43,1.43,1.43h11.43c.79,0,1.43-.64,1.43-1.43V7.71c0-.21-.07-.36-.21-.5Zm-5.5-3.5l4,4h-4V3.71Zm4.29,16.86H6.29V3.43h5.71V7.71c0,.79,.64,1.43,1.43,1.43h4.29v11.43Zm-10-4.29h8.57v1.43H7.71v-1.43Zm0-4.29h8.57v1.43H7.71v-1.43Z"/><path id="pin" d="M20.99,10.08l1.01-1.01L14.86,2l-.94,1.01,.85,.85L6.56,10.8l-1.23-1.23-1.01,1,4.04,4.06-6.36,6.36,1.01,1.01,6.37-6.36,4.06,4.04,.99-1.01-1.23-1.23,6.95-8.21,.85,.85Z"/><path id="read-more" d="M6.29,10.57h7.86v1.43H6.29v-1.43Zm0,3.57H15.57v1.43H6.29v-1.43ZM20.57,3.43H3.43c-.79,0-1.43,.64-1.43,1.43v14.29c0,.79,.64,1.43,1.43,1.43H20.57c.79,0,1.43-.64,1.43-1.43V4.86c0-.79-.64-1.43-1.43-1.43Zm0,1.43v1.43H3.43v-1.43H20.57ZM3.43,19.14V7.71H20.57v11.43H3.43Z"/><path id="reload" d="M18.9,13.72c0,3.81-3.09,6.9-6.9,6.9s-6.9-3.09-6.9-6.9,3.09-6.9,6.9-6.9h4.26l-2.47,2.47,.97,.98,4.14-4.14L14.76,2l-.97,.98,2.47,2.47h-4.27c-4.57,0-8.28,3.71-8.28,8.28s3.71,8.28,8.28,8.28,8.28-3.71,8.28-8.28h-1.38Z"/><path id="search" d="M21,20.06l-5.03-5.03c2.59-3.11,2.17-7.74-.94-10.33-3.11-2.59-7.74-2.17-10.33,.94-2.59,3.11-2.17,7.74,.94,10.33,2.72,2.27,6.67,2.27,9.39,0l5.03,5.03,.94-.94ZM4.36,10.35c0-3.31,2.68-5.99,5.99-5.99s5.99,2.68,5.99,5.99-2.68,5.99-5.99,5.99c-3.31,0-5.99-2.68-5.99-5.99Z"/><path id="settings" d="M19.88,12.54v-1.1l1.38-1.2c.52-.46,.64-1.23,.27-1.83l-1.69-2.87c-.26-.44-.73-.72-1.24-.72-.16,0-.31,.02-.46,.07l-1.74,.59c-.3-.2-.61-.38-.94-.54l-.37-1.81c-.14-.68-.74-1.17-1.43-1.15h-3.35c-.69-.01-1.3,.47-1.43,1.15l-.37,1.81c-.33,.16-.64,.34-.95,.54l-1.7-.62c-.15-.04-.3-.05-.46-.04-.51,0-.98,.27-1.24,.72l-1.69,2.87c-.34,.59-.22,1.35,.29,1.8l1.35,1.24v1.1l-1.35,1.2c-.53,.46-.65,1.23-.29,1.83l1.69,2.87c.26,.44,.73,.72,1.24,.72,.16,0,.31-.02,.46-.07l1.74-.59c.3,.2,.61,.38,.94,.54l.37,1.81c.14,.68,.74,1.17,1.43,1.15h3.38c.69,.01,1.3-.47,1.43-1.15l.37-1.81c.33-.16,.64-.34,.95-.54l1.73,.59c.15,.05,.3,.07,.46,.07,.51,0,.98-.27,1.24-.72l1.63-2.87c.34-.59,.22-1.35-.29-1.8l-1.35-1.24Zm-1.28,5.19l-2.46-.83c-.58,.49-1.23,.87-1.94,1.12l-.51,2.57h-3.38l-.51-2.54c-.7-.26-1.36-.64-1.93-1.12l-2.46,.8-1.69-2.87,1.95-1.72c-.13-.74-.13-1.5,0-2.24l-1.95-1.77,1.69-2.87,2.46,.83c.58-.49,1.23-.87,1.94-1.12l.51-2.57h3.38l.51,2.54c.7,.26,1.36,.64,1.93,1.12l2.46-.8,1.69,2.87-1.95,1.72c.13,.74,.13,1.5,0,2.24l1.95,1.77-1.69,2.87Zm-6.6-1.43c-2.37,0-4.3-1.92-4.3-4.3s1.92-4.3,4.3-4.3,4.3,1.92,4.3,4.3c.02,2.35-1.86,4.27-4.21,4.3-.03,0-.06,0-.09,0Zm0-7.16c-1.55-.04-2.83,1.19-2.87,2.73,0,.04,0,.09,0,.13-.04,1.55,1.19,2.83,2.73,2.87,.04,0,.09,0,.13,0,1.55,.04,2.83-1.19,2.87-2.73,0-.04,0-.09,0-.13,.04-1.55-1.19-2.83-2.73-2.87-.04,0-.09,0-.13,0Z"/><path id="share" d="M16.93,14.47c-.93,0-1.81,.43-2.39,1.16l-4.49-2.81c.16-.53,.16-1.09,0-1.62l4.49-2.81c1.07,1.32,3,1.53,4.32,.46s1.53-3,.46-4.32c-1.07-1.32-3-1.53-4.32-.46-.73,.59-1.15,1.48-1.14,2.41,0,.27,.04,.55,.12,.81l-4.49,2.81c-1.06-1.33-2.99-1.55-4.32-.49-1.33,1.06-1.55,2.99-.49,4.32,1.06,1.33,2.99,1.55,4.32,.49,.18-.15,.35-.31,.49-.49l4.49,2.81c-.08,.26-.12,.54-.12,.81,0,1.7,1.38,3.07,3.07,3.07s3.07-1.38,3.07-3.07-1.38-3.07-3.07-3.07Zm0-9.84c1.02,0,1.84,.83,1.84,1.84s-.83,1.84-1.84,1.84-1.84-.83-1.84-1.84,.83-1.84,1.84-1.84ZM7.09,13.85c-1.02,0-1.84-.83-1.84-1.84s.83-1.84,1.84-1.84,1.84,.83,1.84,1.84-.83,1.84-1.84,1.84Zm9.84,5.53c-1.02,0-1.84-.83-1.84-1.84s.83-1.84,1.84-1.84,1.84,.83,1.84,1.84-.83,1.84-1.84,1.84Z"/><path id="sort-ascending" d="M13.29,15.86l.91-.91,2.31,2.31V4.29h1.29v12.97l2.31-2.31,.91,.91-3.86,3.86-3.86-3.86ZM3,13.29H12v1.29H3v-1.29Zm2.57-3.86h6.43v1.29H5.57v-1.29Zm2.57-3.86h3.86v1.29h-3.86v-1.29Z"/><path id="sort-descending" d="M13.29,15.86l.91-.91,2.31,2.31V4.29h1.29v12.97l2.31-2.31,.91,.91-3.86,3.86-3.86-3.86ZM3,5.57H12v1.29H3v-1.29Zm2.57,3.86h6.43v1.29H5.57v-1.29Zm2.57,3.86h3.86v1.29h-3.86v-1.29Z"/><path id="star" d="M12,3l-2.93,5.93-6.54,.95,4.73,4.62-1.12,6.51,5.85-3.07,5.85,3.07-1.12-6.51,4.73-4.61-6.54-.95-2.93-5.93Z"/><path id="translate" d="M20.46,21.64h1.54l-4.29-10.71h-1.68l-4.29,10.71h1.54l1.14-2.86h4.89l1.14,2.86Zm-5.46-4.29l1.87-4.69,1.88,4.69h-3.75Zm-1.57-11.43v-1.43h-5V2.36h-1.43v2.14H2v1.43h7.67c-.4,1.63-1.18,3.15-2.28,4.41-.72-.89-1.27-1.9-1.64-2.99h-1.5c.45,1.45,1.18,2.81,2.14,3.99-1.07,1.04-2.32,1.86-3.69,2.44l.54,1.33c1.54-.65,2.94-1.59,4.13-2.76,1.17,1.19,2.57,2.12,4.11,2.74l.51-1.31c-1.38-.53-2.62-1.35-3.66-2.41,1.37-1.56,2.33-3.43,2.8-5.45h2.29Z"/><path id="verified" d="M12,2C6.48,2,2,6.48,2,12s4.48,10,10,10,10-4.48,10-10S17.52,2,12,2Zm-1.43,13.99l-3.57-3.57h0s0,0,0,0l1.14-1.14h0s0,0,0,0l2.44,2.44,5.29-5.29,1.14,1.13-4.4,4.4-2.03,2.03Z"/><path id="zip" d="M20.57,7h-4.29v10h1.43v-3.57h2.86c.79,0,1.43-.64,1.43-1.43v-3.57c0-.79-.64-1.43-1.43-1.43Zm0,5h-2.86v-3.57h2.86v3.57ZM9.14,7v1.43h2.14v7.14h-2.14v1.43h5.71v-1.43h-2.14v-7.14h2.14v-1.43h-5.71Zm-1.43,0H2v1.43H6.29L2,15.57v1.43H7.71v-1.43H3.43l4.29-7.14v-1.43Z"/></svg>