<?xml version="1.0" encoding="UTF-8"?><svg id="logo" xmlns="http://www.w3.org/2000/svg" viewBox="0 0 24 24"><path id="blogger" d="M20.31,22H3.69c-.94,0-1.69-.75-1.69-1.69V3.69c0-.94,.75-1.69,1.69-1.69H20.37c.88,0,1.63,.75,1.63,1.69V20.31c0,.94-.75,1.69-1.69,1.69ZM12,5.31h-2.5c-2.31,0-4.19,1.88-4.19,4.19v5c0,2.31,1.88,4.19,4.19,4.19h5c2.31,0,4.19-1.88,4.19-4.19v-3.31c0-.5-.38-.88-.87-.88h-.81c-.44,0-.81-.37-.81-.81,0-2.31-1.88-4.19-4.19-4.19h0Zm2.56,10h-5.06c-.44,0-.81-.37-.81-.81s.37-.81,.81-.81h5.06c.44,0,.81,.37,.81,.81s-.37,.81-.81,.81h0Zm-2.13-6.63c.44,0,.81,.37,.81,.81s-.37,.81-.81,.81h-3c-.44,0-.81-.37-.81-.81s.37-.81,.81-.81c0,0,3,0,3,0Z"/><path id="email" d="M20,8l-8,5L4,8v-2l8,5,8-5m0-2H4c-1.11,0-2,.89-2,2v12c0,1.1,.9,2,2,2H20c1.1,0,2-.9,2-2V6c0-1.11-.9-2-2-2Z"/><path id="facebook" d="M22.06,12.06c0-5.56-4.5-10.06-10.06-10.06S1.94,6.5,1.94,12.06c0,5.02,3.68,9.18,8.49,9.94v-7.03h-2.55v-2.91h2.55v-2.22c0-2.52,1.5-3.91,3.8-3.91,1.1,0,2.25,.2,2.25,.2v2.48h-1.27c-1.25,0-1.64,.78-1.64,1.57v1.89h2.79l-.45,2.91h-2.34v7.03c4.81-.76,8.49-4.92,8.49-9.94Z"/><path id="linkedin" d="M19.04,19.04h-2.96v-4.64c0-1.11-.02-2.53-1.54-2.53s-1.78,1.2-1.78,2.45v4.72h-2.96V9.5h2.84v1.3h.04c.4-.75,1.36-1.54,2.81-1.54,3,0,3.56,1.97,3.56,4.55v5.24h0ZM6.45,8.19c-.95,0-1.72-.77-1.72-1.72s.77-1.72,1.72-1.72,1.72,.77,1.72,1.72-.77,1.72-1.72,1.72Zm1.49,10.85h-2.97V9.5h2.97v9.54ZM20.52,2H3.48c-.82,0-1.48,.64-1.48,1.44V20.56c0,.8,.66,1.44,1.48,1.44H20.52c.82,0,1.48-.64,1.48-1.44V3.44c0-.8-.67-1.44-1.48-1.44h0Z"/><path id="pinterest" d="M12.01,2C6.5,2,2.02,6.47,2.02,11.99c0,4.23,2.63,7.85,6.35,9.3-.09-.79-.17-2,.03-2.87,.18-.78,1.17-4.96,1.17-4.96,0,0-.3-.6-.3-1.48,0-1.39,.81-2.43,1.81-2.43,.85,0,1.26,.64,1.26,1.41,0,.86-.54,2.14-.83,3.33-.24,.99,.5,1.8,1.48,1.8,1.77,0,3.14-1.87,3.14-4.57,0-2.38-1.72-4.06-4.17-4.06-2.84,0-4.51,2.13-4.51,4.33,0,.86,.33,1.79,.74,2.28,.08,.1,.09,.19,.07,.29-.08,.31-.24,1-.28,1.14-.04,.19-.14,.23-.33,.14-1.25-.57-2.03-2.4-2.03-3.87,0-3.15,2.29-6.04,6.6-6.04,3.46,0,6.16,2.47,6.16,5.77s-2.17,6.22-5.19,6.22c-1.01,0-1.96-.52-2.3-1.15l-.62,2.37c-.22,.87-.84,1.96-1.25,2.62,.94,.29,1.92,.45,2.96,.45,5.51,0,9.99-4.47,9.99-9.99,0-5.52-4.48-9.99-9.99-9.99l.03-.02Z"/><path id="reddit" d="M12,2C6.48,2,2,6.48,2,12s4.48,10,10,10,10-4.48,10-10S17.52,2,12,2Zm4.18,3.95c.57,0,1.04,.47,1.04,1.04,0,.58-.48,1.04-1.05,1.03-.55,0-1-.44-1.03-.98l-2.16-.46-.67,3.12c1.52,.06,2.9,.53,3.89,1.24,.26-.26,.61-.41,1.01-.41,.81,0,1.46,.66,1.46,1.46,0,.6-.36,1.11-.84,1.35,.02,.14,.04,.29,.03,.43,0,2.25-2.61,4.06-5.84,4.06s-5.84-1.81-5.84-4.06c0-.15,.01-.31,.04-.45-.53-.23-.87-.76-.87-1.33,0-.81,.66-1.46,1.46-1.46,.39,0,.75,.16,1.01,.41,1.01-.74,2.4-1.19,3.95-1.24l.74-3.49c.02-.07,.06-.13,.12-.16,.06-.03,.13-.05,.2-.03l2.42,.51c.17-.36,.53-.59,.92-.58Zm-6.47,6.05c-.57,0-1.04,.47-1.04,1.04s.47,1.04,1.04,1.04,1.04-.47,1.04-1.04-.47-1.04-1.04-1.04h0Zm4.58,0c-.57,0-1.04,.47-1.04,1.04s.47,1.04,1.04,1.04,1.04-.47,1.04-1.04-.47-1.04-1.04-1.04Zm-4.55,3.32c-.07,0-.14,.03-.19,.08-.11,.11-.11,.28,0,.39,.7,.7,2.07,.76,2.47,.76s1.75-.05,2.47-.76c.1-.11,.11-.27,.02-.39-.11-.11-.28-.11-.39,0-.46,.44-1.4,.61-2.09,.61s-1.65-.16-2.09-.61c-.05-.05-.12-.08-.19-.08h0Z"/><path id="skype" d="M12.06,17.73c-3.35,0-4.85-1.65-4.85-2.89,0-.64,.47-1.08,1.11-1.08,1.44,0,1.06,2.06,3.74,2.06,1.37,0,2.13-.75,2.13-1.51,0-.46-.22-.97-1.13-1.19l-2.98-.75c-2.4-.6-2.84-1.91-2.84-3.13,0-2.54,2.38-3.49,4.62-3.49,2.06,0,4.49,1.14,4.49,2.67,0,.65-.57,1.03-1.21,1.03-1.22,0-1-1.7-3.47-1.7-1.22,0-1.91,.55-1.91,1.35s.96,1.05,1.8,1.24l2.2,.49c2.41,.54,3.02,1.95,3.02,3.29,0,2.06-1.59,3.6-4.77,3.6m9.24-4.07l-.02,.11-.04-.2s.04,.06,.05,.1c.1-.56,.15-1.14,.15-1.71,0-1.27-.25-2.51-.75-3.68-.47-1.12-1.16-2.14-2.02-3-.87-.86-1.87-1.55-3-2.02-1.1-.53-2.33-.78-3.61-.78-.6,0-1.2,.06-1.79,.17l.1,.05-.2-.03,.1-.02c-.8-.43-1.7-.66-2.62-.66-1.49,0-2.89,.58-3.95,1.64-1.05,1.06-1.64,2.46-1.64,3.96,0,.95,.24,1.89,.7,2.71l.02-.1,.03,.2-.05-.1c-.1,.54-.14,1.08-.14,1.63,0,1.27,.25,2.51,.74,3.68,.47,1.13,1.15,2.15,2.02,3.01,.86,.87,1.87,1.55,3,2.03,1.16,.5,2.4,.75,3.67,.75,.55,0,1.11-.05,1.65-.15l-.1-.05,.2,.04-.11,.03c.83,.47,1.77,.73,2.75,.73,1.49,0,2.88-.58,3.94-1.64,1.05-1.05,1.63-2.46,1.63-3.96,0-.95-.25-1.89-.71-2.72"/><path id="telegram" d="M11.95,2c-5.5,.03-9.95,4.5-9.95,10,0,5.52,4.48,10,10,10s10-4.48,10-10S17.52,2,12,2c-.02,0-.03,0-.05,0Zm4.13,6.02c.08,0,.27,.02,.39,.12,.08,.07,.13,.17,.14,.27,.01,.08,.03,.25,.02,.39-.15,1.58-.8,5.42-1.13,7.19-.14,.75-.42,1-.68,1.02-.58,.05-1.02-.38-1.58-.75-.88-.58-1.38-.94-2.23-1.5-.99-.65-.35-1.01,.22-1.59,.15-.15,2.71-2.48,2.76-2.69,0-.03,.01-.12-.05-.18s-.14-.03-.21-.02c-.09,.02-1.49,.95-4.22,2.79-.4,.27-.76,.41-1.08,.4-.36,0-1.04-.2-1.55-.37-.63-.2-1.12-.31-1.08-.66,.02-.18,.27-.36,.74-.55,2.91-1.27,4.86-2.11,5.83-2.51,2.78-1.15,3.35-1.36,3.73-1.36Z"/><path id="twitter" d="M22,5.79c-.74,.33-1.53,.55-2.35,.66,.84-.51,1.49-1.31,1.8-2.28-.79,.48-1.67,.81-2.6,1-.76-.82-1.82-1.3-3.02-1.3-2.25,0-4.08,1.84-4.08,4.1,0,.33,.04,.64,.11,.94-3.4-.17-6.43-1.81-8.45-4.28-.35,.6-.55,1.31-.55,2.06,0,1.42,.72,2.69,1.83,3.4-.68,0-1.31-.19-1.86-.48v.03c0,1.99,1.41,3.65,3.29,4.02-.34,.1-.71,.14-1.08,.14-.26,0-.52-.03-.76-.08,.52,1.62,2.02,2.82,3.82,2.85-1.4,1.11-3.16,1.76-5.1,1.76-.33,0-.65-.02-.98-.06,1.82,1.17,3.98,1.85,6.29,1.85,7.53,0,11.67-6.25,11.67-11.67,0-.18,0-.35,0-.54,.8-.57,1.49-1.3,2.05-2.13Z"/><path id="whatsapp" d="M12.04,2C6.58,2,2.13,6.45,2.13,11.91c0,1.75,.46,3.45,1.32,4.95l-1.4,5.14,5.25-1.38c1.45,.79,3.08,1.21,4.74,1.21,5.46,0,9.91-4.45,9.91-9.91,0-2.65-1.03-5.14-2.9-7.01-1.87-1.88-4.36-2.91-7.01-2.91m.01,1.67c2.2,0,4.26,.86,5.82,2.42,1.55,1.56,2.41,3.63,2.41,5.83,0,4.54-3.7,8.23-8.24,8.23-1.48,0-2.93-.39-4.19-1.15l-.3-.17-3.12,.82,.83-3.04-.2-.32c-.82-1.29-1.26-2.82-1.26-4.38,0-4.54,3.7-8.24,8.25-8.24m-3.52,3.66c-.16,0-.43,.06-.66,.31-.22,.25-.87,.86-.87,2.07s.89,2.39,1,2.56c.14,.17,1.76,2.67,4.25,3.73,.59,.27,1.05,.42,1.41,.53,.59,.19,1.13,.16,1.56,.1,.48-.07,1.46-.6,1.67-1.18,.21-.58,.21-1.07,.15-1.18-.07-.1-.23-.16-.48-.27-.25-.14-1.47-.74-1.69-.82-.23-.08-.37-.12-.56,.12-.16,.25-.64,.81-.78,.97-.15,.17-.29,.19-.53,.07-.26-.13-1.06-.39-2-1.23-.74-.66-1.23-1.47-1.38-1.72-.12-.24-.01-.39,.11-.5,.11-.11,.27-.29,.37-.44,.13-.14,.17-.25,.25-.41,.08-.17,.04-.31-.02-.43-.06-.11-.56-1.35-.77-1.84-.2-.48-.4-.42-.56-.43-.14,0-.3-.01-.47-.01Z"/><path id="android" d="M16.61,14.78c-.46,0-.84-.37-.84-.83s.38-.82,.84-.82h0c.46,0,.84,.36,.84,.82s-.38,.83-.84,.83m-9.2,0c-.46,0-.84-.37-.84-.83s.38-.82,.84-.82h0c.46,0,.83,.36,.83,.82s-.37,.83-.83,.83m9.5-5.01l1.67-2.88c.09-.17,.03-.38-.13-.47-.17-.1-.38-.04-.45,.13l-1.71,2.91c-1.34-.61-2.79-.93-4.29-.92-1.53,0-3,.33-4.27,.91l-1.69-2.91c-.09-.17-.3-.23-.47-.13-.17,.09-.22,.3-.13,.47l1.66,2.88c-2.85,1.56-4.81,4.45-5.1,7.87H22c-.28-3.41-2.23-6.3-5.09-7.86h0Z"/><path id="youtube" d="M21.58,7.16c-.23-.87-.9-1.54-1.77-1.78-1.56-.42-7.81-.42-7.81-.42,0,0-6.25,0-7.81,.42-.86,.24-1.54,.91-1.77,1.78-.42,1.57-.42,4.85-.42,4.85,0,0,0,3.28,.42,4.84,.23,.87,.9,1.54,1.77,1.78,1.56,.42,7.81,.42,7.81,.42,0,0,6.25,0,7.81-.42,.86-.24,1.54-.91,1.77-1.78,.42-1.57,.42-4.84,.42-4.84,0,0,0-3.28-.42-4.85Zm-11.63,7.82v-5.95l5.23,2.97-5.23,2.97Z"/><path id="tiktok" d="M12.44,2.02c1.09-.02,2.17,0,3.26-.02,.07,1.27,.52,2.57,1.46,3.47,.93,.92,2.25,1.35,3.53,1.49v3.36c-1.2-.04-2.41-.29-3.5-.81-.47-.22-.92-.49-1.35-.77,0,2.43,0,4.87-.02,7.29-.07,1.17-.45,2.32-1.12,3.28-1.09,1.6-2.98,2.64-4.92,2.67-1.19,.07-2.38-.26-3.4-.86-1.68-.99-2.87-2.81-3.04-4.76-.02-.42-.02-.83,0-1.24,.15-1.58,.93-3.1,2.15-4.13,1.38-1.2,3.32-1.77,5.12-1.43,.02,1.23-.03,2.47-.03,3.7-.82-.27-1.79-.19-2.52,.31-.52,.34-.92,.87-1.13,1.46-.17,.42-.12,.89-.12,1.34,.2,1.37,1.52,2.52,2.92,2.39,.93,0,1.82-.55,2.31-1.34,.16-.27,.33-.56,.34-.88,.08-1.49,.05-2.97,.06-4.47,0-3.36,0-6.71,.02-10.06Z"/><path id="github" d="M12,2.25C6.47,2.25,2,6.73,2,12.25c0,4.42,2.86,8.17,6.84,9.49,.5,.09,.68-.21,.68-.48,0-.24,0-.87-.01-1.7-2.78,.6-3.37-1.34-3.37-1.34-.45-1.15-1.11-1.46-1.11-1.46-.91-.62,.07-.61,.07-.61,1,.07,1.53,1.03,1.53,1.03,.89,1.53,2.34,1.09,2.91,.83,.09-.65,.35-1.09,.63-1.34-2.22-.25-4.56-1.11-4.56-4.94,0-1.09,.39-1.98,1.03-2.68-.11-.25-.45-1.27,.09-2.65,0,0,.84-.27,2.75,1.03,.8-.22,1.65-.33,2.5-.34,.85,0,1.7,.12,2.5,.34,1.9-1.29,2.74-1.03,2.74-1.03,.54,1.38,.2,2.39,.1,2.65,.64,.7,1.02,1.59,1.02,2.68,0,3.84-2.34,4.69-4.56,4.93,.35,.3,.68,.91,.68,1.85,0,1.34-.01,2.41-.01,2.74,0,.26,.18,.58,.69,.47,4-1.31,6.86-5.06,6.86-9.47,0-5.52-4.48-10-10-10"/><path id="gumroad" d="M15.19,14.56c.47,0,.85,.38,.85,.85,0,.47-.38,.85-.85,.85,0,0,0,0,0,0-.47,0-.85-.38-.85-.85s.38-.85,.85-.85h0ZM19.77,2.93c.47,0,.85,.38,.85,.85s-.38,.85-.85,.85c-.47,0-.85-.38-.85-.85,0-.47,.38-.85,.85-.85h0Zm-15,1.66h13.43c.3,.59,.91,.96,1.57,.96,.98,0,1.77-.8,1.77-1.78,0-.98-.8-1.77-1.77-1.77-.74,0-1.38,.46-1.64,1.11H4.77c-1.3,0-2.32,.98-2.32,2.24v14.3c0,1.28,1.06,2.35,2.32,2.35h14.3c1.26,0,2.28-1.06,2.28-2.35V11.17c0-1.28-1.02-2.32-2.28-2.32H10.58c-1.29,0-2.39,1.06-2.39,2.32v2.66c0,1.24,1.07,2.24,2.39,2.24h2.96c.27,.67,.92,1.11,1.64,1.11,.98,0,1.77-.8,1.77-1.77s-.8-1.77-1.78-1.77c-.66,0-1.27,.37-1.57,.96h-3.03c-.44,0-.91-.29-.91-.76v-2.66c0-.44,.43-.83,.91-.83h8.48c.45,0,.8,.37,.8,.83v8.48c0,.47-.37,.87-.8,.87H4.77c-.44,0-.83-.41-.83-.87V5.35c0-.43,.36-.76,.83-.76"/><path id="instagram" d="M12,2c-2.72,0-3.06,.01-4.12,.06-1.06,.05-1.79,.22-2.43,.46-.66,.25-1.22,.6-1.77,1.15-.56,.56-.9,1.11-1.15,1.77-.25,.64-.42,1.36-.46,2.43-.05,1.07-.06,1.41-.06,4.12s.01,3.06,.06,4.12c.05,1.06,.22,1.79,.46,2.43,.25,.66,.6,1.22,1.15,1.77,.56,.56,1.11,.9,1.77,1.15,.64,.25,1.36,.42,2.43,.47,1.07,.05,1.41,.06,4.12,.06s3.06-.01,4.12-.06c1.06-.05,1.79-.22,2.43-.47,.66-.25,1.22-.6,1.77-1.15,.56-.56,.9-1.11,1.15-1.77,.25-.64,.42-1.36,.47-2.43,.05-1.07,.06-1.41,.06-4.12s-.01-3.06-.06-4.12c-.05-1.06-.22-1.79-.47-2.43-.25-.66-.6-1.22-1.15-1.77-.56-.56-1.11-.9-1.77-1.15-.64-.25-1.36-.42-2.43-.46-1.07-.05-1.41-.06-4.12-.06Zm0,1.8c2.67,0,2.99,.01,4.04,.06,.97,.05,1.5,.21,1.86,.35,.47,.18,.8,.4,1.15,.75,.35,.35,.57,.68,.75,1.15,.14,.35,.3,.88,.34,1.86,.05,1.05,.06,1.37,.06,4.04s-.01,2.99-.06,4.04c-.05,.97-.21,1.5-.35,1.86-.19,.47-.4,.8-.75,1.15-.35,.35-.69,.57-1.15,.75-.35,.14-.89,.3-1.86,.34-1.06,.05-1.37,.06-4.05,.06s-2.99-.01-4.05-.06c-.98-.05-1.51-.21-1.86-.35-.47-.19-.8-.4-1.15-.75-.35-.35-.58-.69-.75-1.15-.14-.35-.3-.89-.35-1.86-.04-1.05-.05-1.37-.05-4.04s.01-2.99,.05-4.05c.05-.97,.21-1.51,.35-1.86,.18-.48,.4-.8,.75-1.15s.67-.57,1.15-.75c.35-.14,.88-.3,1.85-.35,1.06-.04,1.37-.05,4.05-.05,0,0,.04,.02,.04,.02Zm0,3.06c-2.84,0-5.13,2.3-5.13,5.13s2.3,5.14,5.13,5.14,5.14-2.3,5.14-5.14-2.3-5.13-5.14-5.13Zm0,8.47c-1.84,0-3.33-1.49-3.33-3.33s1.49-3.33,3.33-3.33,3.33,1.49,3.33,3.33-1.49,3.33-3.33,3.33Zm6.54-8.67c0,.66-.54,1.2-1.2,1.2s-1.2-.54-1.2-1.2,.54-1.2,1.2-1.2c.66,0,1.2,.54,1.2,1.2Z"/><path id="google" d="M12.4,11.1v2.73h6.53c-.2,1.53-.71,2.66-1.49,3.44-.96,.96-2.44,2-5.04,2-4.02,0-7.17-3.24-7.17-7.27s3.14-7.27,7.17-7.27c2.17,0,3.76,.86,4.92,1.96l1.92-1.92c-1.62-1.58-3.8-2.78-6.84-2.78C6.89,2,2.26,6.49,2.26,12s4.63,10,10.14,10c2.98,0,5.22-.98,6.98-2.8,1.8-1.8,2.37-4.34,2.37-6.39,0-.63-.04-1.22-.14-1.71H12.4Z"/><path id="acer" d="M21.95,9.8c-.07-.09-.14-.16-.5-.19-.09,0-.38-.02-.87-.02-1.3,0-2.2,.4-2.65,1.18,.12-.78-.64-1.18-2.29-1.18-1.94,0-3.16,.78-3.66,2.36-.19,.59-.19,1.06-.05,1.44h-.47c-.35,.02-.83,.05-1.13,.05-.71,0-1.16-.12-1.32-.35-.14-.21-.14-.61,.05-1.2,.31-.97,1.04-1.39,2.22-1.39,.61,0,1.2,.07,1.2,.07,.07,0,.12-.09,.12-.16l-.02-.07-.05-.33c-.02-.21-.19-.33-.47-.38-.26-.02-.47-.02-.76-.02h-.02c-1.53,0-2.62,.52-3.21,1.51,.21-1.02-.5-1.51-2.13-1.51-.92,0-1.58,.02-1.96,.07-.31,.05-.5,.17-.57,.38l-.14,.42c-.02,.07,.02,.12,.12,.12,.07,0,.35-.05,.83-.07,.46-.04,.93-.06,1.39-.07,.9,0,1.3,.24,1.16,.68-.02,.1-.09,.17-.21,.19-.85,.14-1.53,.24-2.03,.31-1.42,.19-2.24,.61-2.46,1.32-.31,.97,.45,1.44,2.27,1.44,.9,0,1.68-.05,2.29-.16,.35-.07,.54-.14,.61-.38l.33-1.09c-.02,1.09,.71,1.63,2.27,1.63,.66,0,1.3-.02,1.61-.07,.31-.05,.47-.12,.54-.35l.07-.33c.33,.52,1.06,.78,2.17,.78,1.18,0,1.87-.02,2.05-.1,.14-.03,.25-.13,.31-.26l.02-.07,.14-.45c.02-.07-.02-.12-.12-.12l-.75,.05c-.5,.02-.9,.05-1.18,.05-.54,0-.9-.05-1.11-.12-.31-.12-.45-.33-.42-.68l2.39-.31c1.06-.14,1.79-.47,2.15-.99l-.83,2.76s0,.1,.02,.12c.02,.02,.07,.05,.17,.05h.99c.16,0,.24-.1,.26-.17l.87-3.05c.12-.4,.47-.59,1.13-.59,.59,0,1.02,0,1.3,.02h.02s.14-.02,.21-.14l.14-.42c0-.07,0-.14-.05-.19Zm-15.92,3.64c-.31,.05-.76,.07-1.32,.07-1.02,0-1.44-.21-1.32-.61,.09-.28,.35-.47,.78-.52l2.29-.31-.43,1.37Zm10.56-2.46c-.1,.31-.54,.52-1.35,.64l-1.91,.26,.05-.16c.17-.52,.38-.85,.66-1.04s.76-.28,1.42-.28c.87,.02,1.25,.21,1.13,.59h0Z"/><path id="angular" d="M10.28,12.54h3.45l-1.72-4.09m0-6.45L2.57,5.32l1.44,12.31,8,4.37,8-4.37,1.44-12.31L12,2h0Zm5.89,15.26h-2.2l-1.18-2.92h-5.01l-1.18,2.92h-2.2L12,4.21l5.89,13.05Z"/><path id="angularjs" d="M11.97,2L2.56,5.31l1.49,12.33,7.93,4.36,7.97-4.42,1.49-12.33L11.97,2Zm-.02,1.05l8.55,2.92-1.39,11.03-7.17,3.97-7.06-3.91L3.62,6.02,11.95,3.05Zm0,.65l-5.82,12.94,2.17-.04,1.17-2.92h5.21l1.28,2.96,2.08,.04L11.95,3.7Zm.02,4.15l1.96,4.11h-3.7l1.73-4.11Z"/><path id="apple" d="M12.13,7.75c-.79,0-2.01-.9-3.3-.87-1.7,.02-3.26,.99-4.13,2.51-1.76,3.06-.45,7.59,1.27,10.07,.84,1.21,1.84,2.57,3.16,2.53,1.27-.05,1.74-.82,3.28-.82s1.96,.82,3.3,.79c1.36-.02,2.23-1.23,3.06-2.46,.96-1.41,1.36-2.77,1.38-2.85-.03-.01-2.65-1.02-2.68-4.05-.02-2.53,2.07-3.74,2.16-3.8-1.19-1.74-3.02-1.94-3.66-1.98-1.67-.13-3.06,.91-3.84,.91h0Zm2.81-2.55c.7-.84,1.17-2.02,1.04-3.19-1.01,.04-2.22,.67-2.94,1.51-.65,.75-1.21,1.95-1.06,3.09,1.11,.09,2.26-.57,2.97-1.42"/><path id="app-store" d="M9.34,14.43L14.43,5.24c.07-.13,.14-.25,.2-.38,.06-.12,.11-.24,.14-.37,.07-.27,.05-.55-.05-.81-.1-.26-.28-.47-.52-.61-.23-.14-.5-.2-.77-.16-.27,.04-.51,.16-.7,.36-.09,.09-.17,.2-.24,.31-.08,.12-.15,.25-.22,.37l-.32,.58-.32-.58c-.07-.13-.14-.25-.22-.37-.07-.11-.14-.21-.24-.31-.19-.2-.44-.32-.7-.36-.27-.04-.54,.02-.77,.16-.23,.14-.41,.35-.52,.61-.1,.26-.12,.54-.05,.81,.03,.13,.08,.25,.14,.37,.06,.13,.13,.26,.2,.38l1.04,1.88-4.05,7.32H3.69c-.14,0-.28,0-.42,0-.13,0-.25,.02-.37,.06-.26,.08-.49,.23-.65,.46-.16,.22-.25,.49-.25,.77s.09,.55,.25,.77c.16,.22,.39,.38,.65,.46,.12,.04,.25,.05,.37,.06,.14,0,.28,0,.42,0H14.61s.05-.11,.08-.22c.35-1.18-.51-2.37-1.7-2.37h-3.65Zm-4.75,3.02l-.66,1.25c-.07,.13-.14,.26-.2,.39-.06,.12-.1,.24-.13,.38-.07,.28-.05,.57,.05,.84,.1,.26,.28,.49,.51,.63,.23,.14,.49,.2,.75,.16,.26-.04,.5-.17,.69-.37,.09-.1,.16-.2,.23-.32,.08-.13,.14-.25,.21-.38l.96-1.81c-.07-.12-.79-1.23-2.41-.77m17.16-2.5c-.16-.22-.39-.38-.65-.45-.12-.04-.25-.05-.37-.06-.14,0-.28,0-.42,0h-2.77l-3.66-6.51c-.55,.58-.8,1.24-.9,1.83-.14,.86,.03,1.74,.45,2.5l4.4,7.83c.07,.12,.14,.25,.22,.37,.07,.11,.14,.21,.24,.3,.19,.19,.44,.32,.7,.35,.27,.04,.54-.02,.77-.16,.23-.14,.41-.35,.52-.6,.1-.26,.12-.54,.05-.8-.03-.13-.08-.25-.14-.36-.06-.13-.13-.25-.2-.38l-1.01-1.81h1.33c.14,0,.28,0,.42,0,.13,0,.25-.02,.37-.06,.26-.07,.49-.23,.65-.45,.16-.22,.25-.49,.25-.76,0-.27-.09-.54-.25-.76Z"/><path id="arduino" d="M21.85,12c-.05-2.66-2.24-4.77-4.9-4.73-.24,0-.5,.02-.75,.04-2.1,.31-3.5,1.82-4.28,2.97-.79-1.16-2.2-2.67-4.28-2.97-.25-.03-.5-.04-.75-.04-2.65-.04-4.84,2.07-4.89,4.73,.05,2.65,2.24,4.77,4.89,4.73,.25,0,.5-.02,.77-.05,2.1-.3,3.5-1.81,4.28-2.97,.79,1.16,2.19,2.67,4.28,2.97,.26,.03,.5,.04,.76,.04,2.64,.03,4.82-2.08,4.87-4.73Zm-14.45,3c-.17,.03-.36,.03-.53,.03-1.73,.04-3.16-1.32-3.21-3.05,.05-1.73,1.49-3.09,3.22-3.05,.17,0,.35,.02,.53,.03,1.97,.29,3.18,2.23,3.59,3.02-.42,.79-1.62,2.75-3.59,3.02h0Zm5.43-3c.41-.78,1.62-2.73,3.59-3.02,.17-.03,.35-.03,.52-.03,1.73-.05,3.17,1.31,3.22,3.04,0,0,0,0,0,.01-.05,1.73-1.49,3.09-3.22,3.05-.17,0-.35-.02-.52-.03-1.97-.29-3.18-2.24-3.59-3.02h0Zm-7.32,.49h2.95v-.97h-2.94v.97h0Zm11.78,0h.99v-.97h-1v-.99h-.94v1h-1v.96h1v.98h.96v-.97h0Zm4.72-4.62c0,.25-.18,.42-.44,.42-.23,0-.43-.17-.44-.41,0,0,0,0,0,0,0-.23,.2-.43,.44-.43,.26,0,.44,.18,.44,.43Zm-.76,0c0,.18,.13,.33,.33,.33,.18,0,.32-.15,.32-.33s-.13-.33-.32-.33c-.2-.02-.33,.13-.33,.33Zm.25,.22h-.08v-.43h.17c.08,0,.12,0,.15,.02s.05,.05,.05,.09c0,.05-.03,.08-.09,.09,.04,.02,.06,.05,.08,.11l.03,.11h-.1s-.02-.06-.03-.11c-.02-.04-.03-.06-.09-.06h-.04l-.02,.18h0Zm.02-.25h.05c.06,0,.08,0,.08-.06,0-.04-.03-.06-.08-.06h-.06v.12s0,0,0,0Z"/><path id="asus" d="M21.92,10.99v-1.05h-3.88c-.81,0-1.17,.5-1.24,.99h0s0-.99,0-.99h-1.14v1.05h6.26Zm-5.12,.38l-1.14-.07v1.22c0,.38-.19,.49-.85,.49h-.91c-.55,0-.78-.15-.78-.49v-1.33l-1.15-.09v1.51h-.02c-.07-.44-.23-.95-1.33-1.02l-3.62-.24c0,.56,.4,.89,1.02,.95l2.52,.25c.2,.01,.34,.08,.34,.24,0,.18-.15,.2-.38,.2h-3.54v-1.65l-1.16-.08v2.79h4.7c1.05,0,1.38-.55,1.44-1h.02c.13,.72,.76,1,1.82,1h1.17c1.24,0,1.83-.38,1.83-1.27v-1.43Zm3.66,.22l-3.61-.22c0,.56,.36,.92,.98,.98l2.58,.2c.2,.01,.32,.07,.32,.23,0,.15-.14,.22-.43,.22h-3.51v1.08h3.59c1.13,0,1.63-.4,1.63-1.3,0-.81-.45-1.12-1.54-1.19Zm-8.5-1.65h1.15v1.05h-1.15v-1.05Zm-6.8,1.29l-1.26-.12-1.91,2.96h1.41l1.76-2.84Zm6.6-1.29h-3.53c-.82,0-1.18,.51-1.27,1v-1h-1.95c-.27,0-.41,.09-.54,.27l-.54,.78h7.82v-1.05Z"/><path id="behance" d="M2,5.73v12.3H7.96c.55,0,1.09-.07,1.61-.21,.52-.14,.99-.35,1.4-.64,.4-.29,.73-.66,.97-1.11,.24-.45,.36-.99,.36-1.61,0-.77-.18-1.43-.56-1.97-.37-.55-.93-.93-1.69-1.15,.56-.26,.97-.6,1.25-1.01,.28-.41,.42-.93,.42-1.55,0-.57-.09-1.06-.28-1.44-.19-.39-.46-.7-.8-.94-.35-.23-.76-.4-1.24-.51-.49-.11-1.02-.16-1.61-.16H2Zm13.06,.83v1.21h4.99v-1.21h-4.99Zm-10.35,1.27h2.53c.24,0,.47,.02,.7,.06,.23,.04,.42,.11,.6,.22,.17,.1,.31,.24,.42,.43,.1,.18,.15,.42,.15,.71,0,.52-.15,.89-.46,1.12-.31,.23-.71,.35-1.19,.35h-2.74v-2.88Zm12.95,1.05c-.68,0-1.3,.12-1.86,.36-.56,.24-1.04,.57-1.44,.99-.4,.42-.71,.92-.93,1.49-.22,.57-.33,1.2-.33,1.86s.11,1.32,.32,1.9c.22,.58,.52,1.07,.9,1.48,.4,.41,.87,.73,1.44,.96,.57,.22,1.2,.34,1.9,.34,1.01,0,1.87-.23,2.58-.69,.72-.46,1.24-1.23,1.59-2.3h-2.15c-.08,.28-.3,.54-.65,.79-.36,.25-.78,.37-1.28,.37-.69,0-1.22-.18-1.58-.54-.37-.36-.61-1.02-.61-1.73h6.43c.05-.69-.01-1.35-.17-1.98-.16-.63-.42-1.2-.78-1.69-.36-.49-.83-.89-1.39-1.18-.57-.3-1.23-.44-1.98-.44Zm-.07,1.85c.6,0,1.09,.17,1.38,.5,.29,.32,.51,.79,.56,1.41h-3.98c.01-.17,.05-.37,.11-.59,.06-.22,.17-.43,.33-.63,.16-.19,.37-.36,.62-.49,.26-.13,.58-.2,.97-.2h0Zm-12.88,1.83h2.94c.58,0,1.06,.13,1.41,.4,.35,.27,.53,.72,.53,1.36,0,.32-.05,.59-.16,.8-.11,.21-.26,.37-.44,.49-.18,.12-.4,.21-.64,.26-.24,.05-.49,.08-.76,.08h-2.89v-3.39Z"/><path id="blackberry" d="M3.71,4.95l-.73,3.47h2.73c2.1,0,2.73-1.03,2.73-1.95,0-.68-.39-1.52-2.1-1.52H3.71m7.08,0l-.73,3.47h2.73c2.13,0,2.73-1.03,2.73-1.95,0-.68-.39-1.52-2.1-1.52h-2.63m6.48,3.08l-.78,3.47h2.73c2.14,0,2.77-.98,2.77-1.95,0-.68-.39-1.52-2.08-1.52h-2.65M2.73,10.17l-.73,3.47h2.73c2.14,0,2.73-1.03,2.73-1.95,0-.68-.39-1.52-2.1-1.52H2.73m7.13,0l-.78,3.47h2.73c2.14,0,2.78-1.03,2.78-1.95,0-.68-.39-1.52-2.1-1.52h-2.64m6.39,3.27l-.73,3.46h2.73c2.08,0,2.73-.98,2.73-1.95,0-.68-.39-1.51-2.09-1.51h-2.64m-7.41,2.14l-.73,3.47h2.73c2.09,0,2.72-1.02,2.72-1.95,0-.68-.38-1.52-2.09-1.52h-2.63Z"/><path id="bootstrap" d="M11.81,11.37h-1.51v-2.53h1.79c.98,0,1.53,.44,1.53,1.22,0,.84-.64,1.31-1.81,1.31h0Zm.27,1.01h-1.78v2.79h1.86c1.22,0,1.86-.49,1.86-1.4s-.66-1.39-1.94-1.39Zm9.92-.88v1.02c-.94,.09-1.51,.79-1.85,1.89-.34,1.1-.39,2.45-.35,3.49,.04,1.08-.81,2.08-1.95,2.08H6.15c-1.14,0-1.99-1-1.95-2.08,.04-1.04-.01-2.39-.35-3.49-.34-1.1-.92-1.8-1.86-1.89v-1.02c.94-.09,1.52-.79,1.86-1.89,.34-1.1,.39-2.45,.35-3.49-.04-1.08,.81-2.08,1.95-2.08h11.69c1.14,0,1.98,1,1.95,2.08-.04,1.04,.01,2.39,.35,3.49,.34,1.1,.91,1.8,1.85,1.89Zm-6.61,2.35c0-1.13-.79-1.94-1.97-2.07v-.05c.87-.14,1.55-.95,1.55-1.84,0-1.28-1.01-2.12-2.55-2.12h-3.47v8.48h3.48c1.85,0,2.96-.91,2.96-2.4Z"/><path id="bukalapak" d="M11.15,21.87c-1.38,.45-2.87-.31-3.32-1.69s.31-2.87,1.69-3.32,2.87,.31,3.32,1.69c.45,1.38-.31,2.87-1.69,3.32h0Zm5.46-2.4c3.37-1.1,6.1-4.98,4.74-9.15-1.35-4.17-5.84-5.71-9.21-4.62-.79,.25-1.24,1.07-1.04,1.87l.34,1.4c.21,.85,1.06,1.36,1.91,1.15,.04,0,.07-.02,.11-.03l.13-.04c1.55-.5,2.99,.42,3.39,1.68,.42,1.26-.2,2.85-1.75,3.36l-.13,.04c-.83,.27-1.28,1.16-1.01,1.99,.01,.04,.02,.07,.04,.11l.54,1.34c.31,.76,1.16,1.16,1.95,.9Zm-5.8-6.65L8.53,3.46c-.25-1.03-1.29-1.66-2.32-1.4-.05,.01-.09,.02-.13,.04l-2.46,.8c-1.01,.33-1.56,1.41-1.23,2.42,.01,.04,.03,.09,.05,.13l3.66,8.91c.38,.93,1.41,1.41,2.37,1.1l1.07-.35c.96-.31,1.51-1.31,1.27-2.28Z"/><path id="bun" d="M11.23,4.64c0,1.27-.54,2.49-1.5,3.32-.08,.07-.02,.19,.08,.16,.9-.35,2.11-1.39,1.6-3.5-.02-.12-.18-.09-.18,.02h0Zm.6,0c.66,1.08,.82,2.39,.43,3.59-.03,.09,.08,.17,.15,.1,.58-.75,1.09-2.23-.43-3.83-.08-.07-.2,.04-.14,.13h0Zm.74-.03c1.03,.73,1.7,1.88,1.83,3.14,0,.05,.03,.09,.08,.09,.04,0,.08-.02,.09-.06,.25-.93,.11-2.52-1.91-3.34-.11-.04-.18,.1-.09,.17h0Zm-4.92,2.78c1.23-.37,2.24-1.24,2.79-2.4,.05-.1,.2-.06,.18,.05-.46,2.13-2.01,2.58-2.97,2.52-.1,0-.1-.14,0-.17Zm4.35,13.33c-5.51,0-10-3.6-10-8.01,0-2.67,1.65-5.15,4.41-6.65,.8-.43,1.49-.86,2.1-1.23,.34-.21,.65-.4,.96-.58,.94-.56,1.74-.93,2.54-.93s1.5,.32,2.37,.84c.27,.15,.53,.32,.82,.5,.66,.41,1.41,.87,2.4,1.41,2.76,1.49,4.41,3.98,4.41,6.65,0,4.42-4.49,8.01-10,8.01Zm0-16.73c-.65,0-1.33,.33-2.2,.83-.3,.18-.61,.37-.94,.57-.62,.38-1.33,.82-2.13,1.25-2.54,1.37-4.06,3.64-4.06,6.06,0,4.05,4.19,7.35,9.33,7.35s9.33-3.3,9.33-7.35c0-2.42-1.52-4.69-4.06-6.05-1.01-.53-1.79-1.04-2.43-1.43-.29-.18-.56-.34-.8-.49-.81-.48-1.4-.75-2.04-.75Zm-1.02,11.73c.27-.35,.68-.55,1.12-.56,.4,.01,.78,.17,1.07,.45,.06-.07,.12-.14,.18-.21-.34-.32-.79-.51-1.26-.51-.51,0-.98,.24-1.3,.63,.06,.07,.13,.13,.2,.19Zm1.05,.85c-.44-.04-.86-.23-1.19-.53-.41-.35-.7-.82-.83-1.35-.02-.09,0-.19,.07-.27,.07-.09,.19-.14,.3-.14h3.29c.12,0,.23,.05,.3,.14,.06,.07,.09,.17,.07,.27-.13,.53-.42,1-.83,1.35-.32,.31-.74,.49-1.18,.53h0Zm-1.64-1.97s-.05,.02-.06,.02c.11,.46,.37,.86,.73,1.16,.26,.26,.61,.42,.97,.47,.37-.04,.71-.2,.97-.46,.36-.3,.61-.71,.72-1.16-.01-.02-.03-.03-.05-.02h-3.29Zm-3.13-2.54c0-.26,.07-.51,.2-.74,.57-.98,1.98-.98,2.55,0,.56,.98-.14,2.2-1.28,2.2-.81,0-1.47-.66-1.47-1.47Zm6.61,0c0-.81,.66-1.47,1.47-1.47,.81,0,1.47,.66,1.47,1.47,0,.81-.66,1.47-1.47,1.47,0,0,0,0,0,0-.81,0-1.46-.66-1.46-1.47Zm-5.6,.09c.3,0,.55-.24,.55-.55,0-.1-.02-.19-.07-.28-.15-.26-.49-.36-.75-.21s-.36,.49-.21,.75c.1,.17,.28,.28,.48,.28Zm6.61,0c.3,0,.55-.24,.55-.55,0-.1-.02-.19-.07-.28-.15-.26-.49-.36-.75-.21s-.36,.49-.21,.75c.1,.17,.28,.28,.47,.28h0Z"/><path id="codeigniter" d="M11.56,2c.73,1.19-.23,2.75-1.01,3.63-.75,.85-1.66,1.56-2.49,2.33-.89,.83-1.74,1.7-2.47,2.68-1.46,1.95-2.36,4.4-1.7,6.83,.66,2.43,2.76,3.98,5.14,4.52-1.2-.52-2.32-1.84-2.32-3.18,0-1.47,.93-2.72,2.09-3.54-.14,.53-.21,1.01,.13,1.48,.33,.44,.88,.65,1.41,.54,1.24-.27,1.3-1.63,.56-2.43-.73-.79-1.43-1.67-1.15-2.81,.14-.57,.49-1.11,.93-1.49-.34,.9,.63,1.78,1.27,2.22,1.11,.77,2.33,1.34,3.35,2.24,1.07,.94,1.87,2.22,1.71,3.7-.17,1.6-1.45,2.72-2.87,3.28,3.02-.67,6.14-3.01,6.2-6.36,.08-2.53-1.59-4.76-4.3-6.15,.16,.4,.06,.58-.05,.77-.46,.79-1.73,.96-2.36,.15-1-1.29,.02-2.68,.16-4.05,.18-1.71-.89-3.37-2.22-4.37Z"/><path id="css3" d="M3.25,2H20.75l-1.59,17.97-7.18,2.03-7.14-2.03L3.25,2Zm14.24,3.68H6.51s.18,2.18,.18,2.18H15.12s-.21,2.27-.21,2.27h-5.53l.2,2.14h5.15l-.31,2.94-2.42,.67-2.46-.68-.16-1.76h-2.17l.24,3.21,4.55,1.42,4.48-1.28,1.01-11.12h0Z"/><path id="d3js" d="M13.09,12C13.09,6.76,8.85,2.52,3.61,2.52h-1.61V6.69h1.61c2.93,0,5.31,2.38,5.31,5.31s-2.38,5.31-5.31,5.31h-1.61v4.17h1.61c5.23,0,9.48-4.24,9.48-9.48Zm8.91-3.7c0-3.19-2.59-5.78-5.78-5.78h-6.67c1.64,1.03,2.99,2.46,3.9,4.17h2.76c.89,0,1.61,.72,1.61,1.61s-.72,1.61-1.61,1.61h-1.61c.26,1.38,.26,2.79,0,4.17h1.61c.89,0,1.61,.72,1.61,1.61s-.72,1.61-1.61,1.61h-2.76c-.92,1.7-2.26,3.14-3.9,4.17h6.67c1.35,0,2.66-.47,3.7-1.34,2.45-2.04,2.79-5.69,.75-8.14,.86-1.04,1.34-2.35,1.34-3.7Z"/><path id="deezer" d="M17.67,5.47v2.52h4.33v-2.52h-4.33Zm-10.45,3.52v2.52h4.32v-2.52H7.22Zm10.45,0v2.52h4.33v-2.52h-4.33Zm-10.45,3.51v2.52h4.32v-2.52H7.22Zm5.23,0v2.52h4.33v-2.52h-4.33Zm5.23,0v2.52h4.32v-2.52h-4.32Zm-15.68,3.51v2.52H6.33v-2.53H2Zm5.22,0v2.52h4.32v-2.53H7.22Zm5.23,0v2.52h4.33v-2.53h-4.33Zm5.23,0v2.52h4.32v-2.53h-4.32Z"/><path id="deno" d="M12,2c5.52,0,10,4.48,10,10s-4.48,10-10,10S2,17.52,2,12,6.48,2,12,2Zm-.39,5.66c-2.91,0-5.17,1.83-5.17,4.11,0,2.15,2.08,3.52,5.31,3.45h.1s.35-.01,.35-.01l-.09,.23v.02c.04,.06,.06,.12,.08,.18v.02s.02,.04,.02,.04l.02,.05v.04s.02,.04,.02,.04v.04s.03,.06,.03,.06l.02,.07v.05s.03,.07,.03,.07l.02,.07,.02,.08,.02,.08v.05s.03,.08,.03,.08l.02,.09,.03,.12v.06s.03,.1,.03,.1l.02,.1,.02,.1,.03,.14,.02,.12,.03,.16,.02,.08,.02,.13,.02,.13,.03,.18,.03,.19,.03,.19,.03,.2,.03,.21,.03,.21,.03,.22,.03,.17,.05,.29,.02,.12,.05,.3,.04,.25,.03,.19,.04,.26,.02,.13c2.09-.28,4.02-1.28,5.44-2.84l.04-.05-.2-.74-.53-1.97-.33-1.23-.29-1.08-.18-.66-.11-.42-.07-.25-.06-.22-.03-.09v-.05s-.02-.03-.02-.03v-.02c-.31-.98-.9-1.84-1.7-2.48-.94-.74-2.14-1.13-3.54-1.13Zm-2.55,10.42c-.26-.07-.52,.08-.59,.33h0s-.44,1.64-.44,1.64c.27,.14,.55,.26,.84,.36l.07,.03,.47-1.76h0c.06-.27-.09-.53-.35-.6Zm2.72-1.19c-.26-.07-.52,.08-.6,.33h0s-.66,2.47-.66,2.47h0c-.06,.27,.1,.54,.36,.6,.25,.06,.5-.09,.58-.33h0s.66-2.47,.66-2.47h0s0-.05,.01-.07v-.02s-.01-.08-.01-.08l-.02-.12v-.07c-.08-.12-.19-.21-.32-.25h0Zm-4.63-2.53s-.02,.05-.03,.08v.02s-.67,2.46-.67,2.46h0c-.06,.27,.1,.54,.36,.6,.25,.06,.51-.09,.58-.34h0s.6-2.24,.6-2.24c-.3-.16-.59-.35-.85-.58h0Zm-1.58-2.83c-.26-.07-.52,.08-.6,.33h0s-.66,2.47-.66,2.47h0c-.06,.28,.11,.54,.37,.59,.24,.05,.49-.09,.57-.33h0s.66-2.47,.66-2.47h0c.06-.27-.09-.53-.35-.6Zm14.89-.56c-.26-.07-.52,.08-.6,.33h0s-.66,2.47-.66,2.47h0c-.06,.28,.11,.54,.37,.59,.24,.05,.49-.09,.57-.33h0s.66-2.47,.66-2.47h0c.06-.27-.09-.53-.35-.6ZM4.12,7.68c-.56,1.01-.91,2.12-1.04,3.27,.18,.2,.49,.22,.69,.04,.07-.06,.12-.14,.15-.23h0s.66-2.47,.66-2.47h0c.06-.27-.1-.54-.36-.6-.03,0-.07-.01-.1-.01Zm14.65,.02c-.26-.07-.52,.08-.6,.33h0s-.66,2.47-.66,2.47h0c-.06,.27,.1,.54,.36,.6,.25,.06,.5-.09,.58-.33h0s.66-2.47,.66-2.47h0c.06-.27-.09-.53-.35-.6h0Zm-6.54,1.6c.35,0,.62,.28,.62,.62s-.28,.62-.62,.62-.62-.28-.62-.62,.28-.62,.62-.62Zm-5.22-3.94c-.26-.07-.52,.08-.6,.33h0s-.66,2.47-.66,2.47h0c-.07,.27,.08,.54,.34,.61,.26,.07,.53-.08,.6-.34h0s.66-2.47,.66-2.47h0c.06-.27-.09-.53-.35-.6h0Zm8.53,.47c-.26-.07-.52,.08-.59,.33h0s-.45,1.66-.45,1.66c.29,.14,.56,.31,.82,.5l.04,.03,.52-1.93h0c.06-.27-.09-.53-.35-.6Zm-4.34-2.77c-.31,.03-.62,.07-.93,.13h-.07s-.62,2.31-.62,2.31h0c-.06,.28,.1,.54,.36,.6,.25,.06,.5-.09,.58-.33h0s.66-2.47,.66-2.47h0c.02-.08,.02-.16,0-.23Zm6.11,1.7l-.13,.48h0c-.06,.28,.1,.54,.36,.6,.25,.06,.5-.09,.58-.33h0s.01-.06,.01-.06c-.24-.23-.5-.44-.77-.64l-.06-.04Zm-3.86-1.62l-.24,.87h0c-.06,.28,.11,.54,.37,.59,.24,.05,.49-.09,.57-.33h0s.25-.93,.25-.93c-.29-.08-.59-.15-.89-.2,0,0-.07-.01-.07-.01Z"/><path id="devto" d="M8.18,10.38c-.15-.13-.38-.19-.7-.19h-.48l.02,2.03,.03,2.04,.47-.02c.34,0,.53-.06,.69-.22,.2-.2,.22-.3,.22-1.83s-.02-1.63-.24-1.82ZM2,6.12v11.77H22V6.12H2Zm7.13,8.63c-.37,.48-.88,.64-2.11,.64h-1.1v-6.28h1.17c1.39,0,1.8,.15,2.17,.75,.23,.36,.24,.5,.27,2.14,.04,1.86-.02,2.28-.39,2.75Zm4.24-4.56h-2.06v1.48h1.27v1.07l-.6,.03-.62,.02v1.47l1.02,.02,1,.03v1.07h-1.33c-1.27,0-1.33,0-1.56-.25l-.25-.23v-2.63c0-2.52,0-2.65,.21-2.9,.19-.26,.21-.26,1.57-.26h1.37v1.08h0Zm3.9,4.53c-.14,.36-.53,.66-.83,.66-.15,0-.38-.12-.56-.33-.27-.27-.38-.53-.68-1.73l-.75-2.83-.37-1.39h.63c.33,0,.62,.02,.62,.04,0,.05,.97,3.78,1.05,4.02,.03,.12,.27-.58,.61-1.92l.55-2.1,.62-.03c.33-.02,.61,0,.61,.03,0,.12-1.39,5.32-1.5,5.57h0Z"/><path id="deviantart" d="M18.01,6l.19-.36V2h-3.64l-.36,.37-1.71,3.27-.54,.36H5.82v4.99h3.37l.3,.36-3.48,6.65-.2,.36v3.63h3.64l.36-.37,1.72-3.27,.54-.36h6.13v-4.99h-3.38l-.3-.36,3.49-6.65h0Z"/><path id="disqus" d="M12.36,21.71c-2.38,0-4.55-.87-6.23-2.31l-4.13,.57,1.6-3.94c-.56-1.23-.87-2.59-.87-4.03C2.73,6.64,7.04,2.29,12.37,2.29s9.63,4.35,9.63,9.71-4.31,9.71-9.64,9.71Zm5.26-9.74v-.03c0-2.8-1.98-4.8-5.38-4.8h-3.68v9.71h3.62c3.43,0,5.44-2.08,5.44-4.89h0Zm-5.35,2.5h-1.07v-4.94h1.07c1.58,0,2.63,.9,2.63,2.45v.02c0,1.57-1.05,2.46-2.63,2.46Z"/><path id="dropbox" d="M7,3.51L2,6.69l5,3.19,5-3.19L7,3.51Zm10,0l-5,3.19,5,3.19,5-3.19s-5-3.19-5-3.19ZM2,13.06l5,3.19,5-3.19-5-3.19-5,3.19Zm15-3.19l-5,3.19,5,3.19,5-3.19-5-3.19Zm-10,7.43l5,3.19,5-3.19-5-3.19-5,3.19Z"/><path id="duckduckgo" d="M12,2C6.48,2,2,6.48,2,12s4.48,10,10,10,10-4.48,10-10S17.52,2,12,2Zm0,19.17c-5.06,0-9.17-4.11-9.17-9.17S6.94,2.83,12,2.83s9.17,4.1,9.17,9.17-4.1,9.17-9.17,9.17Zm8.52-9.17c0,4-2.76,7.36-6.49,8.27-.23-.43-.44-.85-.62-1.2,.54,.21,1.61,.6,1.84,.51,.31-.12,.24-2.62-.12-2.7-.28-.06-1.36,.7-1.78,1.01l.03,.13c.07,.33,.12,.83,.02,1.04,0,0,0,0,0,.01-.01,.03-.03,.05-.06,.07-.24,.16-.9,.24-1.25,.16-.02,0-.04,0-.05-.02-.58,.33-1.68,.92-1.88,.81-.27-.16-.31-2.23-.27-2.74,.03-.38,1.38,.24,2.03,.57,.14-.14,.5-.23,.82-.26-.47-1.16-.82-2.48-.61-3.42,0,0,0,0,0,0,.3,.21,2.28,.88,3.26,.86,.98-.02,2.6-.62,2.42-1.1-.18-.48-1.78,.43-3.45,.27-1.24-.11-1.46-.67-1.18-1.07,.34-.51,.97,.1,2.01-.21,1.04-.31,2.49-.86,3.03-1.16,1.24-.69-.52-.98-.94-.79-.4,.18-1.77,.53-2.41,.68,.36-1.26-.5-3.46-1.46-4.42-.31-.31-.79-.51-1.34-.61-.21-.29-.55-.56-1.02-.81-.92-.48-1.97-.65-3-.49h-.02s-.03,0-.03,0h0c-.12,.02-.2,.07-.3,.08,.12,.01,.59,.23,.88,.35-.14,.06-.34,.09-.5,.15-.06,0-.12,.02-.17,.05-.14,.07-.25,.31-.25,.43,.7-.07,1.74-.02,2.49,.2-.54,.08-1.03,.21-1.38,.4-.01,0-.02,.02-.04,.02-.04,.02-.09,.03-.13,.05-1.14,.6-1.64,2-1.34,3.69,.27,1.52,1.39,6.74,1.91,9.22-3.31-1.17-5.69-4.32-5.69-8.03,0-4.7,3.81-8.52,8.52-8.52s8.52,3.81,8.52,8.52Zm-10.94-2.02c-.35,0-.63,.28-.63,.63,0,.35,.28,.63,.63,.63h0c.35,0,.63-.28,.63-.63,0-.35-.28-.63-.63-.63Zm.28,.58c-.09,0-.16-.07-.16-.16s.07-.16,.16-.16h0c.09,0,.16,.07,.16,.16s-.07,.16-.16,.16Zm3.94-.87c-.3-.01-.55,.22-.56,.52-.01,.3,.22,.55,.52,.56,.01,0,.03,0,.04,0,.3,0,.54-.24,.54-.54s-.24-.54-.54-.54h0Zm.24,.5c-.08,0-.14-.06-.14-.14s.06-.14,.14-.14,.14,.06,.14,.14-.06,.14-.14,.14Zm-4.28-1.41s-.48-.22-.94,.08c-.46,.29-.44,.59-.44,.59,0,0-.25-.55,.41-.82,.66-.27,.98,.15,.98,.15h0Zm4.36-.04s-.34-.2-.61-.19c-.55,0-.69,.25-.69,.25,0,0,.09-.57,.79-.46,.23,.04,.42,.19,.51,.4Z"/><path id="ea" d="M15.86,7.13l-4.94,7.81H5.53l1.26-1.92h3.35l1.23-1.95H3.89l-1.23,1.95h1.8l-2.45,3.83H12.06l3.8-6.05,1.38,2.22h-1.17l-1.23,1.92h3.62l1.23,1.92h2.31L15.86,7.13Zm-9.55,.09l-1.23,1.95,7.93-.03,1.23-1.92H6.31Z"/><path id="electron" d="M12.01,2c-.71,0-1.28,.57-1.28,1.28s.57,1.28,1.28,1.28c.5,0,.92-.28,1.14-.69,1.85,1.06,3.21,4.56,3.21,8.64,0,1.73-.24,3.38-.69,4.81-.04,.14,.03,.29,.18,.34,0,0,0,0,0,0,.14,.04,.29-.03,.34-.18,.46-1.48,.71-3.19,.71-4.97,0-4.33-1.48-8.07-3.6-9.17,0-.02,0-.04,0-.06,0-.71-.57-1.28-1.28-1.28Zm0,.54c.41,0,.75,.33,.75,.75,0,.41-.33,.75-.75,.75h0c-.41,0-.75-.33-.75-.75s.33-.75,.75-.75Zm-4.57,3.59c-1.72,0-3.04,.55-3.66,1.62-.61,1.06-.44,2.48,.43,3.98,.08,.13,.24,.17,.37,.09,.12-.07,.17-.23,.1-.36-.78-1.36-.93-2.58-.43-3.45,.68-1.18,2.53-1.63,4.94-1.19,.15,.03,.29-.07,.31-.22,.03-.15-.07-.29-.22-.31h0c-.65-.12-1.27-.18-1.85-.18h0Zm9.21,.01c-.15,0-.27,.12-.27,.26s.12,.27,.26,.27h0c1.53,.02,2.63,.5,3.13,1.35,.68,1.18,.15,3-1.43,4.86-.1,.11-.08,.28,.03,.38,.11,.1,.28,.08,.38-.03,0,0,0,0,0,0,1.71-2.02,2.31-4.06,1.49-5.48-.6-1.05-1.88-1.6-3.58-1.62Zm-2.25,.24s-.04,0-.05,0c-1.55,.33-3.19,.98-4.78,1.89-3.81,2.2-6.33,5.41-6.13,7.81-.39,.22-.66,.64-.66,1.12,0,.71,.57,1.28,1.28,1.28s1.28-.57,1.28-1.28-.57-1.28-1.28-1.28c-.03,0-.06,0-.09,0-.08-2.13,2.29-5.12,5.87-7.19,1.53-.89,3.13-1.51,4.62-1.83,.14-.03,.24-.17,.2-.32-.03-.12-.14-.21-.26-.21Zm-2.4,5.2c-.06,0-.13,0-.19,.02-.5,.11-.82,.6-.71,1.1,.11,.5,.6,.82,1.1,.71,.5-.11,.82-.6,.71-1.1-.09-.44-.48-.74-.92-.73Zm-6.22,1.54c-.07,0-.14,.02-.19,.07-.11,.1-.12,.27-.02,.38,0,0,0,0,0,0,1.06,1.16,2.43,2.25,4,3.15,3.68,2.12,7.59,2.74,9.63,1.53,.22,.16,.48,.24,.75,.24,.71,0,1.28-.57,1.28-1.28s-.57-1.28-1.28-1.28-1.28,.57-1.28,1.28c0,.23,.06,.45,.17,.63-1.87,1.01-5.53,.42-9-1.59-1.52-.88-2.85-1.93-3.87-3.05-.05-.05-.11-.08-.19-.09Zm-1.72,3.35c.41,0,.75,.33,.75,.75,0,.41-.33,.75-.75,.75h0c-.41,0-.75-.33-.75-.75,0-.41,.33-.75,.75-.75h0Zm15.88,0c.41,0,.75,.33,.75,.75s-.33,.75-.75,.75h0c-.18,0-.35-.06-.49-.18,0,0,0,0,0-.01-.02-.03-.05-.06-.08-.08-.26-.32-.22-.79,.1-1.05,.13-.11,.3-.17,.48-.17Zm-11.67,1.14c-.15,0-.27,.1-.28,.25,0,.04,0,.07,.02,.11,.89,2.5,2.36,4.04,4,4.04,1.2,0,2.31-.82,3.18-2.26,.08-.13,.04-.29-.09-.37,0,0,0,0,0,0-.13-.08-.29-.04-.37,.09-.78,1.29-1.73,2-2.72,2-1.37,0-2.67-1.37-3.5-3.68-.04-.1-.13-.17-.24-.18Z"/><path id="elementary" d="M12,2C6.48,2,2,6.48,2,12s4.48,10,10,10,10-4.48,10-10S17.52,2,12,2Zm0,.83c4.1,0,7.71,2.73,8.83,6.68-.94,1.93-2.26,3.66-3.88,5.07-.78,.68-1.63,1.28-2.57,1.7-.94,.42-1.97,.67-3,.6-.78-.04-1.53-.26-2.22-.63,1.8-.97,3.4-2.27,4.73-3.82,.91-.99,1.57-2.18,1.92-3.48,.15-.66,.17-1.33,.03-2-.13-.66-.45-1.27-.9-1.76-.45-.48-1.03-.82-1.67-.99-.63-.17-1.3-.19-1.94-.07-1.28,.28-2.45,.95-3.34,1.91-1.68,1.63-2.57,3.91-2.45,6.24,.11,1.42,.68,2.76,1.63,3.83-.96,.34-1.96,.57-2.97,.71C1.55,12.51,2.88,6.86,7.19,4.2c1.45-.89,3.11-1.37,4.81-1.37Zm.06,1.85c.64,0,1.29,.2,1.81,.58,.46,.35,.81,.85,1,1.4,.19,.54,.25,1.14,.18,1.72-.18,1.15-.67,2.23-1.42,3.13-1.39,1.8-3.22,3.22-5.31,4.13-.4-.35-.75-.77-1-1.23-.53-.99-.75-2.11-.62-3.22,.1-1.1,.48-2.17,1-3.16,.54-1.18,1.42-2.17,2.52-2.85,.57-.31,1.21-.5,1.85-.5Zm9.02,6.08c.68,5.02-2.84,9.63-7.86,10.31-3.14,.42-6.27-.8-8.29-3.24,1.04-.23,2.05-.57,3.03-1,.42,.33,.9,.59,1.39,.78,1.47,.52,3.07,.51,4.53-.03,1.45-.54,2.76-1.38,3.87-2.46,1.34-1.26,2.47-2.73,3.33-4.35h0Z"/><path id="elementor" d="M12,2C6.48,2,2,6.48,2,12s4.48,10,10,10,10-4.48,10-10S17.52,2,12,2Zm-2.5,14.17h-1.67V7.83h1.67v8.33Zm6.67,0h-5v-1.67h5v1.67Zm0-3.33h-5v-1.67h5v1.67Zm0-3.33h-5v-1.67h5v1.67Z"/><path id="envato" d="M18.72,2.87C15.95-.37,7.01,5.9,7.09,13.98c0,.21-.17,.37-.38,.38-.13,0-.25-.07-.32-.18-.92-2-1.04-4.27-.34-6.36,.06-.18-.04-.38-.22-.44-.13-.04-.28,0-.37,.1-1.49,1.59-2.32,3.68-2.32,5.86-.05,4.73,3.74,8.61,8.47,8.67,.07,0,.13,0,.2,0,12.2-.28,9.38-16.24,6.92-19.13Z"/></svg>