<?xml version="1.0" encoding="UTF-8"?><svg id="logo" xmlns="http://www.w3.org/2000/svg" viewBox="0 0 24 24"><path id="blogger" d="M20.3,22H3.7c-.9,0-1.7-.7-1.7-1.7V3.7c0-.9,.7-1.7,1.7-1.7H20.4c.9,0,1.6,.7,1.6,1.7V20.3c0,.9-.7,1.7-1.7,1.7ZM12,5.3h-2.5c-2.3,0-4.2,1.9-4.2,4.2v5c0,2.3,1.9,4.2,4.2,4.2h5c2.3,0,4.2-1.9,4.2-4.2v-3.3c0-.5-.4-.9-.9-.9h-.8c-.4,0-.8-.4-.8-.8,0-2.3-1.9-4.2-4.2-4.2h0Zm2.6,10h-5.1c-.4,0-.8-.4-.8-.8s.4-.8,.8-.8h5.1c.4,0,.8,.4,.8,.8s-.4,.8-.8,.8h0Zm-2.1-6.6c.4,0,.8,.4,.8,.8s-.4,.8-.8,.8h-3c-.4,0-.8-.4-.8-.8s.4-.8,.8-.8c0,0,3,0,3,0Z"/><path id="email" d="M20,8l-8,5L4,8v-2l8,5,8-5m0-2H4c-1.1,0-2,.9-2,2v12c0,1.1,.9,2,2,2H20c1.1,0,2-.9,2-2V6c0-1.1-.9-2-2-2Z"/><path id="facebook" d="M22.1,12.1c0-5.6-4.5-10.1-10.1-10.1S1.9,6.5,1.9,12.1s3.7,9.2,8.5,9.9v-7h-2.6v-2.9h2.6v-2.2c0-2.5,1.5-3.9,3.8-3.9s2.3,.2,2.3,.2v2.5h-1.3c-1.3,0-1.6,.8-1.6,1.6v1.9h2.8l-.4,2.9h-2.3v7c4.8-.8,8.5-4.9,8.5-9.9Z"/><path id="linkedin" d="M19,19h-3v-4.6c0-1.1,0-2.5-1.5-2.5s-1.8,1.2-1.8,2.4v4.7h-3V9.5h2.8v1.3h0c.4-.7,1.4-1.5,2.8-1.5,3,0,3.6,2,3.6,4.5v5.2h0ZM6.4,8.2c-1,0-1.7-.8-1.7-1.7s.8-1.7,1.7-1.7,1.7,.8,1.7,1.7-.8,1.7-1.7,1.7Zm1.5,10.8h-3V9.5h3v9.5ZM20.5,2H3.5c-.8,0-1.5,.6-1.5,1.4V20.6c0,.8,.7,1.4,1.5,1.4H20.5c.8,0,1.5-.6,1.5-1.4V3.4c0-.8-.7-1.4-1.5-1.4h0Z"/><path id="pinterest" d="M12,2C6.5,2,2,6.5,2,12s2.6,7.8,6.3,9.3c0-.8-.2-2,0-2.9,.2-.8,1.2-5,1.2-5,0,0-.3-.6-.3-1.5,0-1.4,.8-2.4,1.8-2.4s1.3,.6,1.3,1.4-.5,2.1-.8,3.3c-.2,1,.5,1.8,1.5,1.8,1.8,0,3.1-1.9,3.1-4.6s-1.7-4.1-4.2-4.1-4.5,2.1-4.5,4.3,.3,1.8,.7,2.3c0,0,0,.2,0,.3,0,.3-.2,1-.3,1.1,0,.2-.1,.2-.3,.1-1.2-.6-2-2.4-2-3.9,0-3.1,2.3-6,6.6-6s6.2,2.5,6.2,5.8-2.2,6.2-5.2,6.2-2-.5-2.3-1.1l-.6,2.4c-.2,.9-.8,2-1.2,2.6,.9,.3,1.9,.4,3,.4,5.5,0,10-4.5,10-10,0-5.5-4.5-10-10-10h0Z"/><path id="reddit" d="M12,2C6.5,2,2,6.5,2,12s4.5,10,10,10,10-4.5,10-10S17.5,2,12,2Zm4.2,4c.6,0,1,.5,1,1,0,.6-.5,1-1.1,1-.5,0-1-.4-1-1l-2.2-.5-.7,3.1c1.5,0,2.9,.5,3.9,1.2,.3-.3,.6-.4,1-.4,.8,0,1.5,.7,1.5,1.5s-.4,1.1-.8,1.3c0,.1,0,.3,0,.4,0,2.2-2.6,4.1-5.8,4.1s-5.8-1.8-5.8-4.1,0-.3,0-.4c-.5-.2-.9-.8-.9-1.3,0-.8,.7-1.5,1.5-1.5s.7,.2,1,.4c1-.7,2.4-1.2,4-1.2l.7-3.5c0,0,0-.1,.1-.2,0,0,.1,0,.2,0l2.4,.5c.2-.4,.5-.6,.9-.6Zm-6.5,6c-.6,0-1,.5-1,1s.5,1,1,1,1-.5,1-1-.5-1-1-1h0Zm4.6,0c-.6,0-1,.5-1,1s.5,1,1,1,1-.5,1-1-.5-1-1-1Zm-4.6,3.3c0,0-.1,0-.2,0-.1,.1-.1,.3,0,.4,.7,.7,2.1,.8,2.5,.8s1.8,0,2.5-.8c.1-.1,.1-.3,0-.4-.1-.1-.3-.1-.4,0-.5,.4-1.4,.6-2.1,.6s-1.6-.2-2.1-.6c0,0-.1,0-.2,0h0Z"/><path id="skype" d="M12.1,17.7c-3.4,0-4.9-1.6-4.9-2.9s.5-1.1,1.1-1.1c1.4,0,1.1,2.1,3.7,2.1s2.1-.7,2.1-1.5-.2-1-1.1-1.2l-3-.7c-2.4-.6-2.8-1.9-2.8-3.1,0-2.5,2.4-3.5,4.6-3.5s4.5,1.1,4.5,2.7-.6,1-1.2,1c-1.2,0-1-1.7-3.5-1.7s-1.9,.6-1.9,1.3,1,1,1.8,1.2l2.2,.5c2.4,.5,3,2,3,3.3,0,2.1-1.6,3.6-4.8,3.6m9.2-4.1h0c0,.1,0,0,0,0,0,0,0,0,0,0,.1-.6,.2-1.1,.2-1.7,0-1.3-.3-2.5-.7-3.7-.5-1.1-1.2-2.1-2-3-.9-.9-1.9-1.5-3-2-1.1-.5-2.3-.8-3.6-.8s-1.2,0-1.8,.2h0c0,0-.2,0-.2,0h0c-.8-.5-1.7-.7-2.6-.7-1.5,0-2.9,.6-3.9,1.6-1.1,1.1-1.6,2.5-1.6,4s.2,1.9,.7,2.7h0c0-.1,0,0,0,0h0c0,.4-.1,1-.1,1.5,0,1.3,.3,2.5,.7,3.7,.5,1.1,1.1,2.1,2,3,.9,.9,1.9,1.5,3,2,1.2,.5,2.4,.7,3.7,.7s1.1,0,1.6-.1h0c0,0,.2,0,.2,0h-.1c.8,.5,1.8,.8,2.7,.8,1.5,0,2.9-.6,3.9-1.6,1-1,1.6-2.5,1.6-4s-.2-1.9-.7-2.7"/><path id="telegram" d="M12,2c-5.5,0-10,4.5-10,10,0,5.5,4.5,10,10,10s10-4.5,10-10S17.5,2,12,2c0,0,0,0,0,0Zm4.1,6c0,0,.3,0,.4,.1,0,0,.1,.2,.1,.3,0,0,0,.3,0,.4-.2,1.6-.8,5.4-1.1,7.2-.1,.7-.4,1-.7,1-.6,0-1-.4-1.6-.8-.9-.6-1.4-.9-2.2-1.5-1-.6-.3-1,.2-1.6,.1-.2,2.7-2.5,2.8-2.7,0,0,0-.1,0-.2s-.1,0-.2,0c0,0-1.5,.9-4.2,2.8-.4,.3-.8,.4-1.1,.4-.4,0-1-.2-1.6-.4-.6-.2-1.1-.3-1.1-.7,0-.2,.3-.4,.7-.6,2.9-1.3,4.9-2.1,5.8-2.5,2.8-1.2,3.4-1.4,3.7-1.4Z"/><path id="twitter" d="M22,5.8c-.7,.3-1.5,.6-2.4,.7,.8-.5,1.5-1.3,1.8-2.3-.8,.5-1.7,.8-2.6,1-.8-.8-1.8-1.3-3-1.3-2.2,0-4.1,1.8-4.1,4.1s0,.6,.1,.9c-3.4-.2-6.4-1.8-8.5-4.3-.4,.6-.6,1.3-.6,2.1,0,1.4,.7,2.7,1.8,3.4-.7,0-1.3-.2-1.9-.5h0c0,2,1.4,3.7,3.3,4.1-.3,0-.7,.1-1.1,.1s-.5,0-.8,0c.5,1.6,2,2.8,3.8,2.8-1.4,1.1-3.2,1.8-5.1,1.8s-.7,0-1,0c1.8,1.2,4,1.8,6.3,1.8,7.5,0,11.7-6.3,11.7-11.7s0-.4,0-.5c.8-.6,1.5-1.3,2-2.1Z"/><path id="whatsapp" d="M12,2C6.6,2,2.1,6.4,2.1,11.9s.5,3.4,1.3,5l-1.4,5.1,5.3-1.4c1.4,.8,3.1,1.2,4.7,1.2,5.5,0,9.9-4.5,9.9-9.9s-1-5.1-2.9-7c-1.9-1.9-4.4-2.9-7-2.9m0,1.7c2.2,0,4.3,.9,5.8,2.4,1.5,1.6,2.4,3.6,2.4,5.8,0,4.5-3.7,8.2-8.2,8.2s-2.9-.4-4.2-1.1l-.3-.2-3.1,.8,.8-3-.2-.3c-.8-1.3-1.3-2.8-1.3-4.4,0-4.5,3.7-8.2,8.3-8.2m-3.5,3.7c-.2,0-.4,0-.7,.3-.2,.2-.9,.9-.9,2.1s.9,2.4,1,2.6c.1,.2,1.8,2.7,4.2,3.7,.6,.3,1.1,.4,1.4,.5,.6,.2,1.1,.2,1.6,0,.5,0,1.5-.6,1.7-1.2,.2-.6,.2-1.1,.2-1.2,0-.1-.2-.2-.5-.3-.2-.1-1.5-.7-1.7-.8-.2,0-.4-.1-.6,.1-.2,.2-.6,.8-.8,1-.1,.2-.3,.2-.5,0s-1.1-.4-2-1.2c-.7-.7-1.2-1.5-1.4-1.7-.1-.2,0-.4,.1-.5,.1-.1,.3-.3,.4-.4,.1-.1,.2-.2,.2-.4,0-.2,0-.3,0-.4,0-.1-.6-1.3-.8-1.8-.2-.5-.4-.4-.6-.4-.1,0-.3,0-.5,0Z"/><path id="android" d="M16.6,14.8c-.5,0-.8-.4-.8-.8s.4-.8,.8-.8h0c.5,0,.8,.4,.8,.8s-.4,.8-.8,.8m-9.2,0c-.5,0-.8-.4-.8-.8s.4-.8,.8-.8h0c.5,0,.8,.4,.8,.8s-.4,.8-.8,.8m9.5-5l1.7-2.9c0-.2,0-.4-.1-.5-.2,0-.4,0-.5,.1l-1.7,2.9c-1.3-.6-2.8-.9-4.3-.9-1.5,0-3,.3-4.3,.9l-1.7-2.9c0-.2-.3-.2-.5-.1-.2,0-.2,.3-.1,.5l1.7,2.9c-2.8,1.6-4.8,4.4-5.1,7.9H22c-.3-3.4-2.2-6.3-5.1-7.9h0Z"/><path id="youtube" d="M21.6,7.2c-.2-.9-.9-1.5-1.8-1.8-1.6-.4-7.8-.4-7.8-.4,0,0-6.3,0-7.8,.4-.9,.2-1.5,.9-1.8,1.8-.4,1.6-.4,4.8-.4,4.8,0,0,0,3.3,.4,4.8,.2,.9,.9,1.5,1.8,1.8,1.6,.4,7.8,.4,7.8,.4,0,0,6.3,0,7.8-.4,.9-.2,1.5-.9,1.8-1.8,.4-1.6,.4-4.8,.4-4.8,0,0,0-3.3-.4-4.8Zm-11.6,7.8v-5.9l5.2,3-5.2,3Z"/><path id="tiktok" d="M12.4,2c1.1,0,2.2,0,3.3,0,0,1.3,.5,2.6,1.5,3.5,.9,.9,2.2,1.3,3.5,1.5v3.4c-1.2,0-2.4-.3-3.5-.8-.5-.2-.9-.5-1.3-.8,0,2.4,0,4.9,0,7.3,0,1.2-.4,2.3-1.1,3.3-1.1,1.6-3,2.6-4.9,2.7-1.2,0-2.4-.3-3.4-.9-1.7-1-2.9-2.8-3-4.8,0-.4,0-.8,0-1.2,.1-1.6,.9-3.1,2.1-4.1,1.4-1.2,3.3-1.8,5.1-1.4,0,1.2,0,2.5,0,3.7-.8-.3-1.8-.2-2.5,.3-.5,.3-.9,.9-1.1,1.5-.2,.4-.1,.9-.1,1.3,.2,1.4,1.5,2.5,2.9,2.4,.9,0,1.8-.5,2.3-1.3,.2-.3,.3-.6,.3-.9,0-1.5,0-3,0-4.5,0-3.4,0-6.7,0-10.1Z"/></svg>