<?xml version="1.0" encoding="UTF-8"?><svg id="logo" xmlns="http://www.w3.org/2000/svg" viewBox="0 0 24 24"><path id="blogger" d="M20.31,22H3.69c-.94,0-1.69-.75-1.69-1.69V3.69c0-.94,.75-1.69,1.69-1.69H20.37c.88,0,1.63,.75,1.63,1.69V20.31c0,.94-.75,1.69-1.69,1.69ZM12,5.31h-2.5c-2.31,0-4.19,1.88-4.19,4.19v5c0,2.31,1.88,4.19,4.19,4.19h5c2.31,0,4.19-1.88,4.19-4.19v-3.31c0-.5-.38-.88-.87-.88h-.81c-.44,0-.81-.37-.81-.81,0-2.31-1.88-4.19-4.19-4.19h0Zm2.56,10h-5.06c-.44,0-.81-.37-.81-.81s.37-.81,.81-.81h5.06c.44,0,.81,.37,.81,.81s-.37,.81-.81,.81h0Zm-2.13-6.63c.44,0,.81,.37,.81,.81s-.37,.81-.81,.81h-3c-.44,0-.81-.37-.81-.81s.37-.81,.81-.81c0,0,3,0,3,0Z"/><path id="email" d="M20,8l-8,5L4,8v-2l8,5,8-5m0-2H4c-1.11,0-2,.89-2,2v12c0,1.1,.9,2,2,2H20c1.1,0,2-.9,2-2V6c0-1.11-.9-2-2-2Z"/><path id="facebook" d="M22.06,12.06c0-5.56-4.5-10.06-10.06-10.06S1.94,6.5,1.94,12.06c0,5.02,3.68,9.18,8.49,9.94v-7.03h-2.55v-2.91h2.55v-2.22c0-2.52,1.5-3.91,3.8-3.91,1.1,0,2.25,.2,2.25,.2v2.48h-1.27c-1.25,0-1.64,.78-1.64,1.57v1.89h2.79l-.45,2.91h-2.34v7.03c4.81-.76,8.49-4.92,8.49-9.94Z"/><path id="linkedin" d="M19.04,19.04h-2.96v-4.64c0-1.11-.02-2.53-1.54-2.53s-1.78,1.2-1.78,2.45v4.72h-2.96V9.5h2.84v1.3h.04c.4-.75,1.36-1.54,2.81-1.54,3,0,3.56,1.97,3.56,4.55v5.24h0ZM6.45,8.19c-.95,0-1.72-.77-1.72-1.72s.77-1.72,1.72-1.72,1.72,.77,1.72,1.72-.77,1.72-1.72,1.72Zm1.49,10.85h-2.97V9.5h2.97v9.54ZM20.52,2H3.48c-.82,0-1.48,.64-1.48,1.44V20.56c0,.8,.66,1.44,1.48,1.44H20.52c.82,0,1.48-.64,1.48-1.44V3.44c0-.8-.67-1.44-1.48-1.44h0Z"/><path id="pinterest" d="M12.01,2C6.5,2,2.02,6.47,2.02,11.99c0,4.23,2.63,7.85,6.35,9.3-.09-.79-.17-2,.03-2.87,.18-.78,1.17-4.96,1.17-4.96,0,0-.3-.6-.3-1.48,0-1.39,.81-2.43,1.81-2.43,.85,0,1.26,.64,1.26,1.41,0,.86-.54,2.14-.83,3.33-.24,.99,.5,1.8,1.48,1.8,1.77,0,3.14-1.87,3.14-4.57,0-2.38-1.72-4.06-4.17-4.06-2.84,0-4.51,2.13-4.51,4.33,0,.86,.33,1.79,.74,2.28,.08,.1,.09,.19,.07,.29-.08,.31-.24,1-.28,1.14-.04,.19-.14,.23-.33,.14-1.25-.57-2.03-2.4-2.03-3.87,0-3.15,2.29-6.04,6.6-6.04,3.46,0,6.16,2.47,6.16,5.77s-2.17,6.22-5.19,6.22c-1.01,0-1.96-.52-2.3-1.15l-.62,2.37c-.22,.87-.84,1.96-1.25,2.62,.94,.29,1.92,.45,2.96,.45,5.51,0,9.99-4.47,9.99-9.99,0-5.52-4.48-9.99-9.99-9.99l.03-.02Z"/><path id="reddit" d="M12,2C6.48,2,2,6.48,2,12s4.48,10,10,10,10-4.48,10-10S17.52,2,12,2Zm4.18,3.95c.57,0,1.04,.47,1.04,1.04,0,.58-.48,1.04-1.05,1.03-.55,0-1-.44-1.03-.98l-2.16-.46-.67,3.12c1.52,.06,2.9,.53,3.89,1.24,.26-.26,.61-.41,1.01-.41,.81,0,1.46,.66,1.46,1.46,0,.6-.36,1.11-.84,1.35,.02,.14,.04,.29,.03,.43,0,2.25-2.61,4.06-5.84,4.06s-5.84-1.81-5.84-4.06c0-.15,.01-.31,.04-.45-.53-.23-.87-.76-.87-1.33,0-.81,.66-1.46,1.46-1.46,.39,0,.75,.16,1.01,.41,1.01-.74,2.4-1.19,3.95-1.24l.74-3.49c.02-.07,.06-.13,.12-.16,.06-.03,.13-.05,.2-.03l2.42,.51c.17-.36,.53-.59,.92-.58Zm-6.47,6.05c-.57,0-1.04,.47-1.04,1.04s.47,1.04,1.04,1.04,1.04-.47,1.04-1.04-.47-1.04-1.04-1.04h0Zm4.58,0c-.57,0-1.04,.47-1.04,1.04s.47,1.04,1.04,1.04,1.04-.47,1.04-1.04-.47-1.04-1.04-1.04Zm-4.55,3.32c-.07,0-.14,.03-.19,.08-.11,.11-.11,.28,0,.39,.7,.7,2.07,.76,2.47,.76s1.75-.05,2.47-.76c.1-.11,.11-.27,.02-.39-.11-.11-.28-.11-.39,0-.46,.44-1.4,.61-2.09,.61s-1.65-.16-2.09-.61c-.05-.05-.12-.08-.19-.08h0Z"/><path id="skype" d="M12.06,17.73c-3.35,0-4.85-1.65-4.85-2.89,0-.64,.47-1.08,1.11-1.08,1.44,0,1.06,2.06,3.74,2.06,1.37,0,2.13-.75,2.13-1.51,0-.46-.22-.97-1.13-1.19l-2.98-.75c-2.4-.6-2.84-1.91-2.84-3.13,0-2.54,2.38-3.49,4.62-3.49,2.06,0,4.49,1.14,4.49,2.67,0,.65-.57,1.03-1.21,1.03-1.22,0-1-1.7-3.47-1.7-1.22,0-1.91,.55-1.91,1.35s.96,1.05,1.8,1.24l2.2,.49c2.41,.54,3.02,1.95,3.02,3.29,0,2.06-1.59,3.6-4.77,3.6m9.24-4.07l-.02,.11-.04-.2s.04,.06,.05,.1c.1-.56,.15-1.14,.15-1.71,0-1.27-.25-2.51-.75-3.68-.47-1.12-1.16-2.14-2.02-3-.87-.86-1.87-1.55-3-2.02-1.1-.53-2.33-.78-3.61-.78-.6,0-1.2,.06-1.79,.17l.1,.05-.2-.03,.1-.02c-.8-.43-1.7-.66-2.62-.66-1.49,0-2.89,.58-3.95,1.64-1.05,1.06-1.64,2.46-1.64,3.96,0,.95,.24,1.89,.7,2.71l.02-.1,.03,.2-.05-.1c-.1,.54-.14,1.08-.14,1.63,0,1.27,.25,2.51,.74,3.68,.47,1.13,1.15,2.15,2.02,3.01,.86,.87,1.87,1.55,3,2.03,1.16,.5,2.4,.75,3.67,.75,.55,0,1.11-.05,1.65-.15l-.1-.05,.2,.04-.11,.03c.83,.47,1.77,.73,2.75,.73,1.49,0,2.88-.58,3.94-1.64,1.05-1.05,1.63-2.46,1.63-3.96,0-.95-.25-1.89-.71-2.72"/><path id="telegram" d="M11.95,2c-5.5,.03-9.95,4.5-9.95,10,0,5.52,4.48,10,10,10s10-4.48,10-10S17.52,2,12,2c-.02,0-.03,0-.05,0Zm4.13,6.02c.08,0,.27,.02,.39,.12,.08,.07,.13,.17,.14,.27,.01,.08,.03,.25,.02,.39-.15,1.58-.8,5.42-1.13,7.19-.14,.75-.42,1-.68,1.02-.58,.05-1.02-.38-1.58-.75-.88-.58-1.38-.94-2.23-1.5-.99-.65-.35-1.01,.22-1.59,.15-.15,2.71-2.48,2.76-2.69,0-.03,.01-.12-.05-.18s-.14-.03-.21-.02c-.09,.02-1.49,.95-4.22,2.79-.4,.27-.76,.41-1.08,.4-.36,0-1.04-.2-1.55-.37-.63-.2-1.12-.31-1.08-.66,.02-.18,.27-.36,.74-.55,2.91-1.27,4.86-2.11,5.83-2.51,2.78-1.15,3.35-1.36,3.73-1.36Z"/><path id="twitter" d="M22,5.79c-.74,.33-1.53,.55-2.35,.66,.84-.51,1.49-1.31,1.8-2.28-.79,.48-1.67,.81-2.6,1-.76-.82-1.82-1.3-3.02-1.3-2.25,0-4.08,1.84-4.08,4.1,0,.33,.04,.64,.11,.94-3.4-.17-6.43-1.81-8.45-4.28-.35,.6-.55,1.31-.55,2.06,0,1.42,.72,2.69,1.83,3.4-.68,0-1.31-.19-1.86-.48v.03c0,1.99,1.41,3.65,3.29,4.02-.34,.1-.71,.14-1.08,.14-.26,0-.52-.03-.76-.08,.52,1.62,2.02,2.82,3.82,2.85-1.4,1.11-3.16,1.76-5.1,1.76-.33,0-.65-.02-.98-.06,1.82,1.17,3.98,1.85,6.29,1.85,7.53,0,11.67-6.25,11.67-11.67,0-.18,0-.35,0-.54,.8-.57,1.49-1.3,2.05-2.13Z"/><path id="whatsapp" d="M12.04,2C6.58,2,2.13,6.45,2.13,11.91c0,1.75,.46,3.45,1.32,4.95l-1.4,5.14,5.25-1.38c1.45,.79,3.08,1.21,4.74,1.21,5.46,0,9.91-4.45,9.91-9.91,0-2.65-1.03-5.14-2.9-7.01-1.87-1.88-4.36-2.91-7.01-2.91m.01,1.67c2.2,0,4.26,.86,5.82,2.42,1.55,1.56,2.41,3.63,2.41,5.83,0,4.54-3.7,8.23-8.24,8.23-1.48,0-2.93-.39-4.19-1.15l-.3-.17-3.12,.82,.83-3.04-.2-.32c-.82-1.29-1.26-2.82-1.26-4.38,0-4.54,3.7-8.24,8.25-8.24m-3.52,3.66c-.16,0-.43,.06-.66,.31-.22,.25-.87,.86-.87,2.07s.89,2.39,1,2.56c.14,.17,1.76,2.67,4.25,3.73,.59,.27,1.05,.42,1.41,.53,.59,.19,1.13,.16,1.56,.1,.48-.07,1.46-.6,1.67-1.18,.21-.58,.21-1.07,.15-1.18-.07-.1-.23-.16-.48-.27-.25-.14-1.47-.74-1.69-.82-.23-.08-.37-.12-.56,.12-.16,.25-.64,.81-.78,.97-.15,.17-.29,.19-.53,.07-.26-.13-1.06-.39-2-1.23-.74-.66-1.23-1.47-1.38-1.72-.12-.24-.01-.39,.11-.5,.11-.11,.27-.29,.37-.44,.13-.14,.17-.25,.25-.41,.08-.17,.04-.31-.02-.43-.06-.11-.56-1.35-.77-1.84-.2-.48-.4-.42-.56-.43-.14,0-.3-.01-.47-.01Z"/><path id="android" d="M16.61,14.78c-.46,0-.84-.37-.84-.83s.38-.82,.84-.82h0c.46,0,.84,.36,.84,.82s-.38,.83-.84,.83m-9.2,0c-.46,0-.84-.37-.84-.83s.38-.82,.84-.82h0c.46,0,.83,.36,.83,.82s-.37,.83-.83,.83m9.5-5.01l1.67-2.88c.09-.17,.03-.38-.13-.47-.17-.1-.38-.04-.45,.13l-1.71,2.91c-1.34-.61-2.79-.93-4.29-.92-1.53,0-3,.33-4.27,.91l-1.69-2.91c-.09-.17-.3-.23-.47-.13-.17,.09-.22,.3-.13,.47l1.66,2.88c-2.85,1.56-4.81,4.45-5.1,7.87H22c-.28-3.41-2.23-6.3-5.09-7.86h0Z"/><path id="youtube" d="M21.58,7.16c-.23-.87-.9-1.54-1.77-1.78-1.56-.42-7.81-.42-7.81-.42,0,0-6.25,0-7.81,.42-.86,.24-1.54,.91-1.77,1.78-.42,1.57-.42,4.85-.42,4.85,0,0,0,3.28,.42,4.84,.23,.87,.9,1.54,1.77,1.78,1.56,.42,7.81,.42,7.81,.42,0,0,6.25,0,7.81-.42,.86-.24,1.54-.91,1.77-1.78,.42-1.57,.42-4.84,.42-4.84,0,0,0-3.28-.42-4.85Zm-11.63,7.82v-5.95l5.23,2.97-5.23,2.97Z"/><path id="tiktok" d="M12.44,2.02c1.09-.02,2.17,0,3.26-.02,.07,1.27,.52,2.57,1.46,3.47,.93,.92,2.25,1.35,3.53,1.49v3.36c-1.2-.04-2.41-.29-3.5-.81-.47-.22-.92-.49-1.35-.77,0,2.43,0,4.87-.02,7.29-.07,1.17-.45,2.32-1.12,3.28-1.09,1.6-2.98,2.64-4.92,2.67-1.19,.07-2.38-.26-3.4-.86-1.68-.99-2.87-2.81-3.04-4.76-.02-.42-.02-.83,0-1.24,.15-1.58,.93-3.1,2.15-4.13,1.38-1.2,3.32-1.77,5.12-1.43,.02,1.23-.03,2.47-.03,3.7-.82-.27-1.79-.19-2.52,.31-.52,.34-.92,.87-1.13,1.46-.17,.42-.12,.89-.12,1.34,.2,1.37,1.52,2.52,2.92,2.39,.93,0,1.82-.55,2.31-1.34,.16-.27,.33-.56,.34-.88,.08-1.49,.05-2.97,.06-4.47,0-3.36,0-6.71,.02-10.06Z"/><path id="github" d="M12,2.25C6.47,2.25,2,6.73,2,12.25c0,4.42,2.86,8.17,6.84,9.49,.5,.09,.68-.21,.68-.48,0-.24,0-.87-.01-1.7-2.78,.6-3.37-1.34-3.37-1.34-.45-1.15-1.11-1.46-1.11-1.46-.91-.62,.07-.61,.07-.61,1,.07,1.53,1.03,1.53,1.03,.89,1.53,2.34,1.09,2.91,.83,.09-.65,.35-1.09,.63-1.34-2.22-.25-4.56-1.11-4.56-4.94,0-1.09,.39-1.98,1.03-2.68-.11-.25-.45-1.27,.09-2.65,0,0,.84-.27,2.75,1.03,.8-.22,1.65-.33,2.5-.34,.85,0,1.7,.12,2.5,.34,1.9-1.29,2.74-1.03,2.74-1.03,.54,1.38,.2,2.39,.1,2.65,.64,.7,1.02,1.59,1.02,2.68,0,3.84-2.34,4.69-4.56,4.93,.35,.3,.68,.91,.68,1.85,0,1.34-.01,2.41-.01,2.74,0,.26,.18,.58,.69,.47,4-1.31,6.86-5.06,6.86-9.47,0-5.52-4.48-10-10-10"/><path id="gumroad" d="M15.19,14.56c.47,0,.85,.38,.85,.85,0,.47-.38,.85-.85,.85,0,0,0,0,0,0-.47,0-.85-.38-.85-.85s.38-.85,.85-.85h0ZM19.77,2.93c.47,0,.85,.38,.85,.85s-.38,.85-.85,.85c-.47,0-.85-.38-.85-.85,0-.47,.38-.85,.85-.85h0Zm-15,1.66h13.43c.3,.59,.91,.96,1.57,.96,.98,0,1.77-.8,1.77-1.78,0-.98-.8-1.77-1.77-1.77-.74,0-1.38,.46-1.64,1.11H4.77c-1.3,0-2.32,.98-2.32,2.24v14.3c0,1.28,1.06,2.35,2.32,2.35h14.3c1.26,0,2.28-1.06,2.28-2.35V11.17c0-1.28-1.02-2.32-2.28-2.32H10.58c-1.29,0-2.39,1.06-2.39,2.32v2.66c0,1.24,1.07,2.24,2.39,2.24h2.96c.27,.67,.92,1.11,1.64,1.11,.98,0,1.77-.8,1.77-1.77s-.8-1.77-1.78-1.77c-.66,0-1.27,.37-1.57,.96h-3.03c-.44,0-.91-.29-.91-.76v-2.66c0-.44,.43-.83,.91-.83h8.48c.45,0,.8,.37,.8,.83v8.48c0,.47-.37,.87-.8,.87H4.77c-.44,0-.83-.41-.83-.87V5.35c0-.43,.36-.76,.83-.76"/><path id="instagram" d="M12,2c-2.72,0-3.06,.01-4.12,.06-1.06,.05-1.79,.22-2.43,.46-.66,.25-1.22,.6-1.77,1.15-.56,.56-.9,1.11-1.15,1.77-.25,.64-.42,1.36-.46,2.43-.05,1.07-.06,1.41-.06,4.12s.01,3.06,.06,4.12c.05,1.06,.22,1.79,.46,2.43,.25,.66,.6,1.22,1.15,1.77,.56,.56,1.11,.9,1.77,1.15,.64,.25,1.36,.42,2.43,.47,1.07,.05,1.41,.06,4.12,.06s3.06-.01,4.12-.06c1.06-.05,1.79-.22,2.43-.47,.66-.25,1.22-.6,1.77-1.15,.56-.56,.9-1.11,1.15-1.77,.25-.64,.42-1.36,.47-2.43,.05-1.07,.06-1.41,.06-4.12s-.01-3.06-.06-4.12c-.05-1.06-.22-1.79-.47-2.43-.25-.66-.6-1.22-1.15-1.77-.56-.56-1.11-.9-1.77-1.15-.64-.25-1.36-.42-2.43-.46-1.07-.05-1.41-.06-4.12-.06Zm0,1.8c2.67,0,2.99,.01,4.04,.06,.97,.05,1.5,.21,1.86,.35,.47,.18,.8,.4,1.15,.75,.35,.35,.57,.68,.75,1.15,.14,.35,.3,.88,.34,1.86,.05,1.05,.06,1.37,.06,4.04s-.01,2.99-.06,4.04c-.05,.97-.21,1.5-.35,1.86-.19,.47-.4,.8-.75,1.15-.35,.35-.69,.57-1.15,.75-.35,.14-.89,.3-1.86,.34-1.06,.05-1.37,.06-4.05,.06s-2.99-.01-4.05-.06c-.98-.05-1.51-.21-1.86-.35-.47-.19-.8-.4-1.15-.75-.35-.35-.58-.69-.75-1.15-.14-.35-.3-.89-.35-1.86-.04-1.05-.05-1.37-.05-4.04s.01-2.99,.05-4.05c.05-.97,.21-1.51,.35-1.86,.18-.48,.4-.8,.75-1.15s.67-.57,1.15-.75c.35-.14,.88-.3,1.85-.35,1.06-.04,1.37-.05,4.05-.05,0,0,.04,.02,.04,.02Zm0,3.06c-2.84,0-5.13,2.3-5.13,5.13s2.3,5.14,5.13,5.14,5.14-2.3,5.14-5.14-2.3-5.13-5.14-5.13Zm0,8.47c-1.84,0-3.33-1.49-3.33-3.33s1.49-3.33,3.33-3.33,3.33,1.49,3.33,3.33-1.49,3.33-3.33,3.33Zm6.54-8.67c0,.66-.54,1.2-1.2,1.2s-1.2-.54-1.2-1.2,.54-1.2,1.2-1.2c.66,0,1.2,.54,1.2,1.2Z"/><path id="google" d="M12.4,11.1v2.73h6.53c-.2,1.53-.71,2.66-1.49,3.44-.96,.96-2.44,2-5.04,2-4.02,0-7.17-3.24-7.17-7.27s3.14-7.27,7.17-7.27c2.17,0,3.76,.86,4.92,1.96l1.92-1.92c-1.62-1.58-3.8-2.78-6.84-2.78C6.89,2,2.26,6.49,2.26,12s4.63,10,10.14,10c2.98,0,5.22-.98,6.98-2.8,1.8-1.8,2.37-4.34,2.37-6.39,0-.63-.04-1.22-.14-1.71H12.4Z"/></svg>