<?xml version="1.0" encoding="UTF-8"?><svg id="material-design" xmlns="http://www.w3.org/2000/svg" viewBox="0 0 24 24"><path id="bookmark" d="M17,3H7c-1.1,0-2,.9-2,2V21l7-3,7,3V5c0-1.11-.9-2-2-2Z"/><path id="bookmark-add" d="M17,18V5H7v13l5-2.18,5,2.18m0-15c1.1,0,2,.9,2,2V21l-7-3-7,3V5c0-1.11,.9-2,2-2h10m-6,4h2v2h2v2h-2v2h-2v-2h-2v-2h2v-2Z"/><path id="settings" d="M12,8c2.21,0,4,1.79,4,4s-1.79,4-4,4-4-1.79-4-4,1.79-4,4-4m0,2c-1.1,0-2,.9-2,2s.9,2,2,2,2-.9,2-2-.9-2-2-2m-2,12c-.25,0-.46-.18-.5-.42l-.37-2.65c-.63-.25-1.17-.59-1.69-.99l-2.49,1.01c-.22,.08-.49,0-.61-.22l-2-3.46c-.13-.22-.07-.49,.12-.64l2.11-1.66-.07-.97,.07-1-2.11-1.63c-.19-.15-.25-.42-.12-.64l2-3.46c.12-.22,.39-.31,.61-.22l2.49,1c.52-.39,1.06-.73,1.69-.98l.37-2.65c.04-.24,.25-.42,.5-.42h4c.25,0,.46,.18,.5,.42l.37,2.65c.63,.25,1.17,.59,1.69,.98l2.49-1c.22-.09,.49,0,.61,.22l2,3.46c.13,.22,.07,.49-.12,.64l-2.11,1.63,.07,1-.07,1,2.11,1.63c.19,.15,.25,.42,.12,.64l-2,3.46c-.12,.22-.39,.31-.61,.22l-2.49-1c-.52,.39-1.06,.73-1.69,.98l-.37,2.65c-.04,.24-.25,.42-.5,.42h-4m1.25-18l-.37,2.61c-1.2,.25-2.26,.89-3.03,1.78l-2.41-1.04-.75,1.3,2.11,1.55c-.4,1.17-.4,2.44,0,3.6l-2.12,1.56,.75,1.3,2.43-1.04c.77,.88,1.82,1.52,3.01,1.76l.37,2.62h1.52l.37-2.61c1.19-.25,2.24-.89,3.01-1.77l2.43,1.04,.75-1.3-2.12-1.55c.4-1.17,.4-2.44,0-3.61l2.11-1.55-.75-1.3-2.41,1.04c-.77-.89-1.83-1.53-3.03-1.77l-.37-2.62h-1.5Z"/><path id="lock" d="M12,17.5c1.1,0,2-.9,2-2s-.9-2-2-2-2,.9-2,2,.9,2,2,2m6-9c1.1,0,2,.9,2,2v10c0,1.1-.9,2-2,2H6c-1.1,0-2-.9-2-2V10.5c0-1.11,.9-2,2-2h1v-2c0-2.76,2.24-5,5-5s5,2.24,5,5v2h1M12,3.5c-1.66,0-3,1.34-3,3v2h6v-2c0-1.66-1.34-3-3-3Z"/><path id="zip" d="M20,6H12l-2-2H4c-1.1,0-2,.9-2,2v12c0,1.1,.9,2,2,2H20c1.1,0,2-.9,2-2V8c0-1.1-.9-2-2-2m-2,6h-2v2h2v2h-2v2h-2v-2h2v-2h-2v-2h2v-2h-2v-2h2v2h2v2Z"/><path id="verified" d="M23,12l-2.44-2.78,.34-3.68-3.61-.82-1.89-3.18-3.4,1.46-3.4-1.46-1.89,3.18-3.61,.81,.34,3.68-2.44,2.79,2.44,2.78-.34,3.69,3.61,.82,1.89,3.18,3.4-1.47,3.4,1.46,1.89-3.18,3.61-.82-.34-3.68,2.44-2.78m-13,5l-4-4,1.41-1.41,2.59,2.58,6.59-6.59,1.41,1.42-8,8Z"/><path id="translate" d="M12.87,15.07l-2.54-2.51,.03-.03c1.74-1.94,2.98-4.17,3.71-6.53h2.93v-2h-7V2h-2v2H1v2H12.17c-.67,1.92-1.73,3.75-3.17,5.35-.93-1.03-1.7-2.16-2.31-3.35h-2c.73,1.63,1.73,3.17,2.98,4.56l-5.09,5.02,1.42,1.42,5-5,3.11,3.11,.76-2.04m5.63-5.07h-2l-4.5,12h2l1.12-3h4.75l1.13,3h2l-4.5-12m-2.62,7l1.62-4.33,1.62,4.33h-3.24Z"/><path id="star" d="M12,17.77l6.18,3.73-1.64-7.03,5.46-4.73-7.19-.62-2.81-6.62-2.81,6.62-7.19,.62,5.45,4.73-1.63,7.03,6.18-3.73Z"/><path id="sort-descending" d="M18.5,7h3l-4-4-4,4h3v14h2M4.5,7c0,1.1,.9,2,2,2s2-.9,2-2-.9-2-2-2-2,.9-2,2M6.5,3c2.21,0,4,1.79,4,4s-1.79,4-4,4-4-1.79-4-4S4.29,3,6.5,3m0,10c-2.21,0-4,1.79-4,4s1.79,4,4,4,4-1.79,4-4-1.79-4-4-4Z"/><path id="sort-ascending" d="M18.5,17h3l-4,4-4-4h3V3h2v14M6.5,3c-2.21,0-4,1.79-4,4s1.79,4,4,4,4-1.79,4-4-1.79-4-4-4m0,6c-1.1,0-2-.9-2-2s.9-2,2-2,2,.9,2,2-.9,2-2,2m0,4c-2.21,0-4,1.79-4,4s1.79,4,4,4,4-1.79,4-4-1.79-4-4-4Z"/><path id="share" d="M18,16.12c-.76,0-1.44,.3-1.96,.77l-7.13-4.15c.05-.23,.09-.46,.09-.7s-.04-.47-.09-.7l7.05-4.11c.54,.5,1.25,.81,2.04,.81,1.66,0,3-1.34,3-3s-1.34-3-3-3-3,1.34-3,3c0,.24,.04,.47,.09,.7l-7.05,4.11c-.54-.5-1.25-.81-2.04-.81-1.66,0-3,1.34-3,3s1.34,3,3,3c.79,0,1.5-.31,2.04-.81l7.12,4.15c-.05,.21-.08,.43-.08,.66,0,1.61,1.31,2.91,2.92,2.91s2.92-1.3,2.92-2.91-1.31-2.92-2.92-2.92Z"/><path id="search" d="M9.75,3.25c3.59,0,6.5,2.91,6.5,6.5,0,1.61-.59,3.09-1.56,4.23l.27,.27h.79l5,5-1.5,1.5-5-5v-.79l-.27-.27c-1.14,.97-2.62,1.56-4.23,1.56-3.59,0-6.5-2.91-6.5-6.5S6.16,3.25,9.75,3.25m0,2c-2.5,0-4.5,2-4.5,4.5s2,4.5,4.5,4.5,4.5-2,4.5-4.5-2-4.5-4.5-4.5Z"/><path id="reload" d="M1.5,12c0,4.97,4.03,9,9,9,2.39,0,4.68-.94,6.4-2.6l-1.5-1.5c-1.27,1.35-3.04,2.1-4.9,2.1-6.24,0-9.36-7.54-4.95-11.95,4.41-4.41,11.95-1.28,11.95,4.95h-3l4,4h.1l3.9-4h-3c0-4.97-4.03-9-9-9S1.5,7.03,1.5,12Z"/><path id="pin" d="M16,12V4h1V2H7v2h1V12l-2,2v2h5.2v6h1.6v-6h5.2v-2l-2-2Z"/><path id="page" d="M6,2c-1.1,0-2,.9-2,2V20c0,1.1,.9,2,2,2h12c1.1,0,2-.9,2-2V8L14,2H6m0,2h7v5h5v11H6V4m2,8v2h8v-2H8m0,4v2h5v-2h-5Z"/><path id="read-more" d="M20,5v14H4V5H20m0-2H4c-1.11,0-2,.89-2,2v14c0,1.11,.89,2,2,2H20c1.11,0,2-.89,2-2V5c0-1.11-.89-2-2-2m-2,12H6v2h12v-2M10,7H6v6h4V7m2,2h6v-2h-6v2m6,2h-6v2h6v-2Z"/><path id="more-vertical" d="M12,16c1.1,0,2,.9,2,2s-.9,2-2,2-2-.9-2-2,.9-2,2-2m0-6c1.1,0,2,.9,2,2s-.9,2-2,2-2-.9-2-2,.9-2,2-2m0-6c1.1,0,2,.9,2,2s-.9,2-2,2-2-.9-2-2,.9-2,2-2Z"/><path id="more" d="M16,12c0-1.1,.9-2,2-2s2,.9,2,2-.9,2-2,2-2-.9-2-2m-6,0c0-1.1,.9-2,2-2s2,.9,2,2-.9,2-2,2-2-.9-2-2m-6,0c0-1.1,.9-2,2-2s2,.9,2,2-.9,2-2,2-2-.9-2-2Z"/><path id="menu-more" d="M12,16c1.1,0,2,.9,2,2s-.9,2-2,2-2-.9-2-2,.9-2,2-2m0-6c1.1,0,2,.9,2,2s-.9,2-2,2-2-.9-2-2,.9-2,2-2m0-6c1.1,0,2,.9,2,2s-.9,2-2,2-2-.9-2-2,.9-2,2-2m-6,12c1.1,0,2,.9,2,2s-.9,2-2,2-2-.9-2-2,.9-2,2-2m0-6c1.1,0,2,.9,2,2s-.9,2-2,2-2-.9-2-2,.9-2,2-2m0-6c1.1,0,2,.9,2,2s-.9,2-2,2-2-.9-2-2,.9-2,2-2m12,12c1.1,0,2,.9,2,2s-.9,2-2,2-2-.9-2-2,.9-2,2-2m0-6c1.1,0,2,.9,2,2s-.9,2-2,2-2-.9-2-2,.9-2,2-2m0-6c1.1,0,2,.9,2,2s-.9,2-2,2-2-.9-2-2,.9-2,2-2Z"/><path id="menu" d="M3,6H21v2H3v-2m0,5H21v2H3v-2m0,5H21v2H3v-2Z"/><path id="list" d="M7.5,13v-2h14v2H7.5m0,6v-2h14v2H7.5m0-12v-2h14v2H7.5m-4,1v-3h-1v-1h2v4h-1m-1,9v-1h3v4H2.5v-1h2v-.5h-1v-1h1v-.5H2.5m2.25-7c.41,0,.75,.34,.75,.75,0,.2-.08,.39-.21,.52l-1.67,1.73h1.88v1H2.5v-.92l2-2.08H2.5v-1h2.25Z"/><path id="link-open" d="M14,3v2h3.59L7.76,14.83l1.41,1.41L19,6.41v3.59h2V3m-2,16H5V5h7V3H5c-1.11,0-2,.9-2,2v14c0,1.1,.9,2,2,2h14c1.1,0,2-.9,2-2v-7h-2v7Z"/><path id="link" d="M10.59,13.41c.41,.39,.41,1.03,0,1.42-.39,.39-1.03,.39-1.42,0-1.95-1.95-1.95-5.12,0-7.07h0l3.54-3.54c1.95-1.95,5.12-1.95,7.07,0,1.95,1.95,1.95,5.12,0,7.07l-1.49,1.49c0-.82-.12-1.64-.4-2.42l.47-.48c1.18-1.17,1.18-3.07,0-4.24-1.17-1.18-3.07-1.18-4.24,0l-3.53,3.53c-1.18,1.17-1.18,3.07,0,4.24m2.82-4.24c.39-.39,1.03-.39,1.42,0,1.95,1.95,1.95,5.12,0,7.07h0l-3.54,3.54c-1.95,1.95-5.12,1.95-7.07,0-1.95-1.95-1.95-5.12,0-7.07l1.49-1.49c-.01,.82,.12,1.64,.4,2.43l-.47,.47c-1.18,1.17-1.18,3.07,0,4.24,1.17,1.18,3.07,1.18,4.24,0l3.53-3.53c1.18-1.17,1.18-3.07,0-4.24-.41-.39-.41-1.03,0-1.42Z"/><path id="light" d="M12,8c-2.21,0-4,1.79-4,4s1.79,4,4,4,4-1.79,4-4-1.79-4-4-4m0,10c-3.31,0-6-2.69-6-6s2.69-6,6-6,6,2.69,6,6-2.69,6-6,6m8-9.31V4h-4.69L12,.69l-3.31,3.31H4v4.69L.69,12l3.31,3.31v4.69h4.69l3.31,3.31,3.31-3.31h4.69v-4.69l3.31-3.31-3.31-3.31Z"/><path id="label" d="M5.41,21l.71-4H2.12l.35-2h4l1.06-6H3.53l.35-2H7.88l.71-4h2l-.71,4h6l.71-4h2l-.71,4h4l-.35,2h-4l-1.06,6h4l-.35,2h-4l-.71,4h-2l.71-4h-6l-.71,4h-2m4.12-12l-1.06,6h6l1.06-6h-6Z"/><path id="home" d="M9,13h6v6h3V10l-6-4.5-6,4.5v9h3v-6m-5,8V9L12,3l8,6v12H4Z"/><path id="download" d="M2,13.5h2v5H20v-5h2v5c0,1.11-.89,2-2,2H4c-1.1,0-2-.89-2-2v-5m10,3l5.55-5.46-1.42-1.41-3.13,3.12V3.5h-2V12.75l-3.12-3.12-1.42,1.42,5.54,5.45Z"/><path id="dark" d="M12,18c-.89,0-1.74-.2-2.5-.55,2.06-.95,3.5-3.03,3.5-5.45s-1.44-4.5-3.5-5.45c.76-.35,1.61-.55,2.5-.55,3.31,0,6,2.69,6,6s-2.69,6-6,6m8-9.31V4h-4.69L12,.69l-3.31,3.31H4v4.69L.69,12l3.31,3.31v4.69h4.69l3.31,3.31,3.31-3.31h4.69v-4.69l3.31-3.31-3.31-3.31Z"/><path id="copy" d="M19.5,21H8.5V7h11m0-2H8.5c-1.1,0-2,.9-2,2v14c0,1.1,.9,2,2,2h11c1.1,0,2-.9,2-2V7c0-1.1-.9-2-2-2m-3-4H4.5c-1.1,0-2,.9-2,2v14h2V3h12V1Z"/><path id="comment-text" d="M9,22c-.55,0-1-.45-1-1v-3H4c-1.1,0-2-.9-2-2V4c0-1.11,.9-2,2-2H20c1.1,0,2,.9,2,2v12c0,1.1-.9,2-2,2h-6.1l-3.7,3.71c-.2,.19-.45,.29-.7,.29h-.5m1-6v3.08l3.08-3.08h6.92V4H4v12h6M6,7h12v2H6v-2m0,4H15v2H6v-2Z"/><path id="comment" d="M16,11H8v-2h8v2m6-7v12c0,1.11-.89,2-2,2h-6.1l-3.7,3.71c-.2,.19-.45,.29-.7,.29h-.5c-.55,0-1-.45-1-1v-3H4c-1.1,0-2-.89-2-2V4c0-1.11,.9-2,2-2H20c1.11,0,2,.9,2,2m-2,0H4v12h6v3.08l3.08-3.08h6.92V4"/><path id="clear" d="M21,11H6.83l3.58-3.59-1.41-1.41L3,12l6,6,1.41-1.42-3.58-3.58h14.17v-2Z"/><path id="close" d="M19,6.41l-1.41-1.41-5.59,5.59L6.41,5l-1.41,1.41,5.59,5.59-5.59,5.59,1.41,1.41,5.59-5.59,5.59,5.59,1.41-1.41-5.59-5.59,5.59-5.59Z"/><path id="check" d="M20.75,6.7l-12,12L3.25,13.2l1.41-1.41,4.09,4.08L19.34,5.3l1.41,1.41Z"/><path id="arrow-top" d="M13,19.92h-2V7.92l-5.5,5.5-1.42-1.42,7.92-7.92,7.92,7.92-1.42,1.42-5.5-5.5v12Z"/><path id="arrow-left" d="M19.92,11v2H7.92l5.5,5.5-1.42,1.42-7.92-7.92,7.92-7.92,1.42,1.42-5.5,5.5h12Z"/><path id="arrow-right" d="M4.08,13v-2h12l-5.5-5.5,1.42-1.42,7.92,7.92-7.92,7.92-1.42-1.42,5.5-5.5H4.08Z"/><path id="archive" d="M20,21H4V10h2v9h12V10h2v11M3,3H21v6H3V3m6.5,8h5c.28,0,.5,.22,.5,.5v1.5h-6v-1.5c0-.28,.22-.5,.5-.5M5,5v2h14v-2H5Z"/></svg>