<?xml version="1.0" encoding="UTF-8"?>
<svg id="pack-solar" xmlns="http://www.w3.org/2000/svg" viewBox="0 0 24 24">
  <path id="home-2-broken" d="m13.67,21h-3.35c-3.33,0-5,0-6.17-1.21-1.16-1.2-1.16-2.92-1.16-6.35v-1.27c0-2.02,0-3.03.51-3.97.51-.94,1.4-1.49,3.03-2.5l1.68-1.05c1.72-1.07,2.67-1.66,3.78-1.66s2,.55,3.78,1.66l1.68,1.04c1.63,1.01,2.52,1.57,3.04,2.51.17.3.05.69-.25.85-.3.17-.68.05-.85-.25-.35-.65-1.1-1.11-2.59-2.03l-1.68-1.04c-3.16-1.96-3.08-1.96-6.23,0l-1.67,1.04c-1.5.93-2.24,1.39-2.6,2.04-.36.65-.36,1.56-.36,3.37v1.27c0,3.09,0,4.64.8,5.48.8.82,2.29.82,5.27.82h3.35c2.98,0,4.47,0,5.26-.82.81-.83.81-2.38.81-5.48v-1.27c0-.35.28-.63.63-.63s.63.28.63.63v1.27c0,3.43,0,5.15-1.16,6.35-1.17,1.21-2.84,1.21-6.17,1.21Zm-1.67-3.35c-.35,0-.63-.28-.63-.63v-2.51c0-.35.28-.63.63-.63s.63.28.63.63v2.51c0,.35-.28.63-.63.63Z"/>
  <path id="home-add-angle-broken" d="m13.07,21h-1.85c-3.04,0-4.56,0-5.72-1-1.16-1-1.38-2.5-1.81-5.48l-.23-1.63c-.34-2.33-.5-3.5.03-4.62.53-1.11,1.55-1.72,3.59-2.93l1.16-.69c1.79-1.06,2.77-1.65,3.91-1.65s2.07.55,3.91,1.65l1.16.69c2.03,1.21,3.05,1.82,3.59,2.93.15.31.02.69-.29.84-.31.15-.69.02-.84-.29-.37-.77-1.28-1.32-3.1-2.4l-1.16-.69c-3.29-1.96-3.24-1.96-6.54,0l-1.16.69c-1.82,1.08-2.73,1.62-3.1,2.4-.37.77-.22,1.81.08,3.89l.23,1.63c.39,2.68.58,4.02,1.38,4.72.81.69,2.18.69,4.9.69h1.85c2.73,0,4.1,0,4.9-.69.81-.69,1-2.04,1.38-4.71l.23-1.62c.05-.34.37-.58.71-.53.34.05.58.37.53.71l-.23,1.62c-.43,2.99-.65,4.49-1.81,5.49-1.16,1-2.68,1-5.72,1Zm-.93-5.02c-.35,0-.63-.28-.63-.63v-1.88h-1.88c-.35,0-.63-.28-.63-.63s.28-.63.63-.63h1.88v-1.88c0-.35.28-.63.63-.63s.63.28.63.63v1.88h1.88c.35,0,.63.28.63.63s-.28.63-.63.63h-1.88v1.88c0,.35-.28.63-.63.63Z"/>
  <path id="home-add-broken" d="m13.67,21h-3.35c-3.33,0-5,0-6.17-1.21-1.16-1.2-1.16-2.92-1.16-6.35v-1.27c0-2.02,0-3.03.51-3.97.51-.94,1.4-1.49,3.03-2.5l1.68-1.05c1.72-1.07,2.67-1.66,3.78-1.66s2,.55,3.78,1.66l1.68,1.04c1.63,1.01,2.52,1.57,3.04,2.51.17.3.05.69-.25.85-.3.17-.68.05-.85-.25-.35-.65-1.1-1.11-2.59-2.03l-1.68-1.04c-3.16-1.96-3.08-1.96-6.23,0l-1.67,1.04c-1.5.93-2.24,1.39-2.6,2.04-.36.65-.36,1.56-.36,3.37v1.27c0,3.09,0,4.64.8,5.48.8.82,2.29.82,5.27.82h3.35c2.98,0,4.47,0,5.26-.82.81-.83.81-2.38.81-5.48v-1.27c0-.35.28-.63.63-.63s.63.28.63.63v1.27c0,3.43,0,5.15-1.16,6.35-1.17,1.21-2.84,1.21-6.17,1.21Zm-1.67-4.19c-.35,0-.63-.28-.63-.63v-1.88h-1.88c-.35,0-.63-.28-.63-.63s.28-.63.63-.63h1.88v-1.88c0-.35.28-.63.63-.63s.63.28.63.63v1.88h1.88c.35,0,.63.28.63.63s-.28.63-.63.63h-1.88v1.88c0,.35-.28.63-.63.63Z"/>
  <path id="home-angle-2-broken" d="m13.07,21h-1.85c-3.04,0-4.56,0-5.72-1-1.16-1-1.38-2.5-1.81-5.48l-.23-1.63c-.34-2.33-.5-3.5.03-4.62.53-1.11,1.55-1.72,3.59-2.93l1.16-.69c1.79-1.06,2.77-1.65,3.91-1.65s2.07.55,3.91,1.65l1.16.69c2.03,1.21,3.05,1.82,3.59,2.93.15.31.02.69-.29.84-.31.15-.69.02-.84-.29-.37-.77-1.28-1.32-3.1-2.4l-1.16-.69c-3.29-1.96-3.24-1.96-6.54,0l-1.16.69c-1.82,1.08-2.73,1.62-3.1,2.4-.37.77-.22,1.81.08,3.89l.23,1.63c.39,2.68.58,4.02,1.38,4.72.81.69,2.18.69,4.9.69h1.85c2.73,0,4.1,0,4.9-.69.81-.69,1-2.04,1.38-4.71l.23-1.62c.05-.34.37-.58.71-.53.34.05.58.37.53.71l-.23,1.62c-.43,2.99-.65,4.49-1.81,5.49-1.16,1-2.68,1-5.72,1Zm-.93-3.35c-.35,0-.63-.28-.63-.63v-2.51c0-.35.28-.63.63-.63s.63.28.63.63v2.51c0,.35-.28.63-.63.63Z"/>
  <path id="home-angle-broken" d="m13.07,21h-1.85c-3.04,0-4.56,0-5.72-1-1.16-1-1.38-2.5-1.81-5.48l-.23-1.63c-.34-2.33-.5-3.5.03-4.62.53-1.11,1.55-1.72,3.59-2.93l1.16-.69c1.79-1.06,2.77-1.65,3.91-1.65s2.07.55,3.91,1.65l1.16.69c2.03,1.21,3.05,1.82,3.59,2.93.15.31.02.69-.29.84-.31.15-.69.02-.84-.29-.37-.77-1.28-1.32-3.1-2.4l-1.16-.69c-3.29-1.96-3.24-1.96-6.54,0l-1.16.69c-1.82,1.08-2.73,1.62-3.1,2.4-.37.77-.22,1.81.08,3.89l.23,1.63c.39,2.68.58,4.02,1.38,4.72.81.69,2.18.69,4.9.69h1.85c2.73,0,4.1,0,4.9-.69.81-.69,1-2.04,1.38-4.71l.23-1.62c.05-.34.37-.58.71-.53.34.05.58.37.53.71l-.23,1.62c-.43,2.99-.65,4.49-1.81,5.49-1.16,1-2.68,1-5.72,1Zm1.59-3.35h-5.02c-.35,0-.63-.28-.63-.63s.28-.63.63-.63h5.02c.35,0,.63.28.63.63s-.28.63-.63.63Z"/>
  <path id="home-broken" d="m20.78,21H3.22c-.36,0-.66-.29-.66-.66s.29-.66.66-.66h1.1v-9.03l-.69.55c-.28.23-.7.18-.93-.1-.23-.28-.18-.7.1-.93l3.57-2.85c.28-.22.7-.18.93.1.23.28.18.7-.1.93l-1.56,1.25v10.09h12.73v-3.29c0-.36.29-.66.66-.66s.66.29.66.66v3.29h1.1c.36,0,.66.29.66.66s-.29.66-.66.66Zm-1.76-7.46c-.36,0-.66-.29-.66-.66v-3.28l-5.13-4.1c-.73-.58-1.74-.58-2.47,0l-.69.55c-.28.23-.7.18-.93-.1-.23-.28-.18-.7.1-.93l.69-.55c1.21-.97,2.9-.97,4.11,0l.36.29v-.65c0-.61.49-1.1,1.1-1.1h2.2c.61,0,1.1.49,1.1,1.1v4.16l2.39,1.91c.28.23.33.64.1.93s-.64.33-.93.1l-.69-.55v2.23c0,.36-.29.66-.66.66Zm-3.29-7.74l1.76,1.4v-2.89h-1.76v1.48Zm-1.1,15.2c-.36,0-.66-.29-.66-.66v-4.39c0-.96,0-1.59-.19-1.78-.19-.19-.83-.19-1.78-.19s-1.59,0-1.78.19c-.26.26-.67.26-.93,0-.26-.26-.26-.67,0-.93.58-.58,1.34-.58,2.71-.58s2.14,0,2.71.58c.58.58.58,1.34.58,2.71v4.39c0,.36-.29.66-.66.66Zm-5.27,0c-.36,0-.66-.29-.66-.66v-4.39c0-.36.29-.66.66-.66s.66.29.66.66v4.39c0,.36-.29.66-.66.66Zm2.63-9.22c-1.33,0-2.41-1.08-2.41-2.41s1.08-2.41,2.41-2.41,2.41,1.08,2.41,2.41-1.08,2.41-2.41,2.41Zm0-3.51c-.61,0-1.1.49-1.1,1.1s.49,1.1,1.1,1.1,1.1-.49,1.1-1.1-.49-1.1-1.1-1.1Z"/>
  <path id="home-smile-angle-broken" d="m12.14,16.81c-1.04,0-2.04-.33-2.89-.96-.28-.21-.34-.6-.13-.88.21-.28.6-.34.88-.13,1.26.94,3.02.93,4.28,0,.28-.21.67-.15.88.13.21.28.15.67-.13.88-.85.63-1.85.96-2.89.96Zm6.65,3.19c1.16-1,1.38-2.5,1.81-5.49l.23-1.62c.05-.34-.19-.66-.53-.71-.34-.05-.66.19-.71.53l-.23,1.62c-.39,2.68-.58,4.02-1.38,4.71-.81.69-2.18.69-4.9.69h-1.85c-2.73,0-4.1,0-4.9-.69-.81-.69-1-2.04-1.38-4.72l-.23-1.63c-.3-2.08-.45-3.12-.08-3.89.37-.77,1.28-1.31,3.1-2.4l1.16-.69c3.29-1.96,3.24-1.96,6.54,0l1.16.69c1.82,1.08,2.73,1.62,3.1,2.4.15.31.53.45.84.29.31-.15.44-.52.29-.84-.53-1.11-1.55-1.72-3.59-2.93l-1.16-.69c-1.84-1.1-2.77-1.65-3.91-1.65s-2.12.59-3.91,1.65l-1.16.69c-2.03,1.21-3.05,1.82-3.59,2.93-.54,1.12-.37,2.28-.03,4.62l.23,1.63c.43,2.99.65,4.48,1.81,5.48,1.16,1,2.68,1,5.72,1h1.85c3.04,0,4.56,0,5.72-1Z"/>
  <path id="home-smile-broken" d="m11.6,15.84c-1.04,0-2.04-.33-2.89-.96-.28-.21-.34-.6-.13-.88.21-.28.6-.34.88-.13,1.26.93,3.02.94,4.28,0,.28-.21.67-.15.88.13.21.28.15.67-.13.88-.85.63-1.85.96-2.89.96Zm7.84,2.98c1.16-1.2,1.16-2.92,1.16-6.35v-1.27c0-.35-.28-.63-.63-.63s-.63.28-.63.63v1.27c0,3.09,0,4.64-.81,5.48-.8.82-2.29.82-5.26.82h-3.35c-2.98,0-4.47,0-5.27-.82-.8-.83-.8-2.38-.8-5.48v-1.27c0-1.81,0-2.71.36-3.37.35-.65,1.1-1.11,2.6-2.04l1.67-1.04c3.15-1.95,3.07-1.96,6.23,0l1.68,1.04c1.49.92,2.23,1.39,2.59,2.03.17.3.55.42.85.25.3-.17.42-.55.25-.85-.51-.94-1.41-1.49-3.04-2.51l-1.68-1.04c-1.78-1.1-2.67-1.66-3.78-1.66s-2.06.59-3.78,1.66l-1.68,1.05c-1.62,1.01-2.51,1.56-3.03,2.5-.51.93-.51,1.95-.51,3.97v1.27c0,3.43,0,5.15,1.16,6.35,1.17,1.21,2.84,1.21,6.17,1.21h3.35c3.33,0,5,0,6.17-1.21Z"/>
  <path id="home-wifi-angle-broken" d="m13.07,21h-1.85c-3.04,0-4.56,0-5.72-1-1.16-1-1.38-2.5-1.81-5.48l-.23-1.63c-.34-2.33-.5-3.5.03-4.62.53-1.11,1.55-1.72,3.59-2.93l1.16-.69c1.79-1.06,2.77-1.65,3.91-1.65s2.07.55,3.91,1.65l1.16.69c2.03,1.21,3.05,1.82,3.59,2.93.15.31.02.69-.29.84-.31.15-.69.02-.84-.29-.37-.77-1.28-1.32-3.1-2.4l-1.16-.69c-3.29-1.96-3.24-1.96-6.54,0l-1.16.69c-1.82,1.08-2.73,1.62-3.1,2.4-.37.77-.22,1.81.08,3.89l.23,1.63c.39,2.68.58,4.02,1.38,4.72.81.69,2.18.69,4.9.69h1.85c2.73,0,4.1,0,4.9-.69.81-.69,1-2.04,1.38-4.71l.23-1.62c.05-.34.37-.58.71-.53.34.05.58.37.53.71l-.23,1.62c-.43,2.99-.65,4.49-1.81,5.49-1.16,1-2.68,1-5.72,1Zm-2.14-5.22c.33-.35.76-.55,1.21-.55h0c.46,0,.89.19,1.21.55.23.25.63.27.89.03.25-.24.27-.63.03-.89-.57-.61-1.32-.95-2.13-.95h0c-.81,0-1.57.34-2.14.95-.24.25-.22.65.03.89.12.11.27.17.43.17.17,0,.34-.07.46-.2Zm4.99-1.77c.25-.24.27-.63.03-.89-2.03-2.19-5.59-2.19-7.62,0-.24.25-.22.65.03.89.25.24.65.22.89-.03,1.55-1.67,4.23-1.67,5.78,0,.12.13.29.2.46.2.15,0,.31-.06.43-.17Zm1.67-1.81c.25-.24.27-.63.03-.89-1.46-1.58-3.41-2.45-5.48-2.45h0c-2.07,0-4.02.87-5.48,2.45-.24.25-.22.65.03.89s.65.22.89-.03c1.22-1.32,2.84-2.04,4.56-2.04h0c1.72,0,3.34.73,4.56,2.04.12.13.29.2.46.2.15,0,.31-.06.43-.17Z"/>
  <path id="home-wifi-broken" d="m13.67,15.98c-.17,0-.34-.07-.46-.2-.65-.7-1.77-.7-2.43,0-.24.25-.63.27-.89.03-.25-.24-.27-.63-.03-.89,1.13-1.22,3.13-1.22,4.27,0,.24.25.22.65-.03.89-.12.11-.27.17-.43.17Zm1.67-1.81c-.17,0-.34-.07-.46-.2-1.55-1.67-4.23-1.67-5.78,0-.24.25-.63.27-.89.03-.25-.24-.27-.63-.03-.89,2.03-2.19,5.59-2.19,7.62,0,.24.25.22.65-.03.89-.12.11-.27.17-.43.17Zm-8.37-1.81c-.15,0-.31-.06-.43-.17-.25-.24-.27-.63-.03-.89,1.46-1.58,3.41-2.45,5.48-2.45,2.07,0,4.02.87,5.48,2.45.24.25.22.65-.03.89-.26.24-.65.22-.89-.03-1.22-1.32-2.84-2.04-4.56-2.04-1.72,0-3.34.73-4.56,2.04-.12.13-.29.2-.46.2Zm12.86,7.43c1.16-1.2,1.16-2.92,1.16-6.35v-1.27c0-.35-.28-.63-.63-.63s-.63.28-.63.63v1.27c0,3.09,0,4.64-.81,5.48-.8.82-2.29.82-5.26.82h-3.35c-2.98,0-4.47,0-5.27-.82-.8-.83-.8-2.38-.8-5.48v-1.27c0-1.81,0-2.71.36-3.37.35-.65,1.1-1.11,2.6-2.04l1.67-1.04c3.15-1.95,3.07-1.96,6.23,0l1.68,1.04c1.49.92,2.23,1.39,2.59,2.03.17.3.55.42.85.25.3-.17.42-.55.25-.85-.51-.94-1.41-1.49-3.04-2.51l-1.68-1.04c-1.78-1.1-2.67-1.66-3.78-1.66s-2.06.59-3.78,1.66l-1.68,1.05c-1.62,1.01-2.51,1.56-3.03,2.5-.51.93-.51,1.95-.51,3.97v1.27c0,3.43,0,5.15,1.16,6.35,1.17,1.21,2.84,1.21,6.17,1.21h3.35c3.33,0,5,0,6.17-1.21Z"/>
  <path id="smart-home-angle-broken" d="m11.3,21c-.35,0-.63-.28-.63-.63,0-3.81-3.1-6.91-6.91-6.91-.35,0-.63-.28-.63-.63s.28-.63.63-.63c4.5,0,8.16,3.66,8.16,8.16,0,.35-.28.63-.63.63Zm2.51,0c-.35,0-.63-.28-.63-.63,0-.35.28-.63.63-.63,2.28,0,3.44-.08,4.16-.69.81-.69,1-2.04,1.38-4.71l.23-1.62c.05-.34.36-.59.71-.53.34.05.58.37.53.71l-.23,1.62c-.43,2.99-.65,4.49-1.81,5.49-1.09.94-2.6.99-4.97,1h0ZM3.78,10.95c-.33,0-.61-.26-.63-.6-.04-.88.05-1.5.33-2.08.54-1.12,1.55-1.72,3.59-2.93l1.16-.69c1.84-1.1,2.77-1.65,3.91-1.65s2.13.59,3.91,1.65l1.16.69c2.03,1.21,3.05,1.82,3.59,2.93.15.31.02.69-.3.84-.31.15-.69.02-.84-.3-.37-.77-1.28-1.31-3.1-2.4l-1.16-.69c-3.29-1.96-3.24-1.97-6.54,0l-1.16.69c-1.82,1.08-2.73,1.62-3.1,2.4-.18.38-.24.82-.21,1.48.02.35-.25.64-.6.66-.01,0-.02,0-.03,0Zm5.02,10.05c-.35,0-.63-.28-.63-.63,0-2.42-1.97-4.4-4.4-4.4-.35,0-.63-.28-.63-.63s.28-.63.63-.63c3.12,0,5.65,2.54,5.65,5.65,0,.35-.28.63-.63.63Zm-2.51,0c-.35,0-.63-.28-.63-.63,0-1.04-.85-1.88-1.88-1.88-.35,0-.63-.28-.63-.63s.28-.63.63-.63c1.73,0,3.14,1.41,3.14,3.14,0,.35-.28.63-.63.63Z"/>
  <path id="smart-home-broken" d="m13.67,21c-.35,0-.63-.28-.63-.63s.28-.63.63-.63c2.98,0,4.47,0,5.26-.82.81-.83.81-2.38.81-5.48v-1.27c0-.35.28-.63.63-.63s.63.28.63.63v1.27c0,3.43,0,5.15-1.16,6.35-1.17,1.21-2.84,1.21-6.17,1.21Zm-2.51,0c-.35,0-.63-.28-.63-.63,0-3.81-3.1-6.91-6.91-6.91-.35,0-.63-.28-.63-.63s.28-.63.63-.63c4.5,0,8.16,3.66,8.16,8.16,0,.35-.28.63-.63.63ZM3.65,10.95s-.02,0-.03,0c-.35-.02-.61-.31-.6-.66.05-.94.19-1.55.48-2.09.51-.94,1.36-1.46,3.04-2.5l1.68-1.04c1.78-1.1,2.67-1.66,3.78-1.66s2.06.59,3.78,1.66l1.67,1.04c1.63,1.01,2.52,1.57,3.04,2.51.17.3.05.69-.25.85-.3.17-.69.05-.85-.25-.35-.65-1.1-1.11-2.59-2.03l-1.68-1.04c-3.15-1.96-3.08-1.96-6.23,0l-1.68,1.04c-1.49.93-2.24,1.39-2.6,2.04-.2.37-.29.8-.33,1.55-.02.34-.29.6-.63.6Zm5,10.05c-.35,0-.63-.28-.63-.63,0-2.42-1.97-4.4-4.4-4.4-.35,0-.63-.28-.63-.63s.28-.63.63-.63c3.12,0,5.65,2.54,5.65,5.65,0,.35-.28.63-.63.63Zm-2.51,0c-.35,0-.63-.28-.63-.63,0-1.04-.85-1.88-1.88-1.88-.35,0-.63-.28-.63-.63s.28-.63.63-.63c1.73,0,3.14,1.41,3.14,3.14,0,.35-.28.63-.63.63Z"/>
</svg>