<?xml version="1.0" encoding="UTF-8"?><svg id="phosphor-fill" xmlns="http://www.w3.org/2000/svg" viewBox="0 0 24 24"><path id="archive" d="M19.71,5.57H4.29c-.71,0-1.29,.58-1.29,1.29v1.93c0,.71,.58,1.29,1.29,1.29v7.07c0,.71,.58,1.29,1.29,1.29h12.86c.71,0,1.29-.58,1.29-1.29v-7.07c.71,0,1.29-.58,1.29-1.29v-1.93c0-.71-.58-1.29-1.29-1.29Zm-5.79,7.71h-3.86c-.36,0-.64-.29-.64-.64s.29-.64,.64-.64h3.86c.36,0,.64,.29,.64,.64s-.29,.64-.64,.64Zm5.79-4.5H4.29v-1.93h15.43v1.93Z"/><path id="arrow-left" d="M10.92,5.4c.25,.1,.41,.35,.41,.62v5.33h8c.37,0,.67,.3,.67,.67s-.3,.67-.67,.67h-8v5.33c0,.37-.3,.67-.67,.67-.18,0-.35-.07-.47-.2l-6-6c-.26-.26-.26-.68,0-.94,0,0,0,0,0,0l6-6c.19-.19,.48-.25,.73-.14Z"/><path id="arrow-right" d="M13.07,18.63c-.25-.1-.41-.35-.41-.62v-5.33H4.66c-.37,0-.67-.3-.67-.67s.3-.67,.67-.67h8V6.02c0-.37,.3-.67,.67-.67,.18,0,.35,.07,.47,.2l6,6c.26,.26,.26,.68,0,.94,0,0,0,0,0,0l-6,6c-.19,.19-.48,.25-.73,.14Z"/><path id="arrow-top" d="M18.61,10.94c-.1,.25-.35,.41-.62,.41h-5.33v8c0,.37-.3,.67-.67,.67s-.67-.3-.67-.67v-8H6c-.37,0-.67-.3-.67-.67,0-.18,.07-.35,.2-.47l6-6c.26-.26,.68-.26,.94,0,0,0,0,0,0,0l6,6c.19,.19,.25,.48,.14,.73Z"/><path id="bookmark" d="M17.04,2.95H6.96c-.8,0-1.44,.64-1.44,1.44v15.84c0,.4,.32,.72,.72,.72,.13,0,.27-.04,.38-.11l5.38-3.36,5.38,3.36c.34,.21,.78,.11,.99-.23,.07-.11,.11-.25,.11-.38V4.39c0-.8-.64-1.44-1.44-1.44Z"/><path id="bookmark-add" d="M16.85,2.98H7.15c-.96,0-1.73,.77-1.73,1.73v15.23c0,.57,.46,1.04,1.04,1.04,.19,0,.39-.05,.55-.16l4.99-3.12,4.99,3.12c.49,.3,1.13,.16,1.43-.33,.1-.17,.16-.36,.16-.55V4.71c0-.96-.77-1.73-1.73-1.73Zm-.35,15.09l-3.95-2.47c-.34-.21-.76-.21-1.1,0l-3.95,2.47V5.05h9v13.01Z"/><path id="check" d="M19.68,9.17l-8.85,8.85c-.43,.43-1.13,.43-1.56,0,0,0,0,0,0,0l-4.94-4.96c-.43-.43-.43-1.13,0-1.56l1.65-1.65c.43-.43,1.12-.43,1.56,0l2.53,2.43h0s6.39-6.29,6.39-6.29c.43-.43,1.13-.43,1.56,0l1.65,1.62c.43,.43,.44,1.13,0,1.56,0,0,0,0,0,0Z"/><path id="clear" d="M19.72,4.93H7.87c-.45,0-.87,.24-1.1,.62l-3.67,6.12c-.12,.2-.12,.46,0,.66l3.67,6.12c.23,.39,.65,.62,1.1,.62h11.85c.71,0,1.29-.58,1.29-1.29V6.21c0-.71-.58-1.29-1.29-1.29Zm-4.05,8.55c.25,.25,.25,.66,0,.91s-.66,.25-.91,0l-1.47-1.47-1.47,1.47c-.25,.25-.66,.25-.91,0s-.25-.66,0-.91l1.47-1.47-1.47-1.47c-.25-.25-.25-.66,0-.91,.25-.25,.66-.25,.91,0l1.47,1.47,1.47-1.47c.25-.25,.66-.25,.91,0,.25,.25,.25,.66,0,.91l-1.47,1.47,1.47,1.47Z"/><path id="clear-rtl" d="M4.29,19.07h11.85c.45,0,.87-.24,1.1-.62l3.67-6.12c.12-.2,.12-.46,0-.66l-3.67-6.12c-.23-.39-.65-.62-1.1-.62H4.29c-.71,0-1.29,.58-1.29,1.29v11.57c0,.71,.58,1.29,1.29,1.29Zm4.05-8.55c-.25-.25-.25-.66,0-.91s.66-.25,.91,0l1.47,1.47,1.47-1.47c.25-.25,.66-.25,.91,0s.25,.66,0,.91l-1.47,1.47,1.47,1.47c.25,.25,.25,.66,0,.91-.25,.25-.66,.25-.91,0l-1.47-1.47-1.47,1.47c-.25,.25-.66,.25-.91,0-.25-.25-.25-.66,0-.91l1.47-1.47-1.47-1.47Z"/><path id="close" d="M17.83,5H6.17c-.64,0-1.17,.52-1.17,1.17v11.67c0,.64,.52,1.17,1.17,1.17h11.67c.64,0,1.17-.52,1.17-1.17V6.17c0-.64-.52-1.17-1.17-1.17Zm-1.92,10.09c.23,.23,.23,.6,0,.83s-.6,.23-.83,0l-3.09-3.09-3.09,3.09c-.23,.23-.6,.23-.83,0-.23-.23-.23-.6,0-.83l3.09-3.09-3.09-3.09c-.23-.23-.23-.6,0-.83s.6-.23,.83,0l3.09,3.09,3.09-3.09c.23-.23,.6-.23,.83,0,.23,.23,.23,.6,0,.83l-3.09,3.09,3.09,3.09Z"/><path id="comment" d="M20.46,2.72H3.54c-.85,0-1.54,.69-1.54,1.54v12.31c0,.85,.69,1.54,1.54,1.54h5.72s1.42,2.33,1.42,2.33c.44,.73,1.38,.97,2.11,.53,.21-.13,.4-.31,.53-.52l1.43-2.34h5.72c.85,0,1.54-.69,1.54-1.54V4.26c0-.85-.69-1.54-1.54-1.54ZM7.77,11.56c-.64,0-1.15-.52-1.15-1.15s.52-1.15,1.15-1.15,1.15,.52,1.15,1.15-.52,1.15-1.15,1.15Zm4.23,0c-.64,0-1.15-.52-1.15-1.15s.52-1.15,1.15-1.15,1.15,.52,1.15,1.15-.52,1.15-1.15,1.15Zm4.23,0c-.64,0-1.15-.52-1.15-1.15s.52-1.15,1.15-1.15,1.15,.52,1.15,1.15-.52,1.15-1.15,1.15Z"/><path id="comment-text" d="M20.46,2.72H3.54c-.85,0-1.54,.69-1.54,1.54v12.31c0,.85,.69,1.54,1.54,1.54h5.72s1.42,2.33,1.42,2.33c.44,.73,1.38,.97,2.11,.53,.21-.13,.4-.31,.53-.52l1.43-2.34h5.72c.85,0,1.54-.69,1.54-1.54V4.26c0-.85-.69-1.54-1.54-1.54Zm-5.38,10h-6.15c-.42,0-.77-.34-.77-.77s.34-.77,.77-.77h6.15c.42,0,.77,.34,.77,.77s-.34,.77-.77,.77Zm0-3.08h-6.15c-.42,0-.77-.34-.77-.77s.34-.77,.77-.77h6.15c.42,0,.77,.34,.77,.77s-.34,.77-.77,.77Z"/><path id="copy" d="M21.17,2H7.83c-.46,0-.83,.37-.83,.83V7H2.83c-.46,0-.83,.37-.83,.83v13.33c0,.46,.37,.83,.83,.83h13.33c.46,0,.83-.37,.83-.83v-4.17h4.17c.46,0,.83-.37,.83-.83V2.83c0-.46-.37-.83-.83-.83Zm-.83,13.33h-3.33V7.83c0-.46-.37-.83-.83-.83h-7.5V3.67h11.67V15.33Z"/><path id="dark" d="M22.21,9.1c0,.42-.34,.77-.77,.77h-1.54v1.54c0,.42-.34,.77-.77,.77s-.77-.34-.77-.77v-1.54h-1.54c-.42,0-.77-.34-.77-.77s.34-.77,.77-.77h1.54v-1.54c0-.42,.34-.77,.77-.77s.77,.34,.77,.77v1.54h1.54c.42,0,.77,.34,.77,.77Zm-9.23-3.85h.77v.77c0,.42,.34,.77,.77,.77s.77-.34,.77-.77v-.77h.77c.42,0,.77-.34,.77-.77s-.34-.77-.77-.77h-.77v-.77c0-.42-.34-.77-.77-.77s-.77,.34-.77,.77v.77h-.77c-.42,0-.77,.34-.77,.77s.34,.77,.77,.77Zm6.26,9.07c-4.59,.91-9.04-2.08-9.95-6.67-.21-1.08-.21-2.2,0-3.28,.08-.42-.19-.82-.61-.9-.14-.03-.28-.02-.41,.03C3.49,5.25,1.03,10.55,2.78,15.34c1.75,4.79,7.05,7.25,11.84,5.5,2.55-.93,4.57-2.95,5.5-5.5,.15-.4-.06-.84-.46-.99-.13-.05-.28-.06-.41-.03Z"/><path id="download" d="M8.19,11.14c-.26-.26-.26-.68,0-.94,.13-.13,.3-.2,.47-.2h2.67V4.67c0-.37,.3-.67,.67-.67s.67,.3,.67,.67v5.33h2.67c.37,0,.67,.3,.67,.67,0,.18-.07,.35-.2,.47l-3.33,3.33c-.26,.26-.68,.26-.94,0,0,0,0,0,0,0l-3.33-3.33Zm11.14,2.19c-.37,0-.67,.3-.67,.67v4.67H5.33v-4.67c0-.37-.3-.67-.67-.67s-.67,.3-.67,.67v4.67c0,.74,.6,1.33,1.33,1.33h13.33c.74,0,1.33-.6,1.33-1.33v-4.67c0-.37-.3-.67-.67-.67Z"/><path id="home" d="M20.64,11.27v8.32c0,.8-.64,1.44-1.44,1.44h-3.6c-.8,0-1.44-.64-1.44-1.44v-3.6c0-.4-.32-.72-.72-.72h-2.88c-.4,0-.72,.32-.72,.72v3.6c0,.8-.64,1.44-1.44,1.44h-3.6c-.8,0-1.44-.64-1.44-1.44V11.27c0-.4,.17-.79,.47-1.06L11.03,3.42h0c.55-.51,1.39-.51,1.94,0,0,0,0,0,0,0l7.2,6.79c.29,.27,.46,.66,.46,1.06Z"/><path id="label" d="M10.78,10.34h3.28l-.83,3.33h-3.28l.83-3.33ZM22,3.68V20.34c0,.92-.75,1.67-1.67,1.67H3.67c-.92,0-1.67-.75-1.67-1.67V3.68c0-.92,.75-1.67,1.67-1.67H20.33c.92,0,1.67,.75,1.67,1.67Zm-1.67,5.83c0-.46-.37-.83-.83-.83h-3.31l.78-3.13c.1-.45-.18-.9-.62-1-.44-.1-.88,.16-.99,.6l-.88,3.54h-3.28l.78-3.13c.1-.45-.18-.9-.62-1-.44-.1-.88,.16-.99,.6l-.88,3.54H5.33c-.46,0-.83,.37-.83,.83s.37,.83,.83,.83h3.72l-.83,3.33h-3.72c-.46,0-.83,.37-.83,.83s.37,.83,.83,.83h3.31l-.78,3.13c-.11,.45,.16,.9,.61,1.01,.07,.02,.14,.03,.21,.03,.38,0,.71-.26,.81-.63l.88-3.54h3.28l-.78,3.13c-.11,.45,.16,.9,.61,1.01,.07,.02,.13,.02,.2,.03,.38,0,.71-.26,.81-.63l.89-3.54h4.14c.46,0,.83-.37,.83-.83s-.37-.83-.83-.83h-3.72l.83-3.33h3.72c.46,0,.83-.37,.83-.83Z"/><path id="light" d="M11.33,4.67V2.67c0-.37,.3-.67,.67-.67s.67,.3,.67,.67v2c0,.37-.3,.67-.67,.67s-.67-.3-.67-.67Zm.67,2c-2.95,0-5.33,2.39-5.33,5.33s2.39,5.33,5.33,5.33,5.33-2.39,5.33-5.33c0-2.94-2.39-5.33-5.33-5.33Zm-5.81,.47c.26,.26,.68,.26,.94,0s.26-.68,0-.94l-1.33-1.33c-.26-.26-.68-.26-.94,0s-.26,.68,0,.94l1.33,1.33Zm0,9.72l-1.33,1.33c-.26,.26-.26,.68,0,.94s.68,.26,.94,0l1.33-1.33c.26-.26,.26-.68,0-.94-.26-.26-.68-.26-.94,0ZM17.33,7.33c.18,0,.35-.07,.47-.19l1.33-1.33c.26-.26,.26-.68,0-.94s-.68-.26-.94,0l-1.33,1.33c-.26,.26-.26,.68,0,.94,.13,.13,.3,.2,.47,.2Zm.47,9.53c-.26-.26-.68-.26-.94,0s-.26,.68,0,.94l1.33,1.33c.26,.26,.68,.26,.94,0s.26-.68,0-.94l-1.33-1.33ZM5.33,12c0-.37-.3-.67-.67-.67H2.67c-.37,0-.67,.3-.67,.67s.3,.67,.67,.67h2c.37,0,.67-.3,.67-.67Zm6.67,6.67c-.37,0-.67,.3-.67,.67v2c0,.37,.3,.67,.67,.67s.67-.3,.67-.67v-2c0-.37-.3-.67-.67-.67Zm9.33-7.33h-2c-.37,0-.67,.3-.67,.67s.3,.67,.67,.67h2c.37,0,.67-.3,.67-.67s-.3-.67-.67-.67Z"/><path id="link" d="M19.5,3H4.5c-.83,0-1.5,.67-1.5,1.5v15c0,.83,.67,1.5,1.5,1.5h15c.83,0,1.5-.67,1.5-1.5V4.5c0-.83-.67-1.5-1.5-1.5Zm-7.45,14.78l-.51,.51c-1.63,1.59-4.24,1.56-5.83-.08-1.56-1.6-1.56-4.15,0-5.76l2.25-2.25c1.39-1.39,3.57-1.6,5.21-.51,.34,.23,.44,.7,.21,1.04-.23,.34-.7,.44-1.04,.21-1.04-.7-2.43-.56-3.31,.33l-2.25,2.25c-1.03,1.03-1.03,2.69,0,3.71,1.03,1.03,2.69,1.03,3.71,0l.51-.51c.29-.29,.77-.29,1.06,0s.29,.77,0,1.06Zm6.24-6.24l-2.25,2.25c-1.39,1.39-3.57,1.6-5.21,.51-.34-.23-.44-.7-.21-1.04,.23-.34,.7-.44,1.04-.21h0c1.04,.69,2.43,.56,3.31-.33l2.25-2.25c1.03-1.03,1.03-2.69,0-3.71-1.03-1.03-2.69-1.03-3.71,0l-.51,.51c-.29,.29-.77,.29-1.06,0-.29-.29-.29-.77,0-1.06l.51-.51c1.63-1.59,4.24-1.56,5.83,.08,1.56,1.6,1.56,4.15,0,5.76Z"/><path id="link-open" d="M19.5,3H4.5c-.83,0-1.5,.67-1.5,1.5v15c0,.83,.67,1.5,1.5,1.5h15c.83,0,1.5-.67,1.5-1.5V4.5c0-.83-.67-1.5-1.5-1.5Zm-3.75,10.5c0,.41-.34,.75-.75,.75s-.75-.34-.75-.75v-2.69l-4.72,4.72c-.29,.29-.77,.29-1.06,0-.29-.29-.29-.77,0-1.06h0l4.72-4.72h-2.69c-.41,0-.75-.34-.75-.75s.34-.75,.75-.75h4.5c.41,0,.75,.34,.75,.75v4.5Z"/><path id="list" d="M21.02,11.63v1.5c0,.41-.34,.75-.75,.75H9.79c-.41,0-.75-.34-.75-.75v-1.5c0-.41,.34-.75,.75-.75h10.49c.41,0,.75,.34,.75,.75Zm-.75-6.74H9.79c-.41,0-.75,.34-.75,.75v1.5c0,.41,.34,.75,.75,.75h10.49c.41,0,.75-.34,.75-.75v-1.5c0-.41-.34-.75-.75-.75Zm0,11.99H9.79c-.41,0-.75,.34-.75,.75v1.5c0,.41,.34,.75,.75,.75h10.49c.41,0,.75-.34,.75-.75v-1.5c0-.41-.34-.75-.75-.75ZM4.13,5.55l.41-.21v4.78c0,.41,.34,.75,.75,.75s.75-.34,.75-.75V4.13c0-.41-.33-.75-.75-.75-.12,0-.23,.03-.34,.08l-1.5,.75c-.37,.19-.52,.64-.34,1.01,.19,.37,.64,.52,1.01,.34Zm3.39,9.51c-.08-.6-.41-1.14-.9-1.49-1.01-.73-2.42-.54-3.19,.44-.14,.18-.26,.39-.33,.61-.17,.38,0,.82,.38,.99,.38,.17,.82,0,.99-.38,.01-.03,.02-.06,.03-.09,.03-.07,.06-.14,.11-.2,.27-.34,.77-.41,1.12-.15,.17,.12,.28,.3,.31,.5,.03,.19-.03,.39-.15,.54,0,0,0,0,0,.01l-2.69,3.59c-.25,.33-.18,.8,.15,1.05,.13,.1,.29,.15,.45,.15h3c.41,0,.75-.34,.75-.75s-.34-.75-.75-.75h-1.5l1.79-2.39c.37-.47,.52-1.07,.44-1.66Z"/><path id="lock" d="M19.41,8.67h-2.96v-2.22c0-2.45-1.99-4.44-4.44-4.44s-4.44,1.99-4.44,4.44v2.22h-2.96c-.82,0-1.48,.66-1.48,1.48v10.37c0,.82,.66,1.48,1.48,1.48h14.81c.82,0,1.48-.66,1.48-1.48V10.15c0-.82-.66-1.48-1.48-1.48Zm-7.41,7.78c-.61,0-1.11-.5-1.11-1.11s.5-1.11,1.11-1.11,1.11,.5,1.11,1.11-.5,1.11-1.11,1.11Zm2.96-7.78h-5.93v-2.22c0-1.64,1.33-2.96,2.96-2.96s2.96,1.33,2.96,2.96v2.22Z"/><path id="menu" d="M21,11.25v1.5c0,.41-.34,.75-.75,.75H3.75c-.41,0-.75-.34-.75-.75v-1.5c0-.41,.34-.75,.75-.75H20.25c.41,0,.75,.34,.75,.75Zm-.75,5.25H3.75c-.41,0-.75,.34-.75,.75v1.5c0,.41,.34,.75,.75,.75H20.25c.41,0,.75-.34,.75-.75v-1.5c0-.41-.34-.75-.75-.75Zm0-12H3.75c-.41,0-.75,.34-.75,.75v1.5c0,.41,.34,.75,.75,.75H20.25c.41,0,.75-.34,.75-.75v-1.5c0-.41-.34-.75-.75-.75Z"/><path id="menu-more" d="M18.67,4H5.33c-.74,0-1.33,.6-1.33,1.33v13.33c0,.74,.6,1.33,1.33,1.33h13.33c.74,0,1.33-.6,1.33-1.33V5.33c0-.74-.6-1.33-1.33-1.33ZM7.67,17.33c-.55,0-1-.45-1-1s.45-1,1-1,1,.45,1,1-.45,1-1,1Zm0-4.33c-.55,0-1-.45-1-1s.45-1,1-1,1,.45,1,1-.45,1-1,1Zm0-4.33c-.55,0-1-.45-1-1s.45-1,1-1,1,.45,1,1-.45,1-1,1Zm4.33,8.67c-.55,0-1-.45-1-1s.45-1,1-1,1,.45,1,1-.45,1-1,1Zm0-4.33c-.55,0-1-.45-1-1s.45-1,1-1,1,.45,1,1-.45,1-1,1Zm0-4.33c-.55,0-1-.45-1-1s.45-1,1-1,1,.45,1,1-.45,1-1,1Zm4.33,8.67c-.55,0-1-.45-1-1s.45-1,1-1,1,.45,1,1-.45,1-1,1Zm0-4.33c-.55,0-1-.45-1-1s.45-1,1-1,1,.45,1,1-.45,1-1,1Zm0-4.33c-.55,0-1-.45-1-1s.45-1,1-1,1,.45,1,1-.45,1-1,1Z"/><path id="more" d="M18.86,6.29H5.14c-.63,0-1.14,.51-1.14,1.14v9.14c0,.63,.51,1.14,1.14,1.14h13.71c.63,0,1.14-.51,1.14-1.14V7.43c0-.63-.51-1.14-1.14-1.14ZM7.14,12.86c-.47,0-.86-.38-.86-.86s.38-.86,.86-.86,.86,.38,.86,.86-.38,.86-.86,.86Zm4.86,0c-.47,0-.86-.38-.86-.86s.38-.86,.86-.86,.86,.38,.86,.86-.38,.86-.86,.86Zm4.86,0c-.47,0-.86-.38-.86-.86s.38-.86,.86-.86,.86,.38,.86,.86-.38,.86-.86,.86Z"/><path id="more-vertical" d="M17.71,18.86V5.14c0-.63-.51-1.14-1.14-1.14H7.43c-.63,0-1.14,.51-1.14,1.14v13.71c0,.63,.51,1.14,1.14,1.14h9.14c.63,0,1.14-.51,1.14-1.14ZM11.14,7.14c0-.47,.38-.86,.86-.86s.86,.38,.86,.86-.38,.86-.86,.86-.86-.38-.86-.86Zm0,4.86c0-.47,.38-.86,.86-.86s.86,.38,.86,.86-.38,.86-.86,.86-.86-.38-.86-.86Zm0,4.86c0-.47,.38-.86,.86-.86s.86,.38,.86,.86-.38,.86-.86,.86-.86-.38-.86-.86Z"/><path id="page" d="M19.93,7.77L14.75,2.59c-.14-.14-.33-.22-.52-.22H5.33c-.82,0-1.48,.66-1.48,1.48V20.15c0,.82,.66,1.48,1.48,1.48h13.33c.82,0,1.48-.66,1.48-1.48V8.3c0-.2-.08-.39-.22-.52Zm-4.97,8.67h-5.93c-.41,0-.74-.33-.74-.74s.33-.74,.74-.74h5.93c.41,0,.74,.33,.74,.74s-.33,.74-.74,.74Zm0-2.96h-5.93c-.41,0-.74-.33-.74-.74s.33-.74,.74-.74h5.93c.41,0,.74,.33,.74,.74s-.33,.74-.74,.74Zm-.74-5.19V4.22l4.07,4.07h-4.07Z"/><path id="pin" d="M20.57,15.21c0,.39-.32,.71-.71,.71h-7.14v5c0,.39-.32,.71-.71,.71s-.71-.32-.71-.71v-5H4.14c-.39,0-.71-.32-.71-.71s.32-.71,.71-.71h.83L6.86,3.79h-.58c-.39,0-.71-.32-.71-.71s.32-.71,.71-.71h11.43c.39,0,.71,.32,.71,.71s-.32,.71-.71,.71h-.58l1.89,10.71h.83c.39,0,.71,.32,.71,.71Z"/><path id="read-more" d="M20.57,4.86H6.29c-.79,0-1.43,.64-1.43,1.43v10.71c0,.39-.32,.71-.71,.71s-.71-.32-.71-.71V8.43c0-.39-.32-.71-.71-.71s-.71,.32-.71,.71v8.58c0,1.18,.96,2.13,2.14,2.13h15.71c1.18,0,2.14-.96,2.14-2.14V6.29c0-.79-.64-1.43-1.43-1.43Zm-3.57,9.29h-7.14c-.39,0-.71-.32-.71-.71s.32-.71,.71-.71h7.14c.39,0,.71,.32,.71,.71s-.32,.71-.71,.71Zm0-2.86h-7.14c-.39,0-.71-.32-.71-.71s.32-.71,.71-.71h7.14c.39,0,.71,.32,.71,.71s-.32,.71-.71,.71Z"/><path id="reload" d="M2,11.98c0-3.82,3.1-6.92,6.92-6.92h9.23v-1.54c0-.42,.34-.77,.77-.77,.2,0,.4,.08,.54,.23l2.31,2.31c.3,.3,.3,.79,0,1.09,0,0,0,0,0,0l-2.31,2.31c-.3,.3-.79,.3-1.09,0-.14-.14-.23-.34-.23-.54v-1.54H8.92c-2.97,0-5.38,2.41-5.38,5.38,0,.42-.34,.77-.77,.77s-.77-.34-.77-.77Zm19.23-.77c-.42,0-.77,.34-.77,.77,0,2.97-2.41,5.38-5.38,5.38H5.85v-1.54c0-.42-.34-.77-.77-.77-.2,0-.4,.08-.54,.23l-2.31,2.31c-.3,.3-.3,.79,0,1.09,0,0,0,0,0,0l2.31,2.31c.3,.3,.79,.3,1.09,0,.14-.14,.23-.34,.23-.54v-1.54H15.08c3.82,0,6.92-3.1,6.92-6.92,0-.42-.34-.77-.77-.77Z"/><path id="search" d="M15.29,10.88c0,2.57-2.09,4.66-4.66,4.66s-4.66-2.09-4.66-4.66,2.09-4.66,4.66-4.66,4.66,2.09,4.66,4.66h0Zm5.13,9.79c-.26,.26-.68,.26-.94,0h0s-4.17-4.17-4.17-4.17c-3.11,2.59-7.73,2.16-10.32-.95-2.59-3.11-2.16-7.73,.95-10.32,3.11-2.59,7.73-2.16,10.32,.95,2.26,2.72,2.26,6.66,0,9.37l4.17,4.17c.26,.26,.26,.68,0,.94h0Zm-9.79-3.8c3.31,0,5.99-2.68,5.99-5.99s-2.68-5.99-5.99-5.99-5.99,2.68-5.99,5.99c0,3.31,2.68,5.99,5.99,5.99Z"/><path id="settings" d="M20.1,12.2c0-.13,0-.27,0-.4l1.37-1.72c.15-.18,.2-.42,.14-.65-.23-.85-.56-1.66-1-2.42-.12-.2-.32-.34-.55-.36l-2.18-.24c-.09-.1-.18-.19-.28-.28l-.26-2.19c-.03-.23-.16-.44-.36-.55-.76-.44-1.57-.78-2.42-1-.23-.06-.47,0-.65,.14l-1.71,1.37h-.4l-1.72-1.37c-.18-.15-.42-.2-.65-.14-.85,.23-1.66,.56-2.42,1-.2,.12-.34,.32-.36,.55l-.24,2.19c-.1,.09-.19,.18-.28,.28l-2.19,.25c-.23,.03-.44,.16-.55,.36-.44,.76-.78,1.57-1,2.42-.06,.23,0,.47,.14,.65l1.37,1.71v.4l-1.37,1.72c-.15,.18-.2,.42-.14,.65,.23,.85,.56,1.66,1,2.42,.12,.2,.32,.34,.55,.36l2.18,.24c.09,.1,.18,.19,.28,.28l.25,2.19c.03,.23,.16,.44,.36,.55,.76,.44,1.57,.78,2.42,1,.23,.06,.47,0,.65-.14l1.71-1.37c.13,0,.27,0,.4,0l1.72,1.37c.18,.15,.42,.2,.65,.14,.85-.23,1.66-.56,2.42-1,.2-.12,.34-.32,.36-.55l.24-2.18c.1-.09,.19-.18,.28-.28l2.19-.26c.23-.03,.44-.16,.55-.36,.44-.76,.78-1.57,1-2.42,.06-.23,0-.47-.14-.65l-1.37-1.71Zm-8.1,3.48c-2.03,0-3.68-1.65-3.68-3.68s1.65-3.68,3.68-3.68,3.68,1.65,3.68,3.68-1.65,3.68-3.68,3.68Z"/><path id="share" d="M20.8,9.72l-4.15,4.15c-.27,.27-.71,.27-.98,0-.13-.13-.2-.31-.2-.49v-3.46h-.26c-3.47,0-6.51,2.35-7.38,5.71-.1,.37-.47,.59-.84,.5s-.59-.47-.5-.84c1.02-3.98,4.61-6.75,8.72-6.75h.26v-3.46c0-.38,.31-.69,.69-.69,.18,0,.36,.07,.49,.2l4.15,4.15c.27,.27,.27,.71,0,.98,0,0,0,0,0,0Zm-3.26,8.51H4.38V7.85c0-.38-.31-.69-.69-.69s-.69,.31-.69,.69v10.38c0,.76,.62,1.38,1.38,1.38h13.15c.38,0,.69-.31,.69-.69s-.31-.69-.69-.69Z"/><path id="sort-ascending" d="M11.25,11.25c0,.41-.34,.75-.75,.75H3.75c-.41,0-.75-.34-.75-.75s.34-.75,.75-.75h6.75c.41,0,.75,.34,.75,.75ZM3.75,6h12.75c.41,0,.75-.34,.75-.75s-.34-.75-.75-.75H3.75c-.41,0-.75,.34-.75,.75s.34,.75,.75,.75Zm5.25,10.5H3.75c-.41,0-.75,.34-.75,.75s.34,.75,.75,.75h5.25c.41,0,.75-.34,.75-.75s-.34-.75-.75-.75Zm11.94-1.79c-.12-.28-.39-.46-.69-.46h-3v-4.5c0-.41-.34-.75-.75-.75s-.75,.34-.75,.75v4.5h-3c-.41,0-.75,.34-.75,.75,0,.2,.08,.39,.22,.53l3.75,3.75c.29,.29,.77,.29,1.06,0h0s3.75-3.75,3.75-3.75c.21-.21,.28-.54,.16-.82Z"/><path id="sort-descending" d="M11.25,11.25c0,.41-.34,.75-.75,.75H3.75c-.41,0-.75-.34-.75-.75s.34-.75,.75-.75h6.75c.41,0,.75,.34,.75,.75ZM3.75,6h12.75c.41,0,.75-.34,.75-.75s-.34-.75-.75-.75H3.75c-.41,0-.75,.34-.75,.75s.34,.75,.75,.75Zm5.25,10.5H3.75c-.41,0-.75,.34-.75,.75s.34,.75,.75,.75h5.25c.41,0,.75-.34,.75-.75s-.34-.75-.75-.75Zm3.06-2.71c.12,.28,.39,.46,.69,.46h3v4.5c0,.41,.34,.75,.75,.75s.75-.34,.75-.75v-4.5h3c.41,0,.75-.34,.75-.75,0-.2-.08-.39-.22-.53l-3.75-3.75c-.29-.29-.77-.29-1.06,0h0s-3.75,3.75-3.75,3.75c-.21,.21-.28,.54-.16,.82Z"/><path id="star" d="M21.5,11.14l-4.02,3.51,1.21,5.23c.18,.77-.3,1.54-1.07,1.71-.36,.08-.74,.02-1.06-.17l-4.56-2.77-4.55,2.77c-.68,.41-1.55,.19-1.96-.49-.19-.32-.25-.7-.17-1.06l1.2-5.22-4.02-3.52c-.6-.51-.66-1.42-.15-2.01,.24-.28,.59-.46,.96-.49l5.31-.46,2.07-4.94c.3-.73,1.14-1.07,1.86-.77,.35,.14,.62,.42,.77,.77l2.08,4.94,5.3,.46c.79,.07,1.37,.76,1.3,1.54-.03,.37-.21,.72-.49,.96h0Z"/><path id="translate" d="M15.33,12.2l1.57,3.14h-3.14l.66-1.32,.91-1.81ZM22,3.67V20.33c0,.92-.75,1.67-1.67,1.67H3.67c-.92,0-1.67-.75-1.67-1.67V3.67c0-.92,.75-1.67,1.67-1.67H20.33c.92,0,1.67,.75,1.67,1.67Zm-1.75,14.63l-4.17-8.33c-.21-.41-.71-.58-1.12-.37-.16,.08-.29,.21-.37,.37l-1.37,2.75c-.88-.17-1.72-.53-2.46-1.04,1.15-1.3,1.86-2.94,2.04-4.67h1.71c.46,0,.83-.37,.83-.83s-.37-.83-.83-.83h-4.17v-.83c0-.46-.37-.83-.83-.83s-.83,.37-.83,.83v.83H4.5c-.46,0-.83,.37-.83,.83s.37,.83,.83,.83h6.61c-.17,1.31-.72,2.55-1.59,3.55-.37-.43-.68-.91-.94-1.42-.22-.41-.72-.56-1.13-.34-.39,.21-.55,.68-.36,1.08,.32,.64,.72,1.24,1.19,1.79-1.11,.77-2.43,1.18-3.78,1.18-.46,0-.83,.37-.83,.83s.37,.83,.83,.83c1.81,0,3.57-.59,5.01-1.68,.87,.67,1.87,1.15,2.94,1.42l-2.03,4.05c-.21,.41-.04,.91,.37,1.12,.41,.21,.91,.04,1.12-.37l1.02-2.04h4.8l1.02,2.04c.21,.41,.71,.58,1.12,.37,.41-.21,.58-.71,.37-1.12Z"/><path id="verified" d="M20.74,9.75c-.34-.35-.68-.71-.82-1.03-.12-.29-.13-.78-.14-1.24-.01-.87-.03-1.86-.71-2.55s-1.67-.7-2.55-.71c-.47,0-.95-.01-1.24-.14-.32-.13-.68-.48-1.03-.82-.62-.59-1.32-1.26-2.25-1.26s-1.63,.67-2.25,1.26c-.35,.34-.71,.68-1.03,.82-.29,.12-.78,.13-1.24,.14-.87,.01-1.86,.03-2.55,.71s-.7,1.67-.71,2.55c0,.47-.01,.95-.14,1.24-.13,.32-.48,.68-.82,1.03-.59,.62-1.26,1.32-1.26,2.25s.67,1.63,1.26,2.25c.34,.35,.68,.71,.82,1.03,.12,.29,.13,.78,.14,1.24,.01,.87,.03,1.86,.71,2.55s1.67,.7,2.55,.71c.47,0,.95,.01,1.24,.14,.32,.13,.68,.48,1.03,.82,.62,.59,1.32,1.26,2.25,1.26s1.63-.67,2.25-1.26c.35-.34,.71-.68,1.03-.82,.29-.12,.78-.13,1.24-.14,.87-.01,1.86-.03,2.55-.71s.7-1.67,.71-2.55c0-.47,.01-.95,.14-1.24,.13-.32,.48-.68,.82-1.03,.59-.62,1.26-1.32,1.26-2.25s-.67-1.63-1.26-2.25Zm-4.66,.61l-5,5c-.28,.28-.73,.28-1.01,0,0,0,0,0,0,0l-2.14-2.14c-.28-.28-.28-.73,0-1.01,.28-.28,.73-.28,1.01,0l1.64,1.64,4.49-4.5c.28-.28,.73-.28,1.01,0,.28,.28,.28,.73,0,1.01Z"/><path id="zip" d="M17.83,14.5h-1.67c-.46,0-.83,.37-.83,.83v5.83c0,.46,.37,.83,.83,.83s.83-.37,.83-.83v-.83h.83c1.61,0,2.92-1.31,2.92-2.92s-1.31-2.92-2.92-2.92Zm0,4.17h-.83v-2.5h.83c.69,0,1.25,.56,1.25,1.25s-.56,1.25-1.25,1.25Zm-5-3.33v5.83c0,.46-.37,.83-.83,.83s-.83-.37-.83-.83v-5.83c0-.46,.37-.83,.83-.83s.83,.37,.83,.83Zm-4.17,5.83c0,.46-.37,.83-.83,.83h-3.33c-.46,0-.84-.37-.84-.83,0-.15,.04-.3,.11-.42l2.62-4.58h-1.89c-.46,0-.83-.37-.83-.83s.37-.83,.83-.83h3.33c.46,0,.84,.37,.84,.83,0,.15-.04,.3-.11,.42l-2.63,4.58h1.9c.46,0,.83,.37,.83,.83Zm12.26-13.09L15.09,2.24c-.16-.16-.37-.24-.59-.24H4.5c-.92,0-1.67,.75-1.67,1.67v7.5c0,.46,.37,.83,.83,.83H20.33c.46,0,.83-.37,.83-.83v-2.5c0-.22-.09-.43-.24-.59Zm-6.42,.59V4.08l4.58,4.58h-4.58Z"/></svg>