<?xml version="1.0" encoding="UTF-8"?><svg id="phosphor-regular" xmlns="http://www.w3.org/2000/svg" viewBox="0 0 24 24"><path id="archive" d="M20.57,4.86H3.43c-.79,0-1.43,.64-1.43,1.43v2.14c0,.79,.64,1.43,1.43,1.43v7.86c0,.79,.64,1.43,1.43,1.43h14.29c.79,0,1.43-.64,1.43-1.43v-7.86c.79,0,1.43-.64,1.43-1.43v-2.14c0-.79-.64-1.43-1.43-1.43Zm-1.43,12.86H4.86v-7.86h14.29v7.86Zm1.43-9.29H3.43v-2.14H20.57v2.14Zm-11.43,4.29c0-.39,.32-.71,.71-.71h4.29c.39,0,.71,.32,.71,.71s-.32,.71-.71,.71h-4.29c-.39,0-.71-.32-.71-.71Z"/><path id="arrow-right" d="M21.76,12.59l-7.5,7.5c-.33,.33-.85,.33-1.18,0s-.33-.85,0-1.18h0l6.08-6.08H2.83c-.46,0-.83-.37-.83-.83s.37-.83,.83-.83H19.15l-6.08-6.08c-.33-.33-.33-.85,0-1.18s.85-.33,1.18,0l7.5,7.5c.33,.33,.33,.85,0,1.18h0Z"/><path id="arrow-left" d="M2.24,11.41L9.74,3.91c.33-.33,.85-.33,1.18,0s.33,.85,0,1.18h0l-6.08,6.08H21.17c.46,0,.83,.37,.83,.83s-.37,.83-.83,.83H4.85l6.08,6.08c.33,.33,.33,.85,0,1.18s-.85,.33-1.18,0L2.24,12.59c-.33-.33-.33-.85,0-1.18h0Z"/><path id="arrow-top" d="M12.59,2.24l7.5,7.5c.33,.33,.33,.85,0,1.18s-.85,.33-1.18,0h0l-6.08-6.08V21.17c0,.46-.37,.83-.83,.83s-.83-.37-.83-.83V4.85l-6.08,6.08c-.33,.33-.85,.33-1.18,0s-.33-.85,0-1.18L11.41,2.24c.33-.33,.85-.33,1.18,0h0Z"/><path id="check" d="M21.77,6.17l-12.8,12.8c-.31,.31-.82,.31-1.13,0,0,0,0,0,0,0L2.23,13.37c-.31-.31-.31-.82,0-1.13s.82-.31,1.13,0l5.03,5.03L20.63,5.03c.31-.31,.82-.31,1.13,0,.31,.31,.31,.82,0,1.13h0Z"/><path id="close" d="M21.71,20.29c.39,.39,.39,1.02,0,1.41s-1.02,.39-1.41,0h0L12,13.41,3.71,21.71c-.39,.39-1.02,.39-1.41,0s-.39-1.02,0-1.41L10.59,12,2.29,3.71c-.39-.39-.39-1.02,0-1.41s1.02-.39,1.41,0h0L12,10.59,20.29,2.29c.39-.39,1.02-.39,1.41,0s.39,1.02,0,1.41h0L13.41,12l8.29,8.29Z"/><path id="clear" d="M20.57,4.14H7.4c-.5,0-.97,.26-1.22,.69L2.1,11.63c-.14,.23-.14,.51,0,.74l4.08,6.8c.26,.43,.72,.69,1.22,.69h13.17c.79,0,1.43-.64,1.43-1.43V5.57c0-.79-.64-1.43-1.43-1.43ZM6.79,18.8l.61-.37-.61,.37Zm13.78-.37H7.4l-3.86-6.43,3.86-6.43h13.17v12.86Zm-9.79-4.79l1.64-1.64-1.64-1.64c-.28-.28-.28-.73,0-1.01s.73-.28,1.01,0l1.64,1.64,1.64-1.64c.28-.28,.73-.28,1.01,0,.28,.28,.28,.73,0,1.01l-1.64,1.64,1.64,1.64c.28,.28,.28,.73,0,1.01s-.73,.28-1.01,0l-1.64-1.64-1.64,1.64c-.28,.28-.73,.28-1.01,0-.28-.28-.28-.73,0-1.01Z"/><path id="comment" d="M10.85,10.46c0-.64,.52-1.15,1.15-1.15s1.15,.52,1.15,1.15-.52,1.15-1.15,1.15-1.15-.52-1.15-1.15Zm5.38,1.15c.64,0,1.15-.52,1.15-1.15s-.52-1.15-1.15-1.15-1.15,.52-1.15,1.15,.52,1.15,1.15,1.15Zm5.77-7.31v12.31c0,.85-.69,1.54-1.54,1.54h-5.72l-1.43,2.34c-.44,.73-1.39,.96-2.11,.52-.21-.13-.39-.31-.52-.53l-1.42-2.33H3.54c-.85,0-1.54-.69-1.54-1.54V4.31c0-.85,.69-1.54,1.54-1.54H20.46c.85,0,1.54,.69,1.54,1.54Zm-1.54,0H3.54v12.31h5.72c.54,0,1.04,.28,1.32,.74l1.43,2.33,1.43-2.34c.28-.46,.78-.74,1.32-.74h5.72V4.31ZM7.77,11.62c.64,0,1.15-.52,1.15-1.15s-.52-1.15-1.15-1.15-1.15,.52-1.15,1.15,.52,1.15,1.15,1.15Z"/><path id="comment-text" d="M8.15,8.92c0-.42,.34-.77,.77-.77h6.15c.42,0,.77,.34,.77,.77s-.34,.77-.77,.77h-6.15c-.42,0-.77-.34-.77-.77Zm.77,3.85h6.15c.42,0,.77-.34,.77-.77s-.34-.77-.77-.77h-6.15c-.42,0-.77,.34-.77,.77s.34,.77,.77,.77ZM22,4.31v12.31c0,.85-.69,1.54-1.54,1.54h-5.72l-1.43,2.34c-.44,.73-1.39,.96-2.11,.52-.21-.13-.39-.31-.52-.53l-1.42-2.33H3.54c-.85,0-1.54-.69-1.54-1.54V4.31c0-.85,.69-1.54,1.54-1.54H20.46c.85,0,1.54,.69,1.54,1.54Zm-1.54,0H3.54v12.31h5.72c.54,0,1.04,.28,1.32,.74l1.43,2.33,1.43-2.34c.28-.46,.78-.74,1.32-.74h5.72V4.31Z"/><path id="copy" d="M21.17,2H7.83c-.46,0-.83,.37-.83,.83V7H2.83c-.46,0-.83,.37-.83,.83v13.33c0,.46,.37,.83,.83,.83h13.33c.46,0,.83-.37,.83-.83v-4.17h4.17c.46,0,.83-.37,.83-.83V2.83c0-.46-.37-.83-.83-.83Zm-5.83,18.33H3.67V8.67H15.33v11.67Zm5-5h-3.33V7.83c0-.46-.37-.83-.83-.83h-7.5V3.67h11.67V15.33Z"/><path id="dark" d="M22,9.31c0,.42-.34,.77-.77,.77h-1.54v1.54c0,.42-.34,.77-.77,.77s-.77-.34-.77-.77v-1.54h-1.54c-.42,0-.77-.34-.77-.77s.34-.77,.77-.77h1.54v-1.54c0-.42,.34-.77,.77-.77s.77,.34,.77,.77v1.54h1.54c.42,0,.77,.34,.77,.77Zm-9.23-3.85h.77v.77c0,.42,.34,.77,.77,.77s.77-.34,.77-.77v-.77h.77c.42,0,.77-.34,.77-.77s-.34-.77-.77-.77h-.77v-.77c0-.42-.34-.77-.77-.77s-.77,.34-.77,.77v.77h-.77c-.42,0-.77,.34-.77,.77s.34,.77,.77,.77Zm7,9.33c.18,.21,.24,.51,.14,.77-1.76,4.79-7.06,7.25-11.85,5.49C3.27,19.29,.81,13.99,2.57,9.2c.93-2.55,2.94-4.56,5.49-5.49,.4-.15,.84,.06,.99,.46,.05,.13,.06,.28,.03,.41-.91,4.59,2.08,9.04,6.67,9.95,1.08,.21,2.2,.21,3.28,0,.27-.05,.55,.04,.73,.26Zm-1.86,1.43c-.17,0-.35,.01-.52,.01-5.52,0-10-4.48-10-10,0-.17,0-.35,.01-.52-3.68,2.12-4.95,6.82-2.83,10.51s6.82,4.95,10.51,2.83c1.18-.68,2.15-1.65,2.83-2.83h0Z"/><path id="download" d="M22,14.5v5.83c0,.92-.75,1.67-1.67,1.67H3.67c-.92,0-1.67-.75-1.67-1.67v-5.83c0-.46,.37-.83,.83-.83s.83,.37,.83,.83v5.83H20.33v-5.83c0-.46,.37-.83,.83-.83s.83,.37,.83,.83Zm-10.59,.59c.33,.33,.85,.33,1.18,0h0s4.17-4.17,4.17-4.17c.33-.33,.33-.85,0-1.18-.33-.33-.85-.33-1.18,0l-2.74,2.74V2.83c0-.46-.37-.83-.83-.83s-.83,.37-.83,.83V12.49l-2.74-2.74c-.33-.33-.85-.33-1.18,0s-.33,.85,0,1.18l4.17,4.17Z"/><path id="home" d="M21.08,9.98L13.08,2.43s0,0-.01-.01c-.61-.56-1.54-.56-2.15,0h-.01S2.92,9.98,2.92,9.98c-.33,.3-.52,.73-.52,1.18v9.25c0,.88,.72,1.6,1.6,1.6h4.8c.88,0,1.6-.72,1.6-1.6v-4.8h3.2v4.8c0,.88,.72,1.6,1.6,1.6h4.8c.88,0,1.6-.72,1.6-1.6V11.15c0-.45-.19-.88-.52-1.18Zm-1.08,10.42h-4.8v-4.8c0-.88-.72-1.6-1.6-1.6h-3.2c-.88,0-1.6,.72-1.6,1.6v4.8H4V11.15h.01S12,3.6,12,3.6l7.99,7.54h.01s0,9.26,0,9.26Z"/><path id="label" d="M21.23,8.15h-4.67l.81-4.48c.07-.42-.22-.81-.63-.88-.41-.07-.8,.2-.88,.61l-.87,4.75h-4.59l.81-4.48c.07-.42-.22-.81-.63-.88-.41-.07-.8,.2-.88,.61l-.86,4.75H4.31c-.42,0-.77,.34-.77,.77s.34,.77,.77,.77h4.25l-.84,4.62H2.77c-.42,0-.77,.34-.77,.77s.34,.77,.77,.77H7.44l-.81,4.48c-.08,.42,.2,.82,.62,.89,.05,0,.09,.01,.14,.01,.37,0,.69-.27,.76-.63l.87-4.75h4.59l-.81,4.48c-.08,.42,.2,.82,.62,.89,.05,0,.09,.01,.14,.01,.37,0,.69-.27,.76-.63l.87-4.75h4.53c.42,0,.77-.34,.77-.77s-.34-.77-.77-.77h-4.25l.84-4.62h4.95c.42,0,.77-.34,.77-.77s-.34-.77-.77-.77Zm-7.36,6.15h-4.59l.84-4.62h4.59l-.84,4.62Z"/><path id="light" d="M11.33,4.67V2.67c0-.37,.3-.67,.67-.67s.67,.3,.67,.67v2c0,.37-.3,.67-.67,.67s-.67-.3-.67-.67Zm6,7.33c0,2.95-2.39,5.33-5.33,5.33s-5.33-2.39-5.33-5.33,2.39-5.33,5.33-5.33c2.94,0,5.33,2.39,5.33,5.33Zm-1.33,0c0-2.21-1.79-4-4-4s-4,1.79-4,4,1.79,4,4,4c2.21,0,4-1.79,4-4ZM6.2,7.14c.26,.26,.68,.26,.94,0s.26-.68,0-.94l-1.33-1.33c-.26-.26-.68-.26-.94,0s-.26,.68,0,.94l1.33,1.33Zm0,9.72l-1.33,1.33c-.26,.26-.26,.68,0,.94s.68,.26,.94,0l1.33-1.33c.26-.26,.26-.68,0-.94-.26-.26-.68-.26-.94,0ZM17.33,7.33c.18,0,.35-.07,.47-.19l1.33-1.33c.26-.26,.26-.68,0-.94s-.68-.26-.94,0l-1.33,1.33c-.26,.26-.26,.68,0,.94,.13,.13,.3,.2,.47,.2Zm.47,9.53c-.26-.26-.68-.26-.94,0s-.26,.68,0,.94l1.33,1.33c.26,.26,.68,.26,.94,0s.26-.68,0-.94l-1.33-1.33ZM5.33,12c0-.37-.3-.67-.67-.67H2.67c-.37,0-.67,.3-.67,.67s.3,.67,.67,.67h2c.37,0,.67-.3,.67-.67Zm6.67,6.67c-.37,0-.67,.3-.67,.67v2c0,.37,.3,.67,.67,.67s.67-.3,.67-.67v-2c0-.37-.3-.67-.67-.67Zm9.33-7.33h-2c-.37,0-.67,.3-.67,.67s.3,.67,.67,.67h2c.37,0,.67-.3,.67-.67s-.3-.67-.67-.67Z"/><path id="link" d="M13,18.07c.33,.33,.33,.85,0,1.18l-1.04,1.04c-2.28,2.28-5.97,2.28-8.25,0-2.28-2.28-2.28-5.97,0-8.25l2.51-2.51c2.18-2.18,5.69-2.29,8-.24,.35,.31,.38,.83,.07,1.18-.31,.35-.83,.38-1.18,.07-1.65-1.46-4.15-1.39-5.71,.17l-2.51,2.51c-1.63,1.63-1.63,4.27,0,5.89,1.63,1.63,4.27,1.63,5.89,0l1.04-1.04c.33-.33,.85-.33,1.18,0,0,0,0,0,0,0ZM20.29,3.7c-2.28-2.27-5.97-2.27-8.25,0l-1.04,1.04c-.33,.33-.33,.85,0,1.18,.33,.33,.85,.33,1.18,0l1.04-1.04c1.63-1.63,4.27-1.63,5.89,0s1.63,4.27,0,5.89l-2.51,2.51c-1.56,1.56-4.06,1.63-5.71,.17-.35-.31-.87-.27-1.18,.07-.31,.35-.27,.87,.07,1.18,2.31,2.05,5.82,1.95,8-.24l2.51-2.51c2.28-2.28,2.28-5.97,0-8.25h0Z"/><path id="link-open" d="M20.33,2H3.67c-.92,0-1.67,.75-1.67,1.67V20.33c0,.92,.75,1.67,1.67,1.67H20.33c.92,0,1.67-.75,1.67-1.67V3.67c0-.92-.75-1.67-1.67-1.67Zm0,18.33H3.67V3.67H20.33V20.33Zm-12.26-4.41c-.33-.33-.33-.85,0-1.18,0,0,0,0,0,0l5.24-5.24h-2.99c-.46,0-.83-.37-.83-.83s.37-.83,.83-.83h5c.46,0,.83,.37,.83,.83v5c0,.46-.37,.83-.83,.83s-.83-.37-.83-.83v-2.99l-5.24,5.24c-.33,.33-.85,.33-1.18,0,0,0,0,0,0,0Z"/><path id="list" d="M22,12.42c0,.46-.37,.83-.83,.83H9.51c-.46,0-.83-.37-.83-.83s.37-.83,.83-.83h11.66c.46,0,.83,.37,.83,.83ZM9.51,6.59h11.66c.46,0,.83-.37,.83-.83s-.37-.83-.83-.83H9.51c-.46,0-.83,.37-.83,.83s.37,.83,.83,.83Zm11.66,11.66H9.51c-.46,0-.83,.37-.83,.83s.37,.83,.83,.83h11.66c.46,0,.83-.37,.83-.83s-.37-.83-.83-.83ZM3.22,4.84l.46-.23v5.31c0,.46,.37,.83,.83,.83s.83-.37,.83-.83V3.26c0-.46-.37-.83-.83-.83-.13,0-.26,.03-.37,.09l-1.67,.83c-.41,.21-.58,.71-.37,1.12,.21,.41,.71,.58,1.12,.37Zm3.77,10.57c-.09-.67-.45-1.27-1-1.66-1.12-.82-2.69-.6-3.55,.49-.16,.2-.28,.43-.37,.67-.19,.42,0,.91,.43,1.1,.42,.19,.91,0,1.1-.43,.01-.03,.03-.07,.04-.1,.03-.08,.07-.15,.12-.22,.31-.38,.86-.45,1.25-.17,.18,.13,.31,.33,.34,.55,.03,.21-.03,.43-.16,.6,0,0,0,0,0,.01l-2.99,3.99c-.28,.37-.2,.89,.17,1.17,.14,.11,.32,.17,.5,.17h3.33c.46,0,.83-.37,.83-.83s-.37-.83-.83-.83h-1.67l1.99-2.66c.41-.52,.58-1.19,.49-1.85Z"/><path id="menu" d="M22,12c0,.46-.37,.83-.83,.83H2.83c-.46,0-.83-.37-.83-.83s.37-.83,.83-.83H21.17c.46,0,.83,.37,.83,.83ZM2.83,6.17H21.17c.46,0,.83-.37,.83-.83s-.37-.83-.83-.83H2.83c-.46,0-.83,.37-.83,.83s.37,.83,.83,.83Zm18.33,11.67H2.83c-.46,0-.83,.37-.83,.83s.37,.83,.83,.83H21.17c.46,0,.83-.37,.83-.83s-.37-.83-.83-.83Z"/><path id="menu-more" d="M5,3.5c0,.83-.67,1.5-1.5,1.5s-1.5-.67-1.5-1.5,.67-1.5,1.5-1.5,1.5,.67,1.5,1.5Zm7-1.5c-.83,0-1.5,.67-1.5,1.5s.67,1.5,1.5,1.5,1.5-.67,1.5-1.5-.67-1.5-1.5-1.5Zm8.5,3c.83,0,1.5-.67,1.5-1.5s-.67-1.5-1.5-1.5-1.5,.67-1.5,1.5,.67,1.5,1.5,1.5ZM3.5,10.5c-.83,0-1.5,.67-1.5,1.5s.67,1.5,1.5,1.5,1.5-.67,1.5-1.5-.67-1.5-1.5-1.5Zm8.5,0c-.83,0-1.5,.67-1.5,1.5s.67,1.5,1.5,1.5,1.5-.67,1.5-1.5-.67-1.5-1.5-1.5Zm8.5,0c-.83,0-1.5,.67-1.5,1.5s.67,1.5,1.5,1.5,1.5-.67,1.5-1.5-.67-1.5-1.5-1.5ZM3.5,19c-.83,0-1.5,.67-1.5,1.5s.67,1.5,1.5,1.5,1.5-.67,1.5-1.5-.67-1.5-1.5-1.5Zm8.5,0c-.83,0-1.5,.67-1.5,1.5s.67,1.5,1.5,1.5,1.5-.67,1.5-1.5-.67-1.5-1.5-1.5Zm8.5,0c-.83,0-1.5,.67-1.5,1.5s.67,1.5,1.5,1.5,1.5-.67,1.5-1.5-.67-1.5-1.5-1.5Z"/><path id="more" d="M13.5,12c0,.83-.67,1.5-1.5,1.5s-1.5-.67-1.5-1.5,.67-1.5,1.5-1.5,1.5,.67,1.5,1.5Zm7-1.5c-.83,0-1.5,.67-1.5,1.5s.67,1.5,1.5,1.5,1.5-.67,1.5-1.5-.67-1.5-1.5-1.5Zm-17,0c-.83,0-1.5,.67-1.5,1.5s.67,1.5,1.5,1.5,1.5-.67,1.5-1.5-.67-1.5-1.5-1.5Z"/><path id="more-vertical" d="M12,13.5c-.83,0-1.5-.67-1.5-1.5s.67-1.5,1.5-1.5,1.5,.67,1.5,1.5-.67,1.5-1.5,1.5Zm1.5,7c0-.83-.67-1.5-1.5-1.5s-1.5,.67-1.5,1.5,.67,1.5,1.5,1.5,1.5-.67,1.5-1.5Zm0-17c0-.83-.67-1.5-1.5-1.5s-1.5,.67-1.5,1.5,.67,1.5,1.5,1.5,1.5-.67,1.5-1.5Z"/><path id="read-more" d="M9.14,10.57c0-.39,.32-.71,.71-.71h7.14c.39,0,.71,.32,.71,.71s-.32,.71-.71,.71h-7.14c-.39,0-.71-.32-.71-.71Zm.71,3.57h7.14c.39,0,.71-.32,.71-.71s-.32-.71-.71-.71h-7.14c-.39,0-.71,.32-.71,.71s.32,.71,.71,.71Zm12.14-7.86v10.71c0,1.18-.96,2.14-2.14,2.14H4.14c-1.18,0-2.14-.95-2.14-2.13V8.43c0-.39,.32-.71,.71-.71s.71,.32,.71,.71v8.57c0,.39,.32,.71,.71,.71s.71-.32,.71-.71V6.29c0-.79,.64-1.43,1.43-1.43h14.29c.79,0,1.43,.64,1.43,1.43Zm-1.43,0H6.29v10.71c0,.24-.04,.48-.12,.71h13.69c.39,0,.71-.32,.71-.71V6.29Z"/><path id="page" d="M20.24,7.61L14.85,2.22c-.14-.14-.34-.23-.54-.22H5.08c-.85,0-1.54,.69-1.54,1.54V20.46c0,.85,.69,1.54,1.54,1.54h13.85c.85,0,1.54-.69,1.54-1.54V8.15c0-.2-.08-.4-.22-.54Zm-5.16-2.98l2.76,2.76h-2.76v-2.76Zm3.85,15.84H5.08V3.54H13.54v4.62c0,.42,.34,.77,.77,.77h4.62v11.54Zm-3.08-7.69c0,.42-.34,.77-.77,.77h-6.15c-.42,0-.77-.34-.77-.77s.34-.77,.77-.77h6.15c.42,0,.77,.34,.77,.77Zm0,3.08c0,.42-.34,.77-.77,.77h-6.15c-.42,0-.77-.34-.77-.77s.34-.77,.77-.77h6.15c.42,0,.77,.34,.77,.77Z"/><path id="pin" d="M20.15,14.59h-.86l-1.96-11.11h.6c.41,0,.74-.33,.74-.74s-.33-.74-.74-.74H6.07c-.41,0-.74,.33-.74,.74s.33,.74,.74,.74h.6l-1.96,11.11h-.86c-.41,0-.74,.33-.74,.74s.33,.74,.74,.74h7.41v5.19c0,.41,.33,.74,.74,.74s.74-.33,.74-.74v-5.19h7.41c.41,0,.74-.33,.74-.74s-.33-.74-.74-.74ZM8.18,3.48h7.65l1.96,11.11H6.22l1.96-11.11Z"/><path id="reload" d="M2,12c0-3.82,3.1-6.92,6.92-6.92h10.45l-1-.99c-.3-.3-.3-.79,0-1.09s.79-.3,1.09,0l2.31,2.31c.3,.3,.3,.79,0,1.09,0,0,0,0,0,0l-2.31,2.31c-.3,.3-.79,.3-1.09,0-.3-.3-.3-.79,0-1.09l1-.99H8.92c-2.97,0-5.38,2.41-5.38,5.38,0,.42-.34,.77-.77,.77s-.77-.34-.77-.77Zm19.23-.77c-.42,0-.77,.34-.77,.77,0,2.97-2.41,5.38-5.38,5.38H4.63l1-.99c.3-.3,.3-.79,0-1.09-.3-.3-.79-.3-1.09,0l-2.31,2.31c-.3,.3-.3,.79,0,1.09,0,0,0,0,0,0l2.31,2.31c.3,.3,.79,.3,1.09,0,.3-.3,.3-.79,0-1.09l-1-.99H15.08c3.82,0,6.92-3.1,6.92-6.92,0-.42-.34-.77-.77-.77Z"/><path id="search" d="M21.77,20.69l-4.81-4.81c2.99-3.59,2.5-8.93-1.09-11.92C12.29,.97,6.95,1.46,3.96,5.05c-2.99,3.59-2.5,8.93,1.09,11.92,3.14,2.61,7.69,2.61,10.83,0l4.81,4.81c.3,.3,.79,.3,1.09,0s.3-.79,0-1.09ZM3.56,10.47c0-3.82,3.1-6.92,6.92-6.92s6.92,3.1,6.92,6.92-3.1,6.92-6.92,6.92c-3.82,0-6.91-3.1-6.92-6.92Z"/><path id="share" d="M21.77,9.47l-4.62,4.62c-.3,.3-.79,.3-1.09,0s-.3-.79,0-1.09l3.3-3.3h-3.82c-3.86,0-7.23,2.61-8.19,6.35-.11,.41-.53,.66-.94,.55s-.66-.53-.55-.94c1.14-4.42,5.12-7.5,9.69-7.5h3.82l-3.3-3.3c-.3-.3-.3-.79,0-1.09s.79-.3,1.09,0l4.62,4.62c.3,.3,.3,.79,0,1.09,0,0,0,0,0,0Zm-3.62,9.46H3.54V7.38c0-.42-.34-.77-.77-.77s-.77,.34-.77,.77v11.54c0,.85,.69,1.54,1.54,1.54h14.61c.42,0,.77-.34,.77-.77s-.34-.77-.77-.77Z"/><path id="sort-ascending" d="M11.17,11.17c0,.46-.37,.83-.83,.83H2.83c-.46,0-.83-.37-.83-.83s.37-.83,.83-.83h7.5c.46,0,.83,.37,.83,.83ZM2.83,5.33h14.17c.46,0,.83-.37,.83-.83s-.37-.83-.83-.83H2.83c-.46,0-.83,.37-.83,.83s.37,.83,.83,.83Zm5.83,11.67H2.83c-.46,0-.83,.37-.83,.83s.37,.83,.83,.83h5.83c.46,0,.83-.37,.83-.83s-.37-.83-.83-.83Zm13.09-2.26c-.33-.33-.85-.33-1.18,0h0s-2.74,2.75-2.74,2.75v-7.99c0-.46-.37-.83-.83-.83s-.83,.37-.83,.83v7.99l-2.74-2.74c-.33-.33-.85-.33-1.18,0s-.33,.85,0,1.18l4.17,4.17c.33,.33,.85,.33,1.18,0h0s4.17-4.17,4.17-4.17c.33-.33,.33-.85,0-1.18h0Z"/><path id="sort-descending" d="M2,12.83c0-.46,.37-.83,.83-.83h7.5c.46,0,.83,.37,.83,.83s-.37,.83-.83,.83H2.83c-.46,0-.83-.37-.83-.83Zm.83-5.83h5.83c.46,0,.83-.37,.83-.83s-.37-.83-.83-.83H2.83c-.46,0-.83,.37-.83,.83s.37,.83,.83,.83Zm14.17,11.67H2.83c-.46,0-.83,.37-.83,.83s.37,.83,.83,.83h14.17c.46,0,.83-.37,.83-.83s-.37-.83-.83-.83Zm4.76-10.59l-4.17-4.17c-.33-.33-.85-.33-1.18,0,0,0,0,0,0,0l-4.17,4.17c-.33,.33-.33,.85,0,1.18,.33,.33,.85,.33,1.18,0l2.74-2.74v7.99c0,.46,.37,.83,.83,.83s.83-.37,.83-.83V6.51l2.74,2.74c.33,.33,.85,.33,1.18,0,.33-.33,.33-.85,0-1.18Z"/><path id="star" d="M21.93,9.62c-.18-.54-.66-.93-1.23-.98l-5.3-.46-2.08-4.94c-.3-.73-1.14-1.07-1.86-.77-.35,.14-.62,.42-.77,.77l-2.07,4.94-5.31,.46c-.79,.07-1.37,.76-1.3,1.54,.03,.37,.21,.72,.49,.96l4.03,3.52-1.21,5.23c-.18,.77,.3,1.54,1.07,1.72,.36,.08,.74,.02,1.06-.17l4.55-2.77,4.56,2.77c.68,.41,1.55,.19,1.96-.49,.19-.32,.25-.7,.17-1.06l-1.21-5.23,4.03-3.51c.44-.38,.6-.98,.42-1.53Zm-1.36,.45l-4.03,3.51c-.4,.35-.57,.89-.45,1.4l1.21,5.23-4.56-2.77c-.45-.28-1.02-.28-1.48,0l-4.55,2.77,1.2-5.23c.12-.52-.05-1.06-.45-1.4l-4.03-3.51s0,0,0,0l5.31-.46c.53-.05,.99-.38,1.19-.87l2.07-4.94,2.07,4.94c.2,.49,.66,.82,1.19,.87l5.31,.46h0s0,0,0,0Z"/><path id="translate" d="M21.92,19.89l-5-10c-.18-.35-.61-.5-.96-.32-.14,.07-.25,.18-.32,.32l-1.94,3.88c-1.52-.09-2.98-.61-4.21-1.51,1.44-1.54,2.31-3.52,2.47-5.62h2.17c.39,0,.71-.32,.71-.71s-.32-.71-.71-.71h-5v-1.43c0-.39-.32-.71-.71-.71s-.71,.32-.71,.71v1.43H2.71c-.39,0-.71,.32-.71,.71s.32,.71,.71,.71h7.82c-.16,1.75-.9,3.4-2.11,4.67-.75-.79-1.33-1.74-1.7-2.77-.13-.37-.53-.58-.9-.45-.37,.13-.58,.53-.45,.9,0,0,0,.02,0,.02,.43,1.21,1.1,2.31,1.97,3.24-1.35,.99-2.97,1.52-4.64,1.52-.39,0-.71,.32-.71,.71s.32,.71,.71,.71c2.07,0,4.08-.69,5.71-1.97,1.33,1.04,2.92,1.7,4.59,1.9l-2.38,4.75c-.18,.35-.03,.78,.32,.96,.35,.18,.78,.03,.96-.32l1.23-2.46h6.26l1.23,2.46c.12,.24,.37,.39,.64,.39,.39,0,.71-.32,.71-.71,0-.11-.03-.22-.08-.32Zm-8.05-3.25l2.42-4.83,2.42,4.83h-4.83Z"/><path id="verified" d="M20.74,9.75c-.34-.35-.68-.71-.82-1.03-.12-.29-.13-.78-.14-1.24-.01-.87-.03-1.86-.71-2.55s-1.67-.7-2.55-.71c-.47,0-.95-.01-1.24-.14-.32-.13-.68-.48-1.03-.82-.62-.59-1.32-1.26-2.25-1.26s-1.63,.67-2.25,1.26c-.35,.34-.71,.68-1.03,.82-.29,.12-.78,.13-1.24,.14-.87,.01-1.86,.03-2.55,.71s-.7,1.67-.71,2.55c0,.47-.01,.95-.14,1.24-.13,.32-.48,.68-.82,1.03-.59,.62-1.26,1.32-1.26,2.25s.67,1.63,1.26,2.25c.34,.35,.68,.71,.82,1.03,.12,.29,.13,.78,.14,1.24,.01,.87,.03,1.86,.71,2.55s1.67,.7,2.55,.71c.47,0,.95,.01,1.24,.14,.32,.13,.68,.48,1.03,.82,.62,.59,1.32,1.26,2.25,1.26s1.63-.67,2.25-1.26c.35-.34,.71-.68,1.03-.82,.29-.12,.78-.13,1.24-.14,.87-.01,1.86-.03,2.55-.71s.7-1.67,.71-2.55c0-.47,.01-.95,.14-1.24,.13-.32,.48-.68,.82-1.03,.59-.62,1.26-1.32,1.26-2.25s-.67-1.63-1.26-2.25Zm-1.03,3.51c-.43,.45-.87,.91-1.11,1.48-.23,.54-.23,1.17-.24,1.77,0,.62-.02,1.28-.3,1.56s-.93,.29-1.56,.3c-.6,0-1.23,.02-1.77,.24-.57,.23-1.03,.68-1.48,1.11s-.9,.87-1.26,.87-.82-.44-1.26-.87-.91-.87-1.48-1.11c-.54-.23-1.17-.23-1.77-.24-.62,0-1.28-.02-1.56-.3s-.29-.93-.3-1.56c0-.6-.02-1.23-.24-1.77-.23-.57-.68-1.03-1.11-1.48s-.87-.9-.87-1.26,.44-.82,.87-1.26,.87-.91,1.11-1.48c.23-.54,.23-1.17,.24-1.77,0-.62,.02-1.28,.3-1.56s.93-.29,1.56-.3c.6,0,1.23-.02,1.77-.24,.57-.23,1.03-.68,1.47-1.11s.9-.87,1.26-.87,.82,.44,1.26,.87,.91,.87,1.48,1.11c.54,.23,1.17,.23,1.77,.24,.62,0,1.28,.02,1.56,.3s.29,.93,.3,1.56c0,.6,.02,1.23,.24,1.77,.23,.57,.68,1.03,1.11,1.47s.87,.9,.87,1.26-.44,.82-.87,1.26Zm-3.63-3.91c.28,.28,.28,.73,0,1.01,0,0,0,0,0,0l-5,5c-.28,.28-.73,.28-1.01,0,0,0,0,0,0,0l-2.14-2.14c-.28-.28-.28-.73,0-1.01,.28-.28,.73-.28,1.01,0l1.64,1.64,4.49-4.5c.28-.28,.73-.28,1.01,0,0,0,0,0,0,0Z"/><path id="zip" d="M17.83,14.5h-1.67c-.46,0-.83,.37-.83,.83v5.83c0,.46,.37,.83,.83,.83s.83-.37,.83-.83v-.83h.83c1.61,0,2.92-1.31,2.92-2.92s-1.31-2.92-2.92-2.92Zm0,4.17h-.83v-2.5h.83c.69,0,1.25,.56,1.25,1.25s-.56,1.25-1.25,1.25Zm-5-3.33v5.83c0,.46-.37,.83-.83,.83s-.83-.37-.83-.83v-5.83c0-.46,.37-.83,.83-.83s.83,.37,.83,.83Zm-4.17,5.83c0,.46-.37,.83-.83,.83h-3.33c-.46,0-.84-.37-.84-.83,0-.15,.04-.3,.11-.42l2.62-4.58h-1.89c-.46,0-.83-.37-.83-.83s.37-.83,.83-.83h3.33c.46,0,.84,.37,.84,.83,0,.15-.04,.3-.11,.42l-2.63,4.58h1.9c.46,0,.83,.37,.83,.83Zm12.26-13.09L15.09,2.24c-.16-.16-.37-.24-.59-.24H4.5c-.92,0-1.67,.75-1.67,1.67v7.5c0,.46,.37,.83,.83,.83s.83-.37,.83-.83V3.67H13.67v5c0,.46,.37,.83,.83,.83h5v1.67c0,.46,.37,.83,.83,.83s.83-.37,.83-.83v-2.5c0-.22-.09-.43-.24-.59Zm-5.59-.24v-2.99l2.99,2.99h-2.99Z"/><path id="lock" d="M19.41,8.67h-2.96v-2.22c0-2.45-1.99-4.44-4.44-4.44s-4.44,1.99-4.44,4.44v2.22h-2.96c-.82,0-1.48,.66-1.48,1.48v10.37c0,.82,.66,1.48,1.48,1.48h14.81c.82,0,1.48-.66,1.48-1.48V10.15c0-.82-.66-1.48-1.48-1.48Zm-10.37-2.22c0-1.64,1.33-2.96,2.96-2.96s2.96,1.33,2.96,2.96v2.22h-5.93v-2.22Zm10.37,14.07H4.59V10.15h14.81v10.37Zm-6.3-5.19c0,.61-.5,1.11-1.11,1.11s-1.11-.5-1.11-1.11,.5-1.11,1.11-1.11,1.11,.5,1.11,1.11Z"/><path id="settings" d="M12,7.41c-2.53,0-4.59,2.05-4.59,4.59s2.05,4.59,4.59,4.59,4.59-2.05,4.59-4.59c0-2.53-2.05-4.58-4.59-4.59Zm0,7.64c-1.69,0-3.06-1.37-3.06-3.06s1.37-3.06,3.06-3.06,3.06,1.37,3.06,3.06-1.37,3.06-3.06,3.06Zm8.41-2.85c0-.14,0-.28,0-.41l1.43-1.78c.15-.19,.2-.44,.14-.67-.23-.88-.58-1.72-1.04-2.51-.12-.21-.33-.35-.57-.38l-2.27-.25c-.09-.1-.19-.19-.29-.29l-.27-2.27c-.03-.24-.17-.45-.38-.57-.79-.46-1.63-.8-2.51-1.04-.23-.06-.49,0-.67,.14l-1.78,1.42h-.41l-1.78-1.42c-.19-.15-.44-.2-.67-.14-.88,.23-1.72,.58-2.51,1.04-.21,.12-.35,.33-.38,.57l-.25,2.27c-.1,.09-.19,.19-.29,.29l-2.27,.26c-.24,.03-.45,.17-.57,.38-.46,.79-.8,1.63-1.04,2.51-.06,.23,0,.49,.14,.67l1.42,1.78v.41l-1.42,1.78c-.15,.19-.2,.44-.14,.67,.23,.88,.58,1.72,1.04,2.51,.12,.21,.33,.35,.57,.38l2.27,.25c.09,.1,.19,.19,.29,.29l.26,2.27c.03,.24,.17,.45,.38,.57,.79,.46,1.63,.8,2.51,1.04,.23,.06,.49,0,.67-.14l1.78-1.42c.14,0,.28,0,.41,0l1.78,1.43c.19,.15,.44,.2,.67,.14,.88-.23,1.72-.58,2.51-1.04,.21-.12,.35-.33,.38-.57l.25-2.27c.1-.09,.19-.19,.29-.29l2.27-.27c.24-.03,.45-.17,.57-.38,.46-.79,.8-1.63,1.04-2.51,.06-.23,0-.49-.14-.67l-1.42-1.78Zm-1.54-.62c.02,.28,.02,.55,0,.83-.01,.19,.05,.38,.17,.52l1.36,1.69c-.16,.49-.35,.97-.6,1.43l-2.16,.24c-.19,.02-.36,.11-.49,.25-.18,.21-.38,.4-.59,.59-.14,.13-.23,.3-.25,.49l-.24,2.16c-.46,.24-.94,.44-1.43,.6l-1.7-1.36c-.14-.11-.3-.17-.48-.17h-.05c-.28,.02-.55,.02-.83,0-.19-.01-.38,.05-.52,.17l-1.7,1.36c-.49-.16-.97-.35-1.43-.6l-.24-2.16c-.02-.19-.11-.36-.25-.49-.21-.18-.4-.38-.59-.59-.13-.14-.3-.23-.49-.25l-2.16-.24c-.24-.46-.44-.94-.6-1.43l1.36-1.7c.12-.15,.18-.33,.17-.52-.02-.28-.02-.55,0-.83,.01-.19-.05-.38-.17-.52l-1.36-1.7c.16-.49,.35-.97,.6-1.43l2.16-.24c.19-.02,.36-.11,.49-.25,.18-.21,.38-.4,.59-.59,.14-.13,.23-.3,.25-.49l.24-2.16c.46-.24,.94-.44,1.43-.6l1.7,1.36c.15,.12,.33,.18,.52,.17,.28-.02,.55-.02,.83,0,.19,.01,.38-.05,.52-.17l1.7-1.36c.49,.16,.97,.35,1.43,.6l.24,2.16c.02,.19,.11,.36,.25,.49,.21,.18,.4,.38,.59,.59,.13,.14,.3,.23,.49,.25l2.16,.24c.24,.46,.44,.94,.6,1.43l-1.36,1.7c-.12,.15-.18,.34-.17,.53h0Z"/><path id="bookmark-add" d="M17.6,2H6.4c-.88,0-1.6,.72-1.6,1.6V21.2c0,.44,.36,.8,.8,.8,.15,0,.3-.04,.42-.12l5.98-3.74,5.98,3.74c.38,.23,.87,.12,1.1-.26,.08-.13,.12-.27,.12-.42V3.6c0-.88-.72-1.6-1.6-1.6Zm0,17.76l-5.18-3.24c-.26-.16-.59-.16-.85,0l-5.18,3.24V3.6h11.2V19.76Z"/><path id="bookmark" d="M17.6,2H6.4c-.88,0-1.6,.72-1.6,1.6V21.2c0,.44,.36,.8,.8,.8,.15,0,.3-.04,.42-.12l5.98-3.74,5.98,3.74c.38,.23,.87,.12,1.1-.26,.08-.13,.12-.27,.12-.42V3.6c0-.88-.72-1.6-1.6-1.6Z"/></svg>