<?xml version="1.0" encoding="UTF-8"?><svg id="phosphor-regular" xmlns="http://www.w3.org/2000/svg" viewBox="0 0 24 24"><path id="archive" d="M20.6,4.9H3.4c-.8,0-1.4,.6-1.4,1.4v2.1c0,.8,.6,1.4,1.4,1.4v7.9c0,.8,.6,1.4,1.4,1.4h14.3c.8,0,1.4-.6,1.4-1.4v-7.9c.8,0,1.4-.6,1.4-1.4v-2.1c0-.8-.6-1.4-1.4-1.4Zm-1.4,12.9H4.9v-7.9h14.3v7.9Zm1.4-9.3H3.4v-2.1H20.6v2.1Zm-11.4,4.3c0-.4,.3-.7,.7-.7h4.3c.4,0,.7,.3,.7,.7s-.3,.7-.7,.7h-4.3c-.4,0-.7-.3-.7-.7Z"/><path id="arrow-right" d="M21.8,12.6l-7.5,7.5c-.3,.3-.9,.3-1.2,0s-.3-.9,0-1.2h0l6.1-6.1H2.8c-.5,0-.8-.4-.8-.8s.4-.8,.8-.8H19.2l-6.1-6.1c-.3-.3-.3-.9,0-1.2s.9-.3,1.2,0l7.5,7.5c.3,.3,.3,.9,0,1.2h0Z"/><path id="arrow-left" d="M2.2,11.4L9.7,3.9c.3-.3,.9-.3,1.2,0s.3,.9,0,1.2h0l-6.1,6.1H21.2c.5,0,.8,.4,.8,.8s-.4,.8-.8,.8H4.8l6.1,6.1c.3,.3,.3,.9,0,1.2s-.9,.3-1.2,0L2.2,12.6c-.3-.3-.3-.9,0-1.2h0Z"/><path id="arrow-top" d="M12.6,2.2l7.5,7.5c.3,.3,.3,.9,0,1.2s-.9,.3-1.2,0h0l-6.1-6.1V21.2c0,.5-.4,.8-.8,.8s-.8-.4-.8-.8V4.8l-6.1,6.1c-.3,.3-.9,.3-1.2,0s-.3-.9,0-1.2L11.4,2.2c.3-.3,.9-.3,1.2,0h0Z"/><path id="check" d="M21.8,6.2l-12.8,12.8c-.3,.3-.8,.3-1.1,0,0,0,0,0,0,0L2.2,13.4c-.3-.3-.3-.8,0-1.1s.8-.3,1.1,0l5,5L20.6,5c.3-.3,.8-.3,1.1,0,.3,.3,.3,.8,0,1.1h0Z"/><path id="close" d="M21.7,20.3c.4,.4,.4,1,0,1.4s-1,.4-1.4,0h0L12,13.4,3.7,21.7c-.4,.4-1,.4-1.4,0s-.4-1,0-1.4L10.6,12,2.3,3.7c-.4-.4-.4-1,0-1.4s1-.4,1.4,0h0L12,10.6,20.3,2.3c.4-.4,1-.4,1.4,0s.4,1,0,1.4h0L13.4,12l8.3,8.3Z"/><path id="clear" d="M20.6,4.1H7.4c-.5,0-1,.3-1.2,.7L2.1,11.6c-.1,.2-.1,.5,0,.7l4.1,6.8c.3,.4,.7,.7,1.2,.7h13.2c.8,0,1.4-.6,1.4-1.4V5.6c0-.8-.6-1.4-1.4-1.4ZM6.8,18.8l.6-.4-.6,.4Zm13.8-.4H7.4l-3.9-6.4,3.9-6.4h13.2v12.9Zm-9.8-4.8l1.6-1.6-1.6-1.6c-.3-.3-.3-.7,0-1s.7-.3,1,0l1.6,1.6,1.6-1.6c.3-.3,.7-.3,1,0,.3,.3,.3,.7,0,1l-1.6,1.6,1.6,1.6c.3,.3,.3,.7,0,1s-.7,.3-1,0l-1.6-1.6-1.6,1.6c-.3,.3-.7,.3-1,0-.3-.3-.3-.7,0-1Z"/><path id="comment" d="M10.8,10.5c0-.6,.5-1.2,1.2-1.2s1.2,.5,1.2,1.2-.5,1.2-1.2,1.2-1.2-.5-1.2-1.2Zm5.4,1.2c.6,0,1.2-.5,1.2-1.2s-.5-1.2-1.2-1.2-1.2,.5-1.2,1.2,.5,1.2,1.2,1.2Zm5.8-7.3v12.3c0,.8-.7,1.5-1.5,1.5h-5.7l-1.4,2.3c-.4,.7-1.4,1-2.1,.5-.2-.1-.4-.3-.5-.5l-1.4-2.3H3.5c-.8,0-1.5-.7-1.5-1.5V4.3c0-.8,.7-1.5,1.5-1.5H20.5c.8,0,1.5,.7,1.5,1.5Zm-1.5,0H3.5v12.3h5.7c.5,0,1,.3,1.3,.7l1.4,2.3,1.4-2.3c.3-.5,.8-.7,1.3-.7h5.7V4.3ZM7.8,11.6c.6,0,1.2-.5,1.2-1.2s-.5-1.2-1.2-1.2-1.2,.5-1.2,1.2,.5,1.2,1.2,1.2Z"/><path id="comment-text" d="M8.2,8.9c0-.4,.3-.8,.8-.8h6.2c.4,0,.8,.3,.8,.8s-.3,.8-.8,.8h-6.2c-.4,0-.8-.3-.8-.8Zm.8,3.8h6.2c.4,0,.8-.3,.8-.8s-.3-.8-.8-.8h-6.2c-.4,0-.8,.3-.8,.8s.3,.8,.8,.8ZM22,4.3v12.3c0,.8-.7,1.5-1.5,1.5h-5.7l-1.4,2.3c-.4,.7-1.4,1-2.1,.5-.2-.1-.4-.3-.5-.5l-1.4-2.3H3.5c-.8,0-1.5-.7-1.5-1.5V4.3c0-.8,.7-1.5,1.5-1.5H20.5c.8,0,1.5,.7,1.5,1.5Zm-1.5,0H3.5v12.3h5.7c.5,0,1,.3,1.3,.7l1.4,2.3,1.4-2.3c.3-.5,.8-.7,1.3-.7h5.7V4.3Z"/><path id="copy" d="M21.2,2H7.8c-.5,0-.8,.4-.8,.8V7H2.8c-.5,0-.8,.4-.8,.8v13.3c0,.5,.4,.8,.8,.8h13.3c.5,0,.8-.4,.8-.8v-4.2h4.2c.5,0,.8-.4,.8-.8V2.8c0-.5-.4-.8-.8-.8Zm-5.8,18.3H3.7V8.7H15.3v11.7Zm5-5h-3.3V7.8c0-.5-.4-.8-.8-.8h-7.5V3.7h11.7V15.3Z"/><path id="dark" d="M22,9.3c0,.4-.3,.8-.8,.8h-1.5v1.5c0,.4-.3,.8-.8,.8s-.8-.3-.8-.8v-1.5h-1.5c-.4,0-.8-.3-.8-.8s.3-.8,.8-.8h1.5v-1.5c0-.4,.3-.8,.8-.8s.8,.3,.8,.8v1.5h1.5c.4,0,.8,.3,.8,.8Zm-9.2-3.8h.8v.8c0,.4,.3,.8,.8,.8s.8-.3,.8-.8v-.8h.8c.4,0,.8-.3,.8-.8s-.3-.8-.8-.8h-.8v-.8c0-.4-.3-.8-.8-.8s-.8,.3-.8,.8v.8h-.8c-.4,0-.8,.3-.8,.8s.3,.8,.8,.8Zm7,9.3c.2,.2,.2,.5,.1,.8-1.8,4.8-7.1,7.2-11.8,5.5C3.3,19.3,.8,14,2.6,9.2c.9-2.5,2.9-4.6,5.5-5.5,.4-.1,.8,0,1,.5,0,.1,0,.3,0,.4-.9,4.6,2.1,9,6.7,10,1.1,.2,2.2,.2,3.3,0,.3,0,.6,0,.7,.3Zm-1.9,1.4c-.2,0-.3,0-.5,0-5.5,0-10-4.5-10-10,0-.2,0-.3,0-.5-3.7,2.1-5,6.8-2.8,10.5s6.8,5,10.5,2.8c1.2-.7,2.2-1.7,2.8-2.8h0Z"/><path id="download" d="M22,14.5v5.8c0,.9-.7,1.7-1.7,1.7H3.7c-.9,0-1.7-.7-1.7-1.7v-5.8c0-.5,.4-.8,.8-.8s.8,.4,.8,.8v5.8H20.3v-5.8c0-.5,.4-.8,.8-.8s.8,.4,.8,.8Zm-10.6,.6c.3,.3,.9,.3,1.2,0h0s4.2-4.2,4.2-4.2c.3-.3,.3-.9,0-1.2-.3-.3-.9-.3-1.2,0l-2.7,2.7V2.8c0-.5-.4-.8-.8-.8s-.8,.4-.8,.8V12.5l-2.7-2.7c-.3-.3-.9-.3-1.2,0s-.3,.9,0,1.2l4.2,4.2Z"/><path id="home" d="M21.1,10L13.1,2.4s0,0,0,0c-.6-.6-1.5-.6-2.2,0h0S2.9,10,2.9,10c-.3,.3-.5,.7-.5,1.2v9.2c0,.9,.7,1.6,1.6,1.6h4.8c.9,0,1.6-.7,1.6-1.6v-4.8h3.2v4.8c0,.9,.7,1.6,1.6,1.6h4.8c.9,0,1.6-.7,1.6-1.6V11.2c0-.4-.2-.9-.5-1.2Zm-1.1,10.4h-4.8v-4.8c0-.9-.7-1.6-1.6-1.6h-3.2c-.9,0-1.6,.7-1.6,1.6v4.8H4V11.2h0S12,3.6,12,3.6l8,7.5h0s0,9.3,0,9.3Z"/><path id="label" d="M21.2,8.1h-4.7l.8-4.5c0-.4-.2-.8-.6-.9-.4,0-.8,.2-.9,.6l-.9,4.8h-4.6l.8-4.5c0-.4-.2-.8-.6-.9-.4,0-.8,.2-.9,.6l-.9,4.8H4.3c-.4,0-.8,.3-.8,.8s.3,.8,.8,.8h4.3l-.8,4.6H2.8c-.4,0-.8,.3-.8,.8s.3,.8,.8,.8H7.4l-.8,4.5c0,.4,.2,.8,.6,.9,0,0,0,0,.1,0,.4,0,.7-.3,.8-.6l.9-4.8h4.6l-.8,4.5c0,.4,.2,.8,.6,.9,0,0,0,0,.1,0,.4,0,.7-.3,.8-.6l.9-4.8h4.5c.4,0,.8-.3,.8-.8s-.3-.8-.8-.8h-4.3l.8-4.6h5c.4,0,.8-.3,.8-.8s-.3-.8-.8-.8Zm-7.4,6.2h-4.6l.8-4.6h4.6l-.8,4.6Z"/><path id="light" d="M11.3,4.7V2.7c0-.4,.3-.7,.7-.7s.7,.3,.7,.7v2c0,.4-.3,.7-.7,.7s-.7-.3-.7-.7Zm6,7.3c0,2.9-2.4,5.3-5.3,5.3s-5.3-2.4-5.3-5.3,2.4-5.3,5.3-5.3c2.9,0,5.3,2.4,5.3,5.3Zm-1.3,0c0-2.2-1.8-4-4-4s-4,1.8-4,4,1.8,4,4,4c2.2,0,4-1.8,4-4ZM6.2,7.1c.3,.3,.7,.3,.9,0s.3-.7,0-.9l-1.3-1.3c-.3-.3-.7-.3-.9,0s-.3,.7,0,.9l1.3,1.3Zm0,9.7l-1.3,1.3c-.3,.3-.3,.7,0,.9s.7,.3,.9,0l1.3-1.3c.3-.3,.3-.7,0-.9-.3-.3-.7-.3-.9,0ZM17.3,7.3c.2,0,.3,0,.5-.2l1.3-1.3c.3-.3,.3-.7,0-.9s-.7-.3-.9,0l-1.3,1.3c-.3,.3-.3,.7,0,.9,.1,.1,.3,.2,.5,.2Zm.5,9.5c-.3-.3-.7-.3-.9,0s-.3,.7,0,.9l1.3,1.3c.3,.3,.7,.3,.9,0s.3-.7,0-.9l-1.3-1.3ZM5.3,12c0-.4-.3-.7-.7-.7H2.7c-.4,0-.7,.3-.7,.7s.3,.7,.7,.7h2c.4,0,.7-.3,.7-.7Zm6.7,6.7c-.4,0-.7,.3-.7,.7v2c0,.4,.3,.7,.7,.7s.7-.3,.7-.7v-2c0-.4-.3-.7-.7-.7Zm9.3-7.3h-2c-.4,0-.7,.3-.7,.7s.3,.7,.7,.7h2c.4,0,.7-.3,.7-.7s-.3-.7-.7-.7Z"/><path id="link" d="M13,18.1c.3,.3,.3,.9,0,1.2l-1,1c-2.3,2.3-6,2.3-8.3,0-2.3-2.3-2.3-6,0-8.3l2.5-2.5c2.2-2.2,5.7-2.3,8-.2,.3,.3,.4,.8,0,1.2-.3,.3-.8,.4-1.2,0-1.6-1.5-4.2-1.4-5.7,.2l-2.5,2.5c-1.6,1.6-1.6,4.3,0,5.9,1.6,1.6,4.3,1.6,5.9,0l1-1c.3-.3,.9-.3,1.2,0,0,0,0,0,0,0ZM20.3,3.7c-2.3-2.3-6-2.3-8.2,0l-1,1c-.3,.3-.3,.9,0,1.2,.3,.3,.9,.3,1.2,0l1-1c1.6-1.6,4.3-1.6,5.9,0s1.6,4.3,0,5.9l-2.5,2.5c-1.6,1.6-4.1,1.6-5.7,.2-.3-.3-.9-.3-1.2,0-.3,.3-.3,.9,0,1.2,2.3,2.1,5.8,1.9,8-.2l2.5-2.5c2.3-2.3,2.3-6,0-8.3h0Z"/><path id="link-open" d="M20.3,2H3.7c-.9,0-1.7,.7-1.7,1.7V20.3c0,.9,.7,1.7,1.7,1.7H20.3c.9,0,1.7-.7,1.7-1.7V3.7c0-.9-.7-1.7-1.7-1.7Zm0,18.3H3.7V3.7H20.3V20.3Zm-12.3-4.4c-.3-.3-.3-.9,0-1.2,0,0,0,0,0,0l5.2-5.2h-3c-.5,0-.8-.4-.8-.8s.4-.8,.8-.8h5c.5,0,.8,.4,.8,.8v5c0,.5-.4,.8-.8,.8s-.8-.4-.8-.8v-3l-5.2,5.2c-.3,.3-.9,.3-1.2,0,0,0,0,0,0,0Z"/><path id="list" d="M22,12.4c0,.5-.4,.8-.8,.8H9.5c-.5,0-.8-.4-.8-.8s.4-.8,.8-.8h11.7c.5,0,.8,.4,.8,.8ZM9.5,6.6h11.7c.5,0,.8-.4,.8-.8s-.4-.8-.8-.8H9.5c-.5,0-.8,.4-.8,.8s.4,.8,.8,.8Zm11.7,11.7H9.5c-.5,0-.8,.4-.8,.8s.4,.8,.8,.8h11.7c.5,0,.8-.4,.8-.8s-.4-.8-.8-.8ZM3.2,4.8l.5-.2v5.3c0,.5,.4,.8,.8,.8s.8-.4,.8-.8V3.3c0-.5-.4-.8-.8-.8-.1,0-.3,0-.4,0l-1.7,.8c-.4,.2-.6,.7-.4,1.1,.2,.4,.7,.6,1.1,.4Zm3.8,10.6c0-.7-.5-1.3-1-1.7-1.1-.8-2.7-.6-3.5,.5-.2,.2-.3,.4-.4,.7-.2,.4,0,.9,.4,1.1,.4,.2,.9,0,1.1-.4,0,0,0,0,0-.1,0,0,0-.2,.1-.2,.3-.4,.9-.5,1.2-.2,.2,.1,.3,.3,.3,.6,0,.2,0,.4-.2,.6,0,0,0,0,0,0l-3,4c-.3,.4-.2,.9,.2,1.2,.1,.1,.3,.2,.5,.2h3.3c.5,0,.8-.4,.8-.8s-.4-.8-.8-.8h-1.7l2-2.7c.4-.5,.6-1.2,.5-1.8Z"/><path id="menu" d="M22,12c0,.5-.4,.8-.8,.8H2.8c-.5,0-.8-.4-.8-.8s.4-.8,.8-.8H21.2c.5,0,.8,.4,.8,.8ZM2.8,6.2H21.2c.5,0,.8-.4,.8-.8s-.4-.8-.8-.8H2.8c-.5,0-.8,.4-.8,.8s.4,.8,.8,.8Zm18.3,11.7H2.8c-.5,0-.8,.4-.8,.8s.4,.8,.8,.8H21.2c.5,0,.8-.4,.8-.8s-.4-.8-.8-.8Z"/><path id="menu-more" d="M5,3.5c0,.8-.7,1.5-1.5,1.5s-1.5-.7-1.5-1.5,.7-1.5,1.5-1.5,1.5,.7,1.5,1.5Zm7-1.5c-.8,0-1.5,.7-1.5,1.5s.7,1.5,1.5,1.5,1.5-.7,1.5-1.5-.7-1.5-1.5-1.5Zm8.5,3c.8,0,1.5-.7,1.5-1.5s-.7-1.5-1.5-1.5-1.5,.7-1.5,1.5,.7,1.5,1.5,1.5ZM3.5,10.5c-.8,0-1.5,.7-1.5,1.5s.7,1.5,1.5,1.5,1.5-.7,1.5-1.5-.7-1.5-1.5-1.5Zm8.5,0c-.8,0-1.5,.7-1.5,1.5s.7,1.5,1.5,1.5,1.5-.7,1.5-1.5-.7-1.5-1.5-1.5Zm8.5,0c-.8,0-1.5,.7-1.5,1.5s.7,1.5,1.5,1.5,1.5-.7,1.5-1.5-.7-1.5-1.5-1.5ZM3.5,19c-.8,0-1.5,.7-1.5,1.5s.7,1.5,1.5,1.5,1.5-.7,1.5-1.5-.7-1.5-1.5-1.5Zm8.5,0c-.8,0-1.5,.7-1.5,1.5s.7,1.5,1.5,1.5,1.5-.7,1.5-1.5-.7-1.5-1.5-1.5Zm8.5,0c-.8,0-1.5,.7-1.5,1.5s.7,1.5,1.5,1.5,1.5-.7,1.5-1.5-.7-1.5-1.5-1.5Z"/><path id="more" d="M13.5,12c0,.8-.7,1.5-1.5,1.5s-1.5-.7-1.5-1.5,.7-1.5,1.5-1.5,1.5,.7,1.5,1.5Zm7-1.5c-.8,0-1.5,.7-1.5,1.5s.7,1.5,1.5,1.5,1.5-.7,1.5-1.5-.7-1.5-1.5-1.5Zm-17,0c-.8,0-1.5,.7-1.5,1.5s.7,1.5,1.5,1.5,1.5-.7,1.5-1.5-.7-1.5-1.5-1.5Z"/><path id="more-vertical" d="M12,13.5c-.8,0-1.5-.7-1.5-1.5s.7-1.5,1.5-1.5,1.5,.7,1.5,1.5-.7,1.5-1.5,1.5Zm1.5,7c0-.8-.7-1.5-1.5-1.5s-1.5,.7-1.5,1.5,.7,1.5,1.5,1.5,1.5-.7,1.5-1.5Zm0-17c0-.8-.7-1.5-1.5-1.5s-1.5,.7-1.5,1.5,.7,1.5,1.5,1.5,1.5-.7,1.5-1.5Z"/><path id="read-more" d="M9.1,10.6c0-.4,.3-.7,.7-.7h7.1c.4,0,.7,.3,.7,.7s-.3,.7-.7,.7h-7.1c-.4,0-.7-.3-.7-.7Zm.7,3.6h7.1c.4,0,.7-.3,.7-.7s-.3-.7-.7-.7h-7.1c-.4,0-.7,.3-.7,.7s.3,.7,.7,.7Zm12.1-7.9v10.7c0,1.2-1,2.1-2.1,2.1H4.1c-1.2,0-2.1-1-2.1-2.1V8.4c0-.4,.3-.7,.7-.7s.7,.3,.7,.7v8.6c0,.4,.3,.7,.7,.7s.7-.3,.7-.7V6.3c0-.8,.6-1.4,1.4-1.4h14.3c.8,0,1.4,.6,1.4,1.4Zm-1.4,0H6.3v10.7c0,.2,0,.5-.1,.7h13.7c.4,0,.7-.3,.7-.7V6.3Z"/><path id="page" d="M20.2,7.6L14.9,2.2c-.1-.1-.3-.2-.5-.2H5.1c-.8,0-1.5,.7-1.5,1.5V20.5c0,.8,.7,1.5,1.5,1.5h13.8c.8,0,1.5-.7,1.5-1.5V8.2c0-.2,0-.4-.2-.5Zm-5.2-3l2.8,2.8h-2.8v-2.8Zm3.8,15.8H5.1V3.5H13.5v4.6c0,.4,.3,.8,.8,.8h4.6v11.5Zm-3.1-7.7c0,.4-.3,.8-.8,.8h-6.2c-.4,0-.8-.3-.8-.8s.3-.8,.8-.8h6.2c.4,0,.8,.3,.8,.8Zm0,3.1c0,.4-.3,.8-.8,.8h-6.2c-.4,0-.8-.3-.8-.8s.3-.8,.8-.8h6.2c.4,0,.8,.3,.8,.8Z"/><path id="pin" d="M20.1,14.6h-.9l-2-11.1h.6c.4,0,.7-.3,.7-.7s-.3-.7-.7-.7H6.1c-.4,0-.7,.3-.7,.7s.3,.7,.7,.7h.6l-2,11.1h-.9c-.4,0-.7,.3-.7,.7s.3,.7,.7,.7h7.4v5.2c0,.4,.3,.7,.7,.7s.7-.3,.7-.7v-5.2h7.4c.4,0,.7-.3,.7-.7s-.3-.7-.7-.7ZM8.2,3.5h7.6l2,11.1H6.2l2-11.1Z"/><path id="reload" d="M2,12c0-3.8,3.1-6.9,6.9-6.9h10.5l-1-1c-.3-.3-.3-.8,0-1.1s.8-.3,1.1,0l2.3,2.3c.3,.3,.3,.8,0,1.1,0,0,0,0,0,0l-2.3,2.3c-.3,.3-.8,.3-1.1,0-.3-.3-.3-.8,0-1.1l1-1H8.9c-3,0-5.4,2.4-5.4,5.4,0,.4-.3,.8-.8,.8s-.8-.3-.8-.8Zm19.2-.8c-.4,0-.8,.3-.8,.8,0,3-2.4,5.4-5.4,5.4H4.6l1-1c.3-.3,.3-.8,0-1.1-.3-.3-.8-.3-1.1,0l-2.3,2.3c-.3,.3-.3,.8,0,1.1,0,0,0,0,0,0l2.3,2.3c.3,.3,.8,.3,1.1,0,.3-.3,.3-.8,0-1.1l-1-1H15.1c3.8,0,6.9-3.1,6.9-6.9,0-.4-.3-.8-.8-.8Z"/><path id="search" d="M21.8,20.7l-4.8-4.8c3-3.6,2.5-8.9-1.1-11.9C12.3,1,7,1.5,4,5c-3,3.6-2.5,8.9,1.1,11.9,3.1,2.6,7.7,2.6,10.8,0l4.8,4.8c.3,.3,.8,.3,1.1,0s.3-.8,0-1.1ZM3.6,10.5c0-3.8,3.1-6.9,6.9-6.9s6.9,3.1,6.9,6.9-3.1,6.9-6.9,6.9c-3.8,0-6.9-3.1-6.9-6.9Z"/><path id="share" d="M21.8,9.5l-4.6,4.6c-.3,.3-.8,.3-1.1,0s-.3-.8,0-1.1l3.3-3.3h-3.8c-3.9,0-7.2,2.6-8.2,6.3-.1,.4-.5,.7-.9,.6s-.7-.5-.6-.9c1.1-4.4,5.1-7.5,9.7-7.5h3.8l-3.3-3.3c-.3-.3-.3-.8,0-1.1s.8-.3,1.1,0l4.6,4.6c.3,.3,.3,.8,0,1.1,0,0,0,0,0,0Zm-3.6,9.5H3.5V7.4c0-.4-.3-.8-.8-.8s-.8,.3-.8,.8v11.5c0,.8,.7,1.5,1.5,1.5h14.6c.4,0,.8-.3,.8-.8s-.3-.8-.8-.8Z"/><path id="sort-ascending" d="M11.2,11.2c0,.5-.4,.8-.8,.8H2.8c-.5,0-.8-.4-.8-.8s.4-.8,.8-.8h7.5c.5,0,.8,.4,.8,.8ZM2.8,5.3h14.2c.5,0,.8-.4,.8-.8s-.4-.8-.8-.8H2.8c-.5,0-.8,.4-.8,.8s.4,.8,.8,.8Zm5.8,11.7H2.8c-.5,0-.8,.4-.8,.8s.4,.8,.8,.8h5.8c.5,0,.8-.4,.8-.8s-.4-.8-.8-.8Zm13.1-2.3c-.3-.3-.9-.3-1.2,0h0s-2.7,2.7-2.7,2.7v-8c0-.5-.4-.8-.8-.8s-.8,.4-.8,.8v8l-2.7-2.7c-.3-.3-.9-.3-1.2,0s-.3,.9,0,1.2l4.2,4.2c.3,.3,.9,.3,1.2,0h0s4.2-4.2,4.2-4.2c.3-.3,.3-.9,0-1.2h0Z"/><path id="sort-descending" d="M2,12.8c0-.5,.4-.8,.8-.8h7.5c.5,0,.8,.4,.8,.8s-.4,.8-.8,.8H2.8c-.5,0-.8-.4-.8-.8Zm.8-5.8h5.8c.5,0,.8-.4,.8-.8s-.4-.8-.8-.8H2.8c-.5,0-.8,.4-.8,.8s.4,.8,.8,.8Zm14.2,11.7H2.8c-.5,0-.8,.4-.8,.8s.4,.8,.8,.8h14.2c.5,0,.8-.4,.8-.8s-.4-.8-.8-.8Zm4.8-10.6l-4.2-4.2c-.3-.3-.9-.3-1.2,0,0,0,0,0,0,0l-4.2,4.2c-.3,.3-.3,.9,0,1.2,.3,.3,.9,.3,1.2,0l2.7-2.7v8c0,.5,.4,.8,.8,.8s.8-.4,.8-.8V6.5l2.7,2.7c.3,.3,.9,.3,1.2,0,.3-.3,.3-.9,0-1.2Z"/><path id="star" d="M21.9,9.6c-.2-.5-.7-.9-1.2-1l-5.3-.5-2.1-4.9c-.3-.7-1.1-1.1-1.9-.8-.3,.1-.6,.4-.8,.8l-2.1,4.9-5.3,.5c-.8,0-1.4,.8-1.3,1.5,0,.4,.2,.7,.5,1l4,3.5-1.2,5.2c-.2,.8,.3,1.5,1.1,1.7,.4,0,.7,0,1.1-.2l4.6-2.8,4.6,2.8c.7,.4,1.6,.2,2-.5,.2-.3,.3-.7,.2-1.1l-1.2-5.2,4-3.5c.4-.4,.6-1,.4-1.5Zm-1.4,.4l-4,3.5c-.4,.3-.6,.9-.5,1.4l1.2,5.2-4.6-2.8c-.5-.3-1-.3-1.5,0l-4.6,2.8,1.2-5.2c.1-.5,0-1.1-.5-1.4l-4-3.5s0,0,0,0l5.3-.5c.5,0,1-.4,1.2-.9l2.1-4.9,2.1,4.9c.2,.5,.7,.8,1.2,.9l5.3,.5h0s0,0,0,0Z"/><path id="translate" d="M21.9,19.9l-5-10c-.2-.4-.6-.5-1-.3-.1,0-.3,.2-.3,.3l-1.9,3.9c-1.5,0-3-.6-4.2-1.5,1.4-1.5,2.3-3.5,2.5-5.6h2.2c.4,0,.7-.3,.7-.7s-.3-.7-.7-.7h-5v-1.4c0-.4-.3-.7-.7-.7s-.7,.3-.7,.7v1.4H2.7c-.4,0-.7,.3-.7,.7s.3,.7,.7,.7h7.8c-.2,1.8-.9,3.4-2.1,4.7-.8-.8-1.3-1.7-1.7-2.8-.1-.4-.5-.6-.9-.5-.4,.1-.6,.5-.5,.9,0,0,0,0,0,0,.4,1.2,1.1,2.3,2,3.2-1.3,1-3,1.5-4.6,1.5-.4,0-.7,.3-.7,.7s.3,.7,.7,.7c2.1,0,4.1-.7,5.7-2,1.3,1,2.9,1.7,4.6,1.9l-2.4,4.7c-.2,.4,0,.8,.3,1,.4,.2,.8,0,1-.3l1.2-2.5h6.3l1.2,2.5c.1,.2,.4,.4,.6,.4,.4,0,.7-.3,.7-.7,0-.1,0-.2,0-.3Zm-8.1-3.3l2.4-4.8,2.4,4.8h-4.8Z"/><path id="verified" d="M20.7,9.8c-.3-.4-.7-.7-.8-1-.1-.3-.1-.8-.1-1.2,0-.9,0-1.9-.7-2.5s-1.7-.7-2.5-.7c-.5,0-1,0-1.2-.1-.3-.1-.7-.5-1-.8-.6-.6-1.3-1.3-2.2-1.3s-1.6,.7-2.2,1.3c-.4,.3-.7,.7-1,.8-.3,.1-.8,.1-1.2,.1-.9,0-1.9,0-2.5,.7s-.7,1.7-.7,2.5c0,.5,0,1-.1,1.2-.1,.3-.5,.7-.8,1-.6,.6-1.3,1.3-1.3,2.2s.7,1.6,1.3,2.2c.3,.4,.7,.7,.8,1,.1,.3,.1,.8,.1,1.2,0,.9,0,1.9,.7,2.5s1.7,.7,2.5,.7c.5,0,1,0,1.2,.1,.3,.1,.7,.5,1,.8,.6,.6,1.3,1.3,2.2,1.3s1.6-.7,2.2-1.3c.4-.3,.7-.7,1-.8,.3-.1,.8-.1,1.2-.1,.9,0,1.9,0,2.5-.7s.7-1.7,.7-2.5c0-.5,0-1,.1-1.2,.1-.3,.5-.7,.8-1,.6-.6,1.3-1.3,1.3-2.2s-.7-1.6-1.3-2.2Zm-1,3.5c-.4,.4-.9,.9-1.1,1.5-.2,.5-.2,1.2-.2,1.8,0,.6,0,1.3-.3,1.6s-.9,.3-1.6,.3c-.6,0-1.2,0-1.8,.2-.6,.2-1,.7-1.5,1.1s-.9,.9-1.3,.9-.8-.4-1.3-.9-.9-.9-1.5-1.1c-.5-.2-1.2-.2-1.8-.2-.6,0-1.3,0-1.6-.3s-.3-.9-.3-1.6c0-.6,0-1.2-.2-1.8-.2-.6-.7-1-1.1-1.5s-.9-.9-.9-1.3,.4-.8,.9-1.3,.9-.9,1.1-1.5c.2-.5,.2-1.2,.2-1.8,0-.6,0-1.3,.3-1.6s.9-.3,1.6-.3c.6,0,1.2,0,1.8-.2,.6-.2,1-.7,1.5-1.1s.9-.9,1.3-.9,.8,.4,1.3,.9,.9,.9,1.5,1.1c.5,.2,1.2,.2,1.8,.2,.6,0,1.3,0,1.6,.3s.3,.9,.3,1.6c0,.6,0,1.2,.2,1.8,.2,.6,.7,1,1.1,1.5s.9,.9,.9,1.3-.4,.8-.9,1.3Zm-3.6-3.9c.3,.3,.3,.7,0,1,0,0,0,0,0,0l-5,5c-.3,.3-.7,.3-1,0,0,0,0,0,0,0l-2.1-2.1c-.3-.3-.3-.7,0-1,.3-.3,.7-.3,1,0l1.6,1.6,4.5-4.5c.3-.3,.7-.3,1,0,0,0,0,0,0,0Z"/><path id="zip" d="M17.8,14.5h-1.7c-.5,0-.8,.4-.8,.8v5.8c0,.5,.4,.8,.8,.8s.8-.4,.8-.8v-.8h.8c1.6,0,2.9-1.3,2.9-2.9s-1.3-2.9-2.9-2.9Zm0,4.2h-.8v-2.5h.8c.7,0,1.2,.6,1.2,1.2s-.6,1.2-1.2,1.2Zm-5-3.3v5.8c0,.5-.4,.8-.8,.8s-.8-.4-.8-.8v-5.8c0-.5,.4-.8,.8-.8s.8,.4,.8,.8Zm-4.2,5.8c0,.5-.4,.8-.8,.8h-3.3c-.5,0-.8-.4-.8-.8,0-.1,0-.3,.1-.4l2.6-4.6h-1.9c-.5,0-.8-.4-.8-.8s.4-.8,.8-.8h3.3c.5,0,.8,.4,.8,.8,0,.1,0,.3-.1,.4l-2.6,4.6h1.9c.5,0,.8,.4,.8,.8Zm12.3-13.1L15.1,2.2c-.2-.2-.4-.2-.6-.2H4.5c-.9,0-1.7,.7-1.7,1.7v7.5c0,.5,.4,.8,.8,.8s.8-.4,.8-.8V3.7H13.7v5c0,.5,.4,.8,.8,.8h5v1.7c0,.5,.4,.8,.8,.8s.8-.4,.8-.8v-2.5c0-.2,0-.4-.2-.6Zm-5.6-.2v-3l3,3h-3Z"/><path id="lock" d="M19.4,8.7h-3v-2.2c0-2.5-2-4.4-4.4-4.4s-4.4,2-4.4,4.4v2.2h-3c-.8,0-1.5,.7-1.5,1.5v10.4c0,.8,.7,1.5,1.5,1.5h14.8c.8,0,1.5-.7,1.5-1.5V10.1c0-.8-.7-1.5-1.5-1.5Zm-10.4-2.2c0-1.6,1.3-3,3-3s3,1.3,3,3v2.2h-5.9v-2.2Zm10.4,14.1H4.6V10.1h14.8v10.4Zm-6.3-5.2c0,.6-.5,1.1-1.1,1.1s-1.1-.5-1.1-1.1,.5-1.1,1.1-1.1,1.1,.5,1.1,1.1Z"/><path id="settings" d="M12,7.4c-2.5,0-4.6,2.1-4.6,4.6s2.1,4.6,4.6,4.6,4.6-2.1,4.6-4.6c0-2.5-2.1-4.6-4.6-4.6Zm0,7.6c-1.7,0-3.1-1.4-3.1-3.1s1.4-3.1,3.1-3.1,3.1,1.4,3.1,3.1-1.4,3.1-3.1,3.1Zm8.4-2.9c0-.1,0-.3,0-.4l1.4-1.8c.2-.2,.2-.4,.1-.7-.2-.9-.6-1.7-1-2.5-.1-.2-.3-.3-.6-.4l-2.3-.3c0,0-.2-.2-.3-.3l-.3-2.3c0-.2-.2-.5-.4-.6-.8-.5-1.6-.8-2.5-1-.2,0-.5,0-.7,.1l-1.8,1.4h-.4l-1.8-1.4c-.2-.2-.4-.2-.7-.1-.9,.2-1.7,.6-2.5,1-.2,.1-.3,.3-.4,.6l-.3,2.3c0,0-.2,.2-.3,.3l-2.3,.3c-.2,0-.5,.2-.6,.4-.5,.8-.8,1.6-1,2.5,0,.2,0,.5,.1,.7l1.4,1.8v.4l-1.4,1.8c-.2,.2-.2,.4-.1,.7,.2,.9,.6,1.7,1,2.5,.1,.2,.3,.3,.6,.4l2.3,.3c0,0,.2,.2,.3,.3l.3,2.3c0,.2,.2,.5,.4,.6,.8,.5,1.6,.8,2.5,1,.2,0,.5,0,.7-.1l1.8-1.4c.1,0,.3,0,.4,0l1.8,1.4c.2,.2,.4,.2,.7,.1,.9-.2,1.7-.6,2.5-1,.2-.1,.3-.3,.4-.6l.3-2.3c0,0,.2-.2,.3-.3l2.3-.3c.2,0,.5-.2,.6-.4,.5-.8,.8-1.6,1-2.5,0-.2,0-.5-.1-.7l-1.4-1.8Zm-1.5-.6c0,.3,0,.6,0,.8,0,.2,0,.4,.2,.5l1.4,1.7c-.2,.5-.4,1-.6,1.4l-2.2,.2c-.2,0-.4,.1-.5,.3-.2,.2-.4,.4-.6,.6-.1,.1-.2,.3-.3,.5l-.2,2.2c-.5,.2-.9,.4-1.4,.6l-1.7-1.4c-.1-.1-.3-.2-.5-.2h0c-.3,0-.6,0-.8,0-.2,0-.4,0-.5,.2l-1.7,1.4c-.5-.2-1-.4-1.4-.6l-.2-2.2c0-.2-.1-.4-.3-.5-.2-.2-.4-.4-.6-.6-.1-.1-.3-.2-.5-.3l-2.2-.2c-.2-.5-.4-.9-.6-1.4l1.4-1.7c.1-.1,.2-.3,.2-.5,0-.3,0-.6,0-.8,0-.2,0-.4-.2-.5l-1.4-1.7c.2-.5,.4-1,.6-1.4l2.2-.2c.2,0,.4-.1,.5-.3,.2-.2,.4-.4,.6-.6,.1-.1,.2-.3,.3-.5l.2-2.2c.5-.2,.9-.4,1.4-.6l1.7,1.4c.1,.1,.3,.2,.5,.2,.3,0,.6,0,.8,0,.2,0,.4,0,.5-.2l1.7-1.4c.5,.2,1,.4,1.4,.6l.2,2.2c0,.2,.1,.4,.3,.5,.2,.2,.4,.4,.6,.6,.1,.1,.3,.2,.5,.3l2.2,.2c.2,.5,.4,.9,.6,1.4l-1.4,1.7c-.1,.1-.2,.3-.2,.5h0Z"/><path id="bookmark-add" d="M17.6,2H6.4c-.9,0-1.6,.7-1.6,1.6V21.2c0,.4,.4,.8,.8,.8,.1,0,.3,0,.4-.1l6-3.7,6,3.7c.4,.2,.9,.1,1.1-.3,0-.1,.1-.3,.1-.4V3.6c0-.9-.7-1.6-1.6-1.6Zm0,17.8l-5.2-3.2c-.3-.2-.6-.2-.8,0l-5.2,3.2V3.6h11.2V19.8Z"/><path id="bookmark" d="M17.6,2H6.4c-.9,0-1.6,.7-1.6,1.6V21.2c0,.4,.4,.8,.8,.8,.1,0,.3,0,.4-.1l6-3.7,6,3.7c.4,.2,.9,.1,1.1-.3,0-.1,.1-.3,.1-.4V3.6c0-.9-.7-1.6-1.6-1.6Z"/></svg>