<?xml version="1.0" encoding="UTF-8"?><svg id="phosphor-light" xmlns="http://www.w3.org/2000/svg" viewBox="0 0 24 24"><path id="archive" d="M19.85,5.62H4.15c-.63,0-1.15,.51-1.15,1.15v1.96c0,.63,.51,1.15,1.15,1.15h.16v7.36c0,.63,.51,1.15,1.15,1.15h13.09c.63,0,1.15-.51,1.15-1.15v-7.36h.16c.63,0,1.15-.51,1.15-1.15v-1.96c0-.63-.51-1.15-1.15-1.15Zm-1.15,11.62c0,.09-.07,.16-.16,.16H5.45c-.09,0-.16-.07-.16-.16v-7.36h13.42v7.36Zm1.31-8.51c0,.09-.07,.16-.16,.16H4.15c-.09,0-.16-.07-.16-.16v-1.96c0-.09,.07-.16,.16-.16h15.71c.09,0,.16,.07,.16,.16v1.96Zm-10.47,3.93c0-.27,.22-.49,.49-.49h3.93c.27,0,.49,.22,.49,.49s-.22,.49-.49,.49h-3.93c-.27,0-.49-.22-.49-.49Z"/><path id="arrow-left" d="M10.99,5.53c.2,.2,.2,.52,0,.72l-5.26,5.26h13.75c.28,0,.51,.23,.51,.51s-.23,.51-.51,.51H5.74l5.26,5.26c.19,.21,.18,.53-.03,.72-.2,.18-.5,.18-.7,0l-6.13-6.13c-.2-.2-.2-.52,0-.72l6.13-6.13c.2-.2,.52-.2,.72,0Z"/><path id="arrow-right" d="M13,18.5c-.2-.2-.2-.52,0-.72l5.26-5.26H4.51c-.28,0-.51-.23-.51-.51s.23-.51,.51-.51h13.75l-5.26-5.26c-.19-.21-.18-.53,.03-.72,.2-.18,.5-.18,.7,0l6.13,6.13c.2,.2,.2,.52,0,.72l-6.13,6.13c-.2,.2-.52,.2-.72,0Z"/><path id="arrow-top" d="M18.48,11.02c-.2,.2-.52,.2-.72,0l-5.26-5.26v13.75c0,.28-.23,.51-.51,.51s-.51-.23-.51-.51V5.76l-5.26,5.26c-.21,.19-.53,.18-.72-.03-.18-.2-.18-.5,0-.7l6.13-6.13c.2-.2,.52-.2,.72,0l6.13,6.13c.2,.2,.2,.52,0,.72Z"/><path id="bookmark" d="M17.04,2.95H6.96c-.8,0-1.44,.64-1.44,1.44v15.84c0,.4,.32,.72,.72,.72,.13,0,.27-.04,.38-.11l5.38-3.36,5.38,3.36c.34,.21,.78,.11,.99-.23,.07-.11,.11-.25,.11-.38V4.39c0-.8-.64-1.44-1.44-1.44Z"/><path id="bookmark-add" d="M17.14,2.98H6.86c-.71,0-1.29,.58-1.29,1.29V20.42c0,.3,.25,.55,.55,.55,.1,0,.2-.03,.29-.08l5.58-3.49,5.59,3.49c.26,.16,.6,.08,.76-.18,.05-.09,.08-.19,.08-.29V4.26c0-.71-.58-1.29-1.29-1.29Zm.18,16.45l-5.04-3.15c-.18-.11-.41-.11-.58,0l-5.03,3.15V4.26c0-.1,.08-.18,.18-.18h10.29c.1,0,.18,.08,.18,.18v15.17Z"/><path id="check" d="M19.87,7.11l-10.46,10.46c-.19,.19-.5,.19-.69,0l-4.58-4.58c-.18-.2-.17-.51,.02-.69,.19-.18,.48-.18,.67,0l4.23,4.23L19.18,6.42c.2-.18,.51-.17,.69,.02,.18,.19,.18,.48,0,.67Z"/><path id="clear" d="M19.46,4.86H8.01c-.54,0-1.05,.29-1.33,.75l-3.54,5.91c-.18,.29-.18,.66,0,.96l3.54,5.91c.28,.47,.79,.75,1.33,.75h11.44c.86,0,1.55-.69,1.55-1.55V6.41c0-.86-.69-1.55-1.55-1.55Zm-.31,12.41H8.19l-3.17-5.28,3.17-5.28h10.96v10.55Zm-8.42-4.07l1.2-1.2-1.2-1.2c-.36-.36-.36-.95,0-1.32s.95-.36,1.32,0l1.2,1.2,1.2-1.2c.36-.36,.95-.36,1.32,0s.36,.95,0,1.32l-1.2,1.2,1.2,1.2c.36,.36,.36,.95,0,1.32s-.95,.36-1.32,0l-1.2-1.2-1.2,1.2c-.36,.36-.95,.36-1.32,0s-.36-.95,0-1.32h0Z"/><path id="clear-rtl" d="M4.15,19.04h12.07c.4,0,.77-.21,.98-.56l3.74-6.23c.09-.16,.09-.35,0-.51l-3.74-6.23c-.21-.34-.58-.56-.98-.56H4.15c-.63,0-1.15,.51-1.15,1.15v11.78c0,.63,.51,1.15,1.15,1.15Zm-.16-12.93c0-.09,.07-.16,.16-.16h12.07c.06,0,.11,.03,.14,.08l3.59,5.97-3.59,5.97c-.03,.05-.08,.08-.14,.08H4.15c-.09,0-.16-.07-.16-.16V6.11Zm4.4,7.51l1.62-1.62-1.62-1.62c-.2-.18-.21-.5-.02-.69s.5-.21,.69-.02c0,0,.02,.02,.02,.02l1.62,1.62,1.62-1.62c.2-.18,.51-.17,.69,.02,.18,.19,.18,.48,0,.67l-1.62,1.62,1.62,1.62c.18,.2,.17,.51-.02,.69-.19,.18-.48,.18-.67,0l-1.62-1.62-1.62,1.62c-.2,.18-.51,.17-.69-.02-.18-.19-.18-.48,0-.67Z"/><path id="close" d="M18.83,18.07c.22,.2,.23,.54,.03,.76s-.54,.23-.76,.03c0,0-.02-.02-.03-.03l-6.08-6.08-6.08,6.08c-.22,.2-.56,.19-.76-.03-.19-.21-.19-.53,0-.73l6.08-6.08L5.14,5.91c-.2-.22-.19-.56,.03-.76,.21-.19,.53-.19,.73,0l6.08,6.08,6.08-6.08c.22-.2,.56-.19,.76,.03,.19,.21,.19,.53,0,.73l-6.08,6.08,6.08,6.08Z"/><path id="comment" d="M20.63,2.73H3.37c-.76,0-1.37,.61-1.37,1.37h0v12.55c0,.76,.61,1.37,1.37,1.37h5.83c.07,0,.13,.04,.17,.1l1.45,2.37c.39,.65,1.23,.86,1.88,.47,.19-.12,.35-.28,.47-.47l1.45-2.38c.03-.06,.1-.1,.17-.1h5.83c.76,0,1.37-.61,1.37-1.37V4.1c0-.76-.61-1.37-1.37-1.37Zm.2,13.92c0,.11-.09,.2-.2,.2h-5.83c-.48,0-.93,.25-1.18,.66l-1.45,2.38c-.05,.09-.17,.13-.27,.07-.03-.02-.05-.04-.07-.07l-1.45-2.37c-.25-.41-.7-.66-1.18-.66H3.37c-.11,0-.2-.09-.2-.2V4.1c0-.11,.09-.2,.2-.2H20.63c.11,0,.2,.09,.2,.2v12.55Zm-7.84-6.27c0,.54-.44,.98-.98,.98s-.98-.44-.98-.98,.44-.98,.98-.98,.98,.44,.98,.98Zm-4.31,0c0,.54-.44,.98-.98,.98s-.98-.44-.98-.98,.44-.98,.98-.98,.98,.44,.98,.98Zm8.63,0c0,.54-.44,.98-.98,.98s-.98-.44-.98-.98,.44-.98,.98-.98,.98,.44,.98,.98Z"/><path id="comment-text" d="M20.63,2.73H3.37c-.76,0-1.37,.61-1.37,1.37h0v12.55c0,.76,.61,1.37,1.37,1.37h5.83c.07,0,.13,.04,.17,.1l1.45,2.37c.39,.65,1.23,.86,1.88,.47,.19-.12,.35-.28,.47-.47l1.45-2.38c.03-.06,.1-.1,.17-.1h5.83c.76,0,1.37-.61,1.37-1.37V4.1c0-.76-.61-1.37-1.37-1.37Zm.2,13.92c0,.11-.09,.2-.2,.2h-5.83c-.48,0-.93,.25-1.18,.66l-1.45,2.38c-.05,.09-.17,.13-.27,.07-.03-.02-.05-.04-.07-.07l-1.45-2.37c-.25-.41-.7-.66-1.18-.66H3.37c-.11,0-.2-.09-.2-.2V4.1c0-.11,.09-.2,.2-.2H20.63c.11,0,.2,.09,.2,.2v12.55Zm-5.1-7.84c0,.32-.26,.59-.59,.59h-6.27c-.32,0-.59-.26-.59-.59s.26-.59,.59-.59h6.27c.32,0,.59,.26,.59,.59Zm0,3.14c0,.32-.26,.59-.59,.59h-6.27c-.32,0-.59-.26-.59-.59s.26-.59,.59-.59h6.27c.32,0,.59,.26,.59,.59Z"/><path id="copy" d="M21.36,2H7.74c-.35,0-.64,.29-.64,.64V7.11H2.64c-.35,0-.64,.29-.64,.64v13.62c0,.35,.29,.64,.64,.64h13.62c.35,0,.64-.29,.64-.64v-4.47h4.47c.35,0,.64-.29,.64-.64V2.64c0-.35-.29-.64-.64-.64Zm-5.74,18.72H3.28V8.38H15.62v12.34Zm5.11-5.11h-3.83V7.74c0-.35-.29-.64-.64-.64h-7.87V3.28h12.34V15.62Z"/><path id="dark" d="M22.21,9.04c0,.32-.26,.59-.59,.59h-1.76v1.76c0,.32-.26,.59-.59,.59s-.59-.26-.59-.59v-1.76h-1.76c-.32,0-.59-.26-.59-.59s.26-.59,.59-.59h1.76v-1.76c0-.32,.26-.59,.59-.59s.59,.26,.59,.59v1.76h1.76c.32,0,.59,.26,.59,.59ZM13,4.92h.98v.98c0,.32,.26,.59,.59,.59s.59-.26,.59-.59v-.98h.98c.32,0,.59-.26,.59-.59s-.26-.59-.59-.59h-.98v-.98c0-.32-.26-.59-.59-.59s-.59,.26-.59,.59v.98h-.98c-.32,0-.59,.26-.59,.59s.26,.59,.59,.59Zm6.99,9.83c.14,.16,.18,.39,.1,.59-1.75,4.78-7.04,7.24-11.82,5.49S1.03,13.79,2.78,9.01c.93-2.55,2.94-4.55,5.49-5.49,.31-.11,.64,.05,.75,.35,.04,.1,.05,.21,.02,.31-.94,4.79,2.17,9.43,6.96,10.38,.56,.11,1.13,.17,1.7,.17,.58,0,1.15-.06,1.72-.17,.21-.04,.42,.03,.56,.19Zm-1.41,1.11c-.29,.02-.58,.04-.87,.04-5.52,0-9.99-4.48-10-10,0-.29,.01-.58,.04-.87-3.94,2.04-5.49,6.89-3.45,10.83,2.04,3.94,6.89,5.49,10.83,3.45,1.48-.76,2.68-1.97,3.45-3.45Z"/><path id="download" d="M20,14.04v4.77c0,.66-.53,1.19-1.19,1.19H5.19c-.66,0-1.19-.53-1.19-1.19v-4.77c0-.28,.23-.51,.51-.51s.51,.23,.51,.51v4.77c0,.09,.08,.17,.17,.17h13.62c.09,0,.17-.08,.17-.17v-4.77c0-.28,.23-.51,.51-.51s.51,.23,.51,.51Zm-8.36,.36c.2,.2,.52,.2,.72,0l3.4-3.4c.19-.21,.18-.53-.03-.72-.2-.18-.5-.18-.7,0l-2.53,2.53V4.51c0-.28-.23-.51-.51-.51s-.51,.23-.51,.51V12.81l-2.53-2.53c-.21-.19-.53-.18-.72,.03-.18,.2-.18,.5,0,.7l3.4,3.4Z"/><path id="home" d="M20.22,10.31L12.87,3.38h0c-.49-.46-1.24-.46-1.73,0h0S3.78,10.31,3.78,10.31c-.26,.24-.41,.59-.41,.95v8.49c0,.71,.58,1.29,1.29,1.29h4.41c.71,0,1.29-.58,1.29-1.29v-4.41c0-.1,.08-.18,.18-.18h2.94c.1,0,.18,.08,.18,.18v4.41c0,.71,.58,1.29,1.29,1.29h4.41c.71,0,1.29-.58,1.29-1.29V11.26c0-.36-.15-.7-.42-.95Zm-.69,9.44c0,.1-.08,.18-.18,.18h-4.41c-.1,0-.18-.08-.18-.18v-4.41c0-.71-.58-1.29-1.29-1.29h-2.94c-.71,0-1.29,.58-1.29,1.29v4.41c0,.1-.08,.18-.18,.18H4.65c-.1,0-.18-.08-.18-.18V11.26c0-.05,.02-.1,.06-.14h0s7.34-6.94,7.34-6.94c.07-.06,.17-.06,.24,0l7.34,6.93h0s.06,.09,.06,.14v8.49Z"/><path id="label" d="M21.41,8.29h-5l.87-4.8c.07-.32-.13-.63-.45-.7-.32-.07-.63,.13-.7,.45,0,.01,0,.03,0,.04l-.91,5.01h-5.08l.87-4.8c.05-.32-.18-.62-.5-.67-.31-.04-.59,.16-.66,.46l-.91,5.01H4.16c-.32,0-.59,.26-.59,.59s.26,.59,.59,.59h4.57l-.93,5.1H2.59c-.32,0-.59,.26-.59,.59s.26,.59,.59,.59H7.59l-.87,4.8c-.06,.32,.15,.63,.47,.69,0,0,0,0,0,0,.03,0,.07,0,.1,0,.28,0,.53-.2,.58-.48l.91-5.01h5.08l-.87,4.8c-.06,.32,.15,.63,.47,.69,0,0,0,0,0,0,.03,0,.07,0,.11,0,.28,0,.53-.2,.58-.48l.91-5.01h4.79c.32,0,.59-.26,.59-.59s-.26-.59-.59-.59h-4.57l.93-5.1h5.21c.32,0,.59-.26,.59-.59s-.26-.59-.59-.59Zm-7.34,6.27h-5.08l.93-5.1h5.08l-.93,5.1Z"/><path id="light" d="M11.49,4.54V2.51c0-.28,.23-.51,.51-.51s.51,.23,.51,.51v2.03c0,.28-.23,.51-.51,.51s-.51-.23-.51-.51Zm5.76,7.46c0,2.9-2.35,5.25-5.25,5.25s-5.25-2.35-5.25-5.25,2.35-5.25,5.25-5.25c2.9,0,5.25,2.35,5.25,5.25Zm-1.02,0c0-2.34-1.9-4.24-4.24-4.24s-4.24,1.9-4.24,4.24,1.9,4.24,4.24,4.24c2.34,0,4.23-1.9,4.24-4.24ZM6.22,6.94c.19,.21,.51,.22,.72,.03s.22-.51,.03-.72c0,0-.02-.02-.03-.03l-1.36-1.36c-.21-.19-.53-.18-.72,.03-.18,.2-.18,.5,0,.69l1.36,1.36Zm0,10.13l-1.36,1.36c-.21,.19-.22,.51-.03,.72s.51,.22,.72,.03c0,0,.02-.02,.03-.03l1.36-1.36c.21-.19,.22-.51,.03-.72s-.51-.22-.72-.03c0,0-.02,.02-.03,.03ZM17.42,7.08c.13,0,.26-.05,.36-.15l1.36-1.36c.19-.21,.18-.53-.03-.72-.2-.18-.5-.18-.69,0l-1.36,1.36c-.2,.2-.2,.52,0,.72,.1,.1,.22,.15,.36,.15Zm.36,9.98c-.21-.19-.53-.18-.72,.03-.18,.2-.18,.5,0,.69l1.36,1.36c.21,.19,.53,.18,.72-.03,.18-.2,.18-.5,0-.69l-1.36-1.36ZM5.05,12c0-.28-.23-.51-.51-.51H2.51c-.28,0-.51,.23-.51,.51s.23,.51,.51,.51h2.03c.28,0,.51-.23,.51-.51Zm6.95,6.95c-.28,0-.51,.23-.51,.51v2.03c0,.28,.23,.51,.51,.51s.51-.23,.51-.51v-2.03c0-.28-.23-.51-.51-.51Zm9.49-7.46h-2.03c-.28,0-.51,.23-.51,.51s.23,.51,.51,.51h2.03c.28,0,.51-.23,.51-.51s-.23-.51-.51-.51Z"/><path id="link" d="M12.78,17.72c.22,.22,.22,.59,0,.81,0,0,0,0,0,0l-.95,.95c-2.02,2.02-5.29,2.02-7.31,0-2.02-2.02-2.02-5.29,0-7.31l2.31-2.31c1.94-1.94,5.05-2.03,7.09-.21,.24,.21,.26,.58,.05,.81s-.58,.26-.81,.05c-1.59-1.41-4.01-1.34-5.51,.16l-2.31,2.3c-1.57,1.57-1.57,4.12,0,5.69,1.57,1.57,4.12,1.57,5.69,0l.95-.95c.22-.22,.59-.22,.81,0,0,0,0,0,0,0Zm6.71-13.21c-2.02-2.02-5.29-2.02-7.31,0l-.95,.95c-.22,.22-.22,.59,0,.81,.22,.22,.59,.22,.81,0h0l.95-.96c1.57-1.57,4.12-1.57,5.69,0,1.57,1.57,1.57,4.12,0,5.69l-2.31,2.32c-1.5,1.51-3.92,1.58-5.51,.16-.24-.21-.6-.19-.81,.05s-.19,.6,.05,.81c2.05,1.82,5.16,1.73,7.09-.21l2.31-2.31c2.02-2.02,2.02-5.29,0-7.31,0,0,0,0,0,0h0Z"/><path id="link-open" d="M19.66,3H4.34c-.74,0-1.34,.6-1.34,1.34v15.32c0,.74,.6,1.34,1.34,1.34h15.32c.74,0,1.34-.6,1.34-1.34V4.34c0-.74-.6-1.34-1.34-1.34Zm.19,16.66c0,.11-.09,.19-.19,.19H4.34c-.11,0-.19-.09-.19-.19V4.34c0-.11,.09-.19,.19-.19h15.32c.11,0,.19,.09,.19,.19v15.32Zm-4.21-10.72v4.6c0,.32-.26,.57-.57,.57s-.57-.26-.57-.57v-3.21l-5.15,5.15c-.23,.22-.6,.2-.81-.03-.21-.22-.21-.56,0-.78l5.15-5.15h-3.21c-.32,0-.57-.26-.57-.57s.26-.57,.57-.57h4.6c.32,0,.57,.26,.57,.57Z"/><path id="list" d="M21.02,12.38c0,.32-.26,.57-.57,.57H9.73c-.32,0-.57-.26-.57-.57s.26-.57,.57-.57h10.72c.32,0,.57,.26,.57,.57ZM9.73,6.83h10.72c.32,0,.57-.26,.57-.57s-.26-.57-.57-.57H9.73c-.32,0-.57,.26-.57,.57s.26,.57,.57,.57Zm10.72,11.11H9.73c-.32,0-.57,.26-.57,.57s.26,.57,.57,.57h10.72c.32,0,.57-.26,.57-.57s-.26-.57-.57-.57ZM3.86,5.24l.7-.35v5.2c0,.32,.26,.57,.57,.57s.57-.26,.57-.57V3.96c0-.32-.26-.57-.57-.57-.09,0-.18,.02-.26,.06l-1.53,.77c-.28,.14-.4,.49-.26,.77,.14,.28,.49,.4,.77,.26Zm2.81,14.23h-1.91l2.06-2.75c.34-.44,.49-1,.41-1.56-.08-.56-.38-1.07-.84-1.4-.95-.69-2.27-.51-3,.41-.13,.17-.24,.36-.31,.57-.11,.3,.05,.63,.34,.74,.3,.11,.63-.05,.74-.34,.03-.09,.08-.18,.14-.26,.34-.43,.97-.52,1.42-.19,.21,.15,.35,.38,.38,.63,.03,.25-.04,.5-.19,.7h0s-2.74,3.68-2.74,3.68c-.19,.25-.14,.61,.12,.8,.1,.07,.22,.11,.34,.11h3.06c.32,0,.57-.26,.57-.57s-.26-.57-.57-.57Z"/><path id="lock" d="M19.55,8.79h-3.21v-2.45c0-2.4-1.94-4.34-4.34-4.34s-4.34,1.94-4.34,4.34v2.45h-3.21c-.73,0-1.32,.59-1.32,1.32v10.57c0,.73,.59,1.32,1.32,1.32h15.09c.73,0,1.32-.59,1.32-1.32V10.11c0-.73-.59-1.32-1.32-1.32Zm-10.75-2.45c0-1.77,1.44-3.21,3.21-3.21s3.21,1.44,3.21,3.21v2.45h-6.42v-2.45Zm10.94,14.34c0,.1-.08,.19-.19,.19H4.45c-.1,0-.19-.08-.19-.19V10.11c0-.1,.08-.19,.19-.19h15.09c.1,0,.19,.08,.19,.19v10.57Zm-6.79-5.28c0,.52-.42,.94-.94,.94s-.94-.42-.94-.94,.42-.94,.94-.94,.94,.42,.94,.94Z"/><path id="menu" d="M21,12c0,.32-.26,.57-.57,.57H3.57c-.32,0-.57-.26-.57-.57s.26-.57,.57-.57H20.43c.32,0,.57,.26,.57,.57ZM3.57,6.45H20.43c.32,0,.57-.26,.57-.57s-.26-.57-.57-.57H3.57c-.32,0-.57,.26-.57,.57s.26,.57,.57,.57Zm16.85,11.11H3.57c-.32,0-.57,.26-.57,.57s.26,.57,.57,.57H20.43c.32,0,.57-.26,.57-.57s-.26-.57-.57-.57Z"/><path id="menu-more" d="M6.05,5.03c0,.57-.46,1.03-1.03,1.03s-1.03-.46-1.03-1.03,.46-1.03,1.03-1.03,1.03,.46,1.03,1.03Zm5.95-1.03c-.57,0-1.03,.46-1.03,1.03s.46,1.03,1.03,1.03,1.03-.46,1.03-1.03-.46-1.03-1.03-1.03Zm6.97,2.05c.57,0,1.03-.46,1.03-1.03s-.46-1.03-1.03-1.03-1.03,.46-1.03,1.03,.46,1.03,1.03,1.03ZM5.03,10.97c-.57,0-1.03,.46-1.03,1.03s.46,1.03,1.03,1.03,1.03-.46,1.03-1.03-.46-1.03-1.03-1.03Zm6.97,0c-.57,0-1.03,.46-1.03,1.03s.46,1.03,1.03,1.03,1.03-.46,1.03-1.03-.46-1.03-1.03-1.03Zm6.97,0c-.57,0-1.03,.46-1.03,1.03s.46,1.03,1.03,1.03,1.03-.46,1.03-1.03-.46-1.03-1.03-1.03Zm-13.95,6.97c-.57,0-1.03,.46-1.03,1.03s.46,1.03,1.03,1.03,1.03-.46,1.03-1.03-.46-1.03-1.03-1.03Zm6.97,0c-.57,0-1.03,.46-1.03,1.03s.46,1.03,1.03,1.03,1.03-.46,1.03-1.03-.46-1.03-1.03-1.03Zm6.97,0c-.57,0-1.03,.46-1.03,1.03s.46,1.03,1.03,1.03,1.03-.46,1.03-1.03-.46-1.03-1.03-1.03Z"/><path id="more" d="M12.95,12c0,.53-.43,.95-.95,.95s-.95-.43-.95-.95,.43-.95,.95-.95,.95,.43,.95,.95Zm-7.43-.95c-.53,0-.95,.43-.95,.95s.43,.95,.95,.95,.95-.43,.95-.95-.43-.95-.95-.95Zm12.95,0c-.53,0-.95,.43-.95,.95s.43,.95,.95,.95,.95-.43,.95-.95-.43-.95-.95-.95Z"/><path id="more-vertical" d="M12,12.95c-.53,0-.95-.43-.95-.95s.43-.95,.95-.95,.95,.43,.95,.95-.43,.95-.95,.95Zm.95-7.43c0-.53-.43-.95-.95-.95s-.95,.43-.95,.95,.43,.95,.95,.95,.95-.43,.95-.95Zm0,12.95c0-.53-.43-.95-.95-.95s-.95,.43-.95,.95,.43,.95,.95,.95,.95-.43,.95-.95Z"/><path id="page" d="M19.8,7.9L14.61,2.72c-.1-.1-.25-.16-.39-.16H5.33c-.72,0-1.3,.58-1.3,1.3V20.15c0,.72,.58,1.3,1.3,1.3h13.33c.72,0,1.3-.58,1.3-1.3h0V8.3c0-.15-.06-.29-.16-.39Zm-5.02-3.45l3.29,3.29h-3.29v-3.29Zm3.89,15.88H5.33c-.1,0-.19-.08-.19-.19V3.85c0-.1,.08-.19,.19-.19H13.67v4.63c0,.31,.25,.56,.56,.56h4.63v11.3c0,.1-.08,.19-.19,.19Zm-3.15-7.59c0,.31-.25,.56-.56,.56h-5.93c-.31,0-.56-.25-.56-.56s.25-.56,.56-.56h5.93c.31,0,.56,.25,.56,.56Zm0,2.96c0,.31-.25,.56-.56,.56h-5.93c-.31,0-.56-.25-.56-.56s.25-.56,.56-.56h5.93c.31,0,.56,.25,.56,.56Z"/><path id="pin" d="M19.86,14.68h-.98l-1.95-11.07h.79c.3,0,.54-.24,.54-.54s-.24-.54-.54-.54H6.29c-.3,0-.54,.24-.54,.54s.24,.54,.54,.54h.79l-1.95,11.07h-.98c-.3,0-.54,.24-.54,.54s.24,.54,.54,.54h7.32v5.18c0,.3,.24,.54,.54,.54s.54-.24,.54-.54v-5.18h7.32c.3,0,.54-.24,.54-.54s-.24-.54-.54-.54ZM8.16,3.61h7.68l1.95,11.07H6.21l1.95-11.07Z"/><path id="read-more" d="M17.64,10.55c0,.3-.24,.55-.55,.55h-7.27c-.3,0-.55-.24-.55-.55s.24-.55,.55-.55h7.27c.3,0,.55,.24,.55,.55Zm-.55,2.36h-7.27c-.3,0-.55,.24-.55,.55s.24,.55,.55,.55h7.27c.3,0,.55-.24,.55-.55s-.24-.55-.55-.55Zm4.91-6.73v10.91c0,1.1-.9,2-2,2H4c-1.1,0-2-.89-2-1.99V8.36c0-.3,.24-.55,.55-.55s.55,.24,.55,.55v8.73c0,.5,.41,.91,.91,.91s.91-.41,.91-.91V6.18c0-.7,.57-1.27,1.27-1.27h14.55c.7,0,1.27,.57,1.27,1.27Zm-1.09,0c0-.1-.08-.18-.18-.18H6.18c-.1,0-.18,.08-.18,.18v10.91c0,.32-.07,.63-.22,.91h14.22c.5,0,.91-.41,.91-.91V6.18Z"/><path id="reload" d="M2,12c0-3.79,3.07-6.86,6.86-6.86h11.13l-1.35-1.35c-.22-.24-.21-.61,.03-.83,.23-.21,.58-.21,.8,0l2.35,2.35c.23,.23,.23,.6,0,.83l-2.35,2.35c-.24,.22-.61,.21-.83-.03-.21-.23-.21-.58,0-.8l1.35-1.35H8.86c-3.14,0-5.68,2.55-5.69,5.69,0,.32-.26,.59-.59,.59s-.59-.26-.59-.59Zm19.41-.59c-.32,0-.59,.26-.59,.59,0,3.14-2.55,5.68-5.69,5.69H4.01l1.35-1.35c.22-.24,.21-.61-.03-.83-.23-.21-.58-.21-.8,0l-2.35,2.35c-.23,.23-.23,.6,0,.83l2.35,2.35c.24,.22,.61,.21,.83-.03,.21-.23,.21-.58,0-.8l-1.35-1.35H15.14c3.79,0,6.86-3.07,6.86-6.86,0-.32-.26-.59-.59-.59Z"/><path id="search" d="M20.32,19.87l-4.28-4.28c2.6-2.99,2.28-7.52-.71-10.12-2.99-2.6-7.52-2.28-10.12,.71-2.6,2.99-2.28,7.52,.71,10.12,2.7,2.35,6.71,2.35,9.41,0l4.28,4.28c.2,.19,.52,.18,.71-.02,.18-.19,.18-.49,0-.68ZM4.49,10.9c0-3.4,2.76-6.16,6.16-6.16s6.16,2.76,6.16,6.16-2.76,6.16-6.16,6.16c-3.4,0-6.16-2.76-6.16-6.16Z"/><path id="settings" d="M12,7.76c-2.34,0-4.23,1.9-4.23,4.23s1.9,4.23,4.23,4.23,4.23-1.9,4.23-4.23h0c0-2.34-1.9-4.23-4.23-4.23Zm0,7.36c-1.73,0-3.13-1.4-3.13-3.13s1.4-3.13,3.13-3.13,3.13,1.4,3.13,3.13-1.4,3.13-3.13,3.13h0Zm7.92-2.87c0-.17,0-.35,0-.52l1.41-1.76c.11-.14,.15-.32,.1-.49-.22-.83-.55-1.63-.98-2.38-.09-.15-.24-.26-.42-.28l-2.25-.25c-.12-.13-.24-.25-.37-.37l-.25-2.25c-.02-.18-.12-.33-.28-.42-.74-.43-1.54-.76-2.37-.98-.17-.04-.35,0-.49,.1l-1.77,1.41c-.17,0-.35,0-.52,0l-1.76-1.42c-.14-.11-.32-.15-.49-.1-.83,.22-1.63,.55-2.38,.98-.15,.09-.26,.24-.28,.42l-.25,2.25c-.13,.12-.25,.24-.37,.37l-2.25,.26c-.18,.02-.33,.12-.42,.28-.43,.74-.76,1.54-.98,2.37-.04,.17,0,.35,.1,.48l1.41,1.77c0,.17,0,.35,0,.52l-1.42,1.76c-.11,.14-.15,.32-.1,.49,.22,.83,.55,1.63,.98,2.37,.09,.15,.24,.26,.42,.28l2.25,.25c.12,.13,.24,.25,.37,.37l.26,2.25c.02,.18,.12,.33,.28,.42,.74,.43,1.54,.76,2.37,.98,.17,.05,.35,0,.49-.1l1.76-1.41c.17,0,.35,0,.52,0l1.77,1.42c.1,.08,.22,.12,.35,.12,.05,0,.1,0,.14-.02,.83-.22,1.63-.55,2.37-.98,.15-.09,.26-.24,.28-.42l.25-2.25c.13-.12,.25-.24,.37-.37l2.25-.25c.18-.02,.33-.12,.42-.28,.43-.74,.76-1.54,.98-2.37,.05-.17,0-.35-.1-.49l-1.41-1.77Zm-.29,3.83l-2.18,.24c-.14,.02-.26,.08-.35,.18-.18,.2-.38,.4-.58,.58-.1,.09-.17,.22-.18,.35l-.24,2.18c-.51,.27-1.04,.49-1.6,.66l-1.71-1.37c-.1-.08-.22-.12-.35-.12h-.03c-.27,.02-.55,.02-.82,0-.14,0-.27,.03-.38,.12l-1.71,1.37c-.55-.17-1.09-.39-1.6-.66l-.24-2.17c-.02-.14-.08-.26-.18-.35-.2-.18-.4-.38-.58-.58-.09-.1-.22-.17-.35-.18l-2.18-.24c-.27-.51-.49-1.04-.66-1.59l1.37-1.71c.09-.11,.13-.24,.12-.38-.02-.27-.02-.55,0-.82,0-.14-.03-.27-.12-.38l-1.37-1.71c.17-.55,.39-1.09,.66-1.6l2.17-.24c.14-.02,.26-.08,.35-.18,.18-.2,.38-.4,.58-.58,.1-.09,.17-.22,.18-.35l.24-2.18c.51-.27,1.04-.49,1.59-.66l1.71,1.37c.11,.09,.24,.13,.38,.12,.27-.02,.55-.02,.82,0,.14,0,.27-.03,.38-.12l1.71-1.37c.55,.17,1.09,.39,1.6,.66l.24,2.18c.02,.14,.08,.26,.18,.35,.2,.18,.4,.38,.58,.58,.09,.1,.22,.17,.35,.18l2.18,.24c.27,.51,.49,1.04,.66,1.59l-1.37,1.71c-.09,.11-.13,.24-.12,.38,.02,.27,.02,.55,0,.82,0,.14,.03,.27,.12,.38l1.37,1.71c-.17,.55-.39,1.09-.66,1.6h0Z"/><path id="share" d="M20.85,9.54l-4.24,4.24c-.21,.2-.55,.19-.75-.03-.19-.2-.19-.52,0-.72l3.33-3.33h-3.93c-3.62,0-6.79,2.45-7.69,5.96-.07,.28-.36,.45-.65,.38-.28-.07-.45-.36-.38-.65,1.02-3.98,4.61-6.75,8.72-6.75h3.93l-3.33-3.33c-.2-.21-.19-.55,.03-.75,.2-.19,.52-.19,.72,0l4.24,4.24c.21,.21,.21,.54,0,.75Zm-3.2,8.98H4.24c-.1,0-.18-.08-.18-.18V7.76c0-.29-.24-.53-.53-.53s-.53,.24-.53,.53v10.59c0,.68,.55,1.24,1.24,1.24h13.41c.29,0,.53-.24,.53-.53s-.24-.53-.53-.53Z"/><path id="sort-ascending" d="M11.04,11.23c0,.32-.26,.57-.57,.57H3.57c-.32,0-.57-.26-.57-.57s.26-.57,.57-.57h6.89c.32,0,.57,.26,.57,.57ZM3.57,5.68h13.02c.32,0,.57-.26,.57-.57s-.26-.57-.57-.57H3.57c-.32,0-.57,.26-.57,.57s.26,.57,.57,.57Zm5.36,11.11H3.57c-.32,0-.57,.26-.57,.57s.26,.57,.57,.57h5.36c.32,0,.57-.26,.57-.57s-.26-.57-.57-.57Zm11.9-2.13c-.22-.22-.59-.22-.81,0l-2.85,2.85v-7.8c0-.32-.26-.57-.57-.57s-.57,.26-.57,.57v7.8l-2.85-2.85c-.23-.22-.6-.2-.81,.03-.21,.22-.21,.56,0,.78l3.83,3.83c.22,.22,.59,.22,.81,0l3.83-3.83c.22-.22,.22-.59,0-.81Z"/><path id="sort-descending" d="M11.04,11.23c0,.32-.26,.57-.57,.57H3.57c-.32,0-.57-.26-.57-.57s.26-.57,.57-.57h6.89c.32,0,.57,.26,.57,.57ZM3.57,5.68h13.02c.32,0,.57-.26,.57-.57s-.26-.57-.57-.57H3.57c-.32,0-.57,.26-.57,.57s.26,.57,.57,.57Zm5.36,11.11H3.57c-.32,0-.57,.26-.57,.57s.26,.57,.57,.57h5.36c.32,0,.57-.26,.57-.57s-.26-.57-.57-.57Zm3.44-2.85c.22,.22,.59,.22,.81,0l2.85-2.85v7.8c0,.32,.26,.57,.57,.57s.57-.26,.57-.57v-7.8l2.85,2.85c.23,.22,.6,.2,.81-.03,.21-.22,.21-.56,0-.78l-3.83-3.83c-.22-.22-.59-.22-.81,0l-3.83,3.83c-.22,.22-.22,.59,0,.81Z"/><path id="star" d="M21.93,9.62c-.15-.49-.59-.83-1.1-.87l-5.4-.47c-.07,0-.12-.05-.15-.11l-2.11-5.03c-.28-.65-1.02-.95-1.67-.67-.3,.13-.54,.37-.67,.67l-2.11,5.03c-.03,.06-.08,.1-.15,.11l-5.4,.47c-.51,.04-.94,.38-1.1,.87-.16,.49-.02,1.03,.37,1.36l4.1,3.58c.05,.05,.07,.12,.06,.18l-1.23,5.32c-.12,.5,.08,1.02,.5,1.32,.41,.3,.97,.33,1.4,.06l4.65-2.82c.06-.03,.13-.03,.18,0l4.65,2.82c.6,.37,1.38,.18,1.75-.42,.18-.29,.23-.63,.15-.96l-1.23-5.32c-.02-.07,0-.14,.06-.18l4.1-3.58c.39-.34,.53-.87,.37-1.36Zm-1.09,.54l-4.1,3.58c-.36,.31-.51,.79-.4,1.25l1.23,5.32c.02,.07,0,.15-.07,.19-.06,.04-.13,.05-.19,0l-4.65-2.82c-.4-.25-.91-.25-1.31,0l-4.65,2.82c-.06,.04-.14,.04-.19,0-.06-.04-.09-.12-.07-.19l1.23-5.32c.11-.46-.05-.94-.4-1.25l-4.1-3.58c-.06-.05-.08-.13-.05-.2,.02-.07,.08-.12,.15-.13l5.41-.47c.47-.04,.88-.34,1.07-.78l2.11-5.03c.04-.09,.15-.13,.24-.09,.04,.02,.07,.05,.09,.09l2.1,5.03c.18,.44,.59,.73,1.06,.78l5.41,.47c.07,0,.14,.05,.15,.13,.03,.07,0,.15-.05,.2Z"/><path id="translate" d="M21.94,20.12l-5.09-10.18c-.13-.27-.46-.38-.73-.24-.11,.05-.19,.14-.24,.24l-2.03,4.05c-1.69-.07-3.32-.67-4.67-1.7,1.56-1.59,2.49-3.7,2.62-5.93h2.38c.3,0,.55-.24,.55-.55s-.24-.55-.55-.55h-5.27v-1.64c0-.3-.24-.55-.55-.55s-.55,.24-.55,.55v1.64H2.55c-.3,0-.55,.24-.55,.55s.24,.55,.55,.55H10.71c-.13,1.96-.96,3.81-2.34,5.2-.85-.85-1.5-1.89-1.9-3.02-.09-.29-.4-.44-.69-.35-.29,.09-.44,.4-.35,.69,0,0,0,.02,0,.02,.45,1.27,1.17,2.42,2.11,3.38-1.43,1.11-3.19,1.71-5,1.71-.3,0-.55,.24-.55,.55s.24,.55,.55,.55c2.12,0,4.17-.72,5.82-2.06,1.42,1.14,3.14,1.84,4.96,2.02l-2.54,5.07c-.13,.27-.03,.6,.24,.73,.27,.13,.6,.03,.73-.24l1.3-2.61h6.6l1.3,2.61c.09,.19,.28,.3,.49,.3,.08,0,.17-.02,.24-.06,.27-.13,.38-.46,.24-.73Zm-8.33-3.21l2.75-5.51,2.75,5.51h-5.51Z"/><path id="verified" d="M20.77,9.84c-.35-.37-.72-.75-.87-1.11-.14-.33-.14-.82-.15-1.33-.01-.85-.03-1.82-.67-2.47s-1.62-.66-2.47-.67c-.52,0-1-.02-1.33-.15-.36-.15-.74-.51-1.11-.87-.6-.58-1.29-1.23-2.16-1.23s-1.56,.66-2.16,1.23c-.37,.35-.75,.72-1.11,.87-.33,.14-.82,.14-1.33,.15-.85,.01-1.82,.03-2.47,.67s-.66,1.62-.67,2.47c0,.52-.02,1-.15,1.33-.15,.36-.51,.74-.87,1.11-.58,.6-1.23,1.29-1.23,2.16s.66,1.56,1.23,2.16c.35,.37,.72,.75,.87,1.11,.14,.33,.14,.82,.15,1.33,.01,.85,.03,1.82,.67,2.47s1.62,.66,2.47,.67c.52,0,1,.02,1.33,.15,.36,.15,.74,.51,1.11,.87,.6,.58,1.29,1.23,2.16,1.23s1.56-.66,2.16-1.23c.37-.35,.75-.72,1.11-.87,.33-.14,.82-.14,1.33-.15,.85-.01,1.82-.03,2.47-.67s.66-1.61,.67-2.47c0-.52,.02-1,.15-1.33,.15-.36,.51-.74,.87-1.11,.58-.6,1.23-1.29,1.23-2.16s-.66-1.56-1.23-2.16Zm-.79,3.57c-.42,.44-.86,.9-1.09,1.45-.22,.52-.23,1.14-.23,1.73-.01,.68-.02,1.38-.35,1.71s-1.03,.34-1.71,.35c-.6,0-1.21,.02-1.73,.23-.55,.23-1,.66-1.45,1.09-.48,.45-.97,.93-1.41,.93s-.93-.47-1.41-.93c-.44-.42-.9-.86-1.45-1.09-.52-.22-1.14-.23-1.73-.23-.68-.01-1.38-.02-1.71-.35s-.34-1.03-.35-1.71c0-.6-.02-1.21-.23-1.73-.23-.55-.66-1-1.09-1.45-.45-.48-.93-.97-.93-1.41s.47-.93,.93-1.41c.42-.44,.86-.9,1.09-1.45,.22-.52,.23-1.14,.23-1.73,.01-.68,.02-1.38,.35-1.71s1.03-.34,1.71-.35c.6,0,1.21-.02,1.73-.23,.55-.23,1-.66,1.45-1.09,.48-.46,.97-.93,1.41-.93s.93,.47,1.41,.93c.44,.42,.9,.86,1.45,1.09,.52,.22,1.14,.23,1.73,.23,.68,.01,1.38,.02,1.71,.35s.34,1.03,.35,1.71c0,.6,.02,1.21,.23,1.73,.23,.55,.66,1,1.09,1.45,.45,.48,.93,.97,.93,1.41s-.48,.93-.93,1.41Zm-3.96-3.98c.21,.21,.21,.56,0,.77l-5.09,5.09c-.21,.21-.56,.21-.77,0l-2.18-2.18c-.21-.22-.19-.57,.03-.77,.21-.2,.53-.2,.74,0l1.8,1.8,4.71-4.7c.21-.21,.56-.21,.77,0Z"/><path id="zip" d="M17.96,14.77h-1.7c-.35,0-.64,.29-.64,.64v5.96c0,.35,.29,.64,.64,.64s.64-.29,.64-.64v-1.06h1.06c1.53,0,2.77-1.24,2.77-2.77s-1.24-2.77-2.77-2.77Zm0,4.26h-1.06v-2.98h1.06c.82,0,1.49,.67,1.49,1.49s-.67,1.49-1.49,1.49Zm-5.32-3.62v5.96c0,.35-.29,.64-.64,.64s-.64-.29-.64-.64v-5.96c0-.35,.29-.64,.64-.64s.64,.29,.64,.64Zm-4.26,5.96c0,.35-.29,.64-.64,.64h-3.4c-.35,0-.64-.28-.64-.64,0-.11,.03-.22,.09-.32l2.86-5h-2.3c-.35,0-.64-.29-.64-.64s.29-.64,.64-.64h3.4c.35,0,.64,.28,.64,.64,0,.11-.03,.22-.09,.32l-2.86,5h2.3c.35,0,.64,.29,.64,.64Zm12.58-13.22L15,2.19c-.12-.12-.28-.19-.45-.19H4.34c-.82,0-1.49,.67-1.49,1.49v7.66c0,.35,.29,.64,.64,.64s.64-.29,.64-.64V3.49c0-.12,.1-.21,.21-.21H13.91v5.32c0,.35,.29,.64,.64,.64h5.32v1.91c0,.35,.29,.64,.64,.64s.64-.29,.64-.64v-2.55c0-.17-.07-.33-.19-.45Zm-5.77-.19v-3.78l3.78,3.78h-3.78Z"/></svg>