<?xml version="1.0" encoding="UTF-8"?><svg id="phosphor-thin" xmlns="http://www.w3.org/2000/svg" viewBox="0 0 24 24"><path id="archive" d="M20,5.67H4c-.55,0-1,.45-1,1v2c0,.55,.45,1,1,1h.33v7.67c0,.55,.45,1,1,1h13.33c.55,0,1-.45,1-1v-7.67h.33c.55,0,1-.45,1-1v-2c0-.55-.45-1-1-1Zm-1,11.67c0,.18-.15,.33-.33,.33H5.33c-.18,0-.33-.15-.33-.33v-7.67h14v7.67Zm1.33-8.67c0,.18-.15,.33-.33,.33H4c-.18,0-.33-.15-.33-.33v-2c0-.18,.15-.33,.33-.33H20c.18,0,.33,.15,.33,.33v2Zm-10.67,4c0-.18,.15-.33,.33-.33h4c.18,0,.33,.15,.33,.33s-.15,.33-.33,.33h-4c-.18,0-.33-.15-.33-.33Z"/><path id="arrow-left" d="M10.85,5.51c.14,.14,.14,.36,0,.49,0,0,0,0,0,0l-5.67,5.67h14.46c.19,0,.35,.16,.35,.35s-.16,.35-.35,.35H5.18l5.67,5.67c.14,.14,.14,.36,0,.49-.14,.14-.36,.14-.49,0l-6.26-6.26c-.14-.14-.14-.36,0-.49,0,0,0,0,0,0l6.26-6.26c.14-.14,.36-.14,.49,0,0,0,0,0,0,0Z"/><path id="arrow-right" d="M13.14,18.52c-.14-.14-.14-.36,0-.49,0,0,0,0,0,0l5.67-5.67H4.34c-.19,0-.35-.16-.35-.35s.16-.35,.35-.35h14.46l-5.67-5.67c-.14-.14-.14-.36,0-.49,.14-.14,.36-.14,.49,0l6.26,6.26c.14,.14,.14,.36,0,.49,0,0,0,0,0,0l-6.26,6.26c-.14,.14-.36,.14-.49,0,0,0,0,0,0,0Z"/><path id="arrow-top" d="M18.5,10.87c-.14,.14-.36,.14-.49,0,0,0,0,0,0,0l-5.67-5.67v14.46c0,.19-.16,.35-.35,.35s-.35-.16-.35-.35V5.21l-5.67,5.67c-.14,.14-.36,.14-.49,0-.14-.14-.14-.36,0-.49l6.26-6.26c.14-.14,.36-.14,.49,0,0,0,0,0,0,0l6.26,6.26c.14,.14,.14,.36,0,.49,0,0,0,0,0,0Z"/><path id="bookmark" d="M17.04,2.95H6.96c-.8,0-1.44,.64-1.44,1.44v15.84c0,.4,.32,.72,.72,.72,.13,0,.27-.04,.38-.11l5.38-3.36,5.38,3.36c.34,.21,.78,.11,.99-.23,.07-.11,.11-.25,.11-.38V4.39c0-.8-.64-1.44-1.44-1.44Z"/><path id="bookmark-add" d="M17.25,2.98H6.75c-.62,0-1.12,.5-1.12,1.12V20.6c0,.21,.17,.37,.38,.37,.07,0,.14-.02,.2-.06l5.8-3.63,5.8,3.63c.06,.04,.13,.06,.2,.06,.06,0,.13-.02,.18-.05,.12-.07,.19-.19,.19-.33V4.1c0-.62-.5-1.12-1.12-1.12Zm.38,16.95l-5.43-3.39c-.12-.08-.28-.08-.4,0l-5.43,3.39V4.1c0-.21,.17-.38,.38-.38h10.5c.21,0,.38,.17,.38,.38v15.82Z"/><path id="check" d="M19.9,6.9l-10.67,10.67c-.13,.13-.34,.13-.47,0,0,0,0,0,0,0l-4.67-4.67c-.13-.13-.13-.34,0-.47,.13-.13,.34-.13,.47,0l4.43,4.43L19.43,6.43c.13-.13,.34-.13,.47,0s.13,.34,0,.47Z"/><path id="clear" d="M20.01,5H7.72c-.35,0-.68,.19-.86,.49l-3.81,6.34c-.06,.11-.06,.24,0,.34l3.81,6.34c.18,.3,.51,.48,.86,.49h12.29c.55,0,1-.45,1-1V6c0-.55-.45-1-1-1Zm.33,13c0,.18-.15,.33-.33,.33H7.72c-.12,0-.23-.06-.29-.16l-3.7-6.17,3.7-6.17c.06-.1,.17-.16,.29-.16h12.29c.18,0,.33,.15,.33,.33v12Zm-4.76-7.76l-1.76,1.76,1.76,1.76c.13,.13,.13,.34,0,.47s-.34,.13-.47,0l-1.76-1.76-1.76,1.76c-.13,.13-.34,.13-.47,0s-.13-.34,0-.47l1.76-1.76-1.76-1.76c-.13-.13-.13-.34,0-.47s.34-.13,.47,0l1.76,1.76,1.76-1.76c.13-.13,.34-.13,.47,0s.13,.34,0,.47Z"/><path id="clear-rtl" d="M4.01,19h12.29c.35,0,.68-.19,.86-.49l3.81-6.34c.06-.11,.06-.24,0-.34l-3.81-6.34c-.18-.3-.51-.48-.86-.49H4.01c-.55,0-1,.45-1,1v12c0,.55,.45,1,1,1Zm-.33-13c0-.18,.15-.33,.33-.33h12.29c.12,0,.23,.06,.29,.16l3.7,6.17-3.7,6.17c-.06,.1-.17,.16-.29,.16H4.01c-.18,0-.33-.15-.33-.33V6Zm4.76,7.76l1.76-1.76-1.76-1.76c-.13-.13-.13-.34,0-.47s.34-.13,.47,0l1.76,1.76,1.76-1.76c.13-.13,.34-.13,.47,0s.13,.34,0,.47l-1.76,1.76,1.76,1.76c.13,.13,.13,.34,0,.47s-.34,.13-.47,0l-1.76-1.76-1.76,1.76c-.13,.13-.34,.13-.47,0s-.13-.34,0-.47Z"/><path id="close" d="M18.89,18.37c.14,.14,.14,.38,0,.52s-.38,.14-.52,0h0l-6.37-6.37-6.37,6.37c-.14,.14-.38,.14-.52,0-.14-.14-.14-.38,0-.52l6.37-6.37L5.11,5.63c-.14-.14-.14-.38,0-.52s.38-.14,.52,0l6.37,6.37,6.37-6.37c.14-.14,.38-.14,.52,0,.14,.14,.14,.38,0,.52h0l-6.37,6.37,6.37,6.37Z"/><path id="comment" d="M20.8,2.75H3.2c-.66,0-1.2,.54-1.2,1.2v12.8c0,.66,.54,1.2,1.2,1.2h5.95c.14,0,.27,.07,.34,.19l1.48,2.42c.34,.57,1.08,.75,1.65,.41,.17-.1,.31-.24,.41-.41l1.48-2.43c.07-.12,.2-.19,.34-.19h5.95c.66,0,1.2-.54,1.2-1.2V3.95c0-.66-.54-1.2-1.2-1.2Zm.4,14c0,.22-.18,.4-.4,.4h-5.95c-.42,0-.81,.22-1.03,.58l-1.48,2.43c-.11,.19-.36,.25-.55,.14-.06-.03-.11-.08-.14-.14l-1.48-2.42c-.22-.36-.61-.58-1.03-.58H3.2c-.22,0-.4-.18-.4-.4V3.95c0-.22,.18-.4,.4-.4H20.8c.22,0,.4,.18,.4,.4v12.8Zm-8.4-6.4c0,.44-.36,.8-.8,.8s-.8-.36-.8-.8,.36-.8,.8-.8,.8,.36,.8,.8Zm-4.4,0c0,.44-.36,.8-.8,.8s-.8-.36-.8-.8,.36-.8,.8-.8,.8,.36,.8,.8Zm8.8,0c0,.44-.36,.8-.8,.8s-.8-.36-.8-.8,.36-.8,.8-.8,.8,.36,.8,.8Z"/><path id="comment-text" d="M20.8,2.75H3.2c-.66,0-1.2,.54-1.2,1.2v12.8c0,.66,.54,1.2,1.2,1.2h5.95c.14,0,.27,.07,.34,.19l1.48,2.42c.34,.57,1.08,.75,1.65,.41,.17-.1,.31-.24,.41-.41l1.48-2.43c.07-.12,.2-.19,.34-.19h5.95c.66,0,1.2-.54,1.2-1.2V3.95c0-.66-.54-1.2-1.2-1.2Zm.4,14c0,.22-.18,.4-.4,.4h-5.95c-.42,0-.81,.22-1.03,.58l-1.48,2.43c-.11,.19-.36,.25-.55,.14-.06-.03-.11-.08-.14-.14l-1.48-2.42c-.22-.36-.61-.58-1.03-.58H3.2c-.22,0-.4-.18-.4-.4V3.95c0-.22,.18-.4,.4-.4H20.8c.22,0,.4,.18,.4,.4v12.8Zm-5.6-8c0,.22-.18,.4-.4,.4h-6.4c-.22,0-.4-.18-.4-.4s.18-.4,.4-.4h6.4c.22,0,.4,.18,.4,.4Zm0,3.2c0,.22-.18,.4-.4,.4h-6.4c-.22,0-.4-.18-.4-.4s.18-.4,.4-.4h6.4c.22,0,.4,.18,.4,.4Z"/><path id="copy" d="M21.57,2H7.65c-.24,0-.43,.19-.43,.43V7.22H2.43c-.24,0-.43,.19-.43,.43v13.91c0,.24,.19,.43,.43,.43h13.91c.24,0,.43-.19,.43-.43v-4.78h4.78c.24,0,.43-.19,.43-.43V2.43c0-.24-.19-.43-.43-.43Zm-5.65,19.13H2.87V8.09H15.91v13.04Zm5.22-5.22h-4.35V7.65c0-.24-.19-.43-.43-.43H8.09V2.87h13.04V15.91Z"/><path id="dark" d="M22.21,8.99c0,.22-.18,.4-.4,.4h-2v2c0,.22-.18,.4-.4,.4s-.4-.18-.4-.4v-2h-2c-.22,0-.4-.18-.4-.4s.18-.4,.4-.4h2v-2c0-.22,.18-.4,.4-.4s.4,.18,.4,.4v2h2c.22,0,.4,.18,.4,.4ZM13.01,4.59h1.2v1.2c0,.22,.18,.4,.4,.4s.4-.18,.4-.4v-1.2h1.2c.22,0,.4-.18,.4-.4s-.18-.4-.4-.4h-1.2v-1.2c0-.22-.18-.4-.4-.4s-.4,.18-.4,.4v1.2h-1.2c-.22,0-.4,.18-.4,.4s.18,.4,.4,.4Zm6.97,10.36c.09,.11,.12,.26,.07,.4-1.75,4.77-7.03,7.23-11.8,5.48-4.77-1.75-7.23-7.03-5.48-11.8,.93-2.55,2.94-4.55,5.48-5.48,.21-.08,.44,.03,.51,.24,.02,.07,.03,.14,.02,.21-.12,.59-.17,1.19-.17,1.79,0,5.08,4.12,9.19,9.2,9.2,.6,0,1.2-.06,1.79-.17,.14-.03,.29,.02,.38,.13Zm-.95,.77c-5.48,.68-10.47-3.22-11.15-8.7-.1-.82-.1-1.64,0-2.46C3.68,6.51,1.84,11.5,3.79,15.71c1.95,4.21,6.94,6.04,11.15,4.09,1.81-.84,3.26-2.29,4.09-4.09Z"/><path id="download" d="M20,14.09v4.87c0,.58-.47,1.04-1.04,1.04H5.04c-.58,0-1.04-.47-1.04-1.04v-4.87c0-.19,.16-.35,.35-.35s.35,.16,.35,.35v4.87c0,.19,.16,.35,.35,.35h13.91c.19,0,.35-.16,.35-.35v-4.87c0-.19,.16-.35,.35-.35s.35,.16,.35,.35Zm-8.25,.25c.14,.14,.36,.14,.49,0h0s3.48-3.48,3.48-3.48c.14-.14,.14-.36,0-.49s-.36-.14-.49,0l-2.88,2.88V4.35c0-.19-.16-.35-.35-.35s-.35,.16-.35,.35V13.25l-2.88-2.88c-.14-.14-.36-.14-.49,0s-.14,.36,0,.49l3.48,3.48Z"/><path id="home" d="M20.26,10.41L12.76,3.32c-.43-.39-1.09-.39-1.52,0L3.74,10.41c-.23,.21-.37,.51-.37,.83v8.67c0,.62,.5,1.13,1.13,1.13h4.5c.62,0,1.13-.5,1.13-1.13v-4.5c0-.21,.17-.38,.38-.38h3c.21,0,.38,.17,.38,.38v4.5c0,.62,.5,1.13,1.13,1.13h4.5c.62,0,1.13-.5,1.13-1.13V11.24c0-.31-.13-.61-.36-.83Zm-.39,9.5c0,.21-.17,.38-.38,.38h-4.5c-.21,0-.38-.17-.38-.38v-4.5c0-.62-.5-1.13-1.13-1.13h-3c-.62,0-1.13,.5-1.13,1.13v4.5c0,.21-.17,.38-.38,.38H4.5c-.21,0-.38-.17-.38-.38V11.24c0-.11,.05-.21,.13-.28L11.75,3.88c.14-.13,.36-.13,.5,0l7.51,7.09c.08,.07,.12,.17,.12,.28v8.66Z"/><path id="label" d="M21.6,8.41h-5.34l.93-5.13c.04-.22-.1-.43-.32-.47-.22-.04-.43,.1-.47,.32l-.96,5.27h-5.59l.93-5.13c.04-.22-.1-.43-.32-.47-.22-.04-.43,.1-.47,.32l-.96,5.27H4c-.22,0-.4,.18-.4,.4s.18,.4,.4,.4h4.9l-1.02,5.6H2.4c-.22,0-.4,.18-.4,.4s.18,.4,.4,.4H7.74l-.93,5.13c-.04,.22,.1,.43,.32,.46,.02,0,.05,0,.07,0,.19,0,.36-.14,.39-.33l.96-5.27h5.59l-.93,5.13c-.04,.22,.1,.43,.32,.46,.02,0,.05,0,.07,0,.19,0,.36-.14,.39-.33l.96-5.27h5.05c.22,0,.4-.18,.4-.4s-.18-.4-.4-.4h-4.9l1.02-5.6h5.48c.22,0,.4-.18,.4-.4s-.18-.4-.4-.4Zm-7.32,6.4h-5.58l1.02-5.6h5.58l-1.02,5.6Z"/><path id="light" d="M11.66,4.41V2.34c0-.19,.15-.34,.34-.34s.34,.15,.34,.34v2.07c0,.19-.15,.34-.34,.34s-.34-.15-.34-.34Zm5.52,7.59c0,2.86-2.32,5.17-5.17,5.17s-5.17-2.32-5.17-5.17,2.32-5.17,5.17-5.17c2.86,0,5.17,2.32,5.17,5.17Zm-.69,0c0-2.48-2.01-4.48-4.48-4.48s-4.48,2.01-4.48,4.48,2.01,4.48,4.48,4.48c2.47,0,4.48-2.01,4.48-4.48ZM6.24,6.73c.13,.13,.35,.13,.49,0s.13-.35,0-.49l-1.38-1.38c-.13-.13-.35-.13-.49,0s-.13,.35,0,.49l1.38,1.38Zm0,10.55l-1.38,1.38c-.13,.13-.13,.35,0,.49,.13,.13,.35,.13,.49,0l1.38-1.38c.13-.13,.13-.35,0-.49-.13-.13-.35-.13-.49,0ZM17.52,6.83c.09,0,.18-.04,.24-.1l1.38-1.38c.13-.13,.13-.35,0-.49-.13-.13-.35-.13-.49,0l-1.38,1.38c-.13,.13-.13,.35,0,.49,.06,.06,.15,.1,.24,.1Zm.24,10.45c-.13-.13-.35-.13-.49,0s-.13,.35,0,.49l1.38,1.38c.13,.13,.35,.13,.49,0s.13-.35,0-.49l-1.38-1.38ZM4.41,11.66H2.34c-.19,0-.34,.15-.34,.34s.15,.34,.34,.34h2.07c.19,0,.34-.15,.34-.34s-.15-.34-.34-.34Zm7.59,7.59c-.19,0-.34,.15-.34,.34v2.07c0,.19,.15,.34,.34,.34s.34-.15,.34-.34v-2.07c0-.19-.15-.34-.34-.34Zm9.66-7.59h-2.07c-.19,0-.34,.15-.34,.34s.15,.34,.34,.34h2.07c.19,0,.34-.15,.34-.34s-.15-.34-.34-.34Z"/><path id="link" d="M12.66,17.98c.15,.15,.15,.4,0,.55h0s-.97,.97-.97,.97c-1.99,1.99-5.21,1.99-7.19,0s-1.99-5.21,0-7.19l2.36-2.36c1.9-1.9,4.96-1.99,6.98-.21,.16,.14,.18,.39,.03,.55s-.39,.18-.55,.03h0c-1.7-1.51-4.29-1.44-5.9,.17l-2.36,2.36c-1.68,1.68-1.68,4.41,0,6.09s4.41,1.68,6.09,0h0l.97-.97c.15-.15,.4-.15,.55,0h0Zm6.85-13.5c-1.99-1.98-5.21-1.98-7.19,0l-.97,.97c-.15,.15-.15,.4,0,.56s.4,.15,.56,0l.97-.97c1.68-1.68,4.41-1.68,6.09,0s1.68,4.41,0,6.09l-2.36,2.36c-1.61,1.61-4.2,1.69-5.9,.17-.16-.14-.41-.13-.55,.03-.14,.16-.13,.41,.03,.55h0c2.01,1.79,5.07,1.7,6.98-.21l2.36-2.36c1.98-1.99,1.98-5.21,0-7.2h0Z"/><path id="link-open" d="M19.83,3H4.17c-.65,0-1.17,.53-1.17,1.17v15.65c0,.65,.53,1.17,1.17,1.17h15.65c.65,0,1.17-.53,1.17-1.17V4.17c0-.65-.53-1.17-1.17-1.17Zm.39,16.83c0,.22-.18,.39-.39,.39H4.17c-.22,0-.39-.18-.39-.39V4.17c0-.22,.18-.39,.39-.39h15.65c.22,0,.39,.18,.39,.39v15.65Zm-4.7-10.96v4.7c0,.22-.18,.39-.39,.39s-.39-.18-.39-.39v-3.75l-5.59,5.59c-.15,.15-.4,.15-.55,0s-.15-.4,0-.55l5.59-5.59h-3.75c-.22,0-.39-.18-.39-.39s.18-.39,.39-.39h4.7c.22,0,.39,.18,.39,.39Z"/><path id="list" d="M21.02,12.39c0,.22-.18,.39-.39,.39H9.68c-.22,0-.39-.18-.39-.39s.18-.39,.39-.39h10.96c.22,0,.39,.18,.39,.39ZM9.68,6.52h10.96c.22,0,.39-.18,.39-.39s-.18-.39-.39-.39H9.68c-.22,0-.39,.18-.39,.39s.18,.39,.39,.39Zm10.96,11.74H9.68c-.22,0-.39,.18-.39,.39s.18,.39,.39,.39h10.96c.22,0,.39-.18,.39-.39s-.18-.39-.39-.39ZM3.59,4.92l1-.5v5.63c0,.22,.18,.39,.39,.39s.39-.18,.39-.39V3.78c0-.22-.17-.39-.39-.39-.06,0-.12,.01-.18,.04l-1.57,.78c-.19,.1-.27,.33-.18,.53,.1,.19,.33,.27,.53,.18Zm2.96,14.91h-2.35l2.33-3.12c.32-.41,.46-.93,.39-1.45-.07-.52-.36-.99-.78-1.3-.88-.64-2.12-.47-2.8,.38-.12,.16-.22,.34-.29,.53-.06,.21,.07,.42,.28,.48,.18,.05,.38-.04,.46-.21,.04-.11,.1-.22,.17-.31,.42-.52,1.17-.63,1.72-.23,.26,.18,.43,.46,.47,.78,.04,.31-.04,.62-.24,.87l-2.81,3.76c-.13,.17-.09,.42,.08,.55,.07,.05,.15,.08,.23,.08h3.13c.22,0,.39-.18,.39-.39s-.18-.39-.39-.39Z"/><path id="lock" d="M19.69,8.92h-3.46v-2.69c0-2.34-1.89-4.23-4.23-4.23s-4.23,1.89-4.23,4.23v2.69h-3.46c-.64,0-1.15,.52-1.15,1.15v10.77c0,.64,.52,1.15,1.15,1.15h15.38c.64,0,1.15-.52,1.15-1.15V10.08c0-.64-.52-1.15-1.15-1.15Zm-11.15-2.69c0-1.91,1.55-3.46,3.46-3.46s3.46,1.55,3.46,3.46v2.69h-6.92v-2.69Zm11.54,14.62c0,.21-.17,.38-.38,.38H4.31c-.21,0-.38-.17-.38-.38V10.08c0-.21,.17-.38,.38-.38h15.38c.21,0,.38,.17,.38,.38v10.77Zm-7.31-5.38c0,.42-.34,.77-.77,.77s-.77-.34-.77-.77,.34-.77,.77-.77,.77,.34,.77,.77Z"/><path id="menu" d="M21,12c0,.22-.18,.39-.39,.39H3.39c-.22,0-.39-.18-.39-.39s.18-.39,.39-.39H20.61c.22,0,.39,.18,.39,.39ZM3.39,6.13H20.61c.22,0,.39-.18,.39-.39s-.18-.39-.39-.39H3.39c-.22,0-.39,.18-.39,.39s.18,.39,.39,.39Zm17.22,11.74H3.39c-.22,0-.39,.18-.39,.39s.18,.39,.39,.39H20.61c.22,0,.39-.18,.39-.39s-.18-.39-.39-.39Z"/><path id="menu-more" d="M5.68,4.84c0,.47-.38,.84-.84,.84s-.84-.38-.84-.84,.38-.84,.84-.84,.84,.38,.84,.84Zm6.32-.84c-.47,0-.84,.38-.84,.84s.38,.84,.84,.84,.84-.38,.84-.84-.38-.84-.84-.84Zm7.16,1.68c.47,0,.84-.38,.84-.84s-.38-.84-.84-.84-.84,.38-.84,.84,.38,.84,.84,.84ZM4.84,11.16c-.47,0-.84,.38-.84,.84s.38,.84,.84,.84,.84-.38,.84-.84-.38-.84-.84-.84Zm7.16,0c-.47,0-.84,.38-.84,.84s.38,.84,.84,.84,.84-.38,.84-.84-.38-.84-.84-.84Zm7.16,0c-.47,0-.84,.38-.84,.84s.38,.84,.84,.84,.84-.38,.84-.84-.38-.84-.84-.84Zm-14.32,7.16c-.47,0-.84,.38-.84,.84s.38,.84,.84,.84,.84-.38,.84-.84-.38-.84-.84-.84Zm7.16,0c-.47,0-.84,.38-.84,.84s.38,.84,.84,.84,.84-.38,.84-.84-.38-.84-.84-.84Zm7.16,0c-.47,0-.84,.38-.84,.84s.38,.84,.84,.84,.84-.38,.84-.84-.38-.84-.84-.84Z"/><path id="more" d="M12.84,12c0,.47-.38,.84-.84,.84s-.84-.38-.84-.84,.38-.84,.84-.84,.84,.38,.84,.84Zm-8-.84c-.47,0-.84,.38-.84,.84s.38,.84,.84,.84,.84-.38,.84-.84-.38-.84-.84-.84Zm14.32,0c-.47,0-.84,.38-.84,.84s.38,.84,.84,.84,.84-.38,.84-.84-.38-.84-.84-.84Z"/><path id="more-vertical" d="M12,12.84c-.47,0-.84-.38-.84-.84s.38-.84,.84-.84,.84,.38,.84,.84-.38,.84-.84,.84Zm.84-8c0-.47-.38-.84-.84-.84s-.84,.38-.84,.84,.38,.84,.84,.84,.84-.38,.84-.84Zm0,14.32c0-.47-.38-.84-.84-.84s-.84,.38-.84,.84,.38,.84,.84,.84,.84-.38,.84-.84Z"/><path id="page" d="M19.67,8.03L14.48,2.85c-.07-.07-.16-.11-.26-.11H5.33c-.61,0-1.11,.5-1.11,1.11V20.15c0,.61,.5,1.11,1.11,1.11h13.33c.61,0,1.11-.5,1.11-1.11V8.3c0-.1-.04-.19-.11-.26Zm-5.08-4.03l3.92,3.92h-3.92v-3.92Zm4.07,16.51H5.33c-.2,0-.37-.17-.37-.37V3.85c0-.2,.17-.37,.37-.37H13.85v4.81c0,.2,.17,.37,.37,.37h4.81v11.48c0,.2-.17,.37-.37,.37Zm-3.33-7.78c0,.2-.17,.37-.37,.37h-5.93c-.2,0-.37-.17-.37-.37s.17-.37,.37-.37h5.93c.2,0,.37,.17,.37,.37Zm0,2.96c0,.2-.17,.37-.37,.37h-5.93c-.2,0-.37-.17-.37-.37s.17-.37,.37-.37h5.93c.2,0,.37,.17,.37,.37Z"/><path id="pin" d="M19.86,14.86h-1.13l-2.02-11.43h1c.2,0,.36-.16,.36-.36s-.16-.36-.36-.36H6.29c-.2,0-.36,.16-.36,.36s.16,.36,.36,.36h1l-2.02,11.43h-1.13c-.2,0-.36,.16-.36,.36s.16,.36,.36,.36h7.5v5.36c0,.2,.16,.36,.36,.36s.36-.16,.36-.36v-5.36h7.5c.2,0,.36-.16,.36-.36s-.16-.36-.36-.36ZM8.01,3.43h7.97l2.02,11.43H6L8.01,3.43Z"/><path id="read-more" d="M17.56,10.52c0,.2-.17,.37-.37,.37h-7.41c-.2,0-.37-.17-.37-.37s.17-.37,.37-.37h7.41c.2,0,.37,.17,.37,.37Zm-.37,2.59h-7.41c-.2,0-.37,.17-.37,.37s.17,.37,.37,.37h7.41c.2,0,.37-.17,.37-.37s-.17-.37-.37-.37Zm4.81-7.04v11.11c0,1.02-.83,1.85-1.85,1.85H3.85c-1.02,0-1.85-.82-1.85-1.84V8.3c0-.2,.17-.37,.37-.37s.37,.17,.37,.37v8.89c0,.61,.5,1.11,1.11,1.11s1.11-.5,1.11-1.11V6.07c0-.61,.5-1.11,1.11-1.11h14.81c.61,0,1.11,.5,1.11,1.11Zm-.74,0c0-.2-.17-.37-.37-.37H6.07c-.2,0-.37,.17-.37,.37v11.11c0,.4-.13,.79-.37,1.11h14.81c.61,0,1.11-.5,1.11-1.11V6.07Z"/><path id="reload" d="M2,12c0-3.75,3.05-6.8,6.8-6.8h11.83l-1.72-1.72c-.16-.16-.16-.41,0-.57,.16-.16,.41-.16,.57,0h0l2.4,2.4c.16,.16,.16,.41,0,.57,0,0,0,0,0,0l-2.4,2.4c-.16,.16-.41,.16-.57,0s-.16-.41,0-.57l1.72-1.72H8.8c-3.31,0-6,2.69-6,6,0,.22-.18,.4-.4,.4s-.4-.18-.4-.4Zm19.6-.4c-.22,0-.4,.18-.4,.4,0,3.31-2.69,6-6,6H3.37l1.72-1.72c.16-.16,.16-.41,0-.57-.16-.16-.41-.16-.57,0l-2.4,2.4c-.16,.16-.16,.41,0,.57,0,0,0,0,0,0l2.4,2.4c.16,.16,.41,.16,.57,0,.16-.16,.16-.41,0-.57l-1.72-1.72H15.2c3.75,0,6.8-3.05,6.8-6.8,0-.22-.18-.4-.4-.4Z"/><path id="search" d="M20.19,19.97l-4.39-4.39c2.6-2.86,2.39-7.29-.47-9.89-2.86-2.6-7.29-2.39-9.89,.47-2.6,2.86-2.39,7.29,.47,9.89,2.67,2.43,6.75,2.43,9.42,0l4.39,4.39c.13,.13,.34,.13,.47,0s.13-.34,0-.47ZM4.31,10.89c0-3.49,2.83-6.33,6.33-6.33s6.33,2.83,6.33,6.33-2.83,6.33-6.33,6.33c-3.49,0-6.32-2.83-6.33-6.33Z"/><path id="settings" d="M12,7.95c-2.24,0-4.05,1.81-4.05,4.05s1.81,4.05,4.05,4.05,4.05-1.81,4.05-4.05c0-2.24-1.81-4.05-4.05-4.05Zm0,7.36c-1.83,0-3.31-1.48-3.31-3.31s1.48-3.31,3.31-3.31,3.31,1.48,3.31,3.31-1.48,3.31-3.31,3.31Zm7.73-2.99c0-.22,0-.43,0-.64l1.46-1.82c.07-.09,.1-.21,.07-.32-.22-.82-.54-1.6-.97-2.33-.06-.1-.16-.17-.28-.18l-2.32-.26c-.15-.16-.3-.31-.46-.46l-.26-2.32c-.01-.12-.08-.22-.18-.28-.73-.42-1.51-.75-2.32-.97-.11-.03-.23,0-.32,.07l-1.82,1.46c-.22,0-.43,0-.64,0l-1.82-1.46c-.09-.07-.21-.1-.32-.07-.81,.22-1.6,.54-2.33,.97-.1,.06-.17,.16-.18,.28l-.26,2.32c-.16,.15-.31,.3-.46,.46l-2.32,.26c-.12,.01-.22,.08-.28,.18-.42,.73-.75,1.51-.97,2.32-.03,.11,0,.23,.07,.32l1.46,1.82c0,.22,0,.43,0,.64l-1.46,1.82c-.07,.09-.1,.21-.07,.32,.22,.81,.54,1.6,.97,2.33,.06,.1,.16,.17,.28,.18l2.32,.26c.15,.16,.3,.31,.46,.46l.26,2.32c.01,.12,.08,.22,.18,.28,.73,.42,1.51,.75,2.33,.96,.11,.03,.23,0,.32-.07l1.82-1.46c.22,0,.43,0,.64,0l1.82,1.46c.07,.05,.15,.08,.23,.08,.03,0,.06,0,.09-.01,.82-.22,1.6-.54,2.33-.97,.1-.06,.17-.16,.18-.28l.26-2.32c.16-.15,.31-.3,.46-.46l2.32-.26c.12-.01,.22-.08,.28-.18,.42-.73,.75-1.51,.96-2.33,.03-.11,0-.23-.07-.32l-1.46-1.82Zm.02,3.94l-2.27,.25c-.09,.01-.17,.05-.23,.12-.19,.21-.39,.41-.6,.6-.07,.06-.11,.14-.12,.23l-.25,2.27c-.57,.32-1.18,.57-1.81,.75l-1.78-1.43c-.07-.05-.15-.08-.23-.08h-.02c-.28,.02-.56,.02-.84,0-.09,0-.18,.02-.25,.08l-1.78,1.43c-.63-.18-1.24-.43-1.81-.75l-.25-2.27c-.01-.09-.05-.17-.12-.23-.21-.19-.41-.39-.6-.6-.06-.07-.14-.11-.23-.12l-2.27-.25c-.32-.57-.57-1.18-.75-1.81l1.43-1.78c.06-.07,.09-.16,.08-.25-.02-.28-.02-.56,0-.84,0-.09-.02-.18-.08-.25l-1.43-1.78c.18-.63,.43-1.24,.75-1.81l2.27-.25c.09-.01,.17-.05,.23-.12,.19-.21,.39-.41,.6-.6,.07-.06,.11-.14,.12-.23l.25-2.27c.57-.32,1.18-.57,1.81-.75l1.78,1.43c.07,.06,.16,.09,.25,.08,.28-.02,.56-.02,.84,0,.09,0,.18-.02,.25-.08l1.78-1.43c.63,.18,1.24,.43,1.81,.75l.25,2.27c.01,.09,.05,.17,.12,.23,.21,.19,.41,.39,.6,.6,.06,.07,.14,.11,.23,.12l2.27,.25c.32,.57,.57,1.18,.75,1.81l-1.43,1.78c-.06,.07-.09,.16-.08,.25,.02,.28,.02,.56,0,.84,0,.09,.02,.18,.08,.25l1.43,1.78c-.18,.63-.43,1.24-.75,1.81Z"/><path id="share" d="M20.89,9.37l-4.32,4.32c-.14,.14-.37,.14-.51,0s-.14-.37,0-.51l3.71-3.71h-4.44c-3.78,0-7.08,2.55-8.02,6.21-.04,.16-.19,.27-.35,.27-.03,0-.06,0-.09-.01-.19-.05-.31-.25-.26-.44,1.02-3.98,4.61-6.75,8.72-6.75h4.44l-3.71-3.71c-.14-.14-.14-.37,0-.51,.14-.14,.37-.14,.51,0h0l4.32,4.32c.14,.14,.14,.37,0,.51,0,0,0,0,0,0Zm-3.13,9.47H4.08c-.2,0-.36-.16-.36-.36V7.68c0-.2-.16-.36-.36-.36s-.36,.16-.36,.36v10.8c0,.6,.48,1.08,1.08,1.08h13.68c.2,0,.36-.16,.36-.36s-.16-.36-.36-.36Z"/><path id="sort-ascending" d="M10.83,11.22c0,.22-.18,.39-.39,.39H3.39c-.22,0-.39-.18-.39-.39s.18-.39,.39-.39h7.04c.22,0,.39,.18,.39,.39ZM3.39,5.35h13.3c.22,0,.39-.18,.39-.39s-.18-.39-.39-.39H3.39c-.22,0-.39,.18-.39,.39s.18,.39,.39,.39Zm5.48,11.74H3.39c-.22,0-.39,.18-.39,.39s.18,.39,.39,.39h5.48c.22,0,.39-.18,.39-.39s-.18-.39-.39-.39Zm12.02-2.23c-.15-.15-.4-.15-.55,0h0s-3.24,3.25-3.24,3.25V9.65c0-.22-.18-.39-.39-.39s-.39,.18-.39,.39v8.45l-3.24-3.24c-.15-.15-.4-.15-.55,0s-.15,.4,0,.55l3.91,3.91c.15,.15,.4,.15,.55,0h0s3.91-3.91,3.91-3.91c.15-.15,.15-.4,0-.55h0Z"/><path id="sort-descending" d="M10.83,11.22c0,.22-.18,.39-.39,.39H3.39c-.22,0-.39-.18-.39-.39s.18-.39,.39-.39h7.04c.22,0,.39,.18,.39,.39ZM3.39,5.35h13.3c.22,0,.39-.18,.39-.39s-.18-.39-.39-.39H3.39c-.22,0-.39,.18-.39,.39s.18,.39,.39,.39Zm5.48,11.74H3.39c-.22,0-.39,.18-.39,.39s.18,.39,.39,.39h5.48c.22,0,.39-.18,.39-.39s-.18-.39-.39-.39Zm3.64-3.24c.15,.15,.4,.15,.55,0h0s3.24-3.25,3.24-3.25v8.45c0,.22,.18,.39,.39,.39s.39-.18,.39-.39V10.6l3.24,3.24c.15,.15,.4,.15,.55,0s.15-.4,0-.55l-3.91-3.91c-.15-.15-.4-.15-.55,0h0s-3.91,3.91-3.91,3.91c-.15,.15-.15,.4,0,.55h0Z"/><path id="star" d="M21.94,9.64c-.13-.43-.51-.73-.96-.76l-5.5-.48c-.14-.01-.25-.1-.31-.23l-2.15-5.12c-.24-.56-.88-.83-1.45-.6-.27,.11-.48,.33-.6,.6l-2.15,5.12c-.05,.13-.17,.21-.31,.23l-5.5,.48c-.61,.05-1.07,.59-1.02,1.2,.02,.29,.16,.56,.38,.75l4.18,3.64c.11,.09,.15,.23,.12,.37l-1.25,5.42c-.11,.44,.07,.89,.43,1.16,.36,.26,.84,.28,1.22,.05l4.73-2.87c.12-.07,.26-.07,.38,0l4.73,2.87c.53,.32,1.21,.14,1.52-.38,.15-.25,.19-.54,.13-.82l-1.25-5.42c-.03-.14,.01-.28,.12-.37l4.18-3.64c.34-.29,.47-.76,.33-1.19Zm-.81,.63l-4.18,3.64c-.31,.27-.45,.69-.35,1.09l1.25,5.42c.04,.15-.02,.3-.14,.39-.12,.09-.28,.09-.4,.02l-4.73-2.87c-.35-.21-.79-.21-1.15,0l-4.73,2.87c-.12,.08-.28,.07-.4-.02-.12-.09-.18-.24-.14-.39l1.25-5.42c.09-.4-.04-.82-.35-1.09l-4.18-3.64c-.12-.1-.16-.26-.11-.4,.05-.14,.17-.24,.32-.25l5.5-.48c.41-.04,.77-.3,.93-.68l2.15-5.13c.08-.19,.3-.27,.49-.19,.08,.04,.15,.1,.19,.19l2.15,5.13c.16,.38,.52,.64,.93,.68l5.5,.48c.15,.01,.27,.11,.32,.25,.05,.14,0,.3-.11,.4Z"/><path id="translate" d="M21.96,20.35l-5.19-10.37c-.09-.18-.31-.26-.5-.17-.07,.04-.13,.09-.17,.17l-2.12,4.24c-1.88-.05-3.69-.72-5.14-1.91,1.69-1.65,2.68-3.88,2.77-6.24h2.6c.2,0,.37-.17,.37-.37s-.17-.37-.37-.37h-5.56v-1.85c0-.2-.17-.37-.37-.37s-.37,.17-.37,.37v1.85H2.37c-.2,0-.37,.17-.37,.37s.17,.37,.37,.37H10.88c-.09,2.18-1.02,4.23-2.58,5.75-.95-.91-1.67-2.04-2.11-3.28-.06-.2-.27-.3-.46-.24-.2,.06-.3,.27-.24,.46,0,0,0,.02,0,.02,.47,1.33,1.24,2.53,2.25,3.52-1.52,1.24-3.41,1.91-5.37,1.91-.2,0-.37,.17-.37,.37s.17,.37,.37,.37c2.17,0,4.26-.76,5.93-2.15,1.51,1.26,3.38,2,5.34,2.13l-2.71,5.41c-.09,.18-.02,.41,.17,.5,.18,.09,.41,.02,.5-.17l1.38-2.76h6.95l1.38,2.76c.06,.13,.19,.2,.33,.2,.06,0,.11-.01,.17-.04,.18-.09,.26-.31,.17-.5,0,0,0,0,0,0Zm-8.62-3.17l3.1-6.21,3.1,6.21h-6.21Z"/><path id="verified" d="M20.8,9.92c-.37-.39-.76-.79-.93-1.19-.15-.37-.16-.88-.17-1.43-.01-.83-.03-1.78-.63-2.38s-1.55-.62-2.38-.63c-.54,0-1.06-.02-1.43-.17-.39-.16-.8-.55-1.19-.92-.62-.59-1.26-1.2-2.08-1.2s-1.46,.61-2.08,1.2c-.39,.37-.79,.76-1.19,.93-.37,.15-.88,.16-1.43,.17-.83,.01-1.78,.03-2.38,.63s-.62,1.55-.63,2.38c0,.54-.02,1.06-.17,1.43-.16,.39-.55,.8-.92,1.19-.59,.62-1.2,1.26-1.2,2.08s.61,1.46,1.2,2.08c.37,.39,.76,.79,.93,1.19,.15,.37,.16,.88,.17,1.43,.01,.83,.03,1.78,.63,2.38s1.55,.62,2.38,.63c.54,0,1.06,.02,1.43,.17,.39,.16,.8,.55,1.19,.92,.62,.59,1.26,1.2,2.08,1.2s1.46-.61,2.08-1.2c.39-.37,.79-.76,1.19-.93,.37-.15,.88-.16,1.43-.17,.83-.01,1.78-.03,2.38-.63s.62-1.55,.63-2.38c0-.54,.02-1.06,.17-1.43,.16-.39,.55-.8,.92-1.19,.59-.62,1.2-1.26,1.2-2.08s-.61-1.45-1.21-2.07Zm-.54,3.64c-.42,.44-.86,.89-1.07,1.42-.21,.5-.22,1.11-.23,1.7-.01,.76-.02,1.48-.42,1.87s-1.11,.4-1.87,.42c-.59,0-1.2,.02-1.7,.23-.52,.22-.98,.65-1.42,1.07-.54,.51-1.04,1-1.57,1s-1.03-.49-1.56-1c-.44-.42-.89-.86-1.42-1.07-.5-.21-1.11-.22-1.7-.23-.76-.01-1.48-.02-1.87-.42s-.4-1.11-.42-1.87c0-.59-.02-1.2-.23-1.7-.22-.52-.65-.98-1.07-1.42-.51-.54-1-1.04-1-1.56s.49-1.03,1-1.56c.42-.44,.86-.89,1.07-1.42,.21-.5,.22-1.11,.23-1.7,.01-.76,.02-1.48,.42-1.87s1.11-.4,1.87-.42c.59,0,1.2-.02,1.7-.23,.52-.22,.98-.65,1.42-1.07,.54-.51,1.04-1,1.56-1s1.03,.49,1.56,1c.44,.42,.89,.86,1.42,1.07,.5,.21,1.11,.22,1.7,.23,.76,.01,1.48,.02,1.87,.42s.4,1.11,.42,1.87c0,.59,.02,1.2,.23,1.7,.22,.52,.65,.98,1.07,1.42,.51,.54,1,1.04,1,1.56s-.49,1.03-1,1.56h0Zm-4.29-4.05c.14,.14,.14,.38,0,.52,0,0,0,0,0,0l-5.19,5.19c-.14,.14-.38,.14-.52,0,0,0,0,0,0,0l-2.22-2.22c-.14-.14-.14-.38,0-.52s.38-.14,.52,0l1.96,1.96,4.92-4.92c.14-.14,.38-.14,.52,0,0,0,0,0,0,0h0Z"/><path id="zip" d="M18.09,15.04h-1.74c-.24,0-.43,.19-.43,.43v6.09c0,.24,.19,.43,.43,.43s.43-.19,.43-.43v-1.3h1.3c1.44,0,2.61-1.17,2.61-2.61s-1.17-2.61-2.61-2.61Zm0,4.35h-1.3v-3.48h1.3c.96,0,1.74,.78,1.74,1.74s-.78,1.74-1.74,1.74Zm-5.65-3.91v6.09c0,.24-.19,.43-.43,.43s-.43-.19-.43-.43v-6.09c0-.24,.19-.43,.43-.43s.43,.19,.43,.43Zm-4.41,.22l-3.11,5.43h2.73c.24,0,.43,.19,.43,.43s-.19,.43-.43,.43h-3.48c-.24,0-.44-.19-.44-.43,0-.08,.02-.15,.06-.22l3.11-5.43h-2.73c-.24,0-.43-.19-.43-.43s.19-.43,.43-.43h3.48c.24,0,.44,.19,.44,.43,0,.08-.02,.15-.06,.22Zm12.97-7.48L14.92,2.13c-.08-.08-.19-.13-.31-.13H4.17c-.72,0-1.3,.58-1.3,1.3v7.83c0,.24,.19,.43,.43,.43s.43-.19,.43-.43V3.3c0-.24,.19-.43,.43-.43H14.17v5.65c0,.24,.19,.43,.43,.43h5.65v2.17c0,.24,.19,.43,.43,.43s.43-.19,.43-.43v-2.61c0-.12-.05-.23-.13-.31Zm-5.96-.13V3.48l4.6,4.6h-4.6Z"/></svg>