<?xml version="1.0" encoding="UTF-8"?><svg id="phosphor-bold" xmlns="http://www.w3.org/2000/svg" viewBox="0 0 24 24"><path id="archive" d="M19.45,5.48H4.55c-.86,0-1.55,.69-1.55,1.55v1.86c0,.74,.52,1.37,1.24,1.52v6.55c0,.86,.69,1.55,1.55,1.55h12.41c.86,0,1.55-.69,1.55-1.55v-6.55c.72-.15,1.24-.78,1.24-1.52v-1.86c0-.86-.69-1.55-1.55-1.55Zm-14.59,1.86h14.28v1.24H4.86v-1.24Zm1.24,9.31v-6.21h11.79v6.21H6.1Zm8.69-4.03c0,.51-.42,.93-.93,.93h-3.72c-.51,0-.93-.42-.93-.93s.42-.93,.93-.93h3.72c.51,0,.93,.42,.93,.93Z"/><path id="arrow-left" d="M11.4,5.58c.38,.37,.38,.98,0,1.36,0,0,0,0,0,0l-4.12,4.12h11.76c.53,0,.96,.43,.96,.96s-.43,.96-.96,.96H7.28l4.12,4.12c.38,.38,.38,.98,0,1.36s-.98,.38-1.36,0l-5.76-5.76c-.38-.37-.38-.98,0-1.36,0,0,0,0,0,0l5.76-5.76c.37-.38,.98-.38,1.36,0,0,0,0,0,0,0Z"/><path id="arrow-right" d="M12.6,18.46c-.38-.37-.38-.98,0-1.36,0,0,0,0,0,0l4.12-4.12H4.96c-.53,0-.96-.43-.96-.96s.43-.96,.96-.96h11.76l-4.12-4.12c-.38-.38-.38-.98,0-1.36s.98-.38,1.36,0l5.76,5.76c.38,.37,.38,.98,0,1.36,0,0,0,0,0,0l-5.76,5.76c-.37,.38-.98,.38-1.36,0,0,0,0,0,0,0Z"/><path id="arrow-top" d="M18.43,11.42c-.37,.38-.98,.38-1.36,0,0,0,0,0,0,0l-4.12-4.12v11.76c0,.53-.43,.96-.96,.96s-.96-.43-.96-.96V7.3l-4.12,4.12c-.38,.38-.98,.38-1.36,0s-.38-.98,0-1.36l5.76-5.76c.37-.38,.98-.38,1.36,0,0,0,0,0,0,0l5.76,5.76c.38,.37,.38,.98,0,1.36,0,0,0,0,0,0Z"/><path id="bookmark" d="M17.04,2.95H6.96c-.8,0-1.44,.64-1.44,1.44v15.84c0,.4,.32,.72,.72,.72,.13,0,.27-.04,.38-.11l5.38-3.36,5.38,3.36c.34,.21,.78,.11,.99-.23,.07-.11,.11-.25,.11-.38V4.39c0-.8-.64-1.44-1.44-1.44Z"/><path id="bookmark-add" d="M16.85,2.98H7.15c-.96,0-1.73,.77-1.73,1.73v15.23c0,.57,.46,1.04,1.04,1.04,.19,0,.39-.05,.55-.16l4.99-3.12,4.99,3.12c.49,.3,1.13,.16,1.43-.33,.1-.17,.16-.36,.16-.55V4.71c0-.96-.77-1.73-1.73-1.73Zm-.35,15.09l-3.95-2.47c-.34-.21-.76-.21-1.1,0l-3.95,2.47V5.05h9v13.01Z"/><path id="check" d="M19.73,7.73l-9.84,9.84c-.36,.36-.94,.36-1.31,0,0,0,0,0,0,0l-4.31-4.31c-.36-.36-.36-.95,0-1.31s.95-.36,1.31,0l3.65,3.65L18.42,6.43c.36-.36,.95-.36,1.31,0,.36,.36,.36,.95,0,1.31h0Z"/><path id="clear" d="M19.86,4.96H7.8c-.4,0-.77,.21-.98,.56l-3.74,6.23c-.09,.16-.09,.35,0,.51l3.74,6.23c.21,.34,.58,.56,.98,.56h12.07c.63,0,1.15-.51,1.15-1.15V6.11c0-.63-.51-1.15-1.15-1.15Zm.16,12.93c0,.09-.07,.16-.16,.16H7.8c-.06,0-.11-.03-.14-.08l-3.59-5.97,3.59-5.97c.03-.05,.08-.08,.14-.08h12.07c.09,0,.16,.07,.16,.16v11.78Zm-4.4-7.51l-1.62,1.62,1.62,1.62c.2,.18,.21,.5,.02,.69s-.5,.21-.69,.02c0,0-.02-.02-.02-.02l-1.62-1.62-1.62,1.62c-.2,.18-.51,.17-.69-.02-.18-.19-.18-.48,0-.67l1.62-1.62-1.62-1.62c-.18-.2-.17-.51,.02-.69,.19-.18,.48-.18,.67,0l1.62,1.62,1.62-1.62c.2-.18,.51-.17,.69,.02,.18,.19,.18,.48,0,.67Z"/><path id="clear-rtl" d="M4.56,19.14h11.44c.54,0,1.05-.29,1.33-.75l3.54-5.91c.18-.29,.18-.66,0-.96l-3.54-5.91c-.28-.47-.79-.75-1.33-.75H4.56c-.86,0-1.55,.69-1.55,1.55v11.17c0,.86,.69,1.55,1.55,1.55Zm.31-12.41H15.83l3.17,5.28-3.17,5.28H4.87V6.72Zm8.42,4.07l-1.2,1.2,1.2,1.2c.36,.36,.36,.95,0,1.32s-.95,.36-1.32,0l-1.2-1.2-1.2,1.2c-.36,.36-.95,.36-1.32,0s-.36-.95,0-1.32l1.2-1.2-1.2-1.2c-.36-.36-.36-.95,0-1.32s.95-.36,1.32,0l1.2,1.2,1.2-1.2c.36-.36,.95-.36,1.32,0s.36,.95,0,1.32h0Z"/><path id="close" d="M18.7,17.29c.39,.39,.39,1.03,0,1.42s-1.03,.39-1.42,0l-5.29-5.29-5.29,5.29c-.39,.39-1.03,.39-1.42,0s-.39-1.03,0-1.42l5.29-5.29L5.3,6.71c-.39-.39-.39-1.03,0-1.42,.39-.39,1.03-.39,1.42,0l5.29,5.29,5.29-5.29c.39-.39,1.03-.39,1.42,0,.39,.39,.39,1.03,0,1.42l-5.29,5.29,5.29,5.29Z"/><path id="comment" d="M20.15,2.69H3.85c-1.02,0-1.85,.83-1.85,1.85v11.85c0,1.02,.83,1.85,1.85,1.85h5.3l1.26,2.06c.53,.88,1.66,1.16,2.54,.64,.26-.15,.47-.37,.63-.63l1.27-2.07h5.3c1.02,0,1.85-.83,1.85-1.85V4.54c0-1.02-.83-1.85-1.85-1.85Zm-.37,13.33h-5.14c-.65,0-1.25,.34-1.58,.89l-1.06,1.73-1.06-1.73c-.34-.55-.94-.89-1.59-.89H4.22V4.91h15.56v11.11Zm-11.48-5.56c0-.82,.66-1.48,1.48-1.48s1.48,.66,1.48,1.48-.66,1.48-1.48,1.48-1.48-.66-1.48-1.48Zm4.44,0c0-.82,.66-1.48,1.48-1.48s1.48,.66,1.48,1.48-.66,1.48-1.48,1.48-1.48-.66-1.48-1.48Z"/><path id="comment-text" d="M20.15,2.69H3.85c-1.02,0-1.85,.83-1.85,1.85v11.85c0,1.02,.83,1.85,1.85,1.85h5.3l1.26,2.06c.53,.88,1.66,1.16,2.54,.64,.26-.15,.47-.37,.63-.63l1.27-2.07h5.3c1.02,0,1.85-.83,1.85-1.85V4.54c0-1.02-.83-1.85-1.85-1.85Zm-.37,13.33h-5.14c-.65,0-1.25,.34-1.58,.89l-1.06,1.73-1.06-1.73c-.34-.55-.94-.89-1.59-.89H4.22V4.91h15.56v11.11ZM7.93,8.62c0-.61,.5-1.11,1.11-1.11h5.93c.61,0,1.11,.5,1.11,1.11s-.5,1.11-1.11,1.11h-5.93c-.61,0-1.11-.5-1.11-1.11Zm0,3.7c0-.61,.5-1.11,1.11-1.11h5.93c.61,0,1.11,.5,1.11,1.11s-.5,1.11-1.11,1.11h-5.93c-.61,0-1.11-.5-1.11-1.11Z"/><path id="copy" d="M20.8,2H8c-.66,0-1.2,.54-1.2,1.2v3.6H3.2c-.66,0-1.2,.54-1.2,1.2v12.8c0,.66,.54,1.2,1.2,1.2h12.8c.66,0,1.2-.54,1.2-1.2v-3.6h3.6c.66,0,1.2-.54,1.2-1.2V3.2c0-.66-.54-1.2-1.2-1.2Zm-6,17.6H4.4V9.2H14.8v10.4Zm4.8-4.8h-2.4v-6.8c0-.66-.54-1.2-1.2-1.2h-6.8v-2.4h10.4V14.8Z"/><path id="dark" d="M22.21,9.2c0,.61-.5,1.11-1.11,1.11h-1.11v1.11c0,.61-.5,1.11-1.11,1.11s-1.11-.5-1.11-1.11v-1.11h-1.11c-.61,0-1.11-.5-1.11-1.11s.5-1.11,1.11-1.11h1.11v-1.11c0-.61,.5-1.11,1.11-1.11s1.11,.5,1.11,1.11v1.11h1.11c.61,0,1.11,.5,1.11,1.11Zm-9.26-3.33h.37v.37c0,.61,.5,1.11,1.11,1.11s1.11-.5,1.11-1.11v-.37h.37c.61,0,1.11-.5,1.11-1.11s-.5-1.11-1.11-1.11h-.37v-.37c0-.61-.5-1.11-1.11-1.11s-1.11,.5-1.11,1.11v.37h-.37c-.61,0-1.11,.5-1.11,1.11s.5,1.11,1.11,1.11Zm7.02,8.37c.26,.3,.34,.73,.2,1.1-1.76,4.8-7.08,7.27-11.88,5.51-4.8-1.76-7.27-7.08-5.51-11.88,.94-2.56,2.95-4.57,5.51-5.51,.58-.21,1.21,.09,1.43,.66,.07,.19,.09,.4,.05,.6-.1,.5-.15,1.01-.15,1.52,0,4.3,3.49,7.78,7.78,7.78,.51,0,1.02-.05,1.52-.15,.39-.08,.8,.06,1.06,.37Zm-2.76,2c-5.38-.1-9.71-4.44-9.82-9.82-3.17,2.26-3.9,6.65-1.65,9.82,2.26,3.17,6.65,3.9,9.82,1.65,.64-.45,1.19-1.01,1.65-1.65Z"/><path id="download" d="M20,13.92v4.48c0,.88-.72,1.6-1.6,1.6H5.6c-.88,0-1.6-.72-1.6-1.6v-4.48c0-.53,.43-.96,.96-.96s.96,.43,.96,.96v4.16h12.16v-4.16c0-.53,.43-.96,.96-.96s.96,.43,.96,.96Zm-8.68,.68c.37,.38,.98,.38,1.36,0,0,0,0,0,0,0l3.2-3.2c.38-.38,.38-.98,0-1.36s-.98-.38-1.36,0l-1.56,1.56V4.96c0-.53-.43-.96-.96-.96s-.96,.43-.96,.96v6.64l-1.56-1.56c-.38-.38-.98-.38-1.36,0s-.38,.98,0,1.36l3.2,3.2Z"/><path id="home" d="M20.1,10.03L13.18,3.5h-.01c-.66-.62-1.67-.62-2.33-.01h-.01S3.9,10.03,3.9,10.03c-.35,.33-.56,.79-.56,1.27v8c0,.96,.77,1.73,1.73,1.73h4.15c.96,0,1.73-.77,1.73-1.73v-3.81h2.08v3.81c0,.96,.77,1.73,1.73,1.73h4.15c.96,0,1.73-.77,1.73-1.73V11.3c0-.48-.2-.94-.56-1.27Zm-1.52,8.93h-3.46v-3.81c0-.96-.77-1.73-1.73-1.73h-2.77c-.96,0-1.73,.77-1.73,1.73v3.81h-3.46v-7.5l6.58-6.21,6.58,6.21v7.5Z"/><path id="label" d="M20.89,7.93h-4.06l.7-3.87c.11-.6-.29-1.18-.89-1.29-.6-.11-1.18,.29-1.29,.89l-.78,4.27h-3.67l.7-3.87c.11-.6-.29-1.18-.89-1.29s-1.18,.29-1.29,.89h0l-.78,4.27H4.59c-.61,0-1.11,.5-1.11,1.11s.5,1.11,1.11,1.11h3.65l-.67,3.7H3.11c-.61,0-1.11,.5-1.11,1.11s.5,1.11,1.11,1.11H7.17l-.7,3.88c-.11,.6,.29,1.18,.89,1.3,0,0,0,0,0,0,.07,.01,.13,.02,.2,.01,.54,0,1-.38,1.09-.91l.78-4.27h3.67l-.7,3.88c-.11,.6,.29,1.18,.89,1.3,0,0,0,0,0,0,.07,.01,.13,.02,.2,.02,.54,0,1-.38,1.09-.91l.78-4.28h4.06c.61,0,1.11-.5,1.11-1.11s-.5-1.11-1.11-1.11h-3.65l.67-3.7h4.46c.61,0,1.11-.5,1.11-1.11s-.5-1.11-1.11-1.11Zm-7.39,5.93h-3.67l.67-3.7h3.67l-.67,3.7Z"/><path id="light" d="M11.03,4.26v-1.29c0-.53,.43-.97,.97-.97s.97,.43,.97,.97v1.29c0,.53-.43,.97-.97,.97s-.97-.43-.97-.97Zm6.45,7.74c0,3.03-2.46,5.48-5.48,5.48s-5.48-2.46-5.48-5.48,2.46-5.48,5.48-5.48c3.03,0,5.48,2.46,5.48,5.48Zm-1.94,0c0-1.96-1.59-3.55-3.55-3.55s-3.55,1.59-3.55,3.55,1.59,3.55,3.55,3.55c1.96,0,3.55-1.59,3.55-3.55ZM5.83,7.2c.38,.38,.99,.38,1.37,0s.38-.99,0-1.37l-.97-.97c-.38-.38-.99-.38-1.37,0s-.38,.99,0,1.37l.97,.97Zm0,9.6l-.97,.97c-.38,.38-.38,.99,0,1.37s.99,.38,1.37,0l.97-.97c.38-.38,.38-.99,0-1.37s-.99-.38-1.37,0ZM17.48,7.48c.26,0,.5-.1,.68-.28l.97-.97c.38-.38,.38-.99,0-1.37s-.99-.38-1.37,0l-.97,.97c-.38,.38-.38,.99,0,1.37,.18,.18,.43,.29,.69,.29Zm.68,9.32c-.38-.38-.99-.38-1.37,0s-.38,.99,0,1.37h0l.97,.97c.38,.38,.99,.38,1.37,0s.38-.99,0-1.37l-.97-.97ZM5.23,12c0-.53-.43-.97-.97-.97h-1.29c-.53,0-.97,.43-.97,.97s.43,.97,.97,.97h1.29c.53,0,.97-.43,.97-.97Zm6.77,6.77c-.53,0-.97,.43-.97,.97v1.29c0,.53,.43,.97,.97,.97s.97-.43,.97-.97v-1.29c0-.53-.43-.97-.97-.97Zm9.03-7.74h-1.29c-.53,0-.97,.43-.97,.97s.43,.97,.97,.97h1.29c.53,0,.97-.43,.97-.97s-.43-.97-.97-.97Z"/><path id="link" d="M12.75,17.35c.42,.42,.42,1.1,0,1.53,0,0,0,0,0,0l-.53,.53c-2.11,2.11-5.53,2.11-7.64,0-2.11-2.11-2.11-5.53,0-7.64l2.17-2.17c2.02-2.03,5.27-2.12,7.41-.22,.45,.4,.49,1.08,.09,1.53s-1.08,.49-1.53,.09c-1.28-1.14-3.23-1.08-4.44,.13l-2.17,2.17c-1.27,1.27-1.27,3.32,0,4.58,1.27,1.27,3.32,1.27,4.58,0l.53-.53c.42-.42,1.1-.42,1.53,0,0,0,0,0,0,0Zm6.66-12.78c-2.11-2.11-5.53-2.11-7.64,0l-.53,.53c-.42,.42-.42,1.11,0,1.53s1.11,.42,1.53,0l.53-.53c1.27-1.27,3.32-1.27,4.58,0s1.27,3.32,0,4.58l-2.17,2.17c-1.21,1.21-3.16,1.27-4.44,.13-.45-.4-1.13-.36-1.53,.09s-.36,1.13,.09,1.53h0c2.14,1.9,5.38,1.8,7.4-.22l2.17-2.17c2.11-2.11,2.11-5.53,0-7.64h0Z"/><path id="link-open" d="M19.2,3H4.8c-.99,0-1.8,.81-1.8,1.8v14.4c0,.99,.81,1.8,1.8,1.8h14.4c.99,0,1.8-.81,1.8-1.8V4.8c0-.99-.81-1.8-1.8-1.8Zm-.36,15.84H5.16V5.16h13.68v13.68Zm-10.48-3.2c-.42-.42-.42-1.1,0-1.53,0,0,0,0,0,0l3.91-3.91h-1.71c-.6,0-1.08-.48-1.08-1.08s.48-1.08,1.08-1.08h4.32c.6,0,1.08,.48,1.08,1.08v4.32c0,.6-.48,1.08-1.08,1.08s-1.08-.48-1.08-1.08v-1.71l-3.92,3.92c-.42,.42-1.1,.42-1.53,0,0,0,0,0,0,0h0Z"/><path id="list" d="M21.02,12.36c0,.6-.48,1.08-1.08,1.08H10.94c-.6,0-1.08-.48-1.08-1.08s.48-1.08,1.08-1.08h9c.6,0,1.08,.48,1.08,1.08ZM10.94,7.68h9c.6,0,1.08-.48,1.08-1.08s-.48-1.08-1.08-1.08H10.94c-.6,0-1.08,.48-1.08,1.08s.48,1.08,1.08,1.08Zm9,9.36H10.94c-.6,0-1.08,.48-1.08,1.08s.48,1.08,1.08,1.08h9c.6,0,1.08-.48,1.08-1.08s-.48-1.08-1.08-1.08ZM4.46,6.18v4.02c0,.6,.48,1.08,1.08,1.08s1.08-.48,1.08-1.08V4.44c0-.6-.48-1.08-1.08-1.08-.17,0-.33,.04-.48,.11l-1.44,.72c-.53,.28-.73,.93-.45,1.46,.25,.46,.79,.68,1.29,.52h0Zm3.58,8.72c-.09-.67-.46-1.28-1.01-1.68-1.13-.82-2.7-.6-3.57,.49-.16,.21-.29,.43-.38,.68-.2,.56,.1,1.18,.66,1.38,.55,.19,1.16-.09,1.37-.64,.01-.03,.03-.06,.05-.09,.14-.18,.4-.21,.59-.07,.08,.05,.13,.14,.14,.23,.01,.09-.01,.18-.07,.25v.02s-2.59,3.45-2.59,3.45c-.36,.48-.26,1.15,.22,1.51,.19,.14,.41,.21,.65,.21h2.88c.6,0,1.08-.48,1.08-1.08s-.48-1.08-1.08-1.08h-.72l1.29-1.72c.41-.53,.59-1.2,.49-1.86Z"/><path id="lock" d="M19.14,8.43h-2.5v-1.79c0-2.56-2.08-4.64-4.64-4.64s-4.64,2.08-4.64,4.64v1.79h-2.5c-.99,0-1.79,.8-1.79,1.79v10c0,.99,.8,1.79,1.79,1.79h14.29c.99,0,1.79-.8,1.79-1.79V10.21c0-.99-.8-1.79-1.79-1.79Zm-9.64-1.79c0-1.38,1.12-2.5,2.5-2.5s2.5,1.12,2.5,2.5v1.79h-5v-1.79Zm9.29,13.21H5.21V10.57h13.57v9.29Zm-5.36-4.64c0,.79-.64,1.43-1.43,1.43s-1.43-.64-1.43-1.43,.64-1.43,1.43-1.43,1.43,.64,1.43,1.43Z"/><path id="menu" d="M21,12c0,.6-.48,1.08-1.08,1.08H4.08c-.6,0-1.08-.48-1.08-1.08s.48-1.08,1.08-1.08h15.84c.6,0,1.08,.48,1.08,1.08ZM4.08,7.32h15.84c.6,0,1.08-.48,1.08-1.08s-.48-1.08-1.08-1.08H4.08c-.6,0-1.08,.48-1.08,1.08s.48,1.08,1.08,1.08Zm15.84,9.36H4.08c-.6,0-1.08,.48-1.08,1.08s.48,1.08,1.08,1.08h15.84c.6,0,1.08-.48,1.08-1.08s-.48-1.08-1.08-1.08Z"/><path id="menu-more" d="M7.05,5.52c0,.84-.68,1.52-1.52,1.52s-1.52-.68-1.52-1.52,.68-1.52,1.52-1.52,1.52,.68,1.52,1.52Zm4.95-1.52c-.84,0-1.52,.68-1.52,1.52s.68,1.52,1.52,1.52,1.52-.68,1.52-1.52-.68-1.52-1.52-1.52Zm6.48,3.05c.84,0,1.52-.68,1.52-1.52s-.68-1.52-1.52-1.52-1.52,.68-1.52,1.52,.68,1.52,1.52,1.52Zm-12.95,3.43c-.84,0-1.52,.68-1.52,1.52s.68,1.52,1.52,1.52,1.52-.68,1.52-1.52-.68-1.52-1.52-1.52Zm6.48,0c-.84,0-1.52,.68-1.52,1.52s.68,1.52,1.52,1.52,1.52-.68,1.52-1.52-.68-1.52-1.52-1.52Zm6.48,0c-.84,0-1.52,.68-1.52,1.52s.68,1.52,1.52,1.52,1.52-.68,1.52-1.52-.68-1.52-1.52-1.52Zm-12.95,6.48c-.84,0-1.52,.68-1.52,1.52s.68,1.52,1.52,1.52,1.52-.68,1.52-1.52-.68-1.52-1.52-1.52Zm6.48,0c-.84,0-1.52,.68-1.52,1.52s.68,1.52,1.52,1.52,1.52-.68,1.52-1.52-.68-1.52-1.52-1.52Zm6.48,0c-.84,0-1.52,.68-1.52,1.52s.68,1.52,1.52,1.52,1.52-.68,1.52-1.52-.68-1.52-1.52-1.52Z"/><path id="more" d="M13.52,12c0,.84-.68,1.52-1.52,1.52s-1.52-.68-1.52-1.52,.68-1.52,1.52-1.52,1.52,.68,1.52,1.52Zm-8-1.52c-.84,0-1.52,.68-1.52,1.52s.68,1.52,1.52,1.52,1.52-.68,1.52-1.52-.68-1.52-1.52-1.52Zm12.95,0c-.84,0-1.52,.68-1.52,1.52s.68,1.52,1.52,1.52,1.52-.68,1.52-1.52-.68-1.52-1.52-1.52Z"/><path id="more-vertical" d="M12,13.52c-.84,0-1.52-.68-1.52-1.52s.68-1.52,1.52-1.52,1.52,.68,1.52,1.52-.68,1.52-1.52,1.52Zm1.52-8c0-.84-.68-1.52-1.52-1.52s-1.52,.68-1.52,1.52,.68,1.52,1.52,1.52,1.52-.68,1.52-1.52Zm0,12.95c0-.84-.68-1.52-1.52-1.52s-1.52,.68-1.52,1.52,.68,1.52,1.52,1.52,1.52-.68,1.52-1.52Z"/><path id="page" d="M20.19,7.51L15.01,2.33c-.21-.21-.49-.33-.79-.33H5.33c-1.02,0-1.85,.83-1.85,1.85V20.15c0,1.02,.83,1.85,1.85,1.85h13.33c1.02,0,1.85-.83,1.85-1.85V8.3c0-.29-.12-.58-.32-.79Zm-5.23-2.09l2.13,2.13h-2.13v-2.13ZM5.7,19.78V4.22h7.04v4.44c0,.61,.5,1.11,1.11,1.11h4.44v10H5.7Zm10.37-7.41c0,.61-.5,1.11-1.11,1.11h-5.93c-.61,0-1.11-.5-1.11-1.11s.5-1.11,1.11-1.11h5.93c.61,0,1.11,.5,1.11,1.11Zm0,3.7c0,.61-.5,1.11-1.11,1.11h-5.93c-.61,0-1.11-.5-1.11-1.11s.5-1.11,1.11-1.11h5.93c.61,0,1.11,.5,1.11,1.11Z"/><path id="pin" d="M19.86,14.14h-.53l-1.77-10h.15c.59,0,1.07-.48,1.07-1.07s-.48-1.07-1.07-1.07H6.29c-.59,0-1.07,.48-1.07,1.07s.48,1.07,1.07,1.07h.15l-1.77,10h-.53c-.59,0-1.07,.48-1.07,1.07s.48,1.07,1.07,1.07h6.79v4.64c0,.59,.48,1.07,1.07,1.07s1.07-.48,1.07-1.07v-4.64h6.79c.59,0,1.07-.48,1.07-1.07s-.48-1.07-1.07-1.07ZM8.61,4.14h6.77l1.77,10H6.85l1.77-10Z"/><path id="read-more" d="M9.59,10.28c0-.57,.46-1.03,1.03-1.03h6.21c.57,0,1.03,.46,1.03,1.03s-.46,1.03-1.03,1.03h-6.21c-.57,0-1.03-.46-1.03-1.03Zm1.03,4.48h6.21c.57,0,1.03-.46,1.03-1.03s-.46-1.03-1.03-1.03h-6.21c-.57,0-1.03,.46-1.03,1.03s.46,1.03,1.03,1.03ZM22,6.48v10.34c0,1.33-1.08,2.41-2.41,2.41H4.76c-1.52,0-2.76-1.24-2.76-2.76v-7.93c0-.57,.46-1.03,1.03-1.03s1.03,.46,1.03,1.03v7.93c0,.38,.31,.69,.69,.69s.69-.31,.69-.69V6.48c0-.95,.77-1.72,1.72-1.72h13.1c.95,0,1.72,.77,1.72,1.72Zm-2.07,.34H7.52v9.66c0,.23-.03,.46-.09,.69h12.16c.19,0,.34-.15,.34-.34V6.83Z"/><path id="reload" d="M2,12c0-3.88,3.15-7.03,7.04-7.04h9.17l-.33-.32c-.43-.43-.43-1.14,0-1.57s1.14-.43,1.57,0l2.22,2.22c.43,.43,.44,1.14,0,1.57,0,0,0,0,0,0l-2.22,2.22c-.43,.43-1.14,.43-1.57,0s-.43-1.14,0-1.57l.33-.32H9.04c-2.66,0-4.81,2.16-4.81,4.81,0,.61-.5,1.11-1.11,1.11s-1.11-.5-1.11-1.11Zm18.89-1.11c-.61,0-1.11,.5-1.11,1.11,0,2.66-2.16,4.81-4.81,4.81H5.8l.33-.32c.43-.43,.43-1.14,0-1.57s-1.14-.43-1.57,0l-2.22,2.22c-.43,.43-.44,1.14,0,1.57,0,0,0,0,0,0l2.22,2.22c.43,.43,1.14,.43,1.57,0s.43-1.14,0-1.57l-.33-.32H14.96c3.88,0,7.03-3.15,7.04-7.04,0-.61-.5-1.11-1.11-1.11Z"/><path id="search" d="M20.66,19.5l-3.95-3.95c2.58-3.36,1.94-8.17-1.41-10.75-3.36-2.58-8.17-1.94-10.75,1.41-2.58,3.36-1.94,8.17,1.41,10.75,2.75,2.11,6.58,2.11,9.34,0l3.96,3.96c.39,.39,1.02,.39,1.41,0s.39-1.02,0-1.41h0ZM4.98,10.89c0-3.13,2.53-5.66,5.66-5.66s5.66,2.53,5.66,5.66-2.53,5.66-5.66,5.66c-3.12,0-5.66-2.54-5.66-5.66Z"/><path id="settings" d="M12,7.21c-2.64,0-4.79,2.14-4.79,4.79s2.14,4.79,4.79,4.79,4.79-2.14,4.79-4.79c0-2.64-2.14-4.78-4.79-4.79Zm0,7.36c-1.42,0-2.58-1.15-2.58-2.58s1.15-2.58,2.58-2.58,2.58,1.15,2.58,2.58-1.15,2.58-2.58,2.58Zm8.47-2.5v-.15l1.29-1.61c.22-.27,.3-.64,.21-.97-.23-.88-.58-1.72-1.03-2.51-.18-.3-.49-.51-.84-.54l-2.05-.23-.1-.1-.23-2.05c-.04-.35-.24-.66-.54-.84-.79-.46-1.63-.8-2.51-1.04-.34-.09-.7-.01-.97,.21l-1.61,1.29h-.15l-1.61-1.29c-.27-.22-.64-.3-.97-.21-.88,.23-1.72,.58-2.51,1.04-.3,.18-.5,.49-.54,.83l-.23,2.05-.1,.1-2.05,.23c-.35,.04-.66,.24-.84,.54-.45,.79-.8,1.63-1.03,2.51-.09,.34-.01,.7,.21,.97l1.29,1.61v.15l-1.29,1.61c-.22,.27-.3,.64-.21,.97,.23,.88,.58,1.72,1.04,2.51,.18,.3,.49,.5,.83,.54l2.05,.23,.1,.1,.23,2.05c.04,.35,.24,.66,.54,.84,.79,.46,1.63,.8,2.51,1.04,.34,.09,.7,.01,.97-.21l1.61-1.29h.15l1.61,1.29c.27,.22,.64,.3,.97,.21,.88-.23,1.72-.58,2.51-1.03,.3-.18,.51-.49,.54-.83l.23-2.05,.1-.1,2.05-.23c.35-.04,.66-.24,.83-.54,.46-.79,.8-1.63,1.04-2.51,.09-.34,.01-.7-.21-.97l-1.29-1.61Zm-2.22-.45c.01,.25,.01,.5,0,.75-.02,.27,.07,.54,.24,.76l1.18,1.48c-.11,.33-.24,.65-.4,.97l-1.88,.21c-.27,.03-.52,.16-.7,.37-.17,.19-.35,.37-.53,.53-.21,.18-.34,.43-.37,.7l-.21,1.88c-.31,.15-.64,.29-.97,.4l-1.48-1.18c-.2-.16-.44-.24-.69-.24h-.07c-.25,.01-.5,.01-.75,0-.27-.02-.54,.07-.76,.24l-1.48,1.18c-.33-.11-.65-.24-.97-.4l-.21-1.88c-.03-.27-.16-.52-.37-.7-.19-.17-.37-.35-.53-.53-.18-.21-.43-.34-.7-.37l-1.88-.21c-.15-.31-.29-.64-.4-.97l1.18-1.48c.17-.21,.26-.48,.24-.76-.01-.25-.01-.5,0-.75,.02-.27-.07-.54-.24-.76l-1.18-1.48c.11-.33,.24-.65,.4-.97l1.88-.21c.27-.03,.52-.16,.7-.37,.17-.19,.35-.37,.53-.53,.21-.18,.34-.43,.37-.7l.21-1.88c.31-.15,.64-.29,.97-.4l1.48,1.18c.21,.17,.48,.26,.76,.24,.25-.01,.5-.01,.75,0,.27,.02,.54-.07,.76-.24l1.48-1.18c.33,.11,.65,.25,.97,.4l.21,1.88c.03,.27,.16,.52,.37,.7,.19,.17,.37,.35,.53,.53,.18,.21,.43,.34,.7,.37l1.88,.21c.15,.31,.29,.64,.4,.97l-1.18,1.48c-.17,.21-.26,.48-.24,.76Z"/><path id="share" d="M20.7,10.04l-4,4c-.39,.39-1.03,.39-1.42,0s-.39-1.03,0-1.42l2.29-2.29h-2.5c-3.19,0-5.98,2.16-6.78,5.25-.14,.53-.68,.86-1.22,.72-.53-.14-.86-.68-.72-1.22,1.02-3.97,4.61-6.75,8.72-6.75h2.5l-2.29-2.29c-.39-.39-.39-1.03,0-1.42s1.03-.39,1.42,0l4,4c.39,.39,.39,1.02,0,1.41,0,0,0,0,0,0Zm-3.37,7.62H5V8c0-.55-.45-1-1-1s-1,.45-1,1v10c0,.92,.75,1.67,1.67,1.67h12.66c.55,0,1-.45,1-1s-.45-1-1-1Z"/><path id="sort-ascending" d="M3,12.72c0-.6,.48-1.08,1.08-1.08h6.12c.6,0,1.08,.48,1.08,1.08s-.48,1.08-1.08,1.08H4.08c-.6,0-1.08-.48-1.08-1.08Zm1.08-4.68h4.68c.6,0,1.08-.48,1.08-1.08s-.48-1.08-1.08-1.08H4.08c-.6,0-1.08,.48-1.08,1.08s.48,1.08,1.08,1.08Zm11.88,9.36H4.08c-.6,0-1.08,.48-1.08,1.08s.48,1.08,1.08,1.08H15.96c.6,0,1.08-.48,1.08-1.08s-.48-1.08-1.08-1.08Zm-4-6.08l3.6,3.6c.42,.42,1.1,.42,1.53,0,0,0,0,0,0,0l3.6-3.6c.42-.42,.42-1.11,0-1.53s-1.11-.42-1.53,0h0l-1.76,1.76V5.52c0-.6-.48-1.08-1.08-1.08s-1.08,.48-1.08,1.08v6.03l-1.76-1.76c-.42-.42-1.11-.42-1.53,0s-.42,1.11,0,1.53h0Z"/><path id="sort-descending" d="M3,12.72c0-.6,.48-1.08,1.08-1.08h6.12c.6,0,1.08,.48,1.08,1.08s-.48,1.08-1.08,1.08H4.08c-.6,0-1.08-.48-1.08-1.08Zm1.08-4.68h4.68c.6,0,1.08-.48,1.08-1.08s-.48-1.08-1.08-1.08H4.08c-.6,0-1.08,.48-1.08,1.08s.48,1.08,1.08,1.08Zm11.88,9.36H4.08c-.6,0-1.08,.48-1.08,1.08s.48,1.08,1.08,1.08H15.96c.6,0,1.08-.48,1.08-1.08s-.48-1.08-1.08-1.08Zm4.72-9.04l-3.6-3.6c-.42-.42-1.1-.42-1.53,0,0,0,0,0,0,0l-3.6,3.6c-.42,.42-.42,1.11,0,1.53s1.11,.42,1.53,0h0l1.76-1.76v6.03c0,.6,.48,1.08,1.08,1.08s1.08-.48,1.08-1.08v-6.03l1.76,1.76c.42,.42,1.11,.42,1.53,0s.42-1.11,0-1.53h0Z"/><path id="star" d="M21.91,9.59c-.21-.66-.8-1.12-1.49-1.18l-4.91-.42-1.92-4.58c-.37-.88-1.38-1.29-2.26-.91-.41,.17-.74,.5-.91,.91l-1.92,4.58-4.91,.42c-.95,.08-1.65,.91-1.58,1.86,.04,.45,.25,.87,.59,1.16l3.73,3.26-1.12,4.85c-.22,.93,.36,1.85,1.29,2.07,.44,.1,.9,.03,1.28-.2l4.22-2.56,4.22,2.56c.82,.49,1.87,.23,2.37-.59,.23-.38,.3-.84,.2-1.28l-1.12-4.85,3.73-3.26c.52-.46,.72-1.18,.51-1.84Zm-5.75,3.67c-.48,.42-.69,1.07-.55,1.69l.98,4.25-3.7-2.25c-.55-.33-1.24-.33-1.78,0l-3.7,2.25,.98-4.25c.14-.62-.07-1.27-.55-1.69l-3.28-2.86,4.32-.37c.64-.05,1.19-.46,1.44-1.05l1.68-4.01,1.68,4.01c.25,.59,.8,1,1.44,1.05l4.32,.37-3.28,2.86Z"/><path id="translate" d="M21.89,19.46l-4.83-9.66c-.26-.51-.88-.72-1.39-.46-.2,.1-.36,.26-.46,.46l-1.77,3.53c-1.19-.1-2.34-.5-3.34-1.16,1.22-1.41,1.98-3.16,2.18-5.02h1.78c.57,0,1.03-.46,1.03-1.03s-.46-1.03-1.03-1.03h-4.48v-1.03c0-.57-.46-1.03-1.03-1.03s-1.03,.46-1.03,1.03v1.03H3.03c-.57,0-1.03,.46-1.03,1.03s.46,1.03,1.03,1.03h7.17c-.19,1.35-.77,2.61-1.65,3.65-.43-.5-.79-1.07-1.07-1.67-.23-.52-.83-.77-1.36-.54-.52,.23-.77,.83-.54,1.36,0,.02,.01,.03,.02,.04,.36,.79,.83,1.52,1.4,2.18-1.18,.77-2.56,1.19-3.97,1.19-.57,0-1.03,.46-1.03,1.03s.46,1.03,1.03,1.03c1.99,0,3.92-.64,5.52-1.82,1.16,.85,2.5,1.43,3.91,1.68l-2.08,4.16c-.27,.5-.08,1.13,.43,1.4,.5,.27,1.13,.08,1.4-.43,0-.01,.02-.03,.02-.04l1.09-2.19h5.62l1.09,2.19c.26,.51,.88,.72,1.39,.46,.51-.26,.72-.88,.46-1.39Zm-7.53-3.33l1.78-3.55,1.77,3.55h-3.55Z"/><path id="verified" d="M20.69,9.59c-.3-.32-.62-.64-.72-.89-.09-.22-.1-.68-.1-1.08-.01-.86-.03-1.93-.79-2.7s-1.83-.78-2.7-.79c-.4,0-.85-.01-1.08-.1-.25-.1-.57-.42-.89-.72-.61-.59-1.37-1.31-2.41-1.31s-1.8,.73-2.41,1.31c-.32,.3-.64,.62-.89,.72-.22,.09-.68,.1-1.08,.1-.86,.02-1.93,.03-2.69,.79s-.78,1.83-.79,2.69c0,.4-.01,.85-.1,1.08-.1,.25-.42,.57-.72,.89-.59,.61-1.31,1.37-1.31,2.41s.73,1.8,1.31,2.41c.3,.32,.62,.64,.72,.89,.09,.22,.1,.68,.1,1.08,.01,.86,.03,1.93,.79,2.7s1.83,.78,2.7,.79c.4,0,.85,.01,1.08,.1,.25,.1,.57,.42,.89,.72,.61,.58,1.37,1.31,2.41,1.31s1.8-.73,2.41-1.31c.32-.3,.64-.62,.89-.72,.22-.09,.68-.1,1.08-.1,.86-.01,1.93-.03,2.7-.79s.78-1.83,.79-2.7c0-.4,.01-.85,.1-1.08,.1-.25,.42-.57,.72-.89,.59-.61,1.31-1.37,1.31-2.41s-.73-1.8-1.31-2.41Zm-1.49,3.39c-.42,.43-.89,.92-1.14,1.53-.24,.59-.25,1.22-.26,1.84,0,.46-.02,1.1-.19,1.26s-.8,.18-1.26,.19c-.61,0-1.25,.02-1.84,.26-.6,.25-1.1,.72-1.53,1.14-.31,.3-.77,.74-.98,.74s-.67-.44-.98-.74c-.43-.42-.92-.89-1.53-1.14-.59-.24-1.22-.25-1.84-.26-.46,0-1.1-.02-1.26-.19s-.18-.8-.19-1.26c0-.61-.02-1.25-.26-1.84-.25-.6-.72-1.1-1.14-1.53-.3-.31-.74-.77-.74-.98s.44-.67,.74-.98c.42-.43,.89-.92,1.14-1.53,.24-.59,.25-1.22,.26-1.84,.01-.46,.02-1.1,.19-1.26s.8-.18,1.26-.19c.61,0,1.25-.02,1.84-.26,.6-.25,1.1-.72,1.53-1.14,.3-.3,.77-.75,.97-.75s.67,.44,.98,.74c.43,.42,.92,.89,1.53,1.14,.59,.24,1.22,.25,1.84,.26,.46,0,1.1,.02,1.26,.19s.18,.8,.19,1.26c0,.61,.02,1.25,.26,1.84,.25,.6,.72,1.1,1.14,1.53,.29,.31,.74,.77,.74,.98s-.44,.67-.74,.98Zm-3.01-3.78c.4,.4,.41,1.06,0,1.46,0,0,0,0,0,0l-4.83,4.83c-.4,.4-1.06,.41-1.46,0,0,0,0,0,0,0l-2.07-2.07c-.4-.4-.4-1.06,0-1.47,.4-.4,1.06-.4,1.47,0l1.34,1.34,4.1-4.1c.4-.4,1.06-.4,1.46,0,0,0,0,0,0,0Z"/><path id="zip" d="M18,14h-1.6c-.66,0-1.2,.54-1.2,1.2v5.6c0,.66,.54,1.2,1.2,1.2s1.2-.54,1.2-1.2v-.4h.4c1.77,0,3.2-1.43,3.2-3.2s-1.43-3.2-3.2-3.2Zm0,4h-.4v-1.6h.4c.44,0,.8,.36,.8,.8s-.36,.8-.8,.8Zm-4.8-2.8v5.6c0,.66-.54,1.2-1.2,1.2s-1.2-.54-1.2-1.2v-5.6c0-.66,.54-1.2,1.2-1.2s1.2,.54,1.2,1.2Zm-4.4,5.6c0,.66-.54,1.2-1.2,1.2h-3.2c-.66,0-1.2-.54-1.2-1.2,0-.21,.05-.41,.16-.59l2.17-3.81h-1.13c-.66,0-1.2-.54-1.2-1.2s.54-1.2,1.2-1.2h3.2c.66,0,1.2,.53,1.2,1.2,0,.21-.05,.42-.16,.6l-2.17,3.8h1.13c.66,0,1.2,.54,1.2,1.2ZM20.85,7.95L15.25,2.35c-.23-.23-.53-.35-.85-.35H4.8c-1.1,0-2,.9-2,2v6.8c0,.66,.54,1.2,1.2,1.2s1.2-.54,1.2-1.2V4.4h7.6v4.8c0,.66,.54,1.2,1.2,1.2h4.8v.4c0,.66,.54,1.2,1.2,1.2s1.2-.54,1.2-1.2v-2c0-.32-.13-.62-.35-.85Zm-5.65,.05v-2.3l2.3,2.3h-2.3Z"/></svg>