<?xml version="1.0" encoding="UTF-8"?><svg id="phosphor-regular" xmlns="http://www.w3.org/2000/svg" viewBox="0 0 24 24"><path id="archive" d="M19.71,5.57H4.29c-.71,0-1.29,.58-1.29,1.29v1.93c0,.71,.58,1.29,1.29,1.29v7.07c0,.71,.58,1.29,1.29,1.29h12.86c.71,0,1.29-.58,1.29-1.29v-7.07c.71,0,1.29-.58,1.29-1.29v-1.93c0-.71-.58-1.29-1.29-1.29Zm-1.29,11.57H5.57v-7.07h12.86v7.07Zm1.29-8.36H4.29v-1.93h15.43v1.93Zm-10.29,3.86c0-.36,.29-.64,.64-.64h3.86c.36,0,.64,.29,.64,.64s-.29,.64-.64,.64h-3.86c-.36,0-.64-.29-.64-.64Z"/><path id="arrow-right" d="M19.8,12.47l-6,6c-.26,.26-.68,.26-.94,0s-.26-.68,0-.94h0l4.86-4.86H4.67c-.37,0-.67-.3-.67-.67s.3-.67,.67-.67h13.06l-4.86-4.86c-.26-.26-.26-.68,0-.94s.68-.26,.94,0l6,6c.26,.26,.26,.68,0,.94h0Z"/><path id="arrow-left" d="M4.2,11.53l6-6c.26-.26,.68-.26,.94,0s.26,.68,0,.94h0l-4.86,4.86h13.06c.37,0,.67,.3,.67,.67s-.3,.67-.67,.67H6.28l4.86,4.86c.26,.26,.26,.68,0,.94s-.68,.26-.94,0l-6-6c-.26-.26-.26-.68,0-.94h0Z"/><path id="arrow-top" d="M12.47,4.2l6,6c.26,.26,.26,.68,0,.94s-.68,.26-.94,0h0l-4.86-4.86v13.06c0,.37-.3,.67-.67,.67s-.67-.3-.67-.67V6.28l-4.86,4.86c-.26,.26-.68,.26-.94,0s-.26-.68,0-.94l6-6c.26-.26,.68-.26,.94,0h0Z"/><path id="check" d="M19.81,7.33l-10.24,10.24c-.25,.25-.65,.25-.91,0,0,0,0,0,0,0l-4.48-4.48c-.25-.25-.25-.66,0-.91s.66-.25,.91,0l4.03,4.03L18.91,6.43c.25-.25,.66-.25,.91,0,.25,.25,.25,.66,0,.91h0Z"/><path id="close" d="M18.79,17.8c.27,.27,.27,.72,0,.99s-.72,.27-.99,0h0l-5.8-5.81-5.8,5.81c-.27,.27-.72,.27-.99,0s-.27-.72,0-.99l5.81-5.8L5.21,6.2c-.27-.27-.27-.72,0-.99s.72-.27,.99,0h0l5.8,5.81,5.8-5.81c.27-.27,.72-.27,.99,0s.27,.72,0,.99h0l-5.81,5.8,5.81,5.8Z"/><path id="clear" d="M19.71,4.93H7.86c-.45,0-.87,.24-1.1,.62l-3.67,6.12c-.12,.2-.12,.46,0,.66l3.67,6.12c.23,.39,.65,.62,1.1,.62h11.85c.71,0,1.29-.58,1.29-1.29V6.21c0-.71-.58-1.29-1.29-1.29ZM7.31,18.12l.55-.33-.55,.33Zm12.4-.33H7.86l-3.47-5.79,3.47-5.79h11.85v11.57Zm-8.81-4.31l1.47-1.47-1.47-1.47c-.25-.25-.25-.66,0-.91s.66-.25,.91,0l1.47,1.47,1.47-1.47c.25-.25,.66-.25,.91,0,.25,.25,.25,.66,0,.91l-1.47,1.47,1.47,1.47c.25,.25,.25,.66,0,.91s-.66,.25-.91,0l-1.47-1.47-1.47,1.47c-.25,.25-.66,.25-.91,0-.25-.25-.25-.66,0-.91Z"/><path id="comment" d="M10.85,10.46c0-.64,.52-1.15,1.15-1.15s1.15,.52,1.15,1.15-.52,1.15-1.15,1.15-1.15-.52-1.15-1.15Zm5.38,1.15c.64,0,1.15-.52,1.15-1.15s-.52-1.15-1.15-1.15-1.15,.52-1.15,1.15,.52,1.15,1.15,1.15Zm5.77-7.31v12.31c0,.85-.69,1.54-1.54,1.54h-5.72l-1.43,2.34c-.44,.73-1.39,.96-2.11,.52-.21-.13-.39-.31-.52-.53l-1.42-2.33H3.54c-.85,0-1.54-.69-1.54-1.54V4.31c0-.85,.69-1.54,1.54-1.54H20.46c.85,0,1.54,.69,1.54,1.54Zm-1.54,0H3.54v12.31h5.72c.54,0,1.04,.28,1.32,.74l1.43,2.33,1.43-2.34c.28-.46,.78-.74,1.32-.74h5.72V4.31ZM7.77,11.62c.64,0,1.15-.52,1.15-1.15s-.52-1.15-1.15-1.15-1.15,.52-1.15,1.15,.52,1.15,1.15,1.15Z"/><path id="comment-text" d="M8.15,8.92c0-.42,.34-.77,.77-.77h6.15c.42,0,.77,.34,.77,.77s-.34,.77-.77,.77h-6.15c-.42,0-.77-.34-.77-.77Zm.77,3.85h6.15c.42,0,.77-.34,.77-.77s-.34-.77-.77-.77h-6.15c-.42,0-.77,.34-.77,.77s.34,.77,.77,.77ZM22,4.31v12.31c0,.85-.69,1.54-1.54,1.54h-5.72l-1.43,2.34c-.44,.73-1.39,.96-2.11,.52-.21-.13-.39-.31-.52-.53l-1.42-2.33H3.54c-.85,0-1.54-.69-1.54-1.54V4.31c0-.85,.69-1.54,1.54-1.54H20.46c.85,0,1.54,.69,1.54,1.54Zm-1.54,0H3.54v12.31h5.72c.54,0,1.04,.28,1.32,.74l1.43,2.33,1.43-2.34c.28-.46,.78-.74,1.32-.74h5.72V4.31Z"/><path id="copy" d="M21.17,2H7.83c-.46,0-.83,.37-.83,.83V7H2.83c-.46,0-.83,.37-.83,.83v13.33c0,.46,.37,.83,.83,.83h13.33c.46,0,.83-.37,.83-.83v-4.17h4.17c.46,0,.83-.37,.83-.83V2.83c0-.46-.37-.83-.83-.83Zm-5.83,18.33H3.67V8.67H15.33v11.67Zm5-5h-3.33V7.83c0-.46-.37-.83-.83-.83h-7.5V3.67h11.67V15.33Z"/><path id="dark" d="M22,9.31c0,.42-.34,.77-.77,.77h-1.54v1.54c0,.42-.34,.77-.77,.77s-.77-.34-.77-.77v-1.54h-1.54c-.42,0-.77-.34-.77-.77s.34-.77,.77-.77h1.54v-1.54c0-.42,.34-.77,.77-.77s.77,.34,.77,.77v1.54h1.54c.42,0,.77,.34,.77,.77Zm-9.23-3.85h.77v.77c0,.42,.34,.77,.77,.77s.77-.34,.77-.77v-.77h.77c.42,0,.77-.34,.77-.77s-.34-.77-.77-.77h-.77v-.77c0-.42-.34-.77-.77-.77s-.77,.34-.77,.77v.77h-.77c-.42,0-.77,.34-.77,.77s.34,.77,.77,.77Zm7,9.33c.18,.21,.24,.51,.14,.77-1.76,4.79-7.06,7.25-11.85,5.49C3.27,19.29,.81,13.99,2.57,9.2c.93-2.55,2.94-4.56,5.49-5.49,.4-.15,.84,.06,.99,.46,.05,.13,.06,.28,.03,.41-.91,4.59,2.08,9.04,6.67,9.95,1.08,.21,2.2,.21,3.28,0,.27-.05,.55,.04,.73,.26Zm-1.86,1.43c-.17,0-.35,.01-.52,.01-5.52,0-10-4.48-10-10,0-.17,0-.35,.01-.52-3.68,2.12-4.95,6.82-2.83,10.51s6.82,4.95,10.51,2.83c1.18-.68,2.15-1.65,2.83-2.83h0Z"/><path id="download" d="M20,14v4.67c0,.74-.6,1.33-1.33,1.33H5.33c-.74,0-1.33-.6-1.33-1.33v-4.67c0-.37,.3-.67,.67-.67s.67,.3,.67,.67v4.67h13.33v-4.67c0-.37,.3-.67,.67-.67s.67,.3,.67,.67Zm-8.47,.47c.26,.26,.68,.26,.94,0h0s3.33-3.33,3.33-3.33c.26-.26,.26-.68,0-.94-.26-.26-.68-.26-.94,0l-2.19,2.2V4.67c0-.37-.3-.67-.67-.67s-.67,.3-.67,.67v7.72l-2.19-2.2c-.26-.26-.68-.26-.94,0s-.26,.68,0,.94l3.33,3.33Z"/><path id="home" d="M20.18,10.18L12.97,3.38s0,0,0,0c-.55-.5-1.39-.5-1.94,0h0S3.82,10.18,3.82,10.18c-.3,.27-.47,.66-.47,1.06v8.32c0,.8,.64,1.44,1.44,1.44h4.32c.8,0,1.44-.64,1.44-1.44v-4.32h2.88v4.32c0,.8,.64,1.44,1.44,1.44h4.32c.8,0,1.44-.64,1.44-1.44V11.24c0-.4-.17-.79-.47-1.06Zm-.97,9.38h-4.32v-4.32c0-.8-.64-1.44-1.44-1.44h-2.88c-.8,0-1.44,.64-1.44,1.44v4.32H4.8V11.24h0s7.19-6.8,7.19-6.8l7.19,6.79h0s0,8.33,0,8.33Z"/><path id="label" d="M21.23,8.15h-4.67l.81-4.48c.07-.42-.22-.81-.63-.88-.41-.07-.8,.2-.88,.61l-.87,4.75h-4.59l.81-4.48c.07-.42-.22-.81-.63-.88-.41-.07-.8,.2-.88,.61l-.86,4.75H4.31c-.42,0-.77,.34-.77,.77s.34,.77,.77,.77h4.25l-.84,4.62H2.77c-.42,0-.77,.34-.77,.77s.34,.77,.77,.77H7.44l-.81,4.48c-.08,.42,.2,.82,.62,.89,.05,0,.09,.01,.14,.01,.37,0,.69-.27,.76-.63l.87-4.75h4.59l-.81,4.48c-.08,.42,.2,.82,.62,.89,.05,0,.09,.01,.14,.01,.37,0,.69-.27,.76-.63l.87-4.75h4.53c.42,0,.77-.34,.77-.77s-.34-.77-.77-.77h-4.25l.84-4.62h4.95c.42,0,.77-.34,.77-.77s-.34-.77-.77-.77Zm-7.36,6.15h-4.59l.84-4.62h4.59l-.84,4.62Z"/><path id="light" d="M11.33,4.67V2.67c0-.37,.3-.67,.67-.67s.67,.3,.67,.67v2c0,.37-.3,.67-.67,.67s-.67-.3-.67-.67Zm6,7.33c0,2.95-2.39,5.33-5.33,5.33s-5.33-2.39-5.33-5.33,2.39-5.33,5.33-5.33c2.94,0,5.33,2.39,5.33,5.33Zm-1.33,0c0-2.21-1.79-4-4-4s-4,1.79-4,4,1.79,4,4,4c2.21,0,4-1.79,4-4ZM6.2,7.14c.26,.26,.68,.26,.94,0s.26-.68,0-.94l-1.33-1.33c-.26-.26-.68-.26-.94,0s-.26,.68,0,.94l1.33,1.33Zm0,9.72l-1.33,1.33c-.26,.26-.26,.68,0,.94s.68,.26,.94,0l1.33-1.33c.26-.26,.26-.68,0-.94-.26-.26-.68-.26-.94,0ZM17.33,7.33c.18,0,.35-.07,.47-.19l1.33-1.33c.26-.26,.26-.68,0-.94s-.68-.26-.94,0l-1.33,1.33c-.26,.26-.26,.68,0,.94,.13,.13,.3,.2,.47,.2Zm.47,9.53c-.26-.26-.68-.26-.94,0s-.26,.68,0,.94l1.33,1.33c.26,.26,.68,.26,.94,0s.26-.68,0-.94l-1.33-1.33ZM5.33,12c0-.37-.3-.67-.67-.67H2.67c-.37,0-.67,.3-.67,.67s.3,.67,.67,.67h2c.37,0,.67-.3,.67-.67Zm6.67,6.67c-.37,0-.67,.3-.67,.67v2c0,.37,.3,.67,.67,.67s.67-.3,.67-.67v-2c0-.37-.3-.67-.67-.67Zm9.33-7.33h-2c-.37,0-.67,.3-.67,.67s.3,.67,.67,.67h2c.37,0,.67-.3,.67-.67s-.3-.67-.67-.67Z"/><path id="link" d="M12.9,17.47c.29,.29,.29,.77,0,1.06l-.93,.94c-2.05,2.05-5.38,2.05-7.43,0-2.05-2.05-2.05-5.38,0-7.43l2.26-2.26c1.96-1.97,5.12-2.06,7.2-.21,.31,.28,.34,.75,.06,1.06-.28,.31-.75,.34-1.06,.06-1.48-1.32-3.74-1.25-5.14,.15l-2.26,2.26c-1.46,1.46-1.46,3.84,0,5.3,1.46,1.46,3.84,1.46,5.3,0l.93-.93c.29-.29,.77-.29,1.06,0,0,0,0,0,0,0Zm6.57-12.93c-2.05-2.05-5.37-2.05-7.42,0l-.93,.93c-.29,.29-.29,.77,0,1.06,.29,.29,.77,.29,1.06,0l.93-.93c1.46-1.46,3.84-1.46,5.3,0s1.46,3.84,0,5.3l-2.26,2.26c-1.4,1.4-3.66,1.47-5.14,.15-.31-.28-.79-.25-1.06,.06-.28,.31-.25,.79,.06,1.06,2.08,1.85,5.23,1.75,7.2-.21l2.26-2.26c2.05-2.05,2.05-5.37,0-7.43h0Z"/><path id="link-open" d="M19.5,3H4.5c-.83,0-1.5,.67-1.5,1.5v15c0,.83,.67,1.5,1.5,1.5h15c.83,0,1.5-.67,1.5-1.5V4.5c0-.83-.67-1.5-1.5-1.5Zm0,16.5H4.5V4.5h15v15Zm-11.03-3.97c-.29-.29-.29-.77,0-1.06,0,0,0,0,0,0l4.72-4.72h-2.69c-.41,0-.75-.34-.75-.75s.34-.75,.75-.75h4.5c.41,0,.75,.34,.75,.75v4.5c0,.41-.34,.75-.75,.75s-.75-.34-.75-.75v-2.69l-4.72,4.72c-.29,.29-.77,.29-1.06,0,0,0,0,0,0,0Z"/><path id="list" d="M21,12.37c0,.41-.34,.75-.75,.75H9.76c-.41,0-.75-.34-.75-.75s.34-.75,.75-.75h10.49c.41,0,.75,.34,.75,.75ZM9.76,7.13h10.49c.41,0,.75-.34,.75-.75s-.34-.75-.75-.75H9.76c-.41,0-.75,.34-.75,.75s.34,.75,.75,.75Zm10.49,10.49H9.76c-.41,0-.75,.34-.75,.75s.34,.75,.75,.75h10.49c.41,0,.75-.34,.75-.75s-.34-.75-.75-.75ZM4.1,5.55l.41-.21v4.78c0,.41,.34,.75,.75,.75s.75-.34,.75-.75V4.13c0-.41-.33-.75-.75-.75-.12,0-.23,.03-.34,.08l-1.5,.75c-.37,.19-.52,.64-.34,1.01,.19,.37,.64,.52,1.01,.34Zm3.39,9.51c-.08-.6-.41-1.14-.9-1.49-1.01-.73-2.42-.54-3.19,.44-.14,.18-.26,.39-.33,.61-.17,.38,0,.82,.38,.99,.38,.17,.82,0,.99-.38,.01-.03,.02-.06,.03-.09,.03-.07,.06-.14,.11-.2,.27-.34,.77-.41,1.12-.15,.17,.12,.28,.3,.31,.5,.03,.19-.03,.39-.15,.54,0,0,0,0,0,.01l-2.69,3.59c-.25,.33-.18,.8,.15,1.05,.13,.1,.29,.15,.45,.15h3c.41,0,.75-.34,.75-.75s-.34-.75-.75-.75h-1.5l1.79-2.39c.37-.47,.52-1.07,.44-1.66Z"/><path id="menu" d="M21,12c0,.41-.34,.75-.75,.75H3.75c-.41,0-.75-.34-.75-.75s.34-.75,.75-.75H20.25c.41,0,.75,.34,.75,.75ZM3.75,6.75H20.25c.41,0,.75-.34,.75-.75s-.34-.75-.75-.75H3.75c-.41,0-.75,.34-.75,.75s.34,.75,.75,.75Zm16.5,10.5H3.75c-.41,0-.75,.34-.75,.75s.34,.75,.75,.75H20.25c.41,0,.75-.34,.75-.75s-.34-.75-.75-.75Z"/><path id="menu-more" d="M6.4,5.2c0,.66-.54,1.2-1.2,1.2s-1.2-.54-1.2-1.2,.54-1.2,1.2-1.2,1.2,.54,1.2,1.2Zm5.6-1.2c-.66,0-1.2,.54-1.2,1.2s.54,1.2,1.2,1.2,1.2-.54,1.2-1.2-.54-1.2-1.2-1.2Zm6.8,2.4c.66,0,1.2-.54,1.2-1.2s-.54-1.2-1.2-1.2-1.2,.54-1.2,1.2,.54,1.2,1.2,1.2ZM5.2,10.8c-.66,0-1.2,.54-1.2,1.2s.54,1.2,1.2,1.2,1.2-.54,1.2-1.2-.54-1.2-1.2-1.2Zm6.8,0c-.66,0-1.2,.54-1.2,1.2s.54,1.2,1.2,1.2,1.2-.54,1.2-1.2-.54-1.2-1.2-1.2Zm6.8,0c-.66,0-1.2,.54-1.2,1.2s.54,1.2,1.2,1.2,1.2-.54,1.2-1.2-.54-1.2-1.2-1.2Zm-13.6,6.8c-.66,0-1.2,.54-1.2,1.2s.54,1.2,1.2,1.2,1.2-.54,1.2-1.2-.54-1.2-1.2-1.2Zm6.8,0c-.66,0-1.2,.54-1.2,1.2s.54,1.2,1.2,1.2,1.2-.54,1.2-1.2-.54-1.2-1.2-1.2Zm6.8,0c-.66,0-1.2,.54-1.2,1.2s.54,1.2,1.2,1.2,1.2-.54,1.2-1.2-.54-1.2-1.2-1.2Z"/><path id="more" d="M13.2,12c0,.66-.54,1.2-1.2,1.2s-1.2-.54-1.2-1.2,.54-1.2,1.2-1.2,1.2,.54,1.2,1.2Zm5.6-1.2c-.66,0-1.2,.54-1.2,1.2s.54,1.2,1.2,1.2,1.2-.54,1.2-1.2-.54-1.2-1.2-1.2Zm-13.6,0c-.66,0-1.2,.54-1.2,1.2s.54,1.2,1.2,1.2,1.2-.54,1.2-1.2-.54-1.2-1.2-1.2Z"/><path id="more-vertical" d="M12,13.2c-.66,0-1.2-.54-1.2-1.2s.54-1.2,1.2-1.2,1.2,.54,1.2,1.2-.54,1.2-1.2,1.2Zm1.2,5.6c0-.66-.54-1.2-1.2-1.2s-1.2,.54-1.2,1.2,.54,1.2,1.2,1.2,1.2-.54,1.2-1.2Zm0-13.6c0-.66-.54-1.2-1.2-1.2s-1.2,.54-1.2,1.2,.54,1.2,1.2,1.2,1.2-.54,1.2-1.2Z"/><path id="read-more" d="M9.14,10.57c0-.39,.32-.71,.71-.71h7.14c.39,0,.71,.32,.71,.71s-.32,.71-.71,.71h-7.14c-.39,0-.71-.32-.71-.71Zm.71,3.57h7.14c.39,0,.71-.32,.71-.71s-.32-.71-.71-.71h-7.14c-.39,0-.71,.32-.71,.71s.32,.71,.71,.71Zm12.14-7.86v10.71c0,1.18-.96,2.14-2.14,2.14H4.14c-1.18,0-2.14-.95-2.14-2.13V8.43c0-.39,.32-.71,.71-.71s.71,.32,.71,.71v8.57c0,.39,.32,.71,.71,.71s.71-.32,.71-.71V6.29c0-.79,.64-1.43,1.43-1.43h14.29c.79,0,1.43,.64,1.43,1.43Zm-1.43,0H6.29v10.71c0,.24-.04,.48-.12,.71h13.69c.39,0,.71-.32,.71-.71V6.29Z"/><path id="page" d="M20.24,7.61L14.85,2.22c-.14-.14-.34-.23-.54-.22H5.08c-.85,0-1.54,.69-1.54,1.54V20.46c0,.85,.69,1.54,1.54,1.54h13.85c.85,0,1.54-.69,1.54-1.54V8.15c0-.2-.08-.4-.22-.54Zm-5.16-2.98l2.76,2.76h-2.76v-2.76Zm3.85,15.84H5.08V3.54H13.54v4.62c0,.42,.34,.77,.77,.77h4.62v11.54Zm-3.08-7.69c0,.42-.34,.77-.77,.77h-6.15c-.42,0-.77-.34-.77-.77s.34-.77,.77-.77h6.15c.42,0,.77,.34,.77,.77Zm0,3.08c0,.42-.34,.77-.77,.77h-6.15c-.42,0-.77-.34-.77-.77s.34-.77,.77-.77h6.15c.42,0,.77,.34,.77,.77Z"/><path id="pin" d="M20.15,14.59h-.86l-1.96-11.11h.6c.41,0,.74-.33,.74-.74s-.33-.74-.74-.74H6.07c-.41,0-.74,.33-.74,.74s.33,.74,.74,.74h.6l-1.96,11.11h-.86c-.41,0-.74,.33-.74,.74s.33,.74,.74,.74h7.41v5.19c0,.41,.33,.74,.74,.74s.74-.33,.74-.74v-5.19h7.41c.41,0,.74-.33,.74-.74s-.33-.74-.74-.74ZM8.18,3.48h7.65l1.96,11.11H6.22l1.96-11.11Z"/><path id="reload" d="M2,12c0-3.82,3.1-6.92,6.92-6.92h10.45l-1-.99c-.3-.3-.3-.79,0-1.09s.79-.3,1.09,0l2.31,2.31c.3,.3,.3,.79,0,1.09,0,0,0,0,0,0l-2.31,2.31c-.3,.3-.79,.3-1.09,0-.3-.3-.3-.79,0-1.09l1-.99H8.92c-2.97,0-5.38,2.41-5.38,5.38,0,.42-.34,.77-.77,.77s-.77-.34-.77-.77Zm19.23-.77c-.42,0-.77,.34-.77,.77,0,2.97-2.41,5.38-5.38,5.38H4.63l1-.99c.3-.3,.3-.79,0-1.09-.3-.3-.79-.3-1.09,0l-2.31,2.31c-.3,.3-.3,.79,0,1.09,0,0,0,0,0,0l2.31,2.31c.3,.3,.79,.3,1.09,0,.3-.3,.3-.79,0-1.09l-1-.99H15.08c3.82,0,6.92-3.1,6.92-6.92,0-.42-.34-.77-.77-.77Z"/><path id="search" d="M20.8,19.82l-4.33-4.33c2.69-3.23,2.25-8.03-.98-10.73-3.23-2.69-8.03-2.25-10.73,.98-2.69,3.23-2.25,8.03,.98,10.73,2.82,2.35,6.93,2.35,9.75,0l4.33,4.33c.27,.27,.71,.27,.98,0s.27-.71,0-.98ZM4.4,10.63c0-3.44,2.79-6.22,6.22-6.22s6.22,2.79,6.22,6.22-2.79,6.22-6.22,6.22c-3.44,0-6.22-2.79-6.22-6.22Z"/><path id="share" d="M20.8,9.72l-4.15,4.15c-.27,.27-.71,.27-.98,0s-.27-.71,0-.98l2.97-2.97h-3.43c-3.47,0-6.51,2.35-7.38,5.71-.1,.37-.47,.59-.84,.5s-.59-.47-.5-.84c1.02-3.98,4.61-6.75,8.72-6.75h3.44l-2.97-2.97c-.27-.27-.27-.71,0-.98s.71-.27,.98,0l4.15,4.15c.27,.27,.27,.71,0,.98,0,0,0,0,0,0Zm-3.26,8.51H4.38V7.85c0-.38-.31-.69-.69-.69s-.69,.31-.69,.69v10.38c0,.76,.62,1.38,1.38,1.38h13.15c.38,0,.69-.31,.69-.69s-.31-.69-.69-.69Z"/><path id="sort-ascending" d="M11.25,11.25c0,.41-.34,.75-.75,.75H3.75c-.41,0-.75-.34-.75-.75s.34-.75,.75-.75h6.75c.41,0,.75,.34,.75,.75ZM3.75,6h12.75c.41,0,.75-.34,.75-.75s-.34-.75-.75-.75H3.75c-.41,0-.75,.34-.75,.75s.34,.75,.75,.75Zm5.25,10.5H3.75c-.41,0-.75,.34-.75,.75s.34,.75,.75,.75h5.25c.41,0,.75-.34,.75-.75s-.34-.75-.75-.75Zm11.78-2.03c-.29-.29-.77-.29-1.06,0h0s-2.47,2.47-2.47,2.47v-7.19c0-.41-.34-.75-.75-.75s-.75,.34-.75,.75v7.19l-2.47-2.47c-.29-.29-.77-.29-1.06,0s-.29,.77,0,1.06l3.75,3.75c.29,.29,.77,.29,1.06,0h0s3.75-3.75,3.75-3.75c.29-.29,.29-.77,0-1.06h0Z"/><path id="sort-descending" d="M3,12.75c0-.41,.34-.75,.75-.75h6.75c.41,0,.75,.34,.75,.75s-.34,.75-.75,.75H3.75c-.41,0-.75-.34-.75-.75Zm.75-5.25h5.25c.41,0,.75-.34,.75-.75s-.34-.75-.75-.75H3.75c-.41,0-.75,.34-.75,.75s.34,.75,.75,.75Zm12.75,10.5H3.75c-.41,0-.75,.34-.75,.75s.34,.75,.75,.75h12.75c.41,0,.75-.34,.75-.75s-.34-.75-.75-.75Zm4.28-9.53l-3.75-3.75c-.29-.29-.77-.29-1.06,0,0,0,0,0,0,0l-3.75,3.75c-.29,.29-.29,.77,0,1.06,.29,.29,.77,.29,1.06,0l2.47-2.47v7.19c0,.41,.34,.75,.75,.75s.75-.34,.75-.75V7.06l2.47,2.47c.29,.29,.77,.29,1.06,0,.29-.29,.29-.77,0-1.06Z"/><path id="star" d="M21.93,9.62c-.18-.54-.66-.93-1.23-.98l-5.3-.46-2.08-4.94c-.3-.73-1.14-1.07-1.86-.77-.35,.14-.62,.42-.77,.77l-2.07,4.94-5.31,.46c-.79,.07-1.37,.76-1.3,1.54,.03,.37,.21,.72,.49,.96l4.03,3.52-1.21,5.23c-.18,.77,.3,1.54,1.07,1.72,.36,.08,.74,.02,1.06-.17l4.55-2.77,4.56,2.77c.68,.41,1.55,.19,1.96-.49,.19-.32,.25-.7,.17-1.06l-1.21-5.23,4.03-3.51c.44-.38,.6-.98,.42-1.53Zm-1.36,.45l-4.03,3.51c-.4,.35-.57,.89-.45,1.4l1.21,5.23-4.56-2.77c-.45-.28-1.02-.28-1.48,0l-4.55,2.77,1.2-5.23c.12-.52-.05-1.06-.45-1.4l-4.03-3.51s0,0,0,0l5.31-.46c.53-.05,.99-.38,1.19-.87l2.07-4.94,2.07,4.94c.2,.49,.66,.82,1.19,.87l5.31,.46h0s0,0,0,0Z"/><path id="translate" d="M21.92,19.89l-5-10c-.18-.35-.61-.5-.96-.32-.14,.07-.25,.18-.32,.32l-1.94,3.88c-1.52-.09-2.98-.61-4.21-1.51,1.44-1.54,2.31-3.52,2.47-5.62h2.17c.39,0,.71-.32,.71-.71s-.32-.71-.71-.71h-5v-1.43c0-.39-.32-.71-.71-.71s-.71,.32-.71,.71v1.43H2.71c-.39,0-.71,.32-.71,.71s.32,.71,.71,.71h7.82c-.16,1.75-.9,3.4-2.11,4.67-.75-.79-1.33-1.74-1.7-2.77-.13-.37-.53-.58-.9-.45-.37,.13-.58,.53-.45,.9,0,0,0,.02,0,.02,.43,1.21,1.1,2.31,1.97,3.24-1.35,.99-2.97,1.52-4.64,1.52-.39,0-.71,.32-.71,.71s.32,.71,.71,.71c2.07,0,4.08-.69,5.71-1.97,1.33,1.04,2.92,1.7,4.59,1.9l-2.38,4.75c-.18,.35-.03,.78,.32,.96,.35,.18,.78,.03,.96-.32l1.23-2.46h6.26l1.23,2.46c.12,.24,.37,.39,.64,.39,.39,0,.71-.32,.71-.71,0-.11-.03-.22-.08-.32Zm-8.05-3.25l2.42-4.83,2.42,4.83h-4.83Z"/><path id="verified" d="M20.74,9.75c-.34-.35-.68-.71-.82-1.03-.12-.29-.13-.78-.14-1.24-.01-.87-.03-1.86-.71-2.55s-1.67-.7-2.55-.71c-.47,0-.95-.01-1.24-.14-.32-.13-.68-.48-1.03-.82-.62-.59-1.32-1.26-2.25-1.26s-1.63,.67-2.25,1.26c-.35,.34-.71,.68-1.03,.82-.29,.12-.78,.13-1.24,.14-.87,.01-1.86,.03-2.55,.71s-.7,1.67-.71,2.55c0,.47-.01,.95-.14,1.24-.13,.32-.48,.68-.82,1.03-.59,.62-1.26,1.32-1.26,2.25s.67,1.63,1.26,2.25c.34,.35,.68,.71,.82,1.03,.12,.29,.13,.78,.14,1.24,.01,.87,.03,1.86,.71,2.55s1.67,.7,2.55,.71c.47,0,.95,.01,1.24,.14,.32,.13,.68,.48,1.03,.82,.62,.59,1.32,1.26,2.25,1.26s1.63-.67,2.25-1.26c.35-.34,.71-.68,1.03-.82,.29-.12,.78-.13,1.24-.14,.87-.01,1.86-.03,2.55-.71s.7-1.67,.71-2.55c0-.47,.01-.95,.14-1.24,.13-.32,.48-.68,.82-1.03,.59-.62,1.26-1.32,1.26-2.25s-.67-1.63-1.26-2.25Zm-1.03,3.51c-.43,.45-.87,.91-1.11,1.48-.23,.54-.23,1.17-.24,1.77,0,.62-.02,1.28-.3,1.56s-.93,.29-1.56,.3c-.6,0-1.23,.02-1.77,.24-.57,.23-1.03,.68-1.48,1.11s-.9,.87-1.26,.87-.82-.44-1.26-.87-.91-.87-1.48-1.11c-.54-.23-1.17-.23-1.77-.24-.62,0-1.28-.02-1.56-.3s-.29-.93-.3-1.56c0-.6-.02-1.23-.24-1.77-.23-.57-.68-1.03-1.11-1.48s-.87-.9-.87-1.26,.44-.82,.87-1.26,.87-.91,1.11-1.48c.23-.54,.23-1.17,.24-1.77,0-.62,.02-1.28,.3-1.56s.93-.29,1.56-.3c.6,0,1.23-.02,1.77-.24,.57-.23,1.03-.68,1.47-1.11s.9-.87,1.26-.87,.82,.44,1.26,.87,.91,.87,1.48,1.11c.54,.23,1.17,.23,1.77,.24,.62,0,1.28,.02,1.56,.3s.29,.93,.3,1.56c0,.6,.02,1.23,.24,1.77,.23,.57,.68,1.03,1.11,1.47s.87,.9,.87,1.26-.44,.82-.87,1.26Zm-3.63-3.91c.28,.28,.28,.73,0,1.01,0,0,0,0,0,0l-5,5c-.28,.28-.73,.28-1.01,0,0,0,0,0,0,0l-2.14-2.14c-.28-.28-.28-.73,0-1.01,.28-.28,.73-.28,1.01,0l1.64,1.64,4.49-4.5c.28-.28,.73-.28,1.01,0,0,0,0,0,0,0Z"/><path id="zip" d="M17.83,14.5h-1.67c-.46,0-.83,.37-.83,.83v5.83c0,.46,.37,.83,.83,.83s.83-.37,.83-.83v-.83h.83c1.61,0,2.92-1.31,2.92-2.92s-1.31-2.92-2.92-2.92Zm0,4.17h-.83v-2.5h.83c.69,0,1.25,.56,1.25,1.25s-.56,1.25-1.25,1.25Zm-5-3.33v5.83c0,.46-.37,.83-.83,.83s-.83-.37-.83-.83v-5.83c0-.46,.37-.83,.83-.83s.83,.37,.83,.83Zm-4.17,5.83c0,.46-.37,.83-.83,.83h-3.33c-.46,0-.84-.37-.84-.83,0-.15,.04-.3,.11-.42l2.62-4.58h-1.89c-.46,0-.83-.37-.83-.83s.37-.83,.83-.83h3.33c.46,0,.84,.37,.84,.83,0,.15-.04,.3-.11,.42l-2.63,4.58h1.9c.46,0,.83,.37,.83,.83Zm12.26-13.09L15.09,2.24c-.16-.16-.37-.24-.59-.24H4.5c-.92,0-1.67,.75-1.67,1.67v7.5c0,.46,.37,.83,.83,.83s.83-.37,.83-.83V3.67H13.67v5c0,.46,.37,.83,.83,.83h5v1.67c0,.46,.37,.83,.83,.83s.83-.37,.83-.83v-2.5c0-.22-.09-.43-.24-.59Zm-5.59-.24v-2.99l2.99,2.99h-2.99Z"/><path id="lock" d="M19.41,8.67h-2.96v-2.22c0-2.45-1.99-4.44-4.44-4.44s-4.44,1.99-4.44,4.44v2.22h-2.96c-.82,0-1.48,.66-1.48,1.48v10.37c0,.82,.66,1.48,1.48,1.48h14.81c.82,0,1.48-.66,1.48-1.48V10.15c0-.82-.66-1.48-1.48-1.48Zm-10.37-2.22c0-1.64,1.33-2.96,2.96-2.96s2.96,1.33,2.96,2.96v2.22h-5.93v-2.22Zm10.37,14.07H4.59V10.15h14.81v10.37Zm-6.3-5.19c0,.61-.5,1.11-1.11,1.11s-1.11-.5-1.11-1.11,.5-1.11,1.11-1.11,1.11,.5,1.11,1.11Z"/><path id="settings" d="M12,7.41c-2.53,0-4.59,2.05-4.59,4.59s2.05,4.59,4.59,4.59,4.59-2.05,4.59-4.59c0-2.53-2.05-4.58-4.59-4.59Zm0,7.64c-1.69,0-3.06-1.37-3.06-3.06s1.37-3.06,3.06-3.06,3.06,1.37,3.06,3.06-1.37,3.06-3.06,3.06Zm8.41-2.85c0-.14,0-.28,0-.41l1.43-1.78c.15-.19,.2-.44,.14-.67-.23-.88-.58-1.72-1.04-2.51-.12-.21-.33-.35-.57-.38l-2.27-.25c-.09-.1-.19-.19-.29-.29l-.27-2.27c-.03-.24-.17-.45-.38-.57-.79-.46-1.63-.8-2.51-1.04-.23-.06-.49,0-.67,.14l-1.78,1.42h-.41l-1.78-1.42c-.19-.15-.44-.2-.67-.14-.88,.23-1.72,.58-2.51,1.04-.21,.12-.35,.33-.38,.57l-.25,2.27c-.1,.09-.19,.19-.29,.29l-2.27,.26c-.24,.03-.45,.17-.57,.38-.46,.79-.8,1.63-1.04,2.51-.06,.23,0,.49,.14,.67l1.42,1.78v.41l-1.42,1.78c-.15,.19-.2,.44-.14,.67,.23,.88,.58,1.72,1.04,2.51,.12,.21,.33,.35,.57,.38l2.27,.25c.09,.1,.19,.19,.29,.29l.26,2.27c.03,.24,.17,.45,.38,.57,.79,.46,1.63,.8,2.51,1.04,.23,.06,.49,0,.67-.14l1.78-1.42c.14,0,.28,0,.41,0l1.78,1.43c.19,.15,.44,.2,.67,.14,.88-.23,1.72-.58,2.51-1.04,.21-.12,.35-.33,.38-.57l.25-2.27c.1-.09,.19-.19,.29-.29l2.27-.27c.24-.03,.45-.17,.57-.38,.46-.79,.8-1.63,1.04-2.51,.06-.23,0-.49-.14-.67l-1.42-1.78Zm-1.54-.62c.02,.28,.02,.55,0,.83-.01,.19,.05,.38,.17,.52l1.36,1.69c-.16,.49-.35,.97-.6,1.43l-2.16,.24c-.19,.02-.36,.11-.49,.25-.18,.21-.38,.4-.59,.59-.14,.13-.23,.3-.25,.49l-.24,2.16c-.46,.24-.94,.44-1.43,.6l-1.7-1.36c-.14-.11-.3-.17-.48-.17h-.05c-.28,.02-.55,.02-.83,0-.19-.01-.38,.05-.52,.17l-1.7,1.36c-.49-.16-.97-.35-1.43-.6l-.24-2.16c-.02-.19-.11-.36-.25-.49-.21-.18-.4-.38-.59-.59-.13-.14-.3-.23-.49-.25l-2.16-.24c-.24-.46-.44-.94-.6-1.43l1.36-1.7c.12-.15,.18-.33,.17-.52-.02-.28-.02-.55,0-.83,.01-.19-.05-.38-.17-.52l-1.36-1.7c.16-.49,.35-.97,.6-1.43l2.16-.24c.19-.02,.36-.11,.49-.25,.18-.21,.38-.4,.59-.59,.14-.13,.23-.3,.25-.49l.24-2.16c.46-.24,.94-.44,1.43-.6l1.7,1.36c.15,.12,.33,.18,.52,.17,.28-.02,.55-.02,.83,0,.19,.01,.38-.05,.52-.17l1.7-1.36c.49,.16,.97,.35,1.43,.6l.24,2.16c.02,.19,.11,.36,.25,.49,.21,.18,.4,.38,.59,.59,.13,.14,.3,.23,.49,.25l2.16,.24c.24,.46,.44,.94,.6,1.43l-1.36,1.7c-.12,.15-.18,.34-.17,.53h0Z"/><path id="bookmark-add" d="M17.04,3H6.96c-.8,0-1.44,.64-1.44,1.44v15.84c0,.4,.32,.72,.72,.72,.13,0,.27-.04,.38-.11l5.38-3.36,5.38,3.36c.34,.21,.78,.11,.99-.23,.07-.11,.11-.25,.11-.38V4.44c0-.8-.64-1.44-1.44-1.44Zm0,15.98l-4.66-2.91c-.23-.15-.53-.15-.76,0l-4.66,2.91V4.44h10.08v14.54Z"/><path id="bookmark" d="M17.04,3H6.96c-.8,0-1.44,.64-1.44,1.44v15.84c0,.4,.32,.72,.72,.72,.13,0,.27-.04,.38-.11l5.38-3.36,5.38,3.36c.34,.21,.78,.11,.99-.23,.07-.11,.11-.25,.11-.38V4.44c0-.8-.64-1.44-1.44-1.44Z"/></svg>