<?xml version="1.0" encoding="UTF-8"?><svg id="remix-line" xmlns="http://www.w3.org/2000/svg" viewBox="0 0 24 24"><path id="archive" d="M3.9,10.2h-.9V4.8c0-.5,.41-.9,.89-.9H20.11c.49,0,.89,.4,.89,.89,0,0,0,0,0,.01v5.4h-.9v9c0,.5-.4,.9-.89,.9H4.79c-.5,0-.9-.4-.89-.9h0V10.2Zm14.4,0H5.7v8.1h12.6V10.2ZM4.8,5.7v2.7h14.4v-2.7H4.8Zm4.5,6.3h5.4v1.8h-5.4v-1.8Z"/><path id="arrow-left" d="M7.83,11h12.17v2H7.83l5.36,5.36-1.41,1.41L4,12l7.78-7.78,1.41,1.41-5.36,5.36Z"/><path id="arrow-right" d="M16.17,13H4v-2h12.17l-5.36-5.36,1.41-1.41,7.78,7.78-7.78,7.78-1.41-1.41,5.36-5.36Z"/><path id="arrow-top" d="M13,7.83v12.17h-2V7.83l-5.36,5.36-1.41-1.41,7.78-7.78,7.78,7.78-1.41,1.41-5.36-5.36Z"/><path id="bookmark" d="M5.9,3h12.21c.48,0,.87,.39,.87,.87V20.56c0,.24-.19,.44-.44,.44-.08,0-.16-.02-.23-.07l-6.31-3.96-6.31,3.96c-.2,.13-.47,.07-.6-.14-.04-.07-.07-.15-.07-.23V3.87c0-.48,.39-.87,.87-.87Z"/><path id="bookmark-add" d="M5.9,3h12.21c.48,0,.87,.39,.87,.87V20.56c0,.24-.19,.44-.44,.44-.08,0-.16-.02-.23-.07l-6.31-3.96-6.31,3.96c-.2,.13-.47,.07-.6-.14-.04-.07-.07-.15-.07-.23V3.87c0-.48,.39-.87,.87-.87Zm11.34,1.74H6.77v13.46l5.23-3.28,5.23,3.28V4.74Z"/><path id="check" d="M10,15L18.67,6.33l1.33,1.33-10,10-6-6,1.33-1.33,4.67,4.67Z"/><path id="clear" d="M8.44,4.98h11.28c.43,0,.78,.35,.78,.78v12.48c0,.43-.35,.78-.78,.78H8.44c-.26,0-.5-.13-.65-.35L3.63,12.43c-.17-.26-.17-.6,0-.87L7.79,5.33c.14-.22,.39-.35,.65-.35Zm.42,1.56l-3.64,5.46,3.64,5.46h10.08V6.54H8.86Zm4.62,4.36l2.21-2.21,1.1,1.1-2.21,2.21,2.21,2.21-1.1,1.1-2.21-2.21-2.21,2.21-1.1-1.1,2.21-2.21-2.21-2.21,1.1-1.1,2.21,2.21Z"/><path id="clear_rtl" d="M15.56,19.02H4.28c-.43,0-.78-.35-.78-.78V5.76c0-.43,.35-.78,.78-.78H15.56c.26,0,.5,.13,.65,.35l4.16,6.24c.17,.26,.17,.6,0,.87l-4.16,6.24c-.14,.22-.39,.35-.65,.35Zm-.42-1.56l3.64-5.46-3.64-5.46H5.06v10.92H15.14Zm-4.62-4.36l-2.21,2.21-1.1-1.1,2.21-2.21-2.21-2.21,1.1-1.1,2.21,2.21,2.21-2.21,1.1,1.1-2.21,2.21,2.21,2.21-1.1,1.1-2.21-2.21Z"/><path id="close" d="M12,10.44l5.44-5.44,1.56,1.56-5.44,5.44,5.44,5.44-1.56,1.56-5.44-5.44-5.44,5.44-1.56-1.56,5.44-5.44L5,6.56l1.56-1.56,5.44,5.44Z"/><path id="comment" d="M6.45,18.25l-4.45,3.5V3.25c0-.55,.45-1,1-1H21c.55,0,1,.45,1,1v14c0,.55-.45,1-1,1H6.45Zm-.69-2h14.24V4.25H4v13.39l1.76-1.39Zm2.24-7h8v2H8v-2Z"/><path id="comment-text" d="M6.45,18.25l-4.45,3.5V3.25c0-.55,.45-1,1-1H21c.55,0,1,.45,1,1v14c0,.55-.45,1-1,1H6.45Zm-.69-2h14.24V4.25H4v13.39l1.76-1.39Zm5.24-7h2v2h-2v-2Zm-4,0h2v2h-2v-2Zm8,0h2v2h-2v-2Z"/><path id="copy" d="M7,6V3c0-.55,.45-1,1-1h12c.55,0,1,.45,1,1v14c0,.55-.45,1-1,1h-3v3c0,.55-.45,1-1.01,1H4.01c-.55,0-1-.44-1.01-.99,0,0,0,0,0,0V7c0-.55,.45-1,1.01-1h2.99Zm-2,2v12s10,0,10,0V8H5Zm4-2h8V16h2V4H9v2Z"/><path id="dark" d="M9.27,7.45c0,4.02,3.25,7.27,7.27,7.27,1.26,0,2.5-.33,3.6-.95-.44,4.61-4.32,8.22-9.05,8.22-5.02,0-9.09-4.07-9.09-9.09,0-4.73,3.61-8.61,8.22-9.05-.62,1.1-.95,2.33-.95,3.6ZM3.82,12.91c0,4.02,3.26,7.27,7.27,7.27,2.62,0,5.03-1.4,6.32-3.68-.29,.03-.58,.04-.87,.04-5.02,0-9.09-4.07-9.09-9.09,0-.29,.01-.58,.04-.87-2.27,1.29-3.68,3.71-3.68,6.32ZM16.69,4.08l.76,.19v.91l-.76,.19c-.65,.16-1.16,.67-1.32,1.32l-.19,.76h-.91l-.19-.76c-.16-.65-.67-1.16-1.32-1.32l-.76-.19v-.91l.76-.19c.65-.16,1.16-.67,1.32-1.32l.19-.76h.91l.19,.76c.16,.65,.67,1.16,1.32,1.32Zm4.55,4.55l.76,.19v.91l-.76,.19c-.65,.16-1.16,.67-1.32,1.32l-.19,.76h-.91l-.19-.76c-.16-.65-.67-1.16-1.32-1.32l-.76-.19v-.91l.76-.19c.65-.16,1.16-.67,1.32-1.32l.19-.76h.91l.19,.76c.16,.65,.67,1.16,1.32,1.32Z"/><path id="download" d="M13,10h5l-6,6-6-6h5V3h2v7ZM4,19h16v-7h2v8c0,.55-.45,1-1,1H3c-.55,0-1-.45-1-1V12h2v7Z"/><path id="home" d="M12.96,19.08h5.77V10.41l-6.73-5.23-6.73,5.23v8.67h5.77v-5.77h1.92v5.77Zm7.69,.96c0,.53-.43,.96-.96,.96H4.31c-.53,0-.96-.43-.96-.96V9.94c0-.3,.14-.58,.37-.76L11.41,3.2c.35-.27,.83-.27,1.18,0l7.69,5.98c.23,.18,.37,.46,.37,.76v10.1Z"/><path id="label" d="M5.41,21l.71-4H2.12l.35-2h4l1.06-6H3.53l.35-2H7.88l.71-4h2l-.71,4h6l.71-4h2l-.71,4h4l-.35,2h-4l-1.06,6h4l-.35,2h-4l-.71,4h-2l.71-4h-6l-.71,4h-2m4.12-12l-1.06,6h6l1.06-6h-6Z"/><path id="light" d="M12,17.45c-3.01,0-5.45-2.44-5.45-5.45s2.44-5.45,5.45-5.45,5.45,2.44,5.45,5.45-2.44,5.45-5.45,5.45Zm0-1.82c2.01,0,3.64-1.63,3.64-3.64s-1.63-3.64-3.64-3.64-3.64,1.63-3.64,3.64,1.63,3.64,3.64,3.64Zm-.91-13.64h1.82v2.73h-1.82V2Zm0,17.27h1.82v2.73h-1.82v-2.73ZM4.29,5.57l1.29-1.29,1.93,1.93-1.29,1.29-1.93-1.93h0Zm12.21,12.21l1.29-1.29,1.93,1.93-1.29,1.29-1.93-1.93Zm1.93-13.5l1.29,1.29-1.93,1.93-1.29-1.29,1.93-1.93h0ZM6.21,16.5l1.29,1.29-1.93,1.93-1.29-1.29,1.93-1.93Zm15.79-5.41v1.82h-2.73v-1.82h2.73Zm-17.27,0v1.82H2v-1.82h2.73Z"/><path id="link" d="M12.97,8.44l1.3,1.3c2.5,2.5,2.5,6.56,0,9.07,0,0,0,0,0,0l-.32,.32c-2.5,2.5-6.56,2.5-9.07,0-2.5-2.5-2.5-6.56,0-9.07l1.3,1.3c-1.8,1.78-1.81,4.68-.03,6.48,1.78,1.8,4.68,1.81,6.48,.03,0,0,.02-.02,.03-.03l.32-.32c1.79-1.79,1.79-4.69,0-6.47l-1.3-1.3,1.3-1.29h0Zm6.15,5.5l-1.29-1.29c1.8-1.78,1.81-4.68,.03-6.48-1.78-1.8-4.68-1.81-6.48-.03,0,0-.02,.02-.03,.03l-.32,.32c-1.79,1.79-1.79,4.69,0,6.47l1.3,1.3-1.3,1.29-1.29-1.29c-2.5-2.5-2.5-6.56,0-9.07,0,0,0,0,0,0l.32-.32c2.5-2.5,6.56-2.5,9.07,0,2.5,2.5,2.5,6.56,0,9.07h0Z"/><path id="link-open" d="M10,6v2H5v11h11v-5h2v6c0,.55-.45,1-1,1H4c-.55,0-1-.45-1-1V7c0-.55,.45-1,1-1h6Zm11-3v8h-2V6.41l-7.79,7.79-1.41-1.41,7.79-7.79h-4.58V3h8Z"/><path id="list" d="M7.5,13v-2h14v2H7.5m0,6v-2h14v2H7.5m0-12v-2h14v2H7.5m-4,1v-3h-1v-1h2v4h-1m-1,9v-1h3v4H2.5v-1h2v-.5h-1v-1h1v-.5H2.5m2.25-7c.41,0,.75,.34,.75,.75,0,.2-.08,.39-.21,.52l-1.67,1.73h1.88v1H2.5v-.92l2-2.08H2.5v-1h2.25Z"/><path id="lock" d="M6.29,8.67v-.95c0-3.16,2.56-5.71,5.71-5.71s5.71,2.56,5.71,5.71v.95h1.9c.53,0,.95,.43,.95,.95v11.43c0,.53-.43,.95-.95,.95H4.38c-.53,0-.95-.43-.95-.95V9.62c0-.53,.43-.95,.95-.95h1.9Zm12.38,1.9H5.33v9.52h13.33V10.57Zm-7.62,5.46c-.91-.53-1.22-1.69-.7-2.6,.53-.91,1.69-1.22,2.6-.7,.91,.53,1.22,1.69,.7,2.6-.17,.29-.41,.53-.7,.7v2.16h-1.9v-2.16Zm-2.86-7.36h7.62v-.95c0-2.1-1.71-3.81-3.81-3.81s-3.81,1.71-3.81,3.81v.95Z"/><path id="menu" d="M3,4H21v2H3v-2Zm0,7H21v2H3v-2Zm0,7H21v2H3v-2Z"/><path id="menu-more" d="M5.33,10.67c-.73,0-1.33,.6-1.33,1.33s.6,1.33,1.33,1.33,1.33-.6,1.33-1.33-.6-1.33-1.33-1.33Zm13.33,0c-.73,0-1.33,.6-1.33,1.33s.6,1.33,1.33,1.33,1.33-.6,1.33-1.33-.6-1.33-1.33-1.33Zm-6.67,0c-.73,0-1.33,.6-1.33,1.33s.6,1.33,1.33,1.33,1.33-.6,1.33-1.33-.6-1.33-1.33-1.33ZM5.33,4.67c-.73,0-1.33,.6-1.33,1.33s.6,1.33,1.33,1.33,1.33-.6,1.33-1.33-.6-1.33-1.33-1.33Zm13.33,0c-.73,0-1.33,.6-1.33,1.33s.6,1.33,1.33,1.33,1.33-.6,1.33-1.33-.6-1.33-1.33-1.33Zm-6.67,0c-.73,0-1.33,.6-1.33,1.33s.6,1.33,1.33,1.33,1.33-.6,1.33-1.33-.6-1.33-1.33-1.33Zm-6.67,12c-.73,0-1.33,.6-1.33,1.33s.6,1.33,1.33,1.33,1.33-.6,1.33-1.33-.6-1.33-1.33-1.33Zm13.33,0c-.73,0-1.33,.6-1.33,1.33s.6,1.33,1.33,1.33,1.33-.6,1.33-1.33-.6-1.33-1.33-1.33Zm-6.67,0c-.73,0-1.33,.6-1.33,1.33s.6,1.33,1.33,1.33,1.33-.6,1.33-1.33-.6-1.33-1.33-1.33Z"/><path id="more" d="M5.33,10.67c-.73,0-1.33,.6-1.33,1.33s.6,1.33,1.33,1.33,1.33-.6,1.33-1.33-.6-1.33-1.33-1.33Zm13.33,0c-.73,0-1.33,.6-1.33,1.33s.6,1.33,1.33,1.33,1.33-.6,1.33-1.33-.6-1.33-1.33-1.33Zm-6.67,0c-.73,0-1.33,.6-1.33,1.33s.6,1.33,1.33,1.33,1.33-.6,1.33-1.33-.6-1.33-1.33-1.33Z"/><path id="more-vertical" d="M12,4c-.73,0-1.33,.6-1.33,1.33s.6,1.33,1.33,1.33,1.33-.6,1.33-1.33-.6-1.33-1.33-1.33Zm0,13.33c-.73,0-1.33,.6-1.33,1.33s.6,1.33,1.33,1.33,1.33-.6,1.33-1.33-.6-1.33-1.33-1.33Zm0-6.67c-.73,0-1.33,.6-1.33,1.33s.6,1.33,1.33,1.33,1.33-.6,1.33-1.33-.6-1.33-1.33-1.33Z"/><path id="page" d="M21,8v12.99c0,.55-.44,1-.99,1.01H3.99c-.55,0-.99-.44-.99-.99V2.99c0-.54,.45-.99,1-.99H15l6,6Zm-2,1h-5V4H5V20h14V9ZM8,7h3v2h-3v-2Zm0,4H16v2H8v-2Zm0,4H16v2H8v-2Z"/><path id="pin" d="M18,2v2h-1v6l2,3v2h-6v7h-2v-7H5v-2l2-3V4h-1V2h12Zm-9,2v6.61l-1.6,2.39h9.19l-1.6-2.39V4h-6Z"/><path id="read-more" d="M2,3.99c0-.55,.45-.99,.99-.99H21.01c.55,0,.99,.44,.99,.99V20.01c0,.55-.45,.99-.99,.99H2.99c-.55,0-.99-.44-.99-.99V3.99Zm9,1.01H4v14h7V5Zm2,0v14h7V5h-7Zm1,2h5v2h-5v-2Zm0,3h5v2h-5v-2Z"/><path id="reload" d="M17.88,18.81c-1.63,1.42-3.72,2.19-5.88,2.19-4.97,0-9-4.03-9-9S7.03,3,12,3s9,4.03,9,9c0,1.92-.6,3.7-1.63,5.17l-2.87-5.17h2.7c0-3.98-3.22-7.2-7.2-7.2-3.98,0-7.2,3.22-7.2,7.2s3.22,7.2,7.2,7.2c1.86,0,3.64-.72,4.99-2.01l.9,1.62Z"/><path id="search" d="M11.09,4c3.91,0,7.09,3.18,7.09,7.09s-3.18,7.09-7.09,7.09-7.09-3.18-7.09-7.09,3.18-7.09,7.09-7.09Zm0,12.6c3.05,0,5.51-2.47,5.51-5.51s-2.47-5.51-5.51-5.51-5.51,2.47-5.51,5.51,2.47,5.51,5.51,5.51Zm6.68,.06l2.23,2.23-1.11,1.11-2.23-2.23,1.11-1.11Z"/><path id="settings" d="M3.34,17c-.42-.73-.75-1.51-.98-2.33,1.48-.75,2.06-2.56,1.31-4.03-.29-.57-.75-1.02-1.31-1.31,.45-1.63,1.31-3.13,2.5-4.34,1.39,.9,3.25,.51,4.15-.88,.35-.53,.51-1.16,.48-1.79,1.64-.42,3.36-.42,5.01,0-.09,1.65,1.18,3.07,2.84,3.15,.63,.03,1.26-.14,1.79-.48,.59,.6,1.1,1.28,1.52,2.01,.43,.75,.76,1.53,.98,2.33-1.48,.75-2.06,2.56-1.31,4.03,.29,.57,.75,1.02,1.31,1.31-.45,1.63-1.31,3.13-2.5,4.34-1.39-.9-3.25-.51-4.15,.88-.35,.53-.51,1.16-.48,1.79-1.64,.42-3.36,.42-5.01,0,.09-1.65-1.18-3.07-2.84-3.15-.63-.03-1.26,.14-1.79,.48-.59-.6-1.1-1.28-1.52-2.01Zm5.66,.2c1.07,.61,1.87,1.6,2.25,2.77,.5,.05,1,.05,1.5,0,.38-1.17,1.18-2.16,2.25-2.77,1.07-.62,2.32-.82,3.52-.56,.29-.41,.54-.84,.75-1.3-.82-.92-1.27-2.1-1.27-3.33,0-1.26,.47-2.44,1.27-3.33-.21-.45-.46-.89-.75-1.3-1.2,.25-2.46,.05-3.52-.56-1.07-.61-1.87-1.6-2.25-2.77-.5-.05-1-.05-1.5,0-.38,1.17-1.18,2.16-2.25,2.77-1.07,.62-2.32,.82-3.52,.56-.29,.41-.54,.84-.75,1.3,.82,.92,1.27,2.1,1.27,3.33,0,1.23-.45,2.42-1.27,3.33,.21,.45,.46,.89,.75,1.3,1.2-.25,2.46-.05,3.52,.56Zm3-2.2c-1.66,0-3-1.34-3-3s1.34-3,3-3,3,1.34,3,3-1.34,3-3,3Zm0-2c.55,0,1-.45,1-1s-.45-1-1-1-1,.45-1,1,.45,1,1,1Z"/><path id="share" d="M13.36,16.23l-3.54-1.93c-1.27,1.36-3.4,1.43-4.76,.16-1.36-1.27-1.43-3.4-.16-4.76,1.27-1.36,3.4-1.43,4.76-.16,.05,.05,.11,.1,.16,.16l3.54-1.93c-.46-1.8,.64-3.64,2.44-4.09,1.8-.46,3.64,.64,4.09,2.44s-.64,3.64-2.44,4.09c-1.19,.3-2.45-.07-3.28-.96l-3.54,1.93c.14,.54,.14,1.11,0,1.65l3.54,1.93c1.27-1.36,3.4-1.43,4.76-.16,1.36,1.27,1.43,3.4,.16,4.76-1.27,1.36-3.4,1.43-4.76,.16-.89-.84-1.26-2.1-.96-3.28h0Zm-6-2.54c.93,0,1.68-.75,1.68-1.68s-.75-1.68-1.68-1.68-1.68,.75-1.68,1.68,.75,1.68,1.68,1.68Zm9.26-5.05c.93,0,1.68-.75,1.68-1.68s-.75-1.68-1.68-1.68-1.68,.75-1.68,1.68,.75,1.68,1.68,1.68Zm0,10.11c.93,0,1.68-.75,1.68-1.68s-.75-1.68-1.68-1.68-1.68,.75-1.68,1.68,.75,1.68,1.68,1.68Z"/><path id="sort-ascending" d="M18.5,17h3l-4,4-4-4h3V3h2v14M6.5,3c-2.21,0-4,1.79-4,4s1.79,4,4,4,4-1.79,4-4-1.79-4-4-4m0,6c-1.1,0-2-.9-2-2s.9-2,2-2,2,.9,2,2-.9,2-2,2m0,4c-2.21,0-4,1.79-4,4s1.79,4,4,4,4-1.79,4-4-1.79-4-4-4Z"/><path id="sort-descending" d="M18.5,7h3l-4-4-4,4h3v14h2M4.5,7c0,1.1,.9,2,2,2s2-.9,2-2-.9-2-2-2-2,.9-2,2M6.5,3c2.21,0,4,1.79,4,4s-1.79,4-4,4-4-1.79-4-4S4.29,3,6.5,3m0,10c-2.21,0-4,1.79-4,4s1.79,4,4,4,4-1.79,4-4-1.79-4-4-4Z"/><path id="star" d="M12,17.73l-5.85,3.27,1.31-6.57L2.54,9.88l6.66-.79,2.81-6.09,2.81,6.09,6.66,.79-4.92,4.55,1.31,6.57-5.85-3.27Zm0-1.9l3.52,1.97-.79-3.96,2.96-2.74-4.01-.48-1.69-3.66-1.69,3.67-4.01,.47,2.96,2.74-.79,3.96,3.52-1.97Z"/><path id="translate" d="M12.87,15.07l-2.54-2.51,.03-.03c1.74-1.94,2.98-4.17,3.71-6.53h2.93v-2h-7V2h-2v2H1v2H12.17c-.67,1.92-1.73,3.75-3.17,5.35-.93-1.03-1.7-2.16-2.31-3.35h-2c.73,1.63,1.73,3.17,2.98,4.56l-5.09,5.02,1.42,1.42,5-5,3.11,3.11,.76-2.04m5.63-5.07h-2l-4.5,12h2l1.12-3h4.75l1.13,3h2l-4.5-12m-2.62,7l1.62-4.33,1.62,4.33h-3.24Z"/><path id="verified" d="M12,22c-5.52,0-10-4.48-10-10S6.48,2,12,2s10,4.48,10,10-4.48,10-10,10Zm0-2c4.42,0,8-3.58,8-8s-3.58-8-8-8-8,3.58-8,8,3.58,8,8,8Zm-1-4l-4.24-4.24,1.41-1.41,2.83,2.83,5.66-5.66,1.42,1.41-7.07,7.07Z"/><path id="zip" d="M18.4,20H5.6c-.44,0-.8-.36-.8-.8V4.8c0-.44,.36-.8,.8-.8h12.8c.44,0,.8,.36,.8,.8v14.4c0,.44-.36,.8-.8,.8Zm-.8-1.6V5.6H6.4v12.8h11.2Zm-4-6.4v4h-3.2v-2.4h1.6v-1.6h1.6Zm-1.6-6.4h1.6v1.6h-1.6v-1.6Zm-1.6,1.6h1.6v1.6h-1.6v-1.6Zm1.6,1.6h1.6v1.6h-1.6v-1.6Zm-1.6,1.6h1.6v1.6h-1.6v-1.6Z"/></svg>