<?xml version="1.0" encoding="UTF-8"?><svg id="solar-outline" xmlns="http://www.w3.org/2000/svg" viewBox="0 0 24 24"><path id="archive" d="M5.26,3.84h13.47c.36,0,.69,0,.96,.04,.3,.04,.61,.13,.87,.39,.26,.26,.35,.57,.39,.87,.04,.27,.04,.6,.04,.96v.08c0,.36,0,.69-.04,.96-.04,.3-.13,.61-.39,.87-.25,.25-.54,.34-.83,.39v4.48c0,1.54,0,2.76-.13,3.71-.13,.98-.41,1.78-1.04,2.4-.63,.63-1.42,.9-2.4,1.04-.95,.13-2.17,.13-3.71,.13h-.93c-1.54,0-2.76,0-3.71-.13-.98-.13-1.78-.41-2.4-1.04-.63-.63-.9-1.42-1.04-2.4-.13-.95-.13-2.17-.13-3.71v-4.48c-.28-.04-.58-.14-.83-.39-.26-.26-.35-.57-.39-.87-.04-.27-.04-.6-.04-.96v-.08c0-.36,0-.69,.04-.96,.04-.3,.13-.61,.39-.87,.26-.26,.57-.35,.87-.39,.27-.04,.6-.04,.96-.04h0Zm.25,4.6v4.4c0,1.6,0,2.73,.12,3.59,.11,.84,.33,1.33,.68,1.68s.84,.57,1.68,.68c.86,.12,1.99,.12,3.59,.12h.84c1.6,0,2.73,0,3.59-.12,.84-.11,1.33-.33,1.68-.68s.57-.84,.68-1.68c.12-.86,.12-1.99,.12-3.59v-4.4H5.51Zm-1.19-3.29h0s.1-.03,.15-.04c.18-.02,.42-.03,.83-.03h13.4c.41,0,.66,0,.83,.03,.05,0,.1,.02,.15,.04h0s0,0,0,0c.02,.05,.03,.1,.04,.15,.02,.18,.03,.42,.03,.83s0,.66-.03,.83c0,.05-.02,.1-.04,.15h0s0,0,0,0c-.05,.02-.1,.03-.15,.04-.18,.02-.42,.03-.83,.03H5.3c-.41,0-.66,0-.83-.03-.05,0-.1-.02-.15-.04h0s0,0,0,0c-.02-.05-.03-.1-.04-.15-.02-.18-.03-.42-.03-.83s0-.66,.03-.83c0-.05,.02-.1,.04-.15,0,0,0,0,0,0Zm10.19,5.54c.26,.23,.28,.63,.05,.89l-2.99,3.35c-.23,.26-.63,.28-.89,.05-.02-.02-.03-.03-.05-.05l-1.2-1.34c-.24-.25-.24-.65,.01-.89,.25-.24,.65-.24,.89,.01,.01,.01,.02,.03,.04,.04l.73,.81,2.52-2.82c.23-.26,.63-.28,.89-.05h0Z" style="fill-rule:evenodd;"/><path id="arrow-left" d="M4.2,12.48c-.27-.27-.27-.7,0-.97l5.49-5.49c.26-.28,.69-.29,.97-.03,.28,.26,.29,.69,.03,.97-.01,.01-.02,.02-.03,.03l-4.32,4.32h12.97c.38,0,.69,.31,.69,.69s-.31,.69-.69,.69H6.34l4.32,4.32c.28,.26,.29,.69,.03,.97-.26,.28-.69,.29-.97,.03-.01-.01-.02-.02-.03-.03,0,0-5.49-5.49-5.49-5.49Z" style="fill-rule:evenodd;"/><path id="arrow-right" d="M19.8,11.52c.27,.27,.27,.7,0,.97l-5.49,5.49c-.26,.28-.69,.29-.97,.03-.28-.26-.29-.69-.03-.97,.01-.01,.02-.02,.03-.03l4.32-4.32H4.69c-.38,0-.69-.31-.69-.69s.31-.69,.69-.69h12.97l-4.32-4.32c-.28-.26-.29-.69-.03-.97,.26-.28,.69-.29,.97-.03,.01,.01,.02,.02,.03,.03,0,0,5.49,5.49,5.49,5.49Z" style="fill-rule:evenodd;"/><path id="arrow-top" d="M11.52,4.2c.27-.27,.7-.27,.97,0l5.49,5.49c.28,.26,.29,.69,.03,.97-.26,.28-.69,.29-.97,.03-.01-.01-.02-.02-.03-.03l-4.32-4.32v12.97c0,.38-.31,.69-.69,.69s-.69-.31-.69-.69V6.34l-4.32,4.32c-.26,.28-.69,.29-.97,.03-.28-.26-.29-.69-.03-.97,.01-.01,.02-.02,.03-.03,0,0,5.49-5.49,5.49-5.49Z" style="fill-rule:evenodd;"/><path id="bookmark" d="M20.1,11.19v4.49c0,2.79,0,4.18-.66,4.79-.31,.29-.71,.47-1.14,.52-.89,.1-1.93-.82-4-2.65-.92-.81-1.38-1.22-1.91-1.32-.26-.05-.53-.05-.79,0-.53,.11-.99,.51-1.91,1.32-2.07,1.84-3.11,2.75-4,2.65-.42-.05-.82-.23-1.14-.52-.66-.61-.66-2-.66-4.79v-4.49c0-3.86,0-5.79,1.19-6.99,1.19-1.2,3.1-1.2,6.91-1.2s5.73,0,6.91,1.2c1.19,1.2,1.19,3.13,1.19,6.99ZM8.63,6.6c0-.37,.3-.67,.67-.67h5.4c.37,0,.67,.3,.67,.67s-.3,.67-.67,.67h-5.4c-.37,0-.67-.3-.67-.67Z" style="fill-rule:evenodd;"/><path id="bookmark-add" d="M9.49,6.35c-.35,0-.63,.28-.63,.63s.28,.63,.63,.63h5.02c.35,0,.63-.28,.63-.63s-.28-.63-.63-.63h-5.02Zm2.46-3.35c-1.74,0-3.1,0-4.17,.14-1.1,.15-1.97,.46-2.66,1.16-.69,.69-.99,1.58-1.14,2.68-.14,1.08-.14,2.46-.14,4.21v4.27c0,1.26,0,2.26,.08,3.01,.08,.74,.25,1.41,.74,1.86,.39,.36,.88,.59,1.41,.65,.66,.08,1.27-.24,1.88-.67,.61-.43,1.36-1.09,2.3-1.92l.03-.03c.44-.39,.73-.64,.98-.83,.24-.17,.38-.24,.5-.26,.16-.03,.33-.03,.49,0,.12,.03,.27,.09,.5,.26,.25,.18,.54,.44,.98,.83l.03,.03c.94,.83,1.68,1.49,2.3,1.92,.61,.43,1.22,.74,1.88,.67,.53-.06,1.02-.29,1.41-.65,.49-.45,.66-1.12,.74-1.86,.08-.75,.08-1.75,.08-3.01v-4.27c0-1.75,0-3.14-.14-4.21-.15-1.11-.46-1.99-1.14-2.68-.69-.69-1.56-1.01-2.66-1.16-1.07-.14-2.44-.14-4.17-.14,0,0-.1,0-.1,0Zm-5.94,2.19c.42-.42,.98-.67,1.94-.8,.97-.13,2.26-.13,4.05-.13s3.08,0,4.05,.13c.95,.13,1.52,.38,1.94,.8,.42,.42,.66,.99,.79,1.96,.13,.99,.13,2.28,.13,4.1v4.18c0,1.31,0,2.24-.07,2.92-.08,.69-.21,.96-.34,1.07-.2,.18-.44,.29-.7,.32-.17,.02-.45-.05-1.01-.45-.55-.39-1.24-1-2.22-1.87l-.02-.02c-.41-.36-.75-.66-1.05-.88-.31-.23-.63-.4-1-.48-.32-.07-.66-.07-.98,0-.37,.08-.69,.25-1,.48-.3,.22-.64,.52-1.05,.88l-.02,.02c-.98,.86-1.67,1.48-2.22,1.87-.57,.4-.85,.46-1.01,.45-.26-.03-.51-.14-.7-.32-.13-.12-.26-.38-.34-1.07-.07-.68-.07-1.61-.07-2.92v-4.18c0-1.81,0-3.11,.13-4.1,.13-.97,.37-1.54,.79-1.96Z"/><path id="check" d="M15.75,10.17c.28-.26,.3-.7,.03-.99-.26-.28-.7-.3-.99-.03-.01,.01-.02,.02-.03,.03l-4.16,4.16-1.37-1.37c-.28-.26-.72-.25-.99,.03-.25,.27-.25,.68,0,.95l1.86,1.86c.27,.27,.71,.27,.99,0,0,0,4.65-4.65,4.65-4.65ZM12.05,2h-.11c-2.15,0-3.83,0-5.14,.18-1.34,.18-2.4,.56-3.24,1.39-.83,.83-1.21,1.89-1.39,3.24-.18,1.31-.18,3-.18,5.14v.11c0,2.15,0,3.83,.18,5.14,.18,1.34,.56,2.4,1.39,3.24,.83,.83,1.89,1.21,3.24,1.39,1.31,.18,3,.18,5.14,.18h.11c2.15,0,3.83,0,5.14-.18,1.34-.18,2.4-.56,3.24-1.39,.83-.83,1.21-1.89,1.39-3.24,.18-1.31,.18-3,.18-5.14v-.11c0-2.15,0-3.83-.18-5.14-.18-1.34-.56-2.4-1.39-3.24-.83-.83-1.89-1.21-3.24-1.39-1.31-.18-3-.18-5.14-.18Zm-7.5,2.55c.53-.53,1.25-.83,2.44-.99,1.21-.16,2.8-.16,5.01-.16s3.8,0,5.01,.16c1.19,.16,1.91,.47,2.44,.99,.53,.53,.83,1.25,.99,2.44,.16,1.21,.16,2.8,.16,5.01s0,3.8-.16,5.01c-.16,1.19-.47,1.91-.99,2.44-.53,.53-1.25,.83-2.44,.99-1.21,.16-2.8,.16-5.01,.16s-3.8,0-5.01-.16c-1.19-.16-1.91-.47-2.44-.99-.53-.53-.83-1.25-.99-2.44-.16-1.21-.16-2.8-.16-5.01s0-3.8,.16-5.01c.16-1.19,.47-1.91,.99-2.44h0Z"/><path id="clear" d="M11.1,9.18c-.28-.26-.72-.25-.99,.03-.25,.27-.25,.68,0,.95l1.83,1.83-1.83,1.83c-.28,.26-.3,.7-.03,.99,.26,.28,.7,.3,.99,.03,.01-.01,.02-.02,.03-.03l1.83-1.83,1.83,1.83c.28,.26,.72,.25,.99-.03,.25-.27,.25-.68,0-.95l-1.83-1.83,1.83-1.83c.26-.28,.25-.72-.03-.99-.27-.25-.68-.25-.95,0l-1.83,1.83s-1.83-1.83-1.83-1.83Zm9.57-4.03c-.71-.69-1.61-1-2.73-1.15-1.09-.14-2.48-.14-4.24-.14h-2.54c-1.01,0-1.81,0-2.47,.06-.68,.06-1.26,.2-1.8,.49-.55,.29-.97,.7-1.39,1.23-.4,.51-.83,1.18-1.36,2.01l-.67,1.05c-.44,.69-.81,1.26-1.06,1.75-.26,.51-.42,1-.42,1.55s.16,1.04,.42,1.55c.25,.49,.61,1.06,1.06,1.75l.67,1.05c.53,.83,.96,1.49,1.36,2.01,.42,.53,.84,.94,1.39,1.23,.54,.29,1.12,.43,1.8,.49,.66,.06,1.46,.06,2.47,.06h2.54c1.76,0,3.15,0,4.24-.14,1.11-.15,2.02-.45,2.73-1.15,.71-.69,1.03-1.58,1.18-2.67,.15-1.06,.15-2.42,.15-4.12v-.11c0-1.71,0-3.06-.15-4.12-.15-1.09-.47-1.98-1.18-2.67h0Zm-7.01,.11c1.82,0,3.12,0,4.11,.13,.97,.13,1.53,.36,1.94,.76,.41,.39,.65,.93,.78,1.86,.13,.95,.13,2.21,.13,3.99s0,3.03-.13,3.99c-.13,.93-.37,1.47-.78,1.87-.41,.4-.97,.64-1.94,.76-.99,.13-2.28,.13-4.11,.13h-2.45c-1.05,0-1.79,0-2.37-.06-.57-.05-.95-.15-1.27-.33-.32-.17-.6-.43-.95-.87-.36-.45-.75-1.06-1.3-1.93l-.63-.99c-.47-.73-.79-1.24-1-1.65-.2-.4-.27-.67-.27-.93s.07-.52,.27-.93c.21-.42,.53-.92,1-1.65l.63-.99c.56-.87,.95-1.47,1.31-1.93,.35-.44,.63-.69,.95-.87,.32-.17,.69-.27,1.27-.33,.59-.05,1.33-.05,2.37-.05,0,0,2.45,0,2.45,0Z"/><path id="clear_rtl" d="M12.9,14.82c.28,.26,.72,.25,.99-.03,.25-.27,.25-.68,0-.95l-1.83-1.83,1.83-1.83c.28-.26,.3-.7,.03-.99-.26-.28-.7-.3-.99-.03-.01,.01-.02,.02-.03,.03l-1.83,1.83-1.83-1.83c-.28-.26-.72-.25-.99,.03-.25,.27-.25,.68,0,.95l1.83,1.83-1.83,1.83c-.26,.28-.25,.72,.03,.99,.27,.25,.68,.25,.95,0l1.83-1.83s1.83,1.83,1.83,1.83ZM3.33,18.85c.71,.69,1.61,1,2.73,1.15,1.09,.14,2.48,.14,4.24,.14h2.54c1.01,0,1.81,0,2.47-.06,.68-.06,1.26-.2,1.8-.49,.55-.29,.97-.7,1.39-1.23,.4-.51,.83-1.18,1.36-2.01l.67-1.05c.44-.69,.81-1.26,1.06-1.75,.26-.51,.42-1,.42-1.55s-.16-1.04-.42-1.55c-.25-.49-.61-1.06-1.06-1.75l-.67-1.05c-.53-.83-.96-1.49-1.36-2.01-.42-.53-.84-.94-1.39-1.23-.54-.29-1.12-.43-1.8-.49-.66-.06-1.46-.06-2.47-.06h-2.54c-1.76,0-3.15,0-4.24,.14-1.11,.15-2.02,.45-2.73,1.15-.71,.69-1.03,1.58-1.18,2.67-.15,1.06-.15,2.42-.15,4.12v.11c0,1.71,0,3.06,.15,4.12,.15,1.09,.47,1.98,1.18,2.67h0Zm7.01-.11c-1.82,0-3.12,0-4.11-.13-.97-.13-1.53-.36-1.94-.76-.41-.39-.65-.93-.78-1.86-.13-.95-.13-2.21-.13-3.99s0-3.03,.13-3.99c.13-.93,.37-1.47,.78-1.87,.41-.4,.97-.64,1.94-.76,.99-.13,2.28-.13,4.11-.13h2.45c1.05,0,1.79,0,2.37,.06,.57,.05,.95,.15,1.27,.33,.32,.17,.6,.43,.95,.87,.36,.45,.75,1.06,1.3,1.93l.63,.99c.47,.73,.79,1.24,1,1.65,.2,.4,.27,.67,.27,.93s-.07,.52-.27,.93c-.21,.42-.53,.92-1,1.65l-.63,.99c-.56,.87-.95,1.47-1.31,1.93-.35,.44-.63,.69-.95,.87-.32,.17-.69,.27-1.27,.33-.59,.05-1.33,.05-2.37,.05,0,0-2.45,0-2.45,0Z"/><path id="close" d="M10.17,9.18c-.28-.26-.72-.25-.99,.03-.25,.27-.25,.68,0,.95l1.83,1.83-1.83,1.83c-.28,.26-.3,.7-.03,.99,.26,.28,.7,.3,.99,.03,.01-.01,.02-.02,.03-.03l1.83-1.83,1.83,1.83c.28,.26,.72,.25,.99-.03,.25-.27,.25-.68,0-.95l-1.83-1.83,1.83-1.83c.28-.26,.3-.7,.03-.99-.26-.28-.7-.3-.99-.03-.01,.01-.02,.02-.03,.03l-1.83,1.83s-1.83-1.83-1.83-1.83Zm1.83-7.18C6.48,2,2,6.48,2,12s4.48,10,10,10,10-4.48,10-10S17.52,2,12,2ZM3.4,12C3.4,7.25,7.25,3.4,12,3.4s8.6,3.85,8.6,8.6-3.85,8.6-8.6,8.6S3.4,16.75,3.4,12Z"/><path id="comment" d="M9.21,12c0,.51-.42,.93-.93,.93s-.93-.42-.93-.93,.42-.93,.93-.93,.93,.42,.93,.93Zm3.72,0c0,.51-.42,.93-.93,.93s-.93-.42-.93-.93,.42-.93,.93-.93,.93,.42,.93,.93Zm3.72,0c0,.51-.42,.93-.93,.93s-.93-.42-.93-.93,.42-.93,.93-.93,.93,.42,.93,.93Zm5.35,0c0-5.52-4.48-10-10-10S2,6.48,2,12c0,1.6,.38,3.11,1.04,4.45,.1,.2,.12,.4,.07,.58l-.55,2.07c-.38,1.42,.92,2.71,2.33,2.33l2.07-.55c.19-.05,.4-.02,.58,.07,1.38,.69,2.91,1.05,4.45,1.04,5.52,0,10-4.48,10-10ZM12,3.4c4.75,0,8.6,3.85,8.6,8.6s-3.85,8.6-8.6,8.6c-1.33,0-2.64-.31-3.83-.9-.48-.25-1.04-.31-1.56-.17l-2.07,.55c-.27,.07-.55-.09-.63-.36-.02-.09-.02-.18,0-.26l.55-2.07c.13-.52,.07-1.08-.17-1.56-.59-1.19-.9-2.5-.9-3.83C3.4,7.25,7.25,3.4,12,3.4Z"/><path id="comment-text" d="M12,3.4C7.25,3.4,3.4,7.25,3.4,12c0,1.38,.32,2.68,.9,3.83,.23,.46,.32,1.02,.17,1.56l-.55,2.07c-.07,.27,.09,.55,.36,.63,.09,.02,.18,.02,.26,0l2.07-.55c.52-.13,1.08-.07,1.56,.17,1.19,.59,2.5,.9,3.83,.9,4.75,0,8.6-3.85,8.6-8.6S16.75,3.4,12,3.4ZM2,12C2,6.48,6.48,2,12,2s10,4.48,10,10-4.48,10-10,10c-1.6,0-3.11-.38-4.45-1.04-.18-.09-.38-.12-.58-.07l-2.07,.55c-1.42,.38-2.71-.92-2.33-2.33l.55-2.07c.05-.19,.02-.4-.07-.58-.69-1.38-1.05-2.91-1.04-4.45Zm5.58-1.4c0-.39,.31-.7,.7-.7h7.44c.39,0,.7,.31,.7,.7s-.31,.7-.7,.7h-7.44c-.39,0-.7-.31-.7-.7Zm0,3.26c0-.39,.31-.7,.7-.7h5.12c.39,0,.7,.31,.7,.7s-.31,.7-.7,.7h-5.12c-.39,0-.7-.31-.7-.7Z" style="fill-rule:evenodd;"/><path id="copy" d="M14.79,2h-3.77c-1.71,0-3.06,0-4.12,.14-1.09,.15-1.97,.46-2.67,1.15-.7,.7-1,1.58-1.15,2.67-.14,1.06-.14,2.41-.14,4.12v5.63c0,1.72,1.25,3.18,2.95,3.45,.13,.71,.37,1.32,.87,1.81,.56,.56,1.27,.8,2.1,.91,.81,.11,1.83,.11,3.1,.11h2.89c1.27,0,2.3,0,3.1-.11,.84-.11,1.54-.35,2.1-.91s.8-1.27,.91-2.1c.11-.81,.11-1.83,.11-3.1v-4.75c0-1.27,0-2.3-.11-3.1-.11-.84-.35-1.54-.91-2.1-.49-.49-1.1-.74-1.81-.87-.27-1.7-1.73-2.95-3.45-2.95Zm1.98,2.81c-.29-.85-1.09-1.42-1.98-1.41h-3.72c-1.77,0-3.03,0-3.99,.13-.93,.13-1.47,.36-1.87,.76-.39,.39-.63,.93-.76,1.87-.13,.96-.13,2.22-.13,3.99v5.58c0,.9,.57,1.69,1.41,1.98-.02-.57-.02-1.21-.02-1.93v-4.75c0-1.27,0-2.3,.11-3.1,.11-.84,.35-1.54,.91-2.1,.56-.56,1.27-.8,2.1-.91,.81-.11,1.83-.11,3.1-.11h2.89c.72,0,1.36,0,1.93,.02h0Zm-9.04,1.99c.26-.26,.62-.43,1.3-.52,.7-.09,1.63-.1,2.97-.1h2.79c1.33,0,2.27,0,2.97,.1,.68,.09,1.04,.26,1.3,.52,.26,.26,.43,.62,.52,1.3,.09,.7,.1,1.63,.1,2.97v4.65c0,1.33,0,2.27-.1,2.97-.09,.68-.26,1.04-.52,1.3-.26,.26-.62,.43-1.3,.52-.7,.09-1.63,.1-2.97,.1h-2.79c-1.33,0-2.27,0-2.97-.1-.68-.09-1.04-.26-1.3-.52-.26-.26-.43-.62-.52-1.3-.09-.7-.1-1.63-.1-2.97v-4.65c0-1.33,0-2.27,.1-2.97,.09-.68,.26-1.04,.52-1.3Z" style="fill-rule:evenodd;"/><path id="dark" d="M19.78,2.81c-.31-.77-1.4-.77-1.7,0l-.4,1.01-1.01,.4c-.77,.31-.77,1.4,0,1.7l1.01,.4,.4,1.01c.3,.77,1.4,.77,1.7,0l.4-1.01,1.01-.4c.77-.31,.77-1.4,0-1.7l-1.01-.4s-.4-1.01-.4-1.01Zm-.85,.38l.39,.98c.09,.24,.28,.42,.52,.52l.98,.39-.98,.39c-.24,.09-.42,.28-.52,.52l-.39,.98-.39-.98c-.09-.24-.28-.42-.52-.52l-.98-.39,.98-.39c.24-.09,.42-.28,.52-.52,0,0,.39-.98,.39-.98Zm-2.75,5.04c-.3-.77-1.4-.77-1.7,0l-.14,.37-.36,.14c-.77,.31-.77,1.4,0,1.71l.36,.14,.14,.37c.3,.77,1.4,.77,1.7,0l.14-.37,.36-.14c.77-.31,.77-1.4,0-1.71l-.36-.14s-.14-.37-.14-.37Zm-.85,.38l.13,.33c.09,.24,.28,.42,.52,.52l.34,.13-.34,.13c-.24,.09-.42,.28-.52,.52l-.13,.33-.13-.33c-.09-.24-.28-.42-.52-.52l-.34-.13,.34-.13c.24-.09,.42-.28,.52-.52,0,0,.13-.33,.13-.33ZM11.09,3.44C6.36,3.95,2.94,8.19,3.44,12.91c.51,4.73,4.75,8.15,9.47,7.64,4.03-.43,7.21-3.61,7.64-7.64-2.3,2.93-6.54,3.43-9.47,1.13-2.93-2.3-3.43-6.54-1.13-9.47,.33-.42,.71-.8,1.13-1.13ZM2,12C2,6.48,6.48,2,12,2c.67,0,1,.53,1.06,.95,.05,.41-.1,.93-.56,1.21-2.53,1.53-3.34,4.81-1.82,7.34,1.53,2.53,4.81,3.34,7.34,1.82,.74-.45,1.37-1.07,1.82-1.82,.28-.47,.8-.62,1.21-.56,.42,.06,.95,.39,.95,1.06,0,5.52-4.48,10-10,10S2,17.52,2,12Z"/><path id="download" d="M12.57,16.62c-.29,.31-.77,.34-1.09,.05-.02-.02-.03-.03-.05-.05l-4.1-4.49c-.29-.31-.26-.8,.05-1.09,.31-.29,.8-.26,1.09,.05l2.77,3.03V2.77c0-.42,.34-.77,.77-.77s.77,.34,.77,.77V14.12l2.77-3.03c.29-.31,.77-.34,1.09-.05,.31,.29,.34,.77,.05,1.09l-4.1,4.49h0Zm-9.03-1.54c0-.42-.34-.77-.77-.77s-.77,.34-.77,.77v.06c0,1.4,0,2.53,.12,3.42,.12,.92,.39,1.7,1.01,2.32,.62,.62,1.39,.88,2.32,1.01,.89,.12,2.02,.12,3.42,.12h6.27c1.4,0,2.53,0,3.42-.12,.92-.13,1.7-.39,2.32-1.01s.88-1.39,1.01-2.32c.12-.89,.12-2.02,.12-3.42v-.06c0-.42-.34-.77-.77-.77s-.77,.34-.77,.77c0,1.47,0,2.5-.11,3.27-.1,.75-.29,1.15-.57,1.43-.28,.28-.68,.47-1.44,.57-.77,.1-1.8,.11-3.27,.11h-6.15c-1.47,0-2.5,0-3.27-.11-.75-.1-1.15-.29-1.43-.57-.28-.28-.47-.68-.57-1.44-.1-.77-.11-1.8-.11-3.27Z"/><path id="home" d="M9.86,14.84c-.28-.21-.67-.15-.88,.13s-.15,.67,.13,.88h0c.83,.62,1.85,.96,2.89,.96,1.04,0,2.05-.34,2.89-.96,.28-.2,.35-.59,.14-.88-.2-.28-.59-.35-.88-.14,0,0-.01,0-.02,.01-.62,.46-1.37,.71-2.14,.71-.77,0-1.52-.25-2.14-.71ZM12,3c-.61,0-1.16,.17-1.77,.45-.59,.27-1.27,.68-2.12,1.18l-1.22,.73c-.94,.56-1.68,1-2.25,1.43-.58,.44-1.02,.89-1.31,1.49-.29,.6-.36,1.22-.34,1.95,.02,.7,.15,1.56,.3,2.63l.25,1.7c.2,1.38,.36,2.48,.59,3.33,.24,.88,.59,1.58,1.21,2.11,.62,.54,1.36,.77,2.27,.89,.88,.11,2,.11,3.4,.11h1.94c1.41,0,2.52,0,3.4-.11,.91-.11,1.65-.35,2.27-.89,.62-.54,.97-1.23,1.21-2.11,.24-.85,.39-1.95,.59-3.33l.24-1.7c.15-1.07,.28-1.93,.3-2.63,.03-.73-.05-1.35-.34-1.95-.29-.6-.72-1.05-1.31-1.49-.57-.43-1.31-.87-2.25-1.43l-1.22-.73c-.85-.51-1.53-.91-2.12-1.18-.61-.28-1.16-.45-1.77-.45Zm-3.27,2.73c.88-.53,1.51-.9,2.03-1.14,.51-.24,.88-.33,1.24-.33s.73,.09,1.24,.33c.52,.24,1.15,.62,2.03,1.14l1.16,.69c.98,.58,1.66,.99,2.17,1.37,.49,.37,.76,.68,.93,1.03,.17,.35,.24,.75,.22,1.36-.02,.63-.13,1.42-.29,2.53l-.23,1.62c-.21,1.43-.35,2.45-.57,3.22-.21,.75-.46,1.18-.82,1.5-.36,.31-.83,.5-1.61,.59-.8,.1-1.83,.1-3.29,.1h-1.85c-1.46,0-2.49,0-3.29-.1-.78-.1-1.25-.28-1.61-.59-.36-.31-.61-.75-.82-1.5-.21-.77-.36-1.78-.57-3.22l-.23-1.62c-.16-1.12-.27-1.91-.29-2.53-.02-.61,.05-1.01,.22-1.36,.17-.35,.44-.65,.93-1.03,.5-.38,1.19-.79,2.17-1.37,0,0,1.16-.69,1.16-.69Z"/><path id="label" d="M10.82,3.88c.1-.37-.11-.75-.48-.85-.37-.1-.75,.11-.85,.48l-1.4,5.03h-3.47c-.38,0-.69,.31-.69,.69s.31,.69,.69,.69h3.09l-1.41,5.08H2.77c-.38,0-.69,.31-.69,.69s.31,.69,.69,.69h3.14l-1.04,3.74c-.1,.37,.11,.75,.48,.85s.75-.11,.85-.48l1.14-4.11h6.87l-1.04,3.74c-.1,.37,.11,.75,.48,.85,.37,.1,.75-.11,.85-.48l1.14-4.11h3.73c.38,0,.69-.31,.69-.69s-.31-.69-.69-.69h-3.35l1.41-5.08h3.78c.38,0,.69-.31,.69-.69s-.31-.69-.69-.69h-3.4l1.3-4.66c.1-.37-.11-.75-.48-.85s-.75,.11-.85,.48h0l-1.4,5.03h-6.87s1.3-4.66,1.3-4.66Zm3.78,11.12l1.41-5.08h-6.87l-1.41,5.08h6.87Z" style="fill-rule:evenodd;"/><path id="light" d="M12,2c.39,0,.7,.31,.7,.7v1.86c0,.39-.31,.7-.7,.7s-.7-.31-.7-.7v-1.86c0-.39,.31-.7,.7-.7Zm-7.75,2.29c.26-.28,.7-.3,.99-.04,0,0,0,0,0,0l2.07,1.89c.29,.26,.31,.7,.06,.98-.26,.29-.7,.31-.98,.06,0,0,0,0-.01-.01l-2.07-1.89c-.28-.26-.3-.7-.04-.99,0,0,0,0,0,0Zm15.5,0c.26,.28,.24,.73-.04,.99,0,0,0,0,0,0l-2.07,1.89c-.29,.26-.73,.23-.98-.06-.25-.28-.23-.71,.04-.97l2.07-1.89c.28-.26,.73-.24,.99,.04,0,0,0,0,0,0h0Zm-7.75,3.75c-2.18,0-3.95,1.77-3.95,3.95s1.77,3.95,3.95,3.95,3.95-1.77,3.95-3.95-1.77-3.95-3.95-3.95Zm-5.35,3.95c0-2.95,2.39-5.35,5.35-5.35s5.35,2.39,5.35,5.35-2.39,5.35-5.35,5.35-5.35-2.39-5.35-5.35Zm-4.65,0c0-.39,.31-.7,.7-.7h1.86c.39,0,.7,.31,.7,.7s-.31,.7-.7,.7h-1.86c-.39,0-.7-.31-.7-.7Zm16.74,0c0-.39,.31-.7,.7-.7h1.86c.39,0,.7,.31,.7,.7s-.31,.7-.7,.7h-1.86c-.39,0-.7-.31-.7-.7Zm-2.07,4.67c.27-.27,.71-.27,.99,0l2.07,2.07c.26,.28,.25,.72-.03,.99-.27,.25-.68,.25-.95,0l-2.07-2.07c-.27-.27-.27-.71,0-.99h0Zm-9.35,0c.27,.27,.27,.71,0,.99,0,0,0,0,0,0l-2.07,2.07c-.28,.26-.72,.25-.99-.03-.25-.27-.25-.68,0-.95l2.07-2.07c.27-.27,.71-.27,.99,0h0Zm4.67,2.07c.39,0,.7,.31,.7,.7v1.86c0,.39-.31,.7-.7,.7s-.7-.31-.7-.7v-1.86c0-.39,.31-.7,.7-.7Z" style="fill-rule:evenodd;"/><path id="link" d="M15.12,5.21c1.2-1.21,2.96-1.23,3.93-.25,.97,.98,.95,2.75-.25,3.95l-2.03,2.04c-.24,.25-.23,.65,.02,.89,.24,.23,.63,.23,.87,0l2.03-2.04c1.6-1.61,1.8-4.17,.25-5.72-1.55-1.55-4.11-1.35-5.71,.25l-4.06,4.07c-1.6,1.61-1.8,4.17-.25,5.72,.24,.25,.64,.26,.89,.02,.25-.24,.26-.64,.02-.89,0,0-.01-.01-.02-.02-.97-.98-.95-2.75,.25-3.95l4.06-4.07h0Zm-1.04,4.68c-.25-.25-.64-.25-.89,0-.25,.25-.25,.64,0,.89,.97,.98,.95,2.75-.25,3.95l-4.06,4.07c-1.2,1.21-2.96,1.23-3.93,.25-.97-.98-.95-2.75,.25-3.95l2.03-2.04c.24-.25,.24-.64,0-.89s-.64-.24-.89,0l-2.03,2.04c-1.6,1.61-1.8,4.17-.25,5.72,1.55,1.56,4.11,1.35,5.71-.25l4.06-4.07c1.6-1.61,1.8-4.17,.25-5.72h0Z"/><path id="link-open" d="M12,3h-.05c-1.93,0-3.45,0-4.63,.16-1.21,.16-2.16,.5-2.91,1.25-.75,.75-1.09,1.7-1.25,2.91-.16,1.18-.16,2.7-.16,4.63v.1c0,1.93,0,3.45,.16,4.63,.16,1.21,.5,2.16,1.25,2.91,.75,.75,1.7,1.09,2.91,1.25,1.18,.16,2.7,.16,4.63,.16h.1c1.93,0,3.45,0,4.63-.16,1.21-.16,2.16-.5,2.91-1.25,.75-.75,1.09-1.7,1.25-2.91,.16-1.18,.16-2.7,.16-4.63v-.05c0-.35-.28-.63-.63-.63s-.63,.28-.63,.63c0,1.99,0,3.42-.15,4.51-.14,1.07-.42,1.72-.89,2.19-.48,.48-1.12,.75-2.19,.89-1.09,.15-2.52,.15-4.51,.15s-3.42,0-4.51-.15c-1.07-.14-1.72-.42-2.19-.89-.48-.48-.75-1.12-.89-2.19-.15-1.09-.15-2.52-.15-4.51s0-3.42,.15-4.51c.14-1.07,.42-1.72,.89-2.19,.48-.48,1.12-.75,2.19-.89,1.09-.15,2.52-.15,4.51-.15,.35,0,.63-.28,.63-.63s-.28-.63-.63-.63Zm.39,7.72c-.25,.24-.27,.63-.03,.89s.63,.27,.89,.03c.01-.01,.02-.02,.03-.03l6.46-6.46v2.96c0,.35,.28,.63,.63,.63s.63-.28,.63-.63V3.63c0-.35-.28-.63-.63-.63h-4.47c-.35,0-.63,.28-.63,.63s.28,.63,.63,.63h2.96l-6.46,6.46h0Z"/><path id="list" d="M8.69,4.04c.24,.25,.22,.65-.03,.89l-3.59,3.35c-.25,.24-.65,.22-.89-.03-.01-.01-.02-.02-.03-.03l-1.02-1.26c-.22-.27-.18-.67,.09-.88s.67-.18,.88,.09l.59,.73,3.1-2.89c.25-.24,.65-.22,.89,.03Zm2.68,2.1c0-.35,.28-.63,.63-.63h8.37c.35,0,.63,.28,.63,.63s-.28,.63-.63,.63H12c-.35,0-.63-.28-.63-.63Zm-2.68,3.76c.24,.25,.22,.65-.03,.89l-3.59,3.35c-.25,.24-.65,.22-.89-.03-.01-.01-.02-.02-.03-.03l-1.02-1.26c-.22-.27-.18-.67,.09-.88,.27-.22,.67-.18,.88,.09h0l.59,.73,3.1-2.89c.25-.24,.65-.22,.89,.03Zm2.68,2.1c0-.35,.28-.63,.63-.63h8.37c.35,0,.63,.28,.63,.63s-.28,.63-.63,.63H12c-.35,0-.63-.28-.63-.63Zm-2.68,3.76c.24,.25,.22,.65-.03,.89l-3.59,3.35c-.25,.24-.65,.22-.89-.03-.01-.01-.02-.02-.03-.03l-1.02-1.26c-.22-.27-.18-.67,.09-.88,.27-.22,.67-.18,.88,.09l.59,.73,3.1-2.89c.25-.24,.65-.22,.89,.03Zm2.68,2.1c0-.35,.28-.63,.63-.63h8.37c.35,0,.63,.28,.63,.63s-.28,.63-.63,.63H12c-.35,0-.63-.28-.63-.63Z" style="fill-rule:evenodd;"/><path id="lock" d="M20.98,10.46c-.64-.64-1.48-.88-2.7-.97v-1.21c0-3.46-2.82-6.28-6.28-6.28s-6.28,2.82-6.28,6.28v1.21c-1.22,.09-2.05,.32-2.7,.97-1.02,1.02-1.02,2.53-1.02,5.26s0,4.24,1.02,5.26c1.02,1.02,2.53,1.02,5.26,1.02h7.44c2.73,0,4.24,0,5.26-1.02,1.02-1.02,1.02-2.53,1.02-5.26s0-4.24-1.02-5.26Zm-13.86-2.18c0-2.69,2.19-4.88,4.88-4.88s4.88,2.19,4.88,4.88v1.17c-.36,0-.74,0-1.16,0h-7.44c-.42,0-.8,0-1.16,0v-1.17Zm12.87,11.71c-.61,.61-1.83,.61-4.27,.61h-7.44c-2.43,0-3.66,0-4.27-.61-.61-.61-.61-1.83-.61-4.27s0-3.66,.61-4.27c.61-.61,1.84-.61,4.27-.61h7.44c2.44,0,3.66,0,4.27,.61,.61,.61,.61,1.84,.61,4.27s0,3.66-.61,4.27Zm-7.99-6.83c-1.41,0-2.56,1.15-2.56,2.56s1.15,2.56,2.56,2.56,2.56-1.15,2.56-2.56-1.15-2.56-2.56-2.56Zm0,3.72c-.64,0-1.16-.52-1.16-1.16s.52-1.16,1.16-1.16,1.16,.52,1.16,1.16-.52,1.16-1.16,1.16Z"/><path id="menu" d="M21,6.86c0,.43-.35,.77-.77,.77H3.77c-.43,0-.77-.35-.77-.77s.35-.77,.77-.77H20.23c.43,0,.77,.35,.77,.77Zm0,5.14c0,.43-.35,.77-.77,.77H3.77c-.43,0-.77-.35-.77-.77s.35-.77,.77-.77H20.23c.43,0,.77,.35,.77,.77Zm0,5.14c0,.43-.35,.77-.77,.77H3.77c-.43,0-.77-.35-.77-.77s.35-.77,.77-.77H20.23c.43,0,.77,.35,.77,.77Z" style="fill-rule:evenodd;"/><path id="menu-more" d="M20,12c0,1.25-1.01,2.26-2.26,2.26s-2.26-1.01-2.26-2.26,1.01-2.26,2.26-2.26,2.26,1.01,2.26,2.26Zm-2.26,1.03c.57,0,1.03-.46,1.03-1.03s-.46-1.03-1.03-1.03-1.03,.46-1.03,1.03,.46,1.03,1.03,1.03Zm-3.49-1.03c0,1.25-1.01,2.26-2.26,2.26s-2.26-1.01-2.26-2.26,1.01-2.26,2.26-2.26,2.26,1.01,2.26,2.26Zm-2.26,1.03c.57,0,1.03-.46,1.03-1.03s-.46-1.03-1.03-1.03-1.03,.46-1.03,1.03,.46,1.03,1.03,1.03Zm-5.74,1.23c1.25,0,2.26-1.01,2.26-2.26s-1.01-2.26-2.26-2.26-2.26,1.01-2.26,2.26,1.01,2.26,2.26,2.26Zm1.03-2.26c0,.57-.46,1.03-1.03,1.03s-1.03-.46-1.03-1.03,.46-1.03,1.03-1.03,1.03,.46,1.03,1.03Zm12.72,6c0,1.25-1.01,2.26-2.26,2.26s-2.26-1.01-2.26-2.26,1.01-2.26,2.26-2.26,2.26,1.01,2.26,2.26Zm-2.26,1.03c.57,0,1.03-.46,1.03-1.03s-.46-1.03-1.03-1.03-1.03,.46-1.03,1.03,.46,1.03,1.03,1.03Zm-3.49-1.03c0,1.25-1.01,2.26-2.26,2.26s-2.26-1.01-2.26-2.26,1.01-2.26,2.26-2.26,2.26,1.01,2.26,2.26Zm-2.26,1.03c.57,0,1.03-.46,1.03-1.03s-.46-1.03-1.03-1.03-1.03,.46-1.03,1.03,.46,1.03,1.03,1.03Zm-5.74,1.23c1.25,0,2.26-1.01,2.26-2.26s-1.01-2.26-2.26-2.26-2.26,1.01-2.26,2.26,1.01,2.26,2.26,2.26Zm1.03-2.26c0,.57-.46,1.03-1.03,1.03s-1.03-.46-1.03-1.03,.46-1.03,1.03-1.03,1.03,.46,1.03,1.03ZM20,6c0,1.25-1.01,2.26-2.26,2.26s-2.26-1.01-2.26-2.26,1.01-2.26,2.26-2.26,2.26,1.01,2.26,2.26Zm-2.26,1.03c.57,0,1.03-.46,1.03-1.03s-.46-1.03-1.03-1.03-1.03,.46-1.03,1.03,.46,1.03,1.03,1.03Zm-3.49-1.03c0,1.25-1.01,2.26-2.26,2.26s-2.26-1.01-2.26-2.26,1.01-2.26,2.26-2.26,2.26,1.01,2.26,2.26Zm-2.26,1.03c.57,0,1.03-.46,1.03-1.03s-.46-1.03-1.03-1.03-1.03,.46-1.03,1.03,.46,1.03,1.03,1.03Zm-5.74,1.23c1.25,0,2.26-1.01,2.26-2.26s-1.01-2.26-2.26-2.26-2.26,1.01-2.26,2.26,1.01,2.26,2.26,2.26Zm1.03-2.26c0,.57-.46,1.03-1.03,1.03s-1.03-.46-1.03-1.03,.46-1.03,1.03-1.03,1.03,.46,1.03,1.03Z" style="fill-rule:evenodd;"/><path id="more" d="M20,12c0,1.25-1.01,2.26-2.26,2.26s-2.26-1.01-2.26-2.26,1.01-2.26,2.26-2.26,2.26,1.01,2.26,2.26Zm-2.26,1.03c.57,0,1.03-.46,1.03-1.03s-.46-1.03-1.03-1.03-1.03,.46-1.03,1.03,.46,1.03,1.03,1.03Zm-3.49-1.03c0,1.25-1.01,2.26-2.26,2.26s-2.26-1.01-2.26-2.26,1.01-2.26,2.26-2.26,2.26,1.01,2.26,2.26Zm-2.26,1.03c.57,0,1.03-.46,1.03-1.03s-.46-1.03-1.03-1.03-1.03,.46-1.03,1.03,.46,1.03,1.03,1.03Zm-5.74,1.23c1.25,0,2.26-1.01,2.26-2.26s-1.01-2.26-2.26-2.26-2.26,1.01-2.26,2.26,1.01,2.26,2.26,2.26Zm1.03-2.26c0,.57-.46,1.03-1.03,1.03s-1.03-.46-1.03-1.03,.46-1.03,1.03-1.03,1.03,.46,1.03,1.03Z" style="fill-rule:evenodd;"/><path id="more-vertical" d="M12,4c1.25,0,2.26,1.01,2.26,2.26s-1.01,2.26-2.26,2.26-2.26-1.01-2.26-2.26,1.01-2.26,2.26-2.26Zm1.03,2.26c0-.57-.46-1.03-1.03-1.03s-1.03,.46-1.03,1.03,.46,1.03,1.03,1.03,1.03-.46,1.03-1.03Zm-1.03,3.49c1.25,0,2.26,1.01,2.26,2.26s-1.01,2.26-2.26,2.26-2.26-1.01-2.26-2.26,1.01-2.26,2.26-2.26Zm1.03,2.26c0-.57-.46-1.03-1.03-1.03s-1.03,.46-1.03,1.03,.46,1.03,1.03,1.03,1.03-.46,1.03-1.03Zm1.23,5.74c0-1.25-1.01-2.26-2.26-2.26s-2.26,1.01-2.26,2.26,1.01,2.26,2.26,2.26,2.26-1.01,2.26-2.26Zm-2.26-1.03c.57,0,1.03,.46,1.03,1.03s-.46,1.03-1.03,1.03-1.03-.46-1.03-1.03,.46-1.03,1.03-1.03Z" style="fill-rule:evenodd;"/><path id="page" d="M11.02,2h1.96c1.71,0,3.06,0,4.12,.14,1.09,.15,1.97,.46,2.67,1.15,.7,.7,1,1.58,1.15,2.67,.14,1.06,.14,2.41,.14,4.12v3.83c0,1.71,0,3.06-.14,4.12-.15,1.09-.46,1.97-1.15,2.67-.7,.7-1.58,1-2.67,1.15-1.06,.14-2.41,.14-4.12,.14h-1.96c-1.71,0-3.06,0-4.12-.14-1.09-.15-1.97-.46-2.67-1.15-.7-.7-1-1.58-1.15-2.67-.14-1.06-.14-2.41-.14-4.12v-3.83c0-1.71,0-3.06,.14-4.12,.15-1.09,.46-1.97,1.15-2.67,.7-.7,1.58-1,2.67-1.15,1.06-.14,2.41-.14,4.12-.14Zm-3.94,1.53c-.94,.13-1.48,.36-1.87,.76-.39,.39-.63,.93-.75,1.87-.13,.96-.13,2.22-.13,3.99v3.72c0,1.77,0,3.03,.13,3.99,.13,.93,.36,1.47,.76,1.87s.93,.63,1.87,.76c.96,.13,2.22,.13,3.99,.13h1.86c1.77,0,3.03,0,3.99-.13,.93-.13,1.47-.36,1.87-.76s.63-.93,.76-1.87c.13-.96,.13-2.22,.13-3.99v-3.72c0-1.77,0-3.03-.13-3.99-.13-.93-.36-1.47-.76-1.87-.39-.39-.93-.63-1.87-.76-.96-.13-2.22-.13-3.99-.13h-1.86c-1.77,0-3.03,0-3.99,.13h0Zm.5,4.75c0-.39,.31-.7,.7-.7h7.44c.39,0,.7,.31,.7,.7s-.31,.7-.7,.7h-7.44c-.39,0-.7-.31-.7-.7Zm0,3.72c0-.39,.31-.7,.7-.7h7.44c.39,0,.7,.31,.7,.7s-.31,.7-.7,.7h-7.44c-.39,0-.7-.31-.7-.7Zm0,3.72c0-.39,.31-.7,.7-.7h4.65c.39,0,.7,.31,.7,.7s-.31,.7-.7,.7h-4.65c-.39,0-.7-.31-.7-.7Z" style="fill-rule:evenodd;"/><path id="pin" d="M15.71,5.44l.49-.49s-.49,.49-.49,.49Zm2.87,2.87l-.49,.49,.49-.49h0Zm-9.61,10.6l-.49,.49,.49-.49Zm-3.83-3.83l.49-.49-.49,.49Zm12.04-.29l-.25-.65,.25,.65Zm-1.78,.67l.25,.65-.25-.65h0Zm-6.81-6.82l-.65-.24,.65,.24Zm.65-1.76l.65,.24s-.65-.24-.65-.24Zm-2.96,3.9l.19,.67-.19-.67Zm1.36-.5l-.41-.57,.41,.57h0Zm.35-.32l.53,.45s-.53-.45-.53-.45Zm6.12,6.13l.46,.53-.46-.53h0Zm-.81,1.69l-.67-.19,.67,.19h0Zm.5-1.35l-.57-.41,.57,.41ZM3.37,12.7h-.7s.7,0,.7,0Zm.2-.75l-.6-.35,.6,.35Zm7.79,8.74v-.7s0,.7,0,.7h0Zm.73-.19l-.35-.61,.35,.61Zm-.37-17.77l.15,.68-.15-.68ZM2.2,20.81c-.27,.27-.27,.71,0,.99,.27,.27,.71,.27,.99,0l-.99-.99Zm5.32-3.35c.27-.28,.26-.72-.02-.99-.27-.26-.7-.26-.97,0l.99,.99h0ZM15.22,5.94l2.87,2.87,.99-.99-2.87-2.87s-.99,.99-.99,.99Zm-5.76,12.48l-3.83-3.83-.99,.99,3.83,3.83,.99-.99Zm7.47-4.29l-1.78,.67,.49,1.31,1.78-.67-.49-1.31Zm-7.69-5.26l.65-1.76-1.31-.48-.65,1.76s1.31,.48,1.31,.48Zm-2.78,2.56c.66-.18,1.17-.31,1.58-.61l-.82-1.13c-.16,.12-.37,.18-1.13,.39l.37,1.35h0Zm1.47-3.04c-.27,.74-.36,.95-.49,1.1l1.06,.91c.33-.39,.5-.88,.73-1.52,0,0-1.31-.48-1.31-.48Zm.1,2.44c.17-.13,.33-.27,.47-.43l-1.06-.91c-.07,.08-.14,.15-.23,.21,0,0,.82,1.13,.82,1.13Zm7.11,3.97c-.64,.24-1.13,.41-1.51,.75l.91,1.06c.15-.13,.35-.22,1.09-.49,0,0-.49-1.31-.49-1.31Zm-1.19,3.15c.21-.76,.28-.97,.39-1.13l-1.13-.81c-.29,.41-.42,.91-.6,1.57,0,0,1.35,.37,1.35,.37Zm-.32-2.41c-.16,.14-.3,.29-.42,.46l1.13,.81c.06-.08,.12-.16,.2-.22l-.91-1.06h0Zm-8.01-.96c-.6-.6-1.01-1.01-1.27-1.34-.27-.33-.29-.48-.29-.54h-1.4c0,.55,.27,1,.6,1.41,.33,.41,.8,.88,1.38,1.46,0,0,.99-.99,.99-.99Zm.46-4.49c-.79,.22-1.43,.39-1.92,.59-.48,.19-.94,.46-1.21,.92l1.21,.7c.03-.06,.13-.17,.52-.33,.39-.16,.95-.31,1.77-.54,0,0-.37-1.35-.37-1.35Zm-2.03,2.6c0-.14,.04-.27,.1-.39l-1.21-.7c-.19,.33-.29,.71-.29,1.1h1.4Zm4.41,6.7c.58,.58,1.06,1.06,1.47,1.39,.41,.33,.87,.6,1.41,.6v-1.4c-.06,0-.21-.03-.54-.29-.33-.27-.75-.68-1.35-1.28l-.99,.99h0Zm4.14-1.82c-.23,.83-.38,1.39-.54,1.78-.16,.4-.27,.49-.33,.52l.69,1.21c.47-.27,.74-.73,.93-1.22,.2-.49,.37-1.14,.59-1.93l-1.35-.37h0Zm-1.26,3.81c.38,0,.75-.1,1.08-.29l-.69-1.21c-.12,.07-.25,.1-.39,.1,0,0,0,1.4,0,1.4Zm6.73-12.58c.99,.99,1.67,1.68,2.09,2.24,.41,.56,.46,.85,.41,1.09l1.36,.29c.18-.82-.15-1.53-.65-2.21-.5-.67-1.27-1.44-2.23-2.4,0,0-.99,.99-.99,.99Zm-.66,6.63c1.27-.48,2.29-.86,3.02-1.26,.74-.41,1.33-.93,1.51-1.74l-1.36-.29c-.05,.23-.22,.48-.82,.82-.62,.34-1.52,.69-2.83,1.18,0,0,.49,1.31,.49,1.31Zm-1.22-10.49c-.96-.96-1.74-1.75-2.41-2.25-.68-.51-1.4-.83-2.22-.65l.3,1.36c.23-.05,.53,0,1.09,.41,.57,.42,1.26,1.11,2.26,2.11l.99-.99h0Zm-6.32,2.16c.49-1.32,.82-2.24,1.16-2.87,.33-.61,.58-.78,.82-.83l-.3-1.36c-.82,.18-1.33,.78-1.74,1.53-.4,.74-.78,1.77-1.25,3.05l1.31,.48h0ZM3.19,21.8l4.33-4.33-.99-.99-4.33,4.33,.99,.99h0Z"/><path id="read-more" d="M5.72,14.33c0-.39,.31-.7,.7-.7h7.44c.39,0,.7,.31,.7,.7s-.31,.7-.7,.7H6.42c-.39,0-.7-.31-.7-.7h0Zm0,3.26c0-.39,.31-.7,.7-.7h5.12c.39,0,.7,.31,.7,.7s-.31,.7-.7,.7H6.42c-.39,0-.7-.31-.7-.7ZM12.23,3.47c-.43-.07-1.01-.08-2.07-.08-1.78,0-3.05,0-4.01,.13-.94,.13-1.48,.36-1.88,.76-.39,.39-.63,.93-.76,1.87-.13,.96-.13,2.22-.13,3.99v3.72c0,1.77,0,3.03,.13,3.99,.13,.94,.36,1.48,.76,1.87,.39,.39,.93,.63,1.87,.75,.96,.13,2.22,.13,3.99,.13h3.72c1.77,0,3.03,0,3.99-.13,.93-.13,1.47-.36,1.87-.76s.63-.93,.76-1.87c.13-.96,.13-2.22,.13-3.99v-.41c0-1.43,0-2.11-.16-2.62h-2.91c-1.05,0-1.91,0-2.6-.09-.71-.1-1.33-.3-1.82-.79-.49-.49-.7-1.11-.79-1.82-.09-.68-.09-1.54-.09-2.6V3.47h0Zm1.4,.72v1.29c0,1.12,0,1.88,.08,2.46,.07,.56,.21,.83,.4,1.02,.19,.19,.46,.32,1.02,.4,.58,.08,1.34,.08,2.46,.08h1.88c-.36-.34-.72-.67-1.09-1l-3.68-3.31c-.35-.32-.7-.63-1.06-.93Zm-3.33-2.2c1.29,0,2.12,0,2.89,.29,.77,.29,1.38,.85,2.33,1.71l.1,.09,3.68,3.31,.12,.1c1.1,.99,1.81,1.63,2.2,2.49,.38,.86,.38,1.82,.38,3.3v.61c0,1.71,0,3.06-.14,4.12-.15,1.09-.46,1.97-1.15,2.67-.7,.7-1.58,1-2.67,1.15-1.06,.14-2.41,.14-4.12,.14h-3.83c-1.71,0-3.06,0-4.12-.14-1.09-.15-1.97-.46-2.67-1.15-.7-.7-1-1.58-1.15-2.67-.14-1.06-.14-2.41-.14-4.12v-3.83c0-1.71,0-3.06,.14-4.12,.15-1.09,.46-1.97,1.15-2.67,.7-.7,1.58-1,2.68-1.15,1.06-.14,2.43-.14,4.14-.14h.19Z"/><path id="reload" d="M18.8,2c.44,0,.8,.36,.8,.8V7.34c0,.44-.36,.8-.8,.8h-4.54c-.44,0-.8-.36-.8-.8s.36-.8,.8-.8h2.52c-3.37-2.65-8.24-2.06-10.89,1.31-2.65,3.37-2.06,8.24,1.31,10.89,3.37,2.65,8.24,2.06,10.89-1.31,1.51-1.92,2.03-4.44,1.39-6.8-.11-.43,.14-.87,.57-.98,.43-.11,.87,.14,.98,.57,1.34,4.99-1.62,10.13-6.62,11.47-4.99,1.34-10.13-1.62-11.47-6.62S4.58,4.94,9.58,3.6c2.94-.79,6.09-.1,8.43,1.86V2.8c0-.44,.36-.8,.8-.8Z" style="fill-rule:evenodd;"/><path id="search" d="M11.57,4.25c-4.04,0-7.32,3.28-7.32,7.32s3.28,7.32,7.32,7.32,7.32-3.28,7.32-7.32-3.28-7.32-7.32-7.32ZM3,11.57C3,6.84,6.84,3,11.57,3s8.57,3.84,8.57,8.57c0,2.14-.79,4.1-2.08,5.6l2.74,2.74c.25,.24,.27,.63,.03,.89s-.63,.27-.89,.03c-.01-.01-.02-.02-.03-.03l-2.74-2.74c-1.56,1.35-3.55,2.09-5.6,2.08-4.73,0-8.57-3.84-8.57-8.57Z" style="fill-rule:evenodd;"/><path id="settings" d="M12,15.49c-1.92,0-3.49-1.57-3.49-3.49s1.57-3.49,3.49-3.49,3.49,1.57,3.49,3.49-1.57,3.49-3.49,3.49Zm0-5.58c-1.15,0-2.09,.94-2.09,2.09s.94,2.09,2.09,2.09,2.09-.94,2.09-2.09-.94-2.09-2.09-2.09Zm0,12.09c-.93,0-1.44,0-1.91-.2-.63-.26-1.12-.75-1.39-1.38-.14-.34-.17-.7-.18-1.04-.01-.29-.16-.55-.39-.68-.24-.13-.53-.13-.77,0-.42,.22-.71,.33-1,.37-.67,.09-1.36-.1-1.89-.51-.4-.31-.65-.75-1.12-1.54-.47-.82-.73-1.26-.79-1.76-.09-.68,.09-1.35,.51-1.89,.22-.29,.52-.5,.81-.68,.25-.16,.4-.41,.4-.67s-.15-.52-.4-.67c-.29-.18-.58-.39-.81-.68-.42-.54-.6-1.22-.51-1.89,.06-.5,.32-.95,.79-1.75,.46-.8,.72-1.24,1.12-1.55,.55-.42,1.22-.6,1.89-.51,.3,.04,.59,.15,1,.36,.25,.14,.55,.14,.79,0,.22-.13,.37-.39,.38-.67,.02-.47,.07-.77,.19-1.05,.26-.63,.75-1.13,1.39-1.39,.47-.19,.98-.19,1.91-.19s1.44,0,1.91,.19h0c.63,.26,1.12,.75,1.39,1.39,.14,.34,.17,.7,.18,1.04,0,.29,.16,.54,.39,.68,.23,.13,.52,.13,.77,0,.42-.22,.7-.33,1-.37,.68-.09,1.35,.09,1.89,.51,.4,.31,.66,.75,1.12,1.55,.46,.8,.72,1.25,.79,1.75,.09,.68-.09,1.35-.51,1.89-.22,.29-.52,.5-.81,.68-.25,.16-.4,.41-.4,.68,0,.27,.15,.52,.39,.67,.3,.19,.59,.4,.82,.69,.42,.54,.6,1.21,.51,1.89-.06,.5-.32,.94-.78,1.74-.47,.82-.73,1.26-1.13,1.57-.54,.42-1.22,.6-1.89,.51-.3-.04-.59-.14-1-.36-.25-.14-.55-.14-.79,0-.22,.13-.37,.38-.38,.67-.02,.46-.07,.77-.18,1.04-.26,.63-.75,1.12-1.39,1.39-.47,.19-.98,.19-1.91,.19Zm-4.25-4.8c.37,0,.74,.09,1.08,.28,.66,.38,1.06,1.07,1.09,1.84,.01,.28,.03,.45,.08,.56,.12,.28,.35,.51,.63,.63,.21,.09,.63,.09,1.37,.09s1.16,0,1.38-.09c.28-.12,.51-.35,.63-.63,.05-.11,.07-.28,.08-.56,.03-.78,.43-1.46,1.08-1.84,.67-.38,1.47-.38,2.14-.02,.24,.13,.4,.19,.52,.21,.31,.04,.61-.04,.86-.23,.18-.14,.4-.51,.76-1.13,.39-.67,.59-1.02,.62-1.25,.04-.31-.04-.62-.23-.86-.07-.09-.21-.2-.45-.35-.64-.39-1.04-1.08-1.05-1.85,0-.76,.39-1.45,1.05-1.87,.24-.15,.37-.26,.45-.35,.19-.24,.27-.55,.23-.86-.03-.23-.25-.61-.61-1.23-.38-.65-.58-1.01-.77-1.15-.25-.19-.54-.27-.86-.23-.12,.02-.28,.08-.53,.21-.66,.36-1.46,.36-2.12-.02-.67-.4-1.07-1.09-1.09-1.85,0-.27-.03-.44-.08-.55-.12-.28-.35-.51-.63-.63h0c-.21-.09-.63-.09-1.38-.09s-1.16,0-1.38,.09c-.28,.12-.51,.35-.63,.63-.05,.11-.07,.28-.08,.56-.02,.75-.42,1.44-1.08,1.83-.68,.38-1.48,.39-2.15,.02-.24-.13-.4-.19-.52-.21-.3-.03-.61,.04-.86,.23-.18,.14-.4,.52-.76,1.15-.38,.65-.58,1-.61,1.23-.04,.31,.04,.62,.23,.86,.07,.09,.21,.2,.45,.35,.66,.41,1.05,1.1,1.05,1.86s-.39,1.45-1.05,1.86c-.24,.15-.37,.26-.44,.35-.19,.25-.27,.55-.23,.86,.03,.23,.24,.59,.61,1.24,.38,.65,.58,1.01,.76,1.15,.24,.19,.55,.27,.86,.23,.12-.02,.28-.08,.53-.21,.33-.18,.69-.27,1.05-.27Z"/><path id="share" d="M16.85,2.55c-1.74,0-3.15,1.41-3.15,3.15,0,.19,.02,.37,.05,.56l-4.59,3.21s-.04,.03-.07,.05c-1.37-1.07-3.35-.83-4.42,.54-1.07,1.37-.83,3.35,.54,4.42,1.14,.89,2.74,.89,3.88,0,.02,.02,.04,.04,.07,.05l4.59,3.21c-.31,1.71,.83,3.35,2.55,3.66,1.71,.31,3.35-.83,3.66-2.55s-.83-3.35-2.55-3.66c-1.16-.21-2.34,.25-3.06,1.19l-4.34-3.04c.19-.41,.3-.87,.3-1.35s-.11-.94-.3-1.35l4.34-3.04c1.06,1.38,3.03,1.65,4.42,.59,1.38-1.06,1.65-3.03,.59-4.42-.6-.78-1.52-1.24-2.5-1.24Zm-1.7,3.15c0-.94,.76-1.7,1.7-1.7s1.7,.76,1.7,1.7-.76,1.7-1.7,1.7-1.7-.76-1.7-1.7Zm-8,4.61c-.94,0-1.7,.76-1.7,1.7s.76,1.7,1.7,1.7,1.7-.76,1.7-1.7-.76-1.7-1.7-1.7Zm9.7,6.3c-.94,0-1.7,.76-1.7,1.7s.76,1.7,1.7,1.7,1.7-.76,1.7-1.7-.76-1.7-1.7-1.7Z" style="fill-rule:evenodd;"/><path id="sort-ascending" d="M17.71,2c.47,0,.86,.38,.86,.86v15.71l1.89-2.51c.28-.38,.82-.46,1.2-.17,.38,.28,.46,.82,.17,1.2l-3.43,4.57c-.28,.38-.82,.46-1.2,.17-.22-.16-.34-.42-.34-.69V2.86c0-.47,.38-.86,.86-.86ZM6.57,5.14c0-.47,.38-.86,.86-.86h5.71c.47,0,.86,.38,.86,.86s-.38,.86-.86,.86H7.43c-.47,0-.86-.38-.86-.86Zm-2.29,5.71c0-.47,.38-.86,.86-.86h8c.47,0,.86,.38,.86,.86s-.38,.86-.86,.86H5.14c-.47,0-.86-.38-.86-.86Zm-2.29,5.71c0-.47,.38-.86,.86-.86H13.14c.47,0,.86,.38,.86,.86s-.38,.86-.86,.86H2.86c-.47,0-.86-.38-.86-.86Z" style="fill-rule:evenodd;"/><path id="sort-descending" d="M17.44,2.04c.35-.12,.74,0,.96,.3l3.43,4.57c.28,.38,.21,.92-.17,1.2-.38,.28-.92,.21-1.2-.17l-1.89-2.51v15.71c0,.47-.38,.86-.86,.86s-.86-.38-.86-.86V2.86c0-.37,.24-.7,.59-.81ZM2,7.43c0-.47,.38-.86,.86-.86H13.14c.47,0,.86,.38,.86,.86s-.38,.86-.86,.86H2.86c-.47,0-.86-.38-.86-.86Zm2.29,5.71c0-.47,.38-.86,.86-.86h8c.47,0,.86,.38,.86,.86s-.38,.86-.86,.86H5.14c-.47,0-.86-.38-.86-.86Zm2.29,5.71c0-.47,.38-.86,.86-.86h5.71c.47,0,.86,.38,.86,.86s-.38,.86-.86,.86H7.43c-.47,0-.86-.38-.86-.86Z" style="fill-rule:evenodd;"/><path id="translate" d="M21.72,6.59c-.2-.85-.64-1.62-1.28-2.22-.81-.75-1.91-1.05-4.12-1.64-2.21-.59-3.32-.89-4.39-.64-.85,.2-1.62,.64-2.22,1.28-.62,.66-.94,1.6-1.31,2.89l-.72,.19c-2.2,.59-3.3,.89-4.11,1.64-.64,.6-1.08,1.37-1.28,2.22-.25,1.08,.05,2.19,.64,4.39l.48,1.8c.59,2.21,.89,3.32,1.65,4.12,.6,.64,1.37,1.08,2.22,1.28,.26,.06,.52,.09,.8,.09,.87,0,1.91-.28,3.6-.73,2.2-.59,3.31-.89,4.12-1.64,.43-.41,.75-.91,.99-1.46,.84-.2,1.59-.64,2.18-1.27,.75-.81,1.05-1.91,1.64-4.11l-.67-.19-.68-.17c-.53,1.98-.8,2.97-1.31,3.52-.41,.44-.94,.74-1.52,.88-.06,.01-.13,.03-.2,.04-.72,.08-1.71-.18-3.53-.66-1.97-.53-2.97-.8-3.52-1.31-.44-.41-.74-.94-.88-1.52-.17-.74,.1-1.73,.63-3.72l.71-2.64c.41-1.49,.66-2.23,1.09-2.69,.41-.44,.94-.74,1.52-.88,.15-.04,.31-.05,.49-.05,.69,0,1.65,.26,3.23,.68,1.98,.53,2.97,.8,3.52,1.31,.44,.41,.74,.94,.88,1.52,.17,.74-.1,1.73-.63,3.72l-.48,1.8,.67,.18,.67,.18,.48-1.81c.59-2.2,.89-3.31,.64-4.38Zm-9.38,10.96c1.22,.33,2.09,.56,2.82,.66-.1,.14-.2,.28-.33,.39-.55,.52-1.55,.78-3.54,1.32-1.97,.53-2.97,.8-3.7,.62-.58-.14-1.11-.44-1.52-.88-.52-.55-.78-1.55-1.32-3.53l-.48-1.8c-.53-1.98-.8-2.98-.63-3.71,.14-.58,.44-1.11,.88-1.52,.54-.51,1.52-.78,3.45-1.29l-.4,1.48c-.59,2.21-.89,3.31-.64,4.39,.2,.85,.64,1.62,1.28,2.22,.81,.75,1.91,1.05,4.12,1.65Zm2.29-3.81c-.08,.31-.37,.52-.67,.52-.06,0-.12,0-.18-.02l-2.7-.72c-.37-.1-.59-.48-.49-.85,.1-.37,.48-.59,.85-.49l2.7,.72c.37,.1,.59,.48,.49,.85Zm2.52-2.21c-.08,.31-.37,.52-.67,.52-.06,0-.12,0-.18-.02l-4.49-1.2c-.37-.1-.59-.48-.49-.85,.1-.37,.49-.59,.85-.49l4.49,1.2c.37,.1,.59,.48,.49,.85Z"/><path id="verified" d="M10.59,2.32c.89-.42,1.92-.42,2.81,0,.39,.19,.74,.49,1.23,.91l.08,.07c.24,.2,.31,.27,.39,.32,.19,.13,.41,.22,.64,.26,.09,.02,.19,.03,.5,.05h.1c.64,.06,1.11,.1,1.51,.24,.93,.33,1.66,1.06,1.99,1.99,.14,.4,.18,.87,.23,1.51v.1c.03,.31,.04,.41,.06,.5,.05,.23,.14,.45,.26,.64,.05,.08,.11,.15,.32,.39l.07,.08c.42,.49,.72,.84,.91,1.23,.43,.89,.43,1.92,0,2.81-.18,.39-.49,.74-.91,1.23l-.07,.08c-.11,.12-.22,.25-.32,.39-.13,.19-.22,.41-.26,.64-.02,.09-.03,.19-.05,.5v.1c-.06,.64-.1,1.11-.24,1.51-.33,.93-1.06,1.66-1.99,1.99-.4,.14-.87,.18-1.51,.23h-.1c-.17,.02-.33,.03-.5,.06-.23,.05-.44,.13-.64,.26-.14,.1-.27,.2-.39,.32l-.08,.07c-.49,.42-.84,.72-1.23,.91-.89,.43-1.92,.43-2.81,0-.39-.18-.74-.49-1.23-.91-.03-.02-.05-.04-.08-.07-.12-.11-.25-.22-.39-.32-.19-.13-.41-.22-.64-.26-.17-.03-.33-.04-.5-.05h-.1c-.64-.06-1.11-.1-1.51-.24-.93-.33-1.66-1.06-1.99-1.99-.14-.4-.18-.87-.23-1.51v-.1c-.02-.17-.03-.33-.06-.5-.05-.23-.13-.44-.26-.64-.1-.14-.2-.27-.32-.39l-.07-.08c-.42-.49-.72-.84-.91-1.23-.43-.89-.43-1.92,0-2.81,.19-.39,.49-.74,.91-1.23l.07-.08c.11-.12,.22-.25,.32-.39,.13-.19,.22-.41,.26-.64,.02-.09,.03-.19,.05-.5v-.1c.06-.64,.1-1.11,.24-1.51,.33-.93,1.06-1.66,1.99-1.99,.4-.14,.87-.18,1.51-.23h.1c.17-.02,.33-.03,.5-.06,.23-.05,.45-.14,.64-.26,.08-.05,.15-.11,.39-.32l.08-.07c.49-.42,.84-.72,1.23-.91h0Zm2.16,1.36c-.48-.23-1.04-.23-1.51,0-.19,.09-.38,.25-.98,.76l-.03,.03c-.2,.17-.34,.29-.5,.4-.36,.24-.76,.41-1.19,.49-.19,.04-.37,.05-.63,.07h-.04c-.79,.07-1.04,.09-1.23,.16-.5,.18-.89,.57-1.07,1.07-.07,.19-.1,.44-.16,1.23v.04c-.02,.26-.04,.45-.08,.63-.08,.42-.25,.83-.49,1.19-.11,.16-.23,.3-.4,.5l-.03,.03c-.51,.6-.67,.8-.76,.98-.23,.48-.23,1.04,0,1.52,.09,.19,.25,.38,.76,.98l.03,.03c.17,.2,.29,.34,.4,.5,.24,.36,.41,.76,.49,1.18,.04,.19,.05,.37,.07,.63v.04c.07,.79,.09,1.04,.16,1.23,.18,.5,.57,.89,1.07,1.07,.19,.07,.44,.1,1.23,.16h.04c.26,.02,.45,.04,.63,.08,.42,.08,.83,.25,1.19,.49,.16,.11,.3,.23,.5,.4l.03,.03c.6,.51,.8,.67,.98,.76,.48,.23,1.04,.23,1.52,0,.19-.09,.38-.25,.98-.76l.03-.03c.2-.17,.34-.29,.5-.4,.36-.24,.76-.41,1.18-.49,.21-.04,.42-.06,.63-.07h.04c.79-.07,1.04-.09,1.23-.16,.5-.18,.89-.57,1.07-1.07,.07-.19,.1-.44,.16-1.23v-.04c.01-.21,.04-.42,.08-.63,.08-.42,.25-.83,.49-1.18,.11-.16,.23-.3,.4-.5l.03-.03c.51-.6,.67-.8,.76-.98,.23-.48,.23-1.04,0-1.52-.09-.19-.25-.38-.76-.98l-.03-.03c-.17-.2-.29-.34-.4-.5-.24-.36-.41-.76-.49-1.19-.04-.21-.06-.42-.07-.63v-.04c-.07-.79-.09-1.04-.16-1.23-.18-.5-.57-.89-1.07-1.07-.19-.07-.44-.1-1.23-.16h-.04c-.21-.01-.42-.04-.63-.08-.42-.08-.83-.25-1.18-.49-.16-.11-.3-.23-.5-.4l-.03-.03c-.6-.51-.8-.67-.98-.76h0Zm3.29,5.28c.29,.29,.29,.77,0,1.06,0,0,0,0,0,0l-5.02,5.02c-.29,.29-.77,.29-1.06,0l-2.01-2.01c-.31-.28-.33-.76-.04-1.06s.76-.33,1.06-.04c.02,.01,.03,.03,.04,.04l1.48,1.47,4.49-4.48c.29-.29,.77-.29,1.06,0h0Z" style="fill-rule:evenodd;"/><path id="zip" d="M10.57,2h2.41c1.71,0,3.06,0,4.12,.14,1.09,.15,1.97,.46,2.67,1.15,.7,.7,1,1.58,1.15,2.67,.14,1.06,.14,2.41,.14,4.12v3.83c0,1.71,0,3.06-.14,4.12-.15,1.09-.46,1.97-1.15,2.67-.7,.7-1.58,1-2.67,1.15-1.06,.14-2.41,.14-4.12,.14h-1.96c-1.71,0-3.06,0-4.12-.14-1.09-.15-1.97-.46-2.67-1.15-.7-.7-1-1.58-1.15-2.67-.14-1.06-.14-2.41-.14-4.12v-3.83c0-1.71,0-3.06,.14-4.12,.15-1.09,.46-1.97,1.15-2.67,.7-.7,1.58-1,2.67-1.15,.94-.13,2.11-.14,3.55-.14,0,0,.13,0,.13,0Zm-1.6,1.41c-.75,.01-1.37,.05-1.9,.12-.94,.13-1.48,.36-1.87,.76-.39,.39-.63,.93-.75,1.87-.13,.96-.13,2.22-.13,3.99v3.72c0,1.77,0,3.03,.13,3.99,.13,.93,.36,1.47,.76,1.87s.93,.63,1.87,.76c.96,.13,2.22,.13,3.99,.13h1.86c1.77,0,3.03,0,3.99-.13,.93-.13,1.47-.36,1.87-.76s.63-.93,.76-1.87c.13-.96,.13-2.22,.13-3.99v-3.72c0-1.77,0-3.03-.13-3.99-.13-.93-.36-1.47-.76-1.87-.39-.39-.93-.63-1.87-.76-.96-.13-2.22-.13-3.99-.13h-.23v.93h.2s.53,0,.53,0c.19,0,.4,0,.57,.02,.2,.03,.47,.1,.68,.32,.22,.22,.29,.48,.32,.68,.02,.17,.02,.38,.02,.57v.53c0,.19,0,.4-.02,.57-.03,.2-.1,.47-.32,.68-.19,.18-.43,.29-.68,.32-.17,.02-.38,.02-.57,.02h-.73v.2s0,.73,0,.73h.2s.53,0,.53,0c.19,0,.4,0,.57,.02,.2,.03,.47,.1,.68,.32,.22,.22,.29,.48,.32,.68,.02,.17,.02,.38,.02,.57v.53c0,.19,0,.4-.02,.57-.03,.2-.1,.47-.32,.68-.19,.18-.43,.29-.68,.32-.19,.02-.38,.03-.57,.02h-.53c-.19,0-.4,0-.57-.02-.2-.03-.47-.1-.68-.32-.18-.19-.29-.43-.32-.68-.02-.19-.03-.38-.02-.57v-.73h-.2s-.53,0-.53,0c-.19,0-.4,0-.57-.02-.2-.03-.47-.1-.68-.32-.18-.19-.29-.43-.32-.68-.02-.17-.02-.38-.02-.57v-.53c0-.19,0-.4,.02-.57,.03-.2,.1-.47,.32-.68,.22-.22,.48-.29,.68-.32,.17-.02,.38-.02,.57-.02h.73s0-.2,0-.2v-.73c-.07,0-.13,0-.2,0h-.53c-.19,0-.4,0-.57-.02-.2-.03-.47-.1-.68-.32-.18-.19-.29-.43-.32-.68-.02-.17-.02-.38-.02-.57,0,0,0-.72,0-.72Zm1.47-.01c.28,0,.57,0,.85,0v.23s0,.47,0,.47v.23s-.23,0-.23,0h-.7s0-.23,0-.23v-.7h.08Zm2.25,2.33c0,.07,0,.14,0,.23v.7s.23,0,.23,0h.7s0-.23,0-.23v-.7c-.08,0-.16,0-.23,0h-.7Zm-2.33,2.33c0,.07,0,.14,0,.23v.7s.23,0,.23,0h.7s0-.23,0-.23v-.7c-.08,0-.15,0-.23,0h-.7Zm2.33,2.33c0,.07,0,.14,0,.23v.7s.23,0,.23,0h.7s0-.23,0-.23v-.7s-.23,0-.23,0h-.7Zm-2.21,4.65c-.06,0-.12,.05-.12,.12v.12c0,.9,.73,1.63,1.63,1.63s1.63-.73,1.63-1.63v-.12c0-.06-.05-.12-.12-.12h-3.02Zm-1.51,.12c0-.83,.68-1.51,1.51-1.51h3.02c.84,0,1.51,.68,1.51,1.51v.12c0,1.67-1.35,3.02-3.02,3.02s-3.02-1.35-3.02-3.02v-.12Z" style="fill-rule:evenodd;"/><path id="star" d="M11.34,3.91c-.37,.48-.78,1.22-1.38,2.29l-.3,.55-.05,.1c-.28,.5-.52,.93-.9,1.22-.38,.29-.85,.4-1.4,.52l-.11,.02-.59,.13c-1.17,.26-1.96,.45-2.51,.66-.53,.21-.64,.38-.69,.52-.05,.15-.05,.37,.27,.87,.32,.51,.87,1.15,1.66,2.08l.4,.47,.07,.08c.37,.44,.69,.8,.83,1.26,.14,.46,.09,.94,.04,1.52v.11s-.07,.63-.07,.63c-.12,1.24-.2,2.09-.17,2.71,.03,.61,.16,.78,.26,.86,.09,.07,.26,.15,.81-.01,.56-.16,1.31-.5,2.4-1l.55-.25,.1-.05c.51-.24,.95-.44,1.43-.44s.92,.2,1.43,.44c.03,.02,.07,.03,.1,.05l.55,.26c1.09,.5,1.84,.84,2.4,1,.55,.16,.72,.08,.81,.01,.1-.08,.23-.25,.26-.86,.03-.61-.05-1.47-.17-2.71l-.06-.63v-.11c-.07-.58-.11-1.07,.03-1.52,.14-.46,.46-.83,.83-1.26l.07-.08,.4-.47c.79-.93,1.34-1.57,1.66-2.08,.32-.5,.32-.73,.27-.87-.04-.14-.15-.31-.69-.52-.54-.21-1.34-.4-2.51-.66l-.59-.13s-.07-.02-.11-.02c-.55-.12-1.01-.23-1.4-.52-.38-.29-.62-.71-.9-1.22l-.05-.1-.31-.55c-.6-1.08-1.01-1.82-1.38-2.29-.37-.48-.55-.52-.66-.52s-.29,.04-.66,.52Zm-1.11-.85c.44-.58,.99-1.07,1.77-1.07s1.32,.49,1.77,1.07c.44,.57,.9,1.4,1.46,2.41l.33,.6c.36,.65,.46,.79,.58,.88,.11,.08,.26,.13,.97,.29l.65,.15c1.09,.25,2,.45,2.65,.71,.68,.27,1.28,.66,1.51,1.4,.23,.73-.03,1.4-.42,2.03-.38,.61-1,1.33-1.74,2.2l-.44,.52c-.48,.56-.58,.7-.63,.85-.05,.16-.04,.33,.03,1.08l.07,.69c.11,1.17,.21,2.12,.17,2.85-.03,.74-.2,1.45-.81,1.91-.62,.47-1.34,.42-2.04,.22-.68-.19-1.52-.58-2.54-1.05l-.61-.28c-.67-.31-.81-.36-.94-.36s-.28,.05-.94,.36l-.61,.28c-1.02,.47-1.87,.86-2.54,1.05-.7,.2-1.42,.25-2.04-.22-.61-.46-.78-1.17-.81-1.91-.03-.73,.06-1.68,.17-2.85l.07-.69c.07-.75,.08-.93,.03-1.08-.05-.15-.15-.29-.63-.85l-.44-.52c-.75-.87-1.36-1.59-1.74-2.2-.4-.63-.65-1.3-.42-2.03,.23-.74,.83-1.13,1.51-1.4,.66-.26,1.56-.46,2.65-.71h.06s.59-.15,.59-.15c.71-.16,.86-.21,.97-.29,.12-.09,.21-.23,.58-.88l.33-.6c.56-1.01,1.03-1.84,1.46-2.41h0Z" style="fill-rule:evenodd;"/></svg>