<?xml version="1.0" encoding="UTF-8"?><svg id="solar-broken" xmlns="http://www.w3.org/2000/svg" viewBox="0 0 24 24"><path id="archive" d="M13.26,13.88h-2.51c-.44,0-.71,0-.98-.11-.36-.15-.64-.44-.79-.79-.11-.27-.11-.54-.11-.98s0-.71,.11-.98c.15-.36,.44-.64,.79-.79,.27-.11,.54-.11,.98-.11h2.51c.44,0,.71,0,.98,.11,.37,.15,.65,.43,.79,.79,.11,.27,.11,.54,.11,.98s0,.71-.11,.98c-.15,.36-.44,.65-.79,.79-.27,.11-.54,.11-.98,.11Zm-2.51-2.51c-.22,0-.45,0-.5,.02-.05,.02-.09,.06-.11,.11-.02,.05-.02,.28-.02,.5s0,.44,.02,.5c.02,.05,.06,.09,.11,.11,.05,.02,.28,.02,.5,.02h2.51c.22,0,.44,0,.5-.02,.05-.02,.09-.06,.11-.11,.01-.05,.01-.28,.01-.5s0-.45-.02-.5c-.02-.05-.06-.09-.11-.11-.05-.01-.28-.01-.5-.01h-2.51Zm7.83,7.62c1.17-1.16,1.17-2.83,1.17-6.16v-4.44c.33-.05,.6-.16,.83-.39,.43-.43,.43-.97,.43-1.87s0-1.44-.43-1.87-.97-.43-1.87-.43h-3.35c-.35,0-.63,.28-.63,.63s.28,.63,.63,.63h3.35c.42,0,.9,0,.99,.06,.06,.09,.06,.57,.06,.99s0,.89-.06,.99c-.09,.06-.57,.06-.99,.06H5.3c-.42,0-.89,0-.99-.06-.06-.09-.06-.56-.06-.98s0-.89,.06-.99c.09-.06,.56-.06,.98-.06h6.7c.35,0,.63-.28,.63-.63s-.28-.63-.63-.63H5.3c-.9,0-1.44,0-1.87,.43-.43,.43-.43,.97-.43,1.87s0,1.44,.43,1.87c.23,.23,.49,.34,.83,.39v4.44c0,3.33,0,5,1.17,6.16,.67,.67,1.55,.99,3.03,1.1,.33,.01,.65-.23,.67-.58,.03-.35-.23-.65-.58-.67-1.17-.09-1.79-.3-2.24-.74-.8-.8-.8-2.29-.8-5.27v-4.4h12.98v4.4c0,2.98,0,4.48-.8,5.27-.8,.8-2.29,.8-5.27,.8h-.84c-.35,0-.63,.28-.63,.63s.28,.63,.63,.63h.84c3.33,0,5,0,6.16-1.17Z"/><path id="arrow-left" d="M20,12c0,.38-.31,.69-.69,.69h-2.29c-.38,0-.69-.31-.69-.69s.31-.69,.69-.69h2.29c.38,0,.69,.31,.69,.69Zm-5.03,0c0,.38-.31,.69-.69,.69H6.34l4.32,4.32c.27,.27,.27,.7,0,.97s-.7,.27-.97,0l-5.49-5.49c-.07-.07-.12-.14-.15-.23-.03-.08-.05-.16-.05-.25h0v-.02h0c0-.09,.02-.17,.05-.25,.03-.08,.08-.16,.15-.23l5.49-5.49c.27-.27,.7-.27,.97,0s.27,.7,0,.97l-4.32,4.32h7.94c.38,0,.69,.31,.69,.69Z"/><path id="arrow-right" d="M4,12c0-.38,.31-.69,.69-.69h2.29c.38,0,.69,.31,.69,.69s-.31,.69-.69,.69h-2.29c-.38,0-.69-.31-.69-.69Zm5.03,0c0-.38,.31-.69,.69-.69h7.94l-4.32-4.32c-.27-.27-.27-.7,0-.97s.7-.27,.97,0l5.49,5.49c.07,.07,.12,.14,.15,.23,.03,.08,.05,.16,.05,.25h0v.02h0c0,.09-.02,.17-.05,.25-.03,.08-.08,.16-.15,.23l-5.49,5.49c-.27,.27-.7,.27-.97,0s-.27-.7,0-.97l4.32-4.32h-7.94c-.38,0-.69-.31-.69-.69Z"/><path id="arrow-top" d="M12,20c-.38,0-.69-.31-.69-.69v-2.29c0-.38,.31-.69,.69-.69s.69,.31,.69,.69v2.29c0,.38-.31,.69-.69,.69Zm0-5.03c-.38,0-.69-.31-.69-.69V6.34l-4.32,4.32c-.27,.27-.7,.27-.97,0s-.27-.7,0-.97l5.49-5.49c.07-.07,.14-.12,.23-.15,.08-.03,.16-.05,.25-.05h.02c.09,0,.17,.02,.25,.05,.08,.03,.16,.08,.23,.15l5.49,5.49c.27,.27,.27,.7,0,.97s-.7,.27-.97,0l-4.32-4.32v7.94c0,.38-.31,.69-.69,.69Z"/><path id="bookmark" d="M20.1,11.19v4.49c0,2.79,0,4.18-.66,4.79-.31,.29-.71,.47-1.14,.52-.89,.1-1.93-.82-4-2.65-.92-.81-1.38-1.22-1.91-1.32-.26-.05-.53-.05-.79,0-.53,.11-.99,.51-1.91,1.32-2.07,1.84-3.11,2.75-4,2.65-.42-.05-.82-.23-1.14-.52-.66-.61-.66-2-.66-4.79v-4.49c0-3.86,0-5.79,1.19-6.99,1.19-1.2,3.1-1.2,6.91-1.2s5.73,0,6.91,1.2c1.19,1.2,1.19,3.13,1.19,6.99ZM8.63,6.6c0-.37,.3-.67,.67-.67h5.4c.37,0,.67,.3,.67,.67s-.3,.67-.67,.67h-5.4c-.37,0-.67-.3-.67-.67Z" style="fill-rule:evenodd;"/><path id="bookmark-add" d="M6.28,21c-.07,0-.14,0-.21-.01-.53-.06-1.02-.28-1.41-.65-.82-.75-.82-2.06-.82-4.91v-4.18c0-.35,.28-.63,.63-.63s.63,.28,.63,.63v4.18c0,2.18,0,3.61,.41,3.99,.2,.18,.44,.29,.7,.32,.55,.04,1.62-.88,3.23-2.31,.92-.81,1.41-1.25,2.07-1.38,.32-.07,.66-.07,.99,0,.65,.13,1.15,.57,2.05,1.36,1.63,1.44,2.69,2.41,3.25,2.32,.26-.03,.51-.14,.7-.32,.41-.38,.41-1.82,.41-3.99v-4.18c0-3.41,0-5.13-.92-6.06-.92-.93-2.61-.93-5.99-.93s-5.07,0-5.98,.93c-.52,.53-.76,1.28-.86,2.67-.02,.35-.31,.6-.67,.58-.35-.02-.61-.32-.58-.67,.12-1.71,.47-2.71,1.22-3.47,1.29-1.3,3.16-1.3,6.88-1.3s5.59,0,6.88,1.3c1.28,1.3,1.28,3.19,1.28,6.94v4.18c0,2.86,0,4.16-.82,4.92-.39,.36-.88,.59-1.41,.65-1.1,.13-2.08-.73-4.21-2.62-.75-.66-1.16-1.02-1.48-1.09-.16-.03-.33-.03-.49,0-.33,.07-.73,.42-1.47,1.07-2.01,1.78-2.99,2.64-4.01,2.64ZM14.51,7.6h-5.02c-.35,0-.63-.28-.63-.63s.28-.63,.63-.63h5.02c.35,0,.63,.28,.63,.63s-.28,.63-.63,.63Z"/><path id="check" d="M10.6,15.02c-.18,0-.36-.07-.49-.2l-1.86-1.86c-.27-.27-.27-.71,0-.99s.71-.27,.99,0l1.37,1.37,4.16-4.16c.27-.27,.71-.27,.99,0s.27,.71,0,.99l-4.65,4.65c-.14,.14-.31,.2-.49,.2Zm9.83,5.41c1.57-1.57,1.57-3.86,1.57-8.43,0-.39-.31-.7-.7-.7s-.7,.31-.7,.7c0,4.19,0,6.29-1.16,7.45-1.16,1.16-3.26,1.16-7.45,1.16s-6.29,0-7.45-1.16c-1.16-1.16-1.16-3.26-1.16-7.45s0-6.29,1.16-7.45c1.16-1.16,3.26-1.16,7.45-1.16s6.29,0,7.45,1.16c.71,.71,1.01,1.73,1.11,3.76,.02,.39,.35,.68,.73,.66,.39-.02,.68-.35,.66-.73-.1-2-.4-3.56-1.52-4.68-1.57-1.57-3.86-1.57-8.43-1.57s-6.87,0-8.43,1.57c-1.57,1.57-1.57,3.86-1.57,8.43s0,6.87,1.57,8.43c1.57,1.57,3.86,1.57,8.43,1.57s6.87,0,8.43-1.57Z"/><path id="clear" d="M13.66,20.14h-2.45c-2.19,0-3.28,0-4.3-.55-1.02-.55-1.61-1.46-2.77-3.27l-.63-.99c-.97-1.5-1.5-2.33-1.5-3.34s.53-1.83,1.5-3.34l.63-.99c1.16-1.81,1.75-2.72,2.77-3.27,1.02-.55,2.12-.55,4.31-.55h2.45c3.79,0,5.69,0,7.01,1.29,.71,.69,1.08,1.61,1.23,3.06,.04,.38-.24,.72-.62,.76-.37,.05-.72-.24-.76-.62-.11-1.11-.35-1.75-.81-2.2-.92-.89-2.63-.89-6.04-.89h-2.45c-1.95,0-2.93,0-3.64,.38-.7,.38-1.22,1.19-2.25,2.79l-.64,.99c-.85,1.32-1.28,1.99-1.28,2.58s.37,1.17,1.28,2.58l.63,.98c1.03,1.61,1.55,2.41,2.26,2.8,.71,.38,1.69,.38,3.64,.38h2.45c3.41,0,5.12,0,6.04-.89,.91-.88,.91-2.54,.91-5.85,0-.39,.31-.7,.7-.7s.7,.31,.7,.7c0,3.7,0,5.56-1.33,6.85-1.32,1.29-3.22,1.29-7.01,1.29Zm1.6-5.12c-.18,0-.36-.07-.49-.2l-1.83-1.83-1.83,1.83c-.27,.27-.71,.27-.99,0s-.27-.71,0-.99l1.83-1.83-1.83-1.83c-.27-.27-.27-.71,0-.99s.71-.27,.99,0l1.83,1.83,1.83-1.83c.27-.27,.71-.27,.99,0s.27,.71,0,.99l-1.83,1.83,1.83,1.83c.27,.27,.27,.71,0,.99-.14,.14-.31,.2-.49,.2Z"/><path id="clear_rtl" d="M10.34,3.86h2.45c2.19,0,3.28,0,4.3,.55,1.02,.55,1.61,1.46,2.77,3.27l.63,.99c.97,1.5,1.5,2.33,1.5,3.34s-.53,1.83-1.5,3.34l-.63,.99c-1.16,1.81-1.75,2.72-2.77,3.27-1.02,.55-2.12,.55-4.31,.55h-2.45c-3.79,0-5.69,0-7.01-1.29-.71-.69-1.08-1.61-1.23-3.06-.04-.38,.24-.72,.62-.76,.37-.05,.72,.24,.76,.62,.11,1.11,.35,1.75,.81,2.2,.92,.89,2.63,.89,6.04,.89h2.45c1.95,0,2.93,0,3.64-.38,.7-.38,1.22-1.19,2.25-2.79l.64-.99c.85-1.32,1.28-1.99,1.28-2.58s-.37-1.17-1.28-2.58l-.63-.98c-1.03-1.61-1.55-2.41-2.26-2.8-.71-.38-1.69-.38-3.64-.38h-2.45c-3.41,0-5.12,0-6.04,.89-.91,.88-.91,2.54-.91,5.85,0,.39-.31,.7-.7,.7s-.7-.31-.7-.7c0-3.7,0-5.56,1.33-6.85,1.32-1.29,3.22-1.29,7.01-1.29Zm-1.6,5.12c.18,0,.36,.07,.49,.2l1.83,1.83,1.83-1.83c.27-.27,.71-.27,.99,0s.27,.71,0,.99l-1.83,1.83,1.83,1.83c.27,.27,.27,.71,0,.99s-.71,.27-.99,0l-1.83-1.83-1.83,1.83c-.27,.27-.71,.27-.99,0s-.27-.71,0-.99l1.83-1.83-1.83-1.83c-.27-.27-.27-.71,0-.99,.14-.14,.31-.2,.49-.2Z"/><path id="close" d="M12,22c-5.51,0-10-4.49-10-10,0-1.76,.46-3.49,1.34-5,.19-.33,.62-.45,.95-.25,.33,.19,.45,.62,.25,.95-.75,1.3-1.15,2.79-1.15,4.3,0,4.74,3.86,8.6,8.6,8.6s8.6-3.86,8.6-8.6S16.74,3.4,12,3.4h-.01c-1.51,0-2.99,.4-4.29,1.15-.33,.19-.76,.08-.95-.25-.19-.33-.08-.76,.25-.95,1.51-.88,3.24-1.34,4.99-1.34h.02c5.51,0,10,4.49,10,10s-4.49,10-10,10Zm2.33-6.98c-.18,0-.36-.07-.49-.2l-1.83-1.83-1.83,1.83c-.27,.27-.71,.27-.99,0s-.27-.71,0-.99l1.83-1.83-1.83-1.83c-.27-.27-.27-.71,0-.99s.71-.27,.99,0l1.83,1.83,1.83-1.83c.27-.27,.71-.27,.99,0s.27,.71,0,.99l-1.83,1.83,1.83,1.83c.27,.27,.27,.71,0,.99-.14,.14-.31,.2-.49,.2Z"/><path id="comment" d="M11.99,22c-1.53,0-3.07-.36-4.44-1.04-.19-.1-.39-.12-.59-.07l-2.06,.55c-.32,.08-.66,.09-.98,0-1.01-.27-1.62-1.32-1.35-2.33l.55-2.07c.05-.18,.02-.38-.07-.58-.69-1.39-1.04-2.89-1.04-4.45C2,6.49,6.49,2,12,2h.02c1.75,0,3.47,.46,4.98,1.34,.33,.19,.45,.62,.25,.95s-.62,.45-.95,.25c-1.3-.75-2.78-1.15-4.29-1.15h-.01C7.26,3.4,3.4,7.26,3.4,12c0,1.34,.3,2.63,.9,3.83,.25,.5,.31,1.05,.17,1.56l-.55,2.07c-.07,.27,.09,.55,.36,.63,.09,.02,.18,.02,.26,0l2.07-.55c.54-.13,1.09-.07,1.57,.18,1.17,.58,2.49,.89,3.81,.89,4.75-.08,8.62-3.86,8.62-8.6,0-1.52-.4-3-1.15-4.3-.19-.33-.08-.76,.25-.95,.33-.19,.76-.08,.95,.25,.87,1.51,1.34,3.24,1.34,5,0,5.51-4.49,10-10,10h-.01Zm4.66-10c0-.51-.42-.93-.93-.93h0c-.51,0-.93,.42-.93,.93s.42,.93,.93,.93,.93-.42,.93-.93Zm-3.72,0c0-.51-.42-.93-.93-.93h0c-.51,0-.93,.42-.93,.93s.42,.93,.93,.93,.93-.42,.93-.93Zm-3.71,0c0-.51-.42-.93-.93-.93h0c-.51,0-.93,.42-.93,.93s.42,.93,.93,.93,.93-.42,.93-.93Z"/><path id="comment-text" d="M11.99,22c-1.53,0-3.07-.36-4.44-1.04-.19-.1-.39-.12-.59-.07l-2.06,.55c-.32,.08-.66,.09-.98,0-1.01-.27-1.62-1.32-1.35-2.33l.55-2.07c.05-.18,.02-.38-.07-.58-.69-1.39-1.04-2.89-1.04-4.45C2,6.49,6.49,2,12,2h.02c1.75,0,3.47,.46,4.98,1.34,.33,.19,.45,.62,.25,.95s-.62,.45-.95,.25c-1.3-.75-2.78-1.15-4.29-1.15h-.01C7.26,3.4,3.4,7.26,3.4,12c0,1.34,.3,2.63,.9,3.83,.25,.5,.31,1.05,.17,1.56l-.55,2.07c-.07,.27,.09,.55,.36,.63,.09,.02,.18,.02,.26,0l2.07-.55c.54-.13,1.09-.07,1.57,.18,1.17,.58,2.49,.89,3.81,.89,4.75-.08,8.62-3.86,8.62-8.6,0-1.52-.4-3-1.15-4.3-.19-.33-.08-.76,.25-.95,.33-.19,.76-.08,.95,.25,.87,1.51,1.34,3.24,1.34,5,0,5.51-4.49,10-10,10h-.01Zm1.41-7.44h-5.12c-.39,0-.7-.31-.7-.7s.31-.7,.7-.7h5.12c.39,0,.7,.31,.7,.7s-.31,.7-.7,.7Zm2.33-3.26h-7.44c-.39,0-.7-.31-.7-.7s.31-.7,.7-.7h7.44c.39,0,.7,.31,.7,.7s-.31,.7-.7,.7Z"/><path id="copy" d="M21.07,14.79v.93c0,2.73,0,4.24-1.02,5.26-1.02,1.02-2.53,1.02-5.26,1.02h-2.79c-2.73,0-4.24,0-5.26-1.02-.48-.47-.72-1.06-.86-1.82-1.67-.26-2.95-1.69-2.95-3.43v-5.58c0-.39,.31-.7,.7-.7s.7,.31,.7,.7v5.58c0,.92,.6,1.69,1.42,1.97-.02-.58-.02-1.23-.02-1.97v-4.65c0-2.73,0-4.24,1.02-5.26,1.02-1.02,2.52-1.02,5.26-1.02h2.79c.75,0,1.39,0,1.97,.02-.28-.82-1.06-1.42-1.97-1.42h-3.72c-3.31,0-4.97,0-5.86,.89-.46,.46-.69,1.09-.79,2.21-.03,.36-.34,.63-.69,.63-.02,0-.05,0-.07,0-.38-.04-.66-.38-.63-.76,.14-1.45,.5-2.36,1.2-3.06,1.29-1.29,3.15-1.29,6.84-1.29h3.72c1.74,0,3.17,1.28,3.43,2.95,.76,.14,1.35,.38,1.82,.86,.93,.93,1.01,2.26,1.02,4.32,0,.39-.31,.7-.69,.7h0c-.38,0-.7-.31-.7-.69-.01-1.94-.1-2.83-.61-3.34-.61-.61-1.84-.61-4.27-.61h-2.79c-2.43,0-3.66,0-4.27,.61-.61,.61-.61,1.84-.61,4.27v4.65c0,2.43,0,3.66,.61,4.27,.61,.61,1.84,.61,4.27,.61h2.79c2.44,0,3.66,0,4.27-.61,.61-.61,.61-1.84,.61-4.27v-.93c0-.39,.31-.7,.7-.7s.7,.31,.7,.7Z"/><path id="dark" d="M15.33,11.54c-.38,0-.71-.23-.85-.58l-.15-.37-.36-.14c-.23-.09-.42-.28-.51-.51-.19-.47,.04-1.01,.51-1.19l.37-.15,.14-.36c.09-.24,.28-.43,.52-.52,.47-.18,1,.05,1.18,.52h0s.15,.37,.15,.37l.36,.14c.23,.09,.42,.28,.51,.51,.19,.47-.04,1.01-.51,1.19l-.37,.15-.14,.36c-.14,.35-.47,.58-.85,.58Zm0-2.94l-.13,.34c-.09,.23-.28,.42-.51,.52l-.37,.15,.37,.12c.24,.09,.42,.28,.52,.52l.15,.37,.12-.37c.1-.24,.28-.43,.52-.52l.37-.15-.37-.12c-.23-.09-.42-.28-.51-.51l-.13-.35Zm-.01-.03h0s0,0,0,0h0Zm3.61-.65c-.38,0-.71-.23-.85-.58l-.4-1.02-1.01-.39c-.23-.09-.42-.28-.51-.51-.09-.23-.09-.48,0-.7s.28-.4,.5-.49l1.01-.4,.39-1.01c.09-.24,.28-.43,.52-.52,.23-.09,.48-.08,.7,.01,.22,.1,.4,.28,.48,.51l.4,1.01,1.01,.4c.23,.09,.42,.28,.51,.51,.19,.47-.04,1.01-.51,1.19l-1.02,.4-.39,1.01c-.14,.35-.42,.56-.85,.58Zm-.01-4.76l-.38,1.01c-.09,.24-.28,.43-.52,.52l-1.01,.4,1.01,.38c.23,.09,.42,.28,.52,.52l.4,1.02,.37-1.02c.09-.24,.28-.42,.52-.52l1.01-.4-1.02-.38c-.23-.09-.42-.28-.52-.52l-.4-1Zm0-.01s0,0,0,0h0Zm1.52,8.71l-.6-.36,.6,.36ZM12.13,3.57l-.36-.6,.36,.6Zm-4.43,15.89c-.33-.19-.76-.08-.95,.25s-.08,.76,.25,.95l.7-1.21Zm-4.36-2.45c.18,.34,.6,.47,.94,.29,.34-.18,.47-.6,.29-.94,0-.01-.02-.03-.02-.04l-1.21,.7Zm17.27-5c0,4.75-3.85,8.6-8.6,8.6h0v1.4c5.52,0,10-4.48,10-10h-1.4Zm-17.21,0C3.4,7.25,7.25,3.4,12,3.4v-1.4C6.48,2,2,6.48,2,12h1.4Zm11.86,2.09c-2.95,0-5.35-2.39-5.35-5.35h-1.4c0,3.72,3.02,6.74,6.74,6.74v-1.4Zm4.58-2.59c-.97,1.61-2.71,2.59-4.58,2.59v1.4c2.36,0,4.56-1.24,5.78-3.26l-1.2-.72Zm-9.93-2.76c0-1.88,.98-3.61,2.59-4.58l-.72-1.19c-2.02,1.22-3.26,3.41-3.26,5.78h1.4Zm2.09-5.35c-.09,0-.18-.04-.25-.11-.04-.04-.07-.09-.08-.14,0-.03,0-.11,.1-.17l.72,1.19c.47-.28,.62-.8,.56-1.21-.06-.42-.39-.95-1.06-.95v1.4Zm9.03,8.83c-.06,.1-.15,.1-.17,.1-.05,0-.11-.04-.14-.08-.07-.07-.11-.15-.11-.25h1.4c0-.67-.53-1-.95-1.06-.41-.05-.93,.1-1.21,.56l1.19,.72h0Zm-9.03,8.38c-1.51,0-2.99-.39-4.3-1.15l-.7,1.21c1.52,.88,3.25,1.34,5,1.34v-1.4Zm-7.45-4.3c-.76-1.31-1.15-2.79-1.15-4.3h-1.4c0,1.76,.46,3.48,1.34,5,0,0,1.21-.7,1.21-.7Z"/><path id="download" d="M15.08,22h-6.15c-3.01,0-4.67,0-5.8-1.13-1.13-1.12-1.13-2.78-1.13-5.79,0-.42,.34-.77,.77-.77s.77,.34,.77,.77c0,2.68,0,4.03,.68,4.71,.68,.68,2.02,.68,4.71,.68h6.15c.42,0,.77,.34,.77,.77s-.34,.77-.77,.77Zm4.1-.26c-.34,0-.64-.22-.74-.56-.12-.41,.12-.83,.53-.95,.36-.1,.61-.24,.82-.45,.68-.68,.68-2.02,.68-4.71,0-.42,.34-.77,.77-.77s.77,.34,.77,.77c0,3.01,0,4.67-1.13,5.8-.39,.39-.88,.67-1.48,.84-.07,.02-.14,.03-.21,.03Zm-7.18-4.87h0s-.04,0-.05,0h0c-.08,0-.15-.02-.22-.05-.02,0-.04-.01-.05-.02h0c-.08-.04-.15-.09-.22-.15-.01-.01-.02-.02-.03-.03l-4.1-4.48c-.29-.31-.26-.8,.05-1.09,.31-.29,.8-.26,1.09,.05l2.77,3.02V2.77c0-.42,.34-.77,.77-.77s.77,.34,.77,.77V14.12l2.77-3.02c.29-.31,.77-.34,1.09-.05,.31,.29,.34,.77,.05,1.09l-4.1,4.48s-.02,.02-.03,.03c-.06,.06-.14,.11-.21,.15-.01,0-.03,.01-.04,.02-.07,.03-.15,.05-.24,.05h0s-.03,0-.05,0Z"/><path id="home" d="M12.14,16.81c-1.04,0-2.04-.33-2.89-.96-.28-.21-.34-.6-.13-.88,.21-.28,.6-.34,.88-.13,1.26,.94,3.02,.93,4.28,0,.28-.21,.67-.15,.88,.13,.21,.28,.15,.67-.13,.88-.85,.63-1.85,.96-2.89,.96Zm6.65,3.19c1.16-1,1.38-2.5,1.81-5.49l.23-1.62c.05-.34-.19-.66-.53-.71-.34-.05-.66,.19-.71,.53l-.23,1.62c-.39,2.68-.58,4.02-1.38,4.71-.81,.7-2.18,.7-4.9,.7h-1.85c-2.73,0-4.1,0-4.9-.7-.81-.69-1-2.04-1.38-4.72l-.23-1.63c-.3-2.08-.45-3.12-.08-3.89,.37-.77,1.28-1.32,3.1-2.4l1.16-.69c3.29-1.96,3.24-1.96,6.54,0l1.16,.69c1.82,1.08,2.73,1.62,3.1,2.4,.15,.31,.52,.45,.84,.29,.31-.15,.44-.52,.29-.84-.54-1.12-1.62-1.76-3.59-2.93l-1.16-.69c-1.85-1.1-2.77-1.65-3.91-1.65s-2.12,.59-3.91,1.65l-1.16,.69c-2.03,1.21-3.05,1.82-3.59,2.93-.54,1.11-.37,2.28-.03,4.62l.23,1.62c.43,2.99,.64,4.49,1.81,5.49,1.16,1,2.68,1,5.72,1h1.85c3.04,0,4.56,0,5.72-1Z"/><path id="label" d="M13.86,21.07c-.06,0-.12,0-.19-.03-.37-.1-.59-.49-.49-.86l1.05-3.77H7.31l-1.15,4.14c-.1,.37-.49,.59-.86,.49-.37-.1-.59-.49-.49-.86l1.05-3.77H2.7c-.39,0-.7-.31-.7-.7s.31-.7,.7-.7h3.55l.38-1.35c.1-.37,.49-.59,.86-.49,.37,.1,.59,.49,.49,.86l-.27,.98h6.92l1.42-5.12h-6.92l-.37,1.35c-.1,.37-.49,.59-.86,.49-.37-.1-.59-.49-.49-.86l.27-.98h-3.11c-.39,0-.7-.31-.7-.7s.31-.7,.7-.7h3.5l1.41-5.07c.1-.37,.48-.59,.86-.49,.37,.1,.59,.49,.49,.86l-1.3,4.7h6.92l1.41-5.07c.1-.37,.48-.59,.86-.49,.37,.1,.59,.49,.49,.86l-1.3,4.7h3.42c.39,0,.7,.31,.7,.7s-.31,.7-.7,.7h-3.81l-1.42,5.12h3.37c.39,0,.7,.31,.7,.7s-.31,.7-.7,.7h-3.76l-1.15,4.14c-.09,.31-.37,.51-.67,.51Z"/><path id="light" d="M12,22c-.39,0-.7-.31-.7-.7v-1.86c0-.39,.31-.7,.7-.7s.7,.31,.7,.7v1.86c0,.39-.31,.7-.7,.7Zm-7.23-2.07c-.18,0-.36-.07-.49-.2-.27-.27-.27-.71,0-.99l2.07-2.07c.27-.27,.71-.27,.99,0s.27,.71,0,.99l-2.07,2.07c-.14,.14-.31,.2-.49,.2Zm14.47,0c-.18,0-.36-.07-.49-.2l-2.07-2.07c-.27-.27-.27-.71,0-.99s.71-.27,.99,0l2.07,2.07c.27,.27,.27,.71,0,.99-.14,.14-.31,.2-.49,.2Zm-7.23-2.58c-.6,0-1.2-.1-1.79-.31-1.35-.48-2.43-1.45-3.04-2.74s-.69-2.74-.22-4.09c.13-.36,.53-.55,.89-.43,.36,.13,.55,.53,.43,.89-.73,2.05,.36,4.32,2.41,5.04,1,.35,2.07,.29,3.02-.16,.95-.46,1.67-1.25,2.02-2.25,.73-2.06-.36-4.32-2.41-5.04-.85-.3-1.78-.3-2.63,0-.36,.13-.76-.06-.89-.43-.13-.36,.06-.76,.43-.89,1.15-.41,2.41-.41,3.56,0,2.78,.98,4.25,4.04,3.26,6.83-.48,1.35-1.45,2.43-2.74,3.05-.73,.35-1.52,.53-2.3,.53Zm9.3-4.65h-1.86c-.39,0-.7-.31-.7-.7s.31-.7,.7-.7h1.86c.39,0,.7,.31,.7,.7s-.31,.7-.7,.7Zm-16.74,0h-1.86c-.39,0-.7-.31-.7-.7s.31-.7,.7-.7h1.86c.39,0,.7,.31,.7,.7s-.31,.7-.7,.7Zm12.61-5.35c-.19,0-.38-.08-.52-.23-.26-.28-.24-.73,.04-.99l2.07-1.89c.28-.26,.73-.24,.99,.04,.26,.28,.24,.73-.04,.99l-2.07,1.89c-.13,.12-.3,.18-.47,.18Zm-10.34,0c-.17,0-.34-.06-.47-.18l-2.07-1.89c-.28-.26-.3-.7-.04-.99,.26-.29,.7-.31,.99-.04l2.07,1.89c.28,.26,.3,.7,.04,.99-.14,.15-.33,.23-.52,.23Zm5.17-2.1c-.39,0-.7-.31-.7-.7v-1.86c0-.39,.31-.7,.7-.7s.7,.31,.7,.7v1.86c0,.39-.31,.7-.7,.7Z"/><path id="link" d="M10.36,14.3c-.16,0-.32-.06-.44-.18-1.5-1.51-1.39-4.08,.25-5.73l1.8-1.81c.24-.25,.64-.25,.89,0,.25,.24,.25,.64,0,.89l-1.8,1.81c-1.16,1.16-1.27,2.93-.25,3.95,.24,.25,.24,.64,0,.89-.12,.12-.28,.18-.44,.18Zm6.85-2.29c-.16,0-.32-.06-.44-.18-.25-.24-.25-.64,0-.89l2.03-2.04c1.16-1.16,1.27-2.93,.25-3.95-.45-.45-1.06-.69-1.73-.69h0c-.79,0-1.6,.35-2.2,.95-.24,.25-.64,.25-.89,0-.25-.24-.25-.64,0-.89,.83-.84,1.96-1.32,3.09-1.32h0c1.01,0,1.94,.38,2.62,1.06,1.5,1.51,1.39,4.08-.25,5.73l-2.03,2.04c-.12,.12-.28,.18-.44,.18ZM6.68,21c1.13,0,2.25-.48,3.09-1.32l4.06-4.08c1.64-1.65,1.76-4.22,.25-5.73-.24-.25-.64-.25-.89,0s-.25,.64,0,.89c1.02,1.02,.9,2.79-.25,3.95l-4.06,4.08c-.6,.6-1.4,.95-2.2,.95h0c-.67,0-1.29-.25-1.73-.69-1.02-1.02-.9-2.79,.25-3.95l2.03-2.04c.24-.25,.24-.64,0-.89s-.64-.24-.89,0l-2.03,2.04c-1.64,1.65-1.76,4.22-.25,5.73,.68,.69,1.62,1.06,2.62,1.06h0Z"/><path id="link-open" d="M12.84,11.79c-.16,0-.32-.06-.44-.18-.25-.25-.25-.64,0-.89l6.46-6.46h-2.96c-.35,0-.63-.28-.63-.63s.28-.63,.63-.63h4.48c.08,0,.16,.02,.23,.05,.08,.03,.15,.08,.21,.14,.06,.06,.11,.13,.14,.21,.03,.07,.05,.15,.05,.23h0v4.48c0,.35-.28,.63-.63,.63s-.63-.28-.63-.63v-2.96l-6.46,6.46c-.12,.12-.28,.18-.44,.18Zm6.75,7.8c1.41-1.41,1.41-3.47,1.41-7.59,0-.35-.28-.63-.63-.63s-.63,.28-.63,.63c0,3.77,0,5.66-1.04,6.7-1.04,1.04-2.93,1.04-6.7,1.04s-5.66,0-6.7-1.04c-.64-.64-.91-1.55-1-3.38-.02-.35-.31-.62-.66-.6-.35,.02-.61,.31-.6,.66,.09,1.8,.35,3.2,1.36,4.21,1.41,1.41,3.48,1.41,7.59,1.41s6.18,0,7.59-1.41ZM4.26,12c0-3.77,0-5.66,1.04-6.7,1.04-1.04,2.93-1.04,6.7-1.04,.35,0,.63-.28,.63-.63s-.28-.63-.63-.63c-4.11,0-6.18,0-7.59,1.41-1.41,1.41-1.41,3.48-1.41,7.59,0,.35,.28,.63,.63,.63s.63-.28,.63-.63Z"/><path id="list" d="M4.65,20.16s-.03,0-.04,0c-.17-.01-.34-.1-.44-.23l-1.02-1.26c-.22-.27-.18-.66,.09-.88,.27-.22,.66-.18,.88,.09l.59,.73,3.1-2.89c.25-.24,.65-.22,.89,.03,.24,.25,.22,.65-.03,.89l-3.59,3.35c-.12,.11-.27,.17-.43,.17Zm0-5.86s-.03,0-.04,0c-.17-.01-.34-.1-.44-.23l-1.02-1.26c-.22-.27-.18-.66,.09-.88,.27-.22,.66-.18,.88,.09l.59,.73,3.1-2.89c.25-.24,.65-.22,.89,.03,.24,.25,.22,.65-.03,.89l-3.59,3.35c-.12,.11-.27,.17-.43,.17Zm0-5.86s-.03,0-.04,0c-.17-.01-.34-.1-.44-.23l-1.02-1.26c-.22-.27-.18-.66,.09-.88,.27-.22,.66-.18,.88,.09l.59,.73,3.1-2.89c.25-.24,.65-.22,.89,.03,.24,.25,.22,.65-.03,.89l-3.59,3.35c-.12,.11-.27,.17-.43,.17Zm15.73,10.05h-1.26c-.35,0-.63-.28-.63-.63s.28-.63,.63-.63h1.26c.35,0,.63,.28,.63,.63s-.28,.63-.63,.63Zm-4.19,0h-4.19c-.35,0-.63-.28-.63-.63s.28-.63,.63-.63h4.19c.35,0,.63,.28,.63,.63s-.28,.63-.63,.63Zm4.19-5.86h-4.19c-.35,0-.63-.28-.63-.63s.28-.63,.63-.63h4.19c.35,0,.63,.28,.63,.63s-.28,.63-.63,.63Zm-7.12,0h-1.26c-.35,0-.63-.28-.63-.63s.28-.63,.63-.63h1.26c.35,0,.63,.28,.63,.63s-.28,.63-.63,.63Zm7.12-5.86H12c-.35,0-.63-.28-.63-.63s.28-.63,.63-.63h8.37c.35,0,.63,.28,.63,.63s-.28,.63-.63,.63Z"/><path id="lock" d="M12,18.28c-1.41,0-2.56-1.15-2.56-2.56s1.15-2.56,2.56-2.56,2.56,1.15,2.56,2.56-1.15,2.56-2.56,2.56Zm0-3.72c-.64,0-1.16,.52-1.16,1.16s.52,1.16,1.16,1.16,1.16-.52,1.16-1.16-.52-1.16-1.16-1.16Zm8.98,6.42c1.02-1.02,1.02-2.53,1.02-5.26s0-4.24-1.02-5.26c-.64-.64-1.48-.88-2.7-.97v-1.21c0-3.46-2.82-6.28-6.28-6.28-1.8,0-3.52,.77-4.71,2.13-.26,.29-.23,.73,.06,.98,.29,.25,.73,.23,.98-.06,1.79-2.03,5.2-2.14,7.12-.22,.92,.92,1.43,2.15,1.43,3.45v1.17c-.36,0-.75,0-1.16,0h-7.44c-.42,0-.8,0-1.16,0v-1.17c0-.28,.02-.55,.07-.81,.06-.38-.19-.74-.57-.8-.39-.08-.74,.19-.8,.57-.06,.34-.09,.69-.09,1.05v1.21c-1.22,.09-2.05,.33-2.7,.97-1.02,1.02-1.02,2.53-1.02,5.26s0,4.24,1.02,5.26c1.02,1.02,2.53,1.02,5.26,1.02h2.79c.39,0,.7-.31,.7-.7s-.31-.7-.7-.7h-2.79c-2.43,0-3.66,0-4.27-.61-.61-.61-.61-1.83-.61-4.27s0-3.66,.61-4.27c.61-.61,1.83-.61,4.27-.61h7.44c2.44,0,3.66,0,4.27,.61,.61,.61,.61,1.83,.61,4.27s0,3.66-.61,4.27c-.61,.61-1.83,.61-4.27,.61h-.93c-.39,0-.7,.31-.7,.7s.31,.7,.7,.7h.93c2.73,0,4.24,0,5.26-1.02Z"/><path id="menu" d="M20.23,17.91h-3.09c-.43,0-.77-.35-.77-.77s.35-.77,.77-.77h3.09c.43,0,.77,.35,.77,.77s-.35,.77-.77,.77Zm-7.2,0H3.77c-.43,0-.77-.35-.77-.77s.35-.77,.77-.77H13.03c.43,0,.77,.35,.77,.77s-.35,.77-.77,.77Zm7.2-5.14H3.77c-.43,0-.77-.35-.77-.77s.35-.77,.77-.77H20.23c.43,0,.77,.35,.77,.77s-.35,.77-.77,.77Zm0-5.14H10.97c-.43,0-.77-.35-.77-.77s.35-.77,.77-.77h9.26c.43,0,.77,.35,.77,.77s-.35,.77-.77,.77Zm-13.37,0H3.77c-.43,0-.77-.35-.77-.77s.35-.77,.77-.77h3.09c.43,0,.77,.35,.77,.77s-.35,.77-.77,.77Z"/><path id="menu-more" d="M17.74,9.74c.34,0,.62,.28,.62,.62s-.28,.62-.62,.62c-.57,0-1.03,.46-1.03,1.03s.46,1.03,1.03,1.03,1.03-.46,1.03-1.03c0-.34,.28-.62,.62-.62s.62,.28,.62,.62c0,1.24-1.01,2.26-2.26,2.26s-2.26-1.01-2.26-2.26,1.01-2.26,2.26-2.26Zm-8,2.26c0,1.24,1.01,2.26,2.26,2.26s2.26-1.01,2.26-2.26-1.01-2.26-2.26-2.26-2.26,1.01-2.26,2.26Zm1.23,0c0-.57,.46-1.03,1.03-1.03s1.03,.46,1.03,1.03-.46,1.03-1.03,1.03-1.03-.46-1.03-1.03Zm-6.97,0c0,.34,.28,.62,.62,.62s.62-.28,.62-.62c0-.57,.46-1.03,1.03-1.03s1.03,.46,1.03,1.03-.46,1.03-1.03,1.03c-.34,0-.62,.28-.62,.62s.28,.62,.62,.62c1.24,0,2.26-1.01,2.26-2.26s-1.01-2.26-2.26-2.26-2.26,1.01-2.26,2.26ZM17.74,3.74c.34,0,.62,.28,.62,.62s-.28,.62-.62,.62c-.57,0-1.03,.46-1.03,1.03s.46,1.03,1.03,1.03,1.03-.46,1.03-1.03c0-.34,.28-.62,.62-.62s.62,.28,.62,.62c0,1.24-1.01,2.26-2.26,2.26s-2.26-1.01-2.26-2.26,1.01-2.26,2.26-2.26Zm-8,2.26c0,1.24,1.01,2.26,2.26,2.26s2.26-1.01,2.26-2.26-1.01-2.26-2.26-2.26-2.26,1.01-2.26,2.26Zm1.23,0c0-.57,.46-1.03,1.03-1.03s1.03,.46,1.03,1.03-.46,1.03-1.03,1.03-1.03-.46-1.03-1.03Zm-6.97,0c0,.34,.28,.62,.62,.62s.62-.28,.62-.62c0-.57,.46-1.03,1.03-1.03s1.03,.46,1.03,1.03-.46,1.03-1.03,1.03c-.34,0-.62,.28-.62,.62s.28,.62,.62,.62c1.24,0,2.26-1.01,2.26-2.26s-1.01-2.26-2.26-2.26-2.26,1.01-2.26,2.26Zm13.74,9.74c.34,0,.62,.28,.62,.62s-.28,.62-.62,.62c-.57,0-1.03,.46-1.03,1.03s.46,1.03,1.03,1.03,1.03-.46,1.03-1.03c0-.34,.28-.62,.62-.62s.62,.28,.62,.62c0,1.24-1.01,2.26-2.26,2.26s-2.26-1.01-2.26-2.26,1.01-2.26,2.26-2.26Zm-8,2.26c0,1.24,1.01,2.26,2.26,2.26s2.26-1.01,2.26-2.26-1.01-2.26-2.26-2.26-2.26,1.01-2.26,2.26Zm1.23,0c0-.57,.46-1.03,1.03-1.03s1.03,.46,1.03,1.03-.46,1.03-1.03,1.03-1.03-.46-1.03-1.03Zm-6.97,0c0,.34,.28,.62,.62,.62s.62-.28,.62-.62c0-.57,.46-1.03,1.03-1.03s1.03,.46,1.03,1.03-.46,1.03-1.03,1.03c-.34,0-.62,.28-.62,.62s.28,.62,.62,.62c1.24,0,2.26-1.01,2.26-2.26s-1.01-2.26-2.26-2.26-2.26,1.01-2.26,2.26Z"/><path id="more" d="M17.74,9.74c.34,0,.62,.28,.62,.62s-.28,.62-.62,.62c-.57,0-1.03,.46-1.03,1.03s.46,1.03,1.03,1.03,1.03-.46,1.03-1.03c0-.34,.28-.62,.62-.62s.62,.28,.62,.62c0,1.24-1.01,2.26-2.26,2.26s-2.26-1.01-2.26-2.26,1.01-2.26,2.26-2.26Zm-8,2.26c0,1.24,1.01,2.26,2.26,2.26s2.26-1.01,2.26-2.26-1.01-2.26-2.26-2.26-2.26,1.01-2.26,2.26Zm1.23,0c0-.57,.46-1.03,1.03-1.03s1.03,.46,1.03,1.03-.46,1.03-1.03,1.03-1.03-.46-1.03-1.03Zm-6.97,0c0,.34,.28,.62,.62,.62s.62-.28,.62-.62c0-.57,.46-1.03,1.03-1.03s1.03,.46,1.03,1.03-.46,1.03-1.03,1.03c-.34,0-.62,.28-.62,.62s.28,.62,.62,.62c1.24,0,2.26-1.01,2.26-2.26s-1.01-2.26-2.26-2.26-2.26,1.01-2.26,2.26Z"/><path id="more-vertical" d="M9.74,6.26c0-.34,.28-.62,.62-.62s.62,.28,.62,.62c0,.57,.46,1.03,1.03,1.03s1.03-.46,1.03-1.03-.46-1.03-1.03-1.03c-.34,0-.62-.28-.62-.62s.28-.62,.62-.62c1.24,0,2.26,1.01,2.26,2.26s-1.01,2.26-2.26,2.26-2.26-1.01-2.26-2.26Zm2.26,8c1.24,0,2.26-1.01,2.26-2.26s-1.01-2.26-2.26-2.26-2.26,1.01-2.26,2.26,1.01,2.26,2.26,2.26Zm0-1.23c-.57,0-1.03-.46-1.03-1.03s.46-1.03,1.03-1.03,1.03,.46,1.03,1.03-.46,1.03-1.03,1.03Zm0,6.97c.34,0,.62-.28,.62-.62s-.28-.62-.62-.62c-.57,0-1.03-.46-1.03-1.03s.46-1.03,1.03-1.03,1.03,.46,1.03,1.03c0,.34,.28,.62,.62,.62s.62-.28,.62-.62c0-1.24-1.01-2.26-2.26-2.26s-2.26,1.01-2.26,2.26,1.01,2.26,2.26,2.26Z"/><path id="page" d="M12.93,22h-1.86c-3.7,0-5.55,0-6.85-1.3-.7-.69-1.05-1.61-1.2-3.06-.04-.38,.24-.72,.63-.76,.4-.03,.73,.24,.76,.63,.11,1.11,.34,1.75,.79,2.2,.89,.89,2.55,.89,5.86,.89h1.86c3.31,0,4.97,0,5.86-.89,.89-.88,.89-2.55,.89-5.86v-3.72c0-.39,.31-.7,.7-.7s.7,.31,.7,.7v3.72c0,3.7,0,5.55-1.29,6.84-1.29,1.3-3.15,1.3-6.85,1.3Zm0-5.58h-4.65c-.39,0-.7-.31-.7-.7s.31-.7,.7-.7h4.65c.39,0,.7,.31,.7,.7s-.31,.7-.7,.7Zm-9.3-1.86c-.39,0-.7-.31-.7-.7v-3.72c0-3.7,0-5.55,1.3-6.85,1.29-1.29,3.15-1.29,6.84-1.29h1.86c3.7,0,5.55,0,6.85,1.29,.7,.69,1.06,1.61,1.2,3.06,.04,.38-.24,.72-.63,.76-.38,.05-.72-.24-.76-.63-.11-1.11-.34-1.75-.79-2.2-.89-.89-2.55-.89-5.86-.89h-1.86c-3.31,0-4.97,0-5.86,.89-.89,.88-.89,2.55-.89,5.86v3.72c0,.39-.31,.7-.7,.7Zm12.09-1.86h-3.72c-.39,0-.7-.31-.7-.7s.31-.7,.7-.7h3.72c.39,0,.7,.31,.7,.7s-.31,.7-.7,.7Zm-6.51,0h-.93c-.39,0-.7-.31-.7-.7s.31-.7,.7-.7h.93c.39,0,.7,.31,.7,.7s-.31,.7-.7,.7Zm6.51-3.72h-.93c-.39,0-.7-.31-.7-.7s.31-.7,.7-.7h.93c.39,0,.7,.31,.7,.7s-.31,.7-.7,.7Zm-3.72,0h-3.72c-.39,0-.7-.31-.7-.7s.31-.7,.7-.7h3.72c.39,0,.7,.31,.7,.7s-.31,.7-.7,.7Z"/><path id="pin" d="M15.71,5.45l.49-.49s-.49,.49-.49,.49Zm-6.75,13.48l-.49,.49,.49-.49Zm-3.83-3.84l.49-.49-.49,.49Zm12.05-.29l-.25-.65,.25,.65Zm-1.78,.67l.25,.65-.25-.65h0Zm-7.47-7.07l.66,.24-.66-.24Zm1.3-1.53l.66,.24s-.66-.24-.66-.24Zm-2.96,3.9l.19,.67-.19-.67Zm1.36-.5l-.41-.57,.41,.57h0Zm.35-.32l.53,.45s-.53-.45-.53-.45Zm6.12,6.14l.46,.53-.46-.53h0Zm-.81,1.69l-.67-.19,.67,.19h0Zm.5-1.35l-.57-.41,.57,.41ZM3.35,12.71h-.7s.7,0,.7,0Zm.2-.75l-.61-.35s.61,.35,.61,.35Zm7.8,8.74v-.7s0,.7,0,.7h0Zm.73-.19l-.35-.61,.35,.61Zm9.19-8.22l.68,.15-.68-.15ZM11.71,2.73l.15,.68s-.15-.68-.15-.68Zm9.92,8c-.19-.34-.62-.45-.95-.26-.34,.19-.45,.62-.26,.95l1.21-.69Zm-4.05-2.42c.28,.27,.72,.26,.99-.02,.26-.27,.26-.7,0-.97l-.99,.99Zm-8.13,10.12l-3.83-3.84-.99,.99,3.83,3.84,.99-.99Zm7.48-4.29l-1.78,.67,.49,1.31,1.78-.67-.49-1.31Zm-7.7-5.26l.65-1.77-1.31-.48-.65,1.77s1.31,.48,1.31,.48Zm-2.79,2.57c.66-.18,1.17-.31,1.58-.61l-.82-1.13c-.16,.12-.37,.18-1.13,.39l.37,1.35h0Zm1.47-3.05c-.27,.74-.36,.95-.49,1.1l1.06,.91c.33-.39,.5-.88,.74-1.52,0,0-1.31-.48-1.31-.48Zm.1,2.44c.17-.13,.33-.27,.47-.43l-1.06-.91c-.07,.08-.14,.15-.22,.21,0,0,.82,1.13,.82,1.13Zm7.12,3.97c-.64,.24-1.13,.41-1.51,.75l.91,1.06c.15-.13,.35-.22,1.09-.49,0,0-.49-1.31-.49-1.31Zm-1.19,3.15c.21-.76,.28-.97,.39-1.13l-1.13-.81c-.3,.41-.42,.92-.61,1.58,0,0,1.35,.37,1.35,.37Zm-.32-2.41c-.16,.14-.3,.29-.42,.46l1.13,.81c.06-.08,.13-.16,.2-.22l-.91-1.06h0Zm-8.01-.96c-.6-.6-1.01-1.01-1.27-1.34-.27-.33-.29-.48-.29-.54h-1.4c0,.55,.27,1,.6,1.41,.33,.41,.8,.88,1.38,1.46,0,0,.99-.99,.99-.99Zm.46-4.5c-.79,.22-1.44,.39-1.92,.59-.48,.19-.94,.46-1.21,.93l1.21,.7c.03-.06,.13-.17,.52-.33,.39-.16,.95-.31,1.77-.54,0,0-.37-1.35-.37-1.35Zm-2.03,2.61c0-.14,.03-.27,.1-.39l-1.21-.7c-.19,.33-.29,.71-.29,1.1h1.4Zm4.41,6.7c.58,.58,1.06,1.06,1.47,1.39,.41,.33,.87,.6,1.41,.6v-1.4c-.06,0-.21-.03-.54-.29-.34-.27-.75-.68-1.35-1.28l-.99,.99h0Zm4.14-1.82c-.23,.83-.38,1.39-.54,1.78-.16,.4-.27,.49-.33,.53l.69,1.21c.47-.27,.74-.73,.93-1.22,.2-.49,.37-1.14,.59-1.93,0,0-1.35-.37-1.35-.37Zm-1.26,3.81c.38,0,.75-.1,1.08-.29l-.69-1.21c-.12,.07-.25,.1-.39,.1,0,0,0,1.4,0,1.4Zm6.08-5.96c1.27-.48,2.29-.86,3.02-1.26,.74-.41,1.33-.93,1.51-1.75l-1.36-.3c-.05,.23-.22,.48-.82,.82-.62,.34-1.53,.69-2.84,1.18,0,0,.49,1.31,.49,1.31Zm-1.22-10.5c-.96-.97-1.74-1.75-2.42-2.25-.68-.51-1.4-.84-2.23-.65l.3,1.36c.23-.05,.53,0,1.09,.41,.57,.42,1.26,1.11,2.26,2.11l.99-.99h0Zm-6.32,2.16c.49-1.32,.82-2.24,1.16-2.87,.34-.61,.58-.78,.82-.83l-.3-1.36c-.82,.18-1.34,.78-1.74,1.53-.4,.74-.78,1.77-1.25,3.06,0,0,1.31,.48,1.31,.48Zm10.54,4.31c.19,.33,.21,.54,.17,.72l1.36,.3c.13-.61-.02-1.17-.32-1.71l-1.21,.69h0Zm-5.21-5.48l2.37,2.37,.99-.99-2.37-2.37s-.99,.99-.99,.99ZM2.19,20.83c-.26,.28-.25,.72,.03,.99,.27,.25,.68,.25,.95,0l-.99-.99Zm5.32-3.35c.27-.28,.26-.72-.02-.99-.27-.26-.7-.26-.97,0l.99,.99h0Zm-4.33,4.34l4.33-4.34-.99-.99-4.33,4.34,.99,.99Z"/><path id="read-more" d="M11.54,18.28H6.42c-.39,0-.7-.31-.7-.7s.31-.7,.7-.7h5.12c.39,0,.7,.31,.7,.7s-.31,.7-.7,.7Zm2.33-3.26H6.42c-.39,0-.7-.31-.7-.7s.31-.7,.7-.7h7.44c.39,0,.7,.31,.7,.7s-.31,.7-.7,.7Zm7.44-5.58h-3.72c-2.13,0-3.02-.02-3.48-.48s-.48-1.34-.48-3.48V3.16h-1.4v2.33c0,2.31,0,3.58,.88,4.46s2.16,.89,4.46,.89h3.72v-1.4Zm-17.91,.7c0-.39-.31-.7-.7-.7s-.7,.31-.7,.7h1.4Zm17.21,3.72c0,.39,.31,.7,.7,.7s.7-.31,.7-.7h-1.4ZM14.69,5.13l.47-.52-.47,.52Zm4.15,2.8l-.47,.52,.47-.52Zm2.14,2.36l-.64,.28,.64-.28ZM3.79,20.21l.49-.49-.49,.49Zm16.42,0l-.49-.49,.49,.49ZM2.1,6.35c-.04,.38,.24,.72,.63,.76s.72-.24,.76-.63l-1.39-.14Zm19.8,11.3c.04-.38-.24-.72-.63-.76s-.72,.24-.76,.63h0l1.39,.14Zm-8.04,2.96h-3.72v1.4h3.72v-1.4ZM3.4,13.86v-3.72h-1.4v3.72h1.4Zm17.21-.41v.41h1.4v-.41h-1.4ZM14.69,5.13l3.68,3.31,.93-1.04-3.68-3.31s-.93,1.04-.93,1.04Zm7.31,8.33c0-1.57,.01-2.57-.38-3.45l-1.28,.57c.25,.56,.26,1.19,.26,2.89h1.4Zm-3.63-5.01c1.26,1.13,1.72,1.57,1.97,2.13l1.27-.57c-.4-.89-1.14-1.54-2.31-2.6l-.93,1.04h0ZM10.17,3.4c1.47,0,2.03,.01,2.52,.2l.5-1.3c-.79-.31-1.66-.29-3.02-.29v1.4Zm5.46,.69c-1.01-.91-1.64-1.49-2.43-1.8l-.5,1.3c.49,.19,.91,.55,2,1.53,0,0,.93-1.04,.93-1.04Zm-5.48,16.52c-1.77,0-3.03,0-3.99-.13-.93-.13-1.47-.36-1.87-.76l-.99,.99c.7,.7,1.58,1.01,2.67,1.15,1.07,.14,2.44,.14,4.18,.14v-1.4ZM2,13.86c0,1.73,0,3.11,.14,4.18,.15,1.09,.46,1.97,1.15,2.67l.99-.99c-.39-.39-.63-.93-.75-1.87-.13-.96-.13-2.22-.13-3.99,0,0-1.4,0-1.4,0Zm11.86,8.14c1.73,0,3.11,0,4.18-.14,1.09-.15,1.97-.46,2.67-1.15l-.99-.99c-.39,.39-.93,.63-1.87,.75-.96,.13-2.22,.13-3.99,.13,0,0,0,1.4,0,1.4ZM10.17,2c-1.74,0-3.12,0-4.2,.14-1.09,.15-1.98,.46-2.68,1.15l.99,.99c.39-.39,.93-.63,1.88-.75,.96-.13,2.23-.13,4.01-.13,0,0,0-1.4,0-1.4ZM3.49,6.49c.11-1.15,.36-1.77,.79-2.21l-.99-.99c-.78,.78-1.07,1.79-1.2,3.06,0,0,1.39,.14,1.39,.14Zm17.03,11.03c-.11,1.15-.36,1.77-.79,2.21l.99,.99c.78-.78,1.07-1.79,1.2-3.06l-1.39-.14Z"/><path id="reload" d="M12,22c-1.41,0-2.81-.32-4.1-.94-.4-.19-.56-.67-.37-1.07,.19-.4,.67-.56,1.07-.37,1.68,.82,3.6,1,5.4,.52,2-.54,3.68-1.82,4.71-3.62,1.04-1.8,1.31-3.89,.78-5.89-.11-.43,.14-.87,.57-.98,.44-.11,.87,.14,.98,.57,.65,2.42,.31,4.94-.94,7.11-1.25,2.17-3.27,3.72-5.69,4.36-.8,.21-1.61,.32-2.42,.32Zm-6.68-3.21c-.23,0-.47-.1-.63-.3-3-3.74-2.7-9.1,.69-12.49,1.77-1.76,4.13-2.8,6.62-2.73,2.22,0,4.32,.77,6,2.19V2.8c0-.44,.36-.8,.8-.8s.8,.36,.8,.8V7.34h0c0,.11-.02,.21-.06,.3-.04,.1-.1,.19-.18,.26-.08,.08-.17,.14-.26,.18-.09,.04-.19,.06-.29,.06h-4.55c-.44,0-.8-.36-.8-.8s.36-.8,.8-.8h2.53c-1.36-1.08-3.03-1.66-4.79-1.67h0c-2.07,0-4.01,.8-5.48,2.27-2.81,2.8-3.05,7.25-.57,10.34,.28,.35,.22,.85-.12,1.13-.15,.12-.33,.18-.5,.18Z"/><path id="search" d="M20.37,21c-.16,0-.32-.06-.44-.18l-2.74-2.74c-.41,.35-.85,.66-1.32,.93-4.1,2.37-9.36,.96-11.72-3.14-1.53-2.65-1.53-5.93,0-8.58,.17-.3,.56-.4,.86-.23,.3,.17,.4,.56,.23,.86-1.3,2.26-1.3,5.06,0,7.32,2.02,3.5,6.51,4.71,10.01,2.68,1.7-.98,2.91-2.56,3.41-4.45s.25-3.86-.73-5.56c-2.02-3.5-6.51-4.7-10.01-2.68-.3,.17-.68,.07-.86-.23-.17-.3-.07-.68,.23-.86,4.1-2.37,9.36-.95,11.72,3.14,1.15,1.99,1.45,4.3,.86,6.51-.34,1.27-.95,2.42-1.79,3.39l2.74,2.74c.25,.25,.25,.64,0,.89-.12,.12-.28,.18-.44,.18Z"/><path id="settings" d="M12,15.49c-1.92,0-3.49-1.57-3.49-3.49s1.57-3.49,3.49-3.49,3.49,1.57,3.49,3.49-1.57,3.49-3.49,3.49Zm0-5.58c-1.15,0-2.09,.94-2.09,2.09s.94,2.09,2.09,2.09,2.09-.94,2.09-2.09-.94-2.09-2.09-2.09Zm0,12.09c-.93,0-1.44,0-1.91-.2-.63-.26-1.12-.75-1.39-1.38-.14-.34-.17-.7-.18-1.04-.01-.29-.16-.55-.39-.68-.24-.13-.53-.13-.77,0-.42,.22-.71,.33-1,.37-.67,.09-1.36-.1-1.89-.51-.4-.31-.65-.75-1.12-1.54-.47-.82-.73-1.26-.79-1.76-.09-.68,.09-1.35,.51-1.89,.22-.29,.52-.5,.81-.68,.25-.16,.4-.41,.4-.67s-.15-.52-.4-.67c-.33-.2-.43-.63-.22-.96,.2-.33,.63-.43,.96-.22,.66,.41,1.05,1.11,1.05,1.86s-.39,1.45-1.05,1.86c-.24,.15-.37,.26-.44,.35-.19,.25-.27,.55-.23,.86,.03,.23,.24,.59,.61,1.24,.38,.65,.58,1.01,.76,1.15,.24,.19,.55,.27,.86,.23,.12-.02,.28-.08,.53-.21,.66-.36,1.46-.36,2.12,.02,.66,.38,1.06,1.07,1.09,1.84,.01,.28,.03,.45,.08,.56,.12,.28,.35,.51,.63,.63,.21,.09,.63,.09,1.37,.09s1.16,0,1.38-.09c.28-.12,.51-.35,.63-.63,.05-.11,.07-.28,.08-.56,.03-.78,.43-1.46,1.08-1.84,.67-.38,1.47-.38,2.14-.02,.24,.13,.4,.19,.52,.21,.31,.04,.61-.04,.86-.23,.18-.14,.4-.51,.76-1.13,.19-.34,.34-.59,.45-.8,.18-.34,.6-.48,.94-.3s.48,.6,.3,.94c-.12,.23-.27,.5-.47,.84-.47,.81-.72,1.25-1.12,1.56-.54,.42-1.22,.6-1.89,.51-.3-.04-.59-.14-1-.36-.25-.14-.55-.14-.79,0-.22,.13-.37,.38-.38,.67-.02,.46-.07,.77-.18,1.04-.26,.63-.75,1.12-1.39,1.39-.47,.19-.98,.19-1.91,.19Zm7.76-8.04c-.12,0-.25-.03-.36-.1-.65-.4-1.05-1.09-1.06-1.85,0-.76,.39-1.46,1.05-1.87,.24-.15,.37-.26,.45-.35,.19-.24,.27-.55,.23-.86-.03-.23-.25-.61-.61-1.23-.38-.65-.58-1.01-.77-1.15-.25-.19-.54-.27-.86-.23-.12,.02-.28,.08-.53,.21-.66,.36-1.46,.36-2.12-.02-.67-.4-1.07-1.09-1.09-1.85,0-.27-.03-.44-.08-.55-.12-.28-.35-.51-.63-.63-.21-.09-.63-.09-1.38-.09s-1.16,0-1.38,.09c-.28,.12-.51,.35-.63,.63-.05,.11-.07,.28-.08,.56-.02,.75-.42,1.44-1.08,1.83-.68,.38-1.48,.39-2.15,.02-.24-.13-.4-.19-.52-.21-.3-.03-.61,.04-.86,.23-.18,.14-.4,.52-.76,1.15-.19,.32-.33,.57-.44,.78-.18,.34-.6,.48-.94,.3-.34-.18-.48-.6-.3-.94,.12-.23,.27-.5,.47-.84,.46-.8,.72-1.24,1.12-1.55,.55-.42,1.22-.6,1.89-.51,.3,.04,.59,.15,1,.36,.25,.14,.55,.14,.79,0,.22-.13,.37-.39,.38-.67,.02-.47,.07-.77,.19-1.05,.26-.63,.75-1.13,1.39-1.39,.47-.19,.98-.19,1.91-.19s1.44,0,1.91,.19c.63,.26,1.12,.75,1.39,1.39,.14,.34,.17,.7,.18,1.04,0,.29,.16,.54,.39,.68,.23,.13,.52,.13,.77,0,.42-.22,.7-.33,1-.37,.68-.09,1.35,.09,1.89,.51,.4,.31,.66,.75,1.12,1.55,.46,.8,.72,1.25,.79,1.75,.09,.68-.09,1.35-.51,1.89-.23,.29-.52,.5-.81,.68-.25,.16-.4,.41-.4,.68,0,.27,.15,.52,.39,.67,.33,.2,.44,.63,.24,.96-.13,.22-.36,.34-.6,.34Z"/><path id="share" d="M16.85,21.46c-.4,0-.73-.33-.73-.73s.33-.73,.73-.73c.94,0,1.7-.76,1.7-1.7s-.76-1.7-1.7-1.7-1.7,.76-1.7,1.7c0,.4-.33,.73-.73,.73s-.73-.33-.73-.73c0-.19,.02-.38,.05-.56l-4.59-3.21s-.05-.03-.07-.05c-.54,.42-1.21,.67-1.94,.67-1.74,0-3.15-1.41-3.15-3.15,0-.4,.33-.73,.73-.73s.73,.33,.73,.73c0,.94,.76,1.7,1.7,1.7s1.7-.76,1.7-1.7-.76-1.7-1.7-1.7c-.4,0-.73-.33-.73-.73s.33-.73,.73-.73c.73,0,1.4,.25,1.94,.67,.02-.02,.04-.04,.07-.05l4.59-3.21c-.13-.73,0-1.48,.37-2.13,.42-.73,1.1-1.25,1.91-1.47,.81-.22,1.66-.11,2.39,.32,.35,.2,.47,.65,.27,.99-.2,.35-.64,.47-.99,.27-.39-.23-.85-.29-1.29-.17-.44,.12-.8,.4-1.03,.79-.23,.39-.29,.85-.17,1.29,.12,.44,.4,.8,.79,1.03,.39,.23,.85,.29,1.29,.17,.44-.12,.8-.4,1.03-.79,.2-.35,.64-.47,.99-.27,.35,.2,.47,.64,.27,.99-.42,.73-1.1,1.25-1.91,1.47s-1.66,.11-2.39-.31c-.37-.21-.68-.49-.93-.82l-4.34,3.04c.19,.41,.3,.87,.3,1.35s-.11,.94-.3,1.35l4.35,3.04c.58-.75,1.48-1.24,2.5-1.24,1.74,0,3.15,1.41,3.15,3.15s-1.41,3.15-3.15,3.15Z"/><path id="sort-ascending" d="M17.71,2c.47,0,.86,.38,.86,.86v15.71l1.89-2.51c.28-.38,.82-.46,1.2-.17,.38,.28,.46,.82,.17,1.2l-3.43,4.57c-.28,.38-.82,.46-1.2,.17-.22-.16-.34-.42-.34-.69V2.86c0-.47,.38-.86,.86-.86ZM6.57,5.14c0-.47,.38-.86,.86-.86h5.71c.47,0,.86,.38,.86,.86s-.38,.86-.86,.86H7.43c-.47,0-.86-.38-.86-.86Zm-2.29,5.71c0-.47,.38-.86,.86-.86h8c.47,0,.86,.38,.86,.86s-.38,.86-.86,.86H5.14c-.47,0-.86-.38-.86-.86Zm-2.29,5.71c0-.47,.38-.86,.86-.86H13.14c.47,0,.86,.38,.86,.86s-.38,.86-.86,.86H2.86c-.47,0-.86-.38-.86-.86Z" style="fill-rule:evenodd;"/><path id="sort-descending" d="M17.44,2.04c.35-.12,.74,0,.96,.3l3.43,4.57c.28,.38,.21,.92-.17,1.2-.38,.28-.92,.21-1.2-.17l-1.89-2.51v15.71c0,.47-.38,.86-.86,.86s-.86-.38-.86-.86V2.86c0-.37,.24-.7,.59-.81ZM2,7.43c0-.47,.38-.86,.86-.86H13.14c.47,0,.86,.38,.86,.86s-.38,.86-.86,.86H2.86c-.47,0-.86-.38-.86-.86Zm2.29,5.71c0-.47,.38-.86,.86-.86h8c.47,0,.86,.38,.86,.86s-.38,.86-.86,.86H5.14c-.47,0-.86-.38-.86-.86Zm2.29,5.71c0-.47,.38-.86,.86-.86h5.71c.47,0,.86,.38,.86,.86s-.38,.86-.86,.86H7.43c-.47,0-.86-.38-.86-.86Z" style="fill-rule:evenodd;"/><path id="star" d="M6.97,22c-.41,0-.77-.11-1.11-.37-1.02-.77-.89-2.12-.63-4.81l.06-.64c.06-.62,.08-.9,.03-1.08-.05-.17-.23-.39-.62-.85l-.41-.48c-1.67-1.95-2.59-3.03-2.2-4.27,.39-1.26,1.75-1.57,4.22-2.13,.38-.08,.75,.15,.83,.53s-.15,.75-.53,.83c-1.83,.41-3.04,.69-3.19,1.18-.16,.51,.67,1.48,1.93,2.95l.4,.47c.48,.56,.76,.89,.9,1.35,.14,.46,.1,.87,.03,1.63l-.06,.63c-.19,1.97-.32,3.26,.09,3.57,.38,.29,1.5-.23,3.21-1.01l.56-.26c1.31-.6,1.74-.6,3.05,0l.55,.25c1.65,.76,2.83,1.3,3.21,1.02,.4-.31,.28-1.6,.09-3.56l1.39-.14c.26,2.69,.39,4.04-.63,4.81-1.04,.8-2.32,.2-4.64-.86l-.55-.26c-1.07-.49-.84-.48-1.89,0l-.56,.26c-1.57,.72-2.67,1.23-3.53,1.23Zm12.21-7.97c-.16,0-.32-.06-.45-.17-.29-.25-.33-.69-.08-.98,1.26-1.47,2.09-2.44,1.93-2.95-.15-.49-1.36-.77-3.19-1.18l-.59-.13c-.7-.16-1.12-.25-1.5-.54-.38-.29-.59-.67-.95-1.32l-.31-.55c-.91-1.63-1.57-2.81-2.04-2.81s-1.13,1.18-2.03,2.8l-1.22-.67c1.31-2.35,1.97-3.53,3.26-3.53s1.95,1.18,3.25,3.52l.31,.55c.3,.54,.44,.78,.58,.88,.13,.1,.39,.16,.97,.29l.59,.13c2.47,.56,3.82,.86,4.22,2.13,.39,1.24-.53,2.32-2.2,4.27-.14,.16-.33,.24-.53,.24Z"/><path id="translate" d="M15.92,18.28c-.87,0-1.91-.28-3.58-.72-2.21-.59-3.32-.89-4.13-1.65-.64-.6-1.08-1.37-1.28-2.22-.25-1.08,.05-2.19,.64-4.39l.71-2.64c.41-1.51,.73-2.55,1.42-3.28,.6-.64,1.37-1.08,2.22-1.28,1.08-.26,2.19,.04,4.4,.64,2.21,.59,3.31,.89,4.12,1.64,.64,.6,1.08,1.37,1.28,2.22,.19,.8,.06,1.63-.22,2.78-.09,.37-.47,.61-.84,.51-.37-.09-.6-.47-.51-.84,.26-1.09,.32-1.67,.21-2.14-.14-.59-.44-1.11-.88-1.52-.55-.52-1.55-.78-3.53-1.31-1.98-.53-2.98-.8-3.72-.63-.58,.14-1.11,.44-1.52,.88-.43,.46-.68,1.2-1.09,2.69l-.71,2.64c-.53,1.98-.8,2.98-.63,3.72,.14,.58,.44,1.11,.88,1.52,.55,.52,1.54,.78,3.52,1.31,1.82,.49,2.81,.75,3.53,.66,.07,0,.13-.02,.2-.03,.59-.14,1.11-.44,1.52-.88,.52-.55,.78-1.54,1.31-3.52l1.35,.36c-.59,2.2-.89,3.3-1.64,4.11-.6,.64-1.37,1.08-2.22,1.28-.11,.03-.23,.05-.35,.06-.15,.02-.3,.03-.46,.03Zm-1.96-4.02c-.06,0-.12,0-.18-.02l-2.7-.72c-.37-.1-.59-.48-.49-.85,.1-.37,.48-.59,.85-.49l2.7,.72c.37,.1,.59,.48,.49,.85-.08,.31-.37,.52-.67,.52Zm2.52-2.21c-.06,0-.12,0-.18-.02l-4.49-1.2c-.37-.1-.59-.48-.49-.85,.1-.37,.48-.59,.85-.49l4.49,1.2c.37,.1,.59,.48,.49,.85-.08,.31-.37,.52-.67,.52Zm-8.41,9.96c-.28,0-.54-.03-.8-.09-.85-.2-1.62-.64-2.22-1.28-.76-.81-1.06-1.92-1.65-4.12-.1-.37,.12-.75,.49-.85,.38-.1,.75,.12,.85,.49,.53,1.98,.8,2.98,1.32,3.53,.41,.44,.94,.74,1.52,.88,.74,.17,1.74-.1,3.72-.63,1.98-.53,2.98-.8,3.53-1.32,.37-.35,.65-.79,.81-1.27,.12-.37,.51-.56,.88-.45,.37,.12,.57,.51,.45,.88-.23,.7-.64,1.35-1.18,1.85-.81,.76-1.91,1.05-4.11,1.64-1.68,.45-2.72,.73-3.6,.73ZM3.18,13.63c-.31,0-.6-.21-.68-.53-.28-1.15-.41-1.98-.22-2.78,.2-.85,.64-1.62,1.28-2.22,.81-.76,1.92-1.05,4.12-1.64l1.09-.29c.38-.1,.75,.13,.85,.5,.1,.37-.13,.75-.5,.85l-1.08,.29c-1.98,.53-2.98,.8-3.53,1.32-.44,.41-.74,.94-.88,1.52-.11,.47-.05,1.05,.21,2.14,.09,.37-.14,.75-.51,.84-.06,.01-.11,.02-.17,.02Z"/><path id="verified" d="M10.49,15.26c-.19,0-.39-.07-.53-.22l-2.01-2.01c-.29-.29-.29-.77,0-1.06s.77-.29,1.06,0l1.47,1.47,4.48-4.48c.29-.29,.77-.29,1.06,0s.29,.77,0,1.06l-5.02,5.02c-.15,.15-.34,.22-.53,.22Zm2.91,6.42c.39-.18,.72-.46,1.32-.98,.12-.11,.25-.22,.37-.3,.19-.13,.41-.22,.64-.26,.12-.02,.24-.03,.49-.05,.78-.06,1.21-.09,1.61-.24,.93-.33,1.66-1.05,1.99-1.99,.14-.4,.17-.8,.24-1.61,.02-.25,.03-.38,.05-.5,.04-.23,.13-.44,.26-.64,.06-.1,.14-.18,.33-.4,.5-.59,.77-.91,.96-1.29,.43-.89,.43-1.92,0-2.81-.18-.37-.63-.53-1-.35-.38,.18-.53,.63-.35,1,.23,.48,.23,1.03,0,1.52-.1,.2-.33,.47-.79,1.02-.2,.24-.3,.36-.39,.49-.24,.36-.41,.76-.49,1.18-.03,.16-.05,.33-.08,.68-.05,.65-.08,1.01-.16,1.23-.18,.5-.57,.89-1.07,1.07-.21,.07-.55,.1-1.26,.16-.32,.03-.49,.04-.64,.07-.42,.08-.82,.25-1.2,.5-.18,.13-.36,.27-.51,.41-.5,.42-.77,.66-.98,.76-.48,.23-1.03,.23-1.52,0-.21-.1-.48-.33-.98-.76-.26-.22-.39-.33-.53-.42-.36-.24-.76-.41-1.18-.49-.16-.03-.32-.05-.67-.08-.65-.05-1.01-.08-1.23-.16-.5-.18-.89-.57-1.07-1.07-.14-.39-.57-.59-.96-.46-.39,.14-.6,.57-.46,.96,.33,.93,1.06,1.66,1.99,1.99,.4,.14,.83,.18,1.63,.24,.24,.02,.36,.03,.48,.05,.23,.04,.44,.13,.64,.26,.1,.07,.19,.15,.39,.32,.61,.52,.92,.78,1.31,.97,.45,.21,.93,.32,1.41,.32s.96-.11,1.4-.32ZM3.32,13.76c.38-.18,.53-.63,.35-1-.23-.48-.23-1.03,0-1.52,.1-.21,.33-.48,.77-1,.21-.24,.31-.37,.4-.5,.24-.36,.41-.76,.49-1.18,.03-.16,.05-.33,.08-.67,.05-.65,.08-1.01,.16-1.23,.18-.5,.57-.89,1.07-1.07,.21-.08,.55-.1,1.25-.16,.32-.03,.49-.04,.64-.07,.42-.08,.82-.25,1.18-.49,.14-.09,.27-.2,.53-.42,.5-.42,.77-.66,.98-.76,.48-.23,1.03-.23,1.52,0,.21,.1,.48,.33,.98,.76,.26,.22,.39,.33,.53,.42,.36,.24,.76,.41,1.18,.49,.16,.03,.32,.05,.67,.08,.68,.05,1.02,.08,1.23,.16,.5,.18,.89,.57,1.07,1.07,.14,.39,.58,.6,.96,.46,.39-.14,.6-.57,.46-.96-.33-.93-1.06-1.66-1.99-1.99-.41-.15-.84-.18-1.64-.24-.24-.02-.36-.03-.48-.05-.23-.04-.44-.13-.64-.26-.1-.07-.2-.15-.39-.31-.59-.51-.92-.79-1.31-.97-.89-.43-1.92-.43-2.81,0-.38,.18-.69,.45-1.31,.97-.19,.16-.28,.25-.39,.31-.19,.13-.41,.22-.64,.26-.12,.02-.24,.03-.49,.05-.78,.06-1.21,.09-1.61,.24-.93,.33-1.66,1.05-1.99,1.99-.14,.4-.17,.81-.24,1.61-.02,.25-.03,.38-.05,.5-.05,.23-.14,.45-.27,.64-.07,.1-.15,.19-.32,.39-.52,.62-.78,.92-.97,1.31-.43,.89-.43,1.92,0,2.81,.13,.27,.4,.43,.68,.43,.11,0,.22-.02,.32-.07Z"/><path id="zip" d="M12.93,22h-1.86c-3.7,0-5.55,0-6.85-1.29-.7-.7-1.06-1.61-1.2-3.06-.04-.38,.24-.72,.63-.76,.4-.04,.73,.24,.76,.63,.11,1.11,.34,1.75,.79,2.21,.88,.89,2.55,.89,5.86,.89h1.86c3.31,0,4.97,0,5.86-.89,.89-.88,.89-2.55,.89-5.86v-3.72c0-.39,.31-.7,.7-.7s.7,.31,.7,.7v3.72c0,3.7,0,5.55-1.29,6.85-1.29,1.29-3.15,1.29-6.85,1.29ZM3.63,14.56c-.39,0-.7-.31-.7-.7v-3.72c0-3.7,0-5.55,1.29-6.85,1.29-1.29,3.15-1.29,6.85-1.29h1.86c3.7,0,5.55,0,6.85,1.29,.7,.7,1.06,1.61,1.2,3.06,.04,.38-.24,.72-.63,.76-.38,.05-.72-.24-.76-.63-.11-1.11-.34-1.75-.79-2.21-.88-.89-2.55-.89-5.86-.89h-1.86c-3.31,0-4.97,0-5.86,.89-.89,.88-.89,2.55-.89,5.86v3.72c0,.39-.31,.7-.7,.7Zm8.37,3.72c-1.67,0-3.02-1.36-3.02-3.02v-.12c0-.83,.68-1.51,1.51-1.51h3.02c.83,0,1.51,.68,1.51,1.51,0,1.78-1.36,3.14-3.02,3.14Zm-1.51-3.26l-.12,.23c0,.9,.73,1.63,1.63,1.63s1.63-.73,1.63-1.63l-.12-.23h-3.02Zm2.91-2.33h-.47c-.53,0-.95,0-1.29-.34s-.34-.76-.34-1.29v-.47c0-.08,0-.16,0-.23-.08,0-.15,0-.23,0h-.47c-.53,0-.95,0-1.29-.34s-.34-.76-.34-1.29v-.47c0-.53,0-.95,.34-1.29s.76-.34,1.29-.34h.47c.08,0,.16,0,.23,0,0-.08,0-.15,0-.23v-.47c0-.08,0-.16,0-.23-.08,0-.15,0-.23,0h-.47c-.53,0-.95,0-1.29-.34s-.34-.76-.34-1.29v-.47c0-.53,0-.95,.34-1.29s.76-.34,1.29-.34h.47c.53,0,.95,0,1.29,.34s.34,.76,.34,1.29v.47c0,.08,0,.16,0,.23,.08,0,.15,0,.23,0h.47c.53,0,.95,0,1.29,.34s.34,.76,.34,1.29v.47c0,.53,0,.95-.34,1.29s-.76,.34-1.29,.34h-.47c-.08,0-.16,0-.23,0,0,.08,0,.15,0,.23v.47c0,.08,0,.16,0,.23,.08,0,.15,0,.23,0h.47c.53,0,.95,0,1.29,.34s.34,.76,.34,1.29v.47c0,.53,0,.95-.34,1.29s-.76,.34-1.29,.34Zm-.7-1.4c.07,0,.15,0,.23,0h.47c.08,0,.16,0,.23,0,0-.07,0-.15,0-.23v-.47c0-.08,0-.16,0-.23-.07,0-.15,0-.23,0h-.47c-.08,0-.16,0-.23,0,0,.07,0,.15,0,.23v.47c0,.08,0,.16,0,.23Zm-2.33-2.33c.07,0,.15,0,.23,0h.47c.08,0,.16,0,.23,0,0-.07,0-.15,0-.23v-.47c0-.08,0-.16,0-.23-.07,0-.15,0-.23,0h-.47c-.08,0-.16,0-.23,0,0,.07,0,.15,0,.23v.47c0,.08,0,.16,0,.23Zm2.33-2.33c.07,0,.15,0,.23,0h.47c.08,0,.16,0,.23,0,0-.07,0-.15,0-.23v-.47c0-.08,0-.16,0-.23-.07,0-.15,0-.23,0h-.47c-.08,0-.16,0-.23,0,0,.07,0,.15,0,.23v.47c0,.08,0,.16,0,.23Zm-2.33-2.33c.07,0,.15,0,.23,0h.47c.08,0,.16,0,.23,0,0-.07,0-.15,0-.23v-.47c0-.08,0-.16,0-.23-.07,0-.15,0-.23,0h-.47c-.08,0-.16,0-.23,0,0,.07,0,.15,0,.23v.47c0,.08,0,.16,0,.23Z"/></svg>