<?xml version="1.0" encoding="UTF-8"?><svg id="solar-bold" xmlns="http://www.w3.org/2000/svg" viewBox="0 0 24 24"><path id="archive" d="M3,5.7c0-.85,0-1.27,.26-1.54s.69-.26,1.54-.26h14.4c.85,0,1.27,0,1.54,.26,.26,.26,.26,.69,.26,1.54s0,1.27-.26,1.54c-.26,.26-.69,.26-1.54,.26H4.8c-.85,0-1.27,0-1.54-.26-.26-.26-.26-.69-.26-1.54Zm16.26,3.15H4.74c-.13,0-.26,0-.39,0v4.05c0,3.39,0,5.09,1.05,6.15,1.05,1.05,2.75,1.05,6.15,1.05h.9c3.39,0,5.09,0,6.15-1.05,1.05-1.05,1.05-2.75,1.05-6.15v-4.05c-.13,0-.26,0-.39,0Zm-4.63,3.94c-.09,.22-.27,.39-.49,.49-.17,.07-.38,.07-.79,.07h-2.7c-.42,0-.63,0-.79-.07-.22-.09-.39-.27-.49-.49-.07-.17-.07-.38-.07-.79s0-.63,.07-.79c.09-.22,.27-.4,.49-.49,.17-.07,.38-.07,.79-.07h2.7c.42,0,.63,0,.79,.07,.22,.09,.39,.27,.49,.49,.07,.17,.07,.38,.07,.79s0,.63-.07,.79Z"/><path id="arrow-left" d="M19.31,11.31c.38,0,.69,.31,.69,.69s-.31,.69-.69,.69H10.86v4.8c0,.38-.31,.69-.69,.69-.18,0-.36-.07-.48-.2l-5.49-5.49c-.27-.27-.27-.7,0-.97l5.49-5.49c.27-.27,.7-.27,.97,0,.13,.13,.2,.3,.2,.48v4.8h8.46Z"/><path id="arrow-right" d="M4.69,12.69c-.38,0-.69-.31-.69-.69s.31-.69,.69-.69H13.14V6.51c0-.38,.31-.69,.69-.69,.18,0,.36,.07,.48,.2l5.49,5.49c.27,.27,.27,.7,0,.97l-5.49,5.49c-.27,.27-.7,.27-.97,0-.13-.13-.2-.3-.2-.48v-4.8H4.69Z"/><path id="arrow-top" d="M12.69,19.31c0,.38-.31,.69-.69,.69s-.69-.31-.69-.69V10.86H6.51c-.38,0-.69-.31-.69-.69,0-.18,.07-.36,.2-.48l5.49-5.49c.27-.27,.7-.27,.97,0l5.49,5.49c.27,.27,.27,.7,0,.97-.13,.13-.3,.2-.48,.2h-4.8v8.46Z"/><path id="bookmark" d="M20.1,11.19v4.49c0,2.79,0,4.18-.66,4.79-.31,.29-.71,.47-1.14,.52-.89,.1-1.93-.82-4-2.65-.92-.81-1.38-1.22-1.91-1.32-.26-.05-.53-.05-.79,0-.53,.11-.99,.51-1.91,1.32-2.07,1.84-3.11,2.75-4,2.65-.42-.05-.82-.23-1.14-.52-.66-.61-.66-2-.66-4.79v-4.49c0-3.86,0-5.79,1.19-6.99,1.19-1.2,3.1-1.2,6.91-1.2s5.73,0,6.91,1.2c1.19,1.2,1.19,3.13,1.19,6.99ZM8.63,6.6c0-.37,.3-.67,.67-.67h5.4c.37,0,.67,.3,.67,.67s-.3,.67-.67,.67h-5.4c-.37,0-.67-.3-.67-.67Z" style="fill-rule:evenodd;"/><path id="bookmark-add" d="M9.49,6.35c-.35,0-.63,.28-.63,.63s.28,.63,.63,.63h5.02c.35,0,.63-.28,.63-.63s-.28-.63-.63-.63h-5.02Zm2.46-3.35c-1.74,0-3.1,0-4.17,.14-1.1,.15-1.97,.46-2.66,1.16-.69,.69-.99,1.58-1.14,2.68-.14,1.08-.14,2.46-.14,4.21v4.27c0,1.26,0,2.26,.08,3.01,.08,.74,.25,1.41,.74,1.86,.39,.36,.88,.59,1.41,.65,.66,.08,1.27-.24,1.88-.67,.61-.43,1.36-1.09,2.3-1.92l.03-.03c.44-.39,.73-.64,.98-.83,.24-.17,.38-.24,.5-.26,.16-.03,.33-.03,.49,0,.12,.03,.27,.09,.5,.26,.25,.18,.54,.44,.98,.83l.03,.03c.94,.83,1.68,1.49,2.3,1.92,.61,.43,1.22,.74,1.88,.67,.53-.06,1.02-.29,1.41-.65,.49-.45,.66-1.12,.74-1.86,.08-.75,.08-1.75,.08-3.01v-4.27c0-1.75,0-3.14-.14-4.21-.15-1.11-.46-1.99-1.14-2.68-.69-.69-1.56-1.01-2.66-1.16-1.07-.14-2.44-.14-4.17-.14,0,0-.1,0-.1,0Zm-5.94,2.19c.42-.42,.98-.67,1.94-.8,.97-.13,2.26-.13,4.05-.13s3.08,0,4.05,.13c.95,.13,1.52,.38,1.94,.8,.42,.42,.66,.99,.79,1.96,.13,.99,.13,2.28,.13,4.1v4.18c0,1.31,0,2.24-.07,2.92-.08,.69-.21,.96-.34,1.07-.2,.18-.44,.29-.7,.32-.17,.02-.45-.05-1.01-.45-.55-.39-1.24-1-2.22-1.87l-.02-.02c-.41-.36-.75-.66-1.05-.88-.31-.23-.63-.4-1-.48-.32-.07-.66-.07-.98,0-.37,.08-.69,.25-1,.48-.3,.22-.64,.52-1.05,.88l-.02,.02c-.98,.86-1.67,1.48-2.22,1.87-.57,.4-.85,.46-1.01,.45-.26-.03-.51-.14-.7-.32-.13-.12-.26-.38-.34-1.07-.07-.68-.07-1.61-.07-2.92v-4.18c0-1.81,0-3.11,.13-4.1,.13-.97,.37-1.54,.79-1.96Z"/><path id="check" d="M12,22c-4.71,0-7.07,0-8.54-1.47-1.46-1.46-1.46-3.82-1.46-8.53s0-7.07,1.46-8.54c1.47-1.46,3.82-1.46,8.54-1.46s7.07,0,8.53,1.46c1.47,1.47,1.47,3.82,1.47,8.54s0,7.07-1.47,8.53c-1.46,1.47-3.82,1.47-8.53,1.47Zm4.03-13.03c.29,.29,.29,.77,0,1.06l-5,5c-.29,.29-.77,.29-1.06,0l-2-2c-.3-.28-.32-.76-.04-1.06s.76-.32,1.06-.04c.01,.01,.03,.02,.04,.04l1.47,1.47,4.47-4.47c.29-.29,.77-.29,1.06,0Z" style="fill-rule:evenodd;"/><path id="clear" d="M6.87,19.5c.93,.5,2.04,.5,4.27,.5h2.64c3.87,0,5.81,0,7.02-1.17,1.2-1.17,1.2-3.06,1.2-6.83s0-5.66-1.2-6.83c-1.2-1.17-3.14-1.17-7.02-1.17h-2.64c-2.23,0-3.34,0-4.27,.5-.93,.5-1.52,1.42-2.7,3.26l-.68,1.06c-.99,1.55-1.49,2.32-1.49,3.18s.5,1.63,1.49,3.18l.68,1.06c1.18,1.84,1.77,2.76,2.7,3.26Zm4.16-10.53c-.29-.29-.77-.29-1.06,0-.29,.29-.29,.77,0,1.06h0l1.97,1.97-1.97,1.97c-.3,.28-.32,.76-.04,1.06,.28,.3,.76,.32,1.06,.04,.01-.01,.03-.02,.04-.04l1.97-1.97,1.97,1.97c.3,.28,.78,.27,1.06-.04,.27-.29,.27-.73,0-1.02l-1.97-1.97,1.97-1.97c.28-.3,.27-.78-.04-1.06-.29-.27-.73-.27-1.02,0l-1.97,1.97-1.97-1.97h0Z" style="fill-rule:evenodd;"/><path id="clear_rtl" d="M17.13,4.5c-.93-.5-2.04-.5-4.27-.5h-2.64c-3.87,0-5.81,0-7.02,1.17-1.2,1.17-1.2,3.06-1.2,6.83s0,5.66,1.2,6.83c1.2,1.17,3.14,1.17,7.02,1.17h2.64c2.23,0,3.34,0,4.27-.5,.93-.5,1.52-1.42,2.7-3.26l.68-1.06c.99-1.55,1.49-2.32,1.49-3.18s-.5-1.63-1.49-3.18l-.68-1.06c-1.18-1.84-1.77-2.76-2.7-3.26Zm-4.16,10.53c.29,.29,.77,.29,1.06,0,.29-.29,.29-.77,0-1.06h0l-1.97-1.97,1.97-1.97c.3-.28,.32-.76,.04-1.06-.28-.3-.76-.32-1.06-.04-.01,.01-.03,.02-.04,.04l-1.97,1.97-1.97-1.97c-.3-.28-.78-.27-1.06,.04-.27,.29-.27,.73,0,1.02l1.97,1.97-1.97,1.97c-.28,.3-.27,.78,.04,1.06,.29,.27,.73,.27,1.02,0l1.97-1.97,1.97,1.97h0Z" style="fill-rule:evenodd;"/><path id="close" d="M22,12c0,5.52-4.48,10-10,10S2,17.52,2,12,6.48,2,12,2s10,4.48,10,10Zm-13.03-3.03c.29-.29,.77-.29,1.06,0l1.97,1.97,1.97-1.97c.3-.28,.78-.27,1.06,.04,.27,.29,.27,.73,0,1.02l-1.97,1.97,1.97,1.97c.28,.3,.27,.78-.04,1.06-.29,.27-.73,.27-1.02,0l-1.97-1.97-1.97,1.97c-.3,.28-.78,.27-1.06-.04-.27-.29-.27-.73,0-1.02l1.97-1.97-1.97-1.97c-.29-.29-.29-.77,0-1.06Z" style="fill-rule:evenodd;"/><path id="comment" d="M22,12c0,5.52-4.48,10-10,10-1.6,0-3.11-.38-4.45-1.04-.35-.18-.76-.23-1.15-.13l-2.23,.6c-.69,.19-1.41-.23-1.59-.92-.06-.22-.06-.45,0-.67l.59-2.23c.1-.39,.05-.79-.13-1.15-.69-1.38-1.05-2.91-1.04-4.45C2,6.48,6.48,2,12,2s10,4.48,10,10Zm-14,1c-.55,0-1-.45-1-1s.45-1,1-1,1,.45,1,1-.45,1-1,1Zm3-1c0,.55,.45,1,1,1s1-.45,1-1-.45-1-1-1-1,.45-1,1Zm4,0c0,.55,.45,1,1,1s1-.45,1-1-.45-1-1-1-1,.45-1,1Z" style="fill-rule:evenodd;"/><path id="comment-text" d="M12,22c5.52,0,10-4.48,10-10S17.52,2,12,2,2,6.48,2,12c0,1.6,.38,3.11,1.04,4.45,.18,.36,.24,.76,.13,1.15l-.6,2.23c-.18,.69,.23,1.41,.92,1.59,.22,.06,.45,.06,.67,0l2.23-.59c.39-.1,.8-.05,1.15,.13,1.38,.69,2.91,1.05,4.45,1.04Zm-4-8.75c-.41,0-.75,.34-.75,.75s.34,.75,.75,.75h5.5c.41,0,.75-.34,.75-.75s-.34-.75-.75-.75h-5.5Zm-.75-2.75c0-.41,.34-.75,.75-.75h8c.41,0,.75,.34,.75,.75s-.34,.75-.75,.75H8c-.41,0-.75-.34-.75-.75Z" style="fill-rule:evenodd;"/><path id="copy" d="M15.24,2h-3.89c-1.76,0-3.16,0-4.26,.15-1.13,.15-2.04,.47-2.76,1.19-.72,.72-1.04,1.64-1.19,2.77-.15,1.1-.15,2.5-.15,4.27v5.84c0,1.51,.92,2.8,2.23,3.34-.07-.91-.07-2.18-.07-3.25v-5.01c0-1.28,0-2.39,.12-3.27,.13-.95,.41-1.86,1.15-2.59,.73-.74,1.64-1.02,2.58-1.15,.88-.12,1.98-.12,3.26-.12h3.07c1.28,0,2.37,0,3.26,.12-.54-1.38-1.87-2.29-3.35-2.29ZM6.6,11.4c0-2.73,0-4.09,.84-4.94,.84-.85,2.2-.85,4.92-.85h2.88c2.72,0,4.07,0,4.92,.85,.84,.85,.84,2.21,.84,4.94v4.82c0,2.73,0,4.09-.84,4.94-.84,.85-2.2,.85-4.92,.85h-2.88c-2.72,0-4.07,0-4.92-.85-.84-.85-.84-2.21-.84-4.94,0,0,0-4.82,0-4.82Z"/><path id="dark" d="M19.9,2.31c-.1-.25-.38-.37-.63-.27-.13,.05-.23,.15-.27,.27l-.43,1.09c-.05,.13-.15,.22-.27,.27l-1.09,.43c-.25,.1-.37,.38-.27,.63,.05,.12,.15,.22,.27,.27l1.09,.43c.12,.05,.22,.15,.27,.27l.43,1.09c.16,.41,.74,.41,.9,0l.43-1.09c.05-.12,.15-.22,.27-.27l1.09-.43c.25-.1,.37-.38,.27-.63-.05-.12-.15-.22-.27-.27l-1.09-.43c-.13-.05-.22-.15-.27-.27l-.43-1.09h0Zm-3.87,5.82c-.1-.25-.38-.37-.63-.27-.13,.05-.23,.15-.27,.27l-.16,.4c-.05,.12-.15,.22-.27,.27l-.4,.16c-.25,.1-.37,.38-.27,.63,.05,.12,.15,.22,.27,.27l.4,.16c.12,.05,.22,.15,.27,.27l.16,.4c.16,.41,.74,.41,.9,0l.16-.4c.05-.12,.15-.22,.27-.27l.4-.16c.25-.1,.37-.38,.27-.63-.05-.12-.15-.22-.27-.27l-.4-.16c-.12-.05-.22-.15-.27-.27l-.16-.4h0Zm-4.03,13.87c5.52,0,10-4.48,10-10,0-.46-.69-.54-.93-.14-1.86,3.07-5.85,4.06-8.92,2.21s-4.06-5.85-2.21-8.92c.55-.9,1.3-1.66,2.21-2.21,.4-.24,.32-.93-.14-.93C6.48,2,2,6.48,2,12s4.48,10,10,10Z"/><path id="download" d="M12.57,16.62c-.29,.31-.77,.34-1.09,.05-.02-.02-.03-.03-.05-.05l-4.1-4.49c-.29-.31-.26-.8,.05-1.09,.31-.29,.8-.26,1.09,.05l2.77,3.03V2.77c0-.42,.34-.77,.77-.77s.77,.34,.77,.77V14.12l2.77-3.03c.29-.31,.77-.34,1.09-.05,.31,.29,.34,.77,.05,1.09l-4.1,4.49h0Zm-9.03-1.54c0-.42-.34-.77-.77-.77s-.77,.34-.77,.77v.06c0,1.4,0,2.53,.12,3.42,.12,.92,.39,1.7,1.01,2.32,.62,.62,1.39,.88,2.32,1.01,.89,.12,2.02,.12,3.42,.12h6.27c1.4,0,2.53,0,3.42-.12,.92-.13,1.7-.39,2.32-1.01s.88-1.39,1.01-2.32c.12-.89,.12-2.02,.12-3.42v-.06c0-.42-.34-.77-.77-.77s-.77,.34-.77,.77c0,1.47,0,2.5-.11,3.27-.1,.75-.29,1.15-.57,1.43-.28,.28-.68,.47-1.44,.57-.77,.1-1.8,.11-3.27,.11h-6.15c-1.47,0-2.5,0-3.27-.11-.75-.1-1.15-.29-1.43-.57-.28-.28-.47-.68-.57-1.44-.1-.77-.11-1.8-.11-3.27Z"/><path id="home" d="M13,21h-1.99c-3.1,0-4.65,0-5.71-.91-1.06-.91-1.28-2.43-1.72-5.48l-.25-1.74c-.34-2.37-.51-3.56-.03-4.57,.49-1.01,1.52-1.63,3.59-2.86l1.25-.74c1.88-1.12,2.82-1.68,3.86-1.68s1.98,.56,3.86,1.68l1.25,.74c2.07,1.23,3.11,1.85,3.59,2.86,.49,1.01,.32,2.2-.03,4.57l-.25,1.74c-.44,3.05-.66,4.57-1.72,5.48-1.06,.91-2.61,.91-5.71,.91Zm-4.24-5.8c.22-.3,.64-.36,.94-.14,.66,.49,1.45,.77,2.3,.77s1.64-.28,2.3-.77c.3-.22,.72-.16,.94,.14s.16,.72-.14,.94h0c-.9,.67-1.98,1.03-3.1,1.03-1.12,0-2.21-.36-3.1-1.03-.3-.22-.36-.64-.14-.94Z" style="fill-rule:evenodd;"/><path id="label" d="M10.82,3.88c.1-.37-.11-.75-.48-.85-.37-.1-.75,.11-.85,.48l-1.4,5.03h-3.47c-.38,0-.69,.31-.69,.69s.31,.69,.69,.69h3.09l-1.41,5.08H2.77c-.38,0-.69,.31-.69,.69s.31,.69,.69,.69h3.14l-1.04,3.74c-.1,.37,.11,.75,.48,.85s.75-.11,.85-.48l1.14-4.11h6.87l-1.04,3.74c-.1,.37,.11,.75,.48,.85,.37,.1,.75-.11,.85-.48l1.14-4.11h3.73c.38,0,.69-.31,.69-.69s-.31-.69-.69-.69h-3.35l1.41-5.08h3.78c.38,0,.69-.31,.69-.69s-.31-.69-.69-.69h-3.4l1.3-4.66c.1-.37-.11-.75-.48-.85s-.75,.11-.85,.48h0l-1.4,5.03h-6.87s1.3-4.66,1.3-4.66Zm3.78,11.12l1.41-5.08h-6.87l-1.41,5.08h6.87Z" style="fill-rule:evenodd;"/><path id="light" d="M16.65,12c0,2.57-2.08,4.65-4.65,4.65s-4.65-2.08-4.65-4.65,2.08-4.65,4.65-4.65,4.65,2.08,4.65,4.65ZM12,2c.39,0,.7,.31,.7,.7v1.86c0,.39-.31,.7-.7,.7s-.7-.31-.7-.7v-1.86c0-.39,.31-.7,.7-.7Zm-7.75,2.29c.26-.28,.7-.3,.99-.04,0,0,0,0,0,0l2.07,1.89c.29,.26,.31,.7,.06,.98-.26,.29-.7,.31-.98,.06,0,0,0,0-.01-.01l-2.07-1.89c-.28-.26-.3-.7-.04-.99,0,0,0,0,0,0Zm15.5,0c.26,.28,.24,.73-.04,.99,0,0,0,0,0,0l-2.07,1.89c-.29,.26-.73,.23-.98-.06-.25-.28-.23-.71,.04-.97l2.07-1.89c.28-.26,.73-.24,.99,.04,0,0,0,0,0,0h0ZM2,12c0-.39,.31-.7,.7-.7h1.86c.39,0,.7,.31,.7,.7s-.31,.7-.7,.7h-1.86c-.39,0-.7-.31-.7-.7Zm16.74,0c0-.39,.31-.7,.7-.7h1.86c.39,0,.7,.31,.7,.7s-.31,.7-.7,.7h-1.86c-.39,0-.7-.31-.7-.7Zm-2.07,4.67c.27-.27,.71-.27,.99,0l2.07,2.07c.26,.28,.25,.72-.03,.99-.27,.25-.68,.25-.95,0l-2.07-2.07c-.27-.27-.27-.71,0-.99h0Zm-9.35,0c.27,.27,.27,.71,0,.99,0,0,0,0,0,0l-2.07,2.07c-.28,.26-.72,.25-.99-.03-.25-.27-.25-.68,0-.95l2.07-2.07c.27-.27,.71-.27,.99,0h0Zm4.67,2.07c.39,0,.7,.31,.7,.7v1.86c0,.39-.31,.7-.7,.7s-.7-.31-.7-.7v-1.86c0-.39,.31-.7,.7-.7Z"/><path id="link" d="M15.12,5.21c1.2-1.21,2.96-1.23,3.93-.25,.97,.98,.95,2.75-.25,3.95l-2.03,2.04c-.24,.25-.23,.65,.02,.89,.24,.23,.63,.23,.87,0l2.03-2.04c1.6-1.61,1.8-4.17,.25-5.72-1.55-1.55-4.11-1.35-5.71,.25l-4.06,4.07c-1.6,1.61-1.8,4.17-.25,5.72,.24,.25,.64,.26,.89,.02,.25-.24,.26-.64,.02-.89,0,0-.01-.01-.02-.02-.97-.98-.95-2.75,.25-3.95l4.06-4.07h0Zm-1.04,4.68c-.25-.25-.64-.25-.89,0-.25,.25-.25,.64,0,.89,.97,.98,.95,2.75-.25,3.95l-4.06,4.07c-1.2,1.21-2.96,1.23-3.93,.25-.97-.98-.95-2.75,.25-3.95l2.03-2.04c.24-.25,.24-.64,0-.89s-.64-.24-.89,0l-2.03,2.04c-1.6,1.61-1.8,4.17-.25,5.72,1.55,1.56,4.11,1.35,5.71-.25l4.06-4.07c1.6-1.61,1.8-4.17,.25-5.72h0Z"/><path id="link-open" d="M14.03,3.9c0-.37,.3-.67,.67-.67h5.4c.37,0,.67,.3,.67,.67v5.4c0,.37-.3,.67-.67,.67s-.68-.3-.68-.67v-3.77l-6.05,6.05c-.25,.27-.68,.29-.95,.03-.27-.25-.29-.68-.03-.95,.01-.01,.02-.02,.03-.03l6.05-6.05h-3.77c-.37,0-.67-.3-.67-.67Zm6.97,7.21c-1,.5-2.22,.09-2.71-.91-.14-.28-.21-.59-.21-.9v-.51l-3.74,3.74c-.79,.79-2.07,.79-2.86,0s-.79-2.07,0-2.86l3.74-3.74h-.51c-1.12,0-2.03-.91-2.03-2.02,0-.31,.07-.62,.21-.9h-.89c-4.24,0-6.36,0-7.68,1.32-1.32,1.32-1.32,3.44-1.32,7.68s0,6.36,1.32,7.68c1.32,1.32,3.44,1.32,7.68,1.32s6.36,0,7.68-1.32c1.32-1.32,1.32-3.44,1.32-7.68v-.89Z"/><path id="list" d="M8.69,4.04c.24,.25,.22,.65-.03,.89l-3.59,3.35c-.25,.24-.65,.22-.89-.03-.01-.01-.02-.02-.03-.03l-1.02-1.26c-.22-.27-.18-.67,.09-.88s.67-.18,.88,.09l.59,.73,3.1-2.89c.25-.24,.65-.22,.89,.03Zm2.68,2.1c0-.35,.28-.63,.63-.63h8.37c.35,0,.63,.28,.63,.63s-.28,.63-.63,.63H12c-.35,0-.63-.28-.63-.63Zm-2.68,3.76c.24,.25,.22,.65-.03,.89l-3.59,3.35c-.25,.24-.65,.22-.89-.03-.01-.01-.02-.02-.03-.03l-1.02-1.26c-.22-.27-.18-.67,.09-.88,.27-.22,.67-.18,.88,.09h0l.59,.73,3.1-2.89c.25-.24,.65-.22,.89,.03Zm2.68,2.1c0-.35,.28-.63,.63-.63h8.37c.35,0,.63,.28,.63,.63s-.28,.63-.63,.63H12c-.35,0-.63-.28-.63-.63Zm-2.68,3.76c.24,.25,.22,.65-.03,.89l-3.59,3.35c-.25,.24-.65,.22-.89-.03-.01-.01-.02-.02-.03-.03l-1.02-1.26c-.22-.27-.18-.67,.09-.88,.27-.22,.67-.18,.88,.09l.59,.73,3.1-2.89c.25-.24,.65-.22,.89,.03Zm2.68,2.1c0-.35,.28-.63,.63-.63h8.37c.35,0,.63,.28,.63,.63s-.28,.63-.63,.63H12c-.35,0-.63-.28-.63-.63Z" style="fill-rule:evenodd;"/><path id="lock" d="M20.79,11.28c-.51-.51-1.21-.71-2.29-.79v-1.98c0-3.59-2.91-6.51-6.51-6.51s-6.51,2.91-6.51,6.51v1.98c-1.07,.08-1.77,.28-2.29,.79-.85,.85-.85,2.21-.85,4.94s0,4.09,.85,4.94c.85,.85,2.21,.85,4.94,.85h7.71c2.73,0,4.09,0,4.94-.85,.85-.85,.85-2.21,.85-4.94s0-4.09-.85-4.94Zm-8.79,6.86c-1.06,0-1.93-.86-1.93-1.93s.86-1.93,1.93-1.93,1.93,.86,1.93,1.93-.86,1.93-1.93,1.93Zm5.06-7.71c-.37,0-.77,0-1.2,0h-7.71c-.44,0-.84,0-1.2,0v-1.93c0-2.79,2.27-5.06,5.06-5.06s5.06,2.27,5.06,5.06v1.93Z" style="fill-rule:evenodd;"/><path id="menu" d="M4.32,19.68c1.32,1.32,3.44,1.32,7.68,1.32s6.36,0,7.68-1.32c1.32-1.32,1.32-3.44,1.32-7.68s0-6.36-1.32-7.68c-1.32-1.32-3.44-1.32-7.68-1.32s-6.36,0-7.68,1.32c-1.32,1.32-1.32,3.44-1.32,7.68s0,6.36,1.32,7.68Zm13.76-4.08c0,.37-.3,.67-.68,.67H6.6c-.37,0-.68-.3-.68-.67s.3-.68,.68-.68h10.8c.37,0,.68,.3,.68,.68Zm-.68-2.93c.37,0,.68-.3,.68-.67s-.3-.67-.68-.67H6.6c-.37,0-.68,.3-.68,.67s.3,.67,.68,.67h10.8Zm.68-4.27c0,.37-.3,.68-.68,.68H6.6c-.37,0-.68-.3-.68-.68s.3-.67,.68-.67h10.8c.37,0,.68,.3,.68,.67Z" style="fill-rule:evenodd;"/><path id="menu-more" d="M12,7.56c-.98,0-1.78-.8-1.78-1.78s.8-1.78,1.78-1.78,1.78,.8,1.78,1.78-.8,1.78-1.78,1.78Zm0,6.22c-.98,0-1.78-.8-1.78-1.78s.8-1.78,1.78-1.78,1.78,.8,1.78,1.78-.8,1.78-1.78,1.78Zm0,6.22c-.98,0-1.78-.8-1.78-1.78s.8-1.78,1.78-1.78,1.78,.8,1.78,1.78-.8,1.78-1.78,1.78Zm6-12.44c-.98,0-1.78-.8-1.78-1.78s.8-1.78,1.78-1.78,1.78,.8,1.78,1.78-.8,1.78-1.78,1.78Zm0,6.22c-.98,0-1.78-.8-1.78-1.78s.8-1.78,1.78-1.78,1.78,.8,1.78,1.78-.8,1.78-1.78,1.78Zm0,6.22c-.98,0-1.78-.8-1.78-1.78s.8-1.78,1.78-1.78,1.78,.8,1.78,1.78-.8,1.78-1.78,1.78ZM6,7.56c-.98,0-1.78-.8-1.78-1.78s.8-1.78,1.78-1.78,1.78,.8,1.78,1.78-.8,1.78-1.78,1.78Zm0,6.22c-.98,0-1.78-.8-1.78-1.78s.8-1.78,1.78-1.78,1.78,.8,1.78,1.78-.8,1.78-1.78,1.78Zm0,6.22c-.98,0-1.78-.8-1.78-1.78s.8-1.78,1.78-1.78,1.78,.8,1.78,1.78-.8,1.78-1.78,1.78Z"/><path id="more" d="M16.44,12c0-.98,.8-1.78,1.78-1.78s1.78,.8,1.78,1.78-.8,1.78-1.78,1.78-1.78-.8-1.78-1.78Zm-6.22,0c0-.98,.8-1.78,1.78-1.78s1.78,.8,1.78,1.78-.8,1.78-1.78,1.78-1.78-.8-1.78-1.78Zm-6.22,0c0-.98,.8-1.78,1.78-1.78s1.78,.8,1.78,1.78-.8,1.78-1.78,1.78-1.78-.8-1.78-1.78Z"/><path id="more-vertical" d="M12,7.56c-.98,0-1.78-.8-1.78-1.78s.8-1.78,1.78-1.78,1.78,.8,1.78,1.78-.8,1.78-1.78,1.78Zm0,6.22c-.98,0-1.78-.8-1.78-1.78s.8-1.78,1.78-1.78,1.78,.8,1.78,1.78-.8,1.78-1.78,1.78Zm0,6.22c-.98,0-1.78-.8-1.78-1.78s.8-1.78,1.78-1.78,1.78,.8,1.78,1.78-.8,1.78-1.78,1.78Z"/><path id="page" d="M4.17,3.17c-1.17,1.17-1.17,3.06-1.17,6.83v4c0,3.77,0,5.66,1.17,6.83,1.17,1.17,3.06,1.17,6.83,1.17h2c3.77,0,5.66,0,6.83-1.17,1.17-1.17,1.17-3.06,1.17-6.83v-4c0-3.77,0-5.66-1.17-6.83-1.17-1.17-3.06-1.17-6.83-1.17h-2c-3.77,0-5.66,0-6.83,1.17Zm3.08,4.83c0-.41,.34-.75,.75-.75h8c.41,0,.75,.34,.75,.75s-.34,.75-.75,.75h-8c-.41,0-.75-.34-.75-.75Zm0,4c0-.41,.34-.75,.75-.75h8c.41,0,.75,.34,.75,.75s-.34,.75-.75,.75h-8c-.41,0-.75-.34-.75-.75Zm.75,3.25c-.41,0-.75,.34-.75,.75s.34,.75,.75,.75h5c.41,0,.75-.34,.75-.75s-.34-.75-.75-.75h-5Z" style="fill-rule:evenodd;"/><path id="pin" d="M19.18,7.81l-2.97-2.97c-2.03-2.03-3.04-3.05-4.13-2.81-1.09,.24-1.58,1.59-2.57,4.28l-.67,1.82c-.26,.72-.4,1.08-.63,1.36-.11,.12-.23,.24-.36,.33-.3,.21-.66,.31-1.4,.52-1.66,.46-2.49,.69-2.81,1.23-.14,.24-.21,.5-.2,.77,0,.63,.61,1.24,1.83,2.46l1.42,1.42-4.48,4.48c-.29,.31-.28,.79,.03,1.08,.29,.28,.75,.28,1.05,0l4.48-4.48,1.47,1.47c1.23,1.23,1.84,1.84,2.47,1.84,.27,0,.53-.07,.76-.2,.55-.31,.78-1.15,1.24-2.82,.2-.74,.3-1.1,.52-1.4,.09-.13,.2-.25,.32-.35,.28-.24,.63-.37,1.35-.64l1.85-.69c2.67-1,4-1.5,4.23-2.59,.24-1.09-.77-2.09-2.79-4.11h0Z"/><path id="read-more" d="M21.96,11.5h-4.05c-1.1,0-2.07,0-2.85-.11-.85-.11-1.7-.38-2.39-1.07s-.95-1.54-1.07-2.39c-.1-.78-.1-1.75-.1-2.85V2.26c.01-.08,.02-.16,.03-.24-.41-.02-.89-.02-1.5-.02-3.79,0-5.69,0-6.86,1.17-1.17,1.17-1.17,3.06-1.17,6.83v4c0,3.77,0,5.66,1.17,6.83,1.17,1.17,3.06,1.17,6.83,1.17h4c3.77,0,5.66,0,6.83-1.17,1.17-1.17,1.17-3.06,1.17-6.83v-.44c0-.87,0-1.53-.04-2.06Zm-10.46,7.25H6c-.41,0-.75-.34-.75-.75s.34-.75,.75-.75h5.5c.41,0,.75,.34,.75,.75s-.34,.75-.75,.75Zm2.5-3.5H6c-.41,0-.75-.34-.75-.75s.34-.75,.75-.75H14c.41,0,.75,.34,.75,.75s-.34,.75-.75,.75Zm5.35-7.63l-3.96-3.56c-1.13-1.01-1.69-1.52-2.38-1.79v2.73c0,2.36,0,3.54,.72,4.27,.73,.73,1.91,.73,4.27,.73h3.58c-.36-.7-1.01-1.29-2.23-2.38Z" style="fill-rule:evenodd;"/><path id="reload" d="M18.84,2.06c.31,.13,.51,.43,.51,.76V7.46c0,.45-.37,.82-.82,.82h-4.64c-.45,0-.82-.37-.82-.82,0-.22,.09-.43,.24-.58l1.75-1.75c-4.04-1.69-8.68,.21-10.37,4.25-1.69,4.04,.21,8.68,4.25,10.37,4.04,1.69,8.68-.21,10.37-4.25,.54-1.28,.73-2.67,.55-4.05-.05-.45,.28-.85,.73-.9,.44-.05,.83,.26,.9,.7,.66,5.24-3.06,10.02-8.3,10.68-5.24,.66-10.02-3.06-10.68-8.3C1.85,8.39,5.57,3.6,10.81,2.95c1.88-.24,3.79,.09,5.49,.94l1.65-1.65c.23-.23,.59-.3,.89-.18h0Z"/><path id="search" d="M20.81,20.81c.25-.25,.25-.67,0-.92l-3.3-3.3c2.95-3.46,2.54-8.66-.92-11.62-3.46-2.95-8.66-2.54-11.62,.92-2.95,3.46-2.54,8.66,.92,11.62,3.08,2.63,7.62,2.63,10.7,0l3.3,3.3c.25,.25,.67,.25,.92,0Z" style="fill-rule:evenodd;"/><path id="settings" d="M20.4,13.36c-.48-.3-.78-.8-.78-1.36s.31-1.06,.78-1.36c.32-.2,.53-.36,.68-.56,.33-.42,.47-.95,.4-1.48-.05-.39-.29-.8-.76-1.6-.47-.81-.7-1.21-1.02-1.45-.43-.32-.96-.47-1.49-.4-.24,.03-.49,.13-.83,.31-.49,.27-1.09,.26-1.58,0-.48-.28-.78-.79-.79-1.35-.02-.38-.05-.64-.14-.86-.21-.49-.6-.88-1.09-1.08-.37-.15-.84-.15-1.78-.15s-1.41,0-1.78,.15c-.49,.2-.88,.59-1.09,1.08-.09,.22-.13,.48-.15,.86-.01,.56-.31,1.07-.8,1.35-.49,.27-1.09,.28-1.58,0-.34-.18-.58-.28-.82-.31-.53-.07-1.06,.07-1.49,.4-.32,.24-.55,.65-1.02,1.45-.47,.81-.7,1.21-.76,1.6-.07,.53,.07,1.06,.4,1.48,.15,.19,.36,.35,.68,.55,.48,.3,.78,.8,.78,1.36s-.31,1.06-.78,1.36c-.32,.2-.53,.36-.68,.56-.33,.42-.47,.95-.4,1.48,.05,.39,.29,.8,.76,1.61,.47,.81,.7,1.21,1.02,1.45,.42,.32,.96,.46,1.49,.4,.24-.03,.49-.13,.82-.31,.49-.27,1.09-.26,1.58,0,.49,.28,.77,.79,.79,1.35,.02,.38,.05,.64,.15,.86,.2,.49,.6,.88,1.09,1.08,.37,.15,.84,.15,1.78,.15s1.41,0,1.78-.15c.49-.2,.88-.59,1.09-1.08,.09-.22,.13-.48,.14-.86,.02-.56,.31-1.07,.8-1.35,.49-.27,1.09-.28,1.58,0,.34,.18,.58,.28,.83,.31,.53,.07,1.07-.07,1.49-.4,.32-.24,.55-.65,1.02-1.45,.47-.81,.7-1.21,.76-1.61,.07-.53-.07-1.06-.4-1.48-.15-.19-.36-.35-.68-.55Zm-8.4,1.64c-1.67,0-3.02-1.34-3.02-3s1.35-3,3.02-3,3.02,1.34,3.02,3-1.35,3-3.02,3Z" style="fill-rule:evenodd;"/><path id="share" d="M13.7,5.73c0-1.73,1.41-3.14,3.15-3.14,1.74,0,3.15,1.4,3.15,3.14h0c0,1.73-1.41,3.14-3.15,3.14-.84,0-1.65-.34-2.24-.94l-4.36,2.97c.12,.61,.06,1.23-.17,1.8l4.78,3.14c.56-.46,1.27-.71,2-.71,1.74,0,3.15,1.4,3.15,3.14h0c0,1.73-1.41,3.14-3.15,3.14-1.74,0-3.15-1.4-3.15-3.14,0-.44,.09-.87,.27-1.28l-4.75-3.12c-.57,.5-1.31,.77-2.07,.77-1.74,0-3.15-1.4-3.15-3.14,0,0,0,0,0,0,0-1.74,1.41-3.14,3.15-3.14,0,0,0,0,0,0,1,0,1.89,.46,2.47,1.19l4.23-2.88c-.1-.31-.15-.64-.15-.96Z" style="fill-rule:evenodd;"/><path id="sort-ascending" d="M17.71,2c.47,0,.86,.38,.86,.86v15.71l1.89-2.51c.28-.38,.82-.46,1.2-.17,.38,.28,.46,.82,.17,1.2l-3.43,4.57c-.28,.38-.82,.46-1.2,.17-.22-.16-.34-.42-.34-.69V2.86c0-.47,.38-.86,.86-.86ZM6.57,5.14c0-.47,.38-.86,.86-.86h5.71c.47,0,.86,.38,.86,.86s-.38,.86-.86,.86H7.43c-.47,0-.86-.38-.86-.86Zm-2.29,5.71c0-.47,.38-.86,.86-.86h8c.47,0,.86,.38,.86,.86s-.38,.86-.86,.86H5.14c-.47,0-.86-.38-.86-.86Zm-2.29,5.71c0-.47,.38-.86,.86-.86H13.14c.47,0,.86,.38,.86,.86s-.38,.86-.86,.86H2.86c-.47,0-.86-.38-.86-.86Z" style="fill-rule:evenodd;"/><path id="sort-descending" d="M17.44,2.04c.35-.12,.74,0,.96,.3l3.43,4.57c.28,.38,.21,.92-.17,1.2-.38,.28-.92,.21-1.2-.17l-1.89-2.51v15.71c0,.47-.38,.86-.86,.86s-.86-.38-.86-.86V2.86c0-.37,.24-.7,.59-.81ZM2,7.43c0-.47,.38-.86,.86-.86H13.14c.47,0,.86,.38,.86,.86s-.38,.86-.86,.86H2.86c-.47,0-.86-.38-.86-.86Zm2.29,5.71c0-.47,.38-.86,.86-.86h8c.47,0,.86,.38,.86,.86s-.38,.86-.86,.86H5.14c-.47,0-.86-.38-.86-.86Zm2.29,5.71c0-.47,.38-.86,.86-.86h5.71c.47,0,.86,.38,.86,.86s-.38,.86-.86,.86H7.43c-.47,0-.86-.38-.86-.86Z" style="fill-rule:evenodd;"/><path id="star" d="M9.15,5.41c1.27-2.27,1.9-3.41,2.85-3.41s1.58,1.14,2.85,3.41l.33,.59c.36,.65,.54,.97,.82,1.18,.28,.21,.63,.29,1.33,.45l.64,.14c2.46,.56,3.69,.84,3.98,1.78,.29,.94-.55,1.92-2.22,3.88l-.43,.51c-.48,.56-.72,.84-.82,1.18-.11,.35-.07,.72,0,1.46l.07,.68c.25,2.62,.38,3.93-.39,4.51-.77,.58-1.92,.05-4.22-1.01l-.6-.27c-.65-.3-.98-.45-1.33-.45s-.67,.15-1.33,.45l-.6,.27c-2.3,1.06-3.46,1.59-4.22,1.01-.77-.58-.64-1.89-.39-4.51l.07-.68c.07-.74,.11-1.12,0-1.46-.11-.35-.35-.62-.82-1.18l-.43-.51c-1.68-1.96-2.52-2.94-2.22-3.88,.29-.94,1.52-1.22,3.98-1.78l.64-.14c.7-.16,1.05-.24,1.33-.45,.28-.21,.46-.54,.82-1.18,0,0,.33-.59,.33-.59Z"/><path id="translate" d="M14.72,19.33c.33,.07,.67,.12,1.01,.15-.06,.06-.12,.12-.18,.18-.73,.69-1.86,.99-4.11,1.59-2.26,.6-3.38,.91-4.36,.68-.77-.18-1.47-.58-2.01-1.16-.69-.73-.99-1.86-1.59-4.11l-.52-1.93c-.61-2.26-.91-3.38-.68-4.36,.18-.77,.58-1.47,1.16-2.01,.67-.63,1.69-.94,3.61-1.45l-.02,.07-.54,1.99c-.29,1.08-.53,1.97-.66,2.72-.14,.78-.19,1.54-.01,2.3,.25,1.06,.8,2.02,1.6,2.77,.58,.54,1.26,.87,2,1.14,.71,.26,1.6,.49,2.66,.78h.03s.11,.04,.11,.04c.98,.26,1.81,.48,2.5,.62Zm6.32-8.61h0l-.52,1.93c-.61,2.26-.91,3.38-1.59,4.11-.54,.58-1.24,.98-2.01,1.16-.1,.02-.2,.04-.3,.05-.92,.11-2.03-.19-4.06-.73-2.26-.61-3.38-.91-4.11-1.59-.58-.54-.98-1.24-1.16-2.01-.23-.98,.07-2.1,.68-4.36l.52-1.93,.24-.91c.46-1.67,.76-2.58,1.35-3.21,.54-.58,1.24-.98,2.01-1.16,.98-.23,2.1,.07,4.36,.68,2.25,.6,3.38,.91,4.11,1.59,.58,.54,.98,1.24,1.16,2.01,.23,.98-.08,2.1-.68,4.36Zm-6.74,2.24l-2.9-.78c-.4-.11-.81,.13-.92,.53,0,0,0,0,0,0-.11,.4,.13,.81,.53,.92l2.9,.78s.03,0,.05,.01c.4,.09,.81-.16,.9-.56,.09-.4-.16-.81-.56-.9Zm2.71-2.38l-4.83-1.3s0,0,0,0c-.4-.11-.81,.13-.92,.53h0c-.11,.4,.13,.81,.53,.92l4.83,1.29s.03,0,.04,.01c.4,.1,.81-.15,.9-.56s-.15-.81-.56-.9Z"/><path id="verified" d="M21.73,10.83c-.15-.32-.41-.63-.93-1.24-.14-.16-.28-.32-.4-.49-.2-.3-.34-.63-.41-.98-.03-.21-.06-.42-.07-.63-.06-.8-.1-1.2-.21-1.54-.27-.77-.88-1.38-1.66-1.65-.33-.12-.73-.15-1.54-.21-.21-.01-.42-.03-.63-.07-.35-.07-.69-.21-.98-.41-.17-.12-.34-.26-.49-.4-.61-.52-.92-.78-1.24-.93-.74-.35-1.6-.35-2.34,0-.32,.15-.63,.41-1.24,.93-.16,.14-.32,.28-.49,.4-.3,.2-.63,.34-.98,.41-.15,.03-.31,.04-.63,.07-.8,.06-1.2,.1-1.54,.21-.77,.27-1.38,.88-1.66,1.65-.12,.33-.15,.74-.21,1.54-.01,.21-.03,.42-.07,.63-.07,.35-.21,.69-.41,.98-.09,.13-.19,.25-.4,.49-.52,.61-.78,.92-.93,1.24-.35,.74-.35,1.6,0,2.34,.15,.32,.41,.63,.93,1.24,.21,.24,.31,.36,.4,.49,.2,.3,.34,.63,.41,.98,.03,.15,.04,.31,.07,.63,.06,.8,.1,1.2,.21,1.54,.27,.77,.88,1.38,1.66,1.66,.33,.12,.73,.15,1.54,.21,.32,.03,.48,.04,.63,.07,.35,.07,.69,.21,.98,.41,.13,.09,.25,.19,.49,.4,.61,.52,.92,.78,1.24,.93,.74,.35,1.6,.35,2.34,0,.32-.15,.63-.41,1.24-.93,.24-.21,.36-.31,.49-.4,.3-.2,.63-.34,.98-.41,.15-.03,.31-.04,.63-.07,.8-.06,1.2-.1,1.54-.21,.77-.27,1.38-.88,1.66-1.66,.12-.33,.15-.73,.21-1.54,.03-.32,.04-.48,.07-.63,.07-.35,.21-.69,.41-.98,.09-.13,.19-.25,.4-.49,.52-.61,.78-.92,.93-1.24,.35-.74,.35-1.6,0-2.34Zm-5.36-.97h0l-5.43,5.42c-.32,.32-.83,.32-1.15,0l-2.17-2.17c-.28-.31-.28-.79,0-1.1,.3-.33,.82-.36,1.15-.05l1.6,1.59,4.85-4.85c.31-.28,.79-.28,1.1,0,.33,.3,.36,.82,.05,1.15Z" style="fill-rule:evenodd;"/><path id="zip" d="M19.83,3.17c-1.17-1.17-3.06-1.17-6.83-1.17h-1v2h1.5c.47,0,.71,0,.85,.15,.15,.15,.15,.38,.15,.85s0,.71-.15,.85c-.15,.15-.38,.15-.85,.15h-1.5v2h1.5c.47,0,.71,0,.85,.15,.15,.15,.15,.38,.15,.85s0,.71-.15,.85c-.15,.15-.38,.15-.85,.15h-.5c-.47,0-.71,0-.85-.15-.15-.15-.15-.38-.15-.85v-1h-1.5c-.47,0-.71,0-.85-.15-.15-.15-.15-.38-.15-.85s0-.71,.15-.85c.15-.15,.38-.15,.85-.15h1.5v-2h-1.5c-.47,0-.71,0-.85-.15-.15-.15-.15-.38-.15-.85v-1c-2.79,.02-4.32,.16-5.33,1.17-1.17,1.17-1.17,3.06-1.17,6.83v4c0,3.77,0,5.66,1.17,6.83,1.17,1.17,3.06,1.17,6.83,1.17h2c3.77,0,5.66,0,6.83-1.17,1.17-1.17,1.17-3.06,1.17-6.83v-4c0-3.77,0-5.66-1.17-6.83Zm-5.33,9.83c0,1.38-1.12,2.5-2.5,2.5s-2.5-1.12-2.5-2.5v-.12c0-.48,.39-.88,.88-.88h3.25c.48,0,.88,.39,.88,.88v.12Z" style="fill-rule:evenodd;"/></svg>