<svg id="Layer_8" data-name="Layer 8" xmlns="http://www.w3.org/2000/svg" viewBox="0 0 18.8 20">
  <path d="M10.4,12.2A2.5,2.5,0,0,0,9,9a2.6,2.6,0,0,0-2.9,2,2.5,2.5,0,0,0,.1,1.9,1.9,1.9,0,0,0,1.3,1.2h.6a1.9,1.9,0,0,0,1.2-.4A3.1,3.1,0,0,0,10.4,12.2ZM7.6,13.7a1.6,1.6,0,0,1-1-1,2.2,2.2,0,0,1-.1-1.6A2.2,2.2,0,0,1,8.4,9.4h.4l.5.2H9.2c-.5,0-1,.7-1,1.6s.5,1.6,1,1.6a.9.9,0,0,0,.6-.3,2,2,0,0,1-.8.8A1.7,1.7,0,0,1,7.6,13.7Zm9.1-4.4A2.2,2.2,0,0,0,15,8.9a2.6,2.6,0,0,0-1.5,3.2,2.5,2.5,0,0,0,2.4,2h.5a2.2,2.2,0,0,0,1.3-1.2,2.5,2.5,0,0,0,.1-1.9A2.1,2.1,0,0,0,16.7,9.3Zm.6,3.3a1.6,1.6,0,0,1-1,1,1.9,1.9,0,0,1-2.1-1,.6.6,0,0,0,.6.3c.5,0,.9-.7.9-1.6s-.4-1.6-.9-1.6h-.5a1.2,1.2,0,0,1,.8-.4,1.5,1.5,0,0,1,1.4.2,2.3,2.3,0,0,1,.9,1.4A2.2,2.2,0,0,1,17.3,12.6Zm-2.5,2.1h-.3l-.4-.2h-.3a.3.3,0,0,0,0,.4h.4c-.1.3-.2.7-.4.7h-.5a1.8,1.8,0,0,1-1-.7.8.8,0,0,0,.7-.7h0c.5-.2.9-.4.9-.7s-.9-.9-1.9-.9-1.8.4-1.8.9.2.4.6.6h.3c0,.4.3.6.8.7l-1,.7h-.4c-.1,0-.3-.3-.4-.7l.2-.2a.2.2,0,0,0,0-.3H9.9l-.2.3H9.3a.2.2,0,0,0,0,.4h.4c.1.3.4.9.8.9h.3c.1.5.5,1.6,1.3,1.6h0c.8,0,1.2-1.1,1.3-1.6h.4c.5,0,.7-.7.8-1h.3c.1,0,.2-.2.2-.3S15,14.6,14.8,14.7Zm-2.7,2.5h0c-.4,0-.7-.8-.9-1.4a1.8,1.8,0,0,0,.9-.6,2.2,2.2,0,0,0,.9.7C12.9,16.3,12.5,17.1,12.1,17.2ZM7.9,8.9c-.1-.1-.1-.3,0-.3a3.3,3.3,0,0,1,1.7-.8l.2.3c0,.1-.1.2-.3.2s-1.1.4-1.3.6H7.9ZM13.8,8c0-.2,0-.3.2-.3s1.6.7,1.7.7.1.3,0,.3h-.3c-.3-.2-.9-.7-1.4-.6Zm-2.9,2a2.7,2.7,0,0,0,.2-.9l.2-.2.3.2a3.1,3.1,0,0,1-.3,1.1H11C10.9,10.2,10.8,10.1,10.9,10Zm1.8.2a3.1,3.1,0,0,1-.3-1.1l.3-.2.2.2a1.3,1.3,0,0,0,.2.9c.1.1,0,.2-.1.3h-.3Zm-.9-.1v-1c0-.2.1-.3.2-.3s.2.1.2.3v1a.2.2,0,0,1-.4,0Zm7.5,1.2a34.2,34.2,0,0,0-2.2-3.1A3.9,3.9,0,0,0,19.6,6a4.1,4.1,0,0,0-.1-3.4A1.5,1.5,0,0,0,18.2,2c-1.4.1-1.5,1.5-1.6,2.7s-.1.7-.1,1-.8,1.2-1,1.2a12.6,12.6,0,0,0-7,0c-.2,0-.8-.2-1-1.2s-.1-.7-.1-1S7.2,2.1,5.8,2a1.5,1.5,0,0,0-1.3.6A4.1,4.1,0,0,0,4.4,6,3.9,3.9,0,0,0,6.9,8.2a34.2,34.2,0,0,0-2.2,3.1c-2.3,3.3-2.2,4.1-2,4.5a1.3,1.3,0,0,0,.9.2,6.9,6.9,0,0,0-.5,1.7,1,1,0,0,0,.4,1.1,3.9,3.9,0,0,0,2.3,1.3h0A2.6,2.6,0,0,0,8.3,22h.1a3.9,3.9,0,0,0,2.8-1.2h1.7a4,4,0,0,0,2.7,1h.1a2.9,2.9,0,0,0,2.5-1.7,3.9,3.9,0,0,0,2.3-1.3,1,1,0,0,0,.4-1.1,6.9,6.9,0,0,0-.5-1.7,1.3,1.3,0,0,0,.9-.2C21.5,15.4,21.6,14.6,19.3,11.3Zm-8.2,8.9a3.2,3.2,0,0,1-2.8,1.4,2.5,2.5,0,0,1-2.1-1.5,2.2,2.2,0,0,1,.5-1.9.9.9,0,0,1,.8-.4h0c.3,0,.5,0,.6.2a1,1,0,0,1,.1.4.2.2,0,0,0,.2.2c.1.1.2,0,.3-.1s.2-.6.7-.5.4.8.4.8a.2.2,0,0,0,.2.2c.1,0,.2,0,.2-.1a.5.5,0,0,1,.5-.1A1.1,1.1,0,0,1,11.1,20.2Zm6.7-.3a2.5,2.5,0,0,1-2.1,1.5A3.2,3.2,0,0,1,12.9,20a1.1,1.1,0,0,1,.4-1.4h.5c0,.1.1.1.2.1l.2-.2s0-.8.4-.8.7.5.7.5l.3.2c.1-.1.2-.2.2-.3a1,1,0,0,1,.1-.4.8.8,0,0,1,.6-.2.7.7,0,0,1,.8.4A2.2,2.2,0,0,1,17.8,19.9Zm3.1-4.4c-.1.1-.3.1-.8-.1h-.3v.2a15.6,15.6,0,0,1,.7,2.1,1.1,1.1,0,0,1-.3.7,4.2,4.2,0,0,1-1.9,1.2,3.6,3.6,0,0,0-.6-2,1.7,1.7,0,0,0-1.2-.6,1.3,1.3,0,0,0-.9.4l-.2.2a1.2,1.2,0,0,0-.8-.4,1.1,1.1,0,0,0-.8.9.6.6,0,0,0-.7.1,1.3,1.3,0,0,0-.6,1.9h-1a1.5,1.5,0,0,0-.6-2h-.7a1.1,1.1,0,0,0-.8-.9,1.2,1.2,0,0,0-.8.4l-.2-.2a1.3,1.3,0,0,0-.9-.4,1.7,1.7,0,0,0-1.2.6,3,3,0,0,0-.6,1.8,4.2,4.2,0,0,1-1.9-1.2,1.1,1.1,0,0,1-.3-.7,15.6,15.6,0,0,1,.7-2.1v-.2H3.9c-.5.2-.7.2-.8.1s-.3-.7,1.9-4L7.5,8.1c.1-.1.1-.2,0-.2a.2.2,0,0,0-.2-.2A2.9,2.9,0,0,1,4.8,5.8a3.3,3.3,0,0,1,.1-2.9c.2-.3.4-.5.8-.4S6.9,3.3,7,4.7a3.4,3.4,0,0,0,.1,1c.3,1.6,1.4,1.7,1.4,1.7h.1a11.8,11.8,0,0,1,6.8-.1c0,.1,0,.1.1.1s1.1-.1,1.4-1.7a3.4,3.4,0,0,0,.1-1c.1-1.4.3-2.2,1.3-2.3a1,1,0,0,1,.8.5,3.3,3.3,0,0,1,.1,2.9,2.9,2.9,0,0,1-2.5,1.9.2.2,0,0,0-.2.2c-.1,0-.1.1,0,.2L19,11.5C21.2,14.8,21,15.4,20.9,15.5Z" transform="translate(-2.6 -2)"/>
</svg>
